#N canvas 532 163 854 733 10;
#X obj 101 101 cnv 15 198 48 empty canvas-\$0 goto>\$1 1 7 2 14 #c4fcc4 #9c00fc 0;
#X text 7 3 -arg1 cue_name -arg2 midi_toogle;
#X obj 100 115 bng 35 250 50 0 empty empty top 36 5 0 10 #00fc04 #f8fc00 #fc8000;
#X obj 138 127 bng 10 250 50 0 empty empty Edit 12 5 0 10 #f8fc00 #000000 #b8b8b8;
#X msg 138 483 open;
#X msg 15 286 Cue_name;
#X obj 16 542 unpack s f f s;
#X msg 209 493 writeagain;
#X obj 177 127 bng 10 250 50 0 empty empty Update 12 5 0 10 #fc0400 #000000 #b8b8b8;
#X obj 177 268 t b b;
#X msg 16 594 label \$1;
#X obj 111 606 s bang-\$1;
#X obj 136 140 cnv 10 140 10 empty lblnext-\$1 next 1 5 1 11 #9c00fc #c4fcc4 0;
#X obj 13 170 symbol \$1;
#X obj 510 321 r SHOW;
#X obj 542 485 makefilename;
#X obj 457 429 symbol \$1;
#X obj 542 373 symbol;
#X msg 542 419 set \$1;
#X obj 15 520 cyclone/coll;
#C restore;
#X msg 242 568 read;
#X msg 295 503 read \$1;
#X obj 100 64 r bang-\$1;
#X obj 510 343 t b b a;
#X obj 13 220 s to_control_goto;
#X msg 111 584 label \$1;
#X msg 625 322 FFM;
#X obj 542 397 makefilename /home/pi/Documents/_%s/Cue/%%s;
#X obj 351 196 s CUE_LOADER_goto;
#X obj 458 196 s CUE_EDIT_Next_cue;
#X obj 351 135 symbol \$1;
#X obj 237 127 bng 10 250 50 0 empty empty SELECT 12 5 0 10 #0400fc #f8fc00 #b8b8b8;
#X obj 16 565 symbol;
#X obj 16 616 s lblnext-\$1;
#X msg 669 323 RSR;
#X obj 263 407 bng 18 250 50 0 empty empty empty 0 -9 0 10 #fcfcfc #000000 #000000;
#X msg 202 670 label top;
#X msg 101 677 label next;
#X obj 457 377 random 5000;
#X obj 457 400 del;
#X connect 2 0 13 0;
#X connect 3 0 4 0;
#X connect 4 0 19 0;
#X connect 5 0 19 0;
#X connect 6 0 32 0;
#X connect 6 3 25 0;
#X connect 7 0 19 0;
#X connect 8 0 9 0;
#X connect 9 0 5 0;
#X connect 9 1 7 0;
#X connect 10 0 33 0;
#X connect 13 0 24 0;
#X connect 14 0 23 0;
#X connect 15 0 21 0;
#X connect 16 0 15 0;
#X connect 17 0 27 0;
#X connect 18 0 15 0;
#X connect 19 0 6 0;
#X connect 19 2 35 0;
#X connect 20 0 19 0;
#X connect 21 0 19 0;
#X connect 22 0 2 0;
#X connect 23 0 38 0;
#X connect 23 2 17 0;
#X connect 25 0 11 0;
#X connect 26 0 23 0;
#X connect 27 0 18 0;
#X connect 30 0 29 0;
#X connect 30 0 28 0;
#X connect 31 0 30 0;
#X connect 32 0 10 0;
#X connect 34 0 23 0;
#X connect 35 0 5 0;
#X connect 36 0 11 0;
#X connect 37 0 33 0;
#X connect 38 0 39 0;
#X connect 39 0 16 0;
#X coords 0 -1 1 1 200 50 2 100 100;
