#N canvas 47 373 1592 729 10;
#X obj 101 101 cnv 15 148 48 empty empty palett-\$1 3 7 0 14 -4034
-4160 0;
#X obj 84 11 r to_cue;
#X obj 84 354 cyclone/coll;
#C restore;
#X obj 84 311 cyclone/prepend store;
#X msg 1071 364 set \$1;
#X obj 909 259 t b a a b;
#X obj 909 311 bang;
#X msg 926 338 write \$1;
#X obj 415 322 bng 15 250 50 0 empty empty Open_palette-\$1 17 7 0
10 -257985 -1 -1;
#X msg 415 338 open;
#X msg 861 381 /home/pi/Documents/_SHO/palette/palette-1-1;
#X obj 244 322 bng 15 250 50 0 empty empty clear-palette-\$1 17 7 0
10 -260097 -1 -1;
#X msg 670 195 set \$1;
#X obj 909 234 makefilename;
#X obj 669 75 r SHOW;
#X obj 669 97 symbol;
#X obj 669 121 makefilename /home/pi/Documents/_%s/palette/%%s;
#X obj 669 144 send CHEMIN-\$0;
#X obj 670 167 r CHEMIN-\$0;
#X obj 260 526 qlist;
#X msg 278 138 dump;
#X obj 84 424 prepend add;
#X obj 84 400 prepend;
#X obj 173 396 bng 15 250 50 0 empty empty dump-qlist 17 7 0 10 -262144
-1 -1;
#X msg 297 111 clear;
#X obj 84 77 spigot;
#X obj 117 59 tgl 15 0 empty empty listen-palette-\$1 17 7 0 10 -261234
-1 -1 0 1;
#X obj 670 381 makefilename;
#X msg 670 405 read \$1;
#X obj 156 579 print qlint;
#X obj 670 349 symbol palette-\$1;
#X obj 670 327 bng 15 250 50 0 empty read-palette-\$1 read-palette-\$1
17 7 0 10 -262130 -1 -1;
#X obj 909 204 symbol palette-\$1;
#X obj 909 182 bng 15 250 50 0 empty empty store-palette-\$1 17 7 0
10 -258113 -1 -1;
#X obj 670 218 t b a a;
#X msg 244 338 clear;
#X obj 202 119 bng 15 250 50 0 empty Open_palette-\$1 O 17 7 0 10 -257985
-1 -1;
#X obj 278 9 bng 30 250 50 0 empty send-palette-\$1 send-palette-\$1
3 15 0 10 -204786 -1 -258113;
#X obj 141 119 tgl 15 0 empty listen-palette-\$1 Listen 17 7 0 10 -261234
-1 -1 0 1;
#X obj 141 135 bng 15 250 50 0 empty store-palette-\$1 Store 17 7 0
10 -258113 -1 -1;
#X obj 202 134 bng 15 250 50 0 empty clear-palette-\$1 Clear 17 7 0
10 -260097 -1 -1;
#X obj 335 565 prepend send-palette-\$1;
#X obj 335 520 bng 15 250 50 0 empty empty empty 17 7 0 10 -262144
-1 -1;
#X obj 335 587 s to_cue;
#X msg 335 540 1;
#X obj 278 82 t b b b;
#X obj 101 119 bng 30 250 50 0 empty bang-palette-\$1 Send 3 15 0 10
-204786 -1 -258113;
#X obj 101 154 t b b;
#X msg 168 184 0;
#X obj 141 155 t b b;
#X obj 158 16 inlet;
#X obj 571 9 inlet;
#X text 620 9 Right inlet juste send;
#X text 620 29 Left inlet send & add to Cue;
#X obj 240 101 bng 10 250 50 0 empty empty empty 17 7 0 10 -4034 -258113
-1;
#X connect 1 0 25 0;
#X connect 2 0 22 0;
#X connect 2 1 22 1;
#X connect 2 3 23 0;
#X connect 3 0 2 0;
#X connect 4 0 10 0;
#X connect 5 0 6 0;
#X connect 5 1 7 0;
#X connect 5 2 4 0;
#X connect 6 0 31 0;
#X connect 7 0 2 0;
#X connect 8 0 9 0;
#X connect 9 0 2 0;
#X connect 11 0 35 0;
#X connect 12 0 34 0;
#X connect 13 0 5 0;
#X connect 14 0 15 0;
#X connect 15 0 16 0;
#X connect 16 0 17 0;
#X connect 18 0 12 0;
#X connect 20 0 2 0;
#X connect 21 0 19 0;
#X connect 22 0 21 0;
#X connect 23 0 19 0;
#X connect 24 0 19 0;
#X connect 25 0 3 0;
#X connect 26 0 25 1;
#X connect 27 0 28 0;
#X connect 28 0 2 0;
#X connect 30 0 27 0;
#X connect 31 0 30 0;
#X connect 32 0 13 0;
#X connect 33 0 32 0;
#X connect 34 0 31 0;
#X connect 34 1 13 0;
#X connect 34 2 27 0;
#X connect 35 0 2 0;
#X connect 36 0 8 0;
#X connect 37 0 45 0;
#X connect 38 0 26 0;
#X connect 39 0 49 0;
#X connect 40 0 11 0;
#X connect 41 0 43 0;
#X connect 42 0 44 0;
#X connect 44 0 41 0;
#X connect 45 0 20 0;
#X connect 45 1 24 0;
#X connect 45 2 54 0;
#X connect 46 0 47 0;
#X connect 47 0 45 0;
#X connect 47 1 42 0;
#X connect 48 0 38 0;
#X connect 49 0 33 0;
#X connect 49 1 48 0;
#X connect 50 0 46 0;
#X connect 51 0 37 0;
#X coords 0 -1 1 1 150 50 1 100 100;
