#N canvas 0 69 1920 977 12;
#X obj 103 192 inlet;
#X obj 159 654 hradio 20 1 0 20 empty numero-qlist-\$0 numero-qlist-\$0 0 -10 0 12 #ffe3c6 #000000 #000000 0;
#X obj 159 794 s \$0-name;
#X obj 647 414 qlist;
#X obj 103 453 t b a;
#X obj 135 492 s numero-qlist-\$0;
#X obj 102 492 bng 20 250 50 0 read-\$0 empty read-\$0 0 -10 0 12 #c6ffc7 #000000 #000000;
#X obj 186 427 t b a;
#X obj 218 466 s numero-qlist-\$0;
#X obj 185 465 bng 20 250 50 0 write-\$0 empty write-\$0 0 -10 0 12 #ffc7c6 #000000 #000000;
#X obj 316 432 s numero-qlist-\$0;
#X obj 293 432 bng 20 250 50 0 read-\$0 empty read-\$0 0 -10 0 12 #c6ffc7 #000000 #000000;
#X obj 269 383 t b b a;
#X obj 269 422 bng 20 250 50 0 sequence-\$0 empty sequence-\$0 0 -10 0 12 #e3c6ff #000000 #000000;
#X obj 391 378 outlet;
#X msg 367 777 \; \$1_canvas label \$2;
#X obj 367 752 prepend \$0;
#N canvas -10 154 960 977 manual-control 0;
#X msg 179 687 /ambilight/read \$1;
#X obj 100 118 hradio 20 1 0 20 empty empty read 0 -10 0 12 #c6ffc7 #000000 #000000 0;
#X obj 100 158 hradio 20 1 0 20 empty empty write 0 -10 0 12 #ffc7c6 #000000 #000000 0;
#X msg 202 598 /ambilight/write \$1;
#X obj 100 198 hradio 20 1 0 20 empty empty send 0 -10 0 12 #e3c6ff #000000 #000000 0;
#X msg 225 512 /ambilight/send \$1;
#X obj 179 373 makefilename /%s;
#X obj 179 398 t a a a;
#X msg 179 658 set \, add2 \$1 \, adddollar 1;
#X obj 179 343 symbol \$1;
#X obj 179 315 bng 20 250 50 1 empty empty INIT 0 -10 0 12 #000000 #ffffff #000000;
#X obj 202 543 makefilename %s/write;
#X msg 202 568 set \, add2 \$1 \, adddollar 1;
#X obj 179 633 makefilename %s/read;
#X msg 225 478 set \, add2 \$1 \, adddollar 1;
#X obj 225 453 makefilename %s/send;
#X obj 639 766 outlet;
#X connect 0 0 16 0;
#X connect 1 0 0 0;
#X connect 2 0 3 0;
#X connect 3 0 16 0;
#X connect 4 0 5 0;
#X connect 5 0 16 0;
#X connect 6 0 7 0;
#X connect 7 0 13 0;
#X connect 7 1 11 0;
#X connect 7 2 15 0;
#X connect 8 0 0 0;
#X connect 9 0 6 0;
#X connect 10 0 9 0;
#X connect 11 0 12 0;
#X connect 12 0 3 0;
#X connect 13 0 8 0;
#X connect 14 0 5 0;
#X connect 15 0 14 0;
#X coords 0 -1 1 1 400 120 2 100 100;
#X restore 117 224 pd manual-control;
#X msg 610 778 1 \, 2 \, 3 \, 4 \, 5 \, 6 \, 7;
#X obj 610 748 bng 20 250 50 0 empty empty INIT-TELECOMMANDE 0 -10 0 12 #bbbbbb #000000 #000000;
#X obj 646 284 prepend add;
#X obj 1030 818 r \$0-print;
#X obj 646 309 s \$0-toqlist;
#X obj 647 380 r \$0-toqlist;
#X obj 610 860 s \$0-toqlist;
#N canvas 0 69 1920 977 command 0;
#X msg 526 495 read \$1;
#X obj 526 471 symbol;
#X obj 526 447 bng 20 250 50 0 empty read-\$0 read-\$0 0 -10 0 12 #c6ffc7 #000000 #000000;
#X obj 565 447 r \$0-name;
#X obj 664 474 symbol;
#X obj 664 450 bng 20 250 50 0 empty write-\$0 write-\$0 0 -10 0 12 #ffc7c6 #000000 #000000;
#X obj 703 450 r \$0-name;
#X msg 664 497 write \$1;
#X obj 315 442 bng 20 250 50 0 empty sequence-\$0 sequence-\$0 0 -10 0 12 #e3c6ff #000000 #000000;
#X msg 159 561 click;
#X obj 159 432 bng 20 250 50 0 empty open-\$0 open-\$0 0 -10 0 12 #feffc6 #000000 #000000;
#X obj 664 522 t a a;
#X obj 696 549 s \$0-print;
#X obj 526 521 t a a;
#X obj 558 548 s \$0-print;
#X obj 347 501 symbol;
#X obj 386 477 r \$0-name;
#X obj 347 558 s \$0-print;
#X msg 347 525 send \$1;
#X obj 191 481 symbol;
#X obj 230 457 r \$0-name;
#X obj 191 538 s \$0-print;
#X obj 159 457 t a a;
#X msg 191 505 open \$1;
#X obj 159 586 s \$0-toqlist;
#X obj 315 582 s \$0-toqlist;
#X obj 526 576 s \$0-toqlist;
#X obj 664 577 s \$0-toqlist;
#X obj 809 432 bng 20 250 50 0 empty print-\$0 print-\$0 0 -10 0 12 #bbbbbb #000000 #000000;
#X obj 841 481 symbol;
#X obj 880 457 r \$0-name;
#X obj 841 538 s \$0-print;
#X obj 809 457 t a a;
#X obj 809 586 s \$0-toqlist;
#X msg 841 505 print \$1;
#X msg 809 561 print;
#X obj 989 432 bng 20 250 50 0 empty clear-\$0 clear-\$0 0 -10 0 12 #ff0400 #000000 #000000;
#X obj 1021 481 symbol;
#X obj 1060 457 r \$0-name;
#X obj 1021 538 s \$0-print;
#X obj 989 457 t a a;
#X obj 989 586 s \$0-toqlist;
#X msg 1021 505 clear \$1;
#X msg 989 561 clear;
#X obj 590 360 bng 20 250 50 0 read-\$0 empty read 25 10 0 12 #c6ffc7 #000000 #000000;
#X obj 190 154 bng 20 250 50 0 sequence-\$0 empty sequence 25 10 0 12 #e3c6ff #000000 #000000;
#X obj 110 129 bng 20 250 50 0 open-\$0 empty open 25 10 0 12 #feffc6 #000000 #000000;
#X obj 281 129 bng 20 250 50 0 write-\$0 empty write 25 10 0 12 #ffc7c6 #000000 #000000;
#X obj 110 154 bng 20 250 50 0 print-\$0 empty print 25 10 0 12 #bbbbbb #000000 #000000;
#X obj 281 154 bng 20 250 50 0 clear-\$0 empty clear 25 10 0 12 #ff0400 #000000 #000000;
#X floatatom 160 100 20 0 0 0 - - - 0;
#X obj 306 44 s numero-qlist-\$0;
#X obj 101 101 cnv 20 246 20 empty \$0_canvas qlist/\$1 20 12 0 12 #e0e0e0 #202020 0;
#X obj 160 44 r numero-qlist-\$0;
#X msg 160 69 set \$1;
#X obj 326 102 bng 18 250 50 0 empty empty empty 0 -10 0 10 #000000 #ffffff #000000;
#X obj 788 217 r numero-qlist-\$0;
#X obj 788 242 t a a;
#X obj 736 277 i;
#X obj 736 302 + 1;
#X obj 776 277 i;
#X obj 756 345 s numero-qlist-\$0;
#X obj 722 245 bng 20 250 50 0 empty empty + 4 10 0 20 #fcfcfc #000000 #000000;
#X obj 754 245 bng 20 250 50 0 empty empty - 4 10 0 20 #fcfcfc #000000 #000000;
#X obj 776 302 - 1;
#X obj 659 25 r commande-lacon;
#X obj 659 145 spigot;
#X obj 698 55 tgl 20 0 empty empty empty 0 -10 0 12 #fcfcfc #000000 #000000 0 1;
#X obj 775 25 r commande-lacon-spigot;
#X obj 508 318 t b b;
#X obj 558 318 t b b;
#X msg 362 148 selected \; commande-lacon-spigot 0 \; commande-lacon-spigot-\$1 1;
#X obj 362 205 s \$0-print;
#X obj 659 172 route Q+ Q- send print open;
#X obj 608 318 t b b;
#X obj 190 129 bng 20 250 50 0 read-\$0 empty read 25 10 0 12 #c6ffc7 #000000 #000000;
#X obj 698 120 t a a;
#X obj 806 140 route 0 1;
#X obj 1022 160 bng 20 250 50 0 empty empty empty 0 -10 0 12 #fcfcfc #000000 #000000;
#X msg 1200 205 \; \$1_canvas color 12 0 10;
#X obj 1200 160 bng 20 250 50 0 empty empty empty 0 -10 0 12 #fcfcfc #000000 #000000;
#X obj 1022 183 i \$0;
#X obj 1200 182 i \$0;
#X msg 1022 206 \; \$1_canvas color 10 0 12;
#X obj 698 80 change;
#X obj 362 121 symbol \$1;
#X obj 326 68 r SELECT-\$1;
#X obj 940 25 r commande-lacon-spigot-\$1;
#X obj 365 647 tgl 20 1 REC-Mode-M-\$1 empty REC-Mode-M-\$1 -60 10 0 12 #ff0400 #0400ff #000000 0 1;
#X obj 315 477 t a a b;
#X msg 365 613 0;
#X connect 0 0 13 0;
#X connect 1 0 0 0;
#X connect 2 0 1 0;
#X connect 3 0 1 1;
#X connect 4 0 7 0;
#X connect 5 0 4 0;
#X connect 6 0 4 1;
#X connect 7 0 11 0;
#X connect 8 0 89 0;
#X connect 9 0 24 0;
#X connect 10 0 22 0;
#X connect 11 0 27 0;
#X connect 11 1 12 0;
#X connect 13 0 26 0;
#X connect 13 1 14 0;
#X connect 15 0 18 0;
#X connect 16 0 15 1;
#X connect 18 0 17 0;
#X connect 19 0 23 0;
#X connect 20 0 19 1;
#X connect 22 0 9 0;
#X connect 22 1 19 0;
#X connect 23 0 21 0;
#X connect 28 0 32 0;
#X connect 29 0 34 0;
#X connect 30 0 29 1;
#X connect 32 0 35 0;
#X connect 32 1 29 0;
#X connect 34 0 31 0;
#X connect 35 0 33 0;
#X connect 36 0 40 0;
#X connect 37 0 42 0;
#X connect 38 0 37 1;
#X connect 40 0 43 0;
#X connect 40 1 37 0;
#X connect 42 0 39 0;
#X connect 43 0 41 0;
#X connect 50 0 51 0;
#X connect 53 0 54 0;
#X connect 54 0 50 0;
#X connect 55 0 85 0;
#X connect 56 0 57 0;
#X connect 57 0 58 1;
#X connect 57 1 60 1;
#X connect 58 0 59 0;
#X connect 59 0 61 0;
#X connect 60 0 64 0;
#X connect 62 0 58 0;
#X connect 63 0 60 0;
#X connect 64 0 61 0;
#X connect 65 0 66 0;
#X connect 66 0 73 0;
#X connect 67 0 84 0;
#X connect 68 0 67 0;
#X connect 69 0 45 0;
#X connect 69 1 44 0;
#X connect 70 0 48 0;
#X connect 70 1 44 0;
#X connect 71 0 72 0;
#X connect 73 0 62 0;
#X connect 73 1 63 0;
#X connect 73 2 69 0;
#X connect 73 3 70 0;
#X connect 73 4 74 0;
#X connect 74 0 46 0;
#X connect 74 1 44 0;
#X connect 76 0 66 1;
#X connect 76 1 77 0;
#X connect 77 0 78 0;
#X connect 77 1 80 0;
#X connect 78 0 81 0;
#X connect 80 0 82 0;
#X connect 81 0 83 0;
#X connect 82 0 79 0;
#X connect 84 0 76 0;
#X connect 85 0 71 0;
#X connect 86 0 55 0;
#X connect 87 0 67 0;
#X connect 89 0 25 0;
#X connect 89 1 15 0;
#X connect 89 2 90 0;
#X connect 90 0 88 0;
#X coords 0 -1 1 1 248 78 1 100 100;
#X restore 101 101 pd command;
#X obj 679 444 s \$0-done;
#X obj 552 53 bng 20 250 50 0 empty empty RAZ 0 -10 0 12 #bbbbbb #000000 #000000;
#X obj 552 78 \$0;
#X obj 15 64 r KONTROL;
#X obj 459 463 r KONTROL-ALL;
#X obj 459 495 routeOSC /Qread /Qwrite /Qsend;
#X obj 666 523 print lost-in-KONTROL-ALL;
#X msg 610 835 add \$1 OSC_to_StuART_\$2 /assign/\$3 1, f 54;
#X obj 552 103 list prepend \$1;
#X msg 552 129 \; \$2_canvas label qlist;
#X obj 646 226 r \$1-toqlist;
#X obj 1030 843 print CTRL-\$1;
#X obj 1137 843 s OSC_to_StuART_\$1;
#X obj 610 807 prepend 100 \$1;
#X obj 103 358 routeOSC /\$1/Qread /\$1/Qwrite /\$1/Qsend;
#X obj 779 443 print \$1-QlistDone;
#X obj 779 398 r \$0-done;
#X obj 96 543 r SHOW;
#X obj 96 565 symbol;
#X obj 96 614 prepend set;
#X obj 159 679 t a a;
#X obj 96 589 makefilename /home/pi/Documents/_%s/qlist/\$1-%%d;
#X obj 159 704 makefilename qlist/\$1-%d;
#X obj 367 699 makefilename qlist/\$1-%d;
#X obj 646 251 prepend 20;
#X connect 0 0 40 0;
#X connect 1 0 46 0;
#X connect 3 1 26 0;
#X connect 4 0 6 0;
#X connect 4 1 5 0;
#X connect 7 0 9 0;
#X connect 7 1 8 0;
#X connect 12 0 13 0;
#X connect 12 1 11 0;
#X connect 12 2 10 0;
#X connect 16 0 15 0;
#X connect 17 0 40 0;
#X connect 18 0 39 0;
#X connect 19 0 18 0;
#X connect 20 0 22 0;
#X connect 21 0 37 0;
#X connect 23 0 3 0;
#X connect 27 0 28 0;
#X connect 28 0 34 0;
#X connect 29 0 40 0;
#X connect 30 0 31 0;
#X connect 31 0 4 0;
#X connect 31 1 7 0;
#X connect 31 2 12 0;
#X connect 31 3 32 0;
#X connect 33 0 24 0;
#X connect 34 0 35 0;
#X connect 36 0 50 0;
#X connect 39 0 33 0;
#X connect 40 0 4 0;
#X connect 40 1 7 0;
#X connect 40 2 12 0;
#X connect 40 3 14 0;
#X connect 42 0 41 0;
#X connect 43 0 44 0;
#X connect 44 0 47 0;
#X connect 45 0 48 0;
#X connect 46 0 48 0;
#X connect 46 1 49 0;
#X connect 47 0 45 0;
#X connect 48 0 2 0;
#X connect 49 0 16 0;
#X connect 50 0 20 0;
#X coords 0 -1 1 1 250 80 1 100 100;
