#N canvas 5 79 1920 977 10;
#X text 939 17 Next_Cue Time Link Notes;
#X obj 792 901 tgl 15 0 empty Boolean_Link Boolean_Link 17 7 0 10 #0400fc #fcfcfc #000000 0 1;
#X floatatom 765 847 7 0 0 1 Time_Link Time_Link - 0;
#X symbolatom 770 815 50 0 0 1 Next_Cue Next_Cue - 0;
#X symbolatom 819 947 80 0 0 1 Notes Notes - 0;
#X obj 792 920 t b a;
#X obj 765 867 t b a;
#X msg 941 41 Cue2 1000 0 quand_tu_top;
#X symbolatom 621 753 80 0 0 1 Cue_Name Cue_Name - 0;
#X obj 667 1108 s to_cue;
#X obj 778 31 r Cue_name;
#X obj 519 734 bng 15 250 50 0 empty Store_cue Store_cue 17 7 0 10 #e0c4fc #000000 #000000;
#X obj 519 992 s store_cue;
#X msg 940 1299 close;
#X msg 1186 1299 dump;
#X obj 1167 1403 bng 15 250 50 0 empty empty empty 17 7 0 10 #fcfcfc #000000 #000000;
#X obj 1167 1429 t b b b;
#X obj 1056 967 r to_cue;
#X msg 992 1299 clear;
#X obj 1056 1316 cyclone/coll;
#C restore;
#X msg 823 1243 set \$1;
#X msg 63 1300 read \$1;
#X msg 841 1299 write;
#X msg 888 1299 read;
#X obj 46 1226 t b a a b;
#X obj 519 1226 t b a a b;
#X obj 46 1386 bang;
#X obj 519 1272 bang;
#X text 557 1272 BANG to |clear(;
#X msg 539 1299 write \$1;
#X obj 992 1246 bng 15 250 50 0 empty CLEAR CLEAR 17 7 0 10 #fc8000 #000000 #000000;
#X msg 1206 1334 set \, add;
#X obj 519 1015 r store_cue;
#X obj 778 1283 bng 15 250 50 0 empty Open_Cue Open_Cue 17 7 0 10 #f8fc00 #000000 #000000;
#X msg 778 1299 open;
#X obj 968 1467 print OUT;
#X obj 819 966 t b a;
#X obj 778 58 unpack s f f s;
#X obj 519 800 list append;
#X text 1110 182 LINK TO;
#X obj 1251 218 tgl 15 0 empty Boolean_Link Boolean_Link 17 7 0 10 #0400fc #fcfcfc #000000 0 1;
#X floatatom 1009 157 7 0 0 1 Time_Link - - 0;
#X symbolatom 1111 200 20 0 0 1 Next_Cue Next_Cue - 0;
#X obj 1009 185 delay;
#X obj 1212 258 spigot;
#X obj 1212 279 spigot;
#X obj 1291 264 tgl 15 0 empty Link-\$0 Link-\$0 17 7 0 10 #00f8fc #000000 #000000 0 1;
#X obj 1212 301 symbol;
#X obj 873 80 t a a a;
#X obj 841 110 t a a a;
#X obj 809 140 t a a a;
#X obj 778 170 t a a a;
#X msg 613 1260 /home/pi/Documents/_MLP/Cue/set;
#X obj 122 391 s go_cue;
#X obj 122 350 t a a;
#X obj 519 754 t b b;
#X obj 667 983 bng 15 250 50 0 empty Store_cue_name Store_cue_name 17 7 0 10 #fcc4c4 #000000 #000000;
#X obj 667 1002 t b b;
#X text 900 110 boolean Link;
#X text 864 140 time_Link;
#X text 835 171 NextCue;
#X obj 1056 1201 cyclone/prepend store;
#X obj 769 1044 cyclone/prepend Cue_name;
#X obj 770 1020 pack s f f s;
#X obj 519 1328 bng 15 250 50 0 CLEAR empty CLEAR 17 7 0 10 #fc8000 #000000 #000000;
#X obj 46 721 r go_cue;
#X obj 46 1170 symbol;
#X text 202 236 direct load;
#X text 738 1109 for record;
#X obj 968 1438 spigot;
#X obj 1007 1411 tgl 15 1 empty OUT OUT 17 7 0 10 #dcdcdc #000000 #000000 0 1;
#X msg 229 299 _s3;
#X msg 229 316 _s4;
#X obj 122 323 symbol;
#X msg 229 265 _s1_prologue;
#X msg 229 282 _s2_Ovide;
#X text 124 199 APPELLE LE CUE;
#X obj 1326 1437 outlet;
#X text 1005 136 POUR NEXT-LINK;
#X obj 1041 967 bng 15 250 50 0 empty empty empty 17 7 0 10 #fcfcfc #000000 #000000;
#X obj 756 31 bng 15 250 50 0 empty empty empty 17 7 0 10 #c4fcc4 #000000 #000000;
#X obj 1184 814 bng 15 250 50 0 empty empty empty 17 7 0 10 #505410 #000000 #000000;
#X obj 6 1509 bng 15 250 50 0 empty empty empty 17 7 0 10 #c4fcc4 #000000 #000000;
#X msg 276 1174 set \$1;
#X obj 519 1201 makefilename;
#X obj 46 1201 makefilename;
#X obj 276 1146 r CHEMIN;
#X obj 122 227 r LOADED_CUE;
#X obj 1212 322 s LOAD_CUE;
#X obj 275 1054 r SHOW;
#X obj 275 1076 symbol;
#X obj 275 1123 send CHEMIN;
#X obj 50 520 cnv 15 799 79 empty empty SceneLoader_V3 5 8 2 12 #c7c6ff #0400fc 0;
#X obj 103 548 tgl 15 0 Boolean_Link empty Boolean_Link 20 7 0 10 #0400fc #fcfcfc #000000 0 1;
#X floatatom 204 549 7 0 0 1 Time_Link - Time_Link 0;
#X symbolatom 103 579 80 0 0 0 Top - Notes 0;
#X symbolatom 103 564 80 0 0 0 Cue_Name - Cue_Name 0;
#X obj 565 529 bng 20 250 50 0 Store_cue_name empty STORE_cue_name -100 10 0 12 #fcc4c4 #000000 #000000;
#X obj 690 544 bng 20 250 50 0 CLEAR empty CLEAR_Cue -90 10 1 15 #fc8000 #000000 #000000;
#X obj 690 524 bng 20 250 50 0 Open_Cue empty OPEN_Cue -84 10 1 15 #f8fc00 #000000 #000000;
#X obj 644 489 tgl 20 0 Link-\$0 LinkM LinkM -50 10 0 15 #00f8fc #000000 #000000 0 1;
#X obj 754 544 bng 50 250 50 0 Store_cue empty STORE_Cue -92 42 1 15 #fc0400 #000000 #fc0400;
#X obj 121 416 r go_cue;
#X obj 681 639 tgl 15 1 empty empty LOCAL_LOAD 17 7 0 10 #fcfcfc #000000 #000000 0 1;
#X obj 204 385 r globaltimeM;
#X obj 204 407 * 1000;
#X obj 940 891 loadbang;
#X obj 940 916 symbol a_remplir;
#X msg 393 1243 set \$1;
#X msg 183 1260 /home/pi/Documents/_RSR/Cue/s0.0;
#X symbolatom 403 549 30 0 0 0 Next_Cue - Next_Cue 0;
#X obj 148 680 r CUE_EDIT_Next_cue;
#X obj 1054 1474 s to_control_InCue;
#X obj 275 1100 makefilename /home/pi/Documents/_%s/Cue/%%s;
#X msg 248 206 noir;
#X obj 1009 244 list prepend;
#X obj 519 777 list prepend;
#X obj 942 1349 list prepend;
#X obj 667 1068 list prepend;
#X obj 1056 1367 send;
#X obj 1077 1343 symbol;
#X connect 1 0 5 0;
#X connect 2 0 6 0;
#X connect 3 0 63 0;
#X connect 4 0 36 0;
#X connect 5 0 63 0;
#X connect 5 1 63 2;
#X connect 6 0 63 0;
#X connect 6 1 63 1;
#X connect 7 0 37 0;
#X connect 8 0 116 1;
#X connect 10 0 37 0;
#X connect 11 0 55 0;
#X connect 13 0 19 0;
#X connect 14 0 19 0;
#X connect 15 0 16 0;
#X connect 16 1 14 0;
#X connect 16 2 31 0;
#X connect 17 0 61 0;
#X connect 18 0 19 0;
#X connect 19 0 117 0;
#X connect 19 0 119 0;
#X connect 19 1 117 1;
#X connect 19 1 120 0;
#X connect 19 2 15 0;
#X connect 20 0 52 0;
#X connect 21 0 19 0;
#X connect 22 0 19 0;
#X connect 23 0 19 0;
#X connect 24 0 26 0;
#X connect 24 1 21 0;
#X connect 24 2 108 0;
#X connect 25 0 27 0;
#X connect 25 1 29 0;
#X connect 25 2 20 0;
#X connect 29 0 19 0;
#X connect 30 0 18 0;
#X connect 31 0 77 0;
#X connect 32 0 84 0;
#X connect 33 0 34 0;
#X connect 34 0 19 0;
#X connect 36 0 63 0;
#X connect 36 1 63 3;
#X connect 37 0 51 0;
#X connect 37 0 110 0;
#X connect 37 1 50 0;
#X connect 37 1 94 0;
#X connect 37 2 49 0;
#X connect 37 2 93 0;
#X connect 37 3 48 0;
#X connect 37 3 95 0;
#X connect 38 0 12 0;
#X connect 40 0 44 1;
#X connect 41 0 43 0;
#X connect 42 0 115 1;
#X connect 43 0 115 0;
#X connect 44 0 45 0;
#X connect 45 0 47 0;
#X connect 46 0 45 1;
#X connect 47 0 88 0;
#X connect 50 2 41 0;
#X connect 54 0 53 0;
#X connect 55 0 116 0;
#X connect 56 0 57 0;
#X connect 57 0 118 0;
#X connect 57 1 63 0;
#X connect 61 0 19 0;
#X connect 62 0 118 1;
#X connect 63 0 62 0;
#X connect 65 0 66 0;
#X connect 66 0 85 0;
#X connect 69 0 35 0;
#X connect 70 0 69 1;
#X connect 71 0 73 0;
#X connect 72 0 73 0;
#X connect 73 0 54 0;
#X connect 74 0 73 0;
#X connect 75 0 73 0;
#X connect 82 0 80 0;
#X connect 83 0 84 0;
#X connect 83 0 85 0;
#X connect 84 0 25 0;
#X connect 85 0 24 0;
#X connect 86 0 83 0;
#X connect 87 0 73 0;
#X connect 89 0 90 0;
#X connect 90 0 113 0;
#X connect 102 0 96 0;
#X connect 104 0 105 0;
#X connect 105 0 94 0;
#X connect 106 0 107 0;
#X connect 107 0 95 0;
#X connect 107 0 96 0;
#X connect 108 0 109 0;
#X connect 111 0 110 0;
#X connect 113 0 91 0;
#X connect 114 0 73 0;
#X connect 115 0 44 0;
#X connect 116 0 38 0;
#X connect 117 0 69 0;
#X connect 118 0 9 0;
#X connect 120 0 119 1;
#X coords 0 -1 1 1 800 80 1 50 520;
