#N canvas 5 79 1665 966 10;
#X text 939 17 Next_Cue Time Link Notes;
#X obj 792 901 tgl 15 0 empty Boolean_Link Boolean_Link 17 7 0 10 -4160
-262144 -1 0 1;
#X floatatom 765 847 7 0 0 1 Time_Link Time_Link -;
#X symbolatom 770 815 50 0 0 1 Next_Cue Next_Cue -;
#X symbolatom 819 947 80 0 0 1 Notes Notes -;
#X obj 792 920 t b a;
#X obj 765 867 t b a;
#X msg 941 41 Cue2 1000 0 quand_tu_top;
#X symbolatom 621 753 80 0 0 1 Cue_Name Cue_Name -;
#X obj 667 1108 s to_cue;
#X obj 778 31 r Cue_name;
#X obj 519 734 bng 15 250 50 0 empty Store_cue Store_cue 17 7 0 10
-232576 -1 -1;
#X obj 519 992 s store_cue;
#X msg 940 1299 close;
#X msg 1190 1299 dump;
#X msg 1083 1358 add2 \$1;
#X obj 1167 1403 bng 15 250 50 0 empty empty empty 17 7 0 10 -262144
-1 -1;
#X obj 1167 1429 t b b b;
#X obj 1056 967 r to_cue;
#X msg 992 1299 clear;
#X obj 1056 1316 cyclone/coll;
#C restore;
#X msg 823 1243 set \$1;
#X msg 63 1302 read \$1;
#X msg 841 1299 write;
#X msg 888 1299 read;
#X obj 46 1226 t b a a b;
#X obj 519 1226 t b a a b;
#X obj 46 1386 bang;
#X obj 519 1272 bang;
#X text 557 1272 BANG to |clear(;
#X msg 539 1299 write \$1;
#X obj 992 1246 bng 15 250 50 0 empty CLEAR CLEAR 17 7 0 10 -260097
-1 -1;
#X msg 54 1501 \; 17fader 0 1000 \; 18fader 0 1000 \; 19fader 0 1000
\; 24fader 0 1000 \; 23fader 0 1000 \; 22fader 0 1000 \; 21fader 0
1000 \; 20fader 0 1000 \; 16fader 0 1000 \; 15fader 0 1000 \; 14fader
0 1000 \; 13fader 0 1000 \; 1fader 0 1000 \; 2fader 0 1000 \; 3fader
0 1000 \; 4fader 0 1000 \; 5fader 0 1000 \; 6fader 0 1000 \; 7fader
0 1000 \; 8fader 0 1000 \; 9fader 0 1000 \; 10fader 0 1000 \; 11fader
0 1000 \; 12fader 0 1000 \; Cue_name  \;, f 192;
#X msg 1213 1334 set \, add;
#X obj 519 1015 r store_cue;
#X obj 778 1283 bng 15 250 50 0 empty Open_Cue Open_Cue 17 7 0 10 -257985
-1 -1;
#X msg 778 1299 open;
#X obj 968 1467 print OUT;
#X obj 819 966 t b a;
#X obj 778 58 unpack s f f s;
#X obj 519 800 list append;
#X text 1110 182 LINK TO;
#X obj 1251 218 tgl 15 0 empty Boolean_Link Boolean_Link 17 7 0 10
-4160 -262144 -1 0 1;
#X floatatom 1009 157 7 0 0 1 Time_Link - -;
#X symbolatom 1111 200 20 0 0 1 Next_Cue Next_Cue -;
#X obj 1009 185 delay;
#X obj 1212 258 spigot;
#X obj 1212 279 spigot;
#X obj 1291 264 tgl 15 0 empty Link-\$0 Link-\$0 17 7 0 10 -4032 -1
-1 0 1;
#X obj 1212 301 symbol;
#X obj 873 80 t a a a;
#X obj 841 110 t a a a;
#X obj 809 140 t a a a;
#X obj 778 170 t a a a;
#X msg 613 1260 /home/pi/Documents/_SHO/Cue/noir;
#X obj 122 391 s go_cue;
#X obj 122 350 t a a;
#X obj 519 754 t b b;
#X obj 667 984 bng 15 250 50 0 empty Store_cue_name Store_cue_name
17 7 0 10 -261234 -1 -1;
#X obj 667 1003 t b b;
#X text 900 110 boolean Link;
#X text 864 140 time_Link;
#X text 835 171 NextCue;
#X obj 1056 1201 cyclone/prepend store;
#X obj 769 1044 cyclone/prepend Cue_name;
#X obj 667 1068 cyclone/prepend;
#X obj 519 777 cyclone/prepend;
#X obj 968 1346 cyclone/prepend;
#X obj 1056 1379 cyclone/prepend add;
#X obj 1009 244 cyclone/prepend;
#X obj 770 1020 pack s f f s;
#X obj 519 1328 bng 15 250 50 0 CLEAR empty CLEAR 17 7 0 10 -260097
-1 -1;
#X obj 46 721 r go_cue;
#X obj 46 1170 symbol;
#X text 202 236 direct load;
#X text 738 1109 for record;
#X obj 968 1438 spigot;
#X obj 1007 1411 tgl 15 1 empty OUT OUT 17 7 0 10 -228856 -1 -1 0 1
;
#X msg 229 299 _s3;
#X msg 229 316 _s4;
#X obj 122 323 symbol;
#X msg 229 265 _s1_prologue;
#X msg 229 282 _s2_Ovide;
#X text 124 199 APPELLE LE CUE;
#X obj 1326 1437 outlet;
#X text 1005 136 POUR NEXT-LINK;
#X obj 1041 967 bng 15 250 50 0 empty empty empty 17 7 0 10 -262144
-1 -1;
#X obj 756 31 bng 15 250 50 0 empty empty empty 17 7 0 10 -204786 -1
-1;
#X obj 1184 814 bng 15 250 50 0 empty empty empty 17 7 0 10 -83269
-1 -1;
#X obj 6 1509 bng 15 250 50 0 empty empty empty 17 7 0 10 -204786 -1
-1;
#X msg 276 1174 set \$1;
#X obj 519 1201 makefilename;
#X obj 46 1201 makefilename;
#X obj 276 1146 r CHEMIN;
#X obj 122 227 r LOADED_CUE;
#X obj 1212 322 s LOAD_CUE;
#X obj 275 1054 r SHOW;
#X obj 275 1076 symbol;
#X obj 275 1123 send CHEMIN;
#X obj 697 1451 spigot;
#X obj 50 520 cnv 15 799 79 empty empty SceneLoader_V2 5 8 2 12 -260097
-4160 0;
#X obj 103 548 tgl 15 0 Boolean_Link empty Boolean_Link 20 7 0 10 -4160
-262144 -1 0 1;
#X floatatom 204 549 7 0 0 1 Time_Link - Time_Link;
#X symbolatom 103 579 80 0 0 0 Top - Notes;
#X symbolatom 103 564 80 0 0 0 Cue_Name - Cue_Name;
#X obj 565 529 bng 20 250 50 0 Store_cue_name empty STORE_cue_name
-100 10 0 12 -261234 -1 -1;
#X obj 690 544 bng 20 250 50 0 CLEAR empty CLEAR_Cue -90 10 1 15 -260097
-1 -1;
#X obj 690 524 bng 20 250 50 0 Open_Cue empty OPEN_Cue -84 10 1 15
-257985 -1 -1;
#X obj 644 489 tgl 20 0 Link-\$0 LinkM LinkM -50 10 0 15 -4032 -1 -1
0 1;
#X obj 754 544 bng 50 250 50 0 Store_cue empty STORE_Cue -92 42 1 15
-258113 -1 -258113;
#X obj 134 452 r go_cue;
#X obj 681 639 tgl 15 1 empty empty LOCAL_LOAD 17 7 0 10 -262144 -1
-1 0 1;
#X obj 830 434 r globaltimeM;
#X obj 830 456 * 1000;
#X obj 940 891 loadbang;
#X obj 940 916 symbol a_remplir;
#X msg 393 1243 set \$1;
#X msg 183 1260 /home/pi/Documents/_SHO/Cue/noir;
#X symbolatom 403 549 30 0 0 0 Next_Cue - Next_Cue;
#X obj 148 680 r CUE_EDIT_Next_cue;
#X obj 1045 1467 s to_control_InCue;
#X obj 275 1100 makefilename /home/pi/Documents/_%s/Cue/%%s;
#X msg 248 206 noir;
#X connect 1 0 5 0;
#X connect 2 0 6 0;
#X connect 3 0 70 0;
#X connect 4 0 38 0;
#X connect 5 0 70 0;
#X connect 5 1 70 2;
#X connect 6 0 70 0;
#X connect 6 1 70 1;
#X connect 7 0 39 0;
#X connect 8 0 66 1;
#X connect 10 0 39 0;
#X connect 11 0 57 0;
#X connect 13 0 20 0;
#X connect 14 0 20 0;
#X connect 15 0 32 0;
#X connect 15 0 84 0;
#X connect 16 0 17 0;
#X connect 17 0 99 0;
#X connect 17 1 14 0;
#X connect 17 2 33 0;
#X connect 18 0 63 0;
#X connect 19 0 20 0;
#X connect 20 0 67 0;
#X connect 20 0 68 0;
#X connect 20 1 15 0;
#X connect 20 1 67 1;
#X connect 21 0 54 0;
#X connect 22 0 20 0;
#X connect 23 0 20 0;
#X connect 24 0 20 0;
#X connect 25 0 27 0;
#X connect 25 1 22 0;
#X connect 25 2 116 0;
#X connect 26 0 28 0;
#X connect 26 1 30 0;
#X connect 26 2 21 0;
#X connect 27 0 16 0;
#X connect 30 0 20 0;
#X connect 31 0 19 0;
#X connect 33 0 32 0;
#X connect 33 0 84 0;
#X connect 34 0 91 0;
#X connect 35 0 36 0;
#X connect 36 0 20 0;
#X connect 38 0 70 0;
#X connect 38 1 70 3;
#X connect 39 0 53 0;
#X connect 39 0 118 0;
#X connect 39 1 52 0;
#X connect 39 1 102 0;
#X connect 39 2 51 0;
#X connect 39 2 101 0;
#X connect 39 3 50 0;
#X connect 39 3 103 0;
#X connect 40 0 12 0;
#X connect 42 0 46 1;
#X connect 43 0 45 0;
#X connect 44 0 69 1;
#X connect 45 0 69 0;
#X connect 46 0 47 0;
#X connect 47 0 49 0;
#X connect 48 0 47 1;
#X connect 49 0 95 0;
#X connect 52 2 43 0;
#X connect 56 0 55 0;
#X connect 57 0 66 0;
#X connect 58 0 59 0;
#X connect 59 0 65 0;
#X connect 59 1 70 0;
#X connect 63 0 20 0;
#X connect 64 0 65 1;
#X connect 65 0 9 0;
#X connect 66 0 40 0;
#X connect 67 0 76 0;
#X connect 67 0 120 0;
#X connect 68 0 32 0;
#X connect 68 0 84 0;
#X connect 69 0 46 0;
#X connect 70 0 64 0;
#X connect 72 0 73 0;
#X connect 73 0 92 0;
#X connect 76 0 37 0;
#X connect 77 0 76 1;
#X connect 78 0 80 0;
#X connect 79 0 80 0;
#X connect 80 0 56 0;
#X connect 81 0 80 0;
#X connect 82 0 80 0;
#X connect 89 0 87 0;
#X connect 90 0 91 0;
#X connect 90 0 92 0;
#X connect 91 0 26 0;
#X connect 92 0 25 0;
#X connect 93 0 90 0;
#X connect 94 0 80 0;
#X connect 96 0 97 0;
#X connect 97 0 121 0;
#X connect 99 0 32 0;
#X connect 110 0 104 0;
#X connect 111 0 99 1;
#X connect 112 0 113 0;
#X connect 113 0 102 0;
#X connect 114 0 115 0;
#X connect 115 0 103 0;
#X connect 115 0 104 0;
#X connect 116 0 117 0;
#X connect 119 0 118 0;
#X connect 121 0 98 0;
#X connect 122 0 80 0;
#X coords 0 -1 1 1 800 80 1 50 520;
