#N canvas 8 93 1680 966 10;
#X obj 118 32 cnv 15 400 150 empty empty cree_le_chemin_vers_~/$SHOW
20 12 0 14 -233017 -66577 0;
#X obj 121 242 cnv 15 300 150 empty empty coll_le_next_Cue 20 12 0
14 -233017 -66577 0;
#X obj 1160 255 cnv 15 350 200 empty empty empty 20 12 0 14 -233017
-66577 0;
#X obj 613 157 cnv 15 400 100 empty empty tracking_du_$count 20 12
0 14 -233017 -66577 0;
#X obj 405 571 cnv 15 400 60 empty empty empty 20 12 0 14 -233017 -66577
0;
#X obj 351 457 cnv 15 500 60 empty empty empty 20 12 0 14 -233017 -66577
0;
#X obj 163 64 r SHOW;
#X msg 163 158 set \$1;
#X obj 213 183 makefilename;
#X msg 213 303 read \$1;
#X msg 175 533 mise;
#X obj 61 745 symbol;
#X obj 163 136 makefilename /home/pi/StuART/Cue/%s/%%s;
#X msg 331 311 Cue_name;
#X obj 213 347 list split 1;
#X obj 213 263 t b a;
#X msg 125 828 write \$1;
#X msg 62 828 read \$1;
#X obj 98 675 bng 15 250 50 0 empty go_\$0 go_\$0 17 7 0 10 -4034 -1
-1;
#X symbolatom 444 469 50 0 0 0 next - -;
#X obj 354 483 symbol;
#X obj 671 107 bng 15 250 50 0 empty +go+_\$0 +go+_\$0 17 7 0 10 -204786
-1 -1;
#X symbolatom 443 609 50 0 0 0 goto - -;
#X floatatom 1188 238 5 0 0 1 count - -;
#X obj 954 200 + 1;
#X obj 1047 158 bng 15 250 50 0 empty empty raz_count 17 7 0 10 -262144
-1 -1;
#X floatatom 1047 186 5 0 0 0 - - -;
#X obj 743 107 bng 15 250 50 0 empty -go-_\$0 -go-_\$0 17 7 0 10 -204800
-1 -1;
#X msg 1377 376 -1;
#X msg 1338 366 \$1;
#X symbolatom 269 777 50 0 0 0 - - -;
#X msg 1377 322 clear;
#X obj 269 796 t a b;
#X obj 1047 133 loadbang;
#X obj 743 200 f;
#X obj 743 217 - 1;
#X floatatom 703 234 5 0 0 0 - - -;
#X floatatom 625 234 5 0 0 0 - - -;
#X obj 671 217 + 1;
#X obj 671 200 f;
#X obj 1377 279 bng 15 250 50 0 empty empty raz_deroule.text 17 7 0
10 -262144 -1 -1;
#X msg 1188 364 0;
#X obj 1188 328 bng 15 250 50 0 empty empty empty 17 7 0 10 -262144
-1 -1;
#X msg 175 552 un;
#X obj 1188 302 route 1;
#X msg 175 513 _s1_prologue;
#X obj 336 806 loadbang;
#X obj 1284 343 - 1;
#X obj 1376 235 loadbang;
#X obj 213 369 t s s s;
#X obj 671 127 t b b b;
#X symbolatom 315 661 10 0 0 0 next_next_#0 - next_next_#0;
#X obj 176 646 symbol;
#X obj 23 166 r next-\$0;
#X obj 61 777 s next-\$0;
#X obj 354 514 s next-\$0;
#X obj 175 602 s local-\$0;
#X obj 176 624 r local-\$0;
#X obj 443 628 s local-\$0;
#X obj 213 391 s local-\$0;
#X obj 121 962 cnv 15 300 150 empty empty coll_le_next_next_Cue 20
12 0 14 -233017 -66577 0;
#X msg 163 1063 read \$1;
#X msg 269 1068 Cue_name;
#X obj 163 1023 t b a;
#X obj 163 1107 list split 1;
#X obj 163 993 makefilename;
#X msg 271 72 symbol LGQ;
#X obj 70 979 symbol;
#X obj 70 941 r next_next_\$0;
#X msg 440 386 \; time_\$1 \$2 \; link_\$1 \$3;
#X obj 42 797 s LOADED_CUE;
#X obj 826 1004 route 0 1;
#X floatatom 826 985 1 0 0 0 link_#0 link_#0 -;
#X msg 61 501 mise;
#X msg 61 520 un;
#X msg 61 481 _s1_prologue;
#X obj 61 570 s LOAD_CUE;
#X text 768 969 gere la couleur du GO;
#X obj 61 607 r LOAD_CUE;
#X obj 470 998 list append \$1;
#X obj 862 308 print;
#X obj 879 124 bng 15 250 50 0 empty empty empty 17 7 0 10 -262144
-1 -1;
#X obj 548 727 print WTFFFF;
#X obj 861 200 value countt;
#X obj 1218 343 v countt;
#X text 1194 259 efface la premiere ligne quand countt > 20;
#X obj 281 592 r CUE_LOADER_goto;
#X obj 163 86 t a a;
#X obj 163 108 symbol;
#X symbolatom 700 885 50 0 0 1 send=>set_LOAD_CUE - -;
#X obj 700 919 s LOAD_CUE;
#X msg 25 195 open;
#X obj 35 221 bng 15 250 50 0 empty empty empty 17 7 0 10 -257985 -1
-1;
#X obj 123 1034 bng 15 250 50 0 empty empty empty 17 7 0 10 -257985
-1 -1;
#X msg 123 1052 open;
#X msg 449 832 click;
#X obj 449 811 bng 15 250 50 0 empty OPEN_deroule\$0 OPEN_deroule\$0
17 7 0 10 -4034 -1 -1;
#X msg 305 821 1000;
#X obj 953 994 r LOADED_CUE;
#X msg 953 1015 \; cnv_LOADED_CUE label ON_STAGE==\$1;
#X obj 1163 994 r next_next_\$0;
#X msg 1163 1015 \; cnv_next_next label NEXT==\$1;
#X obj 826 1063 s go_\$1;
#X msg 470 1021 \; go_\$5 label GO_1==\$4 \; time_next_\$1 \$2 \; link_next_\$1
\$3;
#X msg 852 1026 color 18 0 6;
#X msg 826 1045 color 16 0 6;
#X obj 163 1085 cyclone/coll;
#C restore;
#X obj 213 325 cyclone/coll;
#C restore;
#X obj 1188 280 == 9999;
#X obj 143 688 symbol;
#X obj 143 733 send to_control_goto;
#X obj 440 361 cyclone/prepend \$0;
#X obj 470 976 cyclone/prepend \$0;
#X obj 700 700 cnv 15 799 99 empty empty SEQUENCE_\$1_ 5 8 2 10 -260097
-4160 0;
#X obj 703 751 bng 20 250 50 0 +go+_\$0 +go+_\$1 +go+_\$1 20 10 0 20
-204786 -1 -1;
#X obj 703 731 bng 20 250 50 0 -go-_\$0 -go-_\$1 -go-_\$1 20 10 0 20
-204800 -1 -1;
#X floatatom 1309 675 1 0 0 0 link_next_#0 link_next_#0 -;
#X symbolatom 788 675 50 0 0 0 next_next_#0 next_next_#0 -;
#X symbolatom 788 645 50 0 0 0 LOADED_CUE LOADED_CUE -;
#X symbolatom 788 660 50 0 0 0 next-#0 next-#0 -;
#X floatatom 1178 675 5 0 0 0 time_next_#0 time_next_#0 -;
#X floatatom 1178 660 5 0 0 0 time_#0 time_#0 -;
#X floatatom 1308 660 1 0 0 0 link_#0 link_#0 -;
#X obj 938 715 cnv 15 400 20 empty cnv_LOADED_CUE ON_STAGE==amb6 -132
10 1 20 -204786 -159808 0;
#X obj 938 734 cnv 15 400 40 empty cnv_next_next NEXT==black -76 10
1 20 -159808 -204786 0;
#X obj 818 734 bng 40 250 50 0 go_\$0 go_\$1 GO_1==a_remplir 43 30
1 20 -24198 -262144 -225271;
#N canvas 7 102 951 430 Cue_List 0;
#X obj 385 227 outlet;
#X obj 357 39 r SHOW;
#X msg 386 205 clear;
#X obj 311 160 ggee/shell;
#X obj 311 88 symbol;
#X msg 344 248 1e+06;
#X obj 311 182 symbol;
#X obj 311 40 t b b;
#X msg 311 137 ls /home/pi/StuART/Cue/\$1;
#X obj 571 40 t b b;
#X msg 571 143 ls /home/pi/StuART/Cue/\$1 | grep \$2;
#X obj 659 52 symbol;
#X obj 571 88 pack s s;
#X obj 100 100 cnv 15 99 99 empty empty LIST_CUE 5 8 1 12 -261682 -66577
0;
#X symbolatom 124 133 10 0 0 0 - - -;
#X obj 103 117 bng 15 250 50 1 empty empty list_ALL_Cue 17 7 0 10 -262144
-1 -1;
#X obj 103 132 bng 15 250 50 0 empty empty empty 17 7 0 10 -262144
-1 -1;
#X floatatom 63 200 5 0 0 0 tracking_Cue_List tracking_Cue_List -;
#X symbolatom 96 285 10 0 0 0 - - -;
#X obj 100 186 hradio 10 1 0 10 empty empty empty 0 -8 0 10 -4034 -1
-1 3;
#X obj 100 176 hradio 10 1 0 10 empty empty empty 0 -8 0 10 -4034 -1
-1 1;
#X obj 12 39 * 10;
#X obj 12 91 +;
#X obj -2 67 t b f;
#X obj 12 135 t b s;
#X msg 12 113 symbol s\$1_;
#X msg 152 38 symbol __;
#X obj 103 146 bng 15 250 50 0 empty empty empty 17 7 0 10 -262144
-1 -1;
#X obj 96 241 int;
#X floatatom 52 321 5 0 0 0 - - -;
#X obj 218 295 bng 15 250 50 0 empty next_scene_list next_scene_list
17 7 0 10 -262144 -1 -1;
#X obj 217 326 float;
#X obj 218 368 + 1;
#X obj 341 307 bng 15 250 50 0 empty previous_scene_list previous_scene_list
17 7 0 10 -262144 -1 -1;
#X obj 341 358 float;
#X obj 341 380 - 1;
#X msg 708 240 click;
#X obj 708 219 bng 15 250 50 0 empty OPEN_Cue_List\$0 OPEN_Cue_List\$0
17 7 0 10 -4034 -1 -1;
#X obj 103 161 bng 15 250 50 0 OPEN_Cue_List\$0 OPEN_Cue_List OPEN_Cue_List
17 7 0 10 -4034 -1 -1;
#X obj 80 393 s CUE_LOADER_goto;
#X obj 68 374 s CUE_EDIT_Next_cue;
#X obj 311 66 cyclone/prepend;
#X obj 571 66 cyclone/prepend;
#X obj 647 255 text define -k Cue_List-\$0;
#A set ARTEPHILE \; BLACKCORE \; FFM \; LGQ \; LGQ2 \; LGQ-mod \; LGQsave
\; OVE \; RDP \; SALON \; SHOW \;;
#X obj 96 263 text get Cue_List-\$0;
#X obj 311 269 text set Cue_List-\$0;
#X obj 63 219 / 3;
#X floatatom 87 60 5 0 0 1 NUM_SCENE NUM_SCENE -;
#X connect 1 0 41 1;
#X connect 1 0 42 1;
#X connect 2 0 0 0;
#X connect 2 0 43 0;
#X connect 3 0 6 0;
#X connect 4 0 8 0;
#X connect 5 0 45 1;
#X connect 6 0 45 0;
#X connect 7 0 41 0;
#X connect 7 1 2 0;
#X connect 7 1 5 0;
#X connect 8 0 3 0;
#X connect 9 0 42 0;
#X connect 9 1 2 0;
#X connect 10 0 3 0;
#X connect 11 0 12 1;
#X connect 12 0 10 0;
#X connect 14 0 11 0;
#X connect 15 0 7 0;
#X connect 16 0 9 0;
#X connect 17 0 46 0;
#X connect 18 0 40 0;
#X connect 18 0 39 0;
#X connect 19 0 23 0;
#X connect 20 0 21 0;
#X connect 21 0 22 0;
#X connect 22 0 25 0;
#X connect 22 0 29 0;
#X connect 23 0 20 0;
#X connect 23 1 22 1;
#X connect 24 0 16 0;
#X connect 24 1 14 0;
#X connect 25 0 24 0;
#X connect 26 0 24 0;
#X connect 27 0 26 0;
#X connect 28 0 44 0;
#X connect 29 0 31 1;
#X connect 29 0 34 1;
#X connect 30 0 31 0;
#X connect 31 0 32 0;
#X connect 32 0 25 0;
#X connect 32 0 29 0;
#X connect 33 0 34 0;
#X connect 34 0 35 0;
#X connect 35 0 25 0;
#X connect 35 0 29 0;
#X connect 36 0 43 0;
#X connect 37 0 36 0;
#X connect 41 0 4 0;
#X connect 42 0 12 0;
#X connect 44 0 18 0;
#X connect 46 0 28 0;
#X connect 47 0 29 0;
#X connect 47 0 25 0;
#X coords 0 -1 1 1 100 100 1 100 100;
#X restore 1400 700 pd Cue_List;
#X obj 1318 774 tgl 20 0 LinkM LinkM_\$1 LinkM 22 10 1 15 -4032 -1
-1 1 1;
#X obj 388 847 text define -k deroule-\$0;
#A set blue \; blue_off \; blue_off \; blue \; blue_off \; blue \;
blue_off \; blue_off \; blue \; blue_off \; black \; blue \; full \;
black \; full \; black \; full \; black \; full \; amb6 \; black \;
amb6 \; black \; amb5 \; black \; amb6 \; amb5 \; black \; black \;
amb5 \; 12V_ON \; red \; 12V_ON \; 12V_OFF \; 12V_ON \; 12V_OFF \;
12V_ON \; 12V_OFF \; 12V_ON \; 12V_OFF \; 12V_ON \; 12V_OFF \; 12V_ON
\; 12V_OFF \; 12V_ON \; 12V_OFF \; 12V_ON \; 12V_OFF \; blue_off \;
blue \; black \; black \; blue_off \; blue \; blue_off \; red \; red_off
\; blue \; red \; blue \; red \; blue \; red \; blue \; black \; full
\; black \; full \; red \; amb4 \; amb5 \; amb4 \; amb5 \; amb4 \;
amb5 \; amb4 \; amb5 \; amb4 \; amb5 \; amb1 \; amb2 \; amb3 \; amb1
\; black \; full \; black \; full \; black \; full \; black \; full
\; black \; amb6 \;;
#X obj 269 845 text set deroule-\$0;
#X obj 1188 393 text delete deroule-\$0;
#X obj 702 782 bng 15 250 50 0 OPEN_deroule\$0 OPEN_deroule OPEN_deroule
17 7 0 10 -4034 -1 -1;
#X obj 443 582 text get deroule-\$0;
#X connect 6 0 87 0;
#X connect 7 0 8 0;
#X connect 7 0 65 0;
#X connect 8 0 15 0;
#X connect 9 0 107 0;
#X connect 10 0 56 0;
#X connect 11 0 30 0;
#X connect 11 0 54 0;
#X connect 11 0 70 0;
#X connect 12 0 7 0;
#X connect 13 0 107 0;
#X connect 14 0 49 0;
#X connect 14 1 111 0;
#X connect 15 0 13 0;
#X connect 15 1 9 0;
#X connect 16 0 129 0;
#X connect 17 0 129 0;
#X connect 18 0 109 0;
#X connect 19 0 20 1;
#X connect 20 0 55 0;
#X connect 21 0 50 0;
#X connect 22 0 58 0;
#X connect 23 0 108 0;
#X connect 24 0 83 0;
#X connect 25 0 26 0;
#X connect 26 0 34 1;
#X connect 26 0 39 1;
#X connect 26 0 83 0;
#X connect 27 0 34 0;
#X connect 28 0 130 0;
#X connect 29 0 130 0;
#X connect 30 0 32 0;
#X connect 31 0 28 0;
#X connect 32 0 129 0;
#X connect 32 1 81 0;
#X connect 33 0 25 0;
#X connect 34 0 35 0;
#X connect 35 0 36 0;
#X connect 35 0 34 1;
#X connect 35 0 39 1;
#X connect 35 0 132 0;
#X connect 38 0 39 1;
#X connect 38 0 37 0;
#X connect 38 0 34 1;
#X connect 39 0 38 0;
#X connect 40 0 31 0;
#X connect 41 0 130 0;
#X connect 42 0 41 0;
#X connect 42 0 84 0;
#X connect 43 0 56 0;
#X connect 44 0 42 0;
#X connect 45 0 56 0;
#X connect 46 0 97 0;
#X connect 47 0 84 0;
#X connect 48 0 40 0;
#X connect 49 0 59 0;
#X connect 49 2 19 0;
#X connect 50 1 20 0;
#X connect 50 2 39 0;
#X connect 52 0 51 0;
#X connect 52 0 109 1;
#X connect 53 0 8 0;
#X connect 57 0 52 0;
#X connect 61 0 106 0;
#X connect 62 0 106 0;
#X connect 63 0 62 0;
#X connect 63 1 61 0;
#X connect 64 1 112 0;
#X connect 65 0 63 0;
#X connect 66 0 87 0;
#X connect 67 0 65 0;
#X connect 68 0 67 0;
#X connect 71 0 105 0;
#X connect 71 1 104 0;
#X connect 72 0 71 0;
#X connect 73 0 76 0;
#X connect 74 0 76 0;
#X connect 75 0 76 0;
#X connect 78 0 11 0;
#X connect 79 0 103 0;
#X connect 81 0 83 0;
#X connect 83 0 24 0;
#X connect 83 0 23 0;
#X connect 83 0 34 1;
#X connect 83 0 39 1;
#X connect 84 0 47 0;
#X connect 86 0 22 0;
#X connect 87 0 88 0;
#X connect 88 0 12 0;
#X connect 89 0 90 0;
#X connect 91 0 107 0;
#X connect 92 0 91 0;
#X connect 93 0 94 0;
#X connect 94 0 106 0;
#X connect 95 0 128 0;
#X connect 96 0 95 0;
#X connect 97 0 129 1;
#X connect 98 0 99 0;
#X connect 100 0 101 0;
#X connect 104 0 102 0;
#X connect 105 0 102 0;
#X connect 106 0 64 0;
#X connect 107 0 14 0;
#X connect 108 0 44 0;
#X connect 109 0 110 0;
#X connect 111 0 69 0;
#X connect 112 0 79 0;
#X connect 132 0 22 0;
#X coords 0 -1 1 1 800 100 1 700 700;
