#N canvas 63 78 1920 977 10;
#X obj 118 32 cnv 15 400 150 empty empty cree_le_chemin_vers_~/$SHOW 20 12 0 14 #e0e0e0 #404040 0;
#X obj 121 242 cnv 15 300 150 empty empty coll_le_next_Cue 20 12 0 14 #e0e0e0 #404040 0;
#X obj 1160 255 cnv 15 350 200 empty empty empty 20 12 0 14 #e0e0e0 #404040 0;
#X obj 613 157 cnv 15 400 100 empty empty tracking_du_$count 20 12 0 14 #e0e0e0 #404040 0;
#X obj 405 571 cnv 15 400 60 empty empty empty 20 12 0 14 #e0e0e0 #404040 0;
#X obj 351 457 cnv 15 500 60 empty empty empty 20 12 0 14 #e0e0e0 #404040 0;
#X obj 163 64 r SHOW;
#X msg 163 158 set \$1;
#X obj 213 183 makefilename;
#X msg 185 532 mise;
#X msg 324 317 Cue_name;
#X obj 213 347 list split 1;
#X obj 98 673 bng 15 250 50 0 empty go_\$0 go_\$0 17 7 0 10 #00fc04 #000000 #000000;
#X symbolatom 444 466 50 0 0 0 next - - 0;
#X obj 354 483 symbol;
#X obj 671 107 bng 15 250 50 0 empty +go+_\$0 +go+_\$0 17 7 0 10 #c4fcc4 #000000 #000000;
#X symbolatom 443 609 50 0 0 0 goto - - 0;
#X floatatom 1188 238 5 0 0 1 count - - 0;
#X obj 954 200 + 1;
#X obj 1047 158 bng 15 250 50 0 empty empty raz_count 17 7 0 10 #fcfcfc #000000 #000000;
#X floatatom 1047 186 5 0 0 0 - - - 0;
#X obj 743 107 bng 15 250 50 0 empty -go-_\$0 -go-_\$0 17 7 0 10 #c4fcfc #000000 #000000;
#X msg 1377 376 -1;
#X msg 1338 366 \$1;
#X symbolatom 269 777 50 0 0 0 - - - 0;
#X msg 1377 322 clear;
#X obj 269 796 t a b;
#X obj 1047 133 loadbang;
#X obj 743 200 f;
#X obj 743 217 - 1;
#X floatatom 703 234 5 0 0 0 - - - 0;
#X floatatom 625 234 5 0 0 0 - - - 0;
#X obj 671 217 + 1;
#X obj 671 200 f;
#X obj 1377 279 bng 15 250 50 0 empty empty raz_deroule.text 17 7 0 10 #fcfcfc #000000 #000000;
#X msg 1188 364 0;
#X obj 1188 328 bng 15 250 50 0 empty empty empty 17 7 0 10 #fcfcfc #000000 #000000;
#X msg 195 551 un;
#X obj 1188 302 route 1;
#X msg 175 513 _s1_prologue;
#X obj 336 806 loadbang;
#X obj 1284 343 - 1;
#X obj 1376 235 loadbang;
#X obj 213 369 t s s s;
#X obj 671 127 t b b b;
#X symbolatom 315 664 10 0 0 0 next_next_\$0 - next_next_\$0 0;
#X obj 176 646 symbol;
#X obj 27 197 r next-\$0;
#X obj 80 777 s next-\$0;
#X obj 175 602 s local-\$0;
#X obj 176 624 r local-\$0;
#X obj 443 628 s local-\$0;
#X obj 213 401 s local-\$0;
#X obj 121 962 cnv 15 300 150 empty empty coll_le_next_next_Cue 20 12 0 14 #e0e0e0 #404040 0;
#X msg 163 1063 read \$1;
#X obj 163 1107 list split 1;
#X obj 163 993 makefilename;
#X obj 70 975 symbol;
#X obj 70 937 r next_next_\$0;
#X msg 440 390 \; time_\$1 \$2 \; link_\$1 \$3;
#X obj 61 796 s LOADED_CUE;
#X obj 826 1004 route 0 1;
#X floatatom 826 985 1 0 0 0 link_\$0 link_\$0 - 0;
#X obj 61 550 s LOAD_CUE;
#X text 768 969 gere la couleur du GO;
#X obj 61 607 r LOAD_CUE;
#X obj 470 998 list append \$1;
#X obj 861 124 bng 15 250 50 0 empty empty empty 17 7 0 10 #fcfcfc #000000 #000000;
#X obj 548 727 print WTFFFF;
#X obj 861 200 value countt;
#X obj 1218 343 v countt;
#X text 1194 259 efface la premiere ligne quand countt > 20;
#X obj 281 592 r CUE_LOADER_goto;
#X obj 163 108 symbol;
#X symbolatom 700 885 50 0 0 1 send=>set_LOAD_CUE - - 0;
#X obj 700 919 s LOAD_CUE;
#X msg 35 277 open;
#X obj 35 251 bng 15 250 50 0 empty empty empty 17 7 0 10 #f8fc00 #000000 #000000;
#X obj 123 1034 bng 15 250 50 0 empty empty empty 17 7 0 10 #f8fc00 #000000 #000000;
#X msg 123 1052 open;
#X msg 460 830 click;
#X obj 460 809 bng 15 250 50 0 empty OPEN_deroule\$0 OPEN_deroule\$0 17 7 0 10 #00fc04 #000000 #000000;
#X msg 305 821 1000;
#X obj 953 994 r LOADED_CUE;
#X msg 953 1015 \; cnv_LOADED_CUE label ON_STAGE==\$1;
#X obj 1163 994 r next_next_\$0;
#X msg 1163 1015 \; cnv_next_next label NEXT==\$1;
#X obj 826 1063 s go_\$1;
#X msg 470 1021 \; go_\$5 label GO_1==\$4 \; time_next_\$1 \$2 \; link_next_\$1 \$3;
#X msg 852 1026 color 18 0 6;
#X msg 826 1045 color 16 0 6;
#X obj 163 1085 cyclone/coll;
#C restore;
#X obj 213 295 cyclone/coll;
#C restore;
#X obj 1188 280 == 9999;
#X obj 143 688 symbol;
#X obj 440 365 cyclone/prepend \$0;
#X obj 470 976 cyclone/prepend \$0;
#X obj 700 700 cnv 15 799 99 empty empty SEQUENCE_V2_\$1_ 5 8 2 10 #c7c6ff #0400fc 0;
#X obj 703 751 bng 20 250 50 0 +go+_\$0 +go+_\$1 +go+_\$1 20 10 0 20 #c4fcc4 #000000 #000000;
#X obj 703 731 bng 20 250 50 0 -go-_\$0 -go-_\$1 -go-_\$1 20 10 0 20 #c4fcfc #000000 #000000;
#X floatatom 1309 675 1 0 0 0 link_next_\$0 link_next_\$0 - 0;
#X symbolatom 788 675 50 0 0 0 next_next_\$0 next_next_\$0 mobmuplat-next_next_1 0;
#X symbolatom 788 645 50 0 0 0 LOADED_CUE LOADED_CUE - 0;
#X symbolatom 788 660 50 0 0 0 next-\$0 next-\$0 mobmuplat-next-1 0;
#X floatatom 1178 675 5 0 0 0 time_next_\$0 time_next_\$0 - 0;
#X floatatom 1178 660 5 0 0 0 time_\$0 time_\$0 - 0;
#X floatatom 1308 660 1 0 0 0 link_\$0 link_\$0 - 0;
#X obj 938 715 cnv 15 400 20 empty cnv_LOADED_CUE ON_STAGE==s0.0 -132 10 1 20 #c4fcc4 #9c00fc 0;
#X obj 938 734 cnv 15 400 40 empty cnv_next_next NEXT==s0.0 -76 10 1 20 #9c00fc #c4fcc4 0;
#X obj 818 734 bng 40 250 50 0 go_\$0 go_\$1 GO_1==a_remplir 43 30 1 20 #14e814 #fcfcfc #d8fcd8;
#N canvas 7 102 951 430 Cue_List 0;
#X obj 385 227 outlet;
#X obj 398 9 r SHOW;
#X msg 386 205 clear;
#X obj 311 160 ggee/shell;
#X obj 311 88 symbol;
#X msg 344 248 1e+06;
#X obj 311 182 symbol;
#X obj 311 40 t b b;
#X obj 571 40 t b b;
#X obj 659 42 symbol;
#X obj 571 108 pack s s;
#X obj 100 100 cnv 15 99 99 empty empty LIST_CUE 5 8 1 12 #fce0c4 #404040 0;
#X symbolatom 124 133 10 0 0 0 - - - 0;
#X obj 103 114 bng 15 250 50 1 empty empty list_ALL_Cue 17 7 0 10 #fcfcfc #000000 #000000;
#X obj 103 132 bng 15 250 50 0 empty empty empty 17 7 0 10 #fcfcfc #000000 #000000;
#X floatatom 63 200 5 0 0 0 tracking_Cue_List tracking_Cue_List - 0;
#X symbolatom 96 285 10 0 0 0 - - - 0;
#X obj 100 186 hradio 10 1 0 10 empty empty empty 0 -8 0 10 #00fc04 #000000 #000000 0;
#X obj 100 176 hradio 10 1 0 10 empty empty empty 0 -8 0 10 #00fc04 #000000 #000000 0;
#X obj 12 39 * 10;
#X obj 12 91 +;
#X obj -2 67 t b f;
#X obj 12 135 t b s;
#X msg 12 113 symbol s\$1_;
#X msg 152 38 symbol __;
#X obj 103 146 bng 15 250 50 0 empty empty empty 17 7 0 10 #fcfcfc #000000 #000000;
#X obj 96 241 int;
#X floatatom 52 321 5 0 0 0 - - - 0;
#X obj 218 295 bng 15 250 50 0 empty next_scene_list next_scene_list 17 7 0 10 #fcfcfc #000000 #000000;
#X obj 217 326 float;
#X obj 218 368 + 1;
#X obj 341 307 bng 15 250 50 0 empty previous_scene_list previous_scene_list 17 7 0 10 #fcfcfc #000000 #000000;
#X obj 341 358 float;
#X obj 341 380 - 1;
#X msg 708 240 click;
#X obj 708 219 bng 15 250 50 0 empty OPEN_Cue_List\$0 OPEN_Cue_List\$0 17 7 0 10 #00fc04 #000000 #000000;
#X obj 103 161 bng 15 250 50 0 OPEN_Cue_List\$0 OPEN_Cue_List OPEN_Cue_List 17 7 0 10 #00fc04 #000000 #000000;
#X obj 80 393 s CUE_LOADER_goto;
#X obj 68 374 s CUE_EDIT_Next_cue;
#X obj 96 263 text get Cue_List-\$0;
#X obj 311 269 text set Cue_List-\$0;
#X obj 63 219 / 3;
#X floatatom 87 60 5 0 0 1 NUM_SCENE NUM_SCENE - 0;
#X msg 311 137 ls /home/pi/Documents/_\$1/Cue/;
#X msg 571 143 ls /home/pi/Documents/_\$1/Cue/ | grep \$2;
#X obj 647 255 text define Cue_List-\$0;
#X obj 311 11 del 5000;
#X obj 537 211 print IN_Cue_List;
#X msg 575 4 FFM;
#X obj 638 10 bng 15 250 50 0 empty empty empty 17 7 0 10 #fcfcfc #000000 #000000;
#X obj 311 66 list prepend;
#X obj 571 66 list prepend;
#X obj 213 161 bng 15 250 50 0 OPEN_Cue_List empty OPEN_Cue_List 17 7 0 10 #00fc04 #000000 #000000;
#X connect 1 0 50 1;
#X connect 1 0 51 1;
#X connect 2 0 0 0;
#X connect 2 0 45 0;
#X connect 3 0 6 0;
#X connect 4 0 43 0;
#X connect 5 0 40 1;
#X connect 6 0 40 0;
#X connect 7 0 50 0;
#X connect 7 1 2 0;
#X connect 7 1 5 0;
#X connect 8 0 51 0;
#X connect 8 1 2 0;
#X connect 9 0 10 1;
#X connect 10 0 44 0;
#X connect 10 0 47 0;
#X connect 12 0 9 0;
#X connect 13 0 46 0;
#X connect 14 0 8 0;
#X connect 15 0 41 0;
#X connect 16 0 38 0;
#X connect 16 0 37 0;
#X connect 17 0 21 0;
#X connect 18 0 19 0;
#X connect 19 0 20 0;
#X connect 20 0 23 0;
#X connect 20 0 27 0;
#X connect 21 0 18 0;
#X connect 21 1 20 1;
#X connect 22 0 14 0;
#X connect 22 1 12 0;
#X connect 23 0 22 0;
#X connect 24 0 22 0;
#X connect 25 0 24 0;
#X connect 26 0 39 0;
#X connect 27 0 29 1;
#X connect 27 0 32 1;
#X connect 28 0 29 0;
#X connect 29 0 30 0;
#X connect 30 0 23 0;
#X connect 30 0 27 0;
#X connect 31 0 32 0;
#X connect 32 0 33 0;
#X connect 33 0 23 0;
#X connect 33 0 27 0;
#X connect 34 0 45 0;
#X connect 35 0 34 0;
#X connect 39 0 16 0;
#X connect 41 0 26 0;
#X connect 42 0 27 0;
#X connect 42 0 23 0;
#X connect 43 0 3 0;
#X connect 44 0 3 0;
#X connect 46 0 7 0;
#X connect 48 0 51 1;
#X connect 48 0 50 1;
#X connect 49 0 8 0;
#X connect 50 0 4 0;
#X connect 51 0 10 0;
#X coords 0 -1 1 1 100 100 1 100 100;
#X restore 1400 700 pd Cue_List;
#X obj 1318 774 tgl 20 0 LinkM LinkM_\$1 LinkM 22 10 1 15 #00f8fc #000000 #000000 0 1;
#X obj 399 845 text define -k deroule-\$0;
#A set;
#X obj 269 845 text set deroule-\$0;
#X obj 1188 393 text delete deroule-\$0;
#X obj 702 782 bng 15 250 50 0 OPEN_deroule\$0 OPEN_deroule OPEN_deroule 17 7 0 10 #00fc04 #000000 #000000;
#X obj 443 582 text get deroule-\$0;
#X msg 271 68 symbol OVE;
#X obj 163 136 makefilename /home/pi/Documents/_%s/Cue/%%s;
#N canvas 149 204 450 300 KEY_Control 0;
#X obj 104 103 tgl 15 0 empty empty Space==Go_1 17 7 0 10 #f8fc00 #fc0400 #f8fc00 0 1;
#X obj 70 135 key;
#X obj 70 168 spigot;
#X obj 70 191 route 32;
#X msg 70 214 \; go_1 1 \;;
#X obj 104 40 r SPACE-GOER;
#X connect 0 0 2 1;
#X connect 1 0 2 0;
#X connect 2 0 3 0;
#X connect 3 0 4 0;
#X connect 5 0 0 0;
#X coords 0 -1 1 1 100 20 2 100 100;
#X restore 1032 777 pd KEY_Control;
#X obj 629 980 list split 3;
#X obj 663 1014 s mobmuplat-top;
#X obj 702 802 bng 15 250 50 0 OPEN_deroule empty OPEN_deroule 17 7 0 10 #00fc04 #000000 #000000;
#X msg 61 481 s0.0;
#X msg 27 142 s0.0;
#X obj 163 86 t a;
#X obj 61 630 symbol;
#X obj 61 715 t a a a;
#X msg 71 500 s1.0;
#X msg 81 519 s2.0;
#X msg 37 112 s1.0;
#X obj 348 242 print;
#X obj 324 290 bng 18 250 50 0 empty empty empty 0 -9 0 10 #fcfcfc #000000 #000000;
#X msg 213 271 read \$1;
#X msg 301 1096 Cue_name;
#X obj 301 1069 bng 18 250 50 0 empty empty empty 0 -9 0 10 #fcfcfc #000000 #000000;
#X obj 143 733 s LOAD_CUE;
#X obj 354 527 s next-\$0;
#X connect 6 0 125 0;
#X connect 7 0 56 0;
#X connect 7 0 8 0;
#X connect 8 0 133 0;
#X connect 9 0 49 0;
#X connect 10 0 92 0;
#X connect 11 0 43 0;
#X connect 11 1 95 0;
#X connect 12 0 94 0;
#X connect 13 0 14 1;
#X connect 14 0 137 0;
#X connect 15 0 44 0;
#X connect 16 0 51 0;
#X connect 17 0 93 0;
#X connect 18 0 69 0;
#X connect 19 0 20 0;
#X connect 20 0 28 1;
#X connect 20 0 33 1;
#X connect 20 0 69 0;
#X connect 21 0 28 0;
#X connect 22 0 114 0;
#X connect 23 0 114 0;
#X connect 24 0 26 0;
#X connect 25 0 22 0;
#X connect 26 0 113 0;
#X connect 26 1 67 0;
#X connect 27 0 19 0;
#X connect 28 0 29 0;
#X connect 29 0 30 0;
#X connect 29 0 28 1;
#X connect 29 0 33 1;
#X connect 29 0 116 0;
#X connect 32 0 33 1;
#X connect 32 0 31 0;
#X connect 32 0 28 1;
#X connect 33 0 32 0;
#X connect 34 0 25 0;
#X connect 35 0 114 0;
#X connect 36 0 35 0;
#X connect 36 0 70 0;
#X connect 37 0 49 0;
#X connect 38 0 36 0;
#X connect 39 0 49 0;
#X connect 40 0 82 0;
#X connect 41 0 70 0;
#X connect 42 0 34 0;
#X connect 43 1 52 0;
#X connect 43 2 13 0;
#X connect 44 1 14 0;
#X connect 44 2 33 0;
#X connect 46 0 45 0;
#X connect 46 0 94 1;
#X connect 47 0 8 0;
#X connect 50 0 46 0;
#X connect 54 0 91 0;
#X connect 55 1 96 0;
#X connect 56 0 54 0;
#X connect 57 0 56 0;
#X connect 58 0 57 0;
#X connect 61 0 90 0;
#X connect 61 1 89 0;
#X connect 62 0 61 0;
#X connect 65 0 126 0;
#X connect 66 0 88 0;
#X connect 66 0 120 0;
#X connect 67 0 69 0;
#X connect 69 0 18 0;
#X connect 69 0 17 0;
#X connect 69 0 28 1;
#X connect 69 0 33 1;
#X connect 70 0 41 0;
#X connect 72 0 16 0;
#X connect 73 0 118 0;
#X connect 74 0 75 0;
#X connect 76 0 92 0;
#X connect 77 0 76 0;
#X connect 78 0 79 0;
#X connect 79 0 91 0;
#X connect 80 0 112 0;
#X connect 81 0 80 0;
#X connect 82 0 113 1;
#X connect 83 0 84 0;
#X connect 85 0 86 0;
#X connect 89 0 87 0;
#X connect 90 0 87 0;
#X connect 91 0 55 0;
#X connect 91 2 135 0;
#X connect 92 0 11 0;
#X connect 92 2 132 0;
#X connect 93 0 38 0;
#X connect 94 0 136 0;
#X connect 95 0 59 0;
#X connect 96 0 66 0;
#X connect 116 0 16 0;
#X connect 117 0 125 0;
#X connect 118 0 7 0;
#X connect 120 1 121 0;
#X connect 123 0 63 0;
#X connect 124 0 8 0;
#X connect 125 0 73 0;
#X connect 126 0 127 0;
#X connect 127 0 60 0;
#X connect 127 1 48 0;
#X connect 127 2 24 0;
#X connect 128 0 63 0;
#X connect 129 0 63 0;
#X connect 132 0 10 0;
#X connect 133 0 92 0;
#X connect 134 0 91 0;
#X connect 135 0 134 0;
#X coords 0 -1 1 1 800 100 1 700 700;
