#N canvas 106 281 996 564 10;
#X obj 100 140 XBEE/XBEE_box 1;
#X msg 559 648 \; MIDI-LOCAL 1 \; MIDI-XBee 0 \; MIDI-OSC 0 \; DMX-XBee
0 \; DMX-OSC 1 \; AUDIO-XBee 0 \; AUDIO-OSC 0 \; GPIO-XBee 0 \; GPIO-OSC
0 \; LOAD_CUE-XBee 0 \; LOAD_CUE-OSC 0 \; toggle_in 1 \; toggle_out
0 \; com_in 4 \; pd dsp 0 \; MIDI-osc connect 192.168.1.103 9000 \;
DMX-osc connect 127.0.0.1 8512 \; GPIO-osc connect 127.0.0.1 6000 \;
LOAD_CUE-osc connect 192.168.1.103 9998 \;;
#N canvas 0 84 1680 966 tocontrol 0;
#X obj 949 496 cnv 15 200 150 empty empty empty 20 12 0 14 -232576
-66577 0;
#X msg 1440 816 read -c local_STATE;
#X obj 1440 783 loadbang;
#X obj 639 396 s LOAD_CUE;
#X obj 540 250 r XBEE-output;
#X obj 694 373 ggee/shell;
#X obj 749 349 s midi;
#X obj 961 509 t b a b;
#X msg 1000 536 set \, add;
#X obj 980 556 cyclone/prepend add2;
#X obj 703 783 cnv 15 350 150 empty empty empty 20 12 0 14 -233017
-66577 0;
#X floatatom 721 726 5 0 0 1 count - -;
#X obj 721 698 value count;
#X obj 804 698 + 1;
#X obj 721 647 bng 15 250 50 0 empty empty raz_count 17 7 0 10 -262144
-1 -1;
#X floatatom 721 675 5 0 0 0 - - -;
#X msg 910 893 -1;
#X msg 910 860 clear;
#X obj 721 550 loadbang;
#X obj 910 837 bng 15 250 50 0 empty empty raz_deroule.text 17 7 0
10 -262144 -1 -1;
#X msg 721 892 0;
#X obj 721 856 bng 15 250 50 0 empty empty empty 17 7 0 10 -262144
-1 -1;
#X obj 751 871 v count;
#X obj 721 830 route 1;
#X obj 807 871 - 1;
#X obj 910 813 loadbang;
#X msg 508 718 write \$1;
#X msg 459 718 read \$1;
#X msg 596 709 1e+06;
#X obj 565 684 t a b;
#X obj 647 695 loadbang;
#X obj 771 916 text delete LOG_OUT;
#X obj 565 733 text set LOG_OUT;
#X obj 565 665 list;
#X floatatom 617 795 5 0 0 0 LOG_OUT_size LOG_OUT_size -;
#X msg 961 608 \; face 0 4000;
#X obj 721 808 >= 30;
#X obj 1156 752 text set STATE;
#X obj 1237 711 loadbang;
#X obj 1183 701 bng 15 250 50 0 empty empty empty 17 7 0 10 -262144
-1 -1;
#X floatatom 1183 654 5 0 0 0 - - -;
#X obj 1183 675 select -1;
#X obj 1156 533 spigot;
#X obj 1189 503 tgl 15 0 empty LOG-STATE\$0 LOG-STATE\$0 17 7 0 10
-191407 -1 -1 0 1;
#X obj 1156 562 t a a;
#X obj 1183 608 symbol;
#X obj 1156 584 list;
#X obj 565 543 spigot;
#X obj 598 515 tgl 15 1 empty LOG_OUT\$0 LOG_OUT\$0 17 7 0 10 -228856
-1 -1 1 1;
#X msg 1183 726 1024;
#X obj 1183 632 text search STATE;
#X text 727 787 efface la premiere ligne quand count > 30;
#X obj 1166 949 print WTF;
#X obj 1160 343 print LOST_in_tocontrol;
#X msg 741 593 clear;
#X obj 748 621 text define -k LOG_OUT;
#A set;
#X msg 790 607 click;
#X obj 741 569 r go_1;
#X obj 790 586 bng 15 250 50 0 empty OPEN_LOG_OUT\$0 OPEN_LOG_OUT\$0
17 7 0 10 -4034 -1 -1;
#X msg 1221 815 click;
#X obj 1221 794 bng 15 250 50 0 empty OPEN_STATE\$0 OPEN_STATE\$0 17
7 0 10 -4034 -1 -1;
#X msg 1160 808 clear;
#X obj 1028 586 outlet;
#X obj 1160 830 text define -k STATE;
#A set player_1 no 0 0 0 0 \; player_2 no 0 0 0 0 \; player_3 no 0
0 0 0 \; player_4 no 0 0 0 0 \; player_5 no 0 0 0 0 \; player_6 no
0 0 0 0 \; player_7 no 0 0 0 0 \; player_8 /home/pi/Music/ONAVIO-LGQNPP/s10_manif/10-manif-edit-abattoir-2.wav
1024 0 0 1 \; ZelieE2 0 \; BoutiqueE3 196 \; ManifE5 186 \; ManifE4
73 \; Cue_name s5_sonnerie 100 1 a_caller \; face 0 4000 \; Pin-bosq1
0 0 \; Pin-bosq2 0 0 \; R-F-strip 0 0 \; R-L-strip 0 0 \; Manifestant2
0 2000 \; Manifestant1 0 2000 \; Manifestant3 0 2000 \; WW-J-strip
0 0 \; WW-F-strip 0 0 \; WW-C-strip 0 0 \; S_WDMX2 0 0 \; S_WDMX1 0
0 \; dec3 0 6000 \; dec2 0 6000 \; WW-L-strip 0 0 \; contre 0 0 \;
CW-J-strip 0 0 \; CW-F-strip 0 0 \; CW-C-strip 0 0 \; Pin-MAISON 0
0 \; D_WDMX1 0 0 \; midi-repatch 23 fader Manifestant1 \; petite_secretaire
0 1000 \; L_platine_Ovide 0 8000 \; R-J-strip 17 \; tracking_Cue_List
0 \; fader_face 0 \; G-F-strip 0 0 \; Garbre3 0 0 \; Garbre2 0 0 \;
Garbre1 0 0 \; CW-L-strip 0 0 \; B-L-strip 0 0 \; G-L-strip 0 0 \;
D_WDMX2 0 0 \; dec4 0 0 \; dec1 0 0 \; Ovide 0 0 \; Boutique2 0 0 \;
Pin-Pere 0 0 \; Boutique3 0 0 \; Rodd-parle_pas 0 0 \; Boutique1 0
0 \; Rodd_entendpas 0 0 \; B-F-strip 0 0 \; go_1 1 \; RODD 0 10000
\; Rodd_voie_pas 0 2000 \; Rodd_parle_pas 0 2000 \; Rodd-entend_pas
0 2000 \; Pin-FACE 0 7000 \; Boutique5 0 3000 \; \; aplay /home/pi/Music/ONAVIO-LGQNPP/Aimer_les_monstres.wav
& \; \; \; \; \; \; \; \; \; \; \; \; \; \; \; \;;
#X msg 1305 815 write -c local_STATE;
#X obj 1211 122 print WTF;
#X obj 639 250 r to_control_Local;
#X msg 102 65 \; TO_CONTROL connect 192.168.1.255 9997;
#X obj 969 349 s SET_DMX;
#X obj 100 301 cnv 15 400 400 empty empty empty 20 12 0 14 -261682
-66577 0;
#X obj 306 372 bng 15 250 50 0 Edit_local_command empty Edit_local_command
17 7 0 10 -257985 -1 -1;
#X obj 109 339 r local_command;
#X msg 109 365 \; set-dmx_Local \$1 \; set-dmx_OSC \$2 \; set-dmx_Xbee
\$3 \; f-dmx_Local \$1 \; f-dmx_OSC \$2 \; f-dmx_Xbee \$3 \; midi_Local
\$1 \; midi_OSC \$2 \; midi_Xbee \$3 \; goto_Local \$1 \; goto_OSC
\$2 \; goto_Xbee \$3 \; audio_Local \$1 \; audio_OSC \$2 \; audio_Xbee
\$3 \; InCue_Local \$1 \; InCue_OSC \$2 \; InCue_Xbee \$3 \;;
#X msg 333 351 set \, add;
#X obj 306 326 t b b;
#X obj 109 313 bng 15 250 50 0 empty empty Edit_command 17 7 0 10 -257985
-1 -1;
#X obj 100 100 cnv 15 400 200 empty empty empty 20 12 0 14 -260097
-66577 0;
#X obj 100 268 OSC/OSCsender 127.0.0.1 9997 TO_CONTROL;
#X obj 117 204 tgl 15 0 LOG-STATE\$0 LOG-STATE LOG-STATE 17 7 0 10
-191407 -1 -1 0 1;
#X obj 117 164 tgl 15 1 LOG_OUT\$0 LOG_OUT LOG_OUT 17 7 0 10 -228856
-1 -1 1 1;
#X obj 117 179 bng 15 250 50 0 OPEN_LOG_OUT\$0 OPEN_LOG_OUT OPEN_LOG_OUT
17 7 0 10 -4034 -1 -1;
#X obj 117 219 bng 15 250 50 0 OPEN_STATE\$0 OPEN_STATE OPEN_STATE
17 7 0 10 -4034 -1 -1;
#X obj 117 126 Receive_to_control audio;
#X obj 318 116 Receive_to_control goto;
#X obj -2 248 r to_control_OSC;
#X obj 328 142 Receive_to_control InCue;
#X obj 318 183 Receive_to_control midi;
#X obj 318 210 Receive_to_control f-dmx;
#X obj 318 237 Receive_to_control set-dmx;
#X obj 1073 71 r to_control_Xbee;
#X obj 1073 97 s XBEE-String_Input;
#X obj 562 213 s to_control_InCue;
#X obj 635 193 s to_control_audio;
#X obj 709 173 s to_control_goto;
#X obj 782 153 s to_control_midi;
#X obj 856 133 s to_control_f-dmx;
#X obj 929 113 s to_control_set-dmx;
#X obj 444 284 tgl 10 0 OSCM empty OSCM 12 6 0 8 -86277 -261234 -1
0 1;
#X obj 356 284 tgl 10 0 LocalM empty LocalM 12 6 0 8 -86277 -261234
-1 0 1;
#X obj 472 284 tgl 10 0 XbeeM empty XbeeM 12 6 0 8 -86277 -261234 -1
0 1;
#X obj 402 281 tgl 10 0 PrintM empty PrintM 12 8 0 7 -128992 -262130
-1 0 1;
#X msg 791 326 124 0;
#X obj 1118 184 print LOST_in_tocontrol_XBEE;
#X obj 155 188 Receive_to_control aplay;
#X obj 562 92 osc/routeOSC /InCue /audio /goto /midi /f-dmx /set-dmx
/aplay, f 74;
#X obj 639 295 osc/routeOSC /goto /SHELL /midi /to_control /audio /f-dmx
/set-dmx /InCue /aplay, f 87;
#X obj 1075 363 print LOST_in_tocontrol;
#X obj 958 163 s to_control_aplay;
#X obj 754 250 OSC/OSCreceiver 9997 rtocontrolLocal;
#X obj 562 50 OSC/OSCreceiver 9998 rtocontrol;
#X connect 2 0 1 0;
#X connect 4 0 105 0;
#X connect 7 0 35 0;
#X connect 7 1 9 0;
#X connect 7 1 42 0;
#X connect 7 1 47 0;
#X connect 7 2 8 0;
#X connect 8 0 35 0;
#X connect 8 0 62 0;
#X connect 9 0 35 0;
#X connect 9 0 62 0;
#X connect 11 0 36 0;
#X connect 12 0 13 0;
#X connect 12 0 11 0;
#X connect 13 0 12 0;
#X connect 14 0 15 0;
#X connect 15 0 12 0;
#X connect 16 0 31 0;
#X connect 17 0 16 0;
#X connect 18 0 14 0;
#X connect 19 0 17 0;
#X connect 20 0 31 0;
#X connect 21 0 22 0;
#X connect 21 0 20 0;
#X connect 22 0 24 0;
#X connect 23 0 21 0;
#X connect 24 0 22 0;
#X connect 25 0 19 0;
#X connect 26 0 32 0;
#X connect 27 0 32 0;
#X connect 28 0 32 1;
#X connect 29 0 32 0;
#X connect 29 1 12 0;
#X connect 30 0 28 0;
#X connect 33 0 29 0;
#X connect 34 0 36 1;
#X connect 36 0 23 0;
#X connect 38 0 49 0;
#X connect 39 0 49 0;
#X connect 40 0 41 0;
#X connect 41 0 39 0;
#X connect 41 1 37 1;
#X connect 42 0 44 0;
#X connect 43 0 42 1;
#X connect 44 0 46 0;
#X connect 44 1 45 0;
#X connect 45 0 50 0;
#X connect 46 0 37 0;
#X connect 47 0 33 0;
#X connect 48 0 47 1;
#X connect 49 0 37 1;
#X connect 50 0 40 0;
#X connect 54 0 55 0;
#X connect 54 0 14 0;
#X connect 56 0 55 0;
#X connect 57 0 54 0;
#X connect 58 0 56 0;
#X connect 59 0 63 0;
#X connect 60 0 59 0;
#X connect 61 0 63 0;
#X connect 64 0 63 0;
#X connect 66 0 105 0;
#X connect 71 0 72 0;
#X connect 73 0 72 0;
#X connect 74 0 70 0;
#X connect 74 1 73 0;
#X connect 75 0 74 0;
#X connect 84 0 77 0;
#X connect 89 0 90 0;
#X connect 89 0 65 0;
#X connect 101 0 6 0;
#X connect 104 0 91 0;
#X connect 104 1 92 0;
#X connect 104 2 93 0;
#X connect 104 3 94 0;
#X connect 104 4 95 0;
#X connect 104 5 96 0;
#X connect 104 6 107 0;
#X connect 104 7 102 0;
#X connect 105 0 3 0;
#X connect 105 1 5 0;
#X connect 105 2 6 0;
#X connect 105 3 7 0;
#X connect 105 4 7 0;
#X connect 105 5 7 0;
#X connect 105 6 68 0;
#X connect 105 7 7 0;
#X connect 105 8 7 0;
#X connect 105 9 53 0;
#X connect 108 0 105 0;
#X connect 109 0 104 0;
#X coords 0 -1 1 1 400 200 1 100 100;
#X restore 100 252 pd tocontrol;
#X coords 0 -1 1 1 401 460 1 100 100;
