#N canvas 11 266 498 178 10;
#X obj 0 -1 cnv 15 500 400 empty empty empty 20 12 0 14 -4032 -66577
0;
#X obj 6 14 OSC/OSCreceiver 9999 HEADER_PureData;
#X msg 6 96 SHELL pd StuART/MASTER_PureData.pd & \; FROM 9999 MASTER
192.168.43.18 \;;
#N canvas 959 333 466 473 log 0;
#X msg 266 307 SHELL pd StuART/MASTER_PureData.pd & \; FROM 9999 MASTER
192.168.43.18 \;;
#X msg 267 289 set;
#X obj 267 272 loadbang;
#X obj 219 306 outlet;
#X obj 169 132 cyclone/prepend FROM;
#X obj 219 250 cyclone/prepend add;
#X obj 10 24 inlet;
#X obj 169 24 inlet;
#X obj 10 51 routeOSC /SHELL;
#X obj 10 271 ggee/shell;
#X obj 77 294 print DONE;
#X obj 10 315 print STDOUT;
#X obj 42 192 cyclone/prepend SHELL;
#X obj 112 163 cyclone/prepend OTHER;
#X obj 10 73 t a a;
#X connect 1 0 0 0;
#X connect 1 0 3 0;
#X connect 2 0 1 0;
#X connect 4 0 5 0;
#X connect 5 0 0 0;
#X connect 5 0 3 0;
#X connect 6 0 8 0;
#X connect 7 0 4 0;
#X connect 8 0 14 0;
#X connect 8 1 13 0;
#X connect 9 0 11 0;
#X connect 9 1 10 0;
#X connect 12 0 5 0;
#X connect 13 0 5 0;
#X connect 14 0 9 0;
#X connect 14 1 12 0;
#X restore 6 79 pd log;
#X msg 52 45 /SHELL pwd;
#X msg 52 62 /SHELL pd StuART/MASTER_PureData.pd &;
#X obj 284 96 outlet;
#X connect 1 0 3 0;
#X connect 1 1 3 1;
#X connect 3 0 2 0;
#X connect 3 0 6 0;
#X connect 4 0 3 0;
#X connect 5 0 3 0;
#X coords 0 -1 1 1 300 50 1 0 0;
