#N canvas 679 176 459 465 10;
#X obj 83 93 cnv 15 100 60 empty empty empty 20 12 0 14 -233017 -66577
0;
#X obj 316 21 r \$1-M;
#X obj 316 1 r global-M;
#X obj 100 100 bng 30 250 50 0 empty empty empty 32 15 1 10 -262144
-262144 -262144;
#X obj 248 262 send SELECT;
#X obj 281 179 route label;
#X obj 248 234 symbol;
#X obj 281 200 symbol;
#X obj 316 43 r \$1-\$2;
#X obj 100 342 s \$1-\$2;
#X msg 25 418 color \$1 0 0;
#X obj 25 17 vsl 15 300 0 100 0 0 empty empty empty 0 -9 0 10 -262144
-1 -1 0 1;
#X floatatom 25 345 5 0 0 0 - - -;
#X obj 25 325 int;
#X msg 100 211 color 64 0 44;
#X obj 123 249 r CLEAR-SELECT;
#X obj 141 26 inlet;
#X obj 259 407 print 1ch-\$1;
#X obj 189 95 route label;
#X obj 189 126 route 0;
#X obj 103 71 cyclone/prepend label;
#X msg 141 308 color 0 0 0;
#X msg 222 309 color 0 0 0 \, label NO;
#X obj 316 64 t a a;
#X msg 218 187 symbol NO;
#X msg 123 271 color 18 0 11;
#X connect 1 0 18 0;
#X connect 2 0 18 0;
#X connect 3 0 6 0;
#X connect 3 0 14 0;
#X connect 5 0 7 0;
#X connect 6 0 4 0;
#X connect 7 0 6 1;
#X connect 8 0 23 0;
#X connect 11 0 13 0;
#X connect 12 0 10 0;
#X connect 13 0 12 0;
#X connect 14 0 9 0;
#X connect 15 0 25 0;
#X connect 16 0 18 0;
#X connect 18 0 19 0;
#X connect 18 1 3 0;
#X connect 19 0 22 0;
#X connect 19 0 24 0;
#X connect 19 1 20 0;
#X connect 19 1 25 0;
#X connect 20 0 3 0;
#X connect 21 0 9 0;
#X connect 22 0 3 0;
#X connect 23 0 18 0;
#X connect 23 1 5 0;
#X connect 24 0 6 1;
#X connect 25 0 9 0;
#X coords 0 -1 1 1 150 30 2 100 100;
