#N canvas 178 215 1680 583 10;
#X obj 100 100 cnv 15 629 134 empty empty 4x3ch 4 7 1 10 -203904 -204786
0;
#X obj 700 145 bng 30 250 50 0 empty empty SELECT 0 15 1 8 -4160 -262144
-4034;
#X obj 684 72 r SELECT-GROUP-\$1;
#X obj 1057 51 symbol \$1;
#X obj 1057 31 bng 15 250 50 0 empty empty empty 17 7 0 10 -262144
-1 -1;
#X msg 1057 72 \; SELECT-GROUP-\$1 1 \;;
#X obj 239 754 r \$1;
#X obj 239 775 route 1 2 3 4 5 6 7 8 9 10 11 12;
#X obj 171 1000 list;
#X obj 214 444 cnv 15 300 150 empty empty empty 20 12 0 14 -203904
-66577 0;
#X obj 253 448 r SELECT;
#X msg 253 541 add2 \$1;
#X obj 360 448 r CLEAR-SELECT;
#X obj 253 499 spigot;
#X obj 360 497 symbol \$1;
#X msg 360 541 set \, add2 \$1;
#X msg 253 571 RDP;
#X obj 272 -11 r pattern-\$1;
#X obj 536 115 tgl 15 0 LEARN-\$1 empty LEARN 8 8 0 12 -45076 -257985
-257985 0 1;
#X obj 286 476 tgl 20 0 empty LEARN-\$1 LEARN-\$1 1 10 0 6 -45076 -257985
-257985 0 1;
#X obj 154 420 + 0;
#X obj 181 419 spigot;
#X obj 214 389 tgl 20 0 empty LEARN-\$1 LEARN-\$1 1 10 0 6 -45076 -257985
-257985 0 1;
#X obj 605 726 loadbang;
#X floatatom 663 659 5 0 0 0 - - -;
#X msg 560 510 OVE-0;
#X obj 587 464 list;
#X obj 560 419 t b f;
#X msg 363 984 GROUP1 ManifA3 ManifA4 ManifA5 ManifB4 ManifB5 ManifC5
ManifD4 ManifD5 ManifE5, f 123;
#X obj 663 679 select -1;
#X msg 587 484 set \$1-\$2;
#X obj 500 747 list;
#X obj 663 608 symbol;
#X obj 154 370 t b b;
#X obj 154 300 t b f;
#X obj 127 270 t b f;
#X obj 127 1233 print RECALL_4x3ch;
#X obj 473 920 bng 20 250 50 0 CLEAR-GROUP empty CLEAR-GROUP 22 10
1 10 -4160 -261682 -4160;
#X obj 127 897 f;
#X obj 473 721 t b a;
#X floatatom 272 260 5 0 0 0 - - -;
#X obj 137 969 list split 1;
#X obj 127 1210 route list;
#X floatatom 600 115 21 0 127 0 - - -;
#X obj 19 1323 s cvn_pattern-\$0;
#X msg 19 1303 label pattern-\$1-\$2;
#X obj 19 1281 list;
#X obj 600 115 cnv 15 130 15 empty cvn_pattern-\$0 pattern-OVE-0 4
7 2 14 -45076 -257985 0;
#X obj 272 115 hradio 15 1 0 16 empty empty empty 0 -8 0 10 -4160 -257985
-1 0;
#X obj 100 240 t f f;
#X obj 714 793 t f f;
#X msg 545 747 128;
#X obj 272 31 / 8;
#X msg 865 314 click;
#X obj 865 293 bng 15 250 50 0 empty OPEN_bdd_pattern_\$0 OPEN_bdd_pattern_\$0
17 7 0 10 -4034 -1 -1;
#X obj 700 175 bng 30 250 50 0 OPEN_bdd_pattern_\$0 empty OPEN 4 15
1 8 -4034 -1 -4160;
#X obj 76 -2 bng 15 250 50 0 empty empty SELECT_\$1 17 8 1 10 -261234
-1 -261234;
#X obj 700 204 bng 30 250 50 0 CLEAR-GROUP empty CLEAR 2 15 1 8 -261682
-4160 -1;
#X obj 667 52 r OPEN-GROUP-\$1;
#X obj 646 31 r CLEAR-GROUP-\$1;
#X obj 1252 407 bng 15 250 50 0 empty STORE\$0 STORE\$0 17 7 0 10 -258113
-1 -1;
#X obj 1252 427 symbol \$1;
#X obj 1037 182 bng 15 250 50 0 empty empty READ 17 7 0 10 -260097
-1 -1;
#X obj 1037 302 symbol \$1;
#X obj 47 25 symbol \$1;
#X msg 47 46 \; midi_pattern \$1_GROUP;
#X obj 272 52 int;
#X obj 272 72 change;
#X obj 372 68 r pattern-DMX;
#X msg 529 37 \; pattern-DMX 2;
#X obj 100 175 DMX/1ch \$1 2;
#X obj 100 205 DMX/1ch \$1 3;
#X obj 250 145 DMX/1ch \$1 4;
#X obj 250 175 DMX/1ch \$1 5;
#X obj 250 205 DMX/1ch \$1 6;
#X obj 400 145 DMX/1ch \$1 7;
#X obj 400 175 DMX/1ch \$1 8;
#X obj 400 205 DMX/1ch \$1 9;
#X obj 550 145 DMX/1ch \$1 10;
#X obj 550 175 DMX/1ch \$1 11;
#X obj 550 205 DMX/1ch \$1 12;
#X obj 100 145 DMX/1ch \$1 1;
#X obj 20 288 r SHOW;
#X msg 20 331 set \$1;
#X obj 20 311 symbol;
#X obj 663 638 text search bdd_pattern-\$0;
#X obj 865 470 text define bdd_pattern-\$0;
#X obj 127 938 text get bdd_pattern-\$0;
#X obj 500 902 text set bdd_pattern-\$0;
#X obj 786 31 r CLEAR-GROUP_;
#X obj 807 52 r OPEN-GROUP_;
#X obj 824 72 r SELECT-GROUP_;
#X msg 301 1023 \; \$1-1 label \$2 \; \$1-2 label \$3 \; \$1-3 label
\$4 \; \$1-4 label \$5 \; \$1-5 label \$6 \; \$1-6 label \$7 \; \$1-7
label \$8 \; \$1-8 label \$9 \; \$1-9 label \$10 \; \$1-10 label \$11
\; \$1-11 label \$12 \; \$1-12 label \$13 \;;
#X msg 171 1023 \; 0-1 label \$2 \; 0-2 label \$3 \; 0-3 label \$4
\; 0-4 label \$5 \; 0-5 label \$6 \; 0-6 label \$7 \; 0-7 label \$8
\; 0-8 label \$9 \; 0-9 label \$10 \; 0-10 label \$11 \; 0-11 label
\$12 \; 0-12 label \$13 \;;
#X obj 198 1297 print WTF!;
#X msg 80 289 OVE;
#X obj 19 1260 prepend SHO;
#X text 1199 13 !!!! Ne pas mettre d'argument \$1="";
#X text 50 78 est ce utile ce truc?;
#X obj 587 443 cyclone/prepend SHO;
#X obj 372 48 r pattern_4x3ch;
#X obj 151 724 r select_pattern_4x3;
#X obj 1269 135 r chemin_du_repertoire_de_travail;
#X msg 1303 257 set \$1;
#X obj 1303 286 makefilename;
#X obj 1303 234 makefilename %s/%%s;
#X msg 1132 270 symbol .group0;
#X floatatom 1147 230 5 0 0 0 - - -;
#X msg 1147 252 set symbol .group\$1;
#X msg 1252 454 write \$1;
#X obj 1349 335 print;
#X symbolatom 1355 183 50 0 0 0 - - -;
#X obj 1269 158 t b b a a;
#X obj 1132 209 bng 15 250 50 0 empty empty SET 17 7 0 10 -262144 -1
-1;
#X obj 104 113 bng 15 250 50 0 STORE\$0 empty STORE-patterns 17 7 0
10 -258113 -1 -258113;
#X msg 1037 340 read \$1 \; pattern-DMX 0;
#X symbolatom 1078 570 60 0 0 0 - - -;
#X obj 1078 485 bng 15 250 50 0 empty SAVEAS-\$0 SAVE_as-\$0 17 7 0
10 -257985 -1 -1;
#X obj 1078 505 symbol \$1;
#X obj 1078 548 savepanel;
#X msg 1078 591 write \$1;
#X obj 1078 527 makefilename ~/Documents/_%s/.group0;
#X obj 473 696 list prepend;
#X connect 1 0 81 0;
#X connect 1 0 70 0;
#X connect 1 0 71 0;
#X connect 1 0 72 0;
#X connect 1 0 73 0;
#X connect 1 0 74 0;
#X connect 1 0 75 0;
#X connect 1 0 76 0;
#X connect 1 0 77 0;
#X connect 1 0 78 0;
#X connect 1 0 79 0;
#X connect 1 0 80 0;
#X connect 3 0 5 0;
#X connect 4 0 3 0;
#X connect 6 0 7 0;
#X connect 7 0 81 0;
#X connect 7 1 72 0;
#X connect 7 2 75 0;
#X connect 7 3 78 0;
#X connect 7 4 70 0;
#X connect 7 5 73 0;
#X connect 7 6 76 0;
#X connect 7 7 79 0;
#X connect 7 8 71 0;
#X connect 7 9 74 0;
#X connect 7 10 77 0;
#X connect 7 11 80 0;
#X connect 8 0 93 0;
#X connect 10 0 13 0;
#X connect 11 0 16 0;
#X connect 12 0 14 0;
#X connect 13 0 11 0;
#X connect 14 0 15 0;
#X connect 15 0 16 0;
#X connect 16 0 122 0;
#X connect 19 0 13 1;
#X connect 20 0 18 0;
#X connect 21 0 16 0;
#X connect 22 0 21 1;
#X connect 23 0 51 0;
#X connect 24 0 29 0;
#X connect 25 0 32 0;
#X connect 25 0 122 1;
#X connect 26 0 30 0;
#X connect 27 0 25 0;
#X connect 27 1 99 0;
#X connect 28 0 8 0;
#X connect 29 0 51 0;
#X connect 29 1 50 0;
#X connect 30 0 25 0;
#X connect 31 0 88 0;
#X connect 32 0 85 0;
#X connect 33 0 20 0;
#X connect 33 1 21 0;
#X connect 34 0 33 0;
#X connect 34 1 27 0;
#X connect 35 0 38 0;
#X connect 35 1 34 0;
#X connect 38 0 87 0;
#X connect 39 0 37 0;
#X connect 39 1 31 0;
#X connect 40 0 43 0;
#X connect 41 1 8 0;
#X connect 42 0 36 0;
#X connect 43 0 49 0;
#X connect 45 0 44 0;
#X connect 46 0 45 0;
#X connect 48 0 40 0;
#X connect 49 0 96 0;
#X connect 49 1 35 0;
#X connect 50 0 38 1;
#X connect 50 1 88 1;
#X connect 51 0 88 1;
#X connect 52 0 66 0;
#X connect 53 0 86 0;
#X connect 54 0 53 0;
#X connect 56 0 64 0;
#X connect 60 0 61 0;
#X connect 61 0 109 0;
#X connect 62 0 63 0;
#X connect 63 0 115 0;
#X connect 64 0 65 0;
#X connect 66 0 67 0;
#X connect 67 0 48 0;
#X connect 68 0 48 0;
#X connect 82 0 84 0;
#X connect 83 0 96 0;
#X connect 83 0 99 0;
#X connect 84 0 83 0;
#X connect 84 0 14 1;
#X connect 85 0 24 0;
#X connect 87 0 41 0;
#X connect 87 0 42 0;
#X connect 89 0 57 0;
#X connect 90 0 55 0;
#X connect 91 0 1 0;
#X connect 95 0 84 0;
#X connect 96 0 46 0;
#X connect 99 0 26 0;
#X connect 100 0 52 0;
#X connect 101 0 7 0;
#X connect 102 0 112 0;
#X connect 103 0 104 0;
#X connect 104 0 61 1;
#X connect 104 0 110 0;
#X connect 104 0 63 1;
#X connect 105 0 103 0;
#X connect 106 0 104 0;
#X connect 107 0 108 0;
#X connect 108 0 106 0;
#X connect 109 0 86 0;
#X connect 112 0 62 0;
#X connect 112 1 113 0;
#X connect 112 2 105 0;
#X connect 112 3 111 0;
#X connect 113 0 106 0;
#X connect 115 0 86 0;
#X connect 116 0 120 0;
#X connect 116 0 109 0;
#X connect 117 0 118 0;
#X connect 118 0 121 0;
#X connect 119 0 116 0;
#X connect 121 0 119 0;
#X connect 122 0 39 0;
#X coords 0 -1 1 1 630 135 1 100 100;
