#N canvas 320 112 1091 936 10;
#X obj 301 266 vsl 48 256 0 255 0 0 empty empty \$2 0 10 1 9 -1 -24198
-24198 0 1;
#X obj 107 709 loadbang;
#X obj 107 740 \$1;
#X obj 86 792 pack;
#X text 453 139 [faderdmx "adress" "name" "attribute"];
#X text 572 153 attribute [D R G B W];
#X obj 301 21 r fader_\$2;
#X obj 86 527 line;
#X obj 301 189 int;
#X obj 113 182 unpack;
#X obj 439 814 pack f f;
#X obj 353 956 send to_cue;
#X obj 12 64 r \$2;
#X obj 350 265 vradio 10 1 0 26 empty empty empty 0 -8 0 10 -260097
-4032 -1 12.7;
#X obj 350 147 / 1000;
#X obj 350 169 int;
#X obj 414 251 r globaltime;
#X obj 439 843 cyclone/prepend \$2;
#X obj 512 899 tgl 15 0 empty toggle_rec_faderdmx-\$0 rec_faderdmx-\$0
17 7 0 10 -257985 -260097 -1 0 1;
#X obj 119 651 tgl 15 0 empty toggle_out_faderdmx-\$0 toggle_out_faderdmx-\$0
17 7 0 10 -260097 -262130 -1 0 1;
#X obj 86 677 spigot;
#X floatatom 300 250 4 0 0 1 Load - -;
#X floatatom 650 523 3 0 0 1 out - -;
#X floatatom 300 615 4 0 0 1 IRL - -;
#X floatatom 300 525 3 0 0 1 t(s) - -;
#X text 733 139 [faderdmx 512 face1 D];
#X text 43 16 used by CueLoader;
#X obj 86 560 int;
#X obj 790 556 spigot;
#X obj 823 484 tgl 15 0 empty Live_Mode-\$0 Live_Mode-\$0 17 7 0 10
-4032 -1 -1 0 1;
#X msg 98 36 255 3000;
#X obj 86 139 t a a;
#X obj 107 762 - 1;
#X obj 479 925 spigot;
#X obj 353 926 cyclone/prepend;
#X obj 353 894 bng 15 250 50 0 empty Store_fdmx-\$0 Store_fdmx-\$0
17 7 0 10 -258113 -4034 -1;
#X text 522 813 !!!! le changement de time ne fais pas de rec;
#X obj 622 726 pack s f f;
#X obj 622 474 bng 15 250 50 0 empty SET_fader-\$0 SET_fader-\$0 17
7 0 10 -4160 -258113 -1;
#X obj 672 606 int;
#X obj 345 526 bng 15 250 50 0 SET_fader-\$0 SET_fader SET 17 8 1 8
-4160 -258113 -1;
#X obj 300 587 tgl 15 0 toggle_rec_faderdmx-\$0 toggle_rec_faderdmx
REC 17 7 1 10 -257985 -260097 -1 0 1;
#X obj 300 601 tgl 15 0 toggle_out_faderdmx-\$0 toggle_out_faderdmx
OUT 17 7 1 10 -260097 -262130 -1 0 1;
#X obj 300 572 bng 15 250 50 0 Store_fdmx-\$0 Store_fdmx Store 17 7
1 10 -258113 -4034 -1;
#X obj 300 556 tgl 15 0 Live_Mode-\$0 Live_Mode LM 17 8 1 8 -4032 -1
-1 0 1;
#X obj 672 583 * 1000;
#X obj 622 495 symbol \$2;
#X obj 790 740 list;
#X msg 817 707 contre 125 3000;
#X msg 817 667 \; contre 125 3000;
#X text 383 102 used by;
#X obj 12 90 route patch;
#X floatatom 13 727 5 0 0 0 - - -;
#N canvas 0 50 450 300 color_fader 0;
#X obj 13 10 inlet;
#X obj 13 260 outlet;
#X obj 355 123 t b f;
#X obj 299 137 +;
#X obj 299 162 t b f;
#X obj 299 183 +;
#X obj 231 96 * -65536;
#X obj 299 97 * -256;
#X obj 355 101 * -1;
#X obj 299 204 - 1;
#X floatatom 231 68 5 0 0 0 - - -;
#X obj 231 42 spigot;
#X obj 101 102 tgl 15 0 empty COLOR_FADER COLOR_FADER 17 7 0 10 -159808
-262144 -1 0 1;
#X msg 299 227 color \$1 16 16;
#X connect 0 0 11 0;
#X connect 2 0 3 0;
#X connect 2 1 3 1;
#X connect 3 0 4 0;
#X connect 4 0 5 0;
#X connect 4 1 5 1;
#X connect 5 0 9 0;
#X connect 6 0 5 0;
#X connect 7 0 3 0;
#X connect 8 0 2 0;
#X connect 9 0 13 0;
#X connect 10 0 8 0;
#X connect 10 0 7 0;
#X connect 10 0 6 0;
#X connect 11 0 10 0;
#X connect 12 0 11 1;
#X connect 13 0 1 0;
#X coords 0 -1 1 1 85 20 2 100 100;
#X restore 412 763 pd color_fader;
#X msg 927 667 \; contre 125;
#X msg 927 707 contre 125;
#X obj 650 542 t f f;
#X obj 412 728 t f f;
#X obj 439 864 t a a;
#X text 358 793 VERS TO_CUE POUR RECORD;
#X text 623 451 VERS TO_CONTROL POUR SEND;
#X text 85 840 VERS SET DMX_POUR OUT;
#X obj 790 769 send to_control_f-dmx;
#X obj 86 816 send to_control_set-dmx;
#X obj 672 632 t f f f;
#X obj 790 607 list append;
#X obj 790 646 list prepend \$2;
#X obj 86 581 change;
#X obj 301 102 unpack;
#X obj 300 541 bng 15 250 50 0 empty empty SELECT 17 7 1 10 -62784
-262144 -33289;
#X obj 419 609 s SELECT;
#X obj 419 589 symbol \$2;
#X obj 597 267 r CLEAR-SELECT;
#X obj 574 360 s CCOLOR-\$0;
#X obj 574 380 r CCOLOR-\$0;
#X msg 597 289 color 18 0 12 \, label SELECT;
#X msg 574 229 color 64 0 44 \, label;
#X msg 615 326 color 0 0 0 \, label;
#X obj 214 11 r FX_\$2;
#X text 250 43 WIP;
#X msg 99 56 110 4000;
#X obj 569 846 cyclone/prepend FX_\$2;
#N canvas 388 192 905 865 FX1 0;
#X obj 177 275 inlet;
#X obj 264 769 outlet;
#X obj 429 368 inlet;
#X floatatom 429 390 5 0 0 0 - - -;
#X text 471 392 intel2 base_value;
#X obj 264 591 *;
#X obj 183 500 line;
#X obj 183 523 * 6.28319;
#X msg 183 475 set 0 \, 1 \$1;
#X obj 279 564 / 2;
#X floatatom 264 740 5 0 0 0 - - -;
#X obj 183 552 sin;
#X obj 264 626 int;
#X obj 264 653 +;
#X obj 737 639 outlet;
#X obj 497 142 tgl 15 0 empty empty loop -27 7 0 10 -262144 -1 -1 0
1;
#X floatatom 309 140 5 0 0 0 time(ms) - -;
#X floatatom 432 142 5 0 0 0 heigh(0-255) - -;
#X text 222 322 inlet1 speed(ms) height(0-512) Toggle(0-1);
#X obj 339 230 pack f f f;
#X obj 289 215 bng 15 250 50 0 empty empty empty 17 7 0 10 -262144
-1 -1;
#X obj 318 291 list;
#X obj 1 17 vsl 8 60 0 10 0 0 empty empty t(s) 0 -9 0 10 -262144 -1
-1 0 1;
#X obj 309 55 * 1000;
#X obj 309 81 int;
#X obj 9 27 vsl 8 50 0 255 0 0 empty empty Amp 0 -9 0 10 -262144 -1
-1 0 1;
#X obj 3 81 tgl 14 0 empty empty empty 17 7 0 10 -262144 -1 -1 0 1
;
#X obj 183 605 * 10;
#X obj 183 628 int;
#X msg 465 212 2000 10 0;
#X obj 271 278 bng 15 250 50 0 empty empty empty 17 7 0 10 -262144
-1 -1;
#X msg 465 234 4000 20 1;
#X obj 183 693 select 0;
#X obj 183 661 change;
#X obj 183 754 bng 15 250 50 0 empty empty empty 17 7 0 10 -262144
-1 -1;
#X obj 183 781 tgl 15 0 empty empty empty 17 7 0 10 -262144 -1 -1 0
1;
#X obj 183 716 t b b;
#X obj 150 806 spigot;
#X obj 150 837 bng 15 250 50 0 empty empty empty 17 7 0 10 -262144
-1 -1;
#X obj 150 865 spigot;
#X obj 183 837 tgl 15 0 empty empty empty 17 7 0 10 -262144 -1 -1 0
1;
#X obj 318 397 unpack f f f;
#X text 786 639 to store & co;
#X obj 264 676 moses 0;
#X obj 264 709 moses 255;
#X obj 183 575 t f f;
#X obj 320 258 t l l;
#X obj 309 107 moses 10;
#X text 371 116 mini 10 ms;
#X obj 638 22 tgl 15 0 empty toogle_loop_FX loop -27 7 0 10 -262144
-1 -1 0 1;
#X floatatom 433 10 5 200 60000 0 time(s) time_FX -;
#X floatatom 573 22 5 0 512 0 heigh(0-255) heigh_FX -;
#X obj 433 32 select 0;
#X connect 0 0 46 0;
#X connect 2 0 3 0;
#X connect 3 0 13 1;
#X connect 5 0 12 0;
#X connect 6 0 7 0;
#X connect 7 0 11 0;
#X connect 8 0 6 0;
#X connect 9 0 5 1;
#X connect 10 0 1 0;
#X connect 11 0 45 0;
#X connect 12 0 13 0;
#X connect 13 0 43 0;
#X connect 15 0 19 2;
#X connect 15 0 20 0;
#X connect 16 0 19 0;
#X connect 17 0 19 1;
#X connect 17 0 20 0;
#X connect 19 0 14 0;
#X connect 20 0 19 0;
#X connect 21 0 41 0;
#X connect 22 0 23 0;
#X connect 23 0 24 0;
#X connect 24 0 47 0;
#X connect 25 0 17 0;
#X connect 26 0 15 0;
#X connect 27 0 28 0;
#X connect 28 0 33 0;
#X connect 29 0 14 0;
#X connect 30 0 21 0;
#X connect 31 0 14 0;
#X connect 32 0 36 0;
#X connect 33 0 32 0;
#X connect 34 0 35 0;
#X connect 35 0 37 1;
#X connect 36 0 34 0;
#X connect 36 1 37 0;
#X connect 37 0 38 0;
#X connect 38 0 39 0;
#X connect 39 0 21 0;
#X connect 40 0 39 1;
#X connect 41 0 8 0;
#X connect 41 1 9 0;
#X connect 41 2 40 0;
#X connect 43 1 44 0;
#X connect 44 0 10 0;
#X connect 45 0 27 0;
#X connect 45 1 5 0;
#X connect 46 0 21 0;
#X connect 46 1 21 1;
#X connect 47 1 16 0;
#X connect 49 0 26 0;
#X connect 50 0 52 0;
#X connect 51 0 25 0;
#X connect 52 1 22 0;
#X coords 0 -1 1 1 20 100 2 0 0;
#X restore 369 530 pd FX1;
#X obj 86 602 t a a a;
#X obj 372 21 r FX-RAMP_\$2;
#X text 452 18 FX-RAMP_\$2 \, max_val min_val up_time down_tine Dlay
Loop \;;
#N canvas 74 149 1125 918 FX-ramp 0;
#X obj 178 -2 inlet;
#X floatatom 196 622 5 0 0 1 min_val - -;
#X floatatom 697 484 5 0 0 1 up_time - -;
#X floatatom 85 581 5 0 0 1 max_val - -;
#X floatatom 242 338 5 0 0 1 down_time - -;
#X obj 118 475 spigot;
#X obj 191 702 pack;
#X obj 191 764 outlet;
#X obj 85 611 t b f f;
#X floatatom 262 109 5 0 0 1 Dlay - -;
#X obj 741 569 +;
#X obj 714 594 delay;
#X obj 301 392 +;
#X obj 266 412 delay;
#X text 258 49 INIT;
#X obj 85 535 f;
#X obj 181 597 f;
#X obj 696 446 f;
#X obj 227 304 f;
#X obj 714 615 t b b;
#X obj 266 459 t b b;
#X obj 254 364 t f b f;
#X text 493 6 FX-RAMP_$channel \, max_val min_val up_time down_tine
Dlay loop \;;
#X text 237 765 |val time(;
#X text 483 47 max_val = valeur base min_val = valeur auxiliaire up_time
= temps de montee down_tine = temps de descente Dlay = temps intermediaire
loop = une fois ou toutes \;;
#X obj 178 26 unpack f f f f f f;
#X obj 112 127 tgl 15 0 empty empty empty 17 7 0 10 -262144 -1 -1 0
1;
#X obj 293 140 t f f;
#X obj 695 529 t b f;
#X obj 681 366 t f f;
#X obj 401 655 print \$2;
#X obj 413 332 bng 15 250 50 0 empty empty empty 17 7 0 10 -262144
-1 -1;
#X msg 347 35 255 55 500 1500 10000 0;
#X msg 347 5 255 55 500 1500 10100 1;
#X floatatom 784 592 5 0 0 0 - - -;
#X obj 355 65 tgl 15 0 empty FX-ramp-toogle FX-ramp-toogle 17 7 0 10
-262144 -1 -1 0 1;
#X connect 0 0 25 0;
#X connect 2 0 28 0;
#X connect 3 0 8 0;
#X connect 4 0 21 0;
#X connect 5 0 20 0;
#X connect 6 0 7 0;
#X connect 9 0 27 0;
#X connect 10 0 11 1;
#X connect 10 0 34 0;
#X connect 11 0 19 0;
#X connect 12 0 13 1;
#X connect 13 0 5 0;
#X connect 15 0 3 0;
#X connect 15 0 6 0;
#X connect 16 0 1 0;
#X connect 16 0 6 0;
#X connect 17 0 2 0;
#X connect 17 0 6 1;
#X connect 18 0 4 0;
#X connect 18 0 6 1;
#X connect 19 0 16 0;
#X connect 19 0 31 0;
#X connect 19 1 18 0;
#X connect 20 0 15 0;
#X connect 20 1 17 0;
#X connect 21 1 13 0;
#X connect 21 2 12 0;
#X connect 25 0 15 0;
#X connect 25 1 16 1;
#X connect 25 2 29 0;
#X connect 25 3 18 1;
#X connect 25 4 9 0;
#X connect 25 5 26 0;
#X connect 26 0 5 1;
#X connect 27 0 10 1;
#X connect 27 1 12 1;
#X connect 28 0 11 0;
#X connect 28 1 10 0;
#X connect 29 0 17 0;
#X connect 32 0 25 0;
#X connect 33 0 25 0;
#X connect 35 0 26 0;
#X coords 0 -1 1 1 85 60 1 100 100;
#X restore 483 54 pd FX-ramp;
#X obj 496 633 s faderdmx_name;
#X obj 496 606 list prepend \$1 \$2;
#X obj 496 561 bng 15 250 50 0 empty send_list_faderdmx_name send_list_faderdmx_name
17 7 0 10 -159808 -1 -1;
#X obj 169 724 r repatch_\$2;
#X obj 401 202 inlet;
#X obj 86 232 unpack;
#X obj 86 375 pack;
#X obj 119 294 spigot;
#X obj 152 241 tgl 15 0 empty toogle-time-\$0 toogle-time-\$0 17 7
0 10 -204786 -1 -1 0 1;
#X obj 333 553 tgl 10 0 toogle-time-\$0 Kill-time-M t-t 12 5 0 7 -204786
-1 -1 0 1;
#X obj 179 330 route 0;
#X obj 179 353 i 0;
#X obj 152 261 t a a;
#X obj 414 271 r globaltimedmx;
#X obj 414 294 / 5;
#X obj 414 317 int;
#X connect 0 0 22 0;
#X connect 1 0 2 0;
#X connect 2 0 32 0;
#X connect 3 0 63 0;
#X connect 6 0 68 0;
#X connect 7 0 27 0;
#X connect 8 0 0 0;
#X connect 9 0 21 0;
#X connect 9 0 82 1;
#X connect 9 1 14 0;
#X connect 10 0 17 0;
#X connect 12 0 51 0;
#X connect 13 0 24 0;
#X connect 14 0 15 0;
#X connect 15 0 13 0;
#X connect 16 0 13 0;
#X connect 17 0 58 0;
#X connect 18 0 33 1;
#X connect 19 0 20 1;
#X connect 20 0 3 0;
#X connect 22 0 56 0;
#X connect 22 0 10 0;
#X connect 23 0 57 0;
#X connect 24 0 45 0;
#X connect 27 0 67 0;
#X connect 28 0 65 0;
#X connect 29 0 28 1;
#X connect 30 0 31 0;
#X connect 31 0 92 0;
#X connect 31 1 9 0;
#X connect 32 0 3 1;
#X connect 33 0 11 0;
#X connect 34 0 11 0;
#X connect 35 0 34 0;
#X connect 37 0 47 0;
#X connect 38 0 46 0;
#X connect 39 0 64 0;
#X connect 45 0 39 0;
#X connect 46 0 37 0;
#X connect 47 0 62 0;
#X connect 48 0 47 0;
#X connect 51 0 52 0;
#X connect 51 1 31 0;
#X connect 52 0 2 0;
#X connect 53 0 0 0;
#X connect 56 0 37 1;
#X connect 56 1 28 0;
#X connect 57 0 53 0;
#X connect 58 0 34 1;
#X connect 58 1 33 0;
#X connect 64 0 10 1;
#X connect 64 1 37 2;
#X connect 64 2 65 1;
#X connect 65 0 66 0;
#X connect 66 0 47 0;
#X connect 67 0 83 0;
#X connect 68 0 8 0;
#X connect 68 1 14 0;
#X connect 69 0 71 0;
#X connect 69 0 76 0;
#X connect 71 0 70 0;
#X connect 72 0 75 0;
#X connect 74 0 69 0;
#X connect 75 0 73 0;
#X connect 76 0 73 0;
#X connect 77 0 73 0;
#X connect 78 0 82 0;
#X connect 80 0 31 0;
#X connect 81 0 58 0;
#X connect 81 0 47 0;
#X connect 82 0 83 0;
#X connect 82 1 81 0;
#X connect 83 0 20 0;
#X connect 83 1 23 0;
#X connect 84 0 86 0;
#X connect 86 0 31 0;
#X connect 88 0 87 0;
#X connect 89 0 88 0;
#X connect 90 0 2 0;
#X connect 91 0 0 0;
#X connect 92 0 93 0;
#X connect 92 1 94 0;
#X connect 93 0 7 0;
#X connect 94 0 93 1;
#X connect 95 0 99 0;
#X connect 97 0 98 0;
#X connect 98 0 93 1;
#X connect 99 0 94 1;
#X connect 99 1 97 0;
#X connect 100 0 101 0;
#X connect 101 0 102 0;
#X connect 102 0 13 0;
#X coords 0 -1 1 1 60 382 2 300 250;
