#N canvas 508 167 993 573 10;
#X obj 101 101 cnv 15 748 418 empty empty colorado_chauvet_mode_tour-\$1
20 12 0 14 -233017 -66577 0;
#X obj 116 134 faderdmx 1 DIMMER-COLORADO-\$1 D;
#X obj 176 134 faderdmx 2 RED-COLORADO-\$1 R;
#X obj 236 134 faderdmx 3 GREEN-COLORADO-\$1 G;
#X obj 296 134 faderdmx 4 BLUE-COLORADO-\$1 B;
#X obj 356 134 faderdmx 5 WHITE-COLORADO-\$1 D;
#X obj 416 134 faderdmx 6 COLOR-MACRO-COLORADO-\$1 D;
#X obj 476 134 faderdmx 7 STROBE-COLORADO-\$1 D;
#X obj 536 134 faderdmx 8 PROGRAMS-COLORADO-\$1 D;
#X obj 596 134 faderdmx 9 AUTO-SPEED-COLORADO-\$1 D;
#X obj 656 134 faderdmx 10 ZOOM-COLORADO-\$1 D;
#X obj 716 134 faderdmx 11 ZOOM-CONTROL-COLORADO-\$1 D;
#X obj 776 134 faderdmx 12 DIMMER-SPEED-COLORADO-\$1 D;
#N canvas 778 406 645 431 repatch 1;
#X obj 101 158 + 0;
#X obj 111 178 + 1;
#X obj 121 198 + 2;
#X obj 131 218 + 3;
#X obj 141 238 + 4;
#X obj 151 258 + 5;
#X obj 301 365 list prepend;
#X obj 171 158 + 6;
#X obj 181 178 + 7;
#X obj 191 198 + 8;
#X obj 201 218 + 9;
#X obj 211 238 + 10;
#X obj 221 258 + 11;
#X obj 251 158 + 12;
#X obj 261 178 + 13;
#X obj 271 198 + 14;
#X obj 281 218 + 15;
#X obj 101 125 t f f f f f f f f f f f f f f f f;
#X obj 101 295 pack f f f f f f f f f f f f f f f f;
#X obj 101 93 swap;
#X obj 101 40 prepend \$1;
#X obj 101 63 unpack;
#X obj 301 395 print COLORADO_CHAUVET_MODE_TOUR-\$1;
#X msg 208 50 120;
#X msg 420 69 \; repatch_DIMMER-COLORADO-\$1 \$2 \; repatch_RED-COLORADO-\$1
\$3 \; repatch_GREEN-COLORADO-\$1 \$4 \; repatch_BLUE-COLORADO-\$1
\$5 \; repatch_WHITE-COLORADO-\$1 \$6 \; repatch_COLOR-MACRO-COLORADO-\$1
\$7 \; repatch_STROBE-COLORADO-\$1 \$8 \; repatch_PROGRAMS-COLORADO-\$1
\$9 \; repatch_AUTO-SPEED-COLORADO-\$1 \$10 \; repatch_ZOOM-COLORADO-\$1
\$11 \; repatch_ZOOM-CONTROL-COLORADO-\$1 \$12 \; repatch_DIMMER-SPEED-COLORADO-\$1
\$13 \;;
#X obj 101 17 r repatch_COLORADO_CHAUVET_MODE_TOUR-\$1;
#X connect 0 0 18 0;
#X connect 1 0 18 1;
#X connect 2 0 18 2;
#X connect 3 0 18 3;
#X connect 4 0 18 4;
#X connect 5 0 18 5;
#X connect 6 0 24 0;
#X connect 6 0 22 0;
#X connect 7 0 18 6;
#X connect 8 0 18 7;
#X connect 9 0 18 8;
#X connect 10 0 18 9;
#X connect 11 0 18 10;
#X connect 12 0 18 11;
#X connect 13 0 18 12;
#X connect 14 0 18 13;
#X connect 15 0 18 14;
#X connect 16 0 18 15;
#X connect 17 0 0 0;
#X connect 17 1 1 0;
#X connect 17 2 2 0;
#X connect 17 3 3 0;
#X connect 17 4 4 0;
#X connect 17 5 5 0;
#X connect 17 6 7 0;
#X connect 17 7 8 0;
#X connect 17 8 9 0;
#X connect 17 9 10 0;
#X connect 17 10 11 0;
#X connect 17 11 12 0;
#X connect 17 12 13 0;
#X connect 17 13 14 0;
#X connect 17 14 15 0;
#X connect 17 15 16 0;
#X connect 18 0 6 0;
#X connect 19 0 17 0;
#X connect 19 1 6 1;
#X connect 20 0 21 0;
#X connect 21 0 19 0;
#X connect 21 1 19 1;
#X connect 23 0 20 0;
#X connect 25 0 20 0;
#X restore 878 67 pd repatch;
#X obj 176 19 r RED-COLORADO;
#X obj 296 1 r BLUE-COLORADO;
#X obj 236 37 r GREEN-COLORADO;
#X obj 356 19 r WHITE-COLORADO;
#X obj 656 1 r ZOOM-COLORADO;
#X obj 416 37 r COLORMACRO-COLORADO;
#X obj 116 1 r DIMMER-COLORADO;
#X obj 476 1 r STROBE-COLORADO;
#X obj 776 37 r DIMMER-SPEED-COLORADO;
#X obj 716 19 r ZOOM-CONTROL-COLORADO;
#X obj 536 19 r PROGRAMS-COLORADO;
#X obj 596 37 r AUTO-SPEED-COLORADO;
#X connect 14 0 2 0;
#X connect 15 0 4 0;
#X connect 16 0 3 0;
#X connect 17 0 5 0;
#X connect 18 0 10 0;
#X connect 19 0 6 0;
#X connect 20 0 1 0;
#X connect 21 0 7 0;
#X connect 22 0 12 0;
#X connect 23 0 11 0;
#X connect 24 0 8 0;
#X connect 25 0 9 0;
#X coords 0 -1 1 1 750 420 1 100 100;
