#N canvas 85 419 948 569 10;
#X obj 101 101 cnv 15 498 418 empty empty _Nicols-\$1 20 12 0 14 -204786
-66577 0;
#X obj 112 126 DMX/faderdmx 128 Dim_Nicols-\$1 D;
#X obj 172 126 DMX/faderdmx 129 R_Nicols-\$1 D;
#X obj 232 126 DMX/faderdmx 130 G_Nicols-\$1 D;
#X obj 292 126 DMX/faderdmx 131 B_Nicols-\$1 D;
#X obj 352 126 DMX/faderdmx 132 W_Nicols-\$1 D;
#X obj 412 126 DMX/faderdmx 133 STB_Nicols-\$1 D;
#X obj 472 126 DMX/faderdmx 134 Macro_Nicols-\$1 D;
#X obj 532 126 DMX/faderdmx 135 Speed_Nicols-\$1 D;
#N canvas 527 245 1207 714 repatch 0;
#X obj 101 158 + 0;
#X obj 111 178 + 1;
#X obj 121 198 + 2;
#X obj 131 218 + 3;
#X obj 141 238 + 4;
#X obj 151 258 + 5;
#X obj 301 365 list prepend;
#X obj 171 158 + 6;
#X obj 181 178 + 7;
#X obj 101 93 swap;
#X obj 101 40 prepend \$1;
#X obj 101 63 unpack;
#X msg 208 50 120;
#X obj 101 17 r repatch_NICOLS-\$1;
#X obj 301 395 print repatch_NICOLS-\$1;
#X msg 424 85 \; repatch_Dim_Nicols-\$1 \$2 \; repatch_R_Nicols-\$1
\$3 \; repatch_G_Nicols-\$1 \$4 \; repatch_B_Nicols-\$1 \$5 \; repatch_W_Nicols-\$1
\$6 \; repatch_STB_Nicols-\$1 \$7 \; repatch_Macro_Nicols-\$1 \$8 \;
repatch_Speed_Nicols-\$1 \$9 \;;
#X obj 101 125 t f f f f f f f f;
#X obj 101 295 pack f f f f f f f f;
#X connect 0 0 17 0;
#X connect 1 0 17 1;
#X connect 2 0 17 2;
#X connect 3 0 17 3;
#X connect 4 0 17 4;
#X connect 5 0 17 5;
#X connect 6 0 15 0;
#X connect 6 0 14 0;
#X connect 7 0 17 6;
#X connect 8 0 17 7;
#X connect 9 0 16 0;
#X connect 9 1 6 1;
#X connect 10 0 11 0;
#X connect 11 0 9 0;
#X connect 11 1 9 1;
#X connect 12 0 10 0;
#X connect 13 0 10 0;
#X connect 16 0 0 0;
#X connect 16 1 1 0;
#X connect 16 2 2 0;
#X connect 16 3 3 0;
#X connect 16 4 4 0;
#X connect 16 5 5 0;
#X connect 16 6 7 0;
#X connect 16 7 8 0;
#X connect 17 0 6 0;
#X restore 602 74 pd repatch;
#X obj 87 10 r DIMMER-NICOLS;
#X obj 147 28 r RED-NICOLS;
#X obj 207 46 r GREEN-NICOLS;
#X obj 267 10 r BLUE-NICOLS;
#X obj 327 28 r WHITE-NICOLS;
#X obj 447 10 r STROBE-NICOLS;
#X obj 467 26 r COLORMACRO-NICOLS;
#X obj 567 46 r AUTO-SPEED-NICOLS;
#X connect 10 0 1 0;
#X connect 11 0 2 0;
#X connect 12 0 3 0;
#X connect 13 0 4 0;
#X connect 14 0 5 0;
#X connect 15 0 6 0;
#X connect 16 0 7 0;
#X connect 17 0 8 0;
#X coords 0 -1 1 1 500 420 1 100 100;
