#N canvas -128 396 776 567 10;
#X obj 101 101 cnv 15 398 418 empty empty _PARKOLOR48HD-\$1 20 12 0
14 -232576 -66577 0;
#X obj 118 126 DMX/faderdmx 1 R-PARKOLOR48HD-\$1 D;
#X obj 178 126 DMX/faderdmx 2 G-PARKOLOR48HD-\$1 D;
#X obj 238 126 DMX/faderdmx 3 B-PARKOLOR48HD-\$1 D;
#X obj 298 126 DMX/faderdmx 4 W-PARKOLOR48HD-\$1 D;
#X obj 358 126 DMX/faderdmx 5 Dim-PARKOLOR48HD-\$1 D;
#X obj 418 126 DMX/faderdmx 6 STB-PARKOLOR48HD-\$1 D;
#N canvas 25 633 1301 714 repatch 0;
#X obj 101 158 + 0;
#X obj 111 178 + 1;
#X obj 121 198 + 2;
#X obj 131 218 + 3;
#X obj 141 238 + 4;
#X obj 151 258 + 5;
#X obj 301 365 list prepend;
#X obj 171 158 + 6;
#X obj 181 178 + 7;
#X obj 191 198 + 8;
#X obj 101 93 swap;
#X obj 101 40 prepend \$1;
#X obj 101 63 unpack;
#X msg 208 50 120;
#X obj 101 295 pack f f f f f f f f f;
#X obj 101 125 t f f f f f f f f f;
#X obj 101 17 r repatch_PARKOLOR48HD-\$1;
#X obj 301 395 print repatch_PARKOLOR48HD-\$1;
#X msg 420 69 \; repatch_R-PARKOLOR48HD-\$1 \$2 \; repatch_G-PARKOLOR48HD-\$1
\$3 \; repatch_B-PARKOLOR48HD-\$1 \$4 \; repatch_W-PARKOLOR48HD-\$1
\$5 \; repatch_Dim-PARKOLOR48HD-\$1 \$6 \; repatch_STB-PARKOLOR48HD-\$1
\$7 \;;
#X connect 0 0 14 0;
#X connect 1 0 14 1;
#X connect 2 0 14 2;
#X connect 3 0 14 3;
#X connect 4 0 14 4;
#X connect 5 0 14 5;
#X connect 6 0 18 0;
#X connect 6 0 17 0;
#X connect 7 0 14 6;
#X connect 8 0 14 7;
#X connect 9 0 14 8;
#X connect 10 0 15 0;
#X connect 10 1 6 1;
#X connect 11 0 12 0;
#X connect 12 0 10 0;
#X connect 12 1 10 1;
#X connect 13 0 11 0;
#X connect 14 0 6 0;
#X connect 15 0 0 0;
#X connect 15 1 1 0;
#X connect 15 2 2 0;
#X connect 15 3 3 0;
#X connect 15 4 4 0;
#X connect 15 5 5 0;
#X connect 15 6 7 0;
#X connect 15 7 8 0;
#X connect 15 8 9 0;
#X connect 16 0 11 0;
#X restore 490 53 pd repatch;
#X obj 87 10 r DIMMER-PARKOLOR48HD;
#X obj 147 28 r RED-PARKOLOR48HD;
#X obj 207 46 r GREEN-PARKOLOR48HD;
#X obj 267 10 r BLUE-PARKOLOR48HD;
#X obj 327 28 r WHITE-PARKOLOR48HD;
#X obj 447 10 r STROBE-PARKOLOR48HD;
#X connect 8 0 5 0;
#X connect 9 0 1 0;
#X connect 10 0 2 0;
#X connect 11 0 3 0;
#X connect 12 0 4 0;
#X connect 13 0 6 0;
#X coords 0 -1 1 1 400 420 1 100 100;
