#N canvas 242 472 411 533 10;
#X obj 101 101 cnv 15 218 418 empty empty _PIXLED-\$1 20 12 0 14 -203904
-66577 0;
#X obj 112 126 DMX/faderdmx 129 R_PIXLED-\$1 D;
#X obj 172 126 DMX/faderdmx 130 G_PIXLED-\$1 D;
#X obj 232 126 DMX/faderdmx 131 B_PIXLED-\$1 D;
#N canvas 293 213 1207 714 repatch 0;
#X obj 101 158 + 0;
#X obj 111 178 + 1;
#X obj 121 198 + 2;
#X obj 301 365 list prepend;
#X obj 101 93 swap;
#X obj 101 40 prepend \$1;
#X obj 101 63 unpack;
#X msg 208 50 120;
#X obj 101 17 r repatch_PIXLED-\$1;
#X obj 101 125 t f f f;
#X obj 101 295 pack f f f;
#X obj 301 395 print repatch_PIXLED-\$1;
#X msg 420 69 \; repatch_R_PIXLED-\$1 \$2 \; repatch_G_PIXLED-\$1 \$3
\; repatch_B_PIXLED-\$1 \$4 \;;
#X connect 0 0 10 0;
#X connect 1 0 10 1;
#X connect 2 0 10 2;
#X connect 3 0 12 0;
#X connect 3 0 11 0;
#X connect 4 0 9 0;
#X connect 4 1 3 1;
#X connect 5 0 6 0;
#X connect 6 0 4 0;
#X connect 6 1 4 1;
#X connect 7 0 5 0;
#X connect 8 0 5 0;
#X connect 9 0 0 0;
#X connect 9 1 1 0;
#X connect 9 2 2 0;
#X connect 10 0 3 0;
#X restore 337 67 pd repatch;
#X obj 147 28 r RED-PIXLED;
#X obj 207 46 r GREEN-PIXLED;
#X obj 267 10 r BLUE-PIXLED;
#X connect 5 0 1 0;
#X connect 6 0 2 0;
#X connect 7 0 3 0;
#X coords 0 -1 1 1 220 420 1 100 100;
