#N canvas 401 249 1489 573 10;
#X obj 101 101 cnv 15 998 418 empty empty RUSH-MARTIN-MH5-PROFILE-\$1
20 12 0 14 -232576 -66577 0;
#X obj 116 134 faderdmx 1 DIMMER-coarse-MH5-\$1 D;
#X obj 176 134 faderdmx 2 DIMMER-fine-MH5-\$1 R;
#X obj 236 134 faderdmx 3 STROBE-MH5-\$1 G;
#X obj 296 134 faderdmx 4 COLOR1-MH5-\$1 B;
#X obj 356 134 faderdmx 5 COLOR2-MH5-\$1 D;
#X obj 416 134 faderdmx 6 GOBO1-MH5-\$1 D;
#X obj 476 134 faderdmx 7 GOBO1INDEX-MH5-\$1 D;
#X obj 536 134 faderdmx 8 GOBO2-MH5-\$1 D;
#X obj 596 134 faderdmx 9 PRISM-MH5-\$1 D;
#X obj 656 134 faderdmx 10 PRISM-ROT-MH5-\$1 D;
#X obj 716 134 faderdmx 11 FOCUS-MH5-\$1 D;
#X obj 776 134 faderdmx 12 PAN-COARSE-MH5-\$1 D;
#X obj 836 134 faderdmx 13 PAN-FINE-MH5-\$1 D;
#X obj 896 134 faderdmx 14 TILT-COARSE-MH5-\$1 D;
#X obj 956 134 faderdmx 15 TILT-FINE-MH5-\$1 D;
#X obj 1016 134 faderdmx 16 CONTROL-MH5-\$1 D;
#N canvas 993 378 823 630 repatch 1;
#X obj 101 158 + 0;
#X obj 111 178 + 1;
#X obj 121 198 + 2;
#X obj 131 218 + 3;
#X obj 141 238 + 4;
#X obj 151 258 + 5;
#X obj 301 365 list prepend;
#X obj 171 158 + 6;
#X obj 181 178 + 7;
#X obj 191 198 + 8;
#X obj 201 218 + 9;
#X obj 211 238 + 10;
#X obj 221 258 + 11;
#X obj 251 158 + 12;
#X obj 261 178 + 13;
#X obj 271 198 + 14;
#X obj 281 218 + 15;
#X obj 101 125 t f f f f f f f f f f f f f f f f;
#X obj 101 295 pack f f f f f f f f f f f f f f f f;
#X obj 101 93 swap;
#X obj 101 40 prepend \$1;
#X obj 101 63 unpack;
#X msg 208 50 120;
#X obj 101 17 r repatch_RUSH-MH5-\$1;
#X obj 301 395 print RUSH-MH5-\$1;
#X msg 399 74 \; repatch_DIMMER-coarse-MH5-\$1 \$2 \; repatch_DIMMER-fine-MH5-\$1
\$3 \; repatch_STROBE-MH5-\$1 \$4 \; repatch_COLOR1-MH5-\$1 \$5 \;
repatch_COLOR2-MH5-\$1 \$6 \; repatch_GOBO1-MH5-\$1 \$7 \; repatch_GOBO1INDEX-MH5-\$1
\$8 \; repatch_GOBO2-MH5-\$1 \$9 \; repatch_PRISM-MH5-\$1 \$10 \; repatch_PRISM-ROT-MH5-\$1
\$11 \; repatch_FOCUS-MH5-\$1 \$12 \; repatch_PAN-COARSE-MH5-\$1 \$13
\; repatch_PAN-FINE-MH5-\$1 \$14 \; repatch_TILT-COARSE-MH5-\$1 \$15
\; repatch_TILT-FINE-MH5-\$1 \$16 \; repatch_CONTROL-MH5-\$1 \$17 \;
;
#X connect 0 0 18 0;
#X connect 1 0 18 1;
#X connect 2 0 18 2;
#X connect 3 0 18 3;
#X connect 4 0 18 4;
#X connect 5 0 18 5;
#X connect 6 0 25 0;
#X connect 6 0 24 0;
#X connect 7 0 18 6;
#X connect 8 0 18 7;
#X connect 9 0 18 8;
#X connect 10 0 18 9;
#X connect 11 0 18 10;
#X connect 12 0 18 11;
#X connect 13 0 18 12;
#X connect 14 0 18 13;
#X connect 15 0 18 14;
#X connect 16 0 18 15;
#X connect 17 0 0 0;
#X connect 17 1 1 0;
#X connect 17 2 2 0;
#X connect 17 3 3 0;
#X connect 17 4 4 0;
#X connect 17 5 5 0;
#X connect 17 6 7 0;
#X connect 17 7 8 0;
#X connect 17 8 9 0;
#X connect 17 9 10 0;
#X connect 17 10 11 0;
#X connect 17 11 12 0;
#X connect 17 12 13 0;
#X connect 17 13 14 0;
#X connect 17 14 15 0;
#X connect 17 15 16 0;
#X connect 18 0 6 0;
#X connect 19 0 17 0;
#X connect 19 1 6 1;
#X connect 20 0 21 0;
#X connect 21 0 19 0;
#X connect 21 1 19 1;
#X connect 22 0 20 0;
#X connect 23 0 20 0;
#X restore 1191 56 pd repatch;
#X obj 121 33 r DIMMER-COARSE-MH5;
#X obj 141 63 r DIMMER-FINE-MH5;
#X obj 261 23 r STROBE-MH5;
#X obj 329 51 r COLOR1-MH5;
#X obj 379 20 r COLOR2-MH5;
#X obj 479 50 r GOBO1-MH5;
#X obj 529 19 r GOBO2-MH5;
#X obj 559 50 r GOBO1INDEX-MH5;
#X obj 621 29 r PRISM-MH5;
#X obj 667 11 r PRISMROT-MH5;
#X obj 710 33 r FOCUS-MH5;
#X obj 825 33 r PAN-COARSE-MH5;
#X obj 845 63 r PAN-FINE-MH5;
#X obj 937 29 r TILT-COARSE-MH5;
#X obj 957 59 r TILT-FINE-MH5;
#X obj 1064 36 r CONTROL-MH5;
#X connect 18 0 1 0;
#X connect 19 0 2 0;
#X connect 20 0 3 0;
#X connect 21 0 4 0;
#X connect 22 0 5 0;
#X connect 23 0 6 0;
#X connect 24 0 8 0;
#X connect 25 0 7 0;
#X connect 26 0 9 0;
#X connect 27 0 10 0;
#X connect 28 0 11 0;
#X connect 29 0 12 0;
#X connect 30 0 13 0;
#X connect 31 0 14 0;
#X connect 32 0 15 0;
#X connect 33 0 16 0;
#X coords 0 -1 1 1 1000 420 1 100 100;
