#N canvas 0 74 1920 1006 10;
#X obj 1136 6 array define -yrange 0 255 -pix 512 255 Universe-\$1
512;
#X obj 1136 26 array define -yrange 0 255 -pix 512 255 Universe-\$2
512;
#X obj 1136 46 array define -yrange 0 255 -pix 512 255 Universe-\$3
512;
#X obj 1136 66 array define -yrange 0 255 -pix 512 255 Universe-\$4
512;
#X obj 1136 86 array define -yrange 0 255 -pix 512 255 merge-\$1-\$2-\$3-\$4
512;
#X f 63;
#N canvas 132 194 721 658 MERGE 0;
#X obj 62 38 bng 15 250 50 0 empty empty run 17 7 0 10 -262130 -1 -1
;
#X obj 404 217 bng 15 250 50 0 empty empty empty 17 7 0 10 -262144
-1 -1;
#X obj 404 237 + 1;
#X obj 234 217 bng 15 250 50 0 empty empty empty 17 7 0 10 -262144
-1 -1;
#X obj 234 237 + 0;
#X msg 72 167 stop;
#X obj 109 167 + 0;
#X obj 63 250 counter 0 511;
#X obj 63 450 max;
#X obj 373 450 max;
#X obj 63 275 t f f f f f;
#X obj 63 524 max;
#X obj 62 226 metro 0.01;
#X obj 62 58 t b b b b b;
#X obj 63 384 array get Universe-\$1;
#X obj 529 384 array get Universe-\$4;
#X obj 373 384 array get Universe-\$3;
#X obj 219 384 array get Universe-\$2;
#X obj 63 565 array set merge-\$1-\$2-\$3-\$4;
#X obj 97 38 inlet;
#X connect 0 0 13 0;
#X connect 1 0 2 0;
#X connect 2 0 14 1;
#X connect 2 0 15 1;
#X connect 2 0 16 1;
#X connect 2 0 17 1;
#X connect 3 0 4 0;
#X connect 4 0 14 0;
#X connect 4 0 15 0;
#X connect 4 0 16 0;
#X connect 4 0 17 0;
#X connect 5 0 12 0;
#X connect 6 0 7 3;
#X connect 7 0 10 0;
#X connect 8 0 11 0;
#X connect 9 0 11 1;
#X connect 10 0 14 0;
#X connect 10 1 17 0;
#X connect 10 2 16 0;
#X connect 10 3 15 0;
#X connect 10 4 18 1;
#X connect 11 0 18 0;
#X connect 12 0 7 0;
#X connect 13 0 12 0;
#X connect 13 1 3 0;
#X connect 13 2 1 0;
#X connect 13 3 6 0;
#X connect 13 4 5 0;
#X connect 14 0 8 0;
#X connect 15 0 9 1;
#X connect 16 0 9 0;
#X connect 17 0 8 1;
#X connect 19 0 13 0;
#X restore 1071 86 pd MERGE;
#X obj 31 833 prepend set;
#X obj 31 19 list split 2;
#X obj 65 743 prepend set;
#X msg 65 764 0 3;
#X obj 99 115 list split 1;
#X floatatom 99 251 5 0 0 1 Net_0-127 - -;
#X obj 133 137 list split 2;
#X text 60 855 ProtVersion (14):;
#X msg 31 854 0 14;
#X obj 65 54 list split 2;
#X text 88 764 sequence 0-256physical The physical input port from
which DMX512 data was input. This field is for information only. Use
Universe for data routing., f 169;
#X obj 65 722 spigot;
#X obj 104 705 tgl 15 0 empty empty empty 17 7 0 10 -262144 -1 -1 0
1;
#X obj 31 812 spigot;
#X obj 64 795 tgl 15 0 empty empty empty 17 7 0 10 -262144 -1 -1 0
1;
#X obj 31 -9 inlet;
#X text 109 -10 \$1-\$2-\$3-\$4 universe;
#X text 234 -9 \$5 Net;
#X obj 99 336 prepend set;
#X msg 99 361 0 0 0 0 0 0 0 0 0 0 0 0 0 0 0 0 0 0 0 0 0 0 0 0 0 0 0
0 0 0 0 0 0 0 0 0 0 0 0 0 0 0 0 0 0 0 0 0 0 0 0 0 0 0 0 0 0 0 0 0 0
0 0 0 0 0 0 0 0 0 0 0 0 0 0 0 0 0 0 0 0 0 0 0 0 0 0 0 0 0 0 0 0 0 0
0 0 0 0 0 0 0 0 0 0 0 0 0 0 0 0 0 0 0 0 0 0 0 0 0 0 0 0 0 0 0 0 0 0
0 0 0 0 0 0 0 0 0 0 0 0 0 0 0 0 0 0 134 0 0 0 0 10 10 10 24 0 0 0 0
0 0 0 0 0 10 10 24 0 0 0 0 0 0 0 0 0 0 10 0 0 0 0 0 0 0 0 0 0 10 10
24 0 0 0 0 0 0 0 0 0 10 10 10 24 0 0 0 0 0 0 0 0 0 40 18 0 0 0 0 0
0 0 0 0 0 0 0 0 0 0 0 0 0 0 0 0 0 0 0 0 0 0 0 0 0 0 0 0 0 0 0 0 0 0
0 0 0 0 0 0 255 0 0 0 0 0 0 0 0 0 0 0 0 0 0 0 0 0 0 0 0 0 0 0 255 0
15 0 0 0 0 0 0 0 0 0 0 0 0 0 0 0 0 0 0 0 0 0 0 0 0 0 0 0 0 0 0 0 0
0 0 0 0 0 0 0 0 0 0 0 0 0 0 0 0 0 0 0 0 0 0 0 0 0 0 0 0 0 0 0 0 0 0
0 0 0 0 0 0 0 0 0 0 0 0 0 0 0 0 0 0 0 0 0 0 0 0 0 0 0 0 0 0 0 0 0 0
0 0 0 0 0 0 0 0 0 0 0 0 0 0 0 0 0 0 0 0 0 0 0 0 0 0 0 0 0 0 0 0 0 0
0 0 0 0 0 0 0 0 0 0 0 0 0 0 0 0 0 0 0 0 0 0 0 0 0 0 0 0 0 0 0 0 0 0
0 0 0 0 0 0 0 0 0 0 0 0 0 0 0 0 0 0 0 0 0 0 0 0 0 0 0 0 0 0 0 0 0 0
0 0 0 0 0 0 0 0 0 0 0 0 0 0 0 0 0 0 0 0 0 0;
#N canvas 275 352 450 300 length 0;
#X obj 20 7 inlet;
#X obj 102 27 unpack;
#X obj 102 50 * 256;
#X obj 102 73 +;
#X floatatom 102 111 5 0 0 1 length - -;
#X obj 20 61 spigot;
#X obj 172 112 tgl 15 0 empty empty empty 17 7 0 10 -262144 -1 -1 0
1;
#X connect 0 0 5 0;
#X connect 1 0 2 0;
#X connect 1 1 3 1;
#X connect 2 0 3 0;
#X connect 3 0 4 0;
#X connect 5 0 1 0;
#X connect 6 0 5 1;
#X coords 0 -1 1 1 90 30 2 100 100;
#X restore 133 171 pd length;
#X obj 1071 68 bng 15 250 50 0 empty empty run 17 7 0 10 -262130 -1
-1;
#X obj 99 308 list store;
#X obj 99 278 select \$5;
#X obj 229 115 list split 1;
#X obj 263 137 list split 2;
#N canvas 275 352 450 300 length 0;
#X obj 20 7 inlet;
#X obj 102 27 unpack;
#X obj 102 50 * 256;
#X obj 102 73 +;
#X floatatom 102 111 5 0 0 1 length - -;
#X obj 20 61 spigot;
#X obj 172 112 tgl 15 0 empty empty empty 17 7 0 10 -262144 -1 -1 0
1;
#X connect 0 0 5 0;
#X connect 1 0 2 0;
#X connect 1 1 3 1;
#X connect 2 0 3 0;
#X connect 3 0 4 0;
#X connect 5 0 1 0;
#X connect 6 0 5 1;
#X coords 0 -1 1 1 90 30 2 100 100;
#X restore 263 171 pd length;
#X obj 359 115 list split 1;
#X obj 393 137 list split 2;
#N canvas 275 352 450 300 length 0;
#X obj 20 7 inlet;
#X obj 102 27 unpack;
#X obj 102 50 * 256;
#X obj 102 73 +;
#X floatatom 102 111 5 0 0 1 length - -;
#X obj 20 61 spigot;
#X obj 172 112 tgl 15 0 empty empty empty 17 7 0 10 -262144 -1 -1 0
1;
#X connect 0 0 5 0;
#X connect 1 0 2 0;
#X connect 1 1 3 1;
#X connect 2 0 3 0;
#X connect 3 0 4 0;
#X connect 5 0 1 0;
#X connect 6 0 5 1;
#X coords 0 -1 1 1 90 30 2 100 100;
#X restore 393 171 pd length;
#X obj 489 115 list split 1;
#X obj 523 137 list split 2;
#N canvas 275 352 450 300 length 0;
#X obj 20 7 inlet;
#X obj 102 27 unpack;
#X obj 102 50 * 256;
#X obj 102 73 +;
#X floatatom 102 111 5 0 0 1 length - -;
#X obj 20 61 spigot;
#X obj 172 112 tgl 15 0 empty empty empty 17 7 0 10 -262144 -1 -1 0
1;
#X connect 0 0 5 0;
#X connect 1 0 2 0;
#X connect 1 1 3 1;
#X connect 2 0 3 0;
#X connect 3 0 4 0;
#X connect 5 0 1 0;
#X connect 6 0 5 1;
#X coords 0 -1 1 1 90 30 2 100 100;
#X restore 523 171 pd length;
#X floatatom 229 251 5 0 0 1 Net_0-127 - -;
#X obj 229 336 prepend set;
#X obj 229 308 list store;
#X obj 229 278 select \$5;
#X floatatom 359 251 5 0 0 1 Net_0-127 - -;
#X obj 359 336 prepend set;
#X obj 359 308 list store;
#X obj 359 278 select \$5;
#X floatatom 489 251 5 0 0 1 Net_0-127 - -;
#X obj 489 336 prepend set;
#X obj 489 308 list store;
#X obj 489 278 select \$5;
#X msg 1439 361 0 0 0 0 0 0 0 0 0 0 0 0 0 0 0 0 0 0 0 0 0 0 0 0 0 0
0 0 0 0 0 0 0 0 0 0 0 0 0 0 0 0 0 0 0 0 0 0 0 0 0 0 0 0 0 103 0 0 207
0 0 0 0 0 0 103 0 0 0 0 0 0 0 0 0 0 0 0 0 0 0 0 0 0 0 0 0 0 0 0 0 0
0 0 0 0 0 0 0 0 0 0 0 0 0 0 0 0 0 0 0 255 255 0 0 0 0 0 77 0 0 255
255 0 0 0 0 0 77 0 254 255 255 207 0 0 0 0 77 0 0 0 0 0 0 0 0 0 0 0
0 0 0 0 0 0 0 0 0 0 0 0 0 0 0 0 0 0 0 0 0 0 0 0 0 0 0 0 0 0 0 0 0 0
0 0 0 0 0 0 0 0 0 0 0 0 0 0 0 0 0 0 0 0 0 0 0 0 0 0 0 0 0 0 0 0 0 0
0 0 0 0 0 0 0 0 0 0 0 0 0 0 0 0 0 0 0 0 0 0 0 0 0 0 0 0 0 0 0 0 0 0
0 0 0 0 0 0 0 0 0 0 0 0 0 0 0 0 0 0 0 0 0 0 0 0 0 0 0 0 0 0 0 0 0 0
0 0 0 0 0 0 0 0 0 0 0 0 0 0 0 0 0 0 0 0 0 0 0 0 0 0 0 0 0 0 0 0 0 107
0 0 0 0 197 0 0 0 0 107 0 0 0 0 197 0 0 0 0 0 0 0 0 0 0 0 0 0 0 0 0
0 0 0 0 0 0 0 0 0 0 0 0 0 0 0 0 0 0 0 0 0 0 0 0 0 0 0 0 0 0 0 0 0 0
0 0 0 0 0 0 0 0 0 0 0 0 0 0 0 0 0 0 0 0 0 0 0 0 0 0 0 0 0 0 0 0 0 0
0 0 0 0 0 0 0 0 0 0 0 0 0 0 0 0 0 0 0 0 0 0 0 0 0 0 0 0 0 0 0 0 0 0
0 0 0 0 0 0 0 0 0 0 0 0 0 0 0 0 0 0 0 0 0 0 0 0 0 0 0 0 0 0 0 0 0 0
0 0 0 0 0 0 0 0 0 0 0 0 0 0 0 0 0 0 0 0 0 0 0 0 0;
#X msg 489 361 0 0 0 0 0 0 0 0 0 0 0 0 0 0 0 0 0 0 0 0 0 0 0 0 0 0
0 0 0 0 0 0 0 0 0 0 0 0 0 0 0 0 0 0 0 0 0 0 0 0 0 0 0 0 0 0 0 0 0 0
0 0 0 0 0 0 0 0 0 0 0 0 0 0 0 0 0 0 0 0 0 0 0 0 0 0 0 0 0 0 0 0 0 0
0 0 0 0 0 0 0 0 0 0 0 0 0 0 0 0 0 0 0 0 0 0 0 0 0 0 0 0 0 0 0 0 0 0
0 0 0 0 0 0 0 0 0 0 0 0 0 0 0 0 0 0 0 0 0 0 0 0 0 0 0 0 0 0 0 0 0 0
0 0 0 0 0 0 0 0 0 0 0 0 0 0 0 0 0 0 0 0 0 0 0 0 0 0 0 0 0 0 0 0 0 0
0 0 0 0 0 0 0 0 0 0 0 0 0 0 0 0 0 0 0 0 0 0 0 0 0 0 0 0 0 0 0 0 0 0
0 0 0 0 0 0 0 0 0 0 0 0 0 0 0 0 0 0 0 0 0 0 0 0 0 0 0 0 0 0 0 0 0 0
0 0 0 0 0 0 0 0 0 0 0 0 0 0 0 0 0 0 0 0 0 0 0 0 0 0 0 0 0 0 0 0 0 0
0 0 0 0 0 0 0 0 0 0 0 0 0 0 0 0 0 0 0 0 0 0 0 0 0 0 0 0 0 0 0 0 0 0
0 0 0 0 0 0 0 0 0 0 0 0 0 0 0 0 0 0 0 0 0 0 0 0 0 0 0 0 0 0 0 0 0 0
0 0 0 0 0 0 0 0 0 0 0 0 0 0 0 0 0 0 0 0 0 0 0 0 0 0 0 0 0 0 0 0 0 0
0 0 0 0 0 0 0 0 0 0 0 0 0 0 0 0 0 0 0 0 0 0 0 0 0 0 0 0 0 0 0 0 0 0
0 0 0 0 0 0 0 0 0 0 0 0 0 0 0 0 0 0 0 0 0 0 0 0 0 0 0 0 0 0 0 0 0 0
0 0 0 0 0 0 0 0 0 0 0 0 0 0 0 0 0 0 0 0 0 0 0 0 0 0 0 0 0 0 0 0 0 0
0 0 0 0 0 0 0 0 0 0;
#X msg 939 361 0 0 0 0 0 0 0 0 0 0 0 0 0 0 0 0 0 0 0 0 0 0 0 0 0 0
0 0 0 0 0 0 0 0 0 0 0 0 0 0 0 0 0 0 0 0 0 0 0 0 0 0 0 0 0 0 0 0 0 0
0 0 0 0 0 0 0 0 0 0 0 0 0 0 0 0 0 0 0 0 0 0 0 0 0 0 0 0 0 0 0 0 0 0
0 0 0 0 0 0 0 0 0 0 0 0 0 0 0 0 0 0 0 0 0 0 0 0 0 0 0 0 0 0 0 0 0 0
0 0 0 0 0 0 0 0 0 0 0 0 0 0 0 0 0 0 0 0 0 0 0 0 0 0 0 0 0 0 0 0 0 0
0 0 0 0 0 0 0 0 0 0 0 0 0 0 0 0 0 0 0 0 0 0 0 0 0 0 0 0 0 0 0 0 0 0
0 0 0 0 0 0 0 0 0 0 0 0 0 0 0 0 0 0 0 0 0 0 0 0 0 0 0 0 0 0 0 0 0 0
0 0 0 0 0 0 0 0 0 0 0 0 0 0 0 0 0 0 0 0 0 0 0 0 0 0 0 0 0 0 0 0 0 0
0 0 0 0 0 0 0 0 0 0 0 0 0 0 0 0 0 0 0 0 0 0 0 0 0 0 0 0 0 0 0 0 0 0
0 0 0 0 0 0 0 0 0 0 0 0 0 0 0 0 0 0 0 0 0 0 0 0 0 0 0 0 0 0 0 0 0 0
0 0 0 0 0 0 0 0 0 0 0 0 0 0 0 0 0 0 0 0 0 0 0 0 0 0 0 0 0 0 0 0 0 0
0 0 0 0 0 0 0 0 0 0 0 0 0 0 0 0 0 0 0 0 0 0 0 0 0 0 0 0 0 0 0 0 0 0
0 0 0 0 0 0 0 0 0 0 0 0 0 0 0 0 0 0 0 0 0 0 0 0 0 0 0 0 0 0 0 0 0 0
0 0 0 0 0 0 0 0 0 0 0 0 0 0 0 0 0 0 0 0 0 0 0 0 0 0 0 0 0 0 0 0 0 0
0 0 0 0 0 0 0 0 0 0 0 0 0 0 0 0 0 0 0 0 0 0 0 0 0 0 0 0 0 0 0 0 0 0
0 0 0 0 0 0 0 0 0 0;
#X obj 681 108 list split 1;
#X obj 681 131 print;
#X obj 99 79 route \$1 \$2 \$3 \$4;
#X connect 6 0 14 0;
#X connect 7 0 19 0;
#X connect 7 1 15 0;
#X connect 8 0 9 0;
#X connect 10 0 11 0;
#X connect 10 1 12 0;
#X connect 11 0 29 0;
#X connect 12 0 26 0;
#X connect 12 1 28 1;
#X connect 15 0 17 0;
#X connect 15 1 56 0;
#X connect 17 0 8 0;
#X connect 18 0 17 1;
#X connect 19 0 6 0;
#X connect 20 0 19 1;
#X connect 21 0 7 0;
#X connect 24 0 25 0;
#X connect 27 0 5 0;
#X connect 28 0 24 0;
#X connect 29 0 28 0;
#X connect 30 0 39 0;
#X connect 30 1 31 0;
#X connect 31 0 32 0;
#X connect 31 1 41 1;
#X connect 33 0 43 0;
#X connect 33 1 34 0;
#X connect 34 0 35 0;
#X connect 34 1 45 1;
#X connect 36 0 47 0;
#X connect 36 1 37 0;
#X connect 37 0 38 0;
#X connect 37 1 49 1;
#X connect 39 0 42 0;
#X connect 40 0 52 0;
#X connect 41 0 40 0;
#X connect 42 0 41 0;
#X connect 43 0 46 0;
#X connect 44 0 53 0;
#X connect 45 0 44 0;
#X connect 46 0 45 0;
#X connect 47 0 50 0;
#X connect 48 0 51 0;
#X connect 49 0 48 0;
#X connect 50 0 49 0;
#X connect 54 0 55 0;
#X connect 56 0 10 0;
#X connect 56 1 30 0;
#X connect 56 2 33 0;
#X connect 56 3 36 0;
