#N canvas 1 52 1665 966 10;
#X obj 301 266 vsl 48 256 0 255 0 0 empty empty \$2 0 10 1 9 -1 -262144
-262144 0 1;
#X obj 324 709 loadbang;
#X obj 300 816 send set_dmx;
#X obj 324 740 \$1;
#X obj 300 792 pack;
#X text 453 139 [faderdmx "adress" "name" "attribute"];
#X text 572 153 attribute [D R G B W];
#X obj 86 1008 send fader_out;
#X text 197 1009 used by colorimeter;
#X obj 301 81 r fader_\$2;
#X obj 86 527 line;
#X obj 301 195 int;
#X obj 169 156 unpack;
#X obj 439 844 pack f f;
#X obj 439 956 send to_cue;
#X obj 12 64 r \$2;
#X obj 350 265 vradio 10 1 0 26 empty empty empty 0 -8 0 10 -260097
-4032 -1 3;
#X obj 342 173 / 1000;
#X obj 342 195 int;
#X obj 416 248 r globaltime;
#X obj 86 985 cyclone/prepend \$3 \$1;
#X obj 439 873 cyclone/prepend \$2;
#X obj 478 899 tgl 15 0 empty toggle_rec_faderdmx-\$0 rec_faderdmx-\$0
17 7 0 10 -257985 -260097 -1 1 1;
#X obj 339 650 tgl 15 1 empty toggle_out_faderdmx-\$0 toggle_out_faderdmx-\$0
17 7 0 10 -260097 -262130 -1 1 1;
#X obj 300 677 spigot;
#X floatatom 301 250 3 0 0 1 Load - -, f 3;
#X floatatom 439 525 3 0 0 1 out - -, f 3;
#X floatatom 300 617 3 0 0 1 IRL - -, f 3;
#X floatatom 300 525 3 0 0 1 t(s) - -, f 3;
#X text 733 139 [faderdmx 512 face1 D];
#X text 124 85 used by CueLoader;
#X obj 86 560 int;
#X obj 780 561 spigot;
#X obj 819 529 tgl 15 1 empty Live_Mode-\$0 Live_Mode-\$0 17 7 0 10
-4032 -1 -1 1 1;
#X msg 98 36 255 3000;
#X msg 99 56 0 4000;
#X obj 86 139 t a a;
#X obj 325 762 - 1;
#X obj 439 925 spigot;
#X obj 313 928 cyclone/prepend;
#X obj 313 896 bng 15 250 50 0 empty Store_fdmx-\$0 Store_fdmx-\$0
17 7 0 10 -258113 -4034 -1;
#X text 522 843 !!!! le changement de time ne fais pas de rec;
#X obj 622 681 pack s f f;
#X obj 622 614 bng 15 250 50 0 empty SET_fader-\$0 SET_fader-\$0 17
7 0 10 -4160 -258113 -1;
#X obj 375 561 int;
#X obj 300 540 bng 15 250 50 0 SET_fader-\$0 SET_fader SET 17 7 0 10
-4160 -258113 -1;
#X obj 300 602 tgl 15 0 toggle_rec_faderdmx-\$0 toggle_rec_faderdmx
REC 17 7 0 10 -257985 -260097 -1 1 1;
#X obj 300 587 tgl 15 0 toggle_out_faderdmx-\$0 toggle_out_faderdmx
OUT 17 7 0 10 -260097 -262130 -1 0 1;
#X obj 300 572 bng 15 250 50 0 Store_fdmx-\$0 Store_fdmx Store 17 7
0 10 -258113 -4034 -1;
#X obj 300 556 tgl 15 0 Live_Mode-\$0 Live_Mode LM 17 7 0 10 -4032
-1 -1 0 1;
#X obj 375 539 * 1000;
#X obj 622 635 symbol \$2;
#X obj 780 741 list;
#X msg 807 690 contre 125 3000;
#X msg 807 650 \; contre 125 3000;
#X obj 86 600 t a a;
#X obj 780 770 send to_control;
#X obj 439 544 t f f f;
#X obj 375 587 t f f;
#X text 383 102 used by;
#X obj 780 617 prepend \$2;
#X obj 12 90 route patch;
#X floatatom 246 716 5 0 0 0 - - -, f 5;
#X obj 900 214 t b f;
#X obj 834 272 +;
#X obj 834 297 t b f;
#X obj 834 328 +;
#X obj 756 191 * -65536;
#X obj 834 192 * -256;
#X obj 900 192 * -1;
#X obj 834 359 - 1;
#X floatatom 1088 164 5 0 0 0 - - -, f 5;
#X obj 973 317 spigot;
#X obj 1012 297 tgl 15 0 empty COLOR_FADER COLOR_FADER 17 7 0 10 -159808
-262144 -1 0 1;
#X msg 834 392 color \$1 16 16;
#X connect 0 0 26 0;
#X connect 1 0 3 0;
#X connect 3 0 37 0;
#X connect 4 0 2 0;
#X connect 9 0 11 0;
#X connect 10 0 31 0;
#X connect 11 0 0 0;
#X connect 12 0 25 0;
#X connect 12 1 17 0;
#X connect 13 0 21 0;
#X connect 15 0 61 0;
#X connect 16 0 28 0;
#X connect 17 0 18 0;
#X connect 18 0 16 0;
#X connect 19 0 16 0;
#X connect 20 0 7 0;
#X connect 21 0 38 0;
#X connect 21 0 39 1;
#X connect 22 0 38 1;
#X connect 23 0 24 1;
#X connect 24 0 4 0;
#X connect 26 0 57 0;
#X connect 27 0 24 0;
#X connect 27 0 13 0;
#X connect 27 0 72 0;
#X connect 28 0 50 0;
#X connect 31 0 55 0;
#X connect 32 0 60 0;
#X connect 33 0 32 1;
#X connect 34 0 36 0;
#X connect 35 0 36 0;
#X connect 36 0 10 0;
#X connect 36 1 12 0;
#X connect 37 0 4 1;
#X connect 38 0 14 0;
#X connect 39 0 14 0;
#X connect 40 0 39 0;
#X connect 42 0 52 0;
#X connect 43 0 51 0;
#X connect 44 0 58 0;
#X connect 50 0 44 0;
#X connect 51 0 42 0;
#X connect 52 0 56 0;
#X connect 53 0 52 0;
#X connect 55 0 20 0;
#X connect 55 1 27 0;
#X connect 57 1 42 1;
#X connect 57 2 32 0;
#X connect 58 0 13 1;
#X connect 58 1 42 2;
#X connect 60 0 52 0;
#X connect 61 0 62 0;
#X connect 61 1 36 0;
#X connect 62 0 3 0;
#X connect 63 0 64 0;
#X connect 63 1 64 1;
#X connect 64 0 65 0;
#X connect 65 0 66 0;
#X connect 65 1 66 1;
#X connect 66 0 70 0;
#X connect 67 0 66 0;
#X connect 68 0 64 0;
#X connect 69 0 63 0;
#X connect 70 0 74 0;
#X connect 71 0 69 0;
#X connect 71 0 68 0;
#X connect 71 0 67 0;
#X connect 72 0 71 0;
#X connect 73 0 72 1;
#X connect 74 0 0 0;
#X coords 0 -1 1 1 60 382 2 300 250;
