#N canvas 1 115 842 429 10;
#X obj 100 160 cnv 15 400 60 empty empty DMX 20 12 0 14 -204786 -4160
0;
#X obj 101 21 r set_dmx;
#X obj 101 130 cyclone/prepend /set_dmx;
#X obj 113 291 spigot;
#X obj 152 269 tgl 15 0 empty DMX-LOCAL_\$0 DMX-LOCAL_\$0 17 7 0 10
-261234 -159808 -1 0 1;
#X obj 299 104 spigot;
#X obj 338 83 tgl 15 0 empty DMX-XBee_\$0 DMX-XBee_\$0 17 7 0 10 -204786
-159808 -1 0 1;
#X obj 113 313 s midi;
#X obj 101 104 spigot;
#X obj 140 83 tgl 15 0 empty DMX-OSC_\$0 DMX-OSC_\$0 17 7 0 10 -204786
-159808 -1 0 1;
#X obj 299 127 send set_DMX;
#X obj 424 185 tgl 15 1 DMX-XBee_\$0 DMX-XBee DMX-XBee 17 7 0 10 -204786
-159808 -1 0 1;
#X obj 424 200 tgl 15 1 DMX-OSC_\$0 DMX-OSC DMX-OSC 17 7 0 10 -204786
-159808 -1 0 1;
#X obj 101 185 OSC/OSCsender 127.0.0.1 8512 DMX-osc;
#X msg 564 71 \; DMX-XBee 0 \; DMX-OSC 1;
#X connect 1 0 5 0;
#X connect 1 0 8 0;
#X connect 2 0 13 0;
#X connect 3 0 7 0;
#X connect 4 0 3 1;
#X connect 5 0 10 0;
#X connect 6 0 5 1;
#X connect 8 0 2 0;
#X connect 9 0 8 1;
#X coords 0 -1 1 1 401 60 1 100 160;
