#N canvas 187 188 1230 768 10;
#X obj 61 39 cnv 15 1000 420 empty empty empty 20 12 0 14 -204786 -66577
0;
#X obj 70 50 faderdmx 1 RED D;
#X obj 542 505 r midi;
#X obj 364 566 route 0 1 2 3 4 5 6 7;
#X msg 542 527 \$2 \$1;
#X obj 364 603 route 16 17 18 19 20 21 22 23;
#X obj 643 521 route 58 59;
#X obj 643 562 route 46 0 13 14 15;
#X obj 642 602 route 44 43 42 41 40;
#X obj 870 512 route 32 33 34 35 36 37 38 39;
#X obj 871 562 route 48 49 50 51 52 53 54 55;
#X obj 873 604 route 64 65 66 67 68 69 70 71;
#X obj 130 50 faderdmx 2 wWHITE D;
#X obj 190 50 faderdmx 3 BLUE D;
#X obj 290 50 faderdmx 4 n-DIM D;
#X obj 350 50 faderdmx 5 n-RED D;
#X obj 410 50 faderdmx 6 n-GREEN D;
#X obj 470 50 faderdmx 7 n-BLUE D;
#X obj 530 50 faderdmx 8 n-cWHITE D;
#X obj 590 50 faderdmx 9 n-COLOR D;
#X obj 650 50 faderdmx 10 n-STROB D;
#X obj 710 50 faderdmx 11 n-MACRO D;
#X obj 770 50 faderdmx 12 n-SPEED D;
#X obj 880 50 faderdmx 16 t-wWHITE D;
#X obj 940 50 faderdmx 17 t-mWHITE D;
#X obj 1000 50 faderdmx 18 t-cWHITE D;
#X connect 2 0 4 0;
#X connect 3 0 1 0;
#X connect 3 0 15 0;
#X connect 3 1 16 0;
#X connect 3 2 13 0;
#X connect 3 2 17 0;
#X connect 3 3 18 0;
#X connect 3 3 25 0;
#X connect 3 4 24 0;
#X connect 3 5 12 0;
#X connect 3 5 23 0;
#X connect 3 6 14 0;
#X connect 3 8 5 0;
#X connect 4 0 3 0;
#X connect 5 0 1 0;
#X connect 5 0 15 0;
#X connect 5 1 16 0;
#X connect 5 2 13 0;
#X connect 5 2 17 0;
#X connect 5 8 6 0;
#X connect 6 2 7 0;
#X connect 7 5 8 0;
#X connect 8 5 9 0;
#X connect 9 8 10 0;
#X connect 10 8 11 0;
#X coords 0 -1 1 1 1000 450 1 60 10;
