#N canvas 72 442 694 585 10;
#N canvas 2 74 1920 1006 nanok 0;
#X obj 301 489 MIDI/MIDI 1;
#X obj 182 101 Art-Net-player_remote 1;
#X obj 263 101 Art-Net-player_remote 2;
#X obj 344 101 Art-Net-player_remote 3;
#X obj 425 101 Art-Net-player_remote 4;
#X obj 506 101 Art-Net-player_remote 5;
#X obj 587 101 Art-Net-player_remote 6;
#X obj 668 101 Art-Net-player_remote 7;
#X obj 797 158 bng 15 250 50 0 empty empty Open_IN_terminal 17 7 0
8 -204786 -1 -1;
#X obj 797 329 ggee/shell;
#X obj 342 551 bng 15 250 50 0 Edit_playlist-\$0 empty Edit_playlist
17 7 0 8 -204786 -1 -1;
#X obj 797 58 bng 15 250 50 0 empty empty raz 17 7 0 10 -191407 -1
-1;
#X obj 797 78 prepend \$0;
#X obj 494 551 hradio 20 1 0 4 select-OUT empty SELECT-output 1 -4
0 8 -204800 -1 -1 0;
#X msg 797 182 lxterminal -e pdreceive 4442;
#X msg 730 632 listen 4444;
#X obj 633 1009 send;
#X msg 670 977 symbol Art-Net-player_remote-\$1;
#X obj 101 519 OpDmx_encoder 1 1 0;
#X obj 797 210 bng 15 250 50 0 empty Edit_playlist-\$0 Edit_playlist-\$0
17 7 0 8 -204786 -1 -1;
#N canvas 251 90 1053 798 PlayList 0;
#X obj 144 113 hradio 15 1 0 40 empty playlist-\$0 playlist 0 -8 0
10 -262144 -1 -1 2;
#X obj 8 7 r MIDI_loc;
#X msg 246 30 inc;
#X msg 273 30 dec;
#X obj 102 109 bng 18 250 50 0 empty empty + 5 10 0 15 -1 -1 -232576
;
#X obj 121 109 bng 18 250 50 0 empty empty _ 5 3 0 15 -1 -1 -232576
;
#X obj 331 46 counter 0 32765;
#X floatatom 331 69 5 0 0 0 - - -;
#X obj 8 31 route 58 59;
#X obj 8 73 select 127;
#X obj 39 53 select 127;
#X obj 149 209 s Art-Net-player_remote;
#X obj 149 173 prepend playlist;
#X connect 0 0 12 0;
#X connect 1 0 8 0;
#X connect 2 0 6 0;
#X connect 3 0 6 0;
#X connect 4 0 2 0;
#X connect 5 0 3 0;
#X connect 6 0 7 0;
#X connect 7 0 0 0;
#X connect 8 0 9 0;
#X connect 8 1 10 0;
#X connect 9 0 5 0;
#X connect 10 0 4 0;
#X connect 12 0 11 0;
#X coords 0 -1 1 1 649 30 2 100 100;
#X restore 100 450 pd PlayList;
#X obj 931 499 cnv 15 100 120 empty empty empty 20 12 0 14 -261234
-66577 0;
#X obj 942 513 ctlin;
#X obj 982 513 notein;
#X obj 982 566 pack;
#X obj 942 536 pack;
#X msg 942 559 \$2 \$1;
#X obj 942 595 s MIDI_loc;
#X obj 101 101 Art-Net-player_remote 0;
#X obj 633 917 list split 1;
#X obj 633 940 t b f;
#X obj 633 977 list;
#X symbolatom 116 306 10 0 0 0 _0 Art-Net-player_remote-playlist-0
-;
#X symbolatom 116 323 10 0 0 0 _1 Art-Net-player_remote-playlist-1
-;
#X symbolatom 116 340 10 0 0 0 _2 Art-Net-player_remote-playlist-2
-;
#X symbolatom 116 357 10 0 0 0 _3 Art-Net-player_remote-playlist-3
-;
#X symbolatom 116 374 10 0 0 0 _4 Art-Net-player_remote-playlist-4
-;
#X symbolatom 116 391 10 0 0 0 _5 Art-Net-player_remote-playlist-5
-;
#X symbolatom 116 408 10 0 0 0 _6 Art-Net-player_remote-playlist-6
-;
#X symbolatom 116 425 10 0 0 0 _7 Art-Net-player_remote-playlist-7
-;
#X symbolatom 178 306 80 0 0 1 _0 Art-Net-player_remote-track-0 -;
#X symbolatom 178 323 80 0 0 1 _1 Art-Net-player_remote-track-1 -;
#X symbolatom 178 340 80 0 0 1 _2 Art-Net-player_remote-track-2 -;
#X symbolatom 178 357 80 0 0 1 _3 Art-Net-player_remote-track-3 -;
#X symbolatom 178 374 80 0 0 1 _4 Art-Net-player_remote-track-4 -;
#X symbolatom 178 391 80 0 0 1 _5 Art-Net-player_remote-track-5 -;
#X symbolatom 178 408 80 0 0 1 _6 Art-Net-player_remote-track-6 -;
#X symbolatom 178 425 80 0 0 1 _7 Art-Net-player_remote-track-7 -;
#X obj 612 671 route 2 3 4;
#X obj 654 743 list split 1;
#X obj 654 766 t b f;
#X obj 654 807 list;
#X obj 654 718 t a a;
#X msg 779 856 click;
#X msg 713 790 0 \, 1 \, 2 \, 3 \, 4 \, 5 \, 6 \, 7;
#X obj 713 813 t f f;
#X obj 713 770 bng 15 250 50 1 empty raz-init-onstage-\$0 raz-init-onstage-\$0
17 7 0 10 -4034 -1 -1;
#X obj 779 835 bng 15 250 50 0 empty open-onstage-\$0 open-onstage-\$0
17 7 0 10 -4034 -1 -1;
#X obj 687 318 bng 15 250 50 0 open-onstage-\$0 empty Open 17 7 0 10
-4034 -1 -1;
#X obj 687 333 bng 15 250 50 1 raz-init-onstage-\$0 empty Clear 17
7 0 10 -4034 -1 -1;
#X obj 654 841 text set onstage-\$0;
#X obj 655 872 text define onstage-\$0;
#X msg 1095 393 0 255 0 2 0 0 0 0 0 0 0 0 0 0 0 0 0 0 0 0 1 102 0 2
0 0 0 0 0 0 0 0 0 0 0 0 0 0 0 0 2 153 0 2 126 0 0 0 0 0 0 0 0 0 0 0
0 0 0 0 3 102 0 2 104 0 0 0 0 0 0 0 0 0 0 0 0 0 0 0 4 51 0 2 0 0 0
0 0 0 0 0 0 0 0 0 0 0 0 0 5 0 0 2 0 0 0 0 0 0 0 0 0 0 0 0 0 0 0 0 6
255 0 2 0 0 0 0 0 0 0 0 0 0 0 0 0 0 0 0 7 102 0 2 0 0 0 0 0 0 0 0 0
0 0 0 110 0 104 0 0 0 0 0 0 0 0 0 0 0 0 0 0 0 0 0 0 0 0 0 0 0 0 0 0
0 0 0 0 0 0 0 0 0 0 0 0 0 0 0 0 0 0 0 0 0 0 0 0 0 0 0 0 0 0 0 0 0 0
0 0 0 0 0 0 0 0 0 0 0 0 0 0 0 0 0 0 0 0 0 0 0 0 0 0 0 0 0 0 0 0 0 0
0 0 0 0 0 0 0 0 0 0 0 0 0 0 0 0 0 0 0 0 0 0 0 0 0 0 0 0 0 0 0 0 0 0
0 0 0 0 0 0 0 0 0 0 0 0 0 0 0 0 0 0 0 0 0 0 0 0 0 0 0 0 0 0 0 0 0 0
0 0 0 0 0 0 0 0 0 0 0 0 0 0 0 0 0 0 0 0 0 0 0 0 0 0 0 0 0 0 0 0 0 0
0 0 0 0 0 0 0 0 0 0 0 0 0 0 0 0 0 0 0 0 0 0 0 0 0 0 0 0 0 0 0 0 0 0
0 0 0 0 0 0 0 0 0 0 0 0 0 0 0 0 0 0 0 0 0 0 0 0 0 0 0 0 0 0 0 0 0 0
0 0 0 0 0 0 0 0 0 0 0 0 0 0 0 0 0 0 0 0 0 0 0 0 0 0 0 0 0 0 0 0 0 0
0 0 0 0 0 0 0 0 0 0 0 0 0 0 0 0 0 0 0 0 0 0 0 0 0 0 0 0 0 0 0 0 0 0
0 0 0 0 0 0 0 0 0 0 0 0 0 0 0 0 0 0 0 0 0, f 42;
#X obj 102 675 prepend set;
#X msg 102 713 0 0 0 12 0 0 0 0 0 0 0 0 0 0 0 0 232 0 0 0 1 0 0 4 0
0 0 0 0 0 0 0 0 0 0 0 194 0 0 0 2 5 0 4 126 0 0 0 0 0 0 0 0 0 0 0 122
0 0 0 3 0 0 4 104 0 0 0 0 0 0 0 0 0 0 0 204 0 0 0 4 0 0 4 0 0 0 0 0
0 0 0 0 0 0 0 102 0 0 0 5 0 0 4 0 0 0 0 0 0 0 0 0 0 0 0 232 0 0 0 6
0 0 4 0 0 0 0 0 0 0 0 0 0 0 0 196 0 0 0 7 5 0 4 0 0 0 0 0 0 0 0 0 0
0 0 0 0 0 0, f 34;
#N canvas 0 50 666 548 SpeedLim_head 0;
#X obj 101 101 cnv 15 198 28 empty empty empty 20 12 0 14 -233017 -66577
0;
#X obj 118 113 hradio 15 1 0 11 empty SpeedLim SpeedLim=20msec 0 -6
0 10 -204800 -1 -1 2;
#X obj 118 200 t f f;
#X obj 118 170 * 10;
#X obj 145 231 route 0;
#X obj 102 113 bng 15 50 10 0 empty outout empty 17 7 0 10 -1 -4032
-1;
#X obj 102 398 speedlim;
#X obj 283 113 bng 15 50 10 0 empty empty empty 17 7 0 10 -1 -4032
-1;
#X msg 184 262 \; SpeedLim label SpeedLim=\$1msec;
#X msg 145 298 \; SpeedLim label SpeedLim-OFF;
#X obj 227 602 outlet;
#X obj 227 564 list store;
#X obj 227 408 r Art-Net-player_remote-out;
#X msg 323 498 7 \, 6 \, 5 \, 4 \, 3 \, 2 \, 1 \, 0;
#X obj 410 580 list length;
#X msg 323 520 \; Art-Net-player_remote-\$1 out bang;
#X obj 410 603 outlet;
#X text 308 561 list_builder;
#X obj 284 466 t b b b b b;
#X connect 1 0 3 0;
#X connect 2 0 6 1;
#X connect 2 1 4 0;
#X connect 3 0 2 0;
#X connect 4 0 9 0;
#X connect 4 1 8 0;
#X connect 5 0 6 0;
#X connect 6 0 7 0;
#X connect 7 0 18 0;
#X connect 11 0 14 0;
#X connect 11 0 10 0;
#X connect 12 0 11 0;
#X connect 13 0 15 0;
#X connect 14 0 16 0;
#X connect 18 0 11 1;
#X connect 18 3 11 0;
#X connect 18 4 13 0;
#X coords 0 -1 1 1 200 30 1 100 100;
#X restore 101 489 pd SpeedLim_head;
#X msg 797 105 \; playlist-\$1 label playlist \; SpeedLim label SpeedLim
;
#X obj 102 645 spigot;
#X obj 149 633 tgl 15 0 empty empty empty 17 7 0 10 -262144 -1 -1 0
1;
#X msg 1377 575 0 255 0 5 0 0 0 0 0 0 0 0 0 0 0 0 232 0 0 0 1 102 0
3 0 0 0 0 0 0 0 0 0 0 0 0 194 0 0 0 2 153 0 3 126 0 0 0 0 0 0 0 0 0
0 0 122 0 0 0 3 102 0 1 104 0 0 0 0 0 0 0 0 0 0 0 204 0 0 0 4 51 0
2 0 0 0 0 0 0 0 0 0 0 0 0 102 0 0 0 5 0 0 3 0 0 0 0 0 0 0 0 0 0 0 0
232 0 0 0 6 255 0 3 0 0 0 0 0 0 0 0 0 0 0 0 196 0 0 0 7 102 0 3 0 0
0 0 0 0 0 0 0 0 0 0 0 0 0 0, f 34;
#X obj 488 765 print lost_feedback;
#X msg 740 602 listen 0;
#X obj 612 648 netreceive -u 4444;
#X obj 797 240 list;
#X obj 915 224 r OpDmx_encoder_IP_cible connect;
#X msg 797 274 lxterminal -e ssh -X pi@\$2.\$3.\$4.\$5 pd /home/pi/StuART/player_Stereo/Art-Net-player_playlist_header.pd
;
#X floatatom 318 577 5 0 0 0 - - -;
#X connect 8 0 14 0;
#X connect 11 0 12 0;
#X connect 12 0 66 0;
#X connect 15 0 72 0;
#X connect 17 0 16 1;
#X connect 19 0 73 0;
#X connect 22 0 25 0;
#X connect 22 1 25 1;
#X connect 23 0 24 0;
#X connect 23 1 24 1;
#X connect 24 0 27 0;
#X connect 25 0 26 0;
#X connect 26 0 27 0;
#X connect 29 0 30 0;
#X connect 29 1 31 1;
#X connect 30 0 31 0;
#X connect 30 1 17 0;
#X connect 31 0 16 0;
#X connect 48 0 70 0;
#X connect 48 1 29 0;
#X connect 48 1 70 0;
#X connect 48 2 52 0;
#X connect 48 2 70 0;
#X connect 48 3 70 0;
#X connect 49 0 50 0;
#X connect 50 0 51 0;
#X connect 50 1 60 1;
#X connect 51 0 60 0;
#X connect 52 0 49 0;
#X connect 52 1 51 1;
#X connect 53 0 61 0;
#X connect 54 0 55 0;
#X connect 55 0 60 0;
#X connect 55 1 60 1;
#X connect 56 0 54 0;
#X connect 57 0 53 0;
#X connect 62 0 18 0;
#X connect 63 0 64 0;
#X connect 65 0 18 0;
#X connect 65 0 67 0;
#X connect 65 1 76 0;
#X connect 67 0 63 0;
#X connect 68 0 67 1;
#X connect 69 0 18 0;
#X connect 71 0 72 0;
#X connect 72 0 48 0;
#X connect 73 0 75 0;
#X connect 74 0 73 1;
#X connect 75 0 9 0;
#X coords 0 -1 1 1 649 500 1 100 100;
#X restore 3 24 pd nanok;
#N canvas 927 133 593 492 local_init_patch 0;
#X obj 75 66 text define -k Hex2Dec_table;
#A set 0 0 48 0 0 0 0 \; 1 1 49 1 0 0 0 \; 2 2 50 0 1 0 0 \; 3 3 51
1 1 0 0 \; 4 4 52 0 0 1 0 \; 5 5 53 1 0 1 0 \; 6 6 54 0 1 1 0 \; 7
7 55 1 1 1 0 \; 8 8 56 0 0 0 1 \; 9 9 57 1 0 0 1 \; 10 A 65 0 1 0 1
\; 11 B 66 1 1 0 1 \; 12 C 67 0 0 1 1 \; 13 D 68 1 0 1 1 \; 14 E 69
0 1 1 1 \; 15 F 70 1 1 1 1 \;;
#X msg 75 41 read /home/pi/StuART/convert/Hex2Dec_table;
#X obj 75 91 text define -k VECTOR_ROOT;
#A set 4 VECTOR_ROOT_E131_DATA 0x00000004 DATA \; 8 VECTOR_ROOT_E131_EXTENDED
0x00000008 EXTENDED \;;
#X connect 1 0 0 0;
#X restore 3 5 pd local_init_patch;
#X obj 4 536 CONFIGURE-local Art-Net_x8_remote_nanokorg;
