#N canvas 77 93 1542 941 10;
#X obj 101 101 cnv 15 598 48 empty Art-Net-player-20ch-4audio-st-\$0
Art-Net-player-20ch-4audio-st 2 8 0 14 -166441 -1 0;
#X obj 993 336 *~;
#X obj 1031 396 *~;
#X obj 1240 283 readsf~ 2;
#X obj 1008 85 f;
#X floatatom 432 101 4 0 0 0 LVL - -;
#X obj 715 -21 list split 4;
#X obj 715 23 unpack f f f f;
#N canvas 299 148 605 553 play_mode 0;
#X obj 106 119 tgl 15 0 play-\$0 empty play-\$0 17 7 0 10 -262144 -1
-1 0 1;
#X obj 106 179 tgl 15 0 stop-\$0 empty stop-\$0 17 7 0 10 -262144 -1
-1 0 1;
#X obj 106 164 tgl 15 0 loop-\$0 empty loop-\$0 17 7 0 10 -262144 -1
-1 0 1;
#X floatatom 74 1 5 0 255 1 play_mode[0-255] - -;
#X obj 261 -4 inlet;
#X obj 261 16 change -1;
#X obj 106 134 tgl 15 0 auto-\$0 empty auto-\$0 17 7 0 10 -262144 -1
-1 0 1;
#X obj 106 149 tgl 15 0 auto-loop-\$0 empty auto-loop-\$0 17 7 0 10
-262144 -1 -1 0 1;
#X obj 9 236 tgl 15 0 empty play-\$0 play-\$0 17 7 0 10 -262144 -1
-1 0 1;
#X obj 9 296 tgl 15 0 empty stop-\$0 stop-\$0 17 7 0 10 -262144 -1
-1 0 1;
#X obj 9 281 tgl 15 0 empty loop-\$0 loop-\$0 17 7 0 10 -262144 -1
-1 0 1;
#X obj 172 382 outlet;
#X obj 172 249 select 1;
#X obj 9 355 spigot;
#X obj 42 334 tgl 15 0 empty empty empty 17 7 0 10 -262144 -1 -1 0
1;
#X obj 9 378 print play_mode;
#X obj 9 251 tgl 15 0 empty auto-\$0 auto-\$0 17 7 0 10 -262144 -1
-1 0 1;
#X msg 172 350 set -1;
#X obj 9 266 tgl 15 0 empty auto-loop-\$0 auto-loop-\$0 17 7 0 10 -262144
-1 -1 0 1;
#X obj 261 43 moses 51;
#X obj 306 66 moses 102;
#X obj 357 89 moses 153;
#X obj 408 111 moses 204;
#X obj 261 198 unpack f f f f f f;
#X msg 261 102 1 0 0 0 0 13;
#X msg 459 182 0 0 0 0 1 16;
#X msg 357 142 0 0 1 1 0 48;
#X obj 366 260 s color-\$0;
#X msg 408 162 0 0 0 1 0 45;
#X msg 306 122 0 1 0 0 0 17;
#X obj 194 184 bng 15 250 50 0 empty empty empty 17 7 0 10 -204800
-1 -1;
#X obj 430 261 bng 15 250 50 0 empty empty empty 17 7 0 10 -204800
-1 -1;
#X connect 3 0 5 0;
#X connect 4 0 5 0;
#X connect 5 0 19 0;
#X connect 8 0 13 0;
#X connect 8 0 12 0;
#X connect 9 0 13 0;
#X connect 10 0 13 0;
#X connect 12 0 17 0;
#X connect 13 0 15 0;
#X connect 14 0 13 1;
#X connect 16 0 13 0;
#X connect 17 0 11 0;
#X connect 19 0 24 0;
#X connect 19 1 20 0;
#X connect 20 0 29 0;
#X connect 20 1 21 0;
#X connect 21 0 26 0;
#X connect 21 1 22 0;
#X connect 22 0 28 0;
#X connect 22 1 25 0;
#X connect 23 0 1 0;
#X connect 23 1 2 0;
#X connect 23 2 7 0;
#X connect 23 3 6 0;
#X connect 23 4 0 0;
#X connect 23 5 27 0;
#X connect 24 0 23 0;
#X connect 25 0 23 0;
#X connect 26 0 23 0;
#X connect 28 0 23 0;
#X connect 29 0 23 0;
#X coords 0 -1 1 1 110 100 1 100 100;
#X restore 742 253 pd play_mode;
#X obj 860 253 tgl 15 0 empty stop-\$0 stop-\$0 17 7 0 10 -262144 -1
-1 0 1;
#X msg 1240 216 0;
#N canvas 0 230 378 323 level_time_2x16b 0;
#X obj 82 51 inlet;
#X obj 82 225 line;
#X obj 82 199 pack;
#X obj 82 248 / 65535;
#X obj 82 138 * 256;
#X obj 82 169 +;
#X obj 172 138 * 256;
#X obj 172 169 +;
#X obj 82 89 unpack f f f f;
#X obj 82 115 change;
#X obj 122 115 change;
#X obj 172 115 change;
#X obj 212 115 change;
#X obj 122 138 t b f;
#X obj 212 138 t b f;
#X obj 82 271 outlet;
#X connect 0 0 8 0;
#X connect 1 0 3 0;
#X connect 2 0 1 0;
#X connect 3 0 15 0;
#X connect 4 0 5 0;
#X connect 5 0 2 0;
#X connect 6 0 7 0;
#X connect 7 0 2 1;
#X connect 8 0 9 0;
#X connect 8 1 10 0;
#X connect 8 2 11 0;
#X connect 8 3 12 0;
#X connect 9 0 4 0;
#X connect 10 0 13 0;
#X connect 11 0 6 0;
#X connect 12 0 14 0;
#X connect 13 0 5 0;
#X connect 13 1 5 1;
#X connect 14 0 7 0;
#X connect 14 1 7 1;
#X restore 1008 21 pd level_time_2x16b;
#X obj 1008 -5 list split 4;
#X symbolatom 637 101 10 0 0 0 TRACKS-list- TRACKS-list-#0 -;
#X obj 715 -80 inlet;
#X obj 1034 85 f;
#X floatatom 458 101 4 0 0 0 - - -;
#N canvas 0 140 378 323 level_time_2x16b 0;
#X obj 82 51 inlet;
#X obj 82 225 line;
#X obj 82 199 pack;
#X obj 82 248 / 65535;
#X obj 82 138 * 256;
#X obj 82 169 +;
#X obj 172 138 * 256;
#X obj 172 169 +;
#X obj 82 89 unpack f f f f;
#X obj 82 115 change;
#X obj 122 115 change;
#X obj 172 115 change;
#X obj 212 115 change;
#X obj 122 138 t b f;
#X obj 212 138 t b f;
#X obj 82 271 outlet;
#X connect 0 0 8 0;
#X connect 1 0 3 0;
#X connect 2 0 1 0;
#X connect 3 0 15 0;
#X connect 4 0 5 0;
#X connect 5 0 2 0;
#X connect 6 0 7 0;
#X connect 7 0 2 1;
#X connect 8 0 9 0;
#X connect 8 1 10 0;
#X connect 8 2 11 0;
#X connect 8 3 12 0;
#X connect 9 0 4 0;
#X connect 10 0 13 0;
#X connect 11 0 6 0;
#X connect 12 0 14 0;
#X connect 13 0 5 0;
#X connect 13 1 5 1;
#X connect 14 0 7 0;
#X connect 14 1 7 1;
#X restore 1128 37 pd level_time_2x16b;
#X obj 1128 11 list split 4;
#X obj 1060 85 f;
#X floatatom 484 101 4 0 0 0 - - -;
#N canvas 0 140 378 323 level_time_2x16b 0;
#X obj 82 51 inlet;
#X obj 82 225 line;
#X obj 82 199 pack;
#X obj 82 248 / 65535;
#X obj 82 138 * 256;
#X obj 82 169 +;
#X obj 172 138 * 256;
#X obj 172 169 +;
#X obj 82 89 unpack f f f f;
#X obj 82 115 change;
#X obj 122 115 change;
#X obj 172 115 change;
#X obj 212 115 change;
#X obj 122 138 t b f;
#X obj 212 138 t b f;
#X obj 82 271 outlet;
#X connect 0 0 8 0;
#X connect 1 0 3 0;
#X connect 2 0 1 0;
#X connect 3 0 15 0;
#X connect 4 0 5 0;
#X connect 5 0 2 0;
#X connect 6 0 7 0;
#X connect 7 0 2 1;
#X connect 8 0 9 0;
#X connect 8 1 10 0;
#X connect 8 2 11 0;
#X connect 8 3 12 0;
#X connect 9 0 4 0;
#X connect 10 0 13 0;
#X connect 11 0 6 0;
#X connect 12 0 14 0;
#X connect 13 0 5 0;
#X connect 13 1 5 1;
#X connect 14 0 7 0;
#X connect 14 1 7 1;
#X restore 1248 53 pd level_time_2x16b;
#X obj 1248 27 list split 4;
#X obj 1063 336 *~;
#X obj 1101 396 *~;
#X obj 1133 336 *~;
#X obj 1171 396 *~;
#X obj 1203 336 *~;
#X obj 1241 396 *~;
#X obj 1086 85 f;
#X floatatom 510 101 4 0 0 0 - - -;
#N canvas 0 140 378 323 level_time_2x16b 0;
#X obj 82 51 inlet;
#X obj 82 225 line;
#X obj 82 199 pack;
#X obj 82 248 / 65535;
#X obj 82 138 * 256;
#X obj 82 169 +;
#X obj 172 138 * 256;
#X obj 172 169 +;
#X obj 82 89 unpack f f f f;
#X obj 82 115 change;
#X obj 122 115 change;
#X obj 172 115 change;
#X obj 212 115 change;
#X obj 122 138 t b f;
#X obj 212 138 t b f;
#X obj 82 271 outlet;
#X connect 0 0 8 0;
#X connect 1 0 3 0;
#X connect 2 0 1 0;
#X connect 3 0 15 0;
#X connect 4 0 5 0;
#X connect 5 0 2 0;
#X connect 6 0 7 0;
#X connect 7 0 2 1;
#X connect 8 0 9 0;
#X connect 8 1 10 0;
#X connect 8 2 11 0;
#X connect 8 3 12 0;
#X connect 9 0 4 0;
#X connect 10 0 13 0;
#X connect 11 0 6 0;
#X connect 12 0 14 0;
#X connect 13 0 5 0;
#X connect 13 1 5 1;
#X connect 14 0 7 0;
#X connect 14 1 7 1;
#X restore 1368 69 pd level_time_2x16b;
#X obj 1368 43 list split 4;
#X obj 993 559 throw~ L-1;
#X obj 1032 539 throw~ R-1;
#X obj 1063 519 throw~ L-2;
#X obj 1102 499 throw~ R-2;
#X obj 1133 479 throw~ L-3;
#X obj 1172 459 throw~ R-3;
#X obj 1203 439 throw~ L-4;
#X obj 1242 419 throw~ R-4;
#X obj 860 286 select 1;
#X obj 104 705 s to-netsend-Art-Net-player;
#X obj 100 -37 bng 15 250 50 0 empty empty raz 17 7 0 10 -262144 -1
-1;
#X obj 100 -17 prepend \$0;
#X msg 100 7 \; Art-Net-player-20ch-4audio-st-\$1 label Art-Net-player-20ch-4audio-st
\; Art-Net-player-20ch-4audio-st-\$1 color 1 0 22;
#X obj 146 447 prepend \$0;
#X msg 119 382 13;
#X obj 1404 157 t b b;
#X msg 146 470 \; Art-Net-player-20ch-4audio-st-\$1 color 1 0 \$2;
#X obj 104 547 list append;
#X obj 409 -50 loadbang;
#X obj 409 -27 \$1;
#X obj 409 -1 prepend \$0;
#X msg 409 23 \; Art-Net-player-20ch-4audio-st-\$1 label Art-Net-player-\$2-20ch-4audio-st
;
#X obj 104 610 list prepend;
#X obj 104 655 list prepend;
#X obj 104 489 f;
#X symbolatom 217 129 80 0 0 0 On-Stage-#0 On-Stage-#0 -;
#X obj 860 334 s STOP-\$0;
#X obj 1240 171 r STOP-\$0;
#X obj 119 414 t f f;
#X obj 1404 231 s END-\$0;
#X obj 104 355 t b b;
#X symbolatom 217 114 80 0 0 0 select-#0 select-#0 -;
#X obj 1274 191 r OPEN-\$0;
#X msg 1274 216 open \$1 \, 1;
#N canvas 386 371 649 478 PLAYLISTER 0;
#X obj 49 8 inlet;
#X obj 109 8 inlet;
#X obj 49 57 * 256;
#X obj 49 83 +;
#X obj 109 57 t b f;
#X symbolatom 101 125 10 0 0 1 #SHOW_from_SHOW_master SHOW -;
#X msg 189 359 set /home/pi/StuART/PLAYLIST/TRACKS-list-\$1-%i;
#X obj 49 375 makefilename;
#X obj 49 39 change -1;
#X obj 109 39 change -1;
#X msg 216 235 set \, add2 \$1 \, adddollar 1;
#X msg 68 251 SHO \$1;
#X obj 68 274 list;
#X obj 68 324 s TRACKS-list-\$0;
#X msg 68 294 symbol \$1-\$2;
#X text 187 325 TRACKS-list-\$0 pour affichage et feedback;
#X text 166 457 playlist-\$0 chemin absolu;
#X obj 76 457 s playlist-\$0;
#X obj 49 427 t a a;
#X obj 49 480 outlet;
#X text 168 21 16b in playlist number;
#X obj 49 106 t f f f;
#X floatatom 101 142 5 0 0 1 playlist-#0 - -;
#X obj 189 208 t a a;
#X obj 284 101 bng 15 250 50 0 empty empty empty 17 7 0 10 -257985
-1 -1;
#X obj 169 325 bng 15 250 50 0 empty empty empty 17 7 0 10 -257985
-1 -1;
#X connect 0 0 8 0;
#X connect 1 0 9 0;
#X connect 2 0 3 0;
#X connect 3 0 21 0;
#X connect 4 0 3 0;
#X connect 4 1 3 1;
#X connect 5 0 23 0;
#X connect 6 0 7 0;
#X connect 7 0 18 0;
#X connect 8 0 2 0;
#X connect 9 0 4 0;
#X connect 10 0 11 0;
#X connect 11 0 12 0;
#X connect 12 0 14 0;
#X connect 14 0 13 0;
#X connect 18 0 19 0;
#X connect 18 1 17 0;
#X connect 21 0 7 0;
#X connect 21 1 11 0;
#X connect 21 2 22 0;
#X connect 23 0 6 0;
#X connect 23 1 10 0;
#X coords 0 -1 1 1 200 60 1 100 100;
#X restore 769 171 pd PLAYLISTER;
#N canvas 108 343 756 709 find_track 0;
#X obj 116 5 inlet;
#X obj 272 131 prepend read;
#X obj 272 159 text define TRACKS-\$0;
#X obj 245 271 text get TRACKS-\$0;
#X obj 245 236 int;
#X obj 245 106 t b a;
#X obj 245 311 route symbol;
#X msg 341 453 symbol No-File;
#X obj 245 14 inlet;
#X obj 245 616 outlet;
#X text 285 14 playlist-\$0;
#X floatatom 101 122 5 0 0 0 - - -;
#X obj 116 28 change -1;
#X obj 543 432 f;
#X obj 116 66 t b a a a;
#X obj 543 455 + 1;
#X obj 410 616 outlet;
#X msg 410 592 1;
#X obj 370 562 spigot;
#X obj 418 549 tgl 15 0 empty auto-\$0 auto-\$0 17 7 0 10 -262144 -1
-1 0 1;
#X msg 558 414 -1;
#X obj 314 373 spigot;
#X obj 362 360 tgl 15 0 empty auto-loop-\$0 auto-loop-\$0 17 7 0 10
-262144 -1 -1 0 1;
#X obj 543 83 spigot;
#X obj 576 65 tgl 15 0 empty auto-\$0 auto-\$0 17 7 0 10 -262144 -1
-1 0 1;
#X obj 516 20 r END-\$0;
#X obj 531 389 t b b;
#X obj 516 125 spigot;
#X obj 549 108 tgl 15 0 empty loop-\$0 loop-\$0 17 7 0 10 -262144 -1
-1 0 1;
#X obj 516 43 t b b;
#X obj 494 549 tgl 15 0 empty loop-\$0 loop-\$0 17 7 0 10 -262144 -1
-1 0 1;
#X obj 450 562 spigot;
#X obj 245 453 t a a b b;
#X obj 262 563 s select-\$0;
#X obj 314 338 t b b;
#X obj 169 124 bng 15 250 50 0 empty empty empty 17 7 0 10 -204786
-1 -1;
#X obj 332 565 bng 15 250 50 0 empty empty empty 17 7 0 10 -204786
-1 -1;
#X obj 569 21 bng 15 250 50 0 empty empty empty 17 7 0 10 -4032 -1
-1;
#X obj 169 101 bng 15 250 50 0 empty empty empty 17 7 0 10 -4032 -1
-1;
#X connect 0 0 12 0;
#X connect 1 0 2 0;
#X connect 3 0 6 0;
#X connect 4 0 3 0;
#X connect 5 0 4 0;
#X connect 5 1 1 0;
#X connect 6 0 32 0;
#X connect 6 1 34 0;
#X connect 7 0 33 0;
#X connect 8 0 5 0;
#X connect 11 0 14 0;
#X connect 12 0 11 0;
#X connect 13 0 15 0;
#X connect 14 0 4 0;
#X connect 14 1 4 1;
#X connect 14 2 13 1;
#X connect 15 0 14 0;
#X connect 17 0 16 0;
#X connect 18 0 17 0;
#X connect 19 0 18 1;
#X connect 20 0 13 1;
#X connect 21 0 26 0;
#X connect 22 0 21 1;
#X connect 23 0 13 0;
#X connect 24 0 23 1;
#X connect 25 0 29 0;
#X connect 26 0 13 0;
#X connect 26 1 20 0;
#X connect 27 0 4 0;
#X connect 28 0 27 1;
#X connect 29 0 27 0;
#X connect 29 1 23 0;
#X connect 30 0 31 1;
#X connect 31 0 17 0;
#X connect 32 0 9 0;
#X connect 32 1 33 0;
#X connect 32 2 18 0;
#X connect 32 3 31 0;
#X connect 34 0 21 0;
#X connect 34 1 7 0;
#X coords 0 -1 1 1 85 40 1 100 100;
#X restore 715 369 pd find_track;
#X obj 715 434 spigot;
#X obj 793 421 tgl 15 0 empty play-\$0 play-\$0 17 7 0 10 -262144 -1
-1 0 1;
#X obj 715 590 symbol;
#X obj 749 549 s On-Stage-\$0;
#X obj 715 611 s OPEN-\$0;
#X obj 766 527 print OPEN-\$0;
#X msg 732 569 0;
#X obj 332 229 r color-\$0;
#X obj 213 398 f;
#X obj 104 229 r STOP-\$0;
#X obj 1431 181 s STOP-\$0;
#X obj 715 -57 t a a;
#X obj 1303 -41 s trame-\$0;
#X obj 167 524 r trame-\$0;
#X obj 186 229 r select-\$0;
#X obj 173 634 r TRACKS-list-\$0;
#X obj 104 678 list prepend 3 \$1;
#X obj 186 252 t b a;
#X symbolatom 196 179 80 0 0 0 playlist-#0 playlist-#0 -;
#X obj 186 308 t b b;
#X obj 101 130 bng 15 250 50 0 empty empty empty 17 7 0 10 -162280
-1 -1;
#X obj 332 292 route 13 16;
#X obj 332 252 t f f;
#X obj 1367 -40 bng 15 250 50 0 empty empty empty 17 7 0 10 -232576
-1 -1;
#X obj 231 525 bng 15 250 50 0 empty empty empty 17 7 0 10 -232576
-1 -1;
#X obj 257 230 bng 15 250 50 0 empty empty empty 17 7 0 10 -204786
-1 -1;
#X obj 397 230 bng 15 250 50 0 empty empty empty 17 7 0 10 -204800
-1 -1;
#X obj 1490 182 bng 15 250 50 0 empty empty empty 17 7 0 10 -260097
-1 -1;
#X obj 1299 172 bng 15 250 50 0 empty empty empty 17 7 0 10 -260097
-1 -1;
#X obj 919 335 bng 15 250 50 0 empty empty empty 17 7 0 10 -260097
-1 -1;
#X obj 162 231 bng 15 250 50 0 empty empty empty 17 7 0 10 -260097
-1 -1;
#X obj 274 635 bng 15 250 50 0 empty empty empty 17 7 0 10 -257985
-1 -1;
#X obj 700 102 bng 15 250 50 0 empty empty empty 17 7 0 10 -257985
-1 -1;
#X obj 1457 232 bng 15 250 50 0 empty empty empty 17 7 0 10 -4032 -1
-1;
#X obj 774 613 bng 15 250 50 0 empty empty empty 17 7 0 10 -159808
-1 -1;
#X obj 1333 193 bng 15 250 50 0 empty empty empty 17 7 0 10 -159808
-1 -1;
#X obj 715 457 t a b a a;
#X obj 349 589 r On-Stage-\$0;
#X obj 349 672 prepend 4 \$1;
#X obj 349 650 list prepend;
#X connect 1 0 33 0;
#X connect 2 0 34 0;
#X connect 3 0 1 0;
#X connect 3 0 23 0;
#X connect 3 0 27 0;
#X connect 3 0 25 0;
#X connect 3 1 2 0;
#X connect 3 1 24 0;
#X connect 3 1 28 0;
#X connect 3 1 26 0;
#X connect 3 2 48 0;
#X connect 4 0 2 1;
#X connect 4 0 1 1;
#X connect 4 0 5 0;
#X connect 6 0 7 0;
#X connect 6 1 12 0;
#X connect 7 0 68 0;
#X connect 7 1 8 0;
#X connect 7 2 67 0;
#X connect 7 3 67 1;
#X connect 8 0 68 0;
#X connect 9 0 41 0;
#X connect 10 0 3 0;
#X connect 11 0 4 0;
#X connect 12 0 11 0;
#X connect 12 1 18 0;
#X connect 14 0 80 0;
#X connect 15 0 16 0;
#X connect 15 0 23 1;
#X connect 15 0 24 1;
#X connect 17 0 15 0;
#X connect 18 0 17 0;
#X connect 18 1 22 0;
#X connect 19 0 20 0;
#X connect 19 0 25 1;
#X connect 19 0 26 1;
#X connect 21 0 19 0;
#X connect 22 0 21 0;
#X connect 22 1 32 0;
#X connect 23 0 35 0;
#X connect 24 0 36 0;
#X connect 25 0 37 0;
#X connect 26 0 38 0;
#X connect 27 0 39 0;
#X connect 28 0 40 0;
#X connect 29 0 30 0;
#X connect 29 0 27 1;
#X connect 29 0 28 1;
#X connect 31 0 29 0;
#X connect 32 0 31 0;
#X connect 41 0 59 0;
#X connect 43 0 44 0;
#X connect 44 0 45 0;
#X connect 46 0 49 0;
#X connect 47 0 61 0;
#X connect 48 0 62 0;
#X connect 48 1 79 0;
#X connect 50 0 55 0;
#X connect 51 0 52 0;
#X connect 52 0 53 0;
#X connect 53 0 54 0;
#X connect 55 0 56 0;
#X connect 56 0 85 0;
#X connect 57 0 50 0;
#X connect 60 0 10 0;
#X connect 61 0 57 1;
#X connect 61 1 46 0;
#X connect 63 0 57 0;
#X connect 63 1 47 0;
#X connect 65 0 66 0;
#X connect 66 0 3 0;
#X connect 67 0 68 1;
#X connect 68 0 69 0;
#X connect 68 1 70 0;
#X connect 69 0 105 0;
#X connect 70 0 69 1;
#X connect 71 0 73 0;
#X connect 75 0 70 0;
#X connect 76 0 91 0;
#X connect 77 0 61 0;
#X connect 78 0 63 0;
#X connect 80 0 6 0;
#X connect 80 1 81 0;
#X connect 82 0 50 1;
#X connect 83 0 86 0;
#X connect 84 0 56 1;
#X connect 84 0 108 1;
#X connect 85 0 42 0;
#X connect 86 0 88 0;
#X connect 86 1 55 1;
#X connect 88 0 57 0;
#X connect 88 1 77 0;
#X connect 89 0 48 0;
#X connect 90 0 63 0;
#X connect 90 2 88 0;
#X connect 91 0 90 0;
#X connect 91 1 77 1;
#X connect 105 0 71 0;
#X connect 105 1 75 0;
#X connect 105 2 72 0;
#X connect 105 3 74 0;
#X connect 106 0 108 0;
#X connect 107 0 42 0;
#X connect 108 0 107 0;
#X coords 0 -1 1 1 600 50 1 100 100;
