#N canvas 0 74 1920 1006 10;
#X obj 101 101 cnv 15 78 198 empty player-\$0 Player-\$2 2 10 0 14
-166441 -66577 0;
#X obj 153 155 vsl 20 140 0 255 0 0 empty empty empty 0 -9 0 10 -204800
-1 -1 5778 1;
#X obj 9 119 vradio 15 1 0 8 empty empty track 0 -8 0 10 -262144 -1
-1 0;
#X obj 107 171 bng 15 250 50 0 empty empty play 17 7 0 10 -1 -4034
-1;
#X obj 107 216 bng 15 250 50 0 empty M-\$0 M 17 7 0 10 -1 -4032 -1
;
#X obj 107 261 bng 15 250 50 0 empty empty stop 17 7 0 10 -1 -258113
-1;
#X msg 635 398 255;
#X obj 87 718 list prepend;
#X obj 153 349 int;
#X obj 260 563 pack f 0 f 0;
#X obj 366 134 int;
#X obj 256 405 t b f;
#X obj 314 -316 route;
#X obj 354 -316 route;
#X obj 394 -316 route;
#X obj 434 -316 route;
#X obj 381 -387 + 32;
#X obj 401 -407 + 48;
#X obj 421 -427 + 64;
#X obj 474 -316 route;
#X obj 341 -347 + 17;
#X obj 361 -367 + 25;
#X obj 314 -293 * 2;
#X obj 354 -293 * 2;
#X obj 394 -223 select 127;
#X obj 434 -273 select 127;
#X obj 474 -295 select 127;
#X obj 474 -408 r MIDI_loc;
#X obj 341 -476 \$1;
#X obj 341 -498 loadbang;
#X obj 341 -453 t f f f f f f;
#X obj 66 887 list;
#X obj 66 917 prepend prepend;
#X floatatom 141 119 5 0 255 0 Time - -;
#X msg 141 413 set \$1;
#X floatatom 141 136 5 0 0 0 Level - -;
#X obj 192 883 spigot;
#X obj 112 153 tgl 15 0 empty empty empty 17 7 0 10 -262144 -1 -1 0
1;
#X obj 87 781 list append 0 0 0 0;
#X obj 87 811 list append 0 0 0 0;
#X obj 87 841 list append 0 0 0 0;
#X obj 227 694 gate 4;
#X obj 108 288 hradio 10 1 1 4 empty select-OUT output 1 -4 0 8 -204800
-1 -1 0;
#X obj 227 660 + 1;
#X obj 238 765 t b a;
#X obj 249 795 t b a;
#X obj 260 825 t b a;
#X obj 87 751 list append 0 0 0 0;
#X obj 227 735 t b a;
#X obj 49 -197 prepend \$0;
#X obj 49 -259 bng 15 250 50 0 empty raz-\$0 raz-\$0 17 7 0 10 -191407
-1 -1;
#X obj 155 -259 loadbang;
#X obj 155 -236 \$1;
#X obj 1101 367 prepend \$0;
#X msg 1101 394 \; player-\$1 color 1 0 \$2;
#X msg 638 137 set \$1;
#X msg 638 103 set \$1;
#X obj 192 907 print Art-Net-player_remote-\$1;
#X obj 711 -299 r Art-Net-player_remote;
#X obj 711 -277 s Art-Net-player_remote-\$1;
#X obj 711 -248 r Art-Net-player_remote-\$1;
#X obj 66 943 s Art-Net-player_remote-out;
#X floatatom 109 190 5 0 32767 0 - - -;
#X obj 635 202 cycle 2;
#X msg 635 184 symbol foo;
#X floatatom 109 237 5 0 255 0 - - -;
#X obj 1067 433 prepend \$1;
#X obj 1067 -210 list split 2;
#X obj 1101 -188 list split 1;
#X msg 1067 456 \; Art-Net-player_remote-playlist-\$1 symbol \$2 \;
Art-Net-player_remote-track-\$1 symbol \$3;
#X obj 1135 -165 list split 4;
#X obj 1169 -135 list split 4;
#X obj 1146 -11 + 1;
#X obj 1146 14 cyclone/switch 4;
#X obj 1146 57 unpack f f f f;
#X obj 1146 140 * 256;
#X obj 1146 163 +;
#X obj 1200 120 * 256;
#X obj 1200 143 +;
#X obj 1135 233 unpack f f f f;
#X obj 1189 256 * 256;
#X obj 1189 299 +;
#X msg 1135 322 set \$1;
#X msg 1189 322 set \$1;
#X obj 902 -79 r select-OUT-\$0;
#X obj 227 631 r select-OUT-\$0;
#X obj 1169 -88 list;
#X obj 902 -56 t b b b b f;
#X obj 1259 -119 list split 4;
#X obj 1259 -73 list;
#X obj 1353 -103 list split 4;
#X obj 1353 -57 list;
#X obj 1443 -87 list split 4;
#X obj 1443 -41 list;
#X msg 635 416 250;
#X obj 434 -250 s M-\$0;
#X msg 504 229 symbol foo;
#X obj 504 247 cycle 3;
#X obj 504 341 prepend \$0;
#X msg 504 311 51 loop;
#X msg 504 376 \$2 \; M-\$1 label \$3;
#X msg 524 293 102 Aloop;
#X msg 544 275 153 auto;
#X obj 108 459 s select-OUT-\$0;
#X floatatom 100 125 5 0 0 0 - - -;
#X obj 406 292 cycle 2;
#X msg 406 274 symbol foo;
#X msg 406 367 0;
#X msg 406 385 5;
#X obj 279 309 t f f;
#X obj 279 352 div 256;
#X obj 329 332 mod 256;
#X obj 279 375 t b f;
#X obj 260 452 pack f f f f;
#X obj 711 -226 route playlist out;
#X obj 1146 90 t f f f;
#N canvas 0 50 450 366 midigate 0;
#X obj 93 21 inlet;
#X obj 313 17 inlet;
#X obj 232 282 gate;
#X obj 280 212 == 1;
#X obj 280 187 change;
#X obj 280 235 select 1;
#X obj 200 251 i 0;
#X obj 232 251 i 1;
#X obj 280 88 f;
#X obj 253 63 t f f;
#X obj 280 111 t f f;
#X obj 307 142 ==;
#X obj 280 142 <;
#X obj 307 166 change;
#X obj 172 72 t b b f f;
#X obj 232 305 outlet;
#X connect 0 0 14 0;
#X connect 1 0 9 0;
#X connect 2 0 15 0;
#X connect 3 0 5 0;
#X connect 4 0 3 0;
#X connect 5 0 7 0;
#X connect 6 0 2 0;
#X connect 7 0 2 0;
#X connect 8 0 10 0;
#X connect 9 0 2 1;
#X connect 9 1 8 0;
#X connect 10 0 12 0;
#X connect 10 1 11 0;
#X connect 11 0 13 0;
#X connect 12 0 4 0;
#X connect 13 0 3 0;
#X connect 14 0 6 0;
#X connect 14 1 8 0;
#X connect 14 2 12 1;
#X connect 14 3 11 1;
#X restore 251 -178 pd midigate;
#X msg 49 -170 \; player-\$1 label Player-\$2 \; player-\$1 color 1
0 2 \; M-\$1 label M;
#X obj 1146 37 t a a;
#X obj 1135 203 t a a;
#X obj 1169 -112 t b a a;
#X obj 1259 -96 t b a a;
#X obj 1353 -80 t b a a;
#X obj 1443 -64 t b a a;
#X obj 60 604 t b b;
#X obj 260 475 t b b a;
#X obj 763 755 send outout;
#X obj 260 586 t b a;
#X connect 1 0 8 0;
#X connect 2 0 65 0;
#X connect 3 0 64 0;
#X connect 4 0 96 0;
#X connect 5 0 106 0;
#X connect 6 0 11 0;
#X connect 7 0 47 0;
#X connect 8 0 9 0;
#X connect 8 0 34 0;
#X connect 9 0 127 0;
#X connect 10 0 9 2;
#X connect 11 0 113 0;
#X connect 11 1 104 0;
#X connect 11 1 113 1;
#X connect 12 0 22 0;
#X connect 13 0 23 0;
#X connect 14 0 24 0;
#X connect 15 0 25 0;
#X connect 16 0 14 1;
#X connect 17 0 15 1;
#X connect 18 0 19 1;
#X connect 19 0 26 0;
#X connect 20 0 12 1;
#X connect 21 0 13 1;
#X connect 22 0 116 1;
#X connect 23 0 33 0;
#X connect 24 0 3 0;
#X connect 25 0 95 0;
#X connect 26 0 5 0;
#X connect 27 0 12 0;
#X connect 27 0 19 0;
#X connect 27 0 15 0;
#X connect 27 0 14 0;
#X connect 27 0 13 0;
#X connect 28 0 30 0;
#X connect 29 0 28 0;
#X connect 30 0 20 0;
#X connect 30 1 21 0;
#X connect 30 2 16 0;
#X connect 30 3 17 0;
#X connect 30 4 18 0;
#X connect 30 5 2 0;
#X connect 31 0 32 0;
#X connect 32 0 61 0;
#X connect 33 0 10 0;
#X connect 34 0 35 0;
#X connect 35 0 1 0;
#X connect 36 0 57 0;
#X connect 37 0 36 1;
#X connect 38 0 39 0;
#X connect 39 0 40 0;
#X connect 40 0 36 0;
#X connect 40 0 31 1;
#X connect 41 0 48 0;
#X connect 41 1 44 0;
#X connect 41 2 45 0;
#X connect 41 3 46 0;
#X connect 42 0 103 0;
#X connect 43 0 41 0;
#X connect 44 0 7 0;
#X connect 44 1 38 1;
#X connect 45 0 7 0;
#X connect 45 1 39 1;
#X connect 46 0 7 0;
#X connect 46 1 40 1;
#X connect 47 0 38 0;
#X connect 48 0 7 0;
#X connect 48 1 47 1;
#X connect 49 0 117 0;
#X connect 50 0 49 0;
#X connect 51 0 52 0;
#X connect 52 0 49 0;
#X connect 53 0 54 0;
#X connect 55 0 1 0;
#X connect 55 0 35 0;
#X connect 56 0 33 0;
#X connect 58 0 59 0;
#X connect 60 0 114 0;
#X connect 62 0 109 0;
#X connect 63 0 6 0;
#X connect 63 1 94 0;
#X connect 64 0 63 0;
#X connect 65 0 113 0;
#X connect 66 0 69 0;
#X connect 67 0 66 0;
#X connect 67 1 68 0;
#X connect 68 0 53 0;
#X connect 68 1 70 0;
#X connect 70 0 119 0;
#X connect 70 1 71 0;
#X connect 71 0 120 0;
#X connect 71 1 88 0;
#X connect 72 0 73 0;
#X connect 73 0 118 0;
#X connect 74 0 115 0;
#X connect 74 1 76 1;
#X connect 74 2 77 0;
#X connect 74 2 56 0;
#X connect 74 3 78 1;
#X connect 75 0 76 0;
#X connect 77 0 78 0;
#X connect 79 0 82 0;
#X connect 79 1 113 1;
#X connect 79 2 80 0;
#X connect 79 2 113 2;
#X connect 79 3 81 1;
#X connect 79 3 113 3;
#X connect 80 0 81 0;
#X connect 81 0 83 0;
#X connect 82 0 65 0;
#X connect 83 0 62 0;
#X connect 84 0 87 0;
#X connect 85 0 43 0;
#X connect 86 0 73 1;
#X connect 87 0 86 0;
#X connect 87 1 93 0;
#X connect 87 2 91 0;
#X connect 87 3 89 0;
#X connect 87 4 72 0;
#X connect 88 0 121 0;
#X connect 88 1 90 0;
#X connect 89 0 73 2;
#X connect 90 0 122 0;
#X connect 90 1 92 0;
#X connect 91 0 73 3;
#X connect 92 0 123 0;
#X connect 93 0 73 4;
#X connect 94 0 11 0;
#X connect 96 0 97 0;
#X connect 97 0 99 0;
#X connect 97 1 101 0;
#X connect 97 2 102 0;
#X connect 98 0 100 0;
#X connect 99 0 98 0;
#X connect 100 0 11 0;
#X connect 101 0 98 0;
#X connect 102 0 98 0;
#X connect 105 0 107 0;
#X connect 105 1 108 0;
#X connect 106 0 105 0;
#X connect 107 0 11 0;
#X connect 108 0 11 0;
#X connect 109 0 110 0;
#X connect 109 1 111 0;
#X connect 110 0 112 0;
#X connect 111 0 113 3;
#X connect 112 0 113 0;
#X connect 112 1 113 2;
#X connect 113 0 125 0;
#X connect 114 0 62 0;
#X connect 114 1 124 0;
#X connect 114 2 67 0;
#X connect 115 0 116 0;
#X connect 115 1 55 0;
#X connect 115 2 75 0;
#X connect 116 0 35 0;
#X connect 118 0 74 0;
#X connect 119 0 7 1;
#X connect 119 1 79 0;
#X connect 120 0 86 0;
#X connect 120 1 86 1;
#X connect 120 2 47 1;
#X connect 121 0 89 0;
#X connect 121 1 89 1;
#X connect 121 2 38 1;
#X connect 122 0 91 0;
#X connect 122 1 91 1;
#X connect 122 2 39 1;
#X connect 123 0 93 0;
#X connect 123 1 93 1;
#X connect 123 2 40 1;
#X connect 124 0 31 0;
#X connect 124 1 7 0;
#X connect 125 1 9 0;
#X connect 125 2 7 1;
#X connect 127 0 126 0;
#X connect 127 1 41 1;
#X coords 0 -1 1 1 80 200 2 100 100;
