#N canvas 2 76 823 595 10;
#X obj 603 84 OpPollReply_sender;
#X obj 603 23 Art-Net-Receiver;
#X obj 603 325 OpDmx_decoder;
#X obj 2 463 OpDmx_Universe 0;
#X obj 603 386 OpDmx_Universe-scanner;
#N canvas 188 186 1186 842 8players 0;
#X obj 730 236 list split 20;
#X obj 767 256 list split 20;
#X obj 804 276 list split 20;
#X obj 841 296 list split 20;
#X obj 878 316 list split 20;
#X obj 915 336 list split 20;
#X obj 952 356 list split 20;
#X obj 989 376 list split 20;
#X obj 730 103 inlet;
#X obj 100 101 Art-Net-player 0;
#X obj 100 152 Art-Net-player 1;
#X obj 100 203 Art-Net-player 2;
#X obj 100 254 Art-Net-player 3;
#X obj 100 305 Art-Net-player 4;
#X obj 100 356 Art-Net-player 5;
#X obj 100 405 Art-Net-player 6;
#X obj 100 456 Art-Net-player 7;
#X connect 0 0 9 0;
#X connect 0 1 1 0;
#X connect 1 0 10 0;
#X connect 1 1 2 0;
#X connect 2 0 11 0;
#X connect 2 1 3 0;
#X connect 3 0 12 0;
#X connect 3 1 4 0;
#X connect 4 0 13 0;
#X connect 4 1 5 0;
#X connect 5 0 14 0;
#X connect 5 1 6 0;
#X connect 6 0 15 0;
#X connect 6 1 7 0;
#X connect 7 0 16 0;
#X connect 8 0 0 0;
#X coords 0 -1 1 1 600 407 1 100 100;
#X restore 2 24 pd 8players;
#X obj 202 463 OpDmx_Universe 16;
#X obj 2 445 r UNIV1;
#X obj 202 447 r UNIV2;
#X obj 388 432 Art-Net-player_playlist_sender 4444;
#X obj 502 463 Art-Net-player_playlist_header2;
#X obj 402 463 Art-Net-player_playlist_header1;
#N canvas 5 84 593 492 local_init_patch 0;
#X obj 8 36 text define -k Hex2Dec_table;
#A set 0 0 48 0 0 0 0 \; 1 1 49 1 0 0 0 \; 2 2 50 0 1 0 0 \; 3 3 51
1 1 0 0 \; 4 4 52 0 0 1 0 \; 5 5 53 1 0 1 0 \; 6 6 54 0 1 1 0 \; 7
7 55 1 1 1 0 \; 8 8 56 0 0 0 1 \; 9 9 57 1 0 0 1 \; 10 A 65 0 1 0 1
\; 11 B 66 1 1 0 1 \; 12 C 67 0 0 1 1 \; 13 D 68 1 0 1 1 \; 14 E 69
0 1 1 1 \; 15 F 70 1 1 1 1 \;;
#X msg 8 11 read /home/pi/StuART/convert/Hex2Dec_table;
#X obj 8 61 text define -k VECTOR_ROOT;
#A set 4 VECTOR_ROOT_E131_DATA 0x00000004 DATA \; 8 VECTOR_ROOT_E131_EXTENDED
0x00000008 EXTENDED \;;
#X obj 301 165 qlist;
#X msg 422 137 bang;
#X msg 301 92 line 0 \, bang;
#X obj 301 137 prepend add;
#X msg 328 72 clear;
#X obj 301 52 t b b;
#X obj 301 24 bng 15 250 50 0 empty empty empty 17 7 0 10 -262144 -1
-1;
#X obj 357 13 loadbang;
#X obj 357 36 del 1000;
#X obj 206 130 list trim;
#X obj 206 153 print INIT;
#X msg 434 91 click;
#X obj 434 71 bng 15 250 50 0 empty empty empty 17 7 0 10 -262144 -1
-1;
#X obj 18 95 catch~ L-1;
#X obj 37 115 catch~ R-1;
#X obj 56 135 catch~ L-2;
#X obj 74 155 catch~ R-2;
#X obj 93 175 catch~ L-3;
#X obj 111 195 catch~ R-3;
#X obj 128 215 catch~ L-4;
#X obj 147 235 catch~ R-4;
#X obj 18 338 dac~ 1 2 3 4 5 6;
#X obj 434 114 text define -k init-\$0;
#A set UNIV1 0 \; UNIV2 16 \; Art-Net-player_playlist_header1_SHOW
0 \;;
#X obj 301 114 text sequence init-\$0;
#X connect 1 0 0 0;
#X connect 4 0 3 0;
#X connect 5 0 26 0;
#X connect 6 0 3 0;
#X connect 7 0 3 0;
#X connect 8 0 5 0;
#X connect 8 1 7 0;
#X connect 9 0 8 0;
#X connect 10 0 11 0;
#X connect 11 0 8 0;
#X connect 12 0 13 0;
#X connect 14 0 25 0;
#X connect 15 0 14 0;
#X connect 16 0 24 0;
#X connect 17 0 24 1;
#X connect 18 0 24 2;
#X connect 19 0 24 3;
#X connect 20 0 24 4;
#X connect 21 0 24 5;
#X connect 26 0 6 0;
#X connect 26 0 12 0;
#X connect 26 1 4 0;
#X restore 603 5 pd local_init_patch;
#X connect 3 0 5 0;
#X connect 6 0 5 0;
#X connect 7 0 3 0;
#X connect 8 0 6 0;
