#N canvas 22 91 1920 1006 10;
#X obj 3 -164 OpPollReply_sender;
#X obj 3 -225 Art-Net-Receiver;
#X obj 3 77 OpDmx_decoder;
#X obj 217 -185 text define -k Hex2Dec_table;
#A set 0 0 48 0 0 0 0 \; 1 1 49 1 0 0 0 \; 2 2 50 0 1 0 0 \; 3 3 51
1 1 0 0 \; 4 4 52 0 0 1 0 \; 5 5 53 1 0 1 0 \; 6 6 54 0 1 1 0 \; 7
7 55 1 1 1 0 \; 8 8 56 0 0 0 1 \; 9 9 57 1 0 0 1 \; 10 A 65 0 1 0 1
\; 11 B 66 1 1 0 1 \; 12 C 67 0 0 1 1 \; 13 D 68 1 0 1 1 \; 14 E 69
0 1 1 1 \; 15 F 70 1 1 1 1 \;;
#X msg 217 -210 read /home/pi/StuART/convert/Hex2Dec_table;
#X obj 217 -160 text define -k VECTOR_ROOT;
#A set 4 VECTOR_ROOT_E131_DATA 0x00000004 DATA \; 8 VECTOR_ROOT_E131_EXTENDED
0x00000008 EXTENDED \;;
#X obj 3 279 OpDmx_Universe 0;
#X obj 1077 -227 tgl 15 0 empty empty empty 17 7 0 10 -262144 -1 -1
0 1;
#X obj 3 138 OpDmx_Universe-scanner;
#X obj 428 419 tgl 15 0 empty empty empty 17 7 0 10 -262144 -1 -1 0
1;
#X obj 428 461 array get local;
#X obj 428 439 metro 20;
#X floatatom 1111 -136 5 0 0 0 - - -;
#X obj 1111 -159 list length;
#X obj 269 456 array define local 512;
#X obj 505 566 tgl 15 0 empty empty CONNECT_LOCAL 17 7 0 10 -262144
-1 -1 0 1;
#N canvas 220 307 1186 842 8players 0;
#X obj 730 544 list split 20;
#X obj 767 564 list split 20;
#X obj 804 584 list split 20;
#X obj 841 604 list split 20;
#X obj 878 624 list split 20;
#X obj 915 644 list split 20;
#X obj 952 664 list split 20;
#X obj 989 684 list split 20;
#X obj 100 688 Art-Net-player_playlist_sender 4444;
#X obj 100 587 Art-Net-player_playlist_header;
#X obj 730 103 inlet;
#X obj 788 123 catch~ L-1;
#X obj 807 143 catch~ R-1;
#X obj 826 163 catch~ L-2;
#X obj 844 183 catch~ R-2;
#X obj 863 203 catch~ L-3;
#X obj 881 223 catch~ R-3;
#X obj 898 243 catch~ L-4;
#X obj 917 263 catch~ R-4;
#X obj 788 366 dac~ 1 2 3 4 5 6;
#X obj 100 101 Art-Net-player 0;
#X obj 100 162 Art-Net-player 1;
#X obj 100 223 Art-Net-player 2;
#X obj 100 284 Art-Net-player 3;
#X obj 100 345 Art-Net-player 4;
#X obj 100 406 Art-Net-player 5;
#X obj 100 465 Art-Net-player 6;
#X obj 100 526 Art-Net-player 7;
#X connect 0 0 20 0;
#X connect 0 1 1 0;
#X connect 1 0 21 0;
#X connect 1 1 2 0;
#X connect 2 0 22 0;
#X connect 2 1 3 0;
#X connect 3 0 23 0;
#X connect 3 1 4 0;
#X connect 4 0 24 0;
#X connect 4 1 5 0;
#X connect 5 0 25 0;
#X connect 5 1 6 0;
#X connect 6 0 26 0;
#X connect 6 1 7 0;
#X connect 7 0 27 0;
#X connect 10 0 0 0;
#X connect 11 0 19 0;
#X connect 12 0 19 1;
#X connect 13 0 19 2;
#X connect 14 0 19 3;
#X connect 15 0 19 4;
#X connect 16 0 19 5;
#X coords 0 -1 1 1 600 700 1 100 100;
#X restore 1077 -110 pd 8players;
#N canvas 2 74 1920 1006 nanok 0;
#X symbolatom 614 1227 80 0 0 1 Player-1 - -;
#X symbolatom 614 1244 80 0 0 1 Player-2 - -;
#X symbolatom 614 1261 80 0 0 1 Player-3 - -;
#X symbolatom 614 1278 80 0 0 1 Player-4 - -;
#X symbolatom 614 1295 80 0 0 1 Player-5 - -;
#X symbolatom 614 1312 80 0 0 1 Player-6 - -;
#X symbolatom 614 1329 80 0 0 1 Player-7 - -;
#X symbolatom 614 1346 80 0 0 1 Player-8 - -;
#X obj 282 1320 gate 8, f 23;
#X obj 612 648 netreceive 4444;
#X obj 282 1178 t b a;
#X obj 417 1194 symbol;
#X obj 282 1247 counter 1 16;
#X obj 342 1216 t b b;
#X msg -35 1232 set No-File;
#X obj 315 1129 tgl 15 0 empty empty empty 17 7 0 10 -262144 -1 -1
0 1;
#X obj 282 1270 moses 9;
#X msg 321 1299 0;
#X obj 282 1154 spigot;
#X obj 315 1031 route list symbol;
#X obj 315 1054 list split 1;
#X obj 315 1097 t f f;
#X obj 342 1127 route 1 0;
#X symbolatom 8 1367 80 0 0 0 last-feedback - -;
#X obj 18 1271 list split 1;
#X obj 18 1324 makefilename %s;
#X symbolatom 490 1367 3 0 0 0 - - -;
#X obj 52 1299 makefilename %s;
#X obj 301 489 MIDI/MIDI 1;
#X obj 182 101 Art-Net-player_remote 1;
#X obj 263 101 Art-Net-player_remote 2;
#X obj 701 519 tgl 15 0 empty empty empty 17 7 0 10 -262144 -1 -1 0
1;
#X obj 344 101 Art-Net-player_remote 3;
#X obj 425 101 Art-Net-player_remote 4;
#X obj 506 101 Art-Net-player_remote 5;
#X obj 587 101 Art-Net-player_remote 6;
#X obj 668 101 Art-Net-player_remote 7;
#X obj 797 158 bng 15 250 50 0 empty empty Open_IN_terminal 17 7 0
8 -204786 -1 -1;
#X obj 797 289 ggee/shell;
#X obj 342 551 bng 15 250 50 0 Edit_playlist-\$0 empty Edit_playlist
17 7 0 8 -204786 -1 -1;
#X obj 416 1069 prepend \$0;
#X msg 416 1092 \; playlist-\$1 label \$2;
#X obj 797 58 bng 15 250 50 0 empty empty raz 17 7 0 10 -191407 -1
-1;
#X obj 797 78 prepend \$0;
#X msg 797 234 lxterminal -e ssh -X pi@127.0.0.1 pd /home/pi/StuART/player_Stereo/Art-Net-player_playlist_header.pd
;
#X obj 494 551 hradio 20 1 0 4 select-OUT empty SELECT-output 1 -4
0 8 -204800 -1 -1 0;
#X msg 797 182 lxterminal -e pdreceive 4442;
#X msg 730 631 listen 4444;
#X obj 633 1009 send;
#X msg 670 977 symbol Art-Net-player_remote-\$1;
#X obj 101 519 OpDmx_encoder 1 1 0;
#X obj 797 210 bng 15 250 50 0 empty Edit_playlist-\$0 Edit_playlist-\$0
17 7 0 8 -204786 -1 -1;
#N canvas 251 90 1053 798 PlayList 0;
#X obj 144 113 hradio 15 1 0 40 empty playlist-\$0 playlist 0 -8 0
10 -262144 -1 -1 1;
#X obj 8 7 r MIDI_loc;
#X msg 246 30 inc;
#X msg 273 30 dec;
#X obj 102 109 bng 18 250 50 0 empty empty + 5 10 0 15 -1 -1 -232576
;
#X obj 121 109 bng 18 250 50 0 empty empty _ 5 3 0 15 -1 -1 -232576
;
#X obj 331 46 counter 0 32765;
#X floatatom 331 69 5 0 0 0 - - -;
#X obj 8 31 route 58 59;
#X obj 8 73 select 127;
#X obj 39 53 select 127;
#X obj 149 209 s Art-Net-player_remote;
#X obj 149 173 prepend playlist;
#X connect 0 0 12 0;
#X connect 1 0 8 0;
#X connect 2 0 6 0;
#X connect 3 0 6 0;
#X connect 4 0 2 0;
#X connect 5 0 3 0;
#X connect 6 0 7 0;
#X connect 7 0 0 0;
#X connect 8 0 9 0;
#X connect 8 1 10 0;
#X connect 9 0 5 0;
#X connect 10 0 4 0;
#X connect 12 0 11 0;
#X coords 0 -1 1 1 649 30 2 100 100;
#X restore 100 301 pd PlayList;
#X obj 931 499 cnv 15 100 120 empty empty empty 20 12 0 14 -261234
-66577 0;
#X obj 942 513 ctlin;
#X obj 982 513 notein;
#X obj 982 566 pack;
#X obj 942 536 pack;
#X msg 942 559 \$2 \$1;
#X obj 942 595 s MIDI_loc;
#X obj 730 664 print feedback;
#X obj 101 101 Art-Net-player_remote 0;
#X obj 633 917 list split 1;
#X obj 633 940 t b f;
#X obj 633 977 list;
#X symbolatom 157 336 10 0 0 0 Art-Net-player_remote-playlist-0 Art-Net-player_remote-playlist-0
-;
#X symbolatom 157 353 10 0 0 0 Art-Net-player_remote-playlist-1 Art-Net-player_remote-playlist-1
-;
#X symbolatom 157 370 10 0 0 0 Art-Net-player_remote-playlist-2 Art-Net-player_remote-playlist-2
-;
#X symbolatom 157 387 10 0 0 0 Art-Net-player_remote-playlist-3 Art-Net-player_remote-playlist-3
-;
#X symbolatom 157 404 10 0 0 0 Art-Net-player_remote-playlist-4 Art-Net-player_remote-playlist-4
-;
#X symbolatom 157 421 10 0 0 0 Art-Net-player_remote-playlist-5 Art-Net-player_remote-playlist-5
-;
#X symbolatom 157 438 10 0 0 0 Art-Net-player_remote-playlist-6 Art-Net-player_remote-playlist-6
-;
#X symbolatom 157 455 10 0 0 0 Art-Net-player_remote-playlist-7 Art-Net-player_remote-playlist-7
-;
#X symbolatom 219 336 80 0 0 1 Art-Net-player_remote-track-0 Art-Net-player_remote-track-0
-;
#X symbolatom 219 353 80 0 0 1 Art-Net-player_remote-track-1 Art-Net-player_remote-track-1
-;
#X symbolatom 219 370 80 0 0 1 Art-Net-player_remote-track-2 Art-Net-player_remote-track-2
-;
#X symbolatom 219 387 80 0 0 1 Art-Net-player_remote-track-3 Art-Net-player_remote-track-3
-;
#X symbolatom 219 404 80 0 0 1 Art-Net-player_remote-track-4 Art-Net-player_remote-track-4
-;
#X symbolatom 219 421 80 0 0 1 Art-Net-player_remote-track-5 Art-Net-player_remote-track-5
-;
#X symbolatom 219 438 80 0 0 1 Art-Net-player_remote-track-6 Art-Net-player_remote-track-6
-;
#X symbolatom 219 455 80 0 0 1 Art-Net-player_remote-track-7 Art-Net-player_remote-track-7
-;
#X obj 612 671 route 2 3 4;
#X obj 654 743 list split 1;
#X obj 654 766 t b f;
#X obj 654 807 list;
#X obj 654 718 t a a;
#X msg 779 856 click;
#X msg 713 790 0 \, 1 \, 2 \, 3 \, 4 \, 5 \, 6 \, 7;
#X obj 713 813 t f f;
#X obj 713 770 bng 15 250 50 1 empty raz-init-onstage-\$0 raz-init-onstage-\$0
17 7 0 10 -4034 -1 -1;
#X obj 779 835 bng 15 250 50 0 empty open-onstage-\$0 open-onstage-\$0
17 7 0 10 -4034 -1 -1;
#X obj 701 504 bng 15 250 50 0 open-onstage-\$0 empty open-onstage-\$0
17 7 0 10 -4034 -1 -1;
#X obj 701 489 bng 15 250 50 1 raz-init-onstage-\$0 empty raz-init-onstage-\$0
17 7 0 10 -4034 -1 -1;
#X obj 654 841 text set onstage-\$0;
#X obj 655 872 text define onstage-\$0;
#X msg 1095 393 0 255 0 2 0 0 0 0 0 0 0 0 0 0 0 0 0 0 0 0 1 102 0 2
0 0 0 0 0 0 0 0 0 0 0 0 0 0 0 0 2 153 0 2 126 0 0 0 0 0 0 0 0 0 0 0
0 0 0 0 3 102 0 2 104 0 0 0 0 0 0 0 0 0 0 0 0 0 0 0 4 51 0 2 0 0 0
0 0 0 0 0 0 0 0 0 0 0 0 0 5 0 0 2 0 0 0 0 0 0 0 0 0 0 0 0 0 0 0 0 6
255 0 2 0 0 0 0 0 0 0 0 0 0 0 0 0 0 0 0 7 102 0 2 0 0 0 0 0 0 0 0 0
0 0 0 110 0 104 0 0 0 0 0 0 0 0 0 0 0 0 0 0 0 0 0 0 0 0 0 0 0 0 0 0
0 0 0 0 0 0 0 0 0 0 0 0 0 0 0 0 0 0 0 0 0 0 0 0 0 0 0 0 0 0 0 0 0 0
0 0 0 0 0 0 0 0 0 0 0 0 0 0 0 0 0 0 0 0 0 0 0 0 0 0 0 0 0 0 0 0 0 0
0 0 0 0 0 0 0 0 0 0 0 0 0 0 0 0 0 0 0 0 0 0 0 0 0 0 0 0 0 0 0 0 0 0
0 0 0 0 0 0 0 0 0 0 0 0 0 0 0 0 0 0 0 0 0 0 0 0 0 0 0 0 0 0 0 0 0 0
0 0 0 0 0 0 0 0 0 0 0 0 0 0 0 0 0 0 0 0 0 0 0 0 0 0 0 0 0 0 0 0 0 0
0 0 0 0 0 0 0 0 0 0 0 0 0 0 0 0 0 0 0 0 0 0 0 0 0 0 0 0 0 0 0 0 0 0
0 0 0 0 0 0 0 0 0 0 0 0 0 0 0 0 0 0 0 0 0 0 0 0 0 0 0 0 0 0 0 0 0 0
0 0 0 0 0 0 0 0 0 0 0 0 0 0 0 0 0 0 0 0 0 0 0 0 0 0 0 0 0 0 0 0 0 0
0 0 0 0 0 0 0 0 0 0 0 0 0 0 0 0 0 0 0 0 0 0 0 0 0 0 0 0 0 0 0 0 0 0
0 0 0 0 0 0 0 0 0 0 0 0 0 0 0 0 0 0 0 0 0, f 42;
#X obj 102 675 prepend set;
#X msg 102 713 0 0 0 12 0 0 0 0 0 0 0 0 0 0 0 0 232 0 0 0 1 0 0 4 0
0 0 0 0 0 0 0 0 0 0 0 194 0 0 0 2 5 0 4 126 0 0 0 0 0 0 0 0 0 0 0 122
0 0 0 3 0 0 4 104 0 0 0 0 0 0 0 0 0 0 0 204 0 0 0 4 0 0 4 0 0 0 0 0
0 0 0 0 0 0 0 102 0 0 0 5 0 0 4 0 0 0 0 0 0 0 0 0 0 0 0 232 0 0 0 6
0 0 4 0 0 0 0 0 0 0 0 0 0 0 0 196 0 0 0 7 5 0 4 0 0 0 0 0 0 0 0 0 0
0 0 0 0 0 0, f 34;
#N canvas 0 50 666 548 SpeedLim_head 0;
#X obj 101 101 cnv 15 198 28 empty empty empty 20 12 0 14 -233017 -66577
0;
#X obj 118 113 hradio 15 1 0 11 empty SpeedLim SpeedLim=20msec 0 -6
0 10 -204800 -1 -1 2;
#X obj 118 200 t f f;
#X obj 118 170 * 10;
#X obj 145 231 route 0;
#X obj 102 113 bng 15 50 10 0 empty outout empty 17 7 0 10 -1 -4032
-1;
#X obj 102 398 speedlim;
#X obj 283 113 bng 15 50 10 0 empty empty empty 17 7 0 10 -1 -4032
-1;
#X msg 184 262 \; SpeedLim label SpeedLim=\$1msec;
#X msg 145 298 \; SpeedLim label SpeedLim-OFF;
#X obj 227 602 outlet;
#X obj 227 564 list store;
#X obj 227 408 r Art-Net-player_remote-out;
#X msg 323 490 7 \, 6 \, 5 \, 4 \, 3 \, 2 \, 1 \, 0;
#X obj 410 580 list length;
#X obj 284 466 t b b b;
#X msg 323 512 \; Art-Net-player_remote-\$1 out bang;
#X obj 410 603 outlet;
#X text 308 561 list_builder;
#X connect 1 0 3 0;
#X connect 2 0 6 1;
#X connect 2 1 4 0;
#X connect 3 0 2 0;
#X connect 4 0 9 0;
#X connect 4 1 8 0;
#X connect 5 0 6 0;
#X connect 6 0 7 0;
#X connect 7 0 15 0;
#X connect 11 0 14 0;
#X connect 11 0 10 0;
#X connect 12 0 11 0;
#X connect 13 0 16 0;
#X connect 14 0 17 0;
#X connect 15 0 11 1;
#X connect 15 1 11 0;
#X connect 15 2 13 0;
#X coords 0 -1 1 1 200 30 1 100 100;
#X restore 101 489 pd SpeedLim_head;
#X msg 797 105 \; playlist-\$1 label playlist \; SpeedLim label SpeedLim
;
#X obj 102 645 spigot;
#X obj 149 633 tgl 15 0 empty empty empty 17 7 0 10 -262144 -1 -1 0
1;
#X msg 1377 575 0 255 0 5 0 0 0 0 0 0 0 0 0 0 0 0 232 0 0 0 1 102 0
3 0 0 0 0 0 0 0 0 0 0 0 0 194 0 0 0 2 153 0 3 126 0 0 0 0 0 0 0 0 0
0 0 122 0 0 0 3 102 0 1 104 0 0 0 0 0 0 0 0 0 0 0 204 0 0 0 4 51 0
2 0 0 0 0 0 0 0 0 0 0 0 0 102 0 0 0 5 0 0 3 0 0 0 0 0 0 0 0 0 0 0 0
232 0 0 0 6 255 0 3 0 0 0 0 0 0 0 0 0 0 0 0 196 0 0 0 7 102 0 3 0 0
0 0 0 0 0 0 0 0 0 0 0 0 0 0, f 34;
#X connect 8 0 0 0;
#X connect 8 1 1 0;
#X connect 8 2 2 0;
#X connect 8 3 3 0;
#X connect 8 4 4 0;
#X connect 8 5 5 0;
#X connect 8 6 6 0;
#X connect 8 7 7 0;
#X connect 9 0 81 0;
#X connect 10 0 12 0;
#X connect 10 1 11 0;
#X connect 11 0 8 1;
#X connect 12 0 16 0;
#X connect 13 0 14 0;
#X connect 13 1 12 3;
#X connect 14 0 0 0;
#X connect 14 0 7 0;
#X connect 14 0 6 0;
#X connect 14 0 5 0;
#X connect 14 0 4 0;
#X connect 14 0 3 0;
#X connect 14 0 2 0;
#X connect 14 0 1 0;
#X connect 15 0 18 1;
#X connect 16 0 8 0;
#X connect 16 1 17 0;
#X connect 17 0 8 0;
#X connect 18 0 10 0;
#X connect 19 0 20 0;
#X connect 19 2 18 0;
#X connect 20 0 21 0;
#X connect 20 1 40 0;
#X connect 21 0 15 0;
#X connect 21 1 22 0;
#X connect 22 0 13 0;
#X connect 24 0 25 0;
#X connect 24 1 27 0;
#X connect 25 0 23 0;
#X connect 27 0 26 0;
#X connect 37 0 46 0;
#X connect 40 0 41 0;
#X connect 42 0 43 0;
#X connect 43 0 99 0;
#X connect 44 0 38 0;
#X connect 47 0 9 0;
#X connect 49 0 48 1;
#X connect 51 0 44 0;
#X connect 54 0 57 0;
#X connect 54 1 57 1;
#X connect 55 0 56 0;
#X connect 55 1 56 1;
#X connect 56 0 59 0;
#X connect 57 0 58 0;
#X connect 58 0 59 0;
#X connect 62 0 63 0;
#X connect 62 1 64 1;
#X connect 63 0 64 0;
#X connect 63 1 49 0;
#X connect 64 0 48 0;
#X connect 81 1 62 0;
#X connect 81 2 85 0;
#X connect 82 0 83 0;
#X connect 83 0 84 0;
#X connect 83 1 93 1;
#X connect 84 0 93 0;
#X connect 85 0 82 0;
#X connect 85 1 84 1;
#X connect 86 0 94 0;
#X connect 87 0 88 0;
#X connect 88 0 93 0;
#X connect 88 1 93 1;
#X connect 89 0 87 0;
#X connect 90 0 86 0;
#X connect 95 0 50 0;
#X connect 96 0 97 0;
#X connect 98 0 50 0;
#X connect 98 0 100 0;
#X connect 100 0 96 0;
#X connect 101 0 100 1;
#X connect 102 0 50 0;
#X coords 0 -1 1 1 649 500 1 100 100;
#X restore 217 -110 pd nanok;
#X obj 1247 -169 spigot;
#X obj 1247 -146 prepend set;
#X msg 683 525 0 255 0 2 0 0 0 0 0 0 0 0 0 0 0 0 0 0 0 0 1 102 0 2
0 0 0 0 0 0 0 0 0 0 0 0 0 0 0 0 2 153 0 2 126 0 0 0 0 0 0 0 0 0 0 0
0 0 0 0 3 102 0 2 104 0 0 0 0 0 0 0 0 0 0 0 0 0 0 0 4 51 0 2 0 0 0
0 0 0 0 0 0 0 0 0 0 0 0 0 5 0 0 2 0 0 0 0 0 0 0 0 0 0 0 0 0 0 0 0 6
255 0 2 0 0 0 0 0 0 0 0 0 0 0 0 0 0 0 0 7 102 0 2 0 0 0 0 0 0 0 0 0
0 0 0 110 0 104 0 0 0 0 0 0 0 0 0 0 0 0 0 0 0 0 0 0 0 0 0 0 0 0 0 0
0 0 0 0 0 0 0 0 0 0 0 0 0 0 0 0 0 0 0 0 0 0 0 0 0 0 0 0 0 0 0 0 0 0
0 0 0 0 0 0 0 0 0 0 0 0 0 0 0 0 0 0 0 0 0 0 0 0 0 0 0 0 0 0 0 0 0 0
0 0 0 0 0 0 0 0 0 0 0 0 0 0 0 0 0 0 0 0 0 0 0 0 0 0 0 0 0 0 0 0 0 0
0 0 0 0 0 0 0 0 0 0 0 0 0 0 0 0 0 0 0 0 0 0 0 0 0 0 0 0 0 0 0 0 0 0
0 0 0 0 0 0 0 0 0 0 0 0 0 0 0 0 0 0 0 0 0 0 0 0 0 0 0 0 0 0 0 0 0 0
0 0 0 0 0 0 0 0 0 0 0 0 0 0 0 0 0 0 0 0 0 0 0 0 0 0 0 0 0 0 0 0 0 0
0 0 0 0 0 0 0 0 0 0 0 0 0 0 0 0 0 0 0 0 0 0 0 0 0 0 0 0 0 0 0 0 0 0
0 0 0 0 0 0 0 0 0 0 0 0 0 0 0 0 0 0 0 0 0 0 0 0 0 0 0 0 0 0 0 0 0 0
0 0 0 0 0 0 0 0 0 0 0 0 0 0 0 0 0 0 0 0 0 0 0 0 0 0 0 0 0 0 0 0 0 0
0 0 0 0 0 0 0 0 0 0 0 0 0 0 0 0 0 0 0 0 0, f 42;
#X obj 1280 -193 tgl 15 0 empty empty empty 17 7 0 10 -262144 -1 -1
0 1;
#X obj 3 380 OpDmx_Universe 16;
#X obj 3 481 Merge 0 16 M116;
#X obj 3 522 Merged_Universe 116;
#X obj 626 -177 qlist;
#X obj 789 -163 text define -k init;
#A set MIDI_CONNECT-1 20 128 \; OpDmx_encoder_universe 0 1 0 \; OpDmx_encoder_IP_cible
connect 127 0 0 1 \; SpeedLim 2 \;;
#X msg 630 -206 bang;
#X obj 716 -205 text sequence init;
#X msg 858 -219 line 0 \, bang;
#X obj 716 -182 prepend add;
#X obj 316 643 prepend set;
#X msg 316 666 0 0 0 1 52 0 0 0 0 0 0 0 0 0 0 0 0 0 0 0 1 0 0 1 96
0 0 0 0 0 0 0 0 0 0 0 0 0 0 0 2 0 0 1 0 0 0 0 0 0 0 0 0 0 0 0 0 0 0
0 3 0 0 1 0 0 0 0 0 0 0 0 0 0 0 0 0 0 0 0 4 0 0 1 0 0 0 0 0 0 0 0 0
0 0 0 0 0 0 0 5 0 0 1 0 0 0 0 0 0 0 0 0 0 0 0 0 0 0 0 6 0 0 1 0 0 0
0 0 0 0 0 0 0 0 0 0 0 0 0 7 0 0 1 0 0 0 0 0 0 0 0 0 0 0 0 0 0 0 0 0
0 0 0 0 0 0 0 0 0 0 0 0 0 0 0 0 0 0 0 0 0 0 0 0 0 0 0 0 0 0 0 0 0 0
0 0 0 0 0 0 0 0 0 0 0 0 0 0 0 0 0 0 0 0 0 0 0 0 0 0 0 0 0 0 0 0 0 0
0 0 0 0 0 0 0 0 0 0 0 0 0 0 0 0 0 0 0 0 0 0 0 0 0 0 0 0 0 0 0 0 0 0
0 0 0 0 0 0 0 0 0 0 0 0 0 0 0 0 0 0 0 0 0 0 0 0 0 0 0 0 0 0 0 0 0 0
0 0 0 0 0 0 0 0 0 0 0 0 0 0 0 0 0 0 0 0 0 0 0 0 0 0 0 0 0 0 0 0 0 0
0 0 0 0 0 0 0 0 0 0 0 0 0 0 0 0 0 0 0 0 0 0 0 0 0 0 0 0 0 0 0 0 0 0
0 0 0 0 0 0 0 0 0 0 0 0 0 0 0 0 0 0 0 0 0 0 0 0 0 0 0 0 0 0 0 0 0 0
0 0 0 0 0 0 0 0 0 0 0 0 0 0 0 0 0 0 0 0 0 0 0 0 0 0 0 0 0 0 0 0 0 0
0 0 0 0 0 0 0 0 0 0 0 0 0 0 0 0 0 0 0 0 0 0 0 0 0 0 0 0 0 0 0 0 0 0
0 0 0 0 0 0 0 0 0 0 0 0 0 0 0 0 0 0 0 0 0 0 0 0 0 0 0 0 0 0 0 0 0 0
0 0 0 0 0 0 0 0 0 0 0, f 42;
#X obj 1077 -185 array get Universe-16;
#X obj 1077 -207 metro 20;
#X connect 4 0 3 0;
#X connect 6 0 16 0;
#X connect 7 0 34 0;
#X connect 9 0 11 0;
#X connect 11 0 10 0;
#X connect 13 0 12 0;
#X connect 15 0 9 0;
#X connect 18 0 19 0;
#X connect 19 0 20 0;
#X connect 21 0 18 1;
#X connect 22 0 16 0;
#X connect 27 0 25 0;
#X connect 28 0 30 0;
#X connect 28 1 27 0;
#X connect 29 0 28 0;
#X connect 30 0 25 0;
#X connect 31 0 32 0;
#X connect 33 0 18 0;
#X connect 33 0 13 0;
#X connect 33 0 16 0;
#X connect 34 0 33 0;
