#N canvas 695 253 450 300 10;
#X obj 132 64 receiveLR~ 1;
#X obj 132 94 receiveLR~ 2;
#X obj 132 124 receiveLR~ 3;
#X obj 312 63 loadbang;
#X msg 312 94 \; pd dsp 1;
#X obj 132 34 receiveLR~ 4;
#X obj 132 194 dac~ 1 2 3 4;
#X connect 0 0 1 0;
#X connect 0 1 1 1;
#X connect 1 0 2 0;
#X connect 1 1 2 1;
#X connect 2 0 6 0;
#X connect 2 0 6 2;
#X connect 2 1 6 1;
#X connect 2 1 6 3;
#X connect 3 0 4 0;
#X connect 5 0 0 0;
#X connect 5 1 0 1;
