#N canvas 5 61 1665 990 10;
#X obj 100 100 cnv 15 99 149 empty empty ESIuDJ6 5 8 2 10 -204800 -66577
0;
#X obj 17 10 loadbang;
#X msg 17 41 \; pd dsp 1;
#X obj 650 702 dac~ 1 2 3 4 5 6;
#X obj 771 582 *~;
#X obj 811 562 *~;
#X obj 691 582 *~;
#X obj 731 562 *~;
#X obj 145 116 vsl 15 128 0 1 0 1 empty empty empty 0 -9 0 10 -262144
-1 -1 12700 1;
#X obj 166 116 vsl 15 128 0 1 0 1 empty empty empty 0 -9 0 10 -262144
-1 -1 12700 1;
#X obj 125 116 vsl 15 128 0 1 0 1 empty empty empty 0 -9 0 10 -262144
-1 -1 0 1;
#X obj 718 25 receiveLRmixer~ 4;
#X obj 328 25 receiveLRmixer~ 1;
#X obj 458 25 receiveLRmixer~ 2;
#X obj 588 25 receiveLRmixer~ 3;
#X obj 105 41 inlet;
#X obj 145 41 inlet;
#X obj 98 78 / 128;
#X obj 148 78 / 128;
#X obj 848 25 receiveLRmixer~ 5;
#X obj 978 25 receiveLRmixer~ 6;
#X obj 1107 30 receiveLRmixer~ 7;
#X obj 205 41 inlet;
#X obj 208 78 / 128;
#X obj 1249 32 receiveLRmixer~ 8;
#X obj 73 403 r out_master_level1;
#X obj 105 423 r out_master_level2;
#X obj 135 443 r out_master_level3;
#X obj 601 582 *~;
#X obj 641 562 *~;
#X connect 4 0 3 4;
#X connect 5 0 3 5;
#X connect 6 0 3 2;
#X connect 7 0 3 3;
#X connect 8 0 6 1;
#X connect 8 0 7 1;
#X connect 9 0 4 1;
#X connect 9 0 5 1;
#X connect 10 0 28 1;
#X connect 10 0 29 1;
#X connect 11 2 6 0;
#X connect 11 3 7 0;
#X connect 11 4 4 0;
#X connect 11 5 5 0;
#X connect 12 2 6 0;
#X connect 12 3 7 0;
#X connect 12 4 4 0;
#X connect 12 5 5 0;
#X connect 13 2 6 0;
#X connect 13 3 7 0;
#X connect 13 4 4 0;
#X connect 13 5 5 0;
#X connect 14 2 6 0;
#X connect 14 3 7 0;
#X connect 14 4 4 0;
#X connect 14 5 5 0;
#X connect 15 0 17 0;
#X connect 16 0 18 0;
#X connect 17 0 10 0;
#X connect 18 0 8 0;
#X connect 19 2 6 0;
#X connect 19 3 7 0;
#X connect 19 4 4 0;
#X connect 19 5 5 0;
#X connect 20 2 6 0;
#X connect 20 3 7 0;
#X connect 20 4 4 0;
#X connect 20 5 5 0;
#X connect 21 0 28 0;
#X connect 21 1 29 0;
#X connect 22 0 23 0;
#X connect 23 0 9 0;
#X connect 24 0 28 0;
#X connect 24 1 29 0;
#X connect 25 0 17 0;
#X connect 26 0 18 0;
#X connect 27 0 9 0;
#X connect 28 0 3 0;
#X connect 29 0 3 1;
#X coords 0 -1 1 1 100 150 2 100 100;
