#N canvas 0 96 1920 984 10;
#X obj -139 649 receive~ Left-\$1;
#X obj 22 664 *~;
#X obj 387 664 *~;
#X obj 37 586 line;
#X obj 402 586 line;
#X msg 58 609 set \$1;
#X msg 422 609 set \$1;
#X obj 8 64 list split 3;
#X obj 6 717 +~;
#X obj 371 717 +~;
#X obj 8 89 unpack f f f;
#X obj 8 142 pack;
#X obj 56 142 pack;
#X obj 373 80 list split 3;
#X obj 373 105 unpack f f f;
#X obj 373 158 pack;
#X obj 421 158 pack;
#X obj 56 414 t f f;
#X obj 421 414 t f f;
#X obj 7 504 *~;
#X obj 372 504 *~;
#X obj 57 366 line;
#X obj 421 366 line;
#X msg 107 394 set \$1;
#X msg 441 389 set \$1;
#X obj -158 489 receive~ Right-\$1;
#X obj 139 109 vsl 10 38 0 1 0 0 empty canvas_player_Stereo_master_R_\$2_1_\$1
RL 0 -5 0 6 -66577 -262144 -1 0 1;
#X obj 149 109 vsl 10 38 0 1 0 0 empty canvas_player_Stereo_master_R_\$2_2_\$1
RR 0 -5 0 6 -66577 -262144 -1 3671 1;
#X obj 101 109 vsl 10 38 0 1 0 0 empty canvas_player_Stereo_master_L_\$2_1_\$1
LL 0 -5 0 6 -66577 -262144 -1 3671 1;
#X obj 111 109 vsl 10 38 0 1 0 0 empty canvas_player_Stereo_master_L_\$2_2_\$1
LR 0 -5 0 6 -66577 -262144 -1 0 1;
#X obj 8 13 inlet;
#X obj 97 338 receive player_Stereo_mixer_R_\$2_1_\$1;
#X obj 461 338 receive player_Stereo_mixer_R_\$2_2_\$1;
#X obj 442 558 receive player_Stereo_mixer_L_\$2_2_\$1;
#X obj 77 558 receive player_Stereo_mixer_L_\$2_1_\$1;
#X obj 7 745 throw~ out_\$2_1;
#X obj 370 745 throw~ out_\$2_2;
#X obj 122 107 bng 16 250 50 0 empty empty \$2 6 8 0 10 -66577 -258113
-262144;
#X obj 113 32 r player_Stereo_mixer3-unit-store-\$1-\$2;
#X obj 804 319 prepend player_Stereo_mixer_R_\$2_1_\$1;
#X obj 1066 314 prepend player_Stereo_mixer_R_\$2_2_\$1;
#X obj 1047 534 prepend player_Stereo_mixer_L_\$2_2_\$1;
#X obj 784 539 prepend player_Stereo_mixer_L_\$2_1_\$1;
#X obj 869 170 r globaltimeaudio;
#X obj 869 193 * 100;
#X obj 771 71 t b b b b;
#X obj 694 208 f;
#X obj 1022 220 f;
#X obj 744 459 f;
#X obj 996 472 f;
#X obj 802 266 pack;
#X obj 1057 262 pack;
#X obj 1050 503 pack;
#X obj 795 507 pack;
#X obj 868 644 s to_cue;
#X connect 0 0 1 0;
#X connect 0 0 2 0;
#X connect 1 0 8 1;
#X connect 2 0 9 1;
#X connect 3 0 5 0;
#X connect 3 0 1 1;
#X connect 3 0 48 1;
#X connect 4 0 6 0;
#X connect 4 0 2 1;
#X connect 4 0 49 1;
#X connect 5 0 28 0;
#X connect 6 0 29 0;
#X connect 7 0 10 0;
#X connect 7 1 13 0;
#X connect 8 0 35 0;
#X connect 9 0 36 0;
#X connect 10 0 11 0;
#X connect 10 1 12 0;
#X connect 10 2 12 1;
#X connect 10 2 11 1;
#X connect 11 0 3 0;
#X connect 12 0 21 0;
#X connect 13 0 14 0;
#X connect 14 0 15 0;
#X connect 14 1 16 0;
#X connect 14 2 16 1;
#X connect 14 2 15 1;
#X connect 15 0 4 0;
#X connect 16 0 22 0;
#X connect 17 0 19 1;
#X connect 18 0 20 1;
#X connect 19 0 8 0;
#X connect 20 0 9 0;
#X connect 21 0 17 0;
#X connect 21 0 23 0;
#X connect 21 0 19 1;
#X connect 21 0 46 1;
#X connect 22 0 18 0;
#X connect 22 0 24 0;
#X connect 22 0 20 1;
#X connect 22 0 47 1;
#X connect 23 0 26 0;
#X connect 24 0 27 0;
#X connect 25 0 19 0;
#X connect 25 0 20 0;
#X connect 26 0 21 0;
#X connect 26 0 46 1;
#X connect 27 0 22 0;
#X connect 27 0 47 1;
#X connect 28 0 3 0;
#X connect 28 0 48 1;
#X connect 29 0 4 0;
#X connect 29 0 49 1;
#X connect 30 0 7 0;
#X connect 31 0 21 0;
#X connect 32 0 22 0;
#X connect 33 0 4 0;
#X connect 34 0 3 0;
#X connect 37 0 45 0;
#X connect 38 0 37 0;
#X connect 39 0 54 0;
#X connect 40 0 54 0;
#X connect 41 0 54 0;
#X connect 42 0 54 0;
#X connect 43 0 44 0;
#X connect 44 0 50 1;
#X connect 44 0 51 1;
#X connect 44 0 52 1;
#X connect 44 0 53 1;
#X connect 45 0 47 0;
#X connect 45 1 46 0;
#X connect 45 2 49 0;
#X connect 45 3 48 0;
#X connect 46 0 50 0;
#X connect 47 0 51 0;
#X connect 48 0 53 0;
#X connect 49 0 52 0;
#X connect 50 0 39 0;
#X connect 51 0 40 0;
#X connect 52 0 41 0;
#X connect 53 0 42 0;
#X coords 0 -1 1 1 60 50 2 100 100;
