#N canvas 480 126 1037 852 10;
#X obj 101 601 cnv 15 148 198 empty empty Spatial-editor 20 12 0 14
-191407 -258113 0;
#X obj 702 773 send;
#X msg 723 748 symbol player_Stereo_mixer-\$1;
#X obj 723 537 vradio 15 1 0 8 empty Player-\$0 Player-\$0 0 -8 0 10
-262144 -1 -1 0;
#X obj 723 662 + 1;
#X floatatom 674 65 5 0 30000 0 fade_time-#0 fade_time-#0 -;
#X floatatom 310 473 5 1 15000 0 delay_time-#0 delay_time-#0 -;
#X obj 340 67 tgl 15 0 empty L1-\$0 L1-\$0 17 7 0 10 -262144 -1 -1
0 1;
#X obj 368 67 tgl 15 0 empty R1-\$0 R1-\$0 17 7 0 10 -262144 -1 -1
0 1;
#X obj 340 193 pack f f f;
#X obj 410 67 tgl 15 0 empty L2-\$0 L2-\$0 17 7 0 10 -262144 -1 -1
0 1;
#X obj 438 67 tgl 15 0 empty R2-\$0 R2-\$0 17 7 0 10 -262144 -1 -1
0 1;
#X obj 410 193 pack f f f;
#X obj 480 67 tgl 15 0 empty L3-\$0 L3-\$0 17 7 0 10 -262144 -1 -1
0 1;
#X obj 508 67 tgl 15 0 empty R3-\$0 R3-\$0 17 7 0 10 -262144 -1 -1
0 1;
#X obj 480 193 pack f f f;
#X obj 550 67 tgl 15 0 empty L4-\$0 L4-\$0 17 7 0 10 -262144 -1 -1
0 1;
#X obj 578 67 tgl 15 0 empty R4-\$0 R4-\$0 17 7 0 10 -262144 -1 -1
0 1;
#X obj 550 193 pack f f f;
#X obj 108 24 bng 15 250 50 0 empty add_step-\$0 add_step-\$0 17 7
0 10 -262144 -1 -1;
#X msg 247 71 set;
#X msg 247 263;
#X obj 340 225 prepend add2;
#X obj 674 177 * 1000;
#X obj 108 55 t b b b b b b;
#X obj 247 552 list append;
#X obj 310 525 * 1000;
#X obj 779 386 print WTF_spatial-editor;
#X obj 247 346 prepend add2;
#X msg 247 408;
#X msg 145 392 set;
#X obj 145 320 bng 15 250 50 0 empty Clear-\$0 Clear-\$0 17 7 0 10
-262144 -1 -1;
#X msg 172 370 CLEAR;
#X obj 145 340 t b b;
#X obj 12 24 bng 15 250 50 0 empty send-static-\$0 send-static-\$0
17 7 0 10 -262144 -1 -1;
#X obj 16 395 bng 15 250 50 0 empty send-dynamic-\$0 send-dynamic-\$0
17 7 0 10 -262144 -1 -1;
#X obj 566 568 send \$0-output;
#X obj 566 596 receive \$0-output;
#X obj 566 806 send to_cue;
#X obj 173 636 tgl 15 0 L1-\$0 empty L1 17 7 0 10 -262144 -1 -1 0 1
;
#X obj 211 636 tgl 15 0 R1-\$0 empty R1 17 7 0 10 -262144 -1 -1 0 1
;
#X obj 173 651 tgl 15 0 L2-\$0 empty L2 17 7 0 10 -262144 -1 -1 0 1
;
#X obj 211 651 tgl 15 0 R2-\$0 empty R2 17 7 0 10 -262144 -1 -1 0 1
;
#X obj 173 666 tgl 15 0 L3-\$0 empty L3 17 7 0 10 -262144 -1 -1 0 1
;
#X obj 211 666 tgl 15 0 R3-\$0 empty R3 17 7 0 10 -262144 -1 -1 0 1
;
#X obj 173 681 tgl 15 0 L4-\$0 empty L4 17 7 0 10 -262144 -1 -1 0 1
;
#X obj 211 681 tgl 15 0 R4-\$0 empty R4 17 7 0 10 -262144 -1 -1 0 1
;
#X obj 110 636 vradio 15 1 1 10 Player-\$0 Player-\$0-lbl Player-\$0
0 -8 0 10 -262144 -1 -1 0;
#X obj 133 767 bng 15 250 50 0 send-dynamic-\$0 empty send-dynamic
17 7 0 10 -262144 -1 -1;
#X obj 133 782 bng 15 250 50 0 Clear-\$0 empty Clear 17 7 0 10 -262144
-1 -1;
#X obj 133 752 bng 15 250 50 0 add_step-\$0 empty add_step 17 7 0 10
-262144 -1 -1;
#X obj 133 715 bng 15 250 50 0 send-static-\$0 empty send-static 17
7 0 10 -262144 -1 -1;
#X floatatom 133 735 5 1 15000 1 delay_time(s) - delay_time-#0;
#X floatatom 133 698 5 0 30000 1 fade_time(s) - fade_time-#0;
#X msg 751 704 \; Player-\$1-lbl label Player-\$2;
#X obj 751 678 prepend \$0;
#X obj 566 764 list prepend;
#X connect 2 0 1 1;
#X connect 2 0 56 1;
#X connect 3 0 4 0;
#X connect 4 0 2 0;
#X connect 4 0 55 0;
#X connect 5 0 23 0;
#X connect 6 0 26 0;
#X connect 7 0 9 0;
#X connect 8 0 9 1;
#X connect 9 0 22 0;
#X connect 10 0 12 0;
#X connect 11 0 12 1;
#X connect 12 0 22 0;
#X connect 13 0 15 0;
#X connect 14 0 15 1;
#X connect 15 0 22 0;
#X connect 16 0 18 0;
#X connect 17 0 18 1;
#X connect 18 0 22 0;
#X connect 19 0 24 0;
#X connect 20 0 21 0;
#X connect 21 0 28 0;
#X connect 21 0 27 0;
#X connect 21 0 36 0;
#X connect 22 0 21 0;
#X connect 23 0 18 2;
#X connect 23 0 15 2;
#X connect 23 0 12 2;
#X connect 23 0 9 2;
#X connect 24 0 21 0;
#X connect 24 1 18 0;
#X connect 24 2 15 0;
#X connect 24 3 12 0;
#X connect 24 4 9 0;
#X connect 24 5 20 0;
#X connect 25 0 27 0;
#X connect 25 0 36 0;
#X connect 26 0 25 1;
#X connect 28 0 29 0;
#X connect 29 0 25 0;
#X connect 30 0 29 0;
#X connect 31 0 33 0;
#X connect 32 0 27 0;
#X connect 33 0 30 0;
#X connect 33 1 32 0;
#X connect 34 0 24 0;
#X connect 35 0 29 0;
#X connect 37 0 1 0;
#X connect 37 0 56 0;
#X connect 55 0 54 0;
#X connect 56 0 38 0;
#X coords 0 -1 1 1 150 200 2 100 600;
