#N canvas 2537 100 1037 941 10;
#X obj 101 601 cnv 15 248 198 empty empty Spatial-editor 20 12 0 14
-191407 -258113 0;
#X obj 702 773 send;
#X msg 723 748 symbol player_Stereo_mixer-\$1;
#X obj 723 537 vradio 15 1 0 8 empty Player-\$0 Player-\$0 0 -8 0 10
-262144 -1 -1 6;
#X obj 723 662 + 1;
#X floatatom 674 65 5 0 30000 0 fade_time-#0 fade_time-#0 -;
#X floatatom 310 473 5 1 15000 0 delay_time-#0 delay_time-#0 -;
#X obj 340 193 pack f f f;
#X obj 410 193 pack f f f;
#X obj 480 193 pack f f f;
#X obj 550 193 pack f f f;
#X obj 108 24 bng 15 250 50 0 empty add_step-\$0 add_step-\$0 17 7
0 10 -262144 -1 -1;
#X msg 247 71 set;
#X msg 247 263;
#X obj 340 225 prepend add2;
#X obj 674 177 * 1000;
#X obj 108 55 t b b b b b b;
#X obj 247 552 list append;
#X obj 310 525 * 1000;
#X obj 779 386 print WTF_spatial-editor;
#X obj 247 346 prepend add2;
#X msg 247 408;
#X msg 145 392 set;
#X obj 145 320 bng 15 250 50 0 empty Clear-\$0 Clear-\$0 17 7 0 10
-262144 -1 -1;
#X msg 172 370 CLEAR;
#X obj 145 340 t b b;
#X obj 12 24 bng 15 250 50 0 empty send-static-\$0 send-static-\$0
17 7 0 10 -262144 -1 -1;
#X obj 16 395 bng 15 250 50 0 empty send-dynamic-\$0 send-dynamic-\$0
17 7 0 10 -262144 -1 -1;
#X obj 566 568 send \$0-output;
#X obj 566 596 receive \$0-output;
#X obj 566 806 send to_cue;
#X obj 250 716 tgl 15 0 empty empty L1 17 7 0 10 -262144 -1 -1 0 8
;
#X obj 288 716 tgl 15 0 empty empty R1 17 7 0 10 -262144 -1 -1 0 8
;
#X obj 250 731 tgl 15 0 empty empty L2 17 7 0 10 -262144 -1 -1 0 8
;
#X obj 288 731 tgl 15 0 empty empty R2 17 7 0 10 -262144 -1 -1 0 8
;
#X obj 250 746 tgl 15 0 empty empty L3 17 7 0 10 -262144 -1 -1 0 8
;
#X obj 288 746 tgl 15 0 empty empty R3 17 7 0 10 -262144 -1 -1 0 8
;
#X obj 250 761 tgl 15 0 empty empty L4 17 7 0 10 -262144 -1 -1 0 8
;
#X obj 288 761 tgl 15 0 empty empty R4 17 7 0 10 -262144 -1 -1 0 8
;
#X obj 110 636 vradio 15 1 1 10 Player-\$0 Player-\$0-lbl Player-7
0 -8 0 10 -262144 -1 -1 6;
#X obj 133 767 bng 15 250 50 0 send-dynamic-\$0 empty send-dynamic
17 7 0 10 -262144 -1 -1;
#X obj 133 782 bng 15 250 50 0 Clear-\$0 empty Clear 17 7 0 10 -262144
-1 -1;
#X obj 133 752 bng 15 250 50 0 add_step-\$0 empty add_step 17 7 0 10
-262144 -1 -1;
#X obj 133 715 bng 15 250 50 0 send-static-\$0 empty send-static 17
7 0 10 -262144 -1 -1;
#X floatatom 133 735 5 1 15000 1 delay_time(s) - delay_time-#0;
#X floatatom 133 698 5 0 30000 1 fade_time(s) - fade_time-#0;
#X msg 751 704 \; Player-\$1-lbl label Player-\$2;
#X obj 751 678 prepend \$0;
#X obj 566 764 list prepend;
#X obj 148 638 hradio 10 1 0 9 empty empty empty 0 -8 0 10 -262144
-1 -1 0;
#X obj 148 648 hradio 10 1 0 9 empty empty empty 0 -8 0 10 -262144
-1 -1 0;
#X obj 148 658 hradio 10 1 0 9 empty empty empty 0 -8 0 10 -262144
-1 -1 0;
#X obj 148 668 hradio 10 1 0 9 empty empty empty 0 -8 0 10 -262144
-1 -1 0;
#X obj 248 638 hradio 10 1 0 9 empty empty empty 0 -8 0 10 -262144
-1 -1 0;
#X obj 248 648 hradio 10 1 0 9 empty empty empty 0 -8 0 10 -262144
-1 -1 0;
#X obj 248 658 hradio 10 1 0 9 empty empty empty 0 -8 0 10 -262144
-1 -1 0;
#X obj 248 668 hradio 10 1 0 9 empty empty empty 0 -8 0 10 -262144
-1 -1 0;
#X obj 306 839 / 8;
#X obj 306 859 / 8;
#X obj 306 879 / 8;
#X obj 306 899 / 8;
#X obj 380 834 / 8;
#X obj 380 854 / 8;
#X obj 380 874 / 8;
#X obj 380 894 / 8;
#X connect 2 0 1 1;
#X connect 2 0 48 1;
#X connect 3 0 4 0;
#X connect 4 0 2 0;
#X connect 4 0 47 0;
#X connect 5 0 15 0;
#X connect 6 0 18 0;
#X connect 7 0 14 0;
#X connect 8 0 14 0;
#X connect 9 0 14 0;
#X connect 10 0 14 0;
#X connect 11 0 16 0;
#X connect 12 0 13 0;
#X connect 13 0 20 0;
#X connect 13 0 19 0;
#X connect 13 0 28 0;
#X connect 14 0 13 0;
#X connect 15 0 10 2;
#X connect 15 0 9 2;
#X connect 15 0 8 2;
#X connect 15 0 7 2;
#X connect 16 0 13 0;
#X connect 16 1 10 0;
#X connect 16 2 9 0;
#X connect 16 3 8 0;
#X connect 16 4 7 0;
#X connect 16 5 12 0;
#X connect 17 0 19 0;
#X connect 17 0 28 0;
#X connect 18 0 17 1;
#X connect 20 0 21 0;
#X connect 21 0 17 0;
#X connect 22 0 21 0;
#X connect 23 0 25 0;
#X connect 24 0 19 0;
#X connect 25 0 22 0;
#X connect 25 1 24 0;
#X connect 26 0 16 0;
#X connect 27 0 21 0;
#X connect 29 0 1 0;
#X connect 29 0 48 0;
#X connect 31 0 49 0;
#X connect 32 0 53 0;
#X connect 33 0 50 0;
#X connect 34 0 54 0;
#X connect 35 0 51 0;
#X connect 36 0 55 0;
#X connect 37 0 52 0;
#X connect 38 0 56 0;
#X connect 47 0 46 0;
#X connect 48 0 30 0;
#X connect 49 0 57 0;
#X connect 50 0 58 0;
#X connect 51 0 59 0;
#X connect 52 0 60 0;
#X connect 53 0 61 0;
#X connect 54 0 62 0;
#X connect 55 0 63 0;
#X connect 56 0 64 0;
#X connect 57 0 7 0;
#X connect 58 0 8 0;
#X connect 59 0 9 0;
#X connect 60 0 10 0;
#X connect 61 0 7 1;
#X connect 62 0 8 1;
#X connect 63 0 9 1;
#X connect 64 0 10 1;
#X coords 0 -1 1 1 250 200 2 100 600;
