#N canvas 0 74 1920 1006 10;
#X obj 101 101 cnv 15 648 48 empty canvas_player_stereo_\$1 empty 5
7 1 14 -191407 -258699 0;
#X obj 176 1223 receive~ Left-\$1;
#X obj 382 1439 throw~ out_1_1;
#X obj 745 1439 throw~ out_1_2;
#X obj 110 103 hsl 64 10 0 1 0 0 empty canvas_player_Stereo_master_L_1_1_\$1
_\$1_L1-L -2 5 0 10 -159808 -66577 -261682 0 1;
#X obj 110 113 hsl 64 10 0 1 0 0 empty canvas_player_Stereo_master_L_1_2_\$1
_\$1_R1-L -2 5 0 10 -159808 -258113 -261682 0 1;
#X obj 397 1238 *~;
#X obj 762 1238 *~;
#X obj 745 80 prepend \$1;
#X obj 745 55 bng 15 250 50 0 empty NAME-\$0 NAME-\$0 17 7 0 10 -191407
-159808 -1;
#X obj 261 103 hsl 64 10 0 1 0 0 empty canvas_player_Stereo_master_L_2_1_\$1
_\$1_L2-L -2 5 0 10 -159808 -66577 -261682 0 1;
#X obj 261 113 hsl 64 10 0 1 0 0 empty canvas_player_Stereo_master_L_2_2_\$1
_\$1_R2-L -2 5 0 10 -159808 -258113 -261682 0 1;
#X obj 1114 1238 *~;
#X obj 1479 1240 *~;
#X obj 412 1060 line;
#X obj 777 1060 line;
#X obj 1129 1057 line;
#X obj 1494 1057 line;
#X obj 1572 85 prepend \$1;
#X obj 1462 1441 throw~ out_2_2;
#X obj 1099 1439 throw~ out_2_1;
#X obj 1572 62 tgl 15 0 empty empty empty 17 7 0 10 -262144 -1 -1 0
1;
#X msg 433 1083 set \$1;
#X msg 797 1083 set \$1;
#X msg 1149 1080 set \$1;
#X msg 1514 1080 set \$1;
#X obj 376 258 receive player_Stereo_mixer-\$1;
#X obj 140 469 tgl 15 0 empty toogle-\$0 NAME 17 7 0 10 -99865 -262144
-99865 0 1;
#X obj 69 529 route 0;
#X obj 69 622 prepend \$0;
#X msg 69 645 \; view-value-\$1 0 \; toogle-\$1 label Value \; NAME-\$1
1;
#X obj 108 552 prepend \$0;
#X msg 108 575 \; view-value-\$1 1 \; toogle-\$1 label NAME \;;
#X obj 1091 85 prepend \$1;
#X obj 1091 64 bng 15 250 50 0 empty LR-1-\$0 LR-1-\$0 17 7 0 10 -159808
-258113 -1;
#X obj 140 453 bng 15 250 50 0 LR-1-\$0 empty LR-1 17 7 0 10 -159808
-258113 -99865;
#X obj 1321 85 prepend \$1;
#X obj 1321 64 bng 15 250 50 0 empty LR-2-\$0 LR-2-\$0 17 7 0 10 -159808
-258113 -1;
#X obj 140 484 bng 15 250 50 0 LR-2-\$0 empty LR-2 17 7 0 10 -159808
-258113 -99865;
#N canvas 277 349 1336 948 machinerie 0;
#X obj 259 161 inlet;
#X obj 286 681 outlet;
#X obj 58 293 list;
#X obj 171 352 delay;
#X obj 286 387 qlist;
#X msg 340 371 rewind;
#X msg 286 319 clear;
#X msg 446 371 next;
#X obj 205 368 bang;
#X obj 24 371 prepend add;
#X obj 259 254 t a b;
#X obj 171 407 bng 15 250 50 0 empty empty empty 17 7 0 10 -262144
-1 -1;
#X obj 93 293 t b b f;
#X obj 313 410 t b b;
#X obj 313 435 delay 1;
#X msg 132 346 stop;
#X obj 323 29 tgl 15 0 empty empty empty 17 7 0 10 -262144 -1 -1 0
1;
#X text 320 259 lvl_L_1_1 lvl_R_1_1 time_1_1 lvl_L_1_2 lvl_R_1_2 time_1_2
lvl_L_2_1 lvl_R_2_1 time_2_1 lvl_L_2_2 lvl_R_2_2 time_2_2, f 118;
#X text 320 209 lvl_L_1_1 lvl_R_1_1 time_1_1 lvl_L_1_2 lvl_R_1_2 time_1_2
lvl_L_2_1 lvl_R_2_1 time_2_1 lvl_L_2_2 lvl_R_2_2 time_2_2 [...] lvl_L_1_1
lvl_R_1_1 time_1_1 lvl_L_1_2 lvl_R_1_2 time_1_2 lvl_L_2_1 lvl_R_2_1
time_2_1 lvl_L_2_2 lvl_R_2_2 time_2_2 "time next", f 138;
#X obj 24 270 list split 48;
#X obj 159 494 print;
#X obj 132 315 route 0 1;
#X msg 323 100 1 1 1000 1 1 2000 1 1 3000 1 1 4000 0 0 1000 0 0 2000
0 0 3000 0 0 4000 1 1 1000 1 1 2000 1 1 3000 1 1 4000 0 0 1000 0 0
2000 0 0 3000 0 0 4000 1 1 1000 1 1 2000 1 1 3000 1 1 4000 0 0 1000
0 0 2000 0 0 3000 0 0 4000 1 1 1000 1 1 2000 1 1 3000 1 1 4000 0 0
1000 0 0 2000 0 0 3000 0 0 4000 4000, f 137;
#X msg 323 54 \$1 \$1 1000 \$1 \$1 2000 \$1 \$1 3000 \$1 \$1 4000 \$1
\$1 1000 \$1 \$1 2000 \$1 \$1 3000 \$1 \$1 4000 \$1 \$1 1000 \$1 \$1
2000 \$1 \$1 3000 \$1 \$1 4000 \$1 \$1 1000 \$1 \$1 2000 \$1 \$1 3000
\$1 \$1 4000;
#X connect 0 0 10 0;
#X connect 2 0 19 0;
#X connect 3 0 8 0;
#X connect 3 0 11 0;
#X connect 3 0 7 0;
#X connect 4 0 1 0;
#X connect 4 1 13 0;
#X connect 5 0 4 0;
#X connect 6 0 4 0;
#X connect 7 0 4 0;
#X connect 8 0 3 0;
#X connect 9 0 4 0;
#X connect 10 0 19 0;
#X connect 10 1 6 0;
#X connect 12 0 7 0;
#X connect 12 2 20 0;
#X connect 12 2 21 0;
#X connect 13 0 14 0;
#X connect 13 1 5 0;
#X connect 14 0 7 0;
#X connect 15 0 3 0;
#X connect 16 0 23 0;
#X connect 19 0 9 0;
#X connect 19 1 2 0;
#X connect 19 2 12 0;
#X connect 21 0 15 0;
#X connect 21 2 3 0;
#X connect 22 0 10 0;
#X connect 23 0 10 0;
#X restore 376 287 pd machinerie;
#X obj 452 1032 receive player_Stereo_mixer_L_1_1_\$1;
#X obj 817 1032 receive player_Stereo_mixer_L_1_2_\$1;
#X obj 1169 1029 receive player_Stereo_mixer_L_2_1_\$1;
#X obj 1534 1029 receive player_Stereo_mixer_L_2_2_\$1;
#X obj 383 458 list split 3;
#X obj 381 1411 +~;
#X obj 746 1411 +~;
#X obj 1098 1411 +~;
#X obj 1463 1413 +~;
#X obj 383 483 unpack f f f;
#X obj 383 536 pack;
#X obj 431 536 pack;
#X obj 748 474 list split 3;
#X obj 748 499 unpack f f f;
#X obj 748 552 pack;
#X obj 796 552 pack;
#X obj 1100 490 list split 3;
#X obj 1100 515 unpack f f f;
#X obj 1100 568 pack;
#X obj 1148 568 pack;
#X obj 1465 506 list split 3;
#X obj 1465 531 unpack f f f;
#X obj 1465 594 pack;
#X obj 1513 594 pack;
#X obj 431 808 t f f;
#X obj 796 808 t f f;
#X obj 382 938 *~;
#X obj 747 938 *~;
#X obj 1148 808 t f f;
#X obj 1513 810 t f f;
#X obj 1099 938 *~;
#X obj 1464 940 *~;
#X obj 432 760 line;
#X obj 796 760 line;
#X obj 1148 757 line;
#X obj 1513 757 line;
#X msg 452 783 set \$1;
#X msg 816 783 set \$1;
#X msg 1168 780 set \$1;
#X msg 1533 780 set \$1;
#X obj 157 923 receive~ Right-\$1;
#X obj 472 732 receive player_Stereo_mixer_R_1_1_\$1;
#X obj 836 732 receive player_Stereo_mixer_R_1_2_\$1;
#X obj 1188 729 receive player_Stereo_mixer_R_2_1_\$1;
#X obj 1553 729 receive player_Stereo_mixer_R_2_2_\$1;
#X obj 181 103 hsl 64 10 0 1 0 0 empty canvas_player_Stereo_master_R_1_1_\$1
_\$1_L1-R -2 5 0 10 -159808 -66577 -261682 0 1;
#X obj 181 113 hsl 64 10 0 1 0 0 empty canvas_player_Stereo_master_R_1_2_\$1
_\$1_R1-R -2 5 0 10 -159808 -258113 -261682 0 1;
#X obj 332 103 hsl 64 10 0 1 0 0 empty canvas_player_Stereo_master_R_2_1_\$1
_\$1_L2-R -2 5 0 10 -159808 -66577 -261682 0 1;
#X obj 332 113 hsl 64 10 0 1 0 0 empty canvas_player_Stereo_master_R_2_2_\$1
_\$1_R2-R -2 5 0 10 -159808 -258113 -261682 0 1;
#X msg 1321 107 \; player_Stereo_mixer_L_1_1_\$1 0 0 \; player_Stereo_mixer_L_1_2_\$1
0 0 \; player_Stereo_mixer_L_2_1_\$1 1 0 \; player_Stereo_mixer_L_2_2_\$1
0 0 \; player_Stereo_mixer_R_1_1_\$1 0 0 \; player_Stereo_mixer_R_1_2_\$1
0 0 \; player_Stereo_mixer_R_2_1_\$1 0 0 \; player_Stereo_mixer_R_2_2_\$1
1 0 \;;
#X msg 1091 107 \; player_Stereo_mixer_L_1_1_\$1 1 0 \; player_Stereo_mixer_L_1_2_\$1
0 0 \; player_Stereo_mixer_L_2_1_\$1 0 0 \; player_Stereo_mixer_L_2_2_\$1
0 0 \; player_Stereo_mixer_R_1_1_\$1 0 0 \; player_Stereo_mixer_R_1_2_\$1
1 0 \; player_Stereo_mixer_R_2_1_\$1 0 0 \; player_Stereo_mixer_R_2_2_\$1
0 0 \;;
#X text 711 12 gestionnaire de diffusion IN 1*Stereo to OUT 2*Stereo
;
#X text 717 29 automation de boucles de mouvement sonore;
#X msg 745 107 \; canvas_player_Stereo_master_L_1_1_\$1 label _#1_L1-L
\; canvas_player_Stereo_master_L_1_2_\$1 label _#1_R1-L \; canvas_player_Stereo_master_L_2_1_\$1
label _#1_L2-L \; canvas_player_Stereo_master_L_2_2_\$1 label _#1_R2-L
\; canvas_player_Stereo_master_R_1_1_\$1 label _#1_L1-R \; canvas_player_Stereo_master_R_1_2_\$1
label _#1_R1-R \; canvas_player_Stereo_master_R_2_1_\$1 label _#1_L2-R
\; canvas_player_Stereo_master_R_2_2_\$1 label _#1_R2-R;
#X obj 412 103 hsl 64 10 0 1 0 0 empty canvas_player_Stereo_master_L_3_1_\$1
_\$1_L3-L -2 5 0 10 -159808 -66577 -261682 0 1;
#X obj 412 113 hsl 64 10 0 1 0 0 empty canvas_player_Stereo_master_L_3_2_\$1
_\$1_R3-L -2 5 0 10 -159808 -258113 -261682 0 1;
#X obj 2083 1238 *~;
#X obj 2448 1238 *~;
#X obj 563 103 hsl 64 10 0 1 0 0 empty canvas_player_Stereo_master_L_4_1_\$1
_\$1_L4-L -2 5 0 10 -159808 -66577 -261682 0 1;
#X obj 563 113 hsl 64 10 0 1 0 0 empty canvas_player_Stereo_master_L_4_2_\$1
_\$1_R4-L -2 5 0 10 -159808 -258113 -261682 0 1;
#X obj 2800 1238 *~;
#X obj 3165 1240 *~;
#X obj 2098 1060 line;
#X obj 2463 1060 line;
#X obj 2815 1057 line;
#X obj 3180 1057 line;
#X msg 2119 1083 set \$1;
#X msg 2483 1083 set \$1;
#X msg 2835 1080 set \$1;
#X msg 3200 1080 set \$1;
#X obj 2069 458 list split 3;
#X obj 2067 1411 +~;
#X obj 2432 1411 +~;
#X obj 2784 1411 +~;
#X obj 3149 1413 +~;
#X obj 2069 483 unpack f f f;
#X obj 2069 536 pack;
#X obj 2117 536 pack;
#X obj 2434 474 list split 3;
#X obj 2434 499 unpack f f f;
#X obj 2434 552 pack;
#X obj 2482 552 pack;
#X obj 2786 490 list split 3;
#X obj 2786 515 unpack f f f;
#X obj 2786 568 pack;
#X obj 2834 568 pack;
#X obj 3151 506 list split 3;
#X obj 3151 531 unpack f f f;
#X obj 3151 594 pack;
#X obj 3199 594 pack;
#X obj 2068 938 *~;
#X obj 2433 938 *~;
#X obj 2785 938 *~;
#X obj 3150 940 *~;
#X obj 2118 760 line;
#X obj 2482 760 line;
#X obj 2834 757 line;
#X obj 3199 757 line;
#X msg 2138 783 set \$1;
#X msg 2502 783 set \$1;
#X msg 2854 780 set \$1;
#X msg 3219 780 set \$1;
#X obj 483 103 hsl 64 10 0 1 0 0 empty canvas_player_Stereo_master_R_3_1_\$1
_\$1_L3-R -2 5 0 10 -159808 -66577 -261682 0 1;
#X obj 483 113 hsl 64 10 0 1 0 0 empty canvas_player_Stereo_master_R_3_2_\$1
_\$1_R3-R -2 5 0 10 -159808 -258113 -261682 0 1;
#X obj 634 103 hsl 64 10 0 1 0 0 empty canvas_player_Stereo_master_R_4_1_\$1
_\$1_L4-R -2 5 0 10 -159808 -66577 -261682 0 1;
#X obj 634 113 hsl 64 10 0 1 0 0 empty canvas_player_Stereo_master_R_4_2_\$1
_\$1_R4-R -2 5 0 10 -159808 -258113 -261682 0 1;
#X obj 2158 732 receive player_Stereo_mixer_R_3_1_\$1;
#X obj 2522 732 receive player_Stereo_mixer_R_3_2_\$1;
#X obj 2874 729 receive player_Stereo_mixer_R_4_1_\$1;
#X obj 3239 729 receive player_Stereo_mixer_R_4_2_\$1;
#X obj 2138 1032 receive player_Stereo_mixer_L_3_1_\$1;
#X obj 2503 1032 receive player_Stereo_mixer_L_3_2_\$1;
#X obj 2855 1029 receive player_Stereo_mixer_L_4_1_\$1;
#X obj 3222 1029 receive player_Stereo_mixer_L_4_2_\$1;
#X msg 1572 107 \; player_Stereo_mixer_L_1_1_\$1 \$2 1000 \; player_Stereo_mixer_L_1_2_\$1
\$2 2000 \; player_Stereo_mixer_L_2_1_\$1 \$2 3000 \; player_Stereo_mixer_L_2_2_\$1
\$2 4000 \; player_Stereo_mixer_R_1_1_\$1 \$2 5000 \; player_Stereo_mixer_R_1_2_\$1
\$2 6000 \; player_Stereo_mixer_R_2_1_\$1 \$2 7000 \; player_Stereo_mixer_R_2_2_\$1
\$2 8000 \; player_Stereo_mixer_L_3_1_\$1 \$2 1000 \; player_Stereo_mixer_L_3_2_\$1
\$2 2000 \; player_Stereo_mixer_L_4_1_\$1 \$2 3000 \; player_Stereo_mixer_L_4_2_\$1
\$2 4000 \; player_Stereo_mixer_R_3_1_\$1 \$2 5000 \; player_Stereo_mixer_R_3_2_\$1
\$2 6000 \; player_Stereo_mixer_R_4_1_\$1 \$2 7000 \; player_Stereo_mixer_R_4_2_\$1
\$2 8000;
#X obj 1834 97 prepend \$1;
#X msg 1834 124 \; canvas_player_Stereo_master_L_\$2_1_\$1 label _#1_L\$2-L
\; canvas_player_Stereo_master_L_\$2_2_\$1 label _#1_R\$2-L \; canvas_player_Stereo_master_R_\$2_1_\$1
label _#1_L\$2-R \; canvas_player_Stereo_master_R_\$2_2_\$1 label _#1_R\$2-R
\;;
#X obj 1906 84 hradio 15 1 0 9 empty empty empty 0 -8 0 10 -262144
-1 -1 8;
#X obj 2068 1439 throw~ out_3_1;
#X obj 2431 1439 throw~ out_3_2;
#X obj 2785 1439 throw~ out_4_1;
#X obj 3148 1441 throw~ out_4_2;
#X obj 130 127 hsl 64 10 0 1 0 0 empty canvas_player_Stereo_master_L_5_1_\$1
_\$1_L5-L -2 5 0 10 -159808 -66577 -261682 0 1;
#X obj 130 137 hsl 64 10 0 1 0 0 empty canvas_player_Stereo_master_L_5_2_\$1
_\$1_R5-L -2 5 0 10 -159808 -258113 -261682 0 1;
#X obj 3580 1238 *~;
#X obj 3945 1238 *~;
#X obj 281 127 hsl 64 10 0 1 0 0 empty canvas_player_Stereo_master_L_6_1_\$1
_\$1_L6-L -2 5 0 10 -159808 -66577 -261682 3300 1;
#X obj 281 137 hsl 64 10 0 1 0 0 empty canvas_player_Stereo_master_L_6_2_\$1
_\$1_R6-L -2 5 0 10 -159808 -258113 -261682 0 1;
#X obj 4297 1238 *~;
#X obj 4662 1240 *~;
#X obj 3595 1060 line;
#X obj 3960 1060 line;
#X obj 4312 1057 line;
#X obj 4677 1057 line;
#X msg 3616 1083 set \$1;
#X msg 3980 1083 set \$1;
#X msg 4332 1080 set \$1;
#X msg 4697 1080 set \$1;
#X obj 3566 458 list split 3;
#X obj 3564 1411 +~;
#X obj 3929 1411 +~;
#X obj 4281 1411 +~;
#X obj 4646 1413 +~;
#X obj 3566 483 unpack f f f;
#X obj 3566 536 pack;
#X obj 3614 536 pack;
#X obj 3931 474 list split 3;
#X obj 3931 499 unpack f f f;
#X obj 3931 552 pack;
#X obj 3979 552 pack;
#X obj 4283 490 list split 3;
#X obj 4283 515 unpack f f f;
#X obj 4283 568 pack;
#X obj 4331 568 pack;
#X obj 4648 506 list split 3;
#X obj 4648 531 unpack f f f;
#X obj 4648 594 pack;
#X obj 4696 594 pack;
#X obj 3614 808 t f f;
#X obj 3979 808 t f f;
#X obj 3565 938 *~;
#X obj 3930 938 *~;
#X obj 4331 808 t f f;
#X obj 4696 810 t f f;
#X obj 4282 938 *~;
#X obj 4647 940 *~;
#X obj 3615 760 line;
#X obj 3979 760 line;
#X obj 4331 757 line;
#X obj 4696 757 line;
#X msg 3635 783 set \$1;
#X msg 3999 783 set \$1;
#X msg 4351 780 set \$1;
#X msg 4716 780 set \$1;
#X obj 201 127 hsl 64 10 0 1 0 0 empty canvas_player_Stereo_master_R_5_1_\$1
_\$1_L5-R -2 5 0 10 -159808 -66577 -261682 0 1;
#X obj 201 137 hsl 64 10 0 1 0 0 empty canvas_player_Stereo_master_R_5_2_\$1
_\$1_R5-R -2 5 0 10 -159808 -258113 -261682 0 1;
#X obj 352 127 hsl 64 10 0 1 0 0 empty canvas_player_Stereo_master_R_6_1_\$1
_\$1_L6-R -2 5 0 10 -159808 -66577 -261682 0 1;
#X obj 352 137 hsl 64 10 0 1 0 0 empty canvas_player_Stereo_master_R_6_2_\$1
_\$1_R6-R -2 5 0 10 -159808 -258113 -261682 2200 1;
#X obj 432 127 hsl 64 10 0 1 0 0 empty canvas_player_Stereo_master_L_7_1_\$1
_\$1_L7-L -2 5 0 10 -159808 -66577 -261682 3000 1;
#X obj 432 137 hsl 64 10 0 1 0 0 empty canvas_player_Stereo_master_L_7_2_\$1
_\$1_R7-L -2 5 0 10 -159808 -258113 -261682 0 1;
#X obj 5266 1238 *~;
#X obj 5631 1238 *~;
#X obj 583 127 hsl 64 10 0 1 0 0 empty canvas_player_Stereo_master_L_8_1_\$1
_\$1_L8-L -2 5 0 10 -159808 -66577 -261682 3800 1;
#X obj 583 137 hsl 64 10 0 1 0 0 empty canvas_player_Stereo_master_L_8_2_\$1
_\$1_R8-L -2 5 0 10 -159808 -258113 -261682 0 1;
#X obj 5983 1238 *~;
#X obj 6348 1240 *~;
#X obj 5281 1060 line;
#X obj 5646 1060 line;
#X obj 5998 1057 line;
#X obj 6363 1057 line;
#X msg 5302 1083 set \$1;
#X msg 5666 1083 set \$1;
#X msg 6018 1080 set \$1;
#X msg 6383 1080 set \$1;
#X obj 5252 458 list split 3;
#X obj 5250 1411 +~;
#X obj 5615 1411 +~;
#X obj 5967 1411 +~;
#X obj 6332 1413 +~;
#X obj 5252 483 unpack f f f;
#X obj 5252 536 pack;
#X obj 5300 536 pack;
#X obj 5617 474 list split 3;
#X obj 5617 499 unpack f f f;
#X obj 5617 552 pack;
#X obj 5665 552 pack;
#X obj 5969 490 list split 3;
#X obj 5969 515 unpack f f f;
#X obj 5969 568 pack;
#X obj 6017 568 pack;
#X obj 6334 506 list split 3;
#X obj 6334 531 unpack f f f;
#X obj 6334 594 pack;
#X obj 6382 594 pack;
#X obj 5251 938 *~;
#X obj 5616 938 *~;
#X obj 5968 938 *~;
#X obj 6333 940 *~;
#X obj 5301 760 line;
#X obj 5665 760 line;
#X obj 6017 757 line;
#X obj 6382 757 line;
#X msg 5321 783 set \$1;
#X msg 5685 783 set \$1;
#X msg 6037 780 set \$1;
#X msg 6402 780 set \$1;
#X obj 503 127 hsl 64 10 0 1 0 0 empty canvas_player_Stereo_master_R_7_1_\$1
_\$1_L7-R -2 5 0 10 -159808 -66577 -261682 0 1;
#X obj 503 137 hsl 64 10 0 1 0 0 empty canvas_player_Stereo_master_R_7_2_\$1
_\$1_R7-R -2 5 0 10 -159808 -258113 -261682 3300 1;
#X obj 654 127 hsl 64 10 0 1 0 0 empty canvas_player_Stereo_master_R_8_1_\$1
_\$1_L8-R -2 5 0 10 -159808 -66577 -261682 0 1;
#X obj 654 137 hsl 64 10 0 1 0 0 empty canvas_player_Stereo_master_R_8_2_\$1
_\$1_R8-R -2 5 0 10 -159808 -258113 -261682 3800 1;
#X obj 3655 732 receive player_Stereo_mixer_R_5_1_\$1;
#X obj 4019 732 receive player_Stereo_mixer_R_5_2_\$1;
#X obj 4000 1032 receive player_Stereo_mixer_L_5_2_\$1;
#X obj 3635 1032 receive player_Stereo_mixer_L_5_1_\$1;
#X obj 4371 729 receive player_Stereo_mixer_R_6_1_\$1;
#X obj 4352 1029 receive player_Stereo_mixer_L_6_1_\$1;
#X obj 4717 1029 receive player_Stereo_mixer_L_6_2_\$1;
#X obj 4736 729 receive player_Stereo_mixer_R_6_2_\$1;
#X obj 4645 1441 throw~ out_6_2;
#X obj 4282 1439 throw~ out_6_1;
#X obj 3928 1439 throw~ out_6_2;
#X obj 3565 1439 throw~ out_6_1;
#X obj 5341 732 receive player_Stereo_mixer_R_7_1_\$1;
#X obj 5705 732 receive player_Stereo_mixer_R_7_2_\$1;
#X obj 6057 729 receive player_Stereo_mixer_R_8_1_\$1;
#X obj 6422 729 receive player_Stereo_mixer_R_8_2_\$1;
#X obj 6405 1029 receive player_Stereo_mixer_L_8_2_\$1;
#X obj 6038 1029 receive player_Stereo_mixer_L_8_1_\$1;
#X obj 5321 1032 receive player_Stereo_mixer_L_7_1_\$1;
#X obj 5686 1032 receive player_Stereo_mixer_L_7_2_\$1;
#X obj 5251 1439 throw~ out_7_1;
#X obj 5614 1439 throw~ out_7_2;
#X obj 5967 1438 throw~ out_8_1;
#X obj 6331 1441 throw~ out_8_2;
#X connect 1 0 6 0;
#X connect 1 0 12 0;
#X connect 1 0 7 0;
#X connect 1 0 13 0;
#X connect 1 0 96 0;
#X connect 1 0 101 0;
#X connect 1 0 100 0;
#X connect 1 0 97 0;
#X connect 1 0 164 0;
#X connect 1 0 225 0;
#X connect 1 0 224 0;
#X connect 1 0 221 0;
#X connect 1 0 220 0;
#X connect 1 0 169 0;
#X connect 1 0 168 0;
#X connect 1 0 165 0;
#X connect 4 0 14 0;
#X connect 5 0 15 0;
#X connect 6 0 45 1;
#X connect 7 0 46 1;
#X connect 8 0 93 0;
#X connect 9 0 8 0;
#X connect 10 0 16 0;
#X connect 11 0 17 0;
#X connect 12 0 47 1;
#X connect 13 0 48 1;
#X connect 14 0 22 0;
#X connect 14 0 6 1;
#X connect 15 0 23 0;
#X connect 15 0 7 1;
#X connect 16 0 24 0;
#X connect 16 0 12 1;
#X connect 17 0 25 0;
#X connect 17 0 13 1;
#X connect 18 0 154 0;
#X connect 21 0 18 0;
#X connect 22 0 4 0;
#X connect 23 0 5 0;
#X connect 24 0 10 0;
#X connect 25 0 11 0;
#X connect 26 0 39 0;
#X connect 27 0 28 0;
#X connect 28 0 29 0;
#X connect 28 1 31 0;
#X connect 29 0 30 0;
#X connect 31 0 32 0;
#X connect 33 0 90 0;
#X connect 34 0 33 0;
#X connect 36 0 89 0;
#X connect 37 0 36 0;
#X connect 39 0 44 0;
#X connect 40 0 14 0;
#X connect 41 0 15 0;
#X connect 42 0 16 0;
#X connect 43 0 17 0;
#X connect 44 0 49 0;
#X connect 44 1 52 0;
#X connect 45 0 2 0;
#X connect 46 0 3 0;
#X connect 47 0 20 0;
#X connect 48 0 19 0;
#X connect 49 0 50 0;
#X connect 49 1 51 0;
#X connect 49 2 51 1;
#X connect 49 2 50 1;
#X connect 50 0 14 0;
#X connect 51 0 72 0;
#X connect 52 0 53 0;
#X connect 52 1 56 0;
#X connect 53 0 54 0;
#X connect 53 1 55 0;
#X connect 53 2 55 1;
#X connect 53 2 54 1;
#X connect 54 0 15 0;
#X connect 55 0 73 0;
#X connect 56 0 57 0;
#X connect 56 1 60 0;
#X connect 57 0 58 0;
#X connect 57 1 59 0;
#X connect 57 2 59 1;
#X connect 57 2 58 1;
#X connect 58 0 16 0;
#X connect 59 0 74 0;
#X connect 60 0 61 0;
#X connect 60 1 110 0;
#X connect 61 0 62 0;
#X connect 61 1 63 0;
#X connect 61 2 63 1;
#X connect 61 2 62 1;
#X connect 62 0 17 0;
#X connect 63 0 75 0;
#X connect 64 0 66 1;
#X connect 65 0 67 1;
#X connect 66 0 45 0;
#X connect 67 0 46 0;
#X connect 68 0 70 1;
#X connect 69 0 71 1;
#X connect 70 0 47 0;
#X connect 71 0 48 0;
#X connect 72 0 64 0;
#X connect 72 0 76 0;
#X connect 72 0 66 1;
#X connect 73 0 65 0;
#X connect 73 0 77 0;
#X connect 73 0 67 1;
#X connect 74 0 68 0;
#X connect 74 0 78 0;
#X connect 74 0 70 1;
#X connect 75 0 79 0;
#X connect 75 0 69 0;
#X connect 75 0 71 1;
#X connect 76 0 85 0;
#X connect 77 0 86 0;
#X connect 78 0 87 0;
#X connect 79 0 88 0;
#X connect 80 0 66 0;
#X connect 80 0 70 0;
#X connect 80 0 67 0;
#X connect 80 0 71 0;
#X connect 80 0 130 0;
#X connect 80 0 133 0;
#X connect 80 0 132 0;
#X connect 80 0 131 0;
#X connect 80 0 200 0;
#X connect 80 0 257 0;
#X connect 80 0 256 0;
#X connect 80 0 255 0;
#X connect 80 0 254 0;
#X connect 80 0 205 0;
#X connect 80 0 204 0;
#X connect 80 0 201 0;
#X connect 81 0 72 0;
#X connect 82 0 73 0;
#X connect 83 0 74 0;
#X connect 84 0 75 0;
#X connect 85 0 72 0;
#X connect 86 0 73 0;
#X connect 87 0 74 0;
#X connect 88 0 75 0;
#X connect 94 0 102 0;
#X connect 95 0 103 0;
#X connect 96 0 111 1;
#X connect 97 0 112 1;
#X connect 98 0 104 0;
#X connect 99 0 105 0;
#X connect 100 0 113 1;
#X connect 101 0 114 1;
#X connect 102 0 106 0;
#X connect 102 0 96 1;
#X connect 103 0 107 0;
#X connect 103 0 97 1;
#X connect 104 0 108 0;
#X connect 104 0 100 1;
#X connect 105 0 109 0;
#X connect 105 0 101 1;
#X connect 106 0 94 0;
#X connect 107 0 95 0;
#X connect 108 0 98 0;
#X connect 109 0 99 0;
#X connect 110 0 115 0;
#X connect 110 1 118 0;
#X connect 111 0 158 0;
#X connect 112 0 159 0;
#X connect 113 0 160 0;
#X connect 114 0 161 0;
#X connect 115 0 116 0;
#X connect 115 1 117 0;
#X connect 115 2 117 1;
#X connect 115 2 116 1;
#X connect 116 0 102 0;
#X connect 117 0 134 0;
#X connect 118 0 119 0;
#X connect 118 1 122 0;
#X connect 119 0 120 0;
#X connect 119 1 121 0;
#X connect 119 2 121 1;
#X connect 119 2 120 1;
#X connect 120 0 103 0;
#X connect 121 0 135 0;
#X connect 122 0 123 0;
#X connect 122 1 126 0;
#X connect 123 0 124 0;
#X connect 123 1 125 0;
#X connect 123 2 125 1;
#X connect 123 2 124 1;
#X connect 124 0 104 0;
#X connect 125 0 136 0;
#X connect 126 0 127 0;
#X connect 126 1 178 0;
#X connect 127 0 128 0;
#X connect 127 1 129 0;
#X connect 127 2 129 1;
#X connect 127 2 128 1;
#X connect 128 0 105 0;
#X connect 129 0 137 0;
#X connect 130 0 111 0;
#X connect 131 0 112 0;
#X connect 132 0 113 0;
#X connect 133 0 114 0;
#X connect 134 0 138 0;
#X connect 134 0 130 1;
#X connect 135 0 139 0;
#X connect 135 0 131 1;
#X connect 136 0 140 0;
#X connect 136 0 132 1;
#X connect 137 0 141 0;
#X connect 137 0 133 1;
#X connect 138 0 142 0;
#X connect 139 0 143 0;
#X connect 140 0 144 0;
#X connect 141 0 145 0;
#X connect 142 0 134 0;
#X connect 143 0 135 0;
#X connect 144 0 136 0;
#X connect 145 0 137 0;
#X connect 146 0 134 0;
#X connect 147 0 135 0;
#X connect 148 0 136 0;
#X connect 149 0 137 0;
#X connect 150 0 102 0;
#X connect 151 0 103 0;
#X connect 152 0 104 0;
#X connect 153 0 105 0;
#X connect 155 0 156 0;
#X connect 157 0 155 0;
#X connect 162 0 170 0;
#X connect 163 0 171 0;
#X connect 164 0 179 1;
#X connect 165 0 180 1;
#X connect 166 0 172 0;
#X connect 167 0 173 0;
#X connect 168 0 181 1;
#X connect 169 0 182 1;
#X connect 170 0 174 0;
#X connect 170 0 164 1;
#X connect 171 0 175 0;
#X connect 171 0 165 1;
#X connect 172 0 176 0;
#X connect 172 0 168 1;
#X connect 173 0 177 0;
#X connect 173 0 169 1;
#X connect 174 0 162 0;
#X connect 175 0 163 0;
#X connect 176 0 166 0;
#X connect 177 0 167 0;
#X connect 178 0 183 0;
#X connect 178 1 186 0;
#X connect 179 0 281 0;
#X connect 180 0 280 0;
#X connect 181 0 279 0;
#X connect 182 0 278 0;
#X connect 183 0 184 0;
#X connect 183 1 185 0;
#X connect 183 2 185 1;
#X connect 183 2 184 1;
#X connect 184 0 170 0;
#X connect 185 0 206 0;
#X connect 186 0 187 0;
#X connect 186 1 190 0;
#X connect 187 0 188 0;
#X connect 187 1 189 0;
#X connect 187 2 189 1;
#X connect 187 2 188 1;
#X connect 188 0 171 0;
#X connect 189 0 207 0;
#X connect 190 0 191 0;
#X connect 190 1 194 0;
#X connect 191 0 192 0;
#X connect 191 1 193 0;
#X connect 191 2 193 1;
#X connect 191 2 192 1;
#X connect 192 0 172 0;
#X connect 193 0 208 0;
#X connect 194 0 195 0;
#X connect 194 1 234 0;
#X connect 195 0 196 0;
#X connect 195 1 197 0;
#X connect 195 2 197 1;
#X connect 195 2 196 1;
#X connect 196 0 173 0;
#X connect 197 0 209 0;
#X connect 198 0 200 1;
#X connect 199 0 201 1;
#X connect 200 0 179 0;
#X connect 201 0 180 0;
#X connect 202 0 204 1;
#X connect 203 0 205 1;
#X connect 204 0 181 0;
#X connect 205 0 182 0;
#X connect 206 0 198 0;
#X connect 206 0 210 0;
#X connect 206 0 200 1;
#X connect 207 0 199 0;
#X connect 207 0 211 0;
#X connect 207 0 201 1;
#X connect 208 0 202 0;
#X connect 208 0 212 0;
#X connect 208 0 204 1;
#X connect 209 0 213 0;
#X connect 209 0 203 0;
#X connect 209 0 205 1;
#X connect 210 0 214 0;
#X connect 211 0 215 0;
#X connect 212 0 216 0;
#X connect 213 0 217 0;
#X connect 214 0 206 0;
#X connect 215 0 207 0;
#X connect 216 0 208 0;
#X connect 217 0 209 0;
#X connect 218 0 226 0;
#X connect 219 0 227 0;
#X connect 220 0 235 1;
#X connect 221 0 236 1;
#X connect 222 0 228 0;
#X connect 223 0 229 0;
#X connect 224 0 237 1;
#X connect 225 0 238 1;
#X connect 226 0 230 0;
#X connect 226 0 220 1;
#X connect 227 0 231 0;
#X connect 227 0 221 1;
#X connect 228 0 232 0;
#X connect 228 0 224 1;
#X connect 229 0 233 0;
#X connect 229 0 225 1;
#X connect 230 0 218 0;
#X connect 231 0 219 0;
#X connect 232 0 222 0;
#X connect 233 0 223 0;
#X connect 234 0 239 0;
#X connect 234 1 242 0;
#X connect 235 0 290 0;
#X connect 236 0 291 0;
#X connect 237 0 292 0;
#X connect 238 0 293 0;
#X connect 239 0 240 0;
#X connect 239 1 241 0;
#X connect 239 2 241 1;
#X connect 239 2 240 1;
#X connect 240 0 226 0;
#X connect 241 0 258 0;
#X connect 242 0 243 0;
#X connect 242 1 246 0;
#X connect 243 0 244 0;
#X connect 243 1 245 0;
#X connect 243 2 245 1;
#X connect 243 2 244 1;
#X connect 244 0 227 0;
#X connect 245 0 259 0;
#X connect 246 0 247 0;
#X connect 246 1 250 0;
#X connect 247 0 248 0;
#X connect 247 1 249 0;
#X connect 247 2 249 1;
#X connect 247 2 248 1;
#X connect 248 0 228 0;
#X connect 249 0 260 0;
#X connect 250 0 251 0;
#X connect 251 0 252 0;
#X connect 251 1 253 0;
#X connect 251 2 253 1;
#X connect 251 2 252 1;
#X connect 252 0 229 0;
#X connect 253 0 261 0;
#X connect 254 0 235 0;
#X connect 255 0 236 0;
#X connect 256 0 237 0;
#X connect 257 0 238 0;
#X connect 258 0 262 0;
#X connect 258 0 254 1;
#X connect 259 0 263 0;
#X connect 259 0 255 1;
#X connect 260 0 264 0;
#X connect 260 0 256 1;
#X connect 261 0 265 0;
#X connect 261 0 257 1;
#X connect 262 0 266 0;
#X connect 263 0 267 0;
#X connect 264 0 268 0;
#X connect 265 0 269 0;
#X connect 266 0 258 0;
#X connect 267 0 259 0;
#X connect 268 0 260 0;
#X connect 269 0 261 0;
#X connect 270 0 206 0;
#X connect 271 0 207 0;
#X connect 272 0 171 0;
#X connect 273 0 170 0;
#X connect 274 0 208 0;
#X connect 275 0 172 0;
#X connect 276 0 173 0;
#X connect 277 0 209 0;
#X connect 282 0 258 0;
#X connect 283 0 259 0;
#X connect 284 0 260 0;
#X connect 285 0 261 0;
#X connect 286 0 229 0;
#X connect 287 0 228 0;
#X connect 288 0 226 0;
#X connect 289 0 227 0;
#X coords 0 -1 1 1 650 50 1 100 100;
