#N canvas 0 74 1920 1006 10;
#X obj 176 1223 receive~ Left-\$1;
#X obj 382 1439 throw~ out_1_1;
#X obj 745 1439 throw~ out_1_2;
#X obj 160 103 hsl 64 10 0 1 0 0 empty canvas_player_Stereo_master_L_1_1_\$1
_\$1_L1 -2 5 0 10 -159808 -66577 -261682 0 1;
#X obj 412 1108 t f f;
#X obj 449 1167 prepend \$1;
#X obj 160 113 hsl 64 10 0 1 0 0 empty canvas_player_Stereo_master_L_1_2_\$1
_\$1_L2 -2 5 0 10 -159808 -258113 -261682 0 1;
#X obj 777 1108 t f f;
#X obj 814 1167 prepend \$1;
#X obj 397 1238 *~;
#X obj 762 1238 *~;
#X obj 527 92 prepend \$1;
#X obj 527 67 bng 15 250 50 0 empty NAME-\$0 NAME-\$0 17 7 0 10 -191407
-159808 -1;
#X obj 160 124 hsl 64 10 0 1 0 0 empty canvas_player_Stereo_master_L_2_1_\$1
_\$1_L3 -2 5 0 10 -159808 -66577 -261682 0 1;
#X obj 1129 1108 t f f;
#X obj 1166 1167 prepend \$1;
#X obj 160 134 hsl 64 10 0 1 0 0 empty canvas_player_Stereo_master_L_2_2_\$1
_\$1_L4 -2 5 0 10 -159808 -258113 -261682 0 1;
#X obj 1494 1110 t f f;
#X obj 1531 1169 prepend \$1;
#X obj 1114 1238 *~;
#X obj 1479 1240 *~;
#X obj 412 1060 line;
#X obj 777 1060 line;
#X obj 1129 1057 line;
#X obj 1494 1057 line;
#X obj 1354 97 prepend \$1;
#X obj 1462 1441 throw~ out_2_2;
#X obj 1099 1439 throw~ out_2_1;
#X obj 1354 74 tgl 15 0 empty empty empty 17 7 0 10 -262144 -1 -1 0
1;
#X msg 433 1083 set \$1;
#X msg 797 1083 set \$1;
#X msg 1149 1080 set \$1;
#X msg 1514 1080 set \$1;
#X obj 383 24 receive player_Stereo_mixer-\$1;
#X obj 1531 1137 spigot;
#X obj 1166 1137 spigot;
#X obj 814 1137 spigot;
#X obj 449 1137 spigot;
#X obj 1663 1124 tgl 15 0 empty view-value-\$0 view-value-\$0 17 7
0 10 -228856 -1 -1 0 1;
#X obj 108 118 tgl 15 0 empty toogle-\$0 Value 17 7 0 10 -262144 -1
-261234 0 1;
#X obj 37 178 route 0;
#X obj 37 271 prepend \$0;
#X msg 37 294 \; view-value-\$1 0 \; toogle-\$1 label Value \; NAME-\$1
1;
#X obj 76 201 prepend \$0;
#X msg 76 224 \; view-value-\$1 1 \; toogle-\$1 label NAME \;;
#X obj 873 97 prepend \$1;
#X obj 873 76 bng 15 250 50 0 empty LR-1-\$0 LR-1-\$0 17 7 0 10 -159808
-258113 -1;
#X obj 108 102 bng 15 250 50 0 LR-1-\$0 empty LR-1 17 7 0 10 -159808
-258113 -261234;
#X obj 1103 97 prepend \$1;
#X obj 1103 76 bng 15 250 50 0 empty LR-2-\$0 LR-2-\$0 17 7 0 10 -159808
-258113 -1;
#X obj 108 133 bng 15 250 50 0 LR-2-\$0 empty LR-2 17 7 0 10 -159808
-258113 -261234;
#N canvas 397 192 1336 948 machinerie 0;
#X obj 259 161 inlet;
#X obj 286 681 outlet;
#X obj 58 293 list;
#X obj 132 315 route 0;
#X obj 171 342 delay;
#X obj 286 387 qlist;
#X msg 340 371 rewind;
#X msg 286 319 clear;
#X msg 446 371 next;
#X obj 205 358 bang;
#X obj 24 371 prepend add;
#X obj 259 254 t a b;
#X obj 241 358 bng 15 250 50 0 empty empty empty 17 7 0 10 -262144
-1 -1;
#X obj 93 293 t b b f;
#X obj 313 410 t b b;
#X obj 313 435 delay 1;
#X msg 132 336 stop;
#X obj 323 59 tgl 15 0 empty empty empty 17 7 0 10 -262144 -1 -1 0
1;
#X msg 323 84 \$1 \$1 1000 \$1 \$1 2000 \$1 \$1 3000 \$1 \$1 4000;
#X msg 323 100 1 1 1000 1 1 2000 1 1 3000 1 1 4000 0 0 1000 0 0 2000
0 0 3000 0 0 4000 4000, f 137;
#X text 320 259 lvl_L_1_1 lvl_R_1_1 time_1_1 lvl_L_1_2 lvl_R_1_2 time_1_2
lvl_L_2_1 lvl_R_2_1 time_2_1 lvl_L_2_2 lvl_R_2_2 time_2_2, f 118;
#X text 320 209 lvl_L_1_1 lvl_R_1_1 time_1_1 lvl_L_1_2 lvl_R_1_2 time_1_2
lvl_L_2_1 lvl_R_2_1 time_2_1 lvl_L_2_2 lvl_R_2_2 time_2_2 [...] lvl_L_1_1
lvl_R_1_1 time_1_1 lvl_L_1_2 lvl_R_1_2 time_1_2 lvl_L_2_1 lvl_R_2_1
time_2_1 lvl_L_2_2 lvl_R_2_2 time_2_2 "time next", f 138;
#X obj 24 270 list split 12;
#X connect 0 0 11 0;
#X connect 2 0 22 0;
#X connect 3 0 16 0;
#X connect 3 1 4 0;
#X connect 4 0 9 0;
#X connect 4 0 12 0;
#X connect 4 0 8 0;
#X connect 5 0 1 0;
#X connect 5 1 14 0;
#X connect 6 0 5 0;
#X connect 7 0 5 0;
#X connect 8 0 5 0;
#X connect 9 0 4 0;
#X connect 10 0 5 0;
#X connect 11 0 22 0;
#X connect 11 1 7 0;
#X connect 13 0 8 0;
#X connect 13 2 3 0;
#X connect 14 0 15 0;
#X connect 14 1 6 0;
#X connect 15 0 8 0;
#X connect 16 0 4 0;
#X connect 17 0 18 0;
#X connect 18 0 11 0;
#X connect 19 0 11 0;
#X connect 22 0 10 0;
#X connect 22 1 2 0;
#X connect 22 2 13 0;
#X restore 383 53 pd machinerie;
#X obj 452 1032 receive player_Stereo_mixer_L_1_1_\$1;
#X obj 817 1032 receive player_Stereo_mixer_L_1_2_\$1;
#X obj 1169 1029 receive player_Stereo_mixer_L_2_1_\$1;
#X obj 1534 1029 receive player_Stereo_mixer_L_2_2_\$1;
#X obj 817 1014 receive player_Stereo_mixer_L_1_2_0;
#X obj 452 1014 receive player_Stereo_mixer_L_1_1_0;
#X obj 1169 1011 receive player_Stereo_mixer_L_2_1_0;
#X obj 1534 1011 receive player_Stereo_mixer_L_2_2_0;
#X obj 383 458 list split 3;
#X obj 381 1411 +~;
#X obj 746 1411 +~;
#X obj 1098 1411 +~;
#X obj 1463 1413 +~;
#X msg 449 1189 \; canvas_player_Stereo_master_L_1_1_\$1 label _\$2
;
#X msg 814 1189 \; canvas_player_Stereo_master_L_1_2_\$1 label _\$2
;
#X msg 1166 1189 \; canvas_player_Stereo_master_L_2_1_\$1 label _\$2
;
#X msg 1531 1191 \; canvas_player_Stereo_master_L_2_2_\$1 label _\$2
;
#X obj 383 483 unpack f f f;
#X obj 383 536 pack;
#X obj 431 536 pack;
#X obj 748 474 list split 3;
#X obj 748 499 unpack f f f;
#X obj 748 552 pack;
#X obj 796 552 pack;
#X obj 1100 490 list split 3;
#X obj 1100 515 unpack f f f;
#X obj 1100 568 pack;
#X obj 1148 568 pack;
#X obj 1465 506 list split 3;
#X obj 1465 531 unpack f f f;
#X obj 1465 594 pack;
#X obj 1513 594 pack;
#X obj 431 808 t f f;
#X obj 468 867 prepend \$1;
#X obj 796 808 t f f;
#X obj 833 867 prepend \$1;
#X obj 382 938 *~;
#X obj 747 938 *~;
#X obj 1148 808 t f f;
#X obj 1185 867 prepend \$1;
#X obj 1513 810 t f f;
#X obj 1550 869 prepend \$1;
#X obj 1099 938 *~;
#X obj 1464 940 *~;
#X obj 432 760 line;
#X obj 796 760 line;
#X obj 1148 757 line;
#X obj 1513 757 line;
#X msg 452 783 set \$1;
#X msg 816 783 set \$1;
#X msg 1168 780 set \$1;
#X msg 1533 780 set \$1;
#X obj 1550 837 spigot;
#X obj 1185 837 spigot;
#X obj 833 837 spigot;
#X obj 468 837 spigot;
#X obj 1668 824 tgl 15 0 empty view-value-\$0 view-value-\$0 17 7 0
10 -228856 -1 -1 0 1;
#X obj 157 923 receive~ Right-\$1;
#X obj 472 714 receive player_Stereo_mixer_R_1_1_0;
#X obj 472 732 receive player_Stereo_mixer_R_1_1_\$1;
#X obj 836 714 receive player_Stereo_mixer_R_1_2_0;
#X obj 836 732 receive player_Stereo_mixer_R_1_2_\$1;
#X obj 1188 711 receive player_Stereo_mixer_R_2_1_0;
#X obj 1188 729 receive player_Stereo_mixer_R_2_1_\$1;
#X obj 1553 711 receive player_Stereo_mixer_R_2_2_0;
#X obj 1553 729 receive player_Stereo_mixer_R_2_2_\$1;
#X msg 1550 891 \; canvas_player_Stereo_master_R_2_2_\$1 label _\$2
;
#X msg 1185 889 \; canvas_player_Stereo_master_R_2_1_\$1 label _\$2
;
#X msg 833 889 \; canvas_player_Stereo_master_R_1_2_\$1 label _\$2
;
#X msg 468 889 \; canvas_player_Stereo_master_R_1_1_\$1 label _\$2
;
#X obj 231 103 hsl 64 10 0 1 0 0 empty canvas_player_Stereo_master_R_1_1_\$1
_\$1_R1 -2 5 0 10 -159808 -66577 -261682 0 1;
#X obj 231 113 hsl 64 10 0 1 0 0 empty canvas_player_Stereo_master_R_1_2_\$1
_\$1_R2 -2 5 0 10 -159808 -258113 -261682 0 1;
#X obj 231 124 hsl 64 10 0 1 0 0 empty canvas_player_Stereo_master_R_2_1_\$1
_\$1_R3 -2 5 0 10 -159808 -66577 -261682 0 1;
#X obj 231 134 hsl 64 10 0 1 0 0 empty canvas_player_Stereo_master_R_2_2_\$1
_\$1_R4 -2 5 0 10 -159808 -258113 -261682 0 1;
#X msg 1103 119 \; player_Stereo_mixer_L_1_1_\$1 0 0 \; player_Stereo_mixer_L_1_2_\$1
0 0 \; player_Stereo_mixer_L_2_1_\$1 1 0 \; player_Stereo_mixer_L_2_2_\$1
0 0 \; player_Stereo_mixer_R_1_1_\$1 0 0 \; player_Stereo_mixer_R_1_2_\$1
0 0 \; player_Stereo_mixer_R_2_1_\$1 0 0 \; player_Stereo_mixer_R_2_2_\$1
1 0 \;;
#X msg 873 119 \; player_Stereo_mixer_L_1_1_\$1 1 0 \; player_Stereo_mixer_L_1_2_\$1
0 0 \; player_Stereo_mixer_L_2_1_\$1 0 0 \; player_Stereo_mixer_L_2_2_\$1
0 0 \; player_Stereo_mixer_R_1_1_\$1 0 0 \; player_Stereo_mixer_R_1_2_\$1
1 0 \; player_Stereo_mixer_R_2_1_\$1 0 0 \; player_Stereo_mixer_R_2_2_\$1
0 0 \;;
#X msg 1354 119 \; player_Stereo_mixer_L_1_1_\$1 \$2 1000 \; player_Stereo_mixer_L_1_2_\$1
\$2 2000 \; player_Stereo_mixer_L_2_1_\$1 \$2 3000 \; player_Stereo_mixer_L_2_2_\$1
\$2 4000 \; player_Stereo_mixer_R_1_1_\$1 \$2 5000 \; player_Stereo_mixer_R_1_2_\$1
\$2 6000 \; player_Stereo_mixer_R_2_1_\$1 \$2 7000 \; player_Stereo_mixer_R_2_2_\$1
\$2 8000;
#X text 711 12 gestionnaire de diffusion IN 1*Stereo to OUT 2*Stereo
;
#X text 717 29 automation de boucles de mouvement sonore;
#X msg 527 119 \; canvas_player_Stereo_master_L_1_1_\$1 label _#1_L1
\; canvas_player_Stereo_master_L_1_2_\$1 label _#1_L2 \; canvas_player_Stereo_master_L_2_1_\$1
label _#1_L3 \; canvas_player_Stereo_master_L_2_2_\$1 label _#1_L4
\; canvas_player_Stereo_master_R_1_1_\$1 label _#1_R1 \; canvas_player_Stereo_master_R_1_2_\$1
label _#1_R2 \; canvas_player_Stereo_master_R_2_1_\$1 label _#1_R3
\; canvas_player_Stereo_master_R_2_2_\$1 label _#1_R4;
#X connect 0 0 9 0;
#X connect 0 0 19 0;
#X connect 0 0 10 0;
#X connect 0 0 20 0;
#X connect 3 0 21 0;
#X connect 4 0 9 1;
#X connect 4 1 37 0;
#X connect 5 0 65 0;
#X connect 6 0 22 0;
#X connect 7 0 10 1;
#X connect 7 1 36 0;
#X connect 8 0 66 0;
#X connect 9 0 61 1;
#X connect 10 0 62 1;
#X connect 11 0 131 0;
#X connect 12 0 11 0;
#X connect 13 0 23 0;
#X connect 14 0 19 1;
#X connect 14 1 35 0;
#X connect 15 0 67 0;
#X connect 16 0 24 0;
#X connect 17 0 20 1;
#X connect 17 1 34 0;
#X connect 18 0 68 0;
#X connect 19 0 63 1;
#X connect 20 0 64 1;
#X connect 21 0 4 0;
#X connect 21 0 29 0;
#X connect 22 0 7 0;
#X connect 22 0 30 0;
#X connect 23 0 14 0;
#X connect 23 0 31 0;
#X connect 24 0 32 0;
#X connect 24 0 17 0;
#X connect 25 0 128 0;
#X connect 28 0 25 0;
#X connect 29 0 3 0;
#X connect 30 0 6 0;
#X connect 31 0 13 0;
#X connect 32 0 16 0;
#X connect 33 0 51 0;
#X connect 34 0 18 0;
#X connect 35 0 15 0;
#X connect 36 0 8 0;
#X connect 37 0 5 0;
#X connect 38 0 35 1;
#X connect 38 0 37 1;
#X connect 38 0 36 1;
#X connect 38 0 34 1;
#X connect 39 0 40 0;
#X connect 40 0 41 0;
#X connect 40 1 43 0;
#X connect 41 0 42 0;
#X connect 43 0 44 0;
#X connect 45 0 127 0;
#X connect 46 0 45 0;
#X connect 48 0 126 0;
#X connect 49 0 48 0;
#X connect 51 0 60 0;
#X connect 52 0 21 0;
#X connect 53 0 22 0;
#X connect 54 0 23 0;
#X connect 55 0 24 0;
#X connect 56 0 22 0;
#X connect 57 0 21 0;
#X connect 58 0 23 0;
#X connect 59 0 24 0;
#X connect 60 0 69 0;
#X connect 60 1 72 0;
#X connect 61 0 1 0;
#X connect 62 0 2 0;
#X connect 63 0 27 0;
#X connect 64 0 26 0;
#X connect 69 0 70 0;
#X connect 69 1 71 0;
#X connect 69 2 71 1;
#X connect 69 2 70 1;
#X connect 70 0 21 0;
#X connect 71 0 96 0;
#X connect 72 0 73 0;
#X connect 72 1 76 0;
#X connect 73 0 74 0;
#X connect 73 1 75 0;
#X connect 73 2 75 1;
#X connect 73 2 74 1;
#X connect 74 0 22 0;
#X connect 75 0 97 0;
#X connect 76 0 77 0;
#X connect 76 1 80 0;
#X connect 77 0 78 0;
#X connect 77 1 79 0;
#X connect 77 2 79 1;
#X connect 77 2 78 1;
#X connect 78 0 23 0;
#X connect 79 0 98 0;
#X connect 80 0 81 0;
#X connect 81 0 82 0;
#X connect 81 1 83 0;
#X connect 81 2 83 1;
#X connect 81 2 82 1;
#X connect 82 0 24 0;
#X connect 83 0 99 0;
#X connect 84 0 88 1;
#X connect 84 1 107 0;
#X connect 85 0 121 0;
#X connect 86 0 89 1;
#X connect 86 1 106 0;
#X connect 87 0 120 0;
#X connect 88 0 61 0;
#X connect 89 0 62 0;
#X connect 90 0 94 1;
#X connect 90 1 105 0;
#X connect 91 0 119 0;
#X connect 92 0 95 1;
#X connect 92 1 104 0;
#X connect 93 0 118 0;
#X connect 94 0 63 0;
#X connect 95 0 64 0;
#X connect 96 0 84 0;
#X connect 96 0 100 0;
#X connect 97 0 86 0;
#X connect 97 0 101 0;
#X connect 98 0 90 0;
#X connect 98 0 102 0;
#X connect 99 0 103 0;
#X connect 99 0 92 0;
#X connect 100 0 122 0;
#X connect 101 0 123 0;
#X connect 102 0 124 0;
#X connect 103 0 125 0;
#X connect 104 0 93 0;
#X connect 105 0 91 0;
#X connect 106 0 87 0;
#X connect 107 0 85 0;
#X connect 108 0 105 1;
#X connect 108 0 107 1;
#X connect 108 0 106 1;
#X connect 108 0 104 1;
#X connect 109 0 88 0;
#X connect 109 0 94 0;
#X connect 109 0 89 0;
#X connect 109 0 95 0;
#X connect 110 0 96 0;
#X connect 111 0 96 0;
#X connect 112 0 97 0;
#X connect 113 0 97 0;
#X connect 114 0 98 0;
#X connect 115 0 98 0;
#X connect 116 0 99 0;
#X connect 117 0 99 0;
#X connect 122 0 96 0;
#X connect 123 0 97 0;
#X connect 124 0 98 0;
#X connect 125 0 99 0;
#X coords 0 -1 1 1 200 50 2 100 100;
