#N canvas 0 76 1920 1004 10;
#X obj 101 601 cnv 15 298 398 empty empty Spatial-editor 20 12 0 14
-191407 -4160 0;
#X obj 1285 762 send;
#X msg 1306 737 symbol player_Stereo_mixer-\$1;
#X obj 1306 526 vradio 15 1 0 8 empty Player-\$0 Player-\$0 0 -8 0
10 -262144 -1 -1 8;
#X obj 1306 651 + 1;
#X floatatom 675 25 5 0 30000 0 fade_time-#0 fade_time-#0 -;
#X floatatom 310 473 5 1 15000 0 delay_time-#0 delay_time-#0 -;
#X obj 907 103 pack f f f;
#X obj 977 103 pack f f f;
#X obj 1047 103 pack f f f;
#X obj 1117 103 pack f f f;
#X obj 400 64 bng 15 250 50 0 empty add_step-\$0 add_step-\$0 17 7
0 10 -262144 -1 -1;
#X msg 247 71 set;
#X msg 247 263;
#X obj 907 135 prepend add2;
#X obj 674 57 * 1000;
#X obj 885 31 t b b b b b b;
#X obj 247 552 list append;
#X obj 310 525 * 1000;
#X obj 247 346 prepend add2;
#X msg 247 408;
#X msg 145 392 set;
#X obj 145 320 bng 15 250 50 0 empty Clear-\$0 Clear-\$0 17 7 0 10
-262144 -1 -1;
#X msg 172 370 CLEAR;
#X obj 145 340 t b b;
#X obj 324 19 bng 15 250 50 0 empty send-static-\$0 send-static-\$0
17 7 0 10 -262144 -1 -1;
#X obj 29 397 bng 15 250 50 0 empty send-dynamic-\$0 send-dynamic-\$0
17 7 0 10 -262144 -1 -1;
#X obj 1149 557 send \$0-output;
#X obj 1149 585 receive \$0-output;
#X obj 1149 795 send to_cue;
#X obj 103 757 tgl 15 0 empty empty L1-L 17 7 0 10 -262144 -1 -1 0
8;
#X obj 151 757 tgl 15 0 empty empty L1-R 17 7 0 10 -262144 -1 -1 0
8;
#X obj 103 772 tgl 15 0 empty empty R1-L 17 7 0 10 -262144 -1 -1 0
8;
#X obj 151 772 tgl 15 0 empty empty R1-R 17 7 0 10 -262144 -1 -1 0
8;
#X obj 103 787 tgl 15 0 empty empty L2-L 17 7 0 10 -262144 -1 -1 0
8;
#X obj 151 787 tgl 15 0 empty empty L2-R 17 7 0 10 -262144 -1 -1 0
8;
#X obj 103 802 tgl 15 0 empty empty R2-L 17 7 0 10 -262144 -1 -1 0
8;
#X obj 151 802 tgl 15 0 empty empty R2-R 17 7 0 10 -262144 -1 -1 0
8;
#X obj 239 703 bng 15 250 50 0 send-dynamic-\$0 empty send-dynamic
17 7 0 10 -4034 -1 -1;
#X obj 239 718 bng 15 250 50 0 Clear-\$0 empty Clear 17 7 0 10 -4032
-1 -1;
#X obj 239 688 bng 15 250 50 0 add_step-\$0 empty add_step 17 7 0 10
-204786 -1 -1;
#X obj 119 687 bng 15 250 50 0 send-static-\$0 empty send-static 17
7 0 10 -4034 -1 -1;
#X floatatom 239 671 5 1 15000 1 delay_time(s) - delay_time-#0;
#X floatatom 119 670 5 0 30000 1 fade_time(s) - fade_time-#0;
#X msg 1334 693 \; Player-\$1-lbl label Player-\$2;
#X obj 1334 667 prepend \$0;
#X obj 1149 753 list prepend;
#X obj 205 760 hradio 10 1 0 9 empty empty empty 0 -8 0 10 -262144
-1 -1 0;
#X obj 205 770 hradio 10 1 0 9 empty empty empty 0 -8 0 10 -262144
-1 -1 0;
#X obj 205 790 hradio 10 1 0 9 empty empty empty 0 -8 0 10 -262144
-1 -1 0;
#X obj 205 800 hradio 10 1 0 9 empty empty empty 0 -8 0 10 -262144
-1 -1 0;
#X obj 305 760 hradio 10 1 0 9 empty empty empty 0 -8 0 10 -262144
-1 -1 0;
#X obj 305 770 hradio 10 1 0 9 empty empty empty 0 -8 0 10 -262144
-1 -1 0;
#X obj 305 790 hradio 10 1 0 9 empty empty empty 0 -8 0 10 -262144
-1 -1 0;
#X obj 305 800 hradio 10 1 0 9 empty empty empty 0 -8 0 10 -262144
-1 -1 0;
#X obj 945 173 / 8;
#X obj 945 193 / 8;
#X obj 945 213 / 8;
#X obj 945 233 / 8;
#X obj 1019 168 / 8;
#X obj 1019 188 / 8;
#X obj 1019 208 / 8;
#X obj 1019 228 / 8;
#X obj 324 39 t b b;
#X obj 1245 129 pack f f f;
#X obj 1315 129 pack f f f;
#X obj 1385 129 pack f f f;
#X obj 1455 129 pack f f f;
#X obj 1245 161 prepend add2;
#X obj 1223 57 t b b b b b b;
#X obj 103 817 tgl 15 0 empty empty L3-L 17 7 0 10 -262144 -1 -1 0
8;
#X obj 151 817 tgl 15 0 empty empty L3-R 17 7 0 10 -262144 -1 -1 0
8;
#X obj 103 832 tgl 15 0 empty empty R3-L 17 7 0 10 -262144 -1 -1 0
8;
#X obj 151 832 tgl 15 0 empty empty R3-R 17 7 0 10 -262144 -1 -1 0
8;
#X obj 103 847 tgl 15 0 empty empty L4-L 17 7 0 10 -262144 -1 -1 0
8;
#X obj 151 847 tgl 15 0 empty empty L4-R 17 7 0 10 -262144 -1 -1 0
8;
#X obj 103 862 tgl 15 0 empty empty R4-L 17 7 0 10 -262144 -1 -1 0
8;
#X obj 151 862 tgl 15 0 empty empty R4-R 17 7 0 10 -262144 -1 -1 0
8;
#X obj 205 820 hradio 10 1 0 9 empty empty empty 0 -8 0 10 -262144
-1 -1 0;
#X obj 205 830 hradio 10 1 0 9 empty empty empty 0 -8 0 10 -262144
-1 -1 0;
#X obj 205 850 hradio 10 1 0 9 empty empty empty 0 -8 0 10 -262144
-1 -1 0;
#X obj 205 860 hradio 10 1 0 9 empty empty empty 0 -8 0 10 -262144
-1 -1 0;
#X obj 305 820 hradio 10 1 0 9 empty empty empty 0 -8 0 10 -262144
-1 -1 0;
#X obj 305 830 hradio 10 1 0 9 empty empty empty 0 -8 0 10 -262144
-1 -1 0;
#X obj 305 850 hradio 10 1 0 9 empty empty empty 0 -8 0 10 -262144
-1 -1 0;
#X obj 305 860 hradio 10 1 0 9 empty empty empty 0 -8 0 10 -262144
-1 -1 0;
#X obj 1321 214 / 8;
#X obj 1321 234 / 8;
#X obj 1321 254 / 8;
#X obj 1321 274 / 8;
#X obj 1395 209 / 8;
#X obj 1395 229 / 8;
#X obj 1395 249 / 8;
#X obj 1395 269 / 8;
#X obj 1535 129 pack f f f;
#X obj 1605 129 pack f f f;
#X obj 1675 129 pack f f f;
#X obj 1745 129 pack f f f;
#X obj 1535 161 prepend add2;
#X obj 1513 57 t b b b b b b;
#X obj 103 877 tgl 15 0 empty empty L5-L 17 7 0 10 -262144 -1 -1 0
8;
#X obj 151 877 tgl 15 0 empty empty L5-R 17 7 0 10 -262144 -1 -1 0
8;
#X obj 103 892 tgl 15 0 empty empty R5-L 17 7 0 10 -262144 -1 -1 0
8;
#X obj 151 892 tgl 15 0 empty empty R5-R 17 7 0 10 -262144 -1 -1 0
8;
#X obj 103 907 tgl 15 0 empty empty L6-L 17 7 0 10 -262144 -1 -1 0
8;
#X obj 151 907 tgl 15 0 empty empty L6-R 17 7 0 10 -262144 -1 -1 0
8;
#X obj 103 922 tgl 15 0 empty empty R6-L 17 7 0 10 -262144 -1 -1 0
8;
#X obj 151 922 tgl 15 0 empty empty R6-R 17 7 0 10 -262144 -1 -1 0
8;
#X obj 205 880 hradio 10 1 0 9 empty empty empty 0 -8 0 10 -262144
-1 -1 0;
#X obj 205 890 hradio 10 1 0 9 empty empty empty 0 -8 0 10 -262144
-1 -1 0;
#X obj 205 910 hradio 10 1 0 9 empty empty empty 0 -8 0 10 -262144
-1 -1 0;
#X obj 205 920 hradio 10 1 0 9 empty empty empty 0 -8 0 10 -262144
-1 -1 0;
#X obj 305 880 hradio 10 1 0 9 empty empty empty 0 -8 0 10 -262144
-1 -1 0;
#X obj 305 890 hradio 10 1 0 9 empty empty empty 0 -8 0 10 -262144
-1 -1 0;
#X obj 305 910 hradio 10 1 0 9 empty empty empty 0 -8 0 10 -262144
-1 -1 0;
#X obj 305 920 hradio 10 1 0 9 empty empty empty 0 -8 0 10 -262144
-1 -1 0;
#X obj 1611 214 / 8;
#X obj 1611 234 / 8;
#X obj 1611 254 / 8;
#X obj 1611 274 / 8;
#X obj 1685 209 / 8;
#X obj 1685 229 / 8;
#X obj 1685 249 / 8;
#X obj 1685 269 / 8;
#X obj 1825 129 pack f f f;
#X obj 1895 129 pack f f f;
#X obj 1965 129 pack f f f;
#X obj 2035 129 pack f f f;
#X obj 1825 161 prepend add2;
#X obj 1803 57 t b b b b b b;
#X obj 103 937 tgl 15 0 empty empty L7-L 17 7 0 10 -262144 -1 -1 0
8;
#X obj 151 937 tgl 15 0 empty empty L7-R 17 7 0 10 -262144 -1 -1 0
8;
#X obj 103 952 tgl 15 0 empty empty R7-L 17 7 0 10 -262144 -1 -1 0
8;
#X obj 151 952 tgl 15 0 empty empty R7-R 17 7 0 10 -262144 -1 -1 0
8;
#X obj 103 967 tgl 15 0 empty empty L8-L 17 7 0 10 -262144 -1 -1 0
8;
#X obj 151 967 tgl 15 0 empty empty L8-R 17 7 0 10 -262144 -1 -1 0
8;
#X obj 103 982 tgl 15 0 empty empty R8-L 17 7 0 10 -262144 -1 -1 0
8;
#X obj 151 982 tgl 15 0 empty empty R8-R 17 7 0 10 -262144 -1 -1 0
8;
#X obj 205 940 hradio 10 1 0 9 empty empty empty 0 -8 0 10 -262144
-1 -1 0;
#X obj 205 950 hradio 10 1 0 9 empty empty empty 0 -8 0 10 -262144
-1 -1 0;
#X obj 205 970 hradio 10 1 0 9 empty empty empty 0 -8 0 10 -262144
-1 -1 0;
#X obj 205 980 hradio 10 1 0 9 empty empty empty 0 -8 0 10 -262144
-1 -1 0;
#X obj 305 940 hradio 10 1 0 9 empty empty empty 0 -8 0 10 -262144
-1 -1 0;
#X obj 305 950 hradio 10 1 0 9 empty empty empty 0 -8 0 10 -262144
-1 -1 0;
#X obj 305 970 hradio 10 1 0 9 empty empty empty 0 -8 0 10 -262144
-1 -1 0;
#X obj 305 980 hradio 10 1 0 9 empty empty empty 0 -8 0 10 -262144
-1 -1 0;
#X obj 1901 214 / 8;
#X obj 1901 234 / 8;
#X obj 1901 254 / 8;
#X obj 1901 274 / 8;
#X obj 1975 209 / 8;
#X obj 1975 229 / 8;
#X obj 1975 249 / 8;
#X obj 1975 269 / 8;
#X obj 107 638 hradio 15 1 0 16 Player-\$0 Player-\$0-lbl Player 0
-8 0 12 -257985 -1 -257985 8;
#X obj 103 727 tgl 15 0 empty empty L 17 7 0 10 -262144 -1 -1 0 8;
#X obj 151 727 tgl 15 0 empty empty R 17 7 0 10 -262144 -1 -1 0 8;
#X connect 2 0 1 1;
#X connect 2 0 46 1;
#X connect 3 0 4 0;
#X connect 4 0 2 0;
#X connect 4 0 45 0;
#X connect 5 0 15 0;
#X connect 6 0 18 0;
#X connect 7 0 14 0;
#X connect 8 0 14 0;
#X connect 9 0 14 0;
#X connect 10 0 14 0;
#X connect 11 0 16 0;
#X connect 12 0 13 0;
#X connect 13 0 19 0;
#X connect 13 0 27 0;
#X connect 14 0 13 0;
#X connect 15 0 10 2;
#X connect 15 0 9 2;
#X connect 15 0 8 2;
#X connect 15 0 7 2;
#X connect 15 0 64 2;
#X connect 15 0 127 2;
#X connect 15 0 126 2;
#X connect 15 0 125 2;
#X connect 15 0 124 2;
#X connect 15 0 97 2;
#X connect 15 0 96 2;
#X connect 15 0 95 2;
#X connect 15 0 94 2;
#X connect 15 0 67 2;
#X connect 15 0 66 2;
#X connect 15 0 65 2;
#X connect 16 0 69 0;
#X connect 16 1 10 0;
#X connect 16 2 9 0;
#X connect 16 3 8 0;
#X connect 16 4 7 0;
#X connect 16 5 12 0;
#X connect 17 0 27 0;
#X connect 18 0 17 1;
#X connect 19 0 20 0;
#X connect 20 0 17 0;
#X connect 21 0 20 0;
#X connect 22 0 24 0;
#X connect 24 0 21 0;
#X connect 24 1 23 0;
#X connect 25 0 63 0;
#X connect 26 0 20 0;
#X connect 28 0 1 0;
#X connect 28 0 46 0;
#X connect 30 0 47 0;
#X connect 31 0 51 0;
#X connect 32 0 48 0;
#X connect 33 0 52 0;
#X connect 34 0 49 0;
#X connect 35 0 53 0;
#X connect 36 0 50 0;
#X connect 37 0 54 0;
#X connect 45 0 44 0;
#X connect 46 0 29 0;
#X connect 47 0 55 0;
#X connect 48 0 56 0;
#X connect 49 0 57 0;
#X connect 50 0 58 0;
#X connect 51 0 59 0;
#X connect 52 0 60 0;
#X connect 53 0 61 0;
#X connect 54 0 62 0;
#X connect 55 0 7 0;
#X connect 56 0 8 0;
#X connect 57 0 9 0;
#X connect 58 0 10 0;
#X connect 59 0 7 1;
#X connect 60 0 8 1;
#X connect 61 0 9 1;
#X connect 62 0 10 1;
#X connect 63 0 16 0;
#X connect 63 1 22 0;
#X connect 64 0 68 0;
#X connect 65 0 68 0;
#X connect 66 0 68 0;
#X connect 67 0 68 0;
#X connect 68 0 13 0;
#X connect 69 0 99 0;
#X connect 69 1 67 0;
#X connect 69 2 66 0;
#X connect 69 3 65 0;
#X connect 69 4 64 0;
#X connect 70 0 78 0;
#X connect 71 0 82 0;
#X connect 72 0 79 0;
#X connect 73 0 83 0;
#X connect 74 0 80 0;
#X connect 75 0 84 0;
#X connect 76 0 81 0;
#X connect 77 0 85 0;
#X connect 78 0 86 0;
#X connect 79 0 87 0;
#X connect 80 0 88 0;
#X connect 81 0 89 0;
#X connect 82 0 90 0;
#X connect 83 0 91 0;
#X connect 84 0 92 0;
#X connect 85 0 93 0;
#X connect 86 0 64 0;
#X connect 87 0 65 0;
#X connect 88 0 66 0;
#X connect 89 0 67 0;
#X connect 90 0 64 1;
#X connect 91 0 65 1;
#X connect 92 0 66 1;
#X connect 93 0 67 1;
#X connect 94 0 98 0;
#X connect 95 0 98 0;
#X connect 96 0 98 0;
#X connect 97 0 98 0;
#X connect 98 0 13 0;
#X connect 99 0 129 0;
#X connect 99 1 97 0;
#X connect 99 2 96 0;
#X connect 99 3 95 0;
#X connect 99 4 94 0;
#X connect 100 0 108 0;
#X connect 101 0 112 0;
#X connect 102 0 109 0;
#X connect 103 0 113 0;
#X connect 104 0 110 0;
#X connect 105 0 114 0;
#X connect 106 0 111 0;
#X connect 107 0 115 0;
#X connect 108 0 116 0;
#X connect 109 0 117 0;
#X connect 110 0 118 0;
#X connect 111 0 119 0;
#X connect 112 0 120 0;
#X connect 113 0 121 0;
#X connect 114 0 122 0;
#X connect 115 0 123 0;
#X connect 116 0 94 0;
#X connect 117 0 95 0;
#X connect 118 0 96 0;
#X connect 119 0 97 0;
#X connect 120 0 94 1;
#X connect 121 0 95 1;
#X connect 122 0 96 1;
#X connect 123 0 97 1;
#X connect 124 0 128 0;
#X connect 125 0 128 0;
#X connect 126 0 128 0;
#X connect 127 0 128 0;
#X connect 128 0 13 0;
#X connect 129 0 13 0;
#X connect 129 1 127 0;
#X connect 129 2 126 0;
#X connect 129 3 125 0;
#X connect 129 4 124 0;
#X connect 130 0 138 0;
#X connect 131 0 142 0;
#X connect 132 0 139 0;
#X connect 133 0 143 0;
#X connect 134 0 140 0;
#X connect 135 0 144 0;
#X connect 136 0 141 0;
#X connect 137 0 145 0;
#X connect 138 0 146 0;
#X connect 139 0 147 0;
#X connect 140 0 148 0;
#X connect 141 0 149 0;
#X connect 142 0 150 0;
#X connect 143 0 151 0;
#X connect 144 0 152 0;
#X connect 145 0 153 0;
#X connect 146 0 124 0;
#X connect 147 0 125 0;
#X connect 148 0 126 0;
#X connect 149 0 127 0;
#X connect 150 0 124 1;
#X connect 151 0 125 1;
#X connect 152 0 126 1;
#X connect 153 0 127 1;
#X connect 155 0 30 0;
#X connect 155 0 136 0;
#X connect 155 0 134 0;
#X connect 155 0 132 0;
#X connect 155 0 130 0;
#X connect 155 0 106 0;
#X connect 155 0 104 0;
#X connect 155 0 102 0;
#X connect 155 0 100 0;
#X connect 155 0 76 0;
#X connect 155 0 74 0;
#X connect 155 0 72 0;
#X connect 155 0 70 0;
#X connect 155 0 36 0;
#X connect 155 0 34 0;
#X connect 155 0 32 0;
#X connect 156 0 31 0;
#X connect 156 0 137 0;
#X connect 156 0 135 0;
#X connect 156 0 133 0;
#X connect 156 0 131 0;
#X connect 156 0 107 0;
#X connect 156 0 105 0;
#X connect 156 0 103 0;
#X connect 156 0 101 0;
#X connect 156 0 77 0;
#X connect 156 0 75 0;
#X connect 156 0 73 0;
#X connect 156 0 71 0;
#X connect 156 0 37 0;
#X connect 156 0 35 0;
#X connect 156 0 33 0;
#X coords 0 -1 1 1 300 400 2 100 600;
