#N canvas 909 238 742 636 10;
#X obj 0 0 cnv 15 99 299 empty cnv-\$0 player_3 2 4 0 10 -261682 -66577
0;
#X obj 4 253 bng 40 250 50 0 empty empty SET 4 20 1 18 -4160 -258113
-258113;
#X obj 333 288 * 1000;
#X floatatom 5 25 5 0 0 2 TIME(s) - -;
#X obj 261 157 inlet;
#X msg 462 290 color 16 13 22;
#X msg 432 309 color 13 16 22;
#X obj 462 341 s REMOTE_LEVEL\$1;
#X floatatom 370 224 5 0 0 0 - - -;
#X obj 284 305 int;
#X obj 432 268 route 0 1;
#X floatatom 58 26 5 0 0 2 LEVEL - -;
#X msg 225 400 player_1 MOD \$1 \$2 -1 0;
#X obj 53 326 loadbang, f 10;
#X obj 38 372 \$1;
#X obj 11 361 bng 15 250 50 0 empty empty empty 17 7 0 10 -262144 -1
-1;
#X obj 184 11 r globaltime;
#X obj 38 525 send to_control_audio;
#X obj 308 154 r remote_player_\$1;
#X obj 462 220 / 1000;
#X obj 433 231 tgl 15 0 empty empty empty 17 7 0 10 -262144 -1 -1 0
1;
#X obj 54 50 vsl 40 240 0 1024 0 0 empty REMOTE_LEVEL\$1 empty 0 -9
0 10 -191407 -191407 -1 0 1;
#X obj 84 375 \$0;
#X obj 53 347 t b b;
#X obj 53 396 pack;
#X msg 53 417 \; cnv-\$2 label player_\$1;
#X obj 4 63 vradio 18 1 0 10 empty empty 0-9 3 -5 0 8 -260097 -262144
-1 0;
#X obj 25 63 vradio 18 1 0 10 empty empty x10 3 -5 0 8 -260097 -262144
-1 2;
#X obj 194 230 * 10;
#X obj 184 290 +;
#X obj 194 251 t b f;
#X msg 38 497 player_3 \$4 \$2 \$3 -1 0;
#X obj 261 184 unpack f f f s, f 37;
#X obj 337 254 symbol;
#X obj 260 331 pack f f f s;
#X msg 38 469 set \, add2 player_\$1 \, adddollar 4 \, adddollar 2
\, adddollar 3 \, add2 -1 0, f 82;
#X symbolatom 131 83 80 0 0 0 - - -;
#X obj 444 11 r level_player_remote-\$1;
#X obj 594 11 r set_player_remote-\$1;
#X obj 264 11 r time_player_remote-\$1;
#X obj 444 32 * 8;
#X obj 184 44 / 2;
#X obj 184 65 int;
#X connect 1 0 34 0;
#X connect 2 0 34 2;
#X connect 3 0 2 0;
#X connect 4 0 32 0;
#X connect 5 0 7 0;
#X connect 6 0 7 0;
#X connect 8 0 7 0;
#X connect 9 0 11 0;
#X connect 9 0 34 1;
#X connect 10 0 6 0;
#X connect 10 1 5 0;
#X connect 13 0 23 0;
#X connect 14 0 24 0;
#X connect 14 0 35 0;
#X connect 15 0 23 0;
#X connect 16 0 41 0;
#X connect 18 0 32 0;
#X connect 19 0 26 0;
#X connect 20 0 10 0;
#X connect 21 0 9 0;
#X connect 22 0 24 1;
#X connect 23 0 14 0;
#X connect 23 1 22 0;
#X connect 24 0 25 0;
#X connect 26 0 29 0;
#X connect 27 0 28 0;
#X connect 28 0 30 0;
#X connect 29 0 3 0;
#X connect 30 0 29 0;
#X connect 30 1 29 1;
#X connect 31 0 17 0;
#X connect 32 0 10 0;
#X connect 32 1 8 0;
#X connect 32 2 19 0;
#X connect 32 3 33 0;
#X connect 33 0 34 3;
#X connect 33 0 36 0;
#X connect 34 0 31 0;
#X connect 35 0 31 0;
#X connect 37 0 40 0;
#X connect 38 0 1 0;
#X connect 39 0 41 0;
#X connect 40 0 21 0;
#X connect 41 0 42 0;
#X connect 42 0 26 0;
#X coords 0 -1 1 1 100 300 2 0 0;
