#N canvas 204 79 975 464 10;
#X obj 87 39 receive~ Left-\$1;
#X obj 237 39 receive~ Right-\$1;
#X obj 309 325 *~;
#X obj 349 325 *~;
#X obj 209 325 *~;
#X obj 249 325 *~;
#X obj 99 325 *~;
#X obj 139 325 *~;
#X obj 134 146 vsl 15 128 0 1 0 1 empty empty empty 0 -9 0 10 -262144
-1 -1 12700 1;
#X obj 155 146 vsl 15 128 0 1 0 1 empty empty empty 0 -9 0 10 -262144
-1 -1 12700 1;
#X obj 114 146 vsl 15 128 0 1 0 1 empty empty empty 0 -9 0 10 -262144
-1 -1 12700 1;
#X obj 99 367 outlet~;
#X obj 139 347 outlet~;
#X obj 209 367 outlet~;
#X obj 249 347 outlet~;
#X obj 309 367 outlet~;
#X obj 349 347 outlet~;
#X connect 0 0 6 0;
#X connect 0 0 4 0;
#X connect 0 0 2 0;
#X connect 1 0 7 0;
#X connect 1 0 5 0;
#X connect 1 0 3 0;
#X connect 2 0 15 0;
#X connect 3 0 16 0;
#X connect 4 0 13 0;
#X connect 5 0 14 0;
#X connect 6 0 11 0;
#X connect 7 0 12 0;
#X connect 8 0 4 1;
#X connect 8 0 5 1;
#X connect 9 0 2 1;
#X connect 9 0 3 1;
#X connect 10 0 6 1;
#X connect 10 0 7 1;
#X coords 0 -1 1 1 85 200 1 100 100;
