#N canvas 203 186 1467 588 10;
#X obj 61 90 r to_pimotor;
#X msg 61 50 \; to_ipMotor connect 192.168.10.101 5000;
#X obj 61 109 OSC/OSCsender 127.0.0.1 5050 to_ipMotor;
#X msg 688 248 ls ./Qlist-stepper/;
#X obj 708 224 text define stepperlist;
#X obj 872 441 text get stepperlist;
#X obj 688 271 ggee/shell;
#X obj 688 294 list;
#X obj 688 319 text insert stepperlist;
#X msg 708 170 clear;
#X obj 872 404 counter;
#X obj 899 326 text size stepperlist;
#X obj 669 131 t b b b;
#X msg 872 375 down;
#X obj 872 303 t b b;
#X symbolatom 872 501 30 0 0 1 Opened_Qlistname - -;
#X obj 491 391 bng 15 250 50 0 empty empty Next_in_stepperlist 17 7
0 10 -262130 -1 -1;
#X obj 899 349 - 1;
#X msg 712 192 click;
#X obj 491 179 bng 15 250 50 0 empty empty Open_stepperlist 17 7 0
10 -262130 -1 -1;
#X obj 772 287 del 10;
#X floatatom 939 349 5 0 0 0 - - -;
#X obj 491 118 bng 15 250 50 0 empty Mise_a_jour_stepperlist-\$0 Mise_a_jour_stepperlist
17 7 0 10 -204786 -1 -1;
#X obj 872 842 qlist;
#X msg 802 795 click;
#X msg 802 772 print;
#X msg 802 817 bang;
#X obj 491 759 bng 15 250 50 0 empty empty Print_Qlist 17 7 0 10 -257985
-1 -1;
#X obj 491 782 bng 15 250 50 0 empty empty Open_Qlist 17 7 0 10 -257985
-1 -1;
#X obj 491 804 bng 15 250 50 0 empty Bang_Qlist-\$0 Bang_Qlist 17 7
0 10 -4034 -1 -1;
#X msg 1001 768 write ./Qlist-stepper/step2;
#X obj 1208 580 makefilename %s/%%s;
#X msg 1001 686 set write \$1;
#X msg 1208 603 set \$1;
#X obj 872 619 makefilename;
#X msg 872 686 read \$1, f 16;
#X symbolatom 95 486 30 0 0 1 receive_Qlistname - -;
#X text 1358 556 AJOUTER CHEMIN VIA StuART;
#X obj 491 739 bng 15 250 50 0 empty empty Store_Qlist 17 7 0 10 -260097
-1 -1;
#X obj 954 752 t b b;
#X obj 954 821 bng 15 250 50 0 Mise_a_jour_stepperlist-\$0 empty Mise_a_jour_stepperlist
17 7 0 10 -204786 -1 -1;
#X obj 68 397 receive Stepper_main-step;
#X obj 68 467 bng 15 250 50 0 Bang_Qlist-\$0 empty Bang_Qlist 17 7
0 10 -4034 -1 -1;
#X msg 68 357 \; Stepper_main-step step-misespectacle1;
#X obj 68 420 t b a;
#X obj 95 447 symbol;
#X msg 1208 232 set ls \$1/;
#X obj 62 205 bng 15 250 50 0 empty empty init_chemin-si-travail-standalone
17 7 0 10 -159808 -1 -1;
#X obj 491 829 bng 15 250 50 0 empty empty Store_to_CueList 17 7 0
10 -258113 -1 -1;
#X text 65 334 Charger une Qlist et l'executer;
#X obj 62 177 loadbang;
#X obj 1312 218 t b b b;
#X obj 1312 253 bng 15 250 50 0 Mise_a_jour_stepperlist-\$0 empty Mise_a_jour_stepperlist
17 7 0 10 -204786 -1 -1;
#X msg 1208 556 symbol ./Qlist-stepper;
#X text 871 877 EXAMPLE Qlist to_pimotor /selectSHIELD 1 0 0 0 0 \;
10 to_pimotor /acceleration 900 900 900 \; 100 to_pimotor /vitesse
1200 1200 1200 \; 200 to_pimotor /moveto 25000 27000 27000 \; 300 to_pimotor
/run 1 \;;
#X msg 1352 285 mkdir Qlist-stepper;
#X text 1354 310 crée dossier cible si il n'esxite pas dejà;
#X connect 0 0 2 0;
#X connect 3 0 6 0;
#X connect 5 0 15 0;
#X connect 6 0 7 0;
#X connect 6 1 20 0;
#X connect 7 0 8 0;
#X connect 9 0 4 0;
#X connect 10 0 5 0;
#X connect 11 0 17 0;
#X connect 11 0 21 0;
#X connect 12 1 3 0;
#X connect 12 2 9 0;
#X connect 13 0 10 0;
#X connect 14 0 13 0;
#X connect 14 1 11 0;
#X connect 15 0 34 0;
#X connect 16 0 10 0;
#X connect 17 0 10 4;
#X connect 18 0 4 0;
#X connect 19 0 18 0;
#X connect 20 0 14 0;
#X connect 22 0 12 0;
#X connect 24 0 23 0;
#X connect 25 0 23 0;
#X connect 26 0 23 0;
#X connect 27 0 25 0;
#X connect 28 0 24 0;
#X connect 29 0 26 0;
#X connect 30 0 23 0;
#X connect 31 0 33 0;
#X connect 32 0 30 0;
#X connect 33 0 34 0;
#X connect 34 0 32 0;
#X connect 34 0 35 0;
#X connect 35 0 23 0;
#X connect 36 0 15 0;
#X connect 38 0 39 0;
#X connect 39 0 40 0;
#X connect 39 1 30 0;
#X connect 41 0 44 0;
#X connect 44 0 42 0;
#X connect 44 1 45 0;
#X connect 45 0 36 0;
#X connect 46 0 3 0;
#X connect 47 0 51 0;
#X connect 51 0 52 0;
#X connect 51 1 53 0;
#X connect 51 2 55 0;
#X connect 53 0 31 0;
#X connect 53 0 46 0;
#X connect 55 0 6 0;
