#N canvas 0 36 1920 977 12;
#X obj 101 121 Qontrol \$1;
#X obj 101 17 inlet;
#X obj 313 226 outlet;
#N canvas 0 69 1920 977 local 0;
#X obj 97 32 inlet;
#X obj 876 431 prepend set;
#X msg 876 456 /FADE_SERIE 1000 180 90 30;
#X obj 821 145 list prepend;
#X obj 1290 125 r time-\$0;
#X obj 821 95 list prepend;
#X obj 1290 75 r color-\$0;
#X obj 1290 174 r listpixels-\$0;
#X obj 912 194 t l l;
#X obj 993 214 list length;
#X obj 912 239 list prepend;
#X obj 821 259 list prepend;
#X obj 821 48 bng 20 250 50 0 empty send-\$0 send-\$0 0 -10 0 12 #00ff04 #000000 #000000;
#X obj 821 284 prepend /FADE_SERIE;
#X obj 1290 210 r dimmer-\$0;
#X obj 1290 279 prepend /DIMMER;
#X obj 821 339 s to-device-\$0;
#X obj 1290 339 s to-device-\$0;
#X obj 830 372 r to-device-\$0;
#X obj 830 397 t a a a;
#X obj 830 489 s PIXLED-SERIE-MANAGER-StuART_WS2812B/\$1;
#X obj 1010 670 r PIXLED-SERIE-MANAGER-StuART_WS2812B/\$1;
#X obj 144 330 r CONTROL-ALL;
#X obj 97 733 s color-\$0;
#X obj 97 583 route /red /redgreen /green /greenblue /blue /bluered /cto /ctb /noir, f 72;
#X msg 536 608 0 0 0;
#X obj 199 733 s time-\$0;
#X msg 97 608 200 0 0;
#X msg 208 608 0 200 0;
#X msg 319 608 0 0 200;
#X msg 430 609 180 90 30;
#X msg 486 638 110 100 150;
#X msg 152 638 180 80 0;
#X msg 263 638 0 120 200;
#X msg 375 638 150 0 200;
#X obj 135 445 hradio 20 1 0 8 empty empty time 0 -10 0 12 #fcfcfc #000000 #000000 0;
#X obj 135 470 t b a;
#X obj 135 495 i 10;
#X obj 135 520 pow;
#X floatatom 199 540 7 0 0 0 - - - 0;
#X obj 97 367 routeOSC /color;
#X obj 332 465 hradio 20 1 0 6 empty empty dimmer 0 -10 0 12 #fcfcfc #000000 #000000 0;
#X obj 332 490 * 50;
#X obj 362 733 s dimmer-\$0;
#X floatatom 362 525 5 0 0 0 - - - 0;
#X obj 467 733 s listpixels-\$0;
#X obj 594 734 bng 20 250 50 0 send-\$0 empty send-\$0 0 -10 0 12 #00ff04 #000000 #000000;
#X obj 469 430 s lost-\$0;
#X obj 598 614 s lost-\$0;
#X obj 1581 734 r lost-\$0;
#X msg 481 691 5 6 9 8;
#X obj 199 398 routeOSC /time /dimmer /listpixel /send;
#X obj 1581 762 outlet;
#X obj 1010 792 s \$1-toqlist;
#X obj 1010 736 prepend \$1;
#X connect 0 0 40 0;
#X connect 1 0 2 0;
#X connect 3 0 11 0;
#X connect 4 0 3 1;
#X connect 5 0 3 0;
#X connect 6 0 5 1;
#X connect 7 0 8 0;
#X connect 8 0 10 0;
#X connect 8 1 9 0;
#X connect 9 0 10 1;
#X connect 10 0 11 1;
#X connect 11 0 13 0;
#X connect 12 0 5 0;
#X connect 13 0 16 0;
#X connect 14 0 15 0;
#X connect 15 0 17 0;
#X connect 18 0 19 0;
#X connect 19 0 20 0;
#X connect 19 2 1 0;
#X connect 21 0 54 0;
#X connect 22 0 40 0;
#X connect 24 0 27 0;
#X connect 24 1 32 0;
#X connect 24 2 28 0;
#X connect 24 3 33 0;
#X connect 24 4 29 0;
#X connect 24 5 34 0;
#X connect 24 6 30 0;
#X connect 24 7 31 0;
#X connect 24 8 25 0;
#X connect 24 9 48 0;
#X connect 25 0 23 0;
#X connect 27 0 23 0;
#X connect 28 0 23 0;
#X connect 29 0 23 0;
#X connect 30 0 23 0;
#X connect 31 0 23 0;
#X connect 32 0 23 0;
#X connect 33 0 23 0;
#X connect 34 0 23 0;
#X connect 35 0 36 0;
#X connect 36 0 37 0;
#X connect 36 1 38 1;
#X connect 37 0 38 0;
#X connect 38 0 39 0;
#X connect 39 0 26 0;
#X connect 40 0 24 0;
#X connect 40 1 51 0;
#X connect 41 0 42 0;
#X connect 42 0 44 0;
#X connect 44 0 43 0;
#X connect 49 0 52 0;
#X connect 50 0 45 0;
#X connect 51 0 39 0;
#X connect 51 1 44 0;
#X connect 51 2 45 0;
#X connect 51 3 46 0;
#X connect 51 4 47 0;
#X connect 54 0 53 0;
#X restore 101 253 pd local;
#X obj 193 233 r loopbackOSC-\$0;
#X obj 101 206 routeOSC /\$1;
#X msg 395 116 /noir 500;
#X obj 332 102 bng 18 250 50 0 empty empty /noir -40 10 0 12 #ff0400 #000000 #000000;
#X obj 24 203 r \$1;
#X msg 294 36 /FADE_SERIE 8 7 6 5 4 3 2 1 0 1000 0 0 0;
#X obj 533 135 tgl 20 1 REC-Mode-\$1 REC-Mode-M-\$1 REC-Mode-\$1 -60 10 0 12 #ff0400 #0400ff #000000 0 1;
#X obj 376 593 OSCsender 0 8888 StuART_\$1;
#X obj 471 759 r ESP-8266-OSC-WS2812B-PIXLED-SERIE-\$0;
#X obj 481 739 r ESP-8266-OSC-WS2812B-PIXLED-SERIE-\$1;
#X obj 491 719 r PIXLED-SERIE-MANAGER-\$1;
#X obj 481 789 s PIXLED-SERIE-MANAGER-\$1;
#X obj 569 539 r IP-StuART_\$1;
#X obj 853 412 prepend connect;
#X obj 853 28 routeOSC /StuART_\$1;
#X obj 853 366 routeOSC /helloworld;
#X obj 1025 588 print lost_in_\$1;
#X obj 853 451 s IP-StuART_\$1;
#X msg 424 430 /speed;
#X msg 423 457 /acc;
#X msg 430 483 /speedacc;
#X msg 151 450 /setzero;
#X msg 311 438 /resolution \$1;
#X obj 301 359 hradio 20 1 0 8 empty empty empty 0 -10 0 12 #fcfcfc #000000 #000000 0;
#X msg 521 401 /moveto \$1, f 14;
#X obj 513 299 hsl 200 20 -10000 10000 0 0 empty empty empty -2 -10 0 12 #fcfcfc #000000 #000000 0 0;
#X floatatom 510 324 5 0 0 0 - - - 0;
#X obj 510 348 int;
#X obj 546 676 r DIRECT-STEPPER-\$1;
#X msg 412 558 /moveto 30000;
#X msg 407 529 /moveto -10000;
#X obj 688 78 inlet;
#X msg 323 697 /moveto 1000;
#X msg 544 480 /speedacc 8000 200;
#X msg 544 450 /speedacc 800 200;
#X msg 554 500 /speedacc 8000 6000;
#X obj 510 373 * 1;
#X connect 0 0 5 0;
#X connect 1 0 0 0;
#X connect 1 0 18 0;
#X connect 4 0 3 0;
#X connect 5 0 3 0;
#X connect 5 1 2 0;
#X connect 7 0 6 0;
#X connect 8 0 3 0;
#X connect 9 0 3 0;
#X connect 12 0 15 0;
#X connect 13 0 15 0;
#X connect 16 0 11 1;
#X connect 17 0 21 0;
#X connect 18 0 19 0;
#X connect 19 0 17 0;
#X connect 19 1 20 0;
#X connect 25 0 11 0;
#X connect 26 0 11 0;
#X connect 27 0 26 0;
#X connect 28 0 11 0;
#X connect 29 0 30 0;
#X connect 30 0 31 0;
#X connect 31 0 40 0;
#X connect 32 0 11 0;
#X connect 33 0 11 0;
#X connect 34 0 11 0;
#X connect 35 0 11 0;
#X connect 36 0 11 0;
#X connect 37 0 11 0;
#X connect 38 0 11 0;
#X connect 39 0 11 0;
#X connect 40 0 28 0;
#X coords 0 -1 1 1 252 102 1 100 100;
