#N canvas 105 103 1329 956 10;
#X floatatom 123 426 5 0 0 0 DMX_adress - -;
#X msg 54 148 dec;
#X msg 109 148 inc;
#X obj 54 122 select 1;
#X obj 109 122 select 1;
#X obj 123 393 counter 1 512 0;
#X floatatom 243 426 5 0 0 0 Value - -;
#X obj 176 123 select 1;
#X obj 231 123 select 1;
#X obj 243 393 counter 0 255 0;
#X msg 217 277 jam 255;
#X msg 392 256 jam 0;
#X obj 172 439 pack;
#X msg 172 680 \$2 \$1;
#X obj 172 752 s SET_DMX_ii;
#X obj 207 24 r out_HutoPi;
#X obj 470 103 select 1;
#X obj 544 103 select 1;
#X obj 162 233 select 1;
#X obj 217 233 select 1;
#X obj 129 483 bng 15 250 50 0 send_list_faderdmx_name empty send_list_faderdmx_name
17 7 0 10 -159808 -1 -1;
#X obj 32 483 r faderdmx_name;
#X obj 123 511 coll;
#C restore;
#X symbolatom 173 525 25 0 0 0 - - -;
#X msg 47 365 jam 128;
#X obj 473 453 symbol;
#X msg 473 537 \; fader_ManifA3 \$1 \$2 \; fader_ManifA4 \$1 \$2 \;
fader_ManifA5 \$1 \$2 \; fader_ManifB4 \$1 \$2 \; fader_ManifB5 \$1
\$2 \; fader_ManifC5 \$1 \$2 \; fader_ManifD4 \$1 \$2 \; fader_ManifD5
\$1 \$2 \; fader_ManifE3 \$1 \$2 \; fader_ManifE4 \$1 \$2 \; fader_ManifE5
\$1 \$2 \;;
#X msg 276 330 1 \, 1 \, 1 \, 1 \, 1 \, 1 \, 1 \, 1 \, 1 \, 1;
#X msg 330 311 1 \, 1 \, 1 \, 1 \, 1 \, 1 \, 1 \, 1 \, 1 \, 1;
#X obj 172 724 spigot;
#X obj 203 704 tgl 15 0 empty empty Direct_output 17 7 0 10 -258113
-257985 -1 0 1;
#X obj 747 540 hradio 15 1 0 32 empty empty select_STORED_group 0 -8
0 10 -262144 -1 -1 3;
#X msg 733 469 add2 \$1;
#X msg 747 559 set store GROUP_\$1;
#X obj 804 716 hradio 15 1 0 32 empty empty RECALL_GROUP 0 -8 0 10
-262144 -1 -1 2;
#X msg 804 735 GROUP_\$1;
#X obj 473 429 r SELECT;
#X obj 648 637 bng 15 250 50 0 empty empty Store_GROUP 17 7 0 10 -258113
-1 -1;
#X msg 648 453 set;
#X msg 528 453 set \, addsemi;
#X msg 473 486 add2 fader_\$1 \, adddollar 1 \, adddollar 2 \, addsemi
;
#X obj 382 439 pack;
#X floatatom 420 426 5 0 0 0 time - -;
#X obj 89 717 r SET_DMX;
#X msg 89 738 \$2 \$1;
#X obj 516 772 bng 15 250 50 0 empty empty Write_GROUPS 17 7 0 10 -258113
-1 -1;
#X obj 435 895 bng 15 250 50 0 empty Recall_GROUP Recall_GROUP 17 7
0 10 -262130 -1 -1;
#X msg 1095 810 ManifA3 \; ManifA4 \; ManifA5 \; ManifB4 \; ManifB5
\; ManifC5 \; ManifD4 \; ManifD5 \; ManifE3 \; ManifE4 \; ManifE5 \;
;
#N canvas 45 213 984 708 serializer 0;
#X obj 136 40 inlet;
#X obj 436 40 inlet;
#X obj 163 138 list split 1;
#X obj 163 181 del;
#X obj 212 244 list append;
#X obj 163 230 t a b;
#X obj 163 208 symbol;
#X obj 163 159 t b s;
#X obj 163 111 list;
#X obj 323 138 list split 1;
#X obj 323 181 del;
#X obj 372 244 list append;
#X obj 323 230 t a b;
#X obj 323 208 symbol;
#X obj 323 159 t b s;
#X msg 483 551 set;
#X obj 402 585 outlet;
#X obj 163 585 outlet;
#X obj 41 48 bng 15 250 50 0 empty empty Recall_GROUP 17 7 0 10 -258113
-1 -1;
#X obj 295 356 inlet;
#X obj 371 267 bng 15 250 50 1 empty empty empty 17 7 0 10 -262144
-1 -1;
#X obj 371 282 + 1024;
#X obj 334 298 text set GROUP_list;
#X obj 499 171 text define GROUP_list;
#X obj 499 151 text delete GROUP_list;
#X msg 499 131 -1;
#X obj 436 70 t a a a b b;
#X floatatom 733 372 5 0 0 0 - - -;
#X obj 578 337 bng 15 250 50 0 empty empty GROUP_list_size_apres_load_GROUP_NAME
17 7 0 10 -262144 -1 -1;
#X floatatom 733 445 5 0 0 0 - - -;
#X obj 547 431 counter 0;
#X symbolatom 731 503 25 0 0 0 - - -;
#X obj 598 357 text size GROUP_list;
#X obj 547 468 text get GROUP_list;
#X msg 331 356 dec;
#X msg 358 356 inc;
#X msg 566 551 set \$1;
#X text 453 585 liste en selection;
#X text 212 586 liste selectionnee;
#X obj 136 61 t b b;
#X msg 136 82 \; Reload_GROUP_NAME_selected 1;
#X obj 598 385 t b a;
#X msg 547 401 set 0;
#X obj 547 489 t a a a;
#X msg 323 551 add \$1;
#X connect 0 0 39 0;
#X connect 1 0 26 0;
#X connect 2 0 7 0;
#X connect 2 1 4 1;
#X connect 3 0 6 0;
#X connect 4 0 2 0;
#X connect 5 0 17 0;
#X connect 5 1 4 0;
#X connect 6 0 5 0;
#X connect 7 0 3 0;
#X connect 7 1 6 1;
#X connect 8 0 2 0;
#X connect 9 0 14 0;
#X connect 9 1 11 1;
#X connect 9 2 32 0;
#X connect 10 0 13 0;
#X connect 11 0 9 0;
#X connect 12 0 44 0;
#X connect 12 0 22 0;
#X connect 12 1 11 0;
#X connect 13 0 12 0;
#X connect 14 0 10 0;
#X connect 14 1 13 1;
#X connect 15 0 16 0;
#X connect 18 0 39 0;
#X connect 19 0 30 0;
#X connect 20 0 21 0;
#X connect 21 0 22 1;
#X connect 25 0 24 0;
#X connect 26 0 8 1;
#X connect 26 2 9 0;
#X connect 26 3 15 0;
#X connect 26 4 25 0;
#X connect 28 0 32 0;
#X connect 30 0 29 0;
#X connect 30 0 33 0;
#X connect 32 0 27 0;
#X connect 32 0 41 0;
#X connect 33 0 43 0;
#X connect 34 0 30 0;
#X connect 35 0 30 0;
#X connect 36 0 16 0;
#X connect 39 0 40 0;
#X connect 39 1 8 0;
#X connect 41 0 42 0;
#X connect 41 1 30 4;
#X connect 42 0 30 0;
#X connect 43 0 8 1;
#X connect 43 1 36 0;
#X connect 43 2 31 0;
#X connect 44 0 16 0;
#X restore 658 908 pd serializer;
#X obj 748 887 print a;
#X obj 798 887 print v;
#X obj 877 888 bng 15 250 50 0 empty empty empty 17 7 0 10 -262144
-1 -1;
#X obj 733 799 coll;
#C restore;
#N canvas 76 246 864 381 GROUPS_writer 0;
#X msg 134 132 write /home/pi/Documents/_LGQ/GROUPS;
#X obj 134 59 r SHOW;
#X obj 134 77 symbol;
#X msg 134 113 set write \$1;
#X msg 92 63 LGQ;
#X msg 371 132 read \$1;
#X obj 38 119 bng 15 250 50 0 empty empty Write_GROUPS 17 7 0 10 -258113
-1 -1;
#X obj 56 18 inlet;
#X obj 134 251 t b a;
#X obj 161 275 outlet;
#X obj 134 295 outlet;
#X msg 454 123 set read \$1;
#X msg 453 142 read /home/pi/Documents/_LGQ/GROUPS;
#X obj 134 95 makefilename /home/pi/Documents/_%s/GROUPS;
#X connect 0 0 8 0;
#X connect 1 0 2 0;
#X connect 2 0 13 0;
#X connect 3 0 0 0;
#X connect 4 0 2 0;
#X connect 5 0 8 0;
#X connect 6 0 0 0;
#X connect 7 0 0 0;
#X connect 8 0 10 0;
#X connect 8 1 9 0;
#X connect 11 0 12 0;
#X connect 12 0 9 0;
#X connect 13 0 3 0;
#X connect 13 0 5 0;
#X connect 13 0 11 0;
#X restore 610 785 pd GROUPS_writer;
#X symbolatom 871 616 10 0 0 0 GROUP_NAME_to_store - -;
#X msg 871 636 set store \$1;
#N canvas 1195 277 516 643 GROUP_NAME_list 1;
#X obj 148 564 outlet;
#X obj 73 33 inlet;
#X obj 73 89 text set GROUP_NAME;
#X obj 110 58 bng 15 250 50 1 empty empty empty 17 7 0 10 -262144 -1
-1;
#X obj 110 73 + 1024;
#X msg 148 323 dump;
#X obj 168 277 text define GROUP_NAME;
#X obj 129 368 text size GROUP_NAME;
#X floatatom 264 383 5 0 0 0 - - -;
#X obj 109 348 bng 15 250 50 0 empty empty empty 17 7 0 10 -262144
-1 -1;
#X floatatom 353 445 5 0 0 0 - - -;
#X msg 260 127 dec;
#X msg 287 127 inc;
#X obj 167 431 counter 0;
#X obj 167 498 text get GROUP_NAME;
#X symbolatom 353 513 10 0 0 0 - - -;
#X obj 129 387 - 1;
#X msg 168 232 -1;
#X text 191 232 clear whole text;
#X obj 168 255 text delete GROUP_NAME;
#X obj 129 167 bng 15 250 50 0 empty Load_GROUP_List Load_GROUP_List
17 7 0 10 -260097 -1 -1;
#X obj 129 187 t b b b;
#X obj 224 127 inlet;
#X obj 167 452 int;
#X obj -16 439 bng 15 250 50 0 empty Reload_GROUP_NAME_selected Reload_GROUP_NAME_selected
17 7 0 10 -261234 -1 -1;
#X connect 1 0 2 0;
#X connect 3 0 4 0;
#X connect 4 0 2 1;
#X connect 5 0 0 0;
#X connect 7 0 8 0;
#X connect 7 0 16 0;
#X connect 9 0 7 0;
#X connect 11 0 13 0;
#X connect 12 0 13 0;
#X connect 13 0 10 0;
#X connect 13 0 23 0;
#X connect 14 0 15 0;
#X connect 15 0 0 0;
#X connect 16 0 13 4;
#X connect 17 0 19 0;
#X connect 20 0 21 0;
#X connect 21 0 7 0;
#X connect 21 1 5 0;
#X connect 21 2 17 0;
#X connect 22 0 13 0;
#X connect 23 0 14 0;
#X connect 24 0 23 0;
#X restore 798 799 pd GROUP_NAME_list;
#X obj 857 888 bng 15 250 50 0 empty empty empty 17 7 0 10 -262144
-1 -1;
#X obj 610 816 bng 15 250 50 0 Load_GROUP_List empty Load_GROUP_List
17 7 0 10 -260097 -1 -1;
#X obj 896 888 print;
#X obj 540 895 bng 15 250 50 0 empty empty Select_GROUP 17 7 0 10 -258113
-1 -1;
#X obj 675 883 spigot;
#X obj 708 862 tgl 15 0 empty spigot_serializer_LR spigot_serializer_LR
17 7 0 10 -204800 -258113 -1 1 1;
#X obj 903 775 spigot;
#X obj 936 754 tgl 15 0 empty spigot_GROUP_NAME_list_LR spigot_GROUP_NAME_list_LR
17 7 0 10 -204800 -258113 -1 1 1;
#X msg 948 264 \; spigot_GROUP_NAME_list_LR \$1 \; spigot_serializer_LR
\$2 \;;
#X obj 509 210 bng 15 250 50 0 Recall_GROUP empty Recall_GROUP 17 7
0 10 -262130 -1 -1;
#X msg 176 149 dec;
#X msg 231 149 inc;
#X obj 695 51 bng 15 250 50 0 empty empty Y-Value-*1_mod+-RL 17 7 0
10 -4034 -1 -1;
#X obj 715 31 bng 15 250 50 0 empty empty X-Value-*10_mod+-RL 17 7
0 10 -4160 -1 -1;
#X obj 715 71 bng 15 250 50 0 empty empty B-TIME-*1000_mod-RL 17 7
0 10 -257985 -1 -1;
#X obj 397 207 bng 15 250 50 0 empty empty A-CLEAR 17 7 0 10 -258113
-1 -1;
#X obj 207 45 route left right up down L R select start Y X B A;
#X obj 695 161 tgl 15 0 empty empty Y-1 17 7 0 10 -4034 -159808 -1
0 1;
#X obj 715 141 tgl 15 0 empty empty X-2 17 7 0 10 -4160 -262144 -1
0 2;
#X obj 715 181 tgl 15 0 empty empty B-3 17 7 0 10 -257985 -1 -1 0 3
;
#X obj 735 161 tgl 15 0 empty empty A-4 17 7 0 10 -258113 -257985 -1
0 4;
#X floatatom 728 313 5 0 0 0 - - -;
#X obj 671 291 counter 0 60 0;
#X obj 671 227 gate 4;
#X obj 721 227 gate 4;
#X obj 671 312 * 1000;
#X obj 1004 199 == 0;
#X msg 948 220 1 1;
#X msg 975 220 0 0;
#X msg 1004 220 \$1 \$1;
#X msg 671 265 dec;
#X msg 721 265 inc;
#X msg 243 367 dec;
#X msg 298 367 inc;
#X obj 392 231 t b b b;
#X msg 162 277 jam 0;
#X obj 544 182 spigot;
#X obj 527 155 tgl 15 0 empty spigot_SELECT_CLEAR spigot_SELECT_CLEAR
17 7 0 10 -204800 -258113 -1 1 1;
#X obj 470 182 spigot;
#X obj 958 61 == 0;
#X msg 958 82 \$1 \$1;
#X msg 958 104 \; spigot_SELECT_CLEAR \$1;
#X obj 392 188 select 1;
#X obj 903 734 r LeftRight;
#X obj 675 842 r UpDown;
#X obj 54 175 s LeftRight;
#X obj 176 176 s UpDown;
#X obj 948 197 bng 15 250 50 1 empty empty empty 17 7 0 10 -262144
-1 -1;
#X obj 227 257 bng 15 250 50 0 empty empty START 17 7 0 10 -1 -262144
-1;
#X obj 167 257 bng 15 250 50 0 empty empty SELECT 17 7 0 10 -1 -262144
-1;
#X obj 487 155 bng 15 250 50 0 empty empty L-R 17 7 0 10 -1 -262144
-1;
#X symbolatom 1095 793 10 0 0 0 - - -;
#X msg 733 650;
#X connect 0 0 12 1;
#X connect 0 0 22 0;
#X connect 1 0 102 0;
#X connect 2 0 102 0;
#X connect 3 0 1 0;
#X connect 4 0 2 0;
#X connect 5 0 0 0;
#X connect 6 0 12 0;
#X connect 6 0 41 0;
#X connect 7 0 67 0;
#X connect 8 0 68 0;
#X connect 9 0 6 0;
#X connect 10 0 9 0;
#X connect 11 0 9 0;
#X connect 12 0 13 0;
#X connect 13 0 29 0;
#X connect 15 0 73 0;
#X connect 16 0 80 1;
#X connect 16 0 95 0;
#X connect 17 0 81 1;
#X connect 17 0 93 0;
#X connect 18 0 92 0;
#X connect 19 0 10 0;
#X connect 21 0 22 0;
#X connect 22 0 23 0;
#X connect 22 0 25 1;
#X connect 24 0 5 0;
#X connect 25 0 32 0;
#X connect 25 0 40 0;
#X connect 27 0 89 0;
#X connect 28 0 90 0;
#X connect 29 0 14 0;
#X connect 30 0 29 1;
#X connect 31 0 33 0;
#X connect 32 0 109 0;
#X connect 33 0 109 0;
#X connect 34 0 35 0;
#X connect 35 0 52 0;
#X connect 36 0 25 0;
#X connect 37 0 109 0;
#X connect 38 0 109 0;
#X connect 39 0 26 0;
#X connect 40 0 26 0;
#X connect 41 0 26 0;
#X connect 42 0 41 1;
#X connect 43 0 44 0;
#X connect 44 0 14 0;
#X connect 45 0 53 0;
#X connect 46 0 48 0;
#X connect 48 0 40 0;
#X connect 48 1 47 0;
#X connect 52 0 48 2;
#X connect 52 0 49 0;
#X connect 52 1 50 0;
#X connect 52 1 56 0;
#X connect 52 2 57 0;
#X connect 52 2 59 0;
#X connect 52 3 51 0;
#X connect 53 0 58 0;
#X connect 53 1 52 0;
#X connect 54 0 55 0;
#X connect 55 0 109 0;
#X connect 56 0 52 0;
#X connect 56 0 108 0;
#X connect 60 0 48 1;
#X connect 61 0 48 1;
#X connect 62 0 61 1;
#X connect 63 0 56 1;
#X connect 64 0 63 1;
#X connect 67 0 103 0;
#X connect 68 0 103 0;
#X connect 69 0 74 0;
#X connect 70 0 75 0;
#X connect 71 0 76 0;
#X connect 72 0 91 0;
#X connect 73 0 3 0;
#X connect 73 1 4 0;
#X connect 73 2 7 0;
#X connect 73 3 8 0;
#X connect 73 4 16 0;
#X connect 73 5 17 0;
#X connect 73 6 18 0;
#X connect 73 7 19 0;
#X connect 73 8 69 0;
#X connect 73 9 70 0;
#X connect 73 10 71 0;
#X connect 73 11 99 0;
#X connect 74 0 81 0;
#X connect 74 0 80 0;
#X connect 74 0 96 0;
#X connect 75 0 81 0;
#X connect 75 0 80 0;
#X connect 75 0 96 0;
#X connect 76 0 81 0;
#X connect 76 0 80 0;
#X connect 76 0 96 0;
#X connect 77 0 81 0;
#X connect 77 0 80 0;
#X connect 79 0 78 0;
#X connect 79 0 82 0;
#X connect 80 0 89 0;
#X connect 80 1 27 0;
#X connect 80 2 87 0;
#X connect 81 0 90 0;
#X connect 81 1 28 0;
#X connect 81 2 88 0;
#X connect 82 0 42 0;
#X connect 83 0 86 0;
#X connect 84 0 65 0;
#X connect 85 0 65 0;
#X connect 86 0 65 0;
#X connect 87 0 79 0;
#X connect 88 0 79 0;
#X connect 89 0 9 0;
#X connect 90 0 9 0;
#X connect 91 0 11 0;
#X connect 91 1 39 0;
#X connect 91 2 38 0;
#X connect 92 0 9 0;
#X connect 93 0 66 0;
#X connect 94 0 93 1;
#X connect 94 0 95 1;
#X connect 95 0 66 0;
#X connect 96 0 97 0;
#X connect 97 0 98 0;
#X connect 99 0 91 0;
#X connect 100 0 63 0;
#X connect 101 0 61 0;
#X connect 104 0 84 0;
#X connect 105 0 10 0;
#X connect 106 0 92 0;
#X connect 107 0 95 0;
#X connect 107 0 93 0;
#X connect 109 0 52 0;
