#N canvas 689 249 963 685 10;
#X msg 400 135 close;
#X msg 347 135 print;
#X floatatom 500 214 6 0 0 0 - - -;
#X obj 86 305 tgl 25 0 empty empty X 0 -6 0 8 -4160 -257985 -1 0 1
;
#X floatatom 549 214 6 0 0 0 - - -;
#X obj 126 305 tgl 25 0 empty empty A 0 -6 0 8 -258113 -1 -1 0 1;
#X obj 167 305 tgl 25 0 empty empty B 0 -6 0 8 -257985 -1 -1 0 1;
#X obj 208 305 tgl 25 0 empty empty Y 0 -6 0 8 -4034 -1 -1 0 1;
#X obj 249 305 tgl 25 0 empty empty L 0 -6 0 8 -195568 -1 -1 0 1;
#X obj 290 305 tgl 25 0 empty empty R 0 -6 0 8 -195568 -1 -1 0 1;
#X obj 331 305 tgl 25 0 empty empty select 0 -6 0 8 -195568 -1 -1 0
1;
#X obj 372 305 tgl 25 0 empty empty start 0 -6 0 8 -195568 -1 -1 0
1;
#X obj 86 149 hid;
#X obj 262 87 \$1;
#X msg 235 135 poll \$1;
#X msg 292 135 open \$1;
#X obj 235 107 \$2;
#X obj 235 11 loadbang;
#X obj 235 63 t b b;
#X text 311 79 \$1=device_number;
#X text 293 96 \$2=pooling_time(ms);
#X obj 235 38 bng 15 250 50 0 empty empty empty 17 7 0 10 -262144 -1
-1;
#X obj 86 174 route key abs;
#X obj 86 263 route btn_0 btn_1 btn_2 btn_3 btn_4 btn_5 btn_8 btn_9
, f 55;
#X obj 500 188 route abs_x abs_y;
#X msg 119 82 poll 20;
#X obj 86 365 change;
#X obj 126 365 change;
#X obj 167 365 change;
#X obj 208 365 change;
#X obj 249 365 change;
#X obj 290 365 change;
#X obj 331 365 change;
#X obj 372 365 change;
#X obj 500 285 select 0 127 255;
#X obj 610 285 select 0 127 255;
#X obj 500 242 change;
#X obj 549 242 change;
#X obj 500 309 + 1;
#X obj 562 309 + 1;
#X obj 610 309 + 1;
#X obj 672 309 + 1;
#X obj 531 309 + 0;
#X obj 641 309 + 0;
#X obj 500 354 tgl 25 0 empty empty left 0 -6 0 8 -195568 -1 -1 0 1
;
#X obj 562 354 tgl 25 0 empty empty right 0 -6 0 8 -195568 -1 -1 0
1;
#X obj 610 354 tgl 25 0 empty empty up 0 -6 0 8 -195568 -1 -1 0 1;
#X obj 672 354 tgl 25 0 empty empty down 0 -6 0 8 -195568 -1 -1 0 1
;
#X obj 86 405 outlet;
#X obj 126 405 outlet;
#X obj 167 405 outlet;
#X obj 208 405 outlet;
#X obj 249 405 outlet;
#X obj 290 405 outlet;
#X obj 331 405 outlet;
#X obj 372 405 outlet;
#X obj 500 405 outlet;
#X obj 562 405 outlet;
#X obj 610 405 outlet;
#X obj 672 405 outlet;
#X obj 7 496 cyclone/prepend X;
#X obj 27 516 cyclone/prepend A;
#X obj 57 536 cyclone/prepend B;
#X obj 77 556 cyclone/prepend Y;
#X obj 97 576 cyclone/prepend L;
#X obj 117 596 cyclone/prepend R;
#X obj 147 616 cyclone/prepend select;
#X obj 167 636 cyclone/prepend start;
#X obj 197 656 cyclone/prepend left;
#X obj 217 676 cyclone/prepend right;
#X obj 247 696 cyclone/prepend up;
#X obj 267 716 cyclone/prepend down;
#X obj 7 730 send out_HutoPi;
#X msg 627 124 info;
#X obj 546 33 hradio 15 1 0 8 empty empty empty 0 -8 0 10 -262144 -1
-1 4;
#X msg 546 93 close \, open \$1 \, 1;
#X msg 627 144 refresh;
#X connect 0 0 12 0;
#X connect 1 0 12 0;
#X connect 2 0 36 0;
#X connect 3 0 26 0;
#X connect 4 0 37 0;
#X connect 5 0 27 0;
#X connect 6 0 28 0;
#X connect 7 0 29 0;
#X connect 8 0 30 0;
#X connect 9 0 31 0;
#X connect 10 0 32 0;
#X connect 11 0 33 0;
#X connect 12 0 22 0;
#X connect 13 0 15 0;
#X connect 14 0 12 0;
#X connect 15 0 12 0;
#X connect 16 0 14 0;
#X connect 17 0 21 0;
#X connect 18 0 16 0;
#X connect 18 1 13 0;
#X connect 21 0 18 0;
#X connect 22 0 23 0;
#X connect 22 1 24 0;
#X connect 23 0 3 0;
#X connect 23 1 5 0;
#X connect 23 2 6 0;
#X connect 23 3 7 0;
#X connect 23 4 8 0;
#X connect 23 5 9 0;
#X connect 23 6 10 0;
#X connect 23 7 11 0;
#X connect 24 0 2 0;
#X connect 24 1 4 0;
#X connect 25 0 12 0;
#X connect 26 0 48 0;
#X connect 26 0 60 0;
#X connect 27 0 49 0;
#X connect 27 0 61 0;
#X connect 28 0 50 0;
#X connect 28 0 62 0;
#X connect 29 0 51 0;
#X connect 29 0 63 0;
#X connect 30 0 52 0;
#X connect 30 0 64 0;
#X connect 31 0 53 0;
#X connect 31 0 65 0;
#X connect 32 0 54 0;
#X connect 32 0 66 0;
#X connect 33 0 55 0;
#X connect 33 0 67 0;
#X connect 34 0 38 0;
#X connect 34 1 42 0;
#X connect 34 2 39 0;
#X connect 35 0 40 0;
#X connect 35 1 43 0;
#X connect 35 2 41 0;
#X connect 36 0 34 0;
#X connect 37 0 35 0;
#X connect 38 0 44 0;
#X connect 39 0 45 0;
#X connect 40 0 46 0;
#X connect 41 0 47 0;
#X connect 42 0 44 0;
#X connect 42 0 45 0;
#X connect 43 0 46 0;
#X connect 43 0 47 0;
#X connect 44 0 56 0;
#X connect 44 0 68 0;
#X connect 45 0 57 0;
#X connect 45 0 69 0;
#X connect 46 0 58 0;
#X connect 46 0 70 0;
#X connect 47 0 59 0;
#X connect 47 0 71 0;
#X connect 60 0 72 0;
#X connect 61 0 72 0;
#X connect 62 0 72 0;
#X connect 63 0 72 0;
#X connect 64 0 72 0;
#X connect 65 0 72 0;
#X connect 66 0 72 0;
#X connect 67 0 72 0;
#X connect 68 0 72 0;
#X connect 69 0 72 0;
#X connect 70 0 72 0;
#X connect 71 0 72 0;
#X connect 73 0 12 0;
#X connect 74 0 75 0;
#X connect 75 0 12 0;
#X connect 76 0 12 0;
