#N canvas 1165 60 458 410 10;
#X obj 5 4 tgl 60 1 empty toggle_\$0 \$2 5 30 0 20 -33289 -258699 -24198
0 1;
#X obj 54 194 pack;
#X obj 79 168 \$1;
#X obj 79 134 loadbang;
#X obj 1 316 spigot;
#X obj 200 317 spigot;
#X obj 1 275 t f f f;
#X obj 1 337 bang;
#X obj 200 339 bang;
#X obj 200 361 \$0;
#X obj 1 360 \$0;
#X obj 73 292 == 0;
#X obj 272 292 == 1;
#X msg 1 383 \; toggle_\$1 color 12 13 16;
#X msg 200 383 \; toggle_\$1 color 22 22 13;
#X obj 172 137 r toggle_\$1;
#X obj 377 349 outlet;
#X obj 381 322 bng 15 250 50 0 empty empty empty 17 7 0 10 -262144
-1 -1;
#X obj 54 221 cyclone/prepend /set_gpio;
#X obj 172 167 r \$2;
#X obj 280 211 prepend \$2;
#X obj 280 233 send to_cue;
#X obj 2 88 OSCsender \$3 7772 GPIO_\$1_\$2;
#X connect 0 0 1 0;
#X connect 0 0 6 0;
#X connect 0 0 17 0;
#X connect 1 0 18 0;
#X connect 1 0 20 0;
#X connect 2 0 1 1;
#X connect 3 0 2 0;
#X connect 4 0 7 0;
#X connect 5 0 8 0;
#X connect 6 0 5 0;
#X connect 6 0 4 0;
#X connect 6 1 11 0;
#X connect 6 2 12 0;
#X connect 7 0 10 0;
#X connect 8 0 9 0;
#X connect 9 0 14 0;
#X connect 10 0 13 0;
#X connect 11 0 4 1;
#X connect 12 0 5 1;
#X connect 15 0 0 0;
#X connect 17 0 16 0;
#X connect 18 0 22 0;
#X connect 19 0 0 0;
#X connect 20 0 21 0;
#X coords 0 -1 1 1 70 70 2 0 0;
