#N canvas 973 1425 559 537 10;
#X obj 104 295 t b b;
#X obj 104 367 /;
#X floatatom 104 391 5 0 0 1 moyenne-glissante - - 0;
#X obj 104 131 f;
#X obj 104 161 t b f b;
#X floatatom 212 142 5 0 0 1 taille-moyenne-glissante-\$1 - - 0;
#X obj 212 165 t f f;
#X msg 239 191 resize \$1;
#X obj 104 53 inlet;
#X obj 228 333 array size array-\$1;
#X obj 104 333 array sum array-\$1;
#X obj 123 251 array set array-\$1;
#X obj 104 503 outlet;
#X obj 212 53 inlet;
#X obj 287 420 f;
#X obj 104 443 - 0;
#X obj 287 370 r set-offset-moyenne-glissante-\$1;
#X obj 256 52 r taille-moyenne-glissante-\$1;
#X floatatom 287 453 5 0 0 1 offset-moyenne-glissante-\$1 - - 0;
#X obj 287 394 bng 18 250 50 0 empty empty empty 0 -9 0 10 #ff8300 #000000 #000000;
#X obj 297 101 hsl 100 18 -10 10 0 0 empty empty empty -2 -9 0 10 #fcfcfc #000000 #000000 0 1;
#X obj 239 217 array define -yrange -10 10 array-\$1 5;
#X obj 143 207 counter 0 5;
#X connect 0 0 10 0;
#X connect 0 1 9 0;
#X connect 1 0 2 0;
#X connect 2 0 14 1;
#X connect 2 0 15 0;
#X connect 3 0 4 0;
#X connect 4 0 0 0;
#X connect 4 1 11 0;
#X connect 4 2 22 0;
#X connect 5 0 6 0;
#X connect 6 0 22 4;
#X connect 6 1 7 0;
#X connect 7 0 21 0;
#X connect 8 0 3 0;
#X connect 9 0 1 1;
#X connect 10 0 1 0;
#X connect 13 0 5 0;
#X connect 14 0 15 1;
#X connect 14 0 18 0;
#X connect 15 0 12 0;
#X connect 15 0 20 0;
#X connect 16 0 19 0;
#X connect 17 0 5 0;
#X connect 19 0 14 0;
#X connect 22 0 11 1;
#X coords 0 -1 1 1 300 20 1 100 100;
