#N canvas 378 240 1458 529 12;
#X obj 261 9 inlet;
#X obj 304 371 hsl 170 20 0 200 0 0 empty empty empty -2 -10 0 12 #fcfcfc #000000 #000000 0 1;
#X obj 301 313 list split 1;
#X obj 261 61 list split 1;
#X floatatom 411 123 5 0 0 0 time_count\ (ms) - time_count 0;
#X floatatom 102 144 5 1 1000 1 Moyenne-\$1 - - 0;
#X floatatom 411 143 5 0 0 0 distance\ (cm) - - 0;
#X obj 301 406 outlet;
#X obj 15 250 s taille-moyenne-glissante-\$1;
#X obj 39 442 outlet;
#X obj 261 34 routeOSC /StuART_\$1;
#X obj 493 175 r IP-StuART_\$1;
#X obj 80 74 r Moyenne-\$1;
#X obj 80 54 r Moyenne-HC-SR04;
#X msg 15 285 /time_loop \$1;
#X floatatom 102 125 5 1 1000 1 time_loop-\$1 - - 0;
#X obj 21 3 r time_loop-HC-SR04;
#X obj 21 23 r time_loop-\$1;
#X text 354 408 valeur moyennée a mapper;
#X text 93 443 transmet les autres messages OSC;
#X obj 507 29 inlet;
#X obj 103 167 OSCsender 0 8888 StuART_\$1;
#X obj 301 343 moyenne-glissante \$1;
#X connect 0 0 10 0;
#X connect 1 0 6 0;
#X connect 1 0 7 0;
#X connect 2 0 22 0;
#X connect 3 0 4 0;
#X connect 3 1 2 0;
#X connect 5 0 8 0;
#X connect 10 0 3 0;
#X connect 10 1 9 0;
#X connect 11 0 21 1;
#X connect 12 0 5 0;
#X connect 13 0 5 0;
#X connect 14 0 21 0;
#X connect 15 0 14 0;
#X connect 16 0 15 0;
#X connect 17 0 15 0;
#X connect 20 0 21 0;
#X connect 22 0 1 0;
#X coords 0 -1 1 1 350 100 1 100 100;
