#N canvas 127 159 1038 300 10;
#X obj 78 40 r Light-GROUP-1;
#X obj 78 63 outlet;
#X obj 178 63 outlet;
#X obj 278 63 outlet;
#X obj 378 63 outlet;
#X obj 478 63 outlet;
#X obj 578 63 outlet;
#X obj 678 63 outlet;
#X obj 178 40 r Light-GROUP-2;
#X obj 278 40 r Light-GROUP-3;
#X obj 378 40 r Light-GROUP-4;
#X obj 478 40 r Light-GROUP-5;
#X obj 578 40 r Light-GROUP-6;
#X obj 678 40 r Light-GROUP-7;
#X obj 778 63 outlet;
#X obj 778 40 r Light-GROUP-8;
#X connect 0 0 1 0;
#X connect 8 0 2 0;
#X connect 9 0 3 0;
#X connect 10 0 4 0;
#X connect 11 0 5 0;
#X connect 12 0 6 0;
#X connect 13 0 7 0;
#X connect 15 0 14 0;
