#N canvas 64 137 1317 309 10;
#N canvas 0 96 1920 984 paletteshutopi 0;
#X obj 101 101 cnv 15 1298 298 empty empty Hutopi-HID-Palettes 20 12
1 14 -66577 -4034 0;
#X obj 432 5 r Hutopi-HID;
#X obj 543 53 route Select Start;
#X obj 432 28 route X A Y B L1 R1;
#X obj 648 76 route left right up down;
#X obj 1105 210 palette1 X;
#X obj 1201 265 palette1 A;
#X obj 993 265 palette1 Y;
#X obj 1105 320 palette1 B;
#X obj 494 122 palette1 L1;
#X obj 897 122 palette1 R1;
#X obj 628 264 palette1 Select;
#X obj 782 265 palette1 Start;
#X obj 285 207 palette1 Up;
#X obj 285 323 palette1 Down;
#X obj 135 262 palette1 Left;
#X obj 435 262 palette1 Right;
#X connect 1 0 3 0;
#X connect 2 0 11 1;
#X connect 2 1 12 1;
#X connect 2 2 4 0;
#X connect 3 0 5 1;
#X connect 3 1 6 1;
#X connect 3 2 7 1;
#X connect 3 3 8 1;
#X connect 3 4 9 1;
#X connect 3 5 10 1;
#X connect 3 6 2 0;
#X connect 4 0 15 1;
#X connect 4 1 16 1;
#X connect 4 2 13 1;
#X connect 4 3 14 1;
#X coords 0 -1 1 1 1300 300 1 100 100;
#X restore 2 4 pd paletteshutopi;
