#N canvas 272 339 1368 604 10;
#X obj 342 71 OSC/OSCreceiver 54321 fromPhone;
#X obj 342 508 OSC/OSCsender 255.255.255.255 54322 to_phone;
#X msg 598 492 connect 192.168.10.102 54322;
#X msg 342 364 /LAbelGOER-\$1 \$2;
#X msg 599 527 connect 192.168.10.100 54322;
#X obj 462 364 r labelGoer;
#X obj 946 147 route loveisall fantomes;
#X obj 946 89 OSC/OSCreceiver 5560 macbook;
#X obj 946 125 route /qlabtostuart;
#X obj 1016 187 s bang-fantomes;
#X obj 946 205 s bang-loveisall;
#X obj 1087 169 send to_control_goto;
#N canvas 409 302 1191 467 _resend-mobmuplat 0;
#X obj 37 37 inlet;
#X obj 37 80 route /resend;
#X obj 37 168 outlet;
#X obj 93 168 outlet;
#X obj 37 103 select 1;
#X obj 448 79 r LOADED_CUE;
#X obj 743 110 r mobmuplat-top;
#X obj 884 150 r mobmuplat-next_next_1;
#X obj 612 150 r notes;
#X obj 428 248 bng 15 250 50 0 empty empty resend 17 7 0 10 -262144
-1 -1;
#X obj 630 192 bng 15 250 50 0 empty empty resend 17 7 0 10 -262144
-1 -1;
#X obj 770 192 bng 15 250 50 0 empty empty resend 17 7 0 10 -262144
-1 -1;
#X obj 920 192 bng 15 250 50 0 empty empty resend 17 7 0 10 -262144
-1 -1;
#X obj 343 225 t b b b b;
#X text 197 151 repetition de l'envoi OSC;
#X obj 709 360 outlet;
#X obj 251 119 bng 15 250 50 0 empty empty resend 17 7 0 10 -262144
-1 -1;
#X obj 251 66 inlet;
#X obj 315 21 bng 15 250 50 1 empty empty empty 17 7 0 10 -262144 -1
-1;
#X obj 364 186 del 1500;
#X obj 366 78 metro 1500;
#X obj 920 263 symbol;
#X obj 621 256 list;
#X obj 770 263 symbol;
#X obj 467 267 symbol;
#X obj 612 293 prepend /Notes;
#X obj 743 293 prepend /Top;
#X obj 884 293 prepend /Next;
#X obj 467 293 prepend /OnStage;
#X obj 448 131 t b s s;
#X obj 743 133 symbol;
#X connect 0 0 1 0;
#X connect 1 0 4 0;
#X connect 1 1 2 0;
#X connect 4 0 3 0;
#X connect 4 0 16 0;
#X connect 5 0 29 0;
#X connect 6 0 30 0;
#X connect 7 0 21 1;
#X connect 8 0 22 1;
#X connect 9 0 24 0;
#X connect 10 0 22 0;
#X connect 11 0 23 0;
#X connect 12 0 21 0;
#X connect 13 0 9 0;
#X connect 13 1 10 0;
#X connect 13 2 11 0;
#X connect 13 3 12 0;
#X connect 16 0 13 0;
#X connect 17 0 16 0;
#X connect 18 0 20 0;
#X connect 19 0 13 0;
#X connect 20 0 19 0;
#X connect 21 0 27 0;
#X connect 22 0 25 0;
#X connect 23 0 26 0;
#X connect 24 0 28 0;
#X connect 25 0 15 0;
#X connect 26 0 15 0;
#X connect 27 0 15 0;
#X connect 28 0 15 0;
#X connect 29 0 19 0;
#X connect 29 1 24 1;
#X connect 29 2 24 0;
#X connect 30 0 23 1;
#X restore 352 450 pd _resend-mobmuplat;
#N canvas 934 420 773 373 AudioLevel-mobmuplat 0;
#X obj 31 91 / 1024;
#X obj 91 91 / 1024;
#X obj 151 91 / 1024;
#X obj 211 91 / 1024;
#X obj 271 91 / 1024;
#X obj 331 91 / 1024;
#X obj 391 91 / 1024;
#X obj 451 91 / 1024;
#X obj 591 275 pack f f f f f f f f;
#X obj 591 298 prepend /AudioLevel;
#X obj 591 324 outlet;
#X obj 91 114 t b a;
#X obj 151 114 t b a;
#X obj 211 114 t b a;
#X obj 271 114 t b a;
#X obj 331 114 t b a;
#X obj 391 114 t b a;
#X obj 451 114 t b a;
#X obj 31 29 r level_1;
#X obj 91 49 r level_2;
#X obj 151 69 r level_3;
#X obj 211 29 r level_4;
#X obj 271 49 r level_5;
#X obj 331 69 r level_6;
#X obj 391 29 r level_7;
#X obj 451 49 r level_8;
#X obj 31 114 t b a;
#X obj 88 249 f;
#X obj 109 191 del 500;
#X connect 0 0 26 0;
#X connect 1 0 11 0;
#X connect 2 0 12 0;
#X connect 3 0 13 0;
#X connect 4 0 14 0;
#X connect 5 0 15 0;
#X connect 6 0 16 0;
#X connect 7 0 17 0;
#X connect 8 0 9 0;
#X connect 9 0 10 0;
#X connect 11 0 28 0;
#X connect 11 1 8 1;
#X connect 12 0 28 0;
#X connect 12 1 8 2;
#X connect 13 0 28 0;
#X connect 13 1 8 3;
#X connect 14 0 28 0;
#X connect 14 1 8 4;
#X connect 15 0 28 0;
#X connect 15 1 8 5;
#X connect 16 0 28 0;
#X connect 16 1 8 6;
#X connect 17 0 28 0;
#X connect 17 1 8 7;
#X connect 18 0 0 0;
#X connect 19 0 1 0;
#X connect 20 0 2 0;
#X connect 21 0 3 0;
#X connect 22 0 4 0;
#X connect 23 0 5 0;
#X connect 24 0 6 0;
#X connect 25 0 7 0;
#X connect 26 0 28 0;
#X connect 26 1 27 1;
#X connect 27 0 8 0;
#X connect 28 0 27 0;
#X restore 332 422 pd AudioLevel-mobmuplat;
#N canvas 122 367 1376 622 GOER-Label 0;
#X obj 5 54 unpack f f f;
#X obj 39 75 * 10;
#X obj 5 91 +;
#X floatatom 5 114 5 0 0 0 - - -;
#X obj 5 136 spigot;
#X obj 5 163 select 0 1 2 3 10 11 12 13 20 21 22 23 30 31 32 33;
#X obj 5 227 _MobMuPlat-master_defineGOer 0;
#X obj 15 247 _MobMuPlat-master_defineGOer 1;
#X obj 25 267 _MobMuPlat-master_defineGOer 2;
#X obj 35 287 _MobMuPlat-master_defineGOer 3;
#X obj 45 307 _MobMuPlat-master_defineGOer 4;
#X obj 55 327 _MobMuPlat-master_defineGOer 5;
#X obj 65 347 _MobMuPlat-master_defineGOer 6;
#X obj 75 367 _MobMuPlat-master_defineGOer 7;
#X obj 85 387 _MobMuPlat-master_defineGOer 8;
#X obj 95 407 _MobMuPlat-master_defineGOer 9;
#X obj 105 427 _MobMuPlat-master_defineGOer 10;
#X obj 115 447 _MobMuPlat-master_defineGOer 11;
#X obj 125 467 _MobMuPlat-master_defineGOer 12;
#X obj 135 487 _MobMuPlat-master_defineGOer 13;
#X obj 145 507 _MobMuPlat-master_defineGOer 14;
#X obj 155 527 _MobMuPlat-master_defineGOer 15;
#X obj 5 1 inlet;
#X obj 339 16 outlet;
#X obj 1108 357 t a a;
#X obj 1135 388 list split 1;
#X obj 1108 435 send;
#X msg 1135 411 symbol patch-mobmuplat-label-\$1;
#X obj 1025 149 bng 15 250 50 0 empty Send-Label-GOer Send-Label-GOer
17 7 0 10 -4034 -258113 -1;
#X obj 1025 132 bng 15 250 50 0 Send-Label-GOer empty Send-Label-GOer
17 7 0 10 -4034 -258113 -1;
#X msg 1108 301 line 0;
#X obj 1108 328 text sequence MobMuPlat-Goer;
#X obj 1025 194 bng 15 250 50 0 empty empty empty 17 7 0 10 -262144
-1 -1;
#X msg 989 245 0;
#X obj 1025 169 t b b;
#X msg 1070 302 step;
#X text 1116 268 mod counter&route s'il y a plus de pattern;
#X obj 319 228 _MobMuPlat-master_defineGOer 16;
#X obj 329 248 _MobMuPlat-master_defineGOer 17;
#X obj 339 268 _MobMuPlat-master_defineGOer 18;
#X obj 349 288 _MobMuPlat-master_defineGOer 19;
#X obj 359 308 _MobMuPlat-master_defineGOer 20;
#X obj 369 328 _MobMuPlat-master_defineGOer 21;
#X obj 379 348 _MobMuPlat-master_defineGOer 22;
#X obj 389 368 _MobMuPlat-master_defineGOer 23;
#X obj 399 388 _MobMuPlat-master_defineGOer 24;
#X obj 409 408 _MobMuPlat-master_defineGOer 25;
#X obj 419 428 _MobMuPlat-master_defineGOer 26;
#X obj 429 448 _MobMuPlat-master_defineGOer 27;
#X obj 319 164 select 40 41 42 43 50 51 52 53 60 61 62 63;
#X obj 599 164 select 0 1 2 3 4 10 11 12 13 14;
#X obj 599 226 _MobMuPlat-master_defineGOer 28;
#X obj 609 248 _MobMuPlat-master_defineGOer 29;
#X obj 619 268 _MobMuPlat-master_defineGOer 30;
#X obj 629 288 _MobMuPlat-master_defineGOer 31;
#X obj 639 308 _MobMuPlat-master_defineGOer 32;
#X obj 649 328 _MobMuPlat-master_defineGOer 33;
#X obj 659 348 _MobMuPlat-master_defineGOer 34;
#X obj 669 368 _MobMuPlat-master_defineGOer 35;
#X obj 679 388 _MobMuPlat-master_defineGOer 36;
#X obj 689 408 _MobMuPlat-master_defineGOer 37;
#X obj 599 52 unpack f f f;
#X obj 633 75 * 10;
#X obj 599 91 +;
#X floatatom 599 114 5 0 0 0 - - -;
#X obj 599 136 spigot;
#X obj 5 30 route /GOER /GOER-2 /RESET-TIME;
#X obj 330 74 route 1;
#X obj 330 97 s reset-palett-time;
#X obj 139 14 print;
#X obj 793 49 r MobMuPlat-Light-Time;
#X obj 793 85 s tempo-palette;
#X obj 841 225 print;
#X obj 1025 251 counter 0 38;
#X obj 1049 276 route 38;
#X obj 1025 227 metro 200;
#X connect 0 0 2 0;
#X connect 0 1 1 0;
#X connect 0 2 4 1;
#X connect 1 0 2 1;
#X connect 2 0 3 0;
#X connect 3 0 4 0;
#X connect 4 0 5 0;
#X connect 4 0 69 0;
#X connect 5 0 6 0;
#X connect 5 1 7 0;
#X connect 5 2 8 0;
#X connect 5 3 9 0;
#X connect 5 4 10 0;
#X connect 5 5 11 0;
#X connect 5 6 12 0;
#X connect 5 7 13 0;
#X connect 5 8 14 0;
#X connect 5 9 15 0;
#X connect 5 10 16 0;
#X connect 5 11 17 0;
#X connect 5 12 18 0;
#X connect 5 13 19 0;
#X connect 5 14 20 0;
#X connect 5 15 21 0;
#X connect 5 16 49 0;
#X connect 22 0 66 0;
#X connect 24 0 26 0;
#X connect 24 1 25 0;
#X connect 25 0 27 0;
#X connect 27 0 26 1;
#X connect 28 0 34 0;
#X connect 30 0 31 0;
#X connect 31 0 24 0;
#X connect 32 0 75 0;
#X connect 33 0 75 0;
#X connect 34 0 32 0;
#X connect 34 1 30 0;
#X connect 35 0 31 0;
#X connect 49 0 37 0;
#X connect 49 1 38 0;
#X connect 49 2 39 0;
#X connect 49 3 40 0;
#X connect 49 4 41 0;
#X connect 49 5 42 0;
#X connect 49 6 43 0;
#X connect 49 7 44 0;
#X connect 49 8 45 0;
#X connect 49 9 46 0;
#X connect 49 10 47 0;
#X connect 49 11 48 0;
#X connect 50 0 51 0;
#X connect 50 1 52 0;
#X connect 50 2 53 0;
#X connect 50 3 54 0;
#X connect 50 4 55 0;
#X connect 50 5 56 0;
#X connect 50 6 57 0;
#X connect 50 7 58 0;
#X connect 50 8 59 0;
#X connect 50 9 60 0;
#X connect 61 0 63 0;
#X connect 61 1 62 0;
#X connect 61 2 65 1;
#X connect 62 0 63 1;
#X connect 63 0 64 0;
#X connect 64 0 65 0;
#X connect 65 0 50 0;
#X connect 66 0 0 0;
#X connect 66 1 61 0;
#X connect 66 2 67 0;
#X connect 66 3 23 0;
#X connect 67 0 68 0;
#X connect 70 0 71 0;
#X connect 73 0 74 0;
#X connect 74 0 33 0;
#X connect 74 1 35 0;
#X connect 75 0 73 0;
#X restore 342 191 pd GOER-Label;
#N canvas 0 50 611 300 mobmulat-data-cues 0;
#X obj 118 101 prepend /OnStage;
#X obj 118 78 r LOADED_CUE;
#X obj 231 78 r mobmuplat-top;
#X obj 231 101 prepend /Top;
#X obj 361 78 r mobmuplat-next_next_1;
#X obj 361 101 prepend /Next;
#X obj 24 78 r notes;
#X obj 24 101 prepend /Notes;
#X obj 71 159 outlet;
#X connect 0 0 8 0;
#X connect 1 0 0 0;
#X connect 2 0 3 0;
#X connect 3 0 8 0;
#X connect 4 0 5 0;
#X connect 5 0 8 0;
#X connect 6 0 7 0;
#X connect 7 0 8 0;
#X restore 342 392 pd mobmulat-data-cues;
#N canvas 295 108 695 880 mobmulat-audio-control 0;
#X obj 88 44 inlet;
#X obj 411 76 outlet;
#X obj 221 251 change;
#X obj 221 274 * 128;
#X obj 221 297 s out-audiolevel-1;
#X obj 239 323 change;
#X obj 239 346 * 128;
#X obj 259 395 change;
#X obj 259 418 * 128;
#X obj 276 465 change;
#X obj 276 488 * 128;
#X obj 239 369 s out-audiolevel-2;
#X obj 259 441 s out-audiolevel-3;
#X obj 276 511 s out-audiolevel-4;
#X obj 296 537 change;
#X obj 296 560 * 128;
#X obj 315 609 change;
#X obj 315 632 * 128;
#X obj 331 680 change;
#X obj 331 703 * 128;
#X obj 352 752 change;
#X obj 352 775 * 128;
#X obj 296 583 s out-audiolevel-5;
#X obj 315 655 s out-audiolevel-6;
#X obj 331 726 s out-audiolevel-7;
#X obj 221 228 unpack f f f f f f f f;
#X obj 144 127 int;
#X obj 352 798 s out-audiolevel-8;
#X obj 144 150 s globaltimeaudio;
#X obj 144 83 change;
#X obj 144 60 route /AudioTime /AudioLevel /AudioPlay;
#X obj 298 86 unpack f f f;
#X obj 298 109 + 1;
#X obj 298 131 swap;
#X obj 298 188 s;
#X obj 298 154 route 1;
#X msg 365 155 symbol X-touch-PLAY-\$1;
#X obj 144 104 * 10;
#X connect 0 0 30 0;
#X connect 2 0 3 0;
#X connect 3 0 4 0;
#X connect 5 0 6 0;
#X connect 6 0 11 0;
#X connect 7 0 8 0;
#X connect 8 0 12 0;
#X connect 9 0 10 0;
#X connect 10 0 13 0;
#X connect 14 0 15 0;
#X connect 15 0 22 0;
#X connect 16 0 17 0;
#X connect 17 0 23 0;
#X connect 18 0 19 0;
#X connect 19 0 24 0;
#X connect 20 0 21 0;
#X connect 21 0 27 0;
#X connect 25 0 2 0;
#X connect 25 1 5 0;
#X connect 25 2 7 0;
#X connect 25 3 9 0;
#X connect 25 4 14 0;
#X connect 25 5 16 0;
#X connect 25 6 18 0;
#X connect 25 7 20 0;
#X connect 26 0 28 0;
#X connect 29 0 37 0;
#X connect 30 0 29 0;
#X connect 30 1 25 0;
#X connect 30 2 31 0;
#X connect 30 3 1 0;
#X connect 31 0 32 0;
#X connect 31 2 33 1;
#X connect 32 0 33 0;
#X connect 33 0 35 0;
#X connect 33 1 36 0;
#X connect 35 0 34 0;
#X connect 36 0 34 1;
#X connect 37 0 26 0;
#X restore 342 162 pd mobmulat-audio-control;
#N canvas 0 50 450 300 mobmuplat-DMX 0;
#X obj 74 65 route /SET_DMX;
#X obj 74 88 s SET_DMX;
#X obj 74 42 inlet;
#X obj 155 111 outlet;
#X connect 0 0 1 0;
#X connect 0 1 3 0;
#X connect 2 0 0 0;
#X restore 342 223 pd mobmuplat-DMX;
#N canvas 664 323 686 727 mobmulat-light-control 0;
#X obj 47 22 inlet;
#X obj 336 68 outlet;
#X obj 124 147 change;
#X obj 124 124 unpack f f f f f f f f;
#X obj 124 213 s Light-GROUP-1;
#X obj 124 170 * 255;
#X obj 47 52 route /LightTime /LightLevel /Kill-time;
#N canvas 34 119 450 300 killtime 0;
#X obj 37 37 inlet;
#X obj 37 60 route 0 1;
#X msg 37 83 1;
#X msg 62 83 0;
#X msg 43 121 \; Kill-time-MM \$1;
#X connect 0 0 1 0;
#X connect 1 0 2 0;
#X connect 1 1 3 0;
#X connect 2 0 4 0;
#X connect 3 0 4 0;
#X restore 201 80 pd killtime;
#X obj 124 193 int;
#X obj 142 237 change;
#X obj 142 260 * 255;
#X obj 142 283 int;
#X obj 160 326 change;
#X obj 160 349 * 255;
#X obj 160 372 int;
#X obj 179 416 change;
#X obj 179 439 * 255;
#X obj 179 462 int;
#X obj 260 160 change;
#X obj 260 183 * 255;
#X obj 260 206 int;
#X obj 278 250 change;
#X obj 278 273 * 255;
#X obj 278 296 int;
#X obj 296 339 change;
#X obj 296 362 * 255;
#X obj 296 385 int;
#X obj 315 429 change;
#X obj 315 452 * 255;
#X obj 315 475 int;
#X obj 142 303 s Light-GROUP-2;
#X obj 160 392 s Light-GROUP-3;
#X obj 179 482 s Light-GROUP-4;
#X obj 260 226 s Light-GROUP-5;
#X obj 278 316 s Light-GROUP-6;
#X obj 296 405 s Light-GROUP-7;
#X obj 315 495 s Light-GROUP-8;
#X obj 47 75 s MobMuPlat-Light-Time;
#X connect 0 0 6 0;
#X connect 2 0 5 0;
#X connect 3 0 2 0;
#X connect 3 1 9 0;
#X connect 3 2 12 0;
#X connect 3 3 15 0;
#X connect 3 4 18 0;
#X connect 3 5 21 0;
#X connect 3 6 24 0;
#X connect 3 7 27 0;
#X connect 5 0 8 0;
#X connect 6 0 37 0;
#X connect 6 1 3 0;
#X connect 6 2 7 0;
#X connect 6 3 1 0;
#X connect 8 0 4 0;
#X connect 9 0 10 0;
#X connect 10 0 11 0;
#X connect 11 0 30 0;
#X connect 12 0 13 0;
#X connect 13 0 14 0;
#X connect 14 0 31 0;
#X connect 15 0 16 0;
#X connect 16 0 17 0;
#X connect 17 0 32 0;
#X connect 18 0 19 0;
#X connect 19 0 20 0;
#X connect 20 0 33 0;
#X connect 21 0 22 0;
#X connect 22 0 23 0;
#X connect 23 0 34 0;
#X connect 24 0 25 0;
#X connect 25 0 26 0;
#X connect 26 0 35 0;
#X connect 27 0 28 0;
#X connect 28 0 29 0;
#X connect 29 0 36 0;
#X restore 342 255 pd mobmulat-light-control;
#X obj 342 106 route /LoadBang;
#X text 442 105 envoie les données de GOER-Label au lancement e l'App
;
#X text 455 224 dmxtest univers 1;
#X text 510 160 les données audio LOADCUE sont envoyés à l'App;
#X text 512 253 l'App envoie les données pour 8 Light-GROUP-\$1;
#X text 495 421 les données audio LOADCUE sont envoyés à l'App;
#X text 481 450 mod delay \, les donnnées OnStage sont envoyés en
boucle;
#X text 475 393 envoi des données OnStage;
#X text 548 364 le [text define -k MobMuPlat-Goer] definit les boutons
de l'App, f 64;
#X text 436 192 le [text define -k MobMuPlat-Goer] definit les bouton
de l'App, f 63;
#N canvas 0 50 450 300 GoGo+Go- 0;
#X obj 85 16 inlet;
#X obj 260 70 outlet;
#X obj 122 150 s +go+_1;
#X obj 159 100 s -go-_1;
#X obj 85 199 s go_1;
#X obj 85 54 route /go /go+ /go-;
#X obj 85 176 select 1;
#X obj 122 127 select 1;
#X obj 159 77 select 1;
#X connect 0 0 5 0;
#X connect 5 0 6 0;
#X connect 5 1 7 0;
#X connect 5 2 8 0;
#X connect 5 3 1 0;
#X connect 6 0 4 0;
#X connect 7 0 2 0;
#X connect 8 0 3 0;
#X restore 342 137 pd GoGo+Go-;
#X text 422 137 Gestion Go Go+ Go-;
#X text 944 68 MaLP input GLab;
#X text 337 50 INPUT;
#X text 331 542 OUTPUT;
#X obj 101 101 cnv 15 168 38 empty empty MobMuPlat/MobMuPlat-master
5 6 0 10 -162280 -228856 0;
#X obj 103 122 bng 15 250 50 1 empty empty Send-Label-GOer 17 7 0 10
-4034 -258113 -228856;
#N canvas 28 201 450 300 mobmulat-midi 0;
#X obj 104 5 inlet;
#X obj 104 29 route /midi;
#X obj 104 83 s midi;
#X obj 201 45 outlet;
#X obj 26 121 bng 10 250 50 0 empty Receive-MIDI Receive-MIDI 12 5
0 10 -260097 -4032 -1;
#X obj 26 111 bng 10 250 50 0 Receive-MIDI empty Receive-MIDI 12 5
0 10 -260097 -4032 -1;
#X obj 104 52 t b a;
#X connect 0 0 1 0;
#X connect 1 0 6 0;
#X connect 1 1 3 0;
#X connect 6 0 5 0;
#X connect 6 1 2 0;
#X restore 342 285 pd mobmulat-midi;
#N canvas 491 207 823 162 mobmulat-Hutopi 0;
#X obj 104 5 inlet;
#X obj 252 45 outlet;
#X obj 104 89 send Hutopi-HID;
#X obj 104 29 route /hutopi-hid;
#X obj 55 126 bng 10 250 50 0 empty Receive-HID Receive-HID 12 5 0
10 -260097 -4032 -1;
#X obj 55 116 bng 10 250 50 0 Receive-HID empty Receive-HID 12 5 0
10 -260097 -4032 -1;
#X obj 104 52 t b a;
#X connect 0 0 3 0;
#X connect 3 0 6 0;
#X connect 3 1 1 0;
#X connect 6 0 5 0;
#X connect 6 1 2 0;
#X restore 342 314 pd mobmulat-Hutopi;
#X text 463 286 l'App envoie les données midi d'un peripherique connecté
;
#X text 465 317 l'App envoie les boutons d'un HID connecte su le periherique
;
#X text 94 144 la cible doit etre dans un abstrac local pd Local-MobMuPlat-master
, f 28;
#X obj 100 255 s Send-Label-GOer;
#X obj 100 213 del 1000;
#X connect 0 0 19 0;
#X connect 2 0 1 1;
#X connect 3 0 1 0;
#X connect 4 0 1 1;
#X connect 5 0 3 0;
#X connect 6 0 10 0;
#X connect 6 1 9 0;
#X connect 6 2 11 0;
#X connect 7 0 8 0;
#X connect 8 0 6 0;
#X connect 12 2 1 0;
#X connect 13 0 1 0;
#X connect 14 0 17 0;
#X connect 15 0 1 0;
#X connect 16 0 14 0;
#X connect 17 0 18 0;
#X connect 18 0 36 0;
#X connect 19 0 35 0;
#X connect 19 1 29 0;
#X connect 29 0 16 0;
#X connect 35 0 42 0;
#X connect 36 0 37 0;
#X connect 42 0 41 0;
#X coords 0 -1 1 1 170 40 1 100 100;
