#N canvas 1473 182 444 392 10;
#X obj 26 332 send to_cue;
#X obj 26 307 prepend notes;
#X obj 67 238 r notes;
#X obj 67 283 prepend set;
#X obj 26 95 bng 15 250 50 0 empty empty store_notes 17 7 0 10 -260097
-257985 -1;
#X obj 26 58 t b a;
#X obj 26 11 bng 15 250 50 0 empty Clear-Notes Clear-Notes 17 7 0 10
-260097 -257985 -1;
#X msg 26 194 lll a= bsd;
#X msg 276 227 click;
#X obj 276 208 bng 15 250 50 0 empty Open-Notes Open-Notes 17 7 0 10
-4034 -258113 -1;
#X obj 276 178 prepend set;
#X msg 276 105 0;
#X floatatom 276 128 5 0 0 0 - - -;
#X obj 249 79 t b b;
#X obj 249 58 bng 15 250 50 0 empty STORE-notes STORE-notes 17 7 0
10 -258113 -4034 -1;
#X msg 26 34 set no-Notes;
#X obj 101 101 cnv 15 98 78 empty empty MobMuPlat/Notes 3 10 0 10 -162280
-228856 0;
#X obj 106 158 bng 15 250 50 0 Open-Notes empty Open-Notes 17 7 0 10
-4034 -258113 -1;
#X obj 105 138 bng 15 250 50 0 STORE-notes empty STORE-notes 17 7 0
10 -258113 -4034 -1;
#X obj 105 118 bng 15 250 50 0 Clear-Notes empty Clear-Notes 17 7 0
10 -260097 -257985 -1;
#X obj 160 265 list;
#X obj 237 282 text set notes-local;
#X obj 276 254 text define notes-local;
#X obj 276 155 text get notes-local;
#X connect 1 0 0 0;
#X connect 2 0 3 0;
#X connect 2 0 20 0;
#X connect 3 0 7 0;
#X connect 4 0 7 0;
#X connect 5 0 4 0;
#X connect 5 1 7 0;
#X connect 6 0 15 0;
#X connect 7 0 1 0;
#X connect 8 0 22 0;
#X connect 9 0 8 0;
#X connect 10 0 7 0;
#X connect 11 0 12 0;
#X connect 12 0 23 0;
#X connect 13 0 4 0;
#X connect 13 1 11 0;
#X connect 14 0 13 0;
#X connect 15 0 5 0;
#X connect 20 0 21 0;
#X connect 23 0 10 0;
#X coords 0 -1 1 1 100 80 1 100 100;
