#N canvas 1096 124 1418 931 10;
#X obj 215 82 OSC/OSCreceiver 54321 fromPhone;
#X obj 212 322 outlet;
#X obj 215 117 route /radioOn /radioOff /radioLevel;
#X obj 215 140 select 1;
#X obj 286 160 select 1;
#X obj 375 267 s out-audiolevel-7;
#X obj 382 177 * 128;
#X obj 181 242 s bang-sPCO;
#X obj 231 262 s bang-sPCOUT;
#X obj 582 196 change;
#X obj 582 219 * 128;
#X obj 582 242 s out-audiolevel-1;
#X obj 611 268 change;
#X obj 611 291 * 128;
#X obj 720 224 change;
#X obj 720 247 * 128;
#X obj 749 296 change;
#X obj 749 319 * 128;
#X obj 611 314 s out-audiolevel-2;
#X obj 720 270 s out-audiolevel-3;
#X obj 749 342 s out-audiolevel-4;
#X obj 844 217 change;
#X obj 844 240 * 128;
#X obj 873 289 change;
#X obj 873 312 * 128;
#X obj 982 245 change;
#X obj 982 268 * 128;
#X obj 1011 317 change;
#X obj 1011 340 * 128;
#X obj 844 263 s out-audiolevel-5;
#X obj 873 335 s out-audiolevel-6;
#X obj 982 291 s out-audiolevel-7;
#X obj 1011 363 s out-audiolevel-7;
#X obj 344 383 prepend /OnStage;
#X obj 344 352 r LOADED_CUE;
#X obj 127 592 s +go+_1;
#X obj 164 542 s -go-_1;
#X obj 90 641 s go_1;
#X obj 90 496 route /go /go+ /go-;
#X obj 90 618 select 1;
#X obj 127 569 select 1;
#X obj 164 519 select 1;
#X obj 314 512 route /AudioTime /AudioLevel;
#X obj 556 528 route /GOER;
#X obj 556 551 unpack f f f;
#X obj 590 572 * 10;
#X obj 556 588 +;
#X floatatom 556 611 5 0 0 0 - - -;
#X obj 556 633 spigot;
#X text 461 353 chercher les variables NEXT TOP et FAIRE NOTES;
#X text 10 747 porte DMX A FAIRE;
#X obj 827 598 swap;
#X obj 827 621 select 1;
#X obj 830 723 send;
#X text 882 731 a tester;
#X obj 582 173 unpack f f f f f f f f;
#X obj 667 477 OSC/OSCsender 255.255.255.255 54322 to_phone;
#X msg 872 442 connect 192.168.10.102 54322;
#X obj 316 608 s globaltime;
#X obj 316 572 int;
#X obj 525 381 r mobmuplat-top;
#X obj 525 404 prepend /Top;
#X obj 655 381 r mobmuplat-next_next_1;
#X obj 655 403 prepend /Next;
#X obj 666 528 route /SET_DMX;
#X obj 666 551 s SET_DMX;
#X obj 902 514 OSC/OSCsender 255.255.255.255 54322 to_phone;
#X msg 1095 468 connect 192.168.10.100 54322;
#X obj 875 709 symbol;
#X msg 980 834 /LAbelGOER-\$1 \$2;
#X obj 974 62 r notes;
#X obj 974 85 prepend /Notes;
#X msg 1101 39 lqskjdklqjdk llqskjdklqjdk llqskjdklqjdk llqskjdklqjdk
llqskjdklqjdk llqskjdklqjdk llqskjdklqjdk llqskjdklqjdk llqskjdklqjdk
l;
#X obj 821 374 r toSmartphone-2;
#X obj 1093 409 r toSmartphone-3;
#X msg 875 686 MMP-\$1;
#X msg 1072 707 bang-s59.1;
#X obj 383 739 s bang-s59.1;
#X obj 383 759 s bang-s59.2;
#X obj 383 779 s bang-s59.3;
#X obj 472 727 s bang-s59.4;
#X obj 383 719 s bang-s59.0;
#X obj 472 747 s bang-s59.5;
#X obj 472 767 s bang-s59.6;
#X obj 556 660 select 0 1 2 3 10 11 12 13 20 21 22 23 30 31 32 33;
#X obj 1093 432 t b a;
#X obj 472 787 s bang-s59.7;
#X obj 572 737 s bang-s59.8;
#X obj 572 757 s bang-s59.9;
#X obj 821 397 route connect;
#X obj 821 420 prepend connect;
#X obj 1178 508 route connect;
#X obj 1178 531 prepend connect;
#X obj 692 817 s bang-STOP_MOTOR;
#X msg 984 748 0 STOP_PHONE \, 1 SONNE \, 2 VIBRE \, 3 REVEIL \, 4
MEUH \, 5 machine_a_ecrire \, 6 bonzourTOI-jar \, 7 bonzourTOI-cour
\, 8 ismael \, 15 STOP-MOTOR, f 29;
#X obj 316 549 * 30;
#X obj 387 846 select 0 1 2 3 10 11 12 13 20 21 22 23 30 31 32 33;
#X obj 303 973 s bang-s59.7;
#X obj 403 923 s bang-s59.8;
#X obj 403 943 s bang-s59.9;
#X obj 523 1003 s bang-STOP_MOTOR;
#X obj 214 905 s bang-SERVICE;
#X obj 214 925 s bang-NO_SERVICE;
#X obj 214 945 s bang-COLLE;
#X obj 303 913 s bang-LEOPARD;
#X obj 303 933 s bang-RAMASSE;
#X obj 303 952 s bang-s0_mise;
#X obj 214 965 s bang-F_noir;
#X msg 848 898 0 SERVICE \, 1 NO_SERVICE \, 2 COLLE \, 3 F_noir \,
4 LEOPARD \, 5 RAMASSE \, 6 s0_mise \,, f 29;
#X msg 1177 385 connect 192.168.10.100 54322;
#X connect 0 0 2 0;
#X connect 2 0 3 0;
#X connect 2 1 4 0;
#X connect 2 2 6 0;
#X connect 2 3 38 0;
#X connect 3 0 7 0;
#X connect 4 0 8 0;
#X connect 6 0 5 0;
#X connect 9 0 10 0;
#X connect 10 0 11 0;
#X connect 12 0 13 0;
#X connect 13 0 18 0;
#X connect 14 0 15 0;
#X connect 15 0 19 0;
#X connect 16 0 17 0;
#X connect 17 0 20 0;
#X connect 21 0 22 0;
#X connect 22 0 29 0;
#X connect 23 0 24 0;
#X connect 24 0 30 0;
#X connect 25 0 26 0;
#X connect 26 0 31 0;
#X connect 27 0 28 0;
#X connect 28 0 32 0;
#X connect 33 0 56 0;
#X connect 33 0 66 0;
#X connect 34 0 33 0;
#X connect 38 0 39 0;
#X connect 38 1 40 0;
#X connect 38 2 41 0;
#X connect 38 3 42 0;
#X connect 39 0 37 0;
#X connect 40 0 35 0;
#X connect 41 0 36 0;
#X connect 42 0 95 0;
#X connect 42 1 55 0;
#X connect 42 2 43 0;
#X connect 43 0 44 0;
#X connect 43 1 64 0;
#X connect 44 0 46 0;
#X connect 44 1 45 0;
#X connect 44 2 48 1;
#X connect 44 2 51 1;
#X connect 45 0 46 1;
#X connect 46 0 47 0;
#X connect 47 0 48 0;
#X connect 47 0 51 0;
#X connect 48 0 84 0;
#X connect 48 0 96 0;
#X connect 51 0 52 0;
#X connect 51 1 75 0;
#X connect 52 0 53 0;
#X connect 55 0 9 0;
#X connect 55 1 12 0;
#X connect 55 2 14 0;
#X connect 55 3 16 0;
#X connect 55 4 21 0;
#X connect 55 5 23 0;
#X connect 55 6 25 0;
#X connect 55 7 27 0;
#X connect 57 0 56 1;
#X connect 59 0 58 0;
#X connect 60 0 61 0;
#X connect 61 0 56 0;
#X connect 61 0 66 0;
#X connect 62 0 63 0;
#X connect 63 0 56 0;
#X connect 63 0 66 0;
#X connect 64 0 65 0;
#X connect 67 0 66 1;
#X connect 68 0 53 1;
#X connect 69 0 66 0;
#X connect 69 0 56 0;
#X connect 70 0 71 0;
#X connect 71 0 56 0;
#X connect 71 0 66 0;
#X connect 72 0 71 0;
#X connect 73 0 89 0;
#X connect 74 0 85 0;
#X connect 75 0 68 0;
#X connect 84 0 81 0;
#X connect 84 1 77 0;
#X connect 84 2 78 0;
#X connect 84 3 79 0;
#X connect 84 4 80 0;
#X connect 84 5 82 0;
#X connect 84 6 83 0;
#X connect 84 7 86 0;
#X connect 84 8 87 0;
#X connect 84 9 88 0;
#X connect 84 15 93 0;
#X connect 85 0 94 0;
#X connect 85 1 91 0;
#X connect 89 0 90 0;
#X connect 90 0 56 1;
#X connect 91 0 92 0;
#X connect 92 0 66 1;
#X connect 94 0 69 0;
#X connect 95 0 59 0;
#X connect 96 0 101 0;
#X connect 96 1 102 0;
#X connect 96 2 103 0;
#X connect 96 3 107 0;
#X connect 96 4 104 0;
#X connect 96 5 105 0;
#X connect 96 6 106 0;
#X connect 96 7 97 0;
#X connect 96 8 98 0;
#X connect 96 9 99 0;
#X connect 96 15 100 0;
#X connect 108 0 69 0;
#X connect 109 0 66 1;
#X connect 109 0 56 1;
