#N canvas 2100 336 896 442 10;
#X obj 191 339 OSC/OSCsender 255.255.255.255 54322 to_phone;
#X obj 666 331 OSC/OSCreceiver 54321 fromPhone;
#X msg 766 43 /meuh 1;
#X msg 640 24 /sonne 1;
#X msg 740 121 /notification 1;
#X msg 640 43 /vibre 1;
#X msg 740 100 /Bonzour_toi_1 1;
#X msg 740 80 /MachineecrireSolo 1;
#X msg 766 24 /canard 1;
#X msg 32 273 /stop 1;
#X msg 12 56 /label COIN;
#X msg 31 20 /label COUNASSE;
#X obj 191 272 r smartphone;
#X msg 705 24 /email 0;
#X msg 400 266 connect 192.168.10.107 54322;
#X msg 400 285 connect 192.168.10.102 54322;
#X msg 400 304 connect 192.168.1.115 54322;
#X msg 10 355 /level \$1;
#X obj 10 217 vsl 15 128 0.01 1 1 0 empty empty empty 0 -9 0 10 -262144
-1 -1 0 1;
#X msg 240 52 /player MobyDick.wav;
#X msg 240 33 /player MobyDickcut1min.wav;
#X msg 241 110 /player sonne1tone.wav;
#X msg 640 62 /reveil 1;
#X msg 431 124 /readsf MobyDickcut1min.wav;
#X msg 431 104 /readsf MobyDick.wav;
#X obj 169 383 send TORECORD;
#X obj 191 314 r toSmartphone-1;
#X obj 191 294 s toSmartphone-1;
#X obj 217 151 s toSmartphone-1;
#X obj 631 147 s toSmartphone-1;
#X obj 32 294 s toSmartphone-1;
#X obj 32 251 bng 15 250 50 0 empty empty STOP 17 7 0 10 -258113 -257985
-1;
#X obj 414 159 s toSmartphone-1;
#X obj 10 193 r smartphone_level-1;
#X obj 10 377 s toSmartphone-1;
#X obj 7 161 s toSmartphone-1;
#X msg 11 38 /label sperme_de_baleine;
#X msg 12 110 /label Jessi_CACA_riatre;
#X msg 15 128 /label Un_Lapin_Qui_Dit_NAOON;
#X msg 12 2 /label _;
#X msg 12 74 /label COIN_COIN;
#X msg 12 92 /label COIN_COIN_COIN;
#X connect 2 0 29 0;
#X connect 3 0 29 0;
#X connect 4 0 29 0;
#X connect 5 0 29 0;
#X connect 6 0 29 0;
#X connect 7 0 29 0;
#X connect 8 0 29 0;
#X connect 9 0 30 0;
#X connect 10 0 35 0;
#X connect 11 0 35 0;
#X connect 12 0 27 0;
#X connect 13 0 29 0;
#X connect 14 0 0 1;
#X connect 15 0 0 1;
#X connect 16 0 0 1;
#X connect 17 0 34 0;
#X connect 18 0 17 0;
#X connect 19 0 28 0;
#X connect 20 0 28 0;
#X connect 21 0 28 0;
#X connect 22 0 29 0;
#X connect 23 0 32 0;
#X connect 24 0 32 0;
#X connect 26 0 0 0;
#X connect 26 0 25 0;
#X connect 31 0 9 0;
#X connect 33 0 18 0;
#X connect 36 0 35 0;
#X connect 37 0 35 0;
#X connect 38 0 35 0;
#X connect 39 0 35 0;
#X connect 40 0 35 0;
#X connect 41 0 35 0;
