#N canvas 371 244 896 757 10;
#X msg 766 43 /meuh 1;
#X msg 640 24 /sonne 1;
#X msg 740 121 /notification 1;
#X msg 640 43 /vibre 1;
#X msg 740 100 /Bonzour_toi_1 1;
#X msg 740 80 /MachineecrireSolo 1;
#X msg 766 24 /canard 1;
#X msg 494 521 /stop 1;
#X msg 12 56 /label COIN;
#X msg 31 20 /label COUNASSE;
#X msg 705 24 /email 0;
#X msg 400 266 connect 192.168.10.107 54322;
#X msg 400 285 connect 192.168.10.102 54322;
#X msg 240 52 /player MobyDick.wav;
#X msg 240 33 /player MobyDickcut1min.wav;
#X msg 241 110 /player sonne1tone.wav;
#X msg 640 62 /reveil 1;
#X msg 431 124 /readsf MobyDickcut1min.wav;
#X msg 431 104 /readsf MobyDick.wav;
#X obj 501 419 bng 15 250 50 0 empty empty STOP 17 7 0 10 -258113 -257985
-1;
#X msg 11 38 /label sperme_de_baleine;
#X msg 12 110 /label Jessi_CACA_riatre;
#X msg 15 128 /label Un_Lapin_Qui_Dit_NAOON;
#X msg 12 2 /label _;
#X msg 12 74 /label COIN_COIN;
#X msg 12 92 /label COIN_COIN_COIN;
#X obj 527 707 send to_cue;
#X obj 434 368 prepend toSmartphone-\$1;
#X obj 333 199 r toSmartphone-\$1;
#X obj 191 209 r toSmartphone-\$0;
#X obj 414 159 s toSmartphone-\$0;
#X obj 631 147 s toSmartphone-\$0;
#X obj 217 151 s toSmartphone-\$0;
#X obj 7 171 s toSmartphone-\$0;
#X obj 703 603 s toSmartphone-\$0;
#X obj 333 220 route connect;
#X obj 333 240 prepend connect;
#X msg 441 74 /readsf bouilloire2.wav;
#X msg 39 219 0;
#X msg 69 219 0.5;
#X msg 99 219 1;
#X msg 400 304 connect 192.168.10.108 54322;
#X msg 451 44 /readsf que_vois_je_plus_chant.wav;
#X obj 190 14 inlet;
#X obj 534 654 prepend levelSmartphone-\$1;
#X obj 10 193 r levelSmartphone-\$1;
#X obj 320 418 hsl 150 15 0.01 1 1 0 empty empty LEVEL -2 -6 0 10 -191407
-1 -1 0 1;
#X symbolatom 357 401 40 0 0 0 - - -;
#X obj 586 218 prepend /readsf;
#X obj 594 169 bng 15 250 50 0 empty empty empty 17 7 0 10 -262144
-1 -1;
#X obj 753 404 route /readsf;
#X obj 753 427 symbol;
#X msg 753 450 set \$1;
#X obj 102 418 OSC/OSCsender 255.255.255.255 54322 to_phone-\$1;
#X obj 544 419 bng 15 250 50 0 empty empty Test 17 7 0 10 -204786 -1
-1;
#X obj 544 435 bng 15 250 50 0 empty empty RePlay 17 7 0 10 -204786
-1 -1;
#X msg 74 147 /label BATTERIE_FAIBLE;
#X obj 196 508 unpack;
#X floatatom 472 433 5 0 30 0 time(s) - -;
#X obj 10 245 unpack;
#X obj 43 416 / 1000;
#X obj 348 472 pack;
#X obj 127 487 * 1000;
#X msg 348 509 /level \$1 \$2, f 20;
#X msg 10 317 set \$1;
#X obj 236 647 prepend PageSmartphone-\$1;
#X obj 246 599 r PageSmartphone-\$1;
#X msg 269 627 /setPage \$1;
#X floatatom 342 433 4 0 30 0 PAGE - -;
#X obj 229 12 r remoteSmartphone-\$1;
#X msg 656 302 /readsf MBD/final_coin.wav;
#X connect 0 0 31 0;
#X connect 1 0 31 0;
#X connect 2 0 31 0;
#X connect 3 0 31 0;
#X connect 4 0 31 0;
#X connect 5 0 31 0;
#X connect 6 0 31 0;
#X connect 7 0 34 0;
#X connect 8 0 33 0;
#X connect 9 0 33 0;
#X connect 10 0 31 0;
#X connect 11 0 27 0;
#X connect 11 0 53 1;
#X connect 12 0 27 0;
#X connect 12 0 53 1;
#X connect 13 0 32 0;
#X connect 14 0 32 0;
#X connect 15 0 32 0;
#X connect 16 0 31 0;
#X connect 17 0 30 0;
#X connect 18 0 30 0;
#X connect 19 0 7 0;
#X connect 20 0 33 0;
#X connect 21 0 33 0;
#X connect 22 0 33 0;
#X connect 23 0 33 0;
#X connect 24 0 33 0;
#X connect 25 0 33 0;
#X connect 27 0 26 0;
#X connect 28 0 35 0;
#X connect 29 0 27 0;
#X connect 29 0 50 0;
#X connect 29 0 53 0;
#X connect 35 0 36 0;
#X connect 35 1 50 0;
#X connect 35 1 53 0;
#X connect 36 0 53 1;
#X connect 37 0 30 0;
#X connect 38 0 46 0;
#X connect 39 0 46 0;
#X connect 40 0 46 0;
#X connect 41 0 27 0;
#X connect 41 0 53 1;
#X connect 42 0 30 0;
#X connect 43 0 32 0;
#X connect 44 0 26 0;
#X connect 45 0 59 0;
#X connect 45 0 63 0;
#X connect 46 0 61 0;
#X connect 47 0 48 0;
#X connect 48 0 30 0;
#X connect 49 0 47 0;
#X connect 50 0 51 0;
#X connect 51 0 52 0;
#X connect 52 0 47 0;
#X connect 54 0 70 0;
#X connect 55 0 47 0;
#X connect 56 0 33 0;
#X connect 58 0 62 0;
#X connect 59 0 64 0;
#X connect 59 1 60 0;
#X connect 60 0 58 0;
#X connect 61 0 44 0;
#X connect 61 0 63 0;
#X connect 62 0 61 1;
#X connect 63 0 53 0;
#X connect 64 0 46 0;
#X connect 65 0 26 0;
#X connect 66 0 68 0;
#X connect 67 0 65 0;
#X connect 67 0 53 0;
#X connect 68 0 67 0;
#X connect 68 0 65 0;
#X connect 69 0 32 0;
#X connect 70 0 30 0;
#X coords 0 -1 1 1 500 50 1 100 400;
