#N canvas 2039 205 1418 674 10;
#X obj 215 82 OSC/OSCreceiver 54321 fromPhone;
#X obj 212 322 outlet;
#X obj 215 117 route /radioOn /radioOff /radioLevel;
#X obj 215 140 select 1;
#X obj 286 160 select 1;
#X obj 375 267 s out-audiolevel-7;
#X obj 382 177 * 128;
#X obj 181 242 s bang-sPCO;
#X obj 231 262 s bang-sPCOUT;
#X obj 582 196 change;
#X obj 582 219 * 128;
#X obj 582 242 s out-audiolevel-1;
#X obj 611 268 change;
#X obj 611 291 * 128;
#X obj 720 224 change;
#X obj 720 247 * 128;
#X obj 749 296 change;
#X obj 749 319 * 128;
#X obj 611 314 s out-audiolevel-2;
#X obj 720 270 s out-audiolevel-3;
#X obj 749 342 s out-audiolevel-4;
#X obj 844 217 change;
#X obj 844 240 * 128;
#X obj 873 289 change;
#X obj 873 312 * 128;
#X obj 982 245 change;
#X obj 982 268 * 128;
#X obj 1011 317 change;
#X obj 1011 340 * 128;
#X obj 844 263 s out-audiolevel-5;
#X obj 873 335 s out-audiolevel-6;
#X obj 982 291 s out-audiolevel-7;
#X obj 1011 363 s out-audiolevel-7;
#X obj 344 383 prepend /OnStage;
#X obj 344 352 r LOADED_CUE;
#X obj 127 592 s +go+_1;
#X obj 164 542 s -go-_1;
#X obj 90 641 s go_1;
#X obj 90 496 route /go /go+ /go-;
#X obj 90 618 select 1;
#X obj 127 569 select 1;
#X obj 164 519 select 1;
#X obj 314 512 route /AudioTime /AudioLevel;
#X obj 556 528 route /GOER;
#X obj 556 551 unpack f f f;
#X obj 590 572 * 10;
#X obj 556 588 +;
#X floatatom 556 611 5 0 0 0 - - -;
#X obj 556 633 spigot;
#X obj 556 660 select 0 1 2 3 4 5 6 7;
#X obj 556 696 select 8 9 10 11 12 13 14 15 16 17;
#X obj 556 736 select 18 19 20 21 22 23 24 25 26 27;
#X text 461 353 chercher les variables NEXT TOP et FAIRE NOTES;
#X text 299 541 deja un peu fait dans MobMuPlat StuART;
#X text 10 747 porte DMX A FAIRE;
#X obj 830 626 swap;
#X obj 830 649 select 1;
#X obj 830 700 send;
#X msg 875 684 MMP-\$1;
#X text 882 711 a tester;
#X obj 582 173 unpack f f f f f f f f;
#X obj 700 466 OSC/OSCsender 255.255.255.255 54322 to_phone;
#X msg 893 420 connect 192.168.10.102 54322;
#X obj 316 608 s globaltime;
#X obj 316 549 * 128;
#X obj 316 572 int;
#X obj 525 381 r mobmuplat-top;
#X obj 525 404 prepend /Top;
#X obj 655 381 r mobmuplat-next_next_1;
#X obj 655 403 prepend /Next;
#X obj 666 528 route /SET_DMX;
#X obj 666 551 s SET_DMX;
#X connect 0 0 2 0;
#X connect 2 0 3 0;
#X connect 2 1 4 0;
#X connect 2 2 6 0;
#X connect 2 3 38 0;
#X connect 3 0 7 0;
#X connect 4 0 8 0;
#X connect 6 0 5 0;
#X connect 9 0 10 0;
#X connect 10 0 11 0;
#X connect 12 0 13 0;
#X connect 13 0 18 0;
#X connect 14 0 15 0;
#X connect 15 0 19 0;
#X connect 16 0 17 0;
#X connect 17 0 20 0;
#X connect 21 0 22 0;
#X connect 22 0 29 0;
#X connect 23 0 24 0;
#X connect 24 0 30 0;
#X connect 25 0 26 0;
#X connect 26 0 31 0;
#X connect 27 0 28 0;
#X connect 28 0 32 0;
#X connect 33 0 61 0;
#X connect 34 0 33 0;
#X connect 38 0 39 0;
#X connect 38 1 40 0;
#X connect 38 2 41 0;
#X connect 38 3 42 0;
#X connect 39 0 37 0;
#X connect 40 0 35 0;
#X connect 41 0 36 0;
#X connect 42 0 64 0;
#X connect 42 1 60 0;
#X connect 42 2 43 0;
#X connect 43 0 44 0;
#X connect 43 1 70 0;
#X connect 44 0 46 0;
#X connect 44 1 45 0;
#X connect 44 2 48 1;
#X connect 44 2 55 1;
#X connect 45 0 46 1;
#X connect 46 0 47 0;
#X connect 47 0 48 0;
#X connect 47 0 55 0;
#X connect 48 0 49 0;
#X connect 49 8 50 0;
#X connect 50 10 51 0;
#X connect 55 0 56 0;
#X connect 56 0 57 0;
#X connect 56 1 58 0;
#X connect 58 0 57 1;
#X connect 60 0 9 0;
#X connect 60 1 12 0;
#X connect 60 2 14 0;
#X connect 60 3 16 0;
#X connect 60 4 21 0;
#X connect 60 5 23 0;
#X connect 60 6 25 0;
#X connect 60 7 27 0;
#X connect 62 0 61 1;
#X connect 64 0 65 0;
#X connect 65 0 63 0;
#X connect 66 0 67 0;
#X connect 67 0 61 0;
#X connect 68 0 69 0;
#X connect 69 0 61 0;
#X connect 70 0 71 0;
