#N canvas 1 79 1665 966 10;
#X obj 194 18 inlet;
#X symbolatom 280 501 30 0 0 0 - - -;
#X obj 194 756 outlet;
#X obj 194 270 t f f;
#X obj 280 468 symbol;
#X obj 491 501 tgl 15 1 empty empty empty 17 7 0 10 -262144 -1 -1 1
1;
#X obj 194 67 route float bang;
#X symbolatom 208 500 10 0 0 0 - - -;
#X obj 208 468 symbol;
#X obj 671 142 print MIDI/assign;
#X obj 193 501 bng 15 250 50 0 empty empty 22_ 0 7 1 10 -1 -1 -262144
;
#X obj 79 466 r \$0-label;
#X obj 1262 787 s midi-repatch;
#X obj 741 782 print midi-repatch;
#X obj 209 34 print inlet;
#X obj 248 214 + 0;
#X obj 557 503 bng 10 250 50 0 empty empty test 10 5 1 8 -262144 -1
-1;
#X msg 86 152 127;
#X text 199 199 if-nopatch;
#X floatatom 509 501 5 0 0 0 - - -;
#X obj 471 773 print to_control_local;
#X obj 330 785 print to_control;
#X obj 1485 525 spigot;
#X obj 1524 508 tgl 15 0 empty tcontrol_\$0 tcontrol_\$0 17 7 0 10
-262144 -1 -1 1 1;
#X obj 975 535 spigot;
#X obj 1014 518 tgl 15 0 empty cue_\$0 cue_\$0 17 7 0 10 -262144 -1
-1 0 1;
#X obj 1135 525 spigot;
#X obj 1174 508 tgl 15 0 empty fader_\$0 fader_\$0 17 7 0 10 -262144
-1 -1 0 1;
#X obj 1255 525 spigot;
#X obj 1294 508 tgl 15 0 empty repatch_\$0 repatch_\$0 17 7 0 10 -262144
-1 -1 0 1;
#X obj 1374 525 spigot;
#X obj 1413 508 tgl 15 0 empty control_\$0 control_\$0 17 7 0 10 -262144
-1 -1 0 1;
#X msg 1364 275 set \, add2 \$1 \, adddollar 1;
#X obj 1364 250 symbol;
#X obj 390 176 t a a b;
#X msg 423 69 control TESTcontrol;
#X msg 423 40 cue TESTcur;
#X obj 278 214 + 1;
#X obj 556 176 t a a b;
#X obj 501 176 t a a b;
#X obj 445 176 t a a b;
#X msg 583 69 repatch G-L-strip 22;
#X msg 583 40 fader dec3;
#X obj 1125 311 symbol;
#X obj 959 236 symbol;
#X obj 335 176 t a a b;
#X msg 959 256 set \, add2 LOAD_CUE \, add2 \$1;
#X obj 1244 131 unpack s f;
#X msg 1311 156 set \, add2 \$1 \, add2 fader;
#X msg 1244 156 add2 \$1;
#X obj 776 459 select 127;
#X obj 1135 547 * 2;
#X msg 1504 148 label \$1_;
#X obj 1504 170 s \$0-label;
#X msg 959 625;
#X msg 1125 618;
#X msg 1245 644;
#X msg 1364 621;
#X msg 1475 613;
#X obj 661 261 \$0;
#X obj 770 261 \$0;
#X obj 340 261 \$0;
#X obj 554 261 \$0;
#X obj 446 261 \$0;
#X msg 340 278 \; tcontrol_\$1 0 \; cue_\$1 1 \; fader_\$1 0 \; repatch_\$1
0 \; control_\$1 0;
#X msg 446 278 \; tcontrol_\$1 0 \; cue_\$1 0 \; fader_\$1 0 \; repatch_\$1
0 \; control_\$1 1;
#X msg 554 278 \; tcontrol_\$1 0 \; cue_\$1 0 \; fader_\$1 1 \; repatch_\$1
0 \; control_\$1 0;
#X msg 661 278 \; tcontrol_\$1 0 \; cue_\$1 0 \; fader_\$1 0 \; repatch_\$1
1 \; control_\$1 0;
#X msg 770 278 \; tcontrol_\$1 1 \; cue_\$1 0 \; fader_\$1 0 \; repatch_\$1
0 \; control_\$1 0;
#X obj 303 107 t b a a;
#X msg 886 601 set;
#X msg 1125 340 set \, add2 fader_\$1 \, adddollar 1;
#X obj 1015 788 cyclone/prepend /to_control;
#X obj 1015 828 s TO_CONTROL_Local;
#X obj 671 117 spigot;
#X msg 734 69 tcontrol Open_Cue;
#X obj 704 94 tgl 15 0 empty empty empty 17 7 0 10 -262144 -1 -1 0
1;
#X obj 1184 67 unpack;
#X obj 1475 197 list split 1;
#X obj 1475 222 cyclone/prepend;
#X obj 1485 252 route list symbol;
#X obj 1487 302 list;
#X msg 1475 355 set \, add2 \$2 \, add2 \$1;
#X msg 1485 375 set \, add2 \$1 \, add2 1;
#X obj 335 134 route cue control fader repatch tcontrol clear;
#X obj 577 433 symbol empty;
#X msg 734 39 clear;
#X connect 0 0 6 0;
#X connect 3 0 2 0;
#X connect 3 1 19 0;
#X connect 4 0 1 0;
#X connect 6 0 3 0;
#X connect 6 1 15 0;
#X connect 6 2 69 0;
#X connect 6 2 74 0;
#X connect 8 0 7 0;
#X connect 11 0 10 0;
#X connect 15 0 5 0;
#X connect 16 0 17 0;
#X connect 17 0 6 0;
#X connect 19 0 26 0;
#X connect 19 0 30 0;
#X connect 19 0 50 0;
#X connect 22 0 58 0;
#X connect 23 0 22 1;
#X connect 24 0 54 0;
#X connect 25 0 24 1;
#X connect 26 0 51 0;
#X connect 27 0 26 1;
#X connect 28 0 56 0;
#X connect 29 0 28 1;
#X connect 30 0 57 0;
#X connect 31 0 30 1;
#X connect 32 0 57 0;
#X connect 33 0 32 0;
#X connect 34 0 4 0;
#X connect 34 1 33 0;
#X connect 34 2 63 0;
#X connect 35 0 84 0;
#X connect 36 0 84 0;
#X connect 37 0 5 0;
#X connect 38 0 4 0;
#X connect 38 1 78 0;
#X connect 38 2 60 0;
#X connect 39 0 4 0;
#X connect 39 1 47 0;
#X connect 39 2 59 0;
#X connect 40 0 4 0;
#X connect 40 1 43 0;
#X connect 40 2 62 0;
#X connect 41 0 84 0;
#X connect 42 0 84 0;
#X connect 43 0 71 0;
#X connect 44 0 46 0;
#X connect 45 0 4 0;
#X connect 45 1 44 0;
#X connect 45 2 61 0;
#X connect 46 0 54 0;
#X connect 47 0 49 0;
#X connect 47 1 48 0;
#X connect 47 1 52 0;
#X connect 48 0 56 0;
#X connect 49 0 56 0;
#X connect 50 0 24 0;
#X connect 50 0 22 0;
#X connect 50 0 28 0;
#X connect 51 0 55 0;
#X connect 52 0 53 0;
#X connect 54 0 72 0;
#X connect 54 0 19 0;
#X connect 54 0 5 0;
#X connect 55 0 72 0;
#X connect 56 0 12 0;
#X connect 57 0 72 0;
#X connect 58 0 72 0;
#X connect 59 0 67 0;
#X connect 60 0 68 0;
#X connect 61 0 64 0;
#X connect 62 0 66 0;
#X connect 63 0 65 0;
#X connect 69 0 37 0;
#X connect 69 1 8 0;
#X connect 69 2 84 0;
#X connect 70 0 54 0;
#X connect 70 0 55 0;
#X connect 70 0 56 0;
#X connect 70 0 58 0;
#X connect 70 0 57 0;
#X connect 71 0 55 0;
#X connect 72 0 73 0;
#X connect 74 0 9 0;
#X connect 75 0 84 0;
#X connect 76 0 74 1;
#X connect 78 0 79 0;
#X connect 78 1 79 1;
#X connect 79 0 80 0;
#X connect 80 0 81 0;
#X connect 80 1 83 0;
#X connect 81 0 82 0;
#X connect 82 0 58 0;
#X connect 83 0 58 0;
#X connect 84 0 45 0;
#X connect 84 1 34 0;
#X connect 84 2 40 0;
#X connect 84 3 39 0;
#X connect 84 4 38 0;
#X connect 84 5 70 0;
#X connect 84 5 85 0;
#X connect 85 0 8 0;
#X connect 85 0 4 0;
#X connect 86 0 84 0;
#X connect 86 0 74 0;
#X coords 0 -1 1 1 500 15 1 100 500;
