#N canvas 1 85 1665 966 10;
#X obj 164 9 inlet;
#X obj 248 227 send;
#X obj 196 199 * 2;
#X symbolatom 273 202 30 0 0 0 - - -, f 30;
#X obj 164 256 outlet;
#X obj 164 139 t f f;
#X obj 327 218 print MIDI/assign-fader;
#X obj 273 168 symbol;
#X obj 196 173 spigot;
#X obj 484 201 tgl 15 1 empty empty empty 17 7 0 10 -262144 -1 -1 1
1;
#X obj 485 179 + 0;
#X obj 164 108 route float bang;
#X obj 273 140 t a a b;
#X obj 485 157 + 1;
#X connect 0 0 11 0;
#X connect 2 0 1 0;
#X connect 3 0 1 1;
#X connect 5 0 4 0;
#X connect 5 1 8 0;
#X connect 7 0 3 0;
#X connect 8 0 2 0;
#X connect 9 0 8 1;
#X connect 10 0 9 0;
#X connect 11 0 5 0;
#X connect 11 1 10 0;
#X connect 11 2 12 0;
#X connect 12 0 7 0;
#X connect 12 1 6 0;
#X connect 12 2 13 0;
#X connect 13 0 9 0;
#X coords 0 -1 1 1 400 15 1 100 200;
