#N canvas 1 353 857 631 10;
#X obj 164 -112 inlet;
#X symbolatom 373 202 30 0 0 0 - - -, f 30;
#X obj 164 456 outlet;
#X obj 164 -42 t f f;
#X obj 273 168 symbol;
#X obj 196 233 spigot;
#X obj 584 201 tgl 15 1 empty empty empty 17 7 0 10 -262144 -1 -1 1
1;
#X obj 485 179 + 0;
#X obj 164 -83 route float bang;
#X obj 273 100 t a a b;
#X obj 485 117 + 1;
#X obj 296 128 print MIDI/assign-cue;
#X obj 196 -2 select 127;
#X obj 248 257 symbol;
#X obj 248 333 s to_control;
#X msg 248 279 \$1 1;
#X msg 427 57 set \, adddollar 1 \, add2 1;
#X obj 343 -27 t a b;
#X obj 395 -27 t a b;
#X msg 375 74 set \, add2 LOAD_CUE \, adddollar 1;
#X symbolatom 298 202 10 0 0 0 - - -, f 10;
#X obj 273 -23 symbol;
#X obj 343 -66 route cue control fader;
#X obj 448 -27 t a b;
#X msg 480 40 set \, adddollar 1;
#X connect 0 0 8 0;
#X connect 1 0 13 1;
#X connect 3 0 2 0;
#X connect 3 1 12 0;
#X connect 4 0 1 0;
#X connect 5 0 13 0;
#X connect 6 0 5 1;
#X connect 7 0 6 0;
#X connect 8 0 3 0;
#X connect 8 1 7 0;
#X connect 8 2 21 0;
#X connect 8 2 22 0;
#X connect 9 0 4 0;
#X connect 9 1 11 0;
#X connect 9 2 10 0;
#X connect 10 0 6 0;
#X connect 12 0 5 0;
#X connect 13 0 15 0;
#X connect 15 0 14 0;
#X connect 16 0 15 0;
#X connect 17 0 9 0;
#X connect 17 1 19 0;
#X connect 18 0 9 0;
#X connect 18 1 16 0;
#X connect 19 0 15 0;
#X connect 21 0 20 0;
#X connect 22 0 17 0;
#X connect 22 1 18 0;
#X connect 22 2 23 0;
#X connect 23 0 9 0;
#X connect 23 1 24 0;
#X connect 24 0 15 0;
#X coords 0 -1 1 1 500 15 1 100 200;
