#N canvas 3114 246 586 383 10;
#X obj 432 262 tgl 15 0 empty empty empty 17 7 0 10 -262144 -1 -1 0
1;
#X obj 408 295 spigot;
#X obj 432 235 !=;
#X floatatom 385 101 3 0 127 0 - - -;
#X floatatom 408 101 3 0 127 0 - - -;
#X obj 427 198 f;
#X obj 408 171 t f b f;
#X obj 385 48 change;
#X obj 385 133 t f f;
#X obj 327 280 f;
#X obj 430 103 bng 15 250 50 0 empty refresh refresh 17 7 0 10 -262144
-258113 -1;
#X obj 408 75 r in-\$2;
#X obj 275 200 s out-\$2;
#X obj 508 39 r \$3;
#X obj 275 230 s \$2;
#X obj 508 62 * 128;
#X obj 508 85 int;
#X obj 385 25 ctlin \$1 1;
#X obj 327 326 ctlout \$1 1;
#X text 61 16 BCF [MidiChannel][StringOutput][Stringintput];
#X text 61 35 BCF [MidiChannel][String];
#X connect 0 0 1 1;
#X connect 1 0 18 0;
#X connect 2 0 0 0;
#X connect 3 0 8 0;
#X connect 4 0 6 0;
#X connect 5 0 2 0;
#X connect 6 0 1 0;
#X connect 6 0 9 1;
#X connect 6 1 5 0;
#X connect 6 2 2 1;
#X connect 7 0 3 0;
#X connect 8 0 12 0;
#X connect 8 0 14 0;
#X connect 8 1 5 1;
#X connect 9 0 18 0;
#X connect 10 0 9 0;
#X connect 11 0 4 0;
#X connect 13 0 15 0;
#X connect 15 0 16 0;
#X connect 16 0 4 0;
#X connect 17 0 7 0;
#X coords 0 -1 1 1 350 20 1 100 100;
