#N canvas 8 60 1905 1028 10;
#X obj 135 65 r midi;
#X obj 136 128 route 0 1 2 3 4 5 6 7;
#X obj 134 173 route 16 17 18 19 20 21 22 23;
#X msg 135 87 \$2 \$1;
#X obj 422 137 route 32 33 34 35 36 37 38 39;
#X obj 422 177 route 48 49 50 51 52 53 54 55;
#X obj 422 217 route 64 65 66 67 68 69 70 71;
#X text 420 123 BOUTONS;
#X text 134 113 FADERS;
#X obj 284 356 route 13 14 15;
#X obj 147 318 route 44 43 42 41 40;
#X connect 0 0 3 0;
#X connect 1 8 2 0;
#X connect 2 8 4 0;
#X connect 3 0 1 0;
#X connect 4 8 5 0;
#X connect 5 8 6 0;
#X connect 6 8 10 0;
#X connect 10 5 9 0;
