#N canvas 651 413 708 383 10;
#X obj 432 262 tgl 15 0 empty empty empty 17 7 0 10 -262144 -1 -1 1
1;
#X obj 408 295 spigot;
#X obj 432 235 !=;
#X floatatom 385 101 3 0 127 0 - - -;
#X floatatom 408 101 3 0 127 0 - - -;
#X obj 427 198 f;
#X obj 408 171 t f b f;
#X obj 385 48 change;
#X obj 385 133 t f f;
#X obj 327 280 f;
#X obj 430 103 bng 15 250 50 0 empty refresh refresh 17 7 0 10 -262144
-258113 -1;
#X obj 385 25 ctlin \$1 11;
#X obj 408 75 r in-\$2;
#X obj 275 200 s out-\$2;
#X obj 327 326 ctlout \$1 11;
#X text 61 16 X-touch [MidiChannel][StringOutput][Stringintput];
#X text 61 35 X-touch [MidiChannel][String];
#X obj 508 85 int;
#X obj 385 71 * 2;
#X obj 508 9 r \$2;
#X obj 508 62 change;
#X obj 275 229 s fader_\$2;
#X connect 0 0 1 1;
#X connect 1 0 14 0;
#X connect 2 0 0 0;
#X connect 3 0 8 0;
#X connect 4 0 6 0;
#X connect 5 0 2 0;
#X connect 6 0 1 0;
#X connect 6 0 9 1;
#X connect 6 1 5 0;
#X connect 6 2 2 1;
#X connect 7 0 18 0;
#X connect 8 0 13 0;
#X connect 8 0 21 0;
#X connect 8 1 5 1;
#X connect 9 0 14 0;
#X connect 10 0 9 0;
#X connect 11 0 7 0;
#X connect 12 0 4 0;
#X connect 17 0 4 0;
#X connect 18 0 3 0;
#X connect 20 0 17 0;
#X coords 0 -1 1 1 350 20 1 100 100;
