#N canvas 926 190 735 624 10;
#X floatatom 385 101 3 0 127 0 - - -;
#X obj 385 48 change;
#X obj 385 133 t f f;
#X obj 385 25 ctlin \$1 11;
#X text 61 35 X-touch [MidiChannel][String];
#X obj 385 71 / 128;
#X obj 22 360 send;
#X obj 43 295 pack f f;
#X obj 79 249 t b f;
#X obj 82 153 hradio 15 1 0 17 empty SELECTED_PLAYER SELECTED_PLAYER
0 -8 0 10 -262144 -1 -1 1;
#X obj 37 75 hradio 15 1 0 17 empty empty output 0 -8 0 10 -262144
-1 -1 8;
#X obj 32 390 send;
#X obj 430 296 loadbang;
#X obj 430 319 \$1;
#X obj 430 342 - 8;
#X obj 385 156 pack;
#X obj 503 162 r globaltimeaudio;
#X obj 503 199 * 100;
#X msg 53 348 symbol player_Stereo_mixer_R_\$1_2_\$2;
#X msg 43 318 symbol player_Stereo_mixer_L_\$1_1_\$2;
#X obj 132 584 send to_cue;
#X obj 143 481 prepend;
#X obj 229 481 prepend;
#X obj 104 521 prepend;
#X obj 190 521 prepend;
#X obj 407 103 bng 15 250 50 0 empty empty store 17 7 0 10 -258113
-1 -1;
#X obj 474 46 change;
#X obj 474 23 ctlin \$2 11;
#X obj 474 69 route 127;
#X text 61 16 X-touch control store;
#X connect 0 0 2 0;
#X connect 1 0 5 0;
#X connect 2 0 15 0;
#X connect 3 0 1 0;
#X connect 5 0 0 0;
#X connect 7 0 19 0;
#X connect 7 0 18 0;
#X connect 8 0 7 0;
#X connect 8 1 7 1;
#X connect 9 0 8 0;
#X connect 10 0 7 0;
#X connect 12 0 13 0;
#X connect 13 0 14 0;
#X connect 14 0 10 0;
#X connect 15 0 6 0;
#X connect 15 0 11 0;
#X connect 15 0 21 0;
#X connect 15 0 22 0;
#X connect 16 0 17 0;
#X connect 17 0 15 1;
#X connect 18 0 11 1;
#X connect 18 0 21 1;
#X connect 19 0 6 1;
#X connect 19 0 22 1;
#X connect 21 0 23 1;
#X connect 22 0 24 1;
#X connect 23 0 20 0;
#X connect 24 0 20 0;
#X connect 25 0 23 0;
#X connect 25 0 24 0;
#X connect 26 0 28 0;
#X connect 27 0 26 0;
#X connect 28 0 25 0;
#X coords 0 -1 1 1 350 20 1 100 100;
