#N canvas 0 74 1920 1006 10;
#X obj 36 7 cnv 15 500 1000 empty empty Framming_Layer 20 12 0 14 -233017
-4160 0;
#N canvas 563 344 450 442 Flags_and_Length 0;
#X obj 235 170 Dec2Bin8;
#X obj 298 150 Dec2Bin8;
#X obj 235 193 list append;
#X obj 235 216 list split 4;
#X symbolatom 103 124 3 0 0 1 0x7 - -;
#X obj 269 239 prepend 0 0 0 0;
#X obj 269 262 Bin2Dec16;
#X floatatom 103 141 5 0 0 1 _PDU_length_ - -;
#X obj 235 72 t f f;
#X obj 235 97 div 256;
#X obj 298 88 mod 256;
#X obj 198 9 bng 15 250 50 0 empty empty empty 17 7 0 10 -262144 -1
-1;
#X obj 235 49 + 28672;
#X obj 63 156 pack;
#X floatatom 224 7 5 0 4095 0 - - -;
#X obj 235 283 Bin2Dec4;
#X obj 235 356 Dec2Hex4;
#X obj 235 329 mod 8;
#X obj 265 6 inlet;
#X obj 63 345 s list1-\$0;
#X obj 298 111 + 2;
#X connect 0 0 2 0;
#X connect 1 0 2 1;
#X connect 2 0 3 0;
#X connect 3 0 15 0;
#X connect 3 1 5 0;
#X connect 5 0 6 0;
#X connect 6 0 7 0;
#X connect 8 0 9 0;
#X connect 8 1 10 0;
#X connect 9 0 0 0;
#X connect 9 0 13 0;
#X connect 10 0 20 0;
#X connect 11 0 12 0;
#X connect 12 0 8 0;
#X connect 13 0 19 0;
#X connect 14 0 12 0;
#X connect 15 0 17 0;
#X connect 16 0 4 0;
#X connect 17 0 16 0;
#X connect 18 0 12 0;
#X connect 20 0 1 0;
#X connect 20 0 13 1;
#X coords 0 -1 1 1 85 60 1 100 100;
#X restore 80 736 pd Flags_and_Length;
#X obj 81 31 inlet;
#X obj 421 720 r length-\$0;
#X obj 81 578 list store;
#X obj 120 80 bng 15 250 50 0 raz-\$0 empty raz-\$0 17 7 0 10 -228856
-1 -1;
#X obj 138 555 bng 15 250 50 0 empty raz-\$0 raz-\$0 17 7 0 10 -228856
-1 -1;
#X obj 421 562 r list-\$0;
#X obj 100 134 s list-\$0;
#X obj 81 681 list length;
#X obj 81 709 s length-\$0;
#X obj 145 837 bng 15 250 50 0 empty raz-\$0 raz-\$0 17 7 0 10 -228856
-1 -1;
#X obj 230 879 prepend set;
#X msg 230 902 112 87 0 0 0 2 83 116 117 65 82 84 45 115 65 67 78 0
0 0 0 0 0 0 0 0 0 0 0 0 0 0 0 0 0 0 0 0 0 0 0 0 0 0 0 0 0 0 0 0 0 0
0 0 0 0 0 0 0 0 0 0 0 0 0 0 0 0 0 0 100 0 0 1 0 0 0 112 10 2 161 0
0 0 1 2 1;
#X obj 100 104 prepend prepend;
#X obj 81 601 t a a;
#X obj 416 847 r list2-\$0;
#X obj 82 809 r list1-\$0;
#X obj 108 656 s list2-\$0;
#X obj 81 522 s list-\$0;
#X obj 82 886 outlet;
#X obj 82 863 list append;
#X obj 81 54 t a a b;
#X msg 362 58 9 9 9 9;
#N canvas 939 177 550 413 VECTOR_E131 0;
#X obj 238 21 inlet;
#X symbolatom 107 119 12 0 0 0 - - -;
#X obj 238 186 text search VECTOR_E131_DATA;
#X obj 238 216 text get VECTOR_E131_DATA 3 1;
#X msg 350 88 0 0 0 2;
#X obj 350 307 prepend prepend;
#X obj 350 330 s list-\$0;
#X connect 0 0 4 0;
#X connect 2 0 3 0;
#X connect 3 0 1 0;
#X connect 4 0 5 0;
#X connect 5 0 6 0;
#X coords 0 -1 1 1 85 40 1 100 100;
#X restore 268 488 pd VECTOR_E131;
#N canvas 729 314 651 589 SourceName 0;
#X obj 63 61 inlet;
#X obj 102 98 list tosymbol;
#X symbolatom 102 121 20 0 0 0 - - -;
#X msg 286 101 StuART-sACN;
#X obj 286 157 list fromsymbol;
#X obj 286 416 prepend set;
#X obj 286 129 symbol;
#X obj 286 202 list length;
#X floatatom 286 226 5 0 0 0 - - -;
#X obj 286 272 abs;
#X floatatom 286 296 5 0 0 0 - - -;
#X obj 286 319 until;
#X obj 286 343 + 0;
#X obj 286 180 t a a;
#X obj 286 390 t a a;
#X obj 286 366 list prepend;
#X obj 286 74 loadbang;
#X obj 286 248 - 64;
#X obj 237 64 bng 15 250 50 0 empty empty empty 17 7 0 10 -262144 -1
-1;
#X obj 63 508 prepend prepend;
#X obj 63 531 s list-\$0;
#X msg 63 432 83 116 117 65 82 84 45 115 65 67 78 0 0 0 0 0 0 0 0 0
0 0 0 0 0 0 0 0 0 0 0 0 0 0 0 0 0 0 0 0 0 0 0 0 0 0 0 0 0 0 0 0 0 0
0 0 0 0 0 0 0 0 0 0;
#X connect 0 0 21 0;
#X connect 1 0 2 0;
#X connect 3 0 6 0;
#X connect 4 0 13 0;
#X connect 4 0 1 0;
#X connect 5 0 21 0;
#X connect 6 0 4 0;
#X connect 7 0 8 0;
#X connect 8 0 17 0;
#X connect 9 0 10 0;
#X connect 10 0 11 0;
#X connect 11 0 12 0;
#X connect 12 0 15 0;
#X connect 13 0 7 0;
#X connect 13 1 15 1;
#X connect 14 0 5 0;
#X connect 14 1 15 1;
#X connect 15 0 14 0;
#X connect 16 0 3 0;
#X connect 17 0 9 0;
#X connect 18 0 3 0;
#X connect 19 0 20 0;
#X connect 21 0 19 0;
#X coords 0 -1 1 1 130 40 1 100 100;
#X restore 264 438 pd SourceName;
#N canvas 2 760 450 300 priority 0;
#X floatatom 104 119 5 0 0 0 - - -;
#X obj 239 50 inlet;
#X obj 239 96 prepend prepend;
#X obj 239 131 s list-\$0;
#X obj 239 73 100;
#X connect 1 0 4 0;
#X connect 2 0 3 0;
#X connect 4 0 2 0;
#X coords 0 -1 1 1 85 40 1 100 100;
#X restore 271 388 pd priority;
#N canvas 340 420 450 300 Sync_address 0;
#X obj 239 50 inlet;
#X obj 239 96 prepend prepend;
#X obj 239 131 s list-\$0;
#X obj 239 73 0 0;
#X connect 0 0 3 0;
#X connect 1 0 2 0;
#X connect 3 0 1 0;
#X coords 0 -1 1 1 85 40 1 100 100;
#X restore 266 338 pd Sync_address;
#N canvas 2 404 450 300 Sequence_Number 0;
#X obj 279 20 inlet;
#X obj 279 70 counter 0 255;
#X msg 279 43 inc;
#X obj 279 183 prepend prepend;
#X obj 279 206 s list-\$0;
#X floatatom 133 120 5 0 0 0 - - -;
#X connect 0 0 2 0;
#X connect 1 0 3 0;
#X connect 1 0 5 0;
#X connect 2 0 1 0;
#X connect 3 0 4 0;
#X coords 0 -1 1 1 85 40 1 100 100;
#X restore 266 275 pd Sequence_Number;
#N canvas 0 50 450 300 Option_Flags 0;
#X obj 37 37 inlet;
#X text 110 124 Bit 7 = Preview_Data Bit 6 = Stream_Terminated Bit
5 = Force_Synchronization;
#X obj 279 183 prepend prepend;
#X obj 279 206 s list-\$0;
#X obj 37 60 0;
#X connect 0 0 4 0;
#X connect 2 0 3 0;
#X connect 4 0 2 0;
#X restore 272 235 pd Option_Flags;
#N canvas 597 318 450 300 Universe_address 1;
#X obj 108 29 inlet;
#X obj 108 143 s list-\$0;
#X obj 108 75 prepend prepend;
#X obj 108 52 0 \$1;
#X connect 0 0 3 0;
#X connect 2 0 1 0;
#X connect 3 0 2 0;
#X coords 0 -1 1 1 85 40 1 100 100;
#X restore 269 176 pd Universe_address;
#X obj 81 166 t b b b b b b b b;
#X connect 2 0 22 0;
#X connect 3 0 1 0;
#X connect 4 0 15 0;
#X connect 6 0 4 1;
#X connect 7 0 4 0;
#X connect 9 0 10 0;
#X connect 11 0 21 1;
#X connect 12 0 13 0;
#X connect 14 0 8 0;
#X connect 15 0 9 0;
#X connect 15 1 18 0;
#X connect 16 0 21 1;
#X connect 17 0 21 0;
#X connect 21 0 20 0;
#X connect 21 0 12 0;
#X connect 22 0 31 0;
#X connect 22 1 14 0;
#X connect 22 2 5 0;
#X connect 23 0 22 0;
#X connect 31 0 19 0;
#X connect 31 1 24 0;
#X connect 31 2 25 0;
#X connect 31 3 26 0;
#X connect 31 4 27 0;
#X connect 31 5 28 0;
#X connect 31 6 29 0;
#X connect 31 7 30 0;
