#N canvas 0 74 1920 1006 10;
#X obj 36 7 cnv 15 500 1000 empty empty Universe_Discovery_Layer 20
12 0 14 -233017 -4160 0;
#N canvas 563 344 450 442 Flags_and_Length 0;
#X obj 235 170 Dec2Bin8;
#X obj 298 150 Dec2Bin8;
#X obj 235 193 list append;
#X obj 235 216 list split 4;
#X symbolatom 103 124 3 0 0 1 0x7 - -;
#X obj 269 239 prepend 0 0 0 0;
#X obj 269 262 Bin2Dec16;
#X floatatom 103 141 5 0 0 1 _PDU_length_ - -;
#X obj 235 72 t f f;
#X obj 235 97 div 256;
#X obj 298 88 mod 256;
#X obj 198 9 bng 15 250 50 0 empty empty empty 17 7 0 10 -262144 -1
-1;
#X obj 235 49 + 28672;
#X obj 63 156 pack;
#X floatatom 224 7 5 0 4095 0 - - -;
#X obj 235 283 Bin2Dec4;
#X obj 235 356 Dec2Hex4;
#X obj 235 329 mod 8;
#X obj 265 6 inlet;
#X obj 63 345 s list1-\$0;
#X connect 0 0 2 0;
#X connect 1 0 2 1;
#X connect 2 0 3 0;
#X connect 3 0 15 0;
#X connect 3 1 5 0;
#X connect 5 0 6 0;
#X connect 6 0 7 0;
#X connect 8 0 9 0;
#X connect 8 1 10 0;
#X connect 9 0 0 0;
#X connect 9 0 13 0;
#X connect 10 0 1 0;
#X connect 10 0 13 1;
#X connect 11 0 12 0;
#X connect 12 0 8 0;
#X connect 13 0 19 0;
#X connect 14 0 12 0;
#X connect 15 0 17 0;
#X connect 16 0 4 0;
#X connect 17 0 16 0;
#X connect 18 0 12 0;
#X coords 0 -1 1 1 85 60 1 100 100;
#X restore 80 546 pd Flags_and_Length;
#X obj 81 31 inlet;
#X obj 421 530 r length-\$0;
#X obj 81 388 list store;
#X obj 120 80 bng 15 250 50 0 raz-\$0 empty raz-\$0 17 7 0 10 -228856
-1 -1;
#X obj 138 365 bng 15 250 50 0 empty raz-\$0 raz-\$0 17 7 0 10 -228856
-1 -1;
#X obj 421 372 r list-\$0;
#X obj 100 134 s list-\$0;
#X obj 81 491 list length;
#X obj 81 519 s length-\$0;
#X obj 145 647 bng 15 250 50 0 empty raz-\$0 raz-\$0 17 7 0 10 -228856
-1 -1;
#X obj 230 689 prepend set;
#X msg 230 712 112 29 0 0 0 1 84 83 O 1 0 2 0 3 0 4 O 1 0 2 0 3 O 1
0 2 O 1 9 9 9;
#X obj 100 104 prepend prepend;
#X obj 81 411 t a a;
#X obj 416 657 r list2-\$0;
#X obj 82 619 r list1-\$0;
#X obj 108 466 s list2-\$0;
#X obj 81 332 s list-\$0;
#X obj 82 696 outlet;
#X obj 82 673 list append;
#X obj 81 54 t a a b;
#N canvas 831 279 450 300 VECTOR_UNIVERSE_DISCOVERY_UNIVERSE_LIST 0
;
#X obj 238 21 inlet;
#X symbolatom 102 121 4 0 0 1 0x00000001 - -;
#X msg 238 44 0 0 0 1;
#X obj 278 131 prepend prepend;
#X obj 278 154 s list-\$0;
#X connect 0 0 2 0;
#X connect 2 0 3 0;
#X connect 3 0 4 0;
#X coords 0 -1 1 1 85 40 1 100 100;
#X restore 247 302 pd VECTOR_UNIVERSE_DISCOVERY_UNIVERSE_LIST;
#N canvas 831 279 450 300 Last 0;
#X obj 278 50 inlet;
#X obj 278 131 prepend prepend;
#X obj 278 154 s list-\$0;
#X obj 278 94 f;
#X obj 322 78 r to_last-\$0;
#X connect 0 0 3 0;
#X connect 1 0 2 0;
#X connect 3 0 1 0;
#X connect 4 0 3 1;
#X coords 0 -1 1 1 85 40 1 100 100;
#X restore 247 222 pd Last;
#N canvas 831 279 450 300 Packet_Number 0;
#X obj 279 20 inlet;
#X obj 279 70 counter 0 255;
#X msg 279 43 inc;
#X obj 279 183 prepend prepend;
#X obj 279 206 s list-\$0;
#X obj 306 150 s to_last-\$0;
#X obj 279 93 t f f;
#X connect 0 0 2 0;
#X connect 1 0 6 0;
#X connect 2 0 1 0;
#X connect 3 0 4 0;
#X connect 6 0 3 0;
#X connect 6 1 5 0;
#X coords 0 -1 1 1 85 40 1 100 100;
#X restore 247 262 pd Packet_Number;
#N canvas 615 297 450 496 List_of_Universes 1;
#X obj 230 219 text sequence List_of_Universe;
#X obj 230 265 list;
#X obj 107 303 list;
#X obj 107 326 list length;
#X obj 181 247 bng 15 250 50 0 empty empty empty 17 7 0 10 -262144
-1 -1;
#X floatatom 107 349 5 0 0 0 - - -;
#X msg 211 162 line 0 \, bang;
#X obj 189 34 inlet;
#X obj 230 242 list prepend;
#X obj 230 341 prepend prepend;
#X obj 230 364 s list-\$0;
#X obj 137 30 bng 15 250 50 0 empty empty empty 17 7 0 10 -262144 -1
-1;
#X obj 189 57 t b b b b;
#X obj 210 295 list;
#X connect 0 0 8 0;
#X connect 1 0 2 1;
#X connect 1 0 8 1;
#X connect 1 0 13 1;
#X connect 2 0 3 0;
#X connect 3 0 5 0;
#X connect 4 0 2 0;
#X connect 6 0 0 0;
#X connect 7 0 12 0;
#X connect 8 0 1 0;
#X connect 9 0 10 0;
#X connect 11 0 12 0;
#X connect 12 0 13 0;
#X connect 12 1 6 0;
#X connect 12 2 8 1;
#X connect 12 3 1 1;
#X connect 13 0 9 0;
#X coords 0 -1 1 1 85 40 1 100 100;
#X restore 247 182 pd List_of_Universes;
#X obj 81 166 t b b b b b;
#X msg 342 70 9 9 9;
#X connect 2 0 22 0;
#X connect 3 0 1 0;
#X connect 4 0 15 0;
#X connect 6 0 4 1;
#X connect 7 0 4 0;
#X connect 9 0 10 0;
#X connect 11 0 21 1;
#X connect 12 0 13 0;
#X connect 14 0 8 0;
#X connect 15 0 9 0;
#X connect 15 1 18 0;
#X connect 16 0 21 1;
#X connect 17 0 21 0;
#X connect 21 0 20 0;
#X connect 21 0 12 0;
#X connect 22 0 27 0;
#X connect 22 1 14 0;
#X connect 22 2 5 0;
#X connect 27 0 19 0;
#X connect 27 1 23 0;
#X connect 27 2 25 0;
#X connect 27 3 24 0;
#X connect 27 4 26 0;
#X connect 28 0 22 0;
