#N canvas 0 74 1920 1006 10;
#X obj 36 7 cnv 15 500 1000 empty empty Universe_Discovery_Layer 20
12 0 14 -233017 -4160 0;
#N canvas 563 344 450 442 Flags_and_Length 1;
#X obj 235 170 Dec2Bin8;
#X obj 298 150 Dec2Bin8;
#X obj 235 193 list append;
#X obj 235 216 list split 4;
#X symbolatom 103 124 3 0 0 1 0x7 - -;
#X obj 269 239 prepend 0 0 0 0;
#X obj 269 262 Bin2Dec16;
#X floatatom 103 141 5 0 0 1 _PDU_length_ - -;
#X obj 235 72 t f f;
#X obj 235 97 div 256;
#X obj 298 88 mod 256;
#X obj 198 9 bng 15 250 50 0 empty empty empty 17 7 0 10 -262144 -1
-1;
#X obj 235 49 + 28672;
#X obj 63 156 pack;
#X floatatom 224 7 5 0 4095 0 - - -;
#X obj 235 283 Bin2Dec4;
#X obj 235 356 Dec2Hex4;
#X obj 235 329 mod 8;
#X obj 265 6 inlet;
#X obj 63 345 s list1-\$0;
#X obj 298 111 + 2;
#X connect 0 0 2 0;
#X connect 1 0 2 1;
#X connect 2 0 3 0;
#X connect 3 0 15 0;
#X connect 3 1 5 0;
#X connect 5 0 6 0;
#X connect 6 0 7 0;
#X connect 8 0 9 0;
#X connect 8 1 10 0;
#X connect 9 0 0 0;
#X connect 9 0 13 0;
#X connect 10 0 20 0;
#X connect 11 0 12 0;
#X connect 12 0 8 0;
#X connect 13 0 19 0;
#X connect 14 0 12 0;
#X connect 15 0 17 0;
#X connect 16 0 4 0;
#X connect 17 0 16 0;
#X connect 18 0 12 0;
#X connect 20 0 1 0;
#X connect 20 0 13 1;
#X coords 0 -1 1 1 85 60 1 100 100;
#X restore 80 606 pd Flags_and_Length;
#X obj 81 31 inlet;
#X obj 421 590 r length-\$0;
#X obj 81 448 list store;
#X obj 120 80 bng 15 250 50 0 raz-\$0 empty raz-\$0 17 7 0 10 -228856
-1 -1;
#X obj 138 425 bng 15 250 50 0 empty raz-\$0 raz-\$0 17 7 0 10 -228856
-1 -1;
#X obj 421 432 r list-\$0;
#X obj 100 134 s list-\$0;
#X obj 81 551 list length;
#X obj 81 579 s length-\$0;
#X obj 145 707 bng 15 250 50 0 empty raz-\$0 raz-\$0 17 7 0 10 -228856
-1 -1;
#X obj 230 749 prepend set;
#X msg 230 772 prepend 114 11 2 161 0 0 0 1 2 1 0 255 0 0 0 0 0 0 0
0 0 0 0 0 0 0 0 0 0 0 0 0 0 0 0 0 0 0 0 0 0 0 0 0 0 0 0 0 0 0 0 0 0
0 0 0 0 0 0 0 0 0 0 0 0 0 0 0 0 0 0 0 0 0 0 0 0 0 0 0 0 0 0 0 0 0 0
0 0 0 0 0 0 0 0 0 0 0 0 0 0 0 0 0 0 0 0 0 0 0 0 0 0 0 0 0 0 0 0 0 0
0 0 0 0 0 0 0 0 0 0 0 0 0 0 0 0 0 0 0 0 0 0 0 0 0 0 0 0 0 0 0 0 0 0
0 0 0 0 0 0 0 0 0 0 0 0 0 0 0 0 0 0 0 0 0 0 0 0 0 0 0 0 0 0 0 0 0 0
0 0 0 0 0 0 0 0 0 0 0 0 0 0 0 0 0 0 0 0 0 0 0 0 0 0 0 0 0 0 0 0 0 0
0 0 0 0 0 0 0 0 0 0 0 0 0 0 0 0 0 0 0 0 0 0 0 0 0 0 0 0 0 0 0 0 0 0
0 0 0 0 0 0 0 0 0 0 0 0 0 0 0 0 0 0 0 0 0 0 0 0 0 0 0 0 0 0 0 0 0 0
0 0 0 0 0 0 0 0 0 0 0 0 0 0 0 0 0 0 0 0 0 0 0 0 0 0 0 0 0 0 0 0 0 0
0 0 0 0 0 0 0 0 0 0 0 0 0 0 0 0 0 0 0 0 0 0 0 0 0 0 0 0 0 0 0 0 0 0
0 0 0 0 0 0 0 0 0 0 0 0 0 0 0 0 0 0 0 0 0 0 0 0 0 0 0 0 0 0 0 0 0 0
0 0 0 0 0 0 0 0 0 0 0 0 0 0 0 0 0 0 0 0 0 0 0 0 0 0 0 0 0 0 0 0 0 0
0 0 0 0 0 0 0 0 0 0 0 0 0 0 0 0 0 0 0 0 0 0 0 0 0 0 0 0 0 0 0 0 0 0
0 0 0 0 0 0 0 0 0 0 0 0 0 0 0 0 0 0 0 0 0 0 0 0 0 0 0 0 0 0 0 0 0 0
0 0 0 0 0 0 0 0 0 0 0 0 0 0 0 0 0 0 0 0 0 0 0 0 0 0 0 0;
#X obj 100 104 prepend prepend;
#X obj 81 471 t a a;
#X obj 416 717 r list2-\$0;
#X obj 82 679 r list1-\$0;
#X obj 108 526 s list2-\$0;
#X obj 81 392 s list-\$0;
#X obj 82 756 outlet;
#X obj 82 733 list append;
#X obj 81 54 t a a b;
#X msg 342 70 9 9 9;
#N canvas 534 130 450 300 VECTOR_DMP 0;
#X obj 238 21 inlet;
#X obj 163 62 Dec2Hex8;
#X symbolatom 102 121 4 0 0 1 0x02 - -;
#X obj 238 173 prepend prepend;
#X obj 238 196 s list-\$0;
#X msg 238 45 2;
#X connect 0 0 5 0;
#X connect 1 0 2 0;
#X connect 3 0 4 0;
#X connect 5 0 1 0;
#X connect 5 0 3 0;
#X coords 0 -1 1 1 85 40 1 100 100;
#X restore 249 342 pd VECTOR_DMP;
#N canvas 1002 136 450 300 Adress_type 0;
#X symbolatom 102 121 4 0 0 1 0xa1 - -;
#X obj 238 21 inlet;
#X obj 163 62 Dec2Hex8;
#X obj 238 173 prepend prepend;
#X obj 238 196 s list-\$0;
#X msg 238 45 161;
#X connect 1 0 5 0;
#X connect 2 0 0 0;
#X connect 3 0 4 0;
#X connect 5 0 2 0;
#X connect 5 0 3 0;
#X coords 0 -1 1 1 85 40 1 100 100;
#X restore 249 302 pd Adress_type;
#N canvas 1377 204 450 300 Start_Code 0;
#X obj 238 11 inlet;
#X symbolatom 102 121 4 0 0 1 - - -;
#X symbolatom 132 121 4 0 0 1 - - -;
#X obj 238 54 unpack;
#X obj 238 77 Dec2Hex8;
#X obj 271 105 Dec2Hex8;
#X msg 238 31 0 0;
#X obj 168 173 prepend prepend;
#X obj 168 196 s list-\$0;
#X connect 0 0 6 0;
#X connect 3 0 4 0;
#X connect 3 1 5 0;
#X connect 4 0 1 0;
#X connect 5 0 2 0;
#X connect 6 0 7 0;
#X connect 6 0 3 0;
#X connect 7 0 8 0;
#X coords 0 -1 1 1 85 40 1 100 100;
#X restore 249 262 pd Start_Code;
#N canvas 1389 596 450 300 Address_increment 0;
#X symbolatom 102 121 4 0 0 1 - - -;
#X symbolatom 132 121 4 0 0 1 - - -;
#X obj 238 11 inlet;
#X obj 238 54 unpack;
#X obj 238 77 Dec2Hex8;
#X obj 271 105 Dec2Hex8;
#X obj 168 173 prepend prepend;
#X obj 168 196 s list-\$0;
#X msg 238 31 0 1;
#X connect 2 0 8 0;
#X connect 3 0 4 0;
#X connect 3 1 5 0;
#X connect 4 0 0 0;
#X connect 5 0 1 0;
#X connect 6 0 7 0;
#X connect 8 0 6 0;
#X connect 8 0 3 0;
#X coords 0 -1 1 1 85 40 1 100 100;
#X restore 249 222 pd Address_increment;
#N canvas 706 656 450 300 Property_Value_Count 0;
#X symbolatom 102 121 4 0 0 1 - - -;
#X symbolatom 132 121 4 0 0 1 - - -;
#X obj 238 11 inlet;
#X obj 238 54 unpack;
#X obj 238 77 Dec2Hex8;
#X obj 271 105 Dec2Hex8;
#X obj 168 173 prepend prepend;
#X obj 168 196 s list-\$0;
#X msg 238 31 2 1;
#X text 274 31 513;
#X connect 2 0 8 0;
#X connect 3 0 4 0;
#X connect 3 1 5 0;
#X connect 4 0 0 0;
#X connect 5 0 1 0;
#X connect 6 0 7 0;
#X connect 8 0 6 0;
#X connect 8 0 3 0;
#X coords 0 -1 1 1 85 40 1 100 100;
#X restore 249 182 pd Property_Value_Count;
#X obj 81 166 t b b b b b b;
#X connect 2 0 22 0;
#X connect 3 0 1 0;
#X connect 4 0 15 0;
#X connect 6 0 4 1;
#X connect 7 0 4 0;
#X connect 9 0 10 0;
#X connect 11 0 21 1;
#X connect 12 0 13 0;
#X connect 14 0 8 0;
#X connect 15 0 9 0;
#X connect 15 1 18 0;
#X connect 16 0 21 1;
#X connect 17 0 21 0;
#X connect 21 0 20 0;
#X connect 21 0 12 0;
#X connect 22 0 29 0;
#X connect 22 1 14 0;
#X connect 22 2 5 0;
#X connect 23 0 22 0;
#X connect 29 0 19 0;
#X connect 29 1 24 0;
#X connect 29 2 25 0;
#X connect 29 3 26 0;
#X connect 29 4 27 0;
#X connect 29 5 28 0;
