#N canvas 0 74 1920 1006 10;
#X obj 36 7 cnv 15 500 1000 empty empty Framming_Layer 20 12 0 14 -233017
-4160 0;
#N canvas 563 344 450 442 Flags_and_Length 0;
#X obj 235 170 Dec2Bin8;
#X obj 298 150 Dec2Bin8;
#X obj 235 193 list append;
#X obj 235 216 list split 4;
#X symbolatom 103 124 3 0 0 1 0x7 - -;
#X obj 269 239 prepend 0 0 0 0;
#X obj 269 262 Bin2Dec16;
#X floatatom 103 141 5 0 0 1 _PDU_length_ - -;
#X obj 235 72 t f f;
#X obj 235 97 div 256;
#X obj 298 88 mod 256;
#X obj 198 9 bng 15 250 50 0 empty empty empty 17 7 0 10 -262144 -1
-1;
#X obj 235 49 + 28672;
#X obj 63 156 pack;
#X floatatom 224 7 5 0 4095 0 - - -;
#X obj 235 283 Bin2Dec4;
#X obj 235 356 Dec2Hex4;
#X obj 235 329 mod 8;
#X obj 265 6 inlet;
#X obj 63 345 s list1-\$0;
#X connect 0 0 2 0;
#X connect 1 0 2 1;
#X connect 2 0 3 0;
#X connect 3 0 15 0;
#X connect 3 1 5 0;
#X connect 5 0 6 0;
#X connect 6 0 7 0;
#X connect 8 0 9 0;
#X connect 8 1 10 0;
#X connect 9 0 0 0;
#X connect 9 0 13 0;
#X connect 10 0 1 0;
#X connect 10 0 13 1;
#X connect 11 0 12 0;
#X connect 12 0 8 0;
#X connect 13 0 19 0;
#X connect 14 0 12 0;
#X connect 15 0 17 0;
#X connect 16 0 4 0;
#X connect 17 0 16 0;
#X connect 18 0 12 0;
#X coords 0 -1 1 1 85 60 1 100 100;
#X restore 80 476 pd Flags_and_Length;
#X obj 81 31 inlet;
#X obj 421 460 r length-\$0;
#X obj 81 318 list store;
#X obj 120 80 bng 15 250 50 0 raz-\$0 empty raz-\$0 17 7 0 10 -228856
-1 -1;
#X obj 138 295 bng 15 250 50 0 empty raz-\$0 raz-\$0 17 7 0 10 -228856
-1 -1;
#X obj 421 302 r list-\$0;
#X obj 100 134 s list-\$0;
#X obj 81 421 list length;
#X obj 81 449 s length-\$0;
#X obj 145 577 bng 15 250 50 0 empty raz-\$0 raz-\$0 17 7 0 10 -228856
-1 -1;
#X obj 230 619 prepend set;
#X msg 230 642 112 74 0 0 0 2 83 116 117 65 82 84 45 115 65 67 78 0
0 0 0 0 0 0 0 0 0 0 0 0 0 0 0 0 0 0 0 0 0 0 0 0 0 0 0 0 0 0 0 0 0 0
0 0 0 0 0 0 0 0 0 0 0 0 0 0 0 0 0 0 0 0 0 0 1 2;
#X obj 100 104 prepend prepend;
#X obj 81 341 t a a;
#X obj 416 587 r list2-\$0;
#X obj 82 549 r list1-\$0;
#X obj 108 396 s list2-\$0;
#X obj 81 262 s list-\$0;
#X obj 82 626 outlet;
#N canvas 215 335 660 361 VECTOR_E131 0;
#X obj 238 21 inlet;
#X obj 238 54 list split 2;
#X obj 238 107 Hex2Dec16;
#X obj 272 87 Hex2Dec16;
#X obj 238 130 * 65535;
#X obj 238 153 +;
#X symbolatom 123 120 12 0 0 0 - - -;
#X obj 238 186 text search VECTOR_E131_EXTENDED;
#X obj 238 216 text get VECTOR_E131_EXTENDED 3 1;
#X msg 356 115 2;
#X obj 356 238 prepend 0 0 0;
#X obj 356 261 prepend set;
#X obj 104 121 bng 15 250 50 0 empty empty empty 17 7 0 10 -262144
-1 -1;
#X msg 356 284 0 0 0 2;
#X msg 578 1100 0;
#X obj 356 307 prepend prepend;
#X obj 356 330 s list-\$0;
#X connect 0 0 13 0;
#X connect 1 0 2 0;
#X connect 1 1 3 0;
#X connect 2 0 4 0;
#X connect 3 0 5 1;
#X connect 4 0 5 0;
#X connect 5 0 7 0;
#X connect 7 0 8 0;
#X connect 8 0 6 0;
#X connect 9 0 7 0;
#X connect 9 0 10 0;
#X connect 10 0 11 0;
#X connect 11 0 13 0;
#X connect 12 0 9 0;
#X connect 13 0 15 0;
#X connect 15 0 16 0;
#X coords 0 -1 1 1 100 40 1 100 100;
#X restore 232 240 pd VECTOR_E131;
#N canvas 72 130 613 511 SourceName 0;
#X obj 113 61 inlet;
#X obj 102 98 list tosymbol;
#X symbolatom 102 121 20 0 0 0 - - -;
#X msg 290 101 StuART-sACN;
#X obj 286 157 list fromsymbol;
#X obj 286 416 prepend set;
#X obj 286 129 symbol;
#X obj 286 202 list length;
#X floatatom 286 226 5 0 0 0 - - -;
#X obj 286 272 abs;
#X floatatom 286 296 5 0 0 0 - - -;
#X obj 286 319 until;
#X obj 286 343 + 0;
#X obj 286 180 t a a;
#X obj 286 390 t a a;
#X obj 286 366 list prepend;
#X obj 286 74 loadbang;
#X obj 286 248 - 64;
#X obj 237 64 bng 15 250 50 0 empty empty empty 17 7 0 10 -262144 -1
-1;
#X msg 95 189 83 116 117 65 82 84 45 115 65 67 78 0 0 0 0 0 0 0 0 0
0 0 0 0 0 0 0 0 0 0 0 0 0 0 0 0 0 0 0 0 0 0 0 0 0 0 0 0 0 0 0 0 0 0
0 0 0 0 0 0 0 0 0 0;
#X obj 387 445 outlet;
#X obj 387 422 prepend add2;
#X obj 95 238 prepend prepend;
#X obj 95 261 s list-\$0;
#X connect 0 0 19 0;
#X connect 1 0 2 0;
#X connect 3 0 6 0;
#X connect 4 0 13 0;
#X connect 4 0 1 0;
#X connect 5 0 19 0;
#X connect 6 0 4 0;
#X connect 7 0 8 0;
#X connect 8 0 17 0;
#X connect 9 0 10 0;
#X connect 10 0 11 0;
#X connect 11 0 12 0;
#X connect 12 0 15 0;
#X connect 13 0 7 0;
#X connect 13 1 15 1;
#X connect 14 0 5 0;
#X connect 14 1 15 1;
#X connect 15 0 14 0;
#X connect 16 0 3 0;
#X connect 17 0 9 0;
#X connect 18 0 3 0;
#X connect 19 0 21 0;
#X connect 19 0 22 0;
#X connect 21 0 20 0;
#X connect 22 0 23 0;
#X coords 0 -1 1 1 130 40 1 100 100;
#X restore 232 200 pd SourceName;
#N canvas 0 50 450 300 Reserved 0;
#X obj 149 62 inlet;
#X msg 149 85 0 0 0 0;
#X obj 149 108 prepend prepend;
#X obj 149 131 s list-\$0;
#X connect 0 0 1 0;
#X connect 1 0 2 0;
#X connect 2 0 3 0;
#X restore 232 182 pd Reserved;
#X obj 81 166 t b b b b;
#X obj 82 603 list append;
#X obj 81 54 t a a b;
#X connect 2 0 26 0;
#X connect 3 0 1 0;
#X connect 4 0 15 0;
#X connect 6 0 4 1;
#X connect 7 0 4 0;
#X connect 9 0 10 0;
#X connect 11 0 25 1;
#X connect 12 0 13 0;
#X connect 14 0 8 0;
#X connect 15 0 9 0;
#X connect 15 1 18 0;
#X connect 16 0 25 1;
#X connect 17 0 25 0;
#X connect 24 0 19 0;
#X connect 24 1 21 0;
#X connect 24 2 22 0;
#X connect 24 3 23 0;
#X connect 25 0 20 0;
#X connect 26 0 24 0;
#X connect 26 1 14 0;
#X connect 26 2 5 0;
