#N canvas 150 119 1427 875 10;
#X obj 101 101 cnv 15 198 58 empty empty sACN-Receiver 5 8 2 16 -233017
-66577 0;
#X floatatom 73 297 5 0 0 0 - - -;
#X obj 73 273 list length;
#X obj 220 125 tgl 15 0 empty \$0-toogle-sACN-netreceive Port-5568
17 7 0 10 -24198 -24198 -1 5568 5568;
#X msg 220 227 listen \$1;
#X obj 341 46 bng 15 250 50 0 empty raz raz 17 7 0 10 -191407 -1 -1
;
#X obj 341 66 t b b;
#X obj 521 222 route 0;
#X obj 220 206 t f f;
#X obj 220 257 netreceive -u -b;
#X obj 220 45 loadbang;
#X obj 220 72 del 3000;
#X obj 638 58 list split 1;
#X obj 615 85 list store;
#X obj 164 144 bng 12 250 50 0 empty \$0-bangOtherOpCode empty 14 7
0 10 -233017 -233017 -166441;
#X obj 638 137 list trim;
#X obj 638 108 t a a;
#X obj 755 124 prepend \$0;
#X obj 755 50 prepend \$0;
#X obj 615 34 t b b;
#X obj 778 349 text define -k Table1_;
#A set;
#X obj 778 377 text define -k Table4-;
#A set;
#X obj 341 93 prepend \$0 sACN;
#X msg 755 73 \; \$1-bangOther label Other- \; \$1-bangOther color
10 10 1;
#X msg 755 147 \; \$1-bangOther label Print:\$2 \; \$1-bangOther color
15 22 22;
#X obj 638 160 print Other_;
#X msg 341 116 \; \$1-toogle-\$2-netreceive label \$2-receive \; \$1-toogle-\$2-netreceive
color 22 22 22 \; \$1-bangOther label;
#X obj 560 254 prepend \$0 sACN;
#X obj 521 326 prepend \$0 sACN;
#X msg 560 277 \; \$1-toogle-\$2-netreceive label Port-\$3 \; \$1-toogle-\$2-netreceive
color 16 16 22;
#X msg 521 349 \; \$1-toogle-\$2-netreceive label CLOSED \; \$1-toogle-\$2-netreceive
color 13 13 22;
#X obj 330 309 bng 15 250 50 0 empty empty empty 17 7 0 10 -262144
-1 -1;
#X obj 878 675 prepend set;
#N canvas 0 50 1492 807 packet_examples 0;
#X msg 45 157 0 16 0 0 65 83 67 45 69 49 46 49 55 0 0 0 114 110 0 0
0 4 250 131 101 249 192 226 67 141 181 230 173 88 154 52 173 2 114
88 0 0 0 2 68 76 105 103 104 116 0 0 0 0 0 0 0 0 0 0 0 0 0 0 0 0 0
0 0 0 0 0 0 0 0 0 0 0 0 0 0 0 0 0 0 0 0 0 0 0 0 0 0 0 0 0 0 0 0 0 0
0 0 0 0 0 0 0 100 0 0 6 0 0 1 114 11 2 161 0 0 0 1 2 1 0 0 0 0 0 0
0 0 0 0 0 0 0 0 0 0 0 0 0 0 0 0 0 0 0 0 0 0 0 0 0 0 0 0 0 0 0 0 0 0
0 0 0 0 0 0 0 0 0 0 0 0 0 0 0 0 0 0 0 0 0 0 0 0 0 0 0 0 0 0 0 0 0 0
0 0 0 0 0 0 0 0 0 0 0 0 0 0 0 0 0 0 0 0 0 0 0 0 0 0 0 0 0 0 0 0 0 0
0 0 0 0 0 0 0 0 0 0 0 0 0 0 0 0 0 0 0 0 0 0 0 0 0 0 0 0 0 0 0 0 0 0
0 0 0 0 0 0 0 0 0 0 0 0 0 0 0 0 0 0 0 0 0 0 0 0 0 0 0 0 0 0 0 0 0 0
0 0 0 0 0 0 0 0 0 0 0 0 0 0 0 0 0 0 0 0 0 0 0 0 0 0 0 0 0 0 0 0 0 0
0 0 0 0 0 0 0 0 0 0 0 0 0 0 0 0 0 0 0 0 0 0 0 0 0 0 0 0 0 0 0 0 0 0
0 0 0 0 0 0 0 0 0 0 0 0 0 0 0 0 0 0 0 0 0 0 0 0 0 0 0 0 0 0 0 0 0 0
0 0 0 0 0 0 0 0 0 0 0 0 0 0 0 0 0 0 0 0 0 0 0 0 0 0 0 0 0 0 0 0 0 0
0 0 0 0 0 0 0 0 0 0 0 0 0 0 0 0 0 0 0 0 0 0 0 0 0 0 0 0 0 0 0 0 0 0
0 0 0 0 0 0 0 0 0 0 0 0 0 0 0 0 0 0 0 0 0 0 0 0 0 0 0 0 0 0 0 0 0 0
0 0 0 0 0 0 0 0 0 0 0 0 0 0 0 0 0 0 0 0 0 0 0 0 0 0 0 0 0 0 0 0 0 0
0 0 0 0 0 0 0 0 0 0 0 0 0 0 0 0 0 0 0 0 0 0 0 0 0 0 0 0 0 0 0 0 0 0
0 0 0 0 0 0 0 0 0 0 0 0 0 0 0 0 0 0 0 0 0 0 0 0 0 0 0 0 0 0 0 0 0 0
0 0 0 0 0 0 0 0 0 0 0 0 0 0 0 0 0 0 0 0 0 0 0 0 0 0 0 0 0 0 0;
#X msg 437 157 0 16 0 0 65 83 67 45 69 49 46 49 55 0 0 0 114 110 0
0 0 4 250 131 101 249 192 226 67 141 181 230 173 88 154 52 173 2 114
88 0 0 0 2 68 76 105 103 104 116 0 0 0 0 0 0 0 0 0 0 0 0 0 0 0 0 0
0 0 0 0 0 0 0 0 0 0 0 0 0 0 0 0 0 0 0 0 0 0 0 0 0 0 0 0 0 0 0 0 0 0
0 0 0 0 0 0 0 100 0 0 45 0 0 10 114 11 2 161 0 0 0 1 2 1 0 0 0 0 0
0 0 0 0 0 0 0 0 0 0 0 0 0 0 0 0 0 0 0 0 0 0 0 0 0 0 0 0 0 0 0 0 0 0
0 0 0 0 0 0 0 0 0 0 0 0 0 0 0 0 0 0 0 0 0 0 0 0 0 0 0 0 0 0 0 0 0 0
0 0 0 0 0 0 0 0 0 0 0 0 0 0 0 0 0 0 0 0 0 0 0 0 0 0 0 0 0 0 0 0 0 0
0 0 0 0 0 0 0 0 0 0 0 0 0 0 0 0 0 0 0 0 0 0 0 0 0 0 0 0 0 0 0 0 0 0
0 0 0 0 0 0 0 0 0 0 0 0 0 0 0 0 0 0 0 0 0 0 0 0 0 0 0 0 0 0 0 0 0 0
0 0 0 0 0 0 0 0 0 0 0 0 0 0 0 0 0 0 0 0 0 0 0 0 0 0 0 0 0 0 0 0 0 0
0 0 0 0 0 0 0 0 0 0 0 0 0 0 0 0 0 0 0 0 0 0 0 0 0 0 0 0 0 0 0 0 0 0
0 0 0 0 0 0 0 0 0 0 0 0 0 0 0 0 0 0 0 0 0 0 0 0 0 0 0 0 0 0 0 0 0 0
0 0 0 0 0 0 0 0 0 0 0 0 0 0 0 0 0 0 0 0 0 0 0 0 0 0 0 0 0 0 0 0 0 0
0 0 0 0 0 0 0 0 0 0 0 0 0 0 0 0 0 0 0 0 0 0 0 0 0 0 0 0 0 0 0 0 0 0
0 0 0 0 0 0 0 0 0 0 0 0 0 0 0 0 0 0 0 0 0 0 0 0 0 0 0 0 0 0 0 0 0 0
0 0 0 0 0 0 0 0 0 0 0 0 0 0 0 0 0 0 0 0 0 0 0 0 0 0 0 0 0 0 0 0 0 0
0 0 0 0 0 0 0 0 0 0 0 0 0 0 0 0 0 0 0 0 0 0 0 0 0 0 0 0 0 0 0 0 0 0
0 0 0 0 0 0 0 0 0 0 0 0 0 0 0 0 0 0 0 0 0 0 0 0 0 0 0 0 0 0 0 0 0 0
0 0 0 0 0 0 0 0 0 0 0 0 0 0 0 0 0 0 0 0 0 0 0 0 0 0 0 0 0 0 0 0;
#X text 51 137 D::Light U2;
#X msg 826 155 0 16 0 0 65 83 67 45 69 49 46 49 55 0 0 0 114 110 0
0 0 4 219 103 13 57 95 69 72 142 162 129 113 84 52 226 252 187 114
88 0 0 0 2 68 76 105 103 104 116 0 0 0 0 0 0 0 0 0 0 0 0 0 0 0 0 0
0 0 0 0 0 0 0 0 0 0 0 0 0 0 0 0 0 0 0 0 0 0 0 0 0 0 0 0 0 0 0 0 0 0
0 0 0 0 0 0 0 100 0 0 142 0 0 1 114 11 2 161 0 0 0 1 2 1 0 0 110 110
110 110 110 110 110 110 110 110 110 110 110 110 110 110 110 110 110
110 110 110 110 110 110 110 110 110 110 110 110 110 110 110 110 110
110 110 110 110 110 110 110 110 110 110 110 110 110 110 110 110 110
110 110 110 110 110 110 110 110 110 110 110 110 110 110 110 110 110
110 110 110 110 110 110 110 110 110 110 110 110 110 110 110 110 110
110 110 110 110 110 110 110 110 110 110 110 110 110 110 110 110 110
110 110 110 110 110 110 110 110 110 110 110 110 110 110 110 110 110
110 110 110 110 110 110 110 110 110 110 110 110 110 110 110 110 110
110 110 110 110 110 110 110 110 110 110 110 110 110 110 110 110 110
110 110 110 110 110 110 110 110 110 110 110 110 110 110 110 110 110
110 110 110 110 110 110 110 110 110 110 110 110 110 110 110 216 215
110 110 110 110 110 110 110 110 110 110 110 110 110 110 110 110 110
110 110 110 215 110 0 0 0 110 110 110 110 110 110 110 110 110 110 110
110 110 110 110 110 110 110 110 110 11 110 110 110 110 110 110 110
110 110 110 110 110 110 110 110 110 110 110 110 110 110 110 110 110
110 110 110 110 110 110 110 110 110 110 110 110 110 110 110 110 110
110 110 110 110 110 110 110 110 110 110 110 110 110 110 110 110 110
110 110 110 110 110 110 110 110 110 110 110 110 110 110 110 110 110
110 110 110 110 110 110 110 110 110 110 110 110 110 110 110 110 110
110 110 110 110 110 110 110 110 110 110 110 110 110 110 110 110 110
110 110 110 110 110 110 110 110 110 110 110 110 110 110 110 110 110
110 110 110 110 110 110 110 110 110 110 110 110 110 110 110 110 110
110 110 110 110 110 110 110 110 110 110 110 110 110 110 110 110 110
110 110 110 110 110 110 110 110 110 110 110 110 110 110 110 110 110
110 110 110 110 110 110 110 110 110 110 110 110 110 110 110 110 110
110 110 110 110 110 110 110 110 110 110 110 110 110 110 110 110 110
110 110 110 110 110 110 110 110 110 110 110 110 110 110 110 110 110
110 110 110 110 110 110 110 110 110 110 110 110 110 110 110 110 110
110 110 110 110 110 110 110 110 110 110 110 110 110 110 110 110 110
110 110 0 0 0 0 0 0 0 0 0 0 0 0;
#X text 439 138 D::Light U10;
#X obj 45 665 outlet;
#X obj 45 13 inlet;
#X obj 45 56 cycle 3;
#X msg 45 36 1;
#X connect 0 0 5 0;
#X connect 1 0 5 0;
#X connect 3 0 5 0;
#X connect 6 0 8 0;
#X connect 7 0 0 0;
#X connect 7 1 1 0;
#X connect 7 2 3 0;
#X connect 8 0 7 0;
#X restore 55 49 pd packet_examples;
#X obj 235 497 bng 15 250 50 0 empty empty empty 17 7 0 10 -262144
-1 -1;
#X obj 878 649 list tosymbol;
#X obj 5 594 cnv 15 800 150 empty empty Root_Layer 20 12 0 14 -233017
-4160 0;
#X obj 26 614 list split 4;
#N canvas 695 417 450 300 RPL 0;
#X obj 268 63 inlet;
#X obj 268 86 unpack f f f f;
#X obj 268 109 Dec2Hex8;
#X symbolatom 102 121 3 0 0 0 - - -;
#X obj 295 129 Dec2Hex8;
#X symbolatom 122 121 3 0 0 0 - - -;
#X obj 322 149 Dec2Hex8;
#X symbolatom 144 121 3 0 0 0 - - -;
#X obj 349 169 Dec2Hex8;
#X symbolatom 164 121 3 0 0 0 - - -;
#X text 75 35 RPL preamble-postample 0x0010 0x0000;
#X connect 0 0 1 0;
#X connect 1 0 2 0;
#X connect 1 1 4 0;
#X connect 1 2 6 0;
#X connect 1 3 8 0;
#X connect 2 0 3 0;
#X connect 4 0 5 0;
#X connect 6 0 7 0;
#X connect 8 0 9 0;
#X coords 0 -1 1 1 85 40 1 100 100;
#X restore 26 638 pd RPL;
#X obj 111 630 list split 12;
#N canvas 409 337 450 300 ACN_Packet_Identifier 0;
#X obj 37 37 inlet;
#X obj 37 60 list tosymbol;
#X symbolatom 109 120 10 0 0 0 - - -;
#X text 140 52 0x41 0x53 0x43 0x2d 0x45 0x31 0x2e 0x31 0x37 0x00 0x00
0x00;
#X obj 37 83 prepend set;
#X msg 37 106 ASC-E1.17;
#X connect 0 0 1 0;
#X connect 1 0 2 0;
#X connect 1 0 4 0;
#X connect 4 0 5 0;
#X coords 0 -1 1 1 85 40 1 100 100;
#X restore 111 653 pd ACN_Packet_Identifier;
#N canvas 27 225 450 442 Flags_and_Length 0;
#X obj 235 24 inlet;
#X obj 235 100 Dec2Bin8;
#X obj 235 47 unpack;
#X obj 268 80 Dec2Bin8;
#X obj 235 123 list append;
#X obj 235 146 list split 4;
#X obj 235 239 prepend 0 0 0 0;
#X obj 235 263 Bin2Dec8;
#X obj 235 286 Dec2Hex8;
#X symbolatom 103 124 3 0 0 1 0x7 - -;
#X obj 269 189 prepend 0 0 0 0;
#X obj 269 212 Bin2Dec16;
#X floatatom 103 141 5 0 0 1 _PDU_length_ - -;
#X connect 0 0 2 0;
#X connect 1 0 4 0;
#X connect 2 0 1 0;
#X connect 2 1 3 0;
#X connect 3 0 4 1;
#X connect 4 0 5 0;
#X connect 5 0 6 0;
#X connect 5 1 10 0;
#X connect 6 0 7 0;
#X connect 7 0 8 0;
#X connect 8 0 9 0;
#X connect 10 0 11 0;
#X connect 11 0 12 0;
#X coords 0 -1 1 1 85 60 1 100 100;
#X restore 259 667 pd Flags_and_Length;
#X obj 259 646 list split 2;
#X obj 377 662 list split 4;
#N canvas 19 131 450 300 VECTOR_ROOT 0;
#X obj 238 21 inlet;
#X obj 238 54 list split 2;
#X obj 238 107 Hex2Dec16;
#X obj 272 87 Hex2Dec16;
#X obj 238 130 * 65535;
#X obj 238 153 +;
#X symbolatom 107 119 10 0 0 0 - - -;
#X obj 238 216 text get VECTOR_ROOT 3 1;
#X obj 238 186 text search VECTOR_ROOT;
#X connect 0 0 1 0;
#X connect 1 0 2 0;
#X connect 1 1 3 0;
#X connect 2 0 4 0;
#X connect 3 0 5 1;
#X connect 4 0 5 0;
#X connect 5 0 8 0;
#X connect 7 0 6 0;
#X connect 8 0 7 0;
#X coords 0 -1 1 1 85 40 1 100 100;
#X restore 377 687 pd VECTOR_ROOT;
#X obj 465 678 list split 16;
#N canvas 978 264 762 300 CID 0;
#X obj 366 70 inlet;
#X obj 366 166 Dec2Hex8;
#X symbolatom 104 121 3 0 0 0 - - -;
#X obj 393 186 Dec2Hex8;
#X symbolatom 124 121 3 0 0 0 - - -;
#X obj 420 206 Dec2Hex8;
#X symbolatom 144 121 3 0 0 0 - - -;
#X obj 447 226 Dec2Hex8;
#X symbolatom 164 121 3 0 0 0 - - -;
#X obj 366 93 unpack f f f f f f f f f f f f f f f f;
#X obj 448 166 Dec2Hex8;
#X symbolatom 184 121 3 0 0 0 - - -;
#X obj 475 186 Dec2Hex8;
#X symbolatom 204 121 3 0 0 0 - - -;
#X obj 502 206 Dec2Hex8;
#X symbolatom 224 121 3 0 0 0 - - -;
#X obj 529 226 Dec2Hex8;
#X symbolatom 244 121 3 0 0 0 - - -;
#X obj 530 166 Dec2Hex8;
#X symbolatom 264 121 3 0 0 0 - - -;
#X obj 557 186 Dec2Hex8;
#X symbolatom 284 121 3 0 0 0 - - -;
#X obj 584 206 Dec2Hex8;
#X symbolatom 304 121 3 0 0 0 - - -;
#X obj 611 226 Dec2Hex8;
#X symbolatom 324 121 3 0 0 0 - - -;
#X obj 612 166 Dec2Hex8;
#X symbolatom 344 121 3 0 0 0 - - -;
#X obj 639 186 Dec2Hex8;
#X symbolatom 364 121 3 0 0 0 - - -;
#X obj 666 206 Dec2Hex8;
#X symbolatom 384 121 3 0 0 0 - - -;
#X obj 693 226 Dec2Hex8;
#X symbolatom 404 121 3 0 0 0 - - -;
#X obj 241 235 print CID;
#X connect 0 0 9 0;
#X connect 1 0 2 0;
#X connect 3 0 4 0;
#X connect 5 0 6 0;
#X connect 7 0 8 0;
#X connect 9 0 1 0;
#X connect 9 1 3 0;
#X connect 9 2 5 0;
#X connect 9 3 7 0;
#X connect 9 4 10 0;
#X connect 9 5 12 0;
#X connect 9 6 14 0;
#X connect 9 7 16 0;
#X connect 9 8 18 0;
#X connect 9 9 20 0;
#X connect 9 10 22 0;
#X connect 9 11 24 0;
#X connect 9 12 26 0;
#X connect 9 13 28 0;
#X connect 9 14 30 0;
#X connect 9 15 32 0;
#X connect 10 0 11 0;
#X connect 12 0 13 0;
#X connect 14 0 15 0;
#X connect 16 0 17 0;
#X connect 18 0 19 0;
#X connect 20 0 21 0;
#X connect 22 0 23 0;
#X connect 24 0 25 0;
#X connect 26 0 27 0;
#X connect 28 0 29 0;
#X connect 30 0 31 0;
#X connect 32 0 33 0;
#X coords 0 -1 1 1 330 40 1 100 100;
#X restore 465 701 pd CID;
#X obj 5 754 cnv 15 850 200 empty empty Framing_Layer 20 12 0 14 -233017
-4160 0;
#X obj 26 774 list split 2;
#X obj 150 790 list split 4;
#X obj 238 806 list split 64;
#N canvas 27 225 450 442 Flags_and_Length2 0;
#X obj 235 24 inlet;
#X obj 235 100 Dec2Bin8;
#X obj 235 47 unpack;
#X obj 268 80 Dec2Bin8;
#X obj 235 123 list append;
#X obj 235 146 list split 4;
#X obj 235 239 prepend 0 0 0 0;
#X obj 235 263 Bin2Dec8;
#X obj 235 286 Dec2Hex8;
#X symbolatom 103 124 3 0 0 1 0x7 - -;
#X obj 269 189 prepend 0 0 0 0;
#X obj 269 212 Bin2Dec16;
#X floatatom 103 141 5 0 0 1 _PDU_length_ - -;
#X connect 0 0 2 0;
#X connect 1 0 4 0;
#X connect 2 0 1 0;
#X connect 2 1 3 0;
#X connect 3 0 4 1;
#X connect 4 0 5 0;
#X connect 5 0 6 0;
#X connect 5 1 10 0;
#X connect 6 0 7 0;
#X connect 7 0 8 0;
#X connect 8 0 9 0;
#X connect 10 0 11 0;
#X connect 11 0 12 0;
#X coords 0 -1 1 1 85 60 1 100 100;
#X restore 26 797 pd Flags_and_Length2;
#N canvas 872 451 450 300 VECTOR_E131 0;
#X obj 238 21 inlet;
#X obj 238 54 list split 2;
#X obj 238 107 Hex2Dec16;
#X obj 272 87 Hex2Dec16;
#X obj 238 130 * 65535;
#X obj 238 153 +;
#X symbolatom 107 119 12 0 0 0 - - -;
#X obj 238 186 text search VECTOR_E131_DATA;
#X obj 238 216 text get VECTOR_E131_DATA 3 1;
#X connect 0 0 1 0;
#X connect 1 0 2 0;
#X connect 1 1 3 0;
#X connect 2 0 4 0;
#X connect 3 0 5 1;
#X connect 4 0 5 0;
#X connect 5 0 7 0;
#X connect 7 0 8 0;
#X connect 8 0 6 0;
#X coords 0 -1 1 1 85 40 1 100 100;
#X restore 150 814 pd VECTOR_E131;
#N canvas 0 50 450 300 SourceName 0;
#X obj 102 75 inlet;
#X obj 102 98 list tosymbol;
#X symbolatom 102 121 20 0 0 0 - - -;
#X connect 0 0 1 0;
#X connect 1 0 2 0;
#X coords 0 -1 1 1 130 40 1 100 100;
#X restore 238 829 pd SourceName;
#N canvas 0 50 450 300 priority 0;
#X obj 104 96 inlet;
#X floatatom 104 119 5 0 0 0 - - -;
#X connect 0 0 1 0;
#X coords 0 -1 1 1 85 40 1 100 100;
#X restore 368 845 pd priority;
#X obj 368 822 list split 1;
#X obj 453 838 list split 2;
#N canvas 0 50 450 300 Sync_address 0;
#X obj 108 29 inlet;
#X obj 108 52 unpack;
#X obj 108 75 * 256;
#X obj 108 98 +;
#X floatatom 108 121 5 0 0 0 - - -;
#X connect 0 0 1 0;
#X connect 1 0 2 0;
#X connect 1 1 3 1;
#X connect 2 0 3 0;
#X connect 3 0 4 0;
#X coords 0 -1 1 1 85 40 1 100 100;
#X restore 453 861 pd Sync_address;
#X obj 547 855 list split 1;
#N canvas 0 50 450 300 Sequence_Number 0;
#X obj 104 96 inlet;
#X floatatom 104 119 5 0 0 0 - - -;
#X obj 104 141 outlet;
#X connect 0 0 1 0;
#X connect 1 0 2 0;
#X coords 0 -1 1 1 85 40 1 100 100;
#X restore 547 878 pd Sequence_Number;
#N canvas 0 50 450 300 Option_Flags 0;
#X obj 37 37 inlet;
#X text 110 124 Bit 7 = Preview_Data Bit 6 = Stream_Terminated Bit
5 = Force_Synchronization;
#X obj 37 60 print;
#X connect 0 0 2 0;
#X restore 659 894 pd Option_Flags;
#X obj 659 871 list split 1;
#X obj 753 888 list split 2;
#N canvas 0 50 450 300 Universe_address 0;
#X obj 108 29 inlet;
#X obj 108 52 unpack;
#X obj 108 75 * 256;
#X obj 108 98 +;
#X floatatom 108 121 5 0 0 0 - - -;
#X obj 108 143 outlet;
#X connect 0 0 1 0;
#X connect 1 0 2 0;
#X connect 1 1 3 1;
#X connect 2 0 3 0;
#X connect 3 0 4 0;
#X connect 4 0 5 0;
#X coords 0 -1 1 1 85 40 1 100 100;
#X restore 753 911 pd Universe_address;
#X obj 5 964 cnv 15 850 200 empty empty DMX_Layer 20 12 0 14 -233017
-4160 0;
#N canvas 27 225 450 442 Flags_and_Length 0;
#X obj 235 24 inlet;
#X obj 235 100 Dec2Bin8;
#X obj 235 47 unpack;
#X obj 268 80 Dec2Bin8;
#X obj 235 123 list append;
#X obj 235 146 list split 4;
#X obj 235 239 prepend 0 0 0 0;
#X obj 235 263 Bin2Dec8;
#X obj 235 286 Dec2Hex8;
#X symbolatom 103 124 3 0 0 1 0x7 - -;
#X obj 269 189 prepend 0 0 0 0;
#X obj 269 212 Bin2Dec16;
#X floatatom 103 141 5 0 0 1 _PDU_length_ - -;
#X connect 0 0 2 0;
#X connect 1 0 4 0;
#X connect 2 0 1 0;
#X connect 2 1 3 0;
#X connect 3 0 4 1;
#X connect 4 0 5 0;
#X connect 5 0 6 0;
#X connect 5 1 10 0;
#X connect 6 0 7 0;
#X connect 7 0 8 0;
#X connect 8 0 9 0;
#X connect 10 0 11 0;
#X connect 11 0 12 0;
#X coords 0 -1 1 1 85 60 1 100 100;
#X restore 29 1027 pd Flags_and_Length;
#X obj 29 1006 list split 2;
#X obj 147 1022 list split 1;
#N canvas 831 279 450 300 VECTOR_DMP 0;
#X obj 238 21 inlet;
#X obj 238 44 Dec2Hex8;
#X symbolatom 102 121 4 0 0 1 0x02 - -;
#X connect 0 0 1 0;
#X connect 1 0 2 0;
#X coords 0 -1 1 1 85 40 1 100 100;
#X restore 147 1047 pd VECTOR_DMP;
#X obj 232 1038 list split 1;
#N canvas 831 279 450 300 Adress_type 0;
#X obj 238 21 inlet;
#X obj 238 44 Dec2Hex8;
#X symbolatom 102 121 4 0 0 1 0xa1 - -;
#X connect 0 0 1 0;
#X connect 1 0 2 0;
#X coords 0 -1 1 1 85 40 1 100 100;
#X restore 232 1063 pd Adress_type;
#X obj 320 1054 list split 2;
#N canvas 831 279 450 300 Start_Code 0;
#X obj 238 21 inlet;
#X symbolatom 102 121 4 0 0 1 - - -;
#X symbolatom 132 121 4 0 0 1 - - -;
#X obj 238 44 unpack;
#X obj 238 67 Dec2Hex8;
#X obj 271 105 Dec2Hex8;
#X connect 0 0 3 0;
#X connect 3 0 4 0;
#X connect 3 1 5 0;
#X connect 4 0 1 0;
#X connect 5 0 2 0;
#X coords 0 -1 1 1 85 40 1 100 100;
#X restore 320 1079 pd Start_Code;
#X obj 405 1070 list split 2;
#N canvas 831 279 450 300 Address_increment 0;
#X obj 238 21 inlet;
#X symbolatom 102 121 4 0 0 1 - - -;
#X symbolatom 132 121 4 0 0 1 - - -;
#X obj 238 44 unpack;
#X obj 238 67 Dec2Hex8;
#X obj 271 105 Dec2Hex8;
#X connect 0 0 3 0;
#X connect 3 0 4 0;
#X connect 3 1 5 0;
#X connect 4 0 1 0;
#X connect 5 0 2 0;
#X coords 0 -1 1 1 85 40 1 100 100;
#X restore 405 1095 pd Address_increment;
#X obj 529 1086 list split 2;
#N canvas 831 279 450 300 Property_Value_Count 0;
#X obj 238 21 inlet;
#X symbolatom 102 121 4 0 0 1 - - -;
#X symbolatom 132 121 4 0 0 1 - - -;
#X obj 238 44 unpack;
#X obj 238 67 Dec2Hex8;
#X obj 271 105 Dec2Hex8;
#X connect 0 0 3 0;
#X connect 3 0 4 0;
#X connect 3 1 5 0;
#X connect 4 0 1 0;
#X connect 5 0 2 0;
#X coords 0 -1 1 1 85 40 1 100 100;
#X restore 529 1111 pd Property_Value_Count;
#X obj 163 350 list store;
#X msg 878 702 0 255 0 0 0 0 0 0 0 0;
#X obj 670 539 print;
#X obj 974 649 list split 10;
#X obj 985 510 prepend set;
#X msg 985 537 0 16 0 0 65 83 67 45 69 49 46 49 55 0 0 0 114 110 0
0 0 4 219 103 13 57 95 69 72 142 162 129 113 84 52 226 252 187 114
88 0 0 0 2 68 76 105 103 104 116 0 0 0 0 0 0 0 0 0 0 0 0 0 0 0 0 0
0 0 0 0 0 0 0 0 0 0 0 0 0 0 0 0 0 0 0 0 0 0 0 0 0 0 0 0 0 0 0 0 0 0
0 0 0 0 0 0 0 100 0 0 142 0 0 1 114 11 2 161 0 0 0 1 2 1 0 0 110 110
110 110 110 110 110 110 110 110 110 110 110 110 110 110 110 110 110
110 110 110 110 110 110 110 110 110 110 110 110 110 110 110 110 110
110 110 110 110 110 110 110 110 110 110 110 110 110 110 110 110 110
110 110 110 110 110 110 110 110 110 110 110 110 110 110 110 110 110
110 110 110 110 110 110 110 110 110 110 110 110 110 110 110 110 110
110 110 110 110 110 110 110 110 110 110 110 110 110 110 110 110 110
110 110 110 110 110 110 110 110 110 110 110 110 110 110 110 110 110
110 110 110 110 110 110 110 110 110 110 110 110 110 110 110 110 110
110 110 110 110 110 110 110 110 110 110 110 110 110 110 110 110 110
110 110 110 110 110 110 110 110 110 110 110 110 110 110 110 110 110
110 110 110 110 110 110 110 110 110 110 110 110 110 110 110 216 215
110 110 110 110 110 110 110 110 110 110 110 110 110 110 110 110 110
110 110 110 215 110 0 0 0 110 110 110 110 110 110 110 110 110 110 110
110 110 110 110 110 110 110 110 110 11 110 110 110 110 110 110 110
110 110 110 110 110 110 110 110 110 110 110 110 110 110 110 110 110
110 110 110 110 110 110 110 110 110 110 110 110 110 110 110 110 110
110 110 110 110 110 110 110 110 110 110 110 110 110 110 110 110 110
110 110 110 110 110 110 110 110 110 110 110 110 110 110 110 110 110
110 110 110 110 110 110 110 110 110 110 110 110 110 110 110 110 110
110 110 110 110 110 110 110 110 110 110 110 110 110 110 110 110 110
110 110 110 110 110 110 110 110 110 110 110 110 110 110 110 110 110
110 110 110 110 110 110 110 110 110 110 110 110 110 110 110 110 110
110 110 110 110 110 110 110 110 110 110 110 110 110 110 110 110 110
110 110 110 110 110 110 110 110 110 110 110 110 110 110 110 110 110
110 110 110 110 110 110 110 110 110 110 110 110 110 110 110 110 110
110 110 110 110 110 110 110 110 110 110 110 110 110 110 110 110 110
110 110 110 110 110 110 110 110 110 110 110 110 110 110 110 110 110
110 110 110 110 110 110 110 110 110 110 110 110 110 110 110 110 110
110 110 110 110 110 110 110 110 110 110 110 110 110 110 110 110 110
110 110 0 0 0 0 0 0 0 0 0 0 0 0;
#X obj 453 337 tgl 15 0 empty empty empty 17 7 0 10 -262144 -1 -1 0
1;
#X obj 433 371 spigot;
#X obj 127 881 list length;
#X floatatom 127 904 5 0 0 0 - - -;
#X obj 357 761 list length;
#X floatatom 357 784 5 0 0 0 - - -;
#X obj 985 1054 list length;
#X floatatom 985 1077 5 0 0 0 - - -;
#X msg 960 117 0 16 0 0 65 83 67 45 69 49 46 49 55 0 0 0 114 108 0
0 0 8 0 15 14 13 12 11 10 9 8 7 6 5 4 3 2 1 114 86 0 0 0 2 83 116 117
65 82 84 45 115 65 67 78 0 0 0 0 0 0 0 0 0 0 0 0 0 0 0 0 0 0 0 0 0
0 0 0 0 0 0 0 0 0 0 0 0 0 0 0 0 0 0 0 0 0 0 0 0 0 0 0 0 0 0 0 0 100
0 0 66 0 0 8 114 9 2 161 0 0 0 1 2 1 0 255 0 0 0 0 0 0 0 0 0 0 0 0
0 0 0 0 0 0 0 0 0 0 0 0 0 0 0 0 0 0 0 0 0 0 0 0 0 0 0 0 0 0 0 0 0 0
0 0 0 0 0 0 0 0 0 0 0 0 0 0 0 0 0 0 0 0 0 0 0 0 0 0 0 0 0 0 0 0 0 0
0 0 0 0 0 0 0 0 0 0 0 0 0 0 0 0 0 0 0 0 0 0 0 0 0 0 0 0 0 0 0 0 0 0
0 0 0 0 0 0 0 0 0 0 0 0 0 0 0 0 0 0 0 0 0 0 0 0 0 0 0 0 0 0 0 0 0 0
0 0 0 0 0 0 0 0 0 0 0 0 0 0 0 0 0 0 0 0 0 0 0 0 0 0 0 0 0 0 0 0 0 0
0 0 0 0 0 0 0 0 0 0 0 0 0 0 0 0 0 0 0 0 0 0 0 0 0 0 0 0 0 0 0 0 0 0
0 0 0 0 0 0 0 0 0 0 0 0 0 0 0 0 0 0 0 0 0 0 0 0 0 0 0 0 0 0 0 0 0 0
0 0 0 0 0 0 0 0 0 0 0 0 0 0 0 0 0 0 0 0 0 0 0 0 0 0 0 0 0 0 0 0 0 0
0 0 0 0 0 0 0 0 0 0 0 0 0 0 0 0 0 0 0 0 0 0 0 0 0 0 0 0 0 0 0 0 0 0
0 0 0 0 0 0 0 0 0 0 0 0 0 0 0 0 0 0 0 0 0 0 0 0 0 0 0 0 0 0 0 0 0 0
0 0 0 0 0 0 0 0 0 0 0 0 0 0 0 0 0 0 0 0 0 0 0 0 0 0 0 0 0 0 0 0 0 0
0 0 0 0 0 0 0 0 0 0 0 0 0 0 0 0 0 0 0 0 0 0 0 0 0 0 0 0 0 0 0 0 0 0
0 0 0 0 0 0 0 0 0 0 0 0 0 0 0 0 0 0 0 0 0 0 0 0 0 0 0 0 0 0 0 0 0 0
0 0 0 0 0 0 0 0 0 0 0 0 0 0 0 0 0 0 0 0 0 0 0 0 0 0 0 0 0 0 0 0 0 0
0 0 0 0 0 0 0 0 0 0 0 0 0 0 0 0 0 0 0 0 0 0 0;
#X connect 2 0 1 0;
#X connect 3 0 8 0;
#X connect 4 0 9 0;
#X connect 5 0 6 0;
#X connect 6 0 22 0;
#X connect 7 0 28 0;
#X connect 7 1 27 0;
#X connect 8 0 4 0;
#X connect 8 1 7 0;
#X connect 9 0 2 0;
#X connect 9 0 37 0;
#X connect 9 0 77 1;
#X connect 9 0 84 0;
#X connect 10 0 11 0;
#X connect 11 0 3 0;
#X connect 12 0 16 0;
#X connect 12 1 13 1;
#X connect 13 0 25 0;
#X connect 14 0 19 0;
#X connect 15 0 25 0;
#X connect 16 0 15 0;
#X connect 16 1 17 0;
#X connect 17 0 24 0;
#X connect 18 0 23 0;
#X connect 19 0 13 0;
#X connect 19 1 18 0;
#X connect 22 0 26 0;
#X connect 27 0 29 0;
#X connect 28 0 30 0;
#X connect 31 0 77 0;
#X connect 32 0 78 0;
#X connect 33 0 77 0;
#X connect 34 0 33 0;
#X connect 35 0 32 0;
#X connect 37 0 38 0;
#X connect 37 1 39 0;
#X connect 39 0 40 0;
#X connect 39 1 42 0;
#X connect 42 0 41 0;
#X connect 42 1 43 0;
#X connect 42 1 87 0;
#X connect 43 0 44 0;
#X connect 43 1 45 0;
#X connect 45 0 46 0;
#X connect 45 1 48 0;
#X connect 48 0 51 0;
#X connect 48 1 49 0;
#X connect 48 1 85 0;
#X connect 49 0 52 0;
#X connect 49 1 50 0;
#X connect 50 0 53 0;
#X connect 50 1 55 0;
#X connect 55 0 54 0;
#X connect 55 1 56 0;
#X connect 56 0 57 0;
#X connect 56 1 58 0;
#X connect 58 0 59 0;
#X connect 58 1 61 0;
#X connect 61 0 60 0;
#X connect 61 1 62 0;
#X connect 62 0 63 0;
#X connect 62 1 66 0;
#X connect 66 0 65 0;
#X connect 66 1 67 0;
#X connect 67 0 68 0;
#X connect 67 1 69 0;
#X connect 69 0 70 0;
#X connect 69 1 71 0;
#X connect 71 0 72 0;
#X connect 71 1 73 0;
#X connect 73 0 74 0;
#X connect 73 1 75 0;
#X connect 75 0 76 0;
#X connect 75 1 80 0;
#X connect 77 0 2 0;
#X connect 77 0 37 0;
#X connect 77 0 81 0;
#X connect 80 0 32 0;
#X connect 81 0 82 0;
#X connect 82 0 89 0;
#X connect 83 0 84 1;
#X connect 84 0 81 0;
#X connect 85 0 86 0;
#X connect 87 0 88 0;
#X connect 89 0 90 0;
#X connect 91 0 37 0;
#X coords 0 -1 1 1 400 60 1 100 100;
