#N canvas 73 158 1442 724 10;
#X obj 36 7 cnv 15 500 1000 empty empty Root_Layer 20 12 0 14 -233017
-4160 0;
#N canvas 695 417 652 473 RPL 0;
#X text 75 35 RPL preamble-postample 0x0010 0x0000;
#X obj 101 122 tgl 15 1 empty empty empty 17 7 0 10 -262144 -1 -1 16
16;
#X obj 101 162 prepend 0;
#X obj 66 58 inlet;
#X obj 268 201 unpack f f f f;
#X obj 268 224 Dec2Hex8;
#X symbolatom 117 121 3 0 0 0 - - -;
#X obj 295 244 Dec2Hex8;
#X symbolatom 137 121 3 0 0 0 - - -;
#X obj 322 264 Dec2Hex8;
#X symbolatom 159 121 3 0 0 0 - - -;
#X obj 349 284 Dec2Hex8;
#X symbolatom 179 121 3 0 0 0 - - -;
#X text 75 35 RPL preamble-postample 0x0010 0x0000;
#X obj 101 185 list append 0 0;
#X obj 113 67 bng 15 250 50 0 empty empty empty 17 7 0 10 -262144 -1
-1;
#X obj 66 81 + 16;
#X obj 101 208 prepend prepend;
#X obj 101 231 s list2-\$0;
#X connect 1 0 2 0;
#X connect 2 0 14 0;
#X connect 3 0 16 0;
#X connect 4 0 5 0;
#X connect 4 1 7 0;
#X connect 4 2 9 0;
#X connect 4 3 11 0;
#X connect 5 0 6 0;
#X connect 7 0 8 0;
#X connect 9 0 10 0;
#X connect 11 0 12 0;
#X connect 14 0 4 0;
#X connect 14 0 17 0;
#X connect 15 0 16 0;
#X connect 16 0 1 0;
#X connect 17 0 18 0;
#X coords 0 -1 1 1 100 40 1 100 100;
#X restore 168 612 pd RPL;
#N canvas 409 337 605 278 ACN_Packet_Identifier 0;
#X obj 238 23 inlet;
#X symbolatom 122 122 10 0 0 0 - - -;
#X text 140 52 0x41 0x53 0x43 0x2d 0x45 0x31 0x2e 0x31 0x37 0x00 0x00
0x00;
#X msg 263 83 ASC-E1.17;
#X obj 263 132 list fromsymbol;
#X obj 263 106 symbol;
#X obj 263 155 list append 0 0 0;
#X obj 263 178 prepend set;
#X obj 105 123 bng 15 250 50 0 empty empty empty 17 7 0 10 -262144
-1 -1;
#X msg 263 201 65 83 67 45 69 49 46 49 55 0 0 0;
#X obj 263 224 prepend prepend;
#X obj 263 247 s list2-\$0;
#X connect 0 0 9 0;
#X connect 3 0 5 0;
#X connect 4 0 6 0;
#X connect 5 0 4 0;
#X connect 5 0 1 0;
#X connect 6 0 7 0;
#X connect 7 0 9 0;
#X connect 8 0 3 0;
#X connect 9 0 10 0;
#X connect 10 0 11 0;
#X coords 0 -1 1 1 85 40 1 100 100;
#X restore 168 572 pd ACN_Packet_Identifier;
#N canvas 1335 416 450 442 Flags_and_Length 0;
#X obj 235 170 Dec2Bin8;
#X obj 298 150 Dec2Bin8;
#X obj 235 193 list append;
#X obj 235 216 list split 4;
#X symbolatom 103 124 3 0 0 1 0x7 - -;
#X obj 269 239 prepend 0 0 0 0;
#X obj 269 262 Bin2Dec16;
#X floatatom 103 141 5 0 0 1 _PDU_length_ - -;
#X obj 235 72 t f f;
#X obj 235 97 div 256;
#X obj 298 88 mod 256;
#X obj 198 9 bng 15 250 50 0 empty empty empty 17 7 0 10 -262144 -1
-1;
#X obj 235 49 + 28672;
#X obj 63 156 pack;
#X floatatom 224 7 5 0 4095 0 - - -;
#X obj 235 283 Bin2Dec4;
#X obj 235 356 Dec2Hex4;
#X obj 235 329 mod 8;
#X obj 265 6 inlet;
#X obj 63 345 s list1-\$0;
#X obj 298 111 + 2;
#X obj 63 179 prepend prepend;
#X connect 0 0 2 0;
#X connect 1 0 2 1;
#X connect 2 0 3 0;
#X connect 3 0 15 0;
#X connect 3 1 5 0;
#X connect 5 0 6 0;
#X connect 6 0 7 0;
#X connect 8 0 9 0;
#X connect 8 1 10 0;
#X connect 9 0 0 0;
#X connect 9 0 13 0;
#X connect 10 0 20 0;
#X connect 11 0 12 0;
#X connect 12 0 8 0;
#X connect 13 0 21 0;
#X connect 14 0 12 0;
#X connect 15 0 17 0;
#X connect 16 0 4 0;
#X connect 17 0 16 0;
#X connect 18 0 12 0;
#X connect 20 0 1 0;
#X connect 20 0 13 1;
#X connect 21 0 19 0;
#X coords 0 -1 1 1 85 60 1 100 100;
#X restore 80 476 pd Flags_and_Length;
#N canvas 19 131 450 411 VECTOR_ROOT 0;
#X obj 81 21 inlet;
#X obj 238 54 list split 2;
#X obj 238 107 Hex2Dec16;
#X obj 272 87 Hex2Dec16;
#X obj 238 130 * 65535;
#X obj 238 153 +;
#X symbolatom 104 120 10 0 0 0 - - -;
#X obj 238 216 text get VECTOR_ROOT 3 1;
#X obj 238 186 text search VECTOR_ROOT;
#X obj 248 246 text get VECTOR_ROOT 0 1;
#X obj 248 269 prepend 0 0 0;
#X obj 248 292 prepend set;
#X obj 168 121 bng 15 250 50 1 empty empty empty 17 7 0 10 -262144
-1 -1;
#X obj 81 331 prepend prepend;
#X obj 81 354 s list-\$0;
#X msg 81 308 0 0 0 4;
#X obj 168 141 \$1;
#X connect 0 0 15 0;
#X connect 1 0 2 0;
#X connect 1 1 3 0;
#X connect 2 0 4 0;
#X connect 3 0 5 1;
#X connect 4 0 5 0;
#X connect 5 0 8 0;
#X connect 7 0 6 0;
#X connect 8 0 7 0;
#X connect 8 0 9 0;
#X connect 9 0 10 0;
#X connect 10 0 11 0;
#X connect 11 0 15 0;
#X connect 12 0 16 0;
#X connect 13 0 14 0;
#X connect 15 0 1 0;
#X connect 15 0 13 0;
#X connect 16 0 8 0;
#X coords 0 -1 1 1 85 40 1 100 100;
#X restore 178 222 pd VECTOR_ROOT;
#N canvas 978 264 762 380 CID 0;
#X obj 110 21 inlet;
#X obj 366 166 Dec2Hex8;
#X symbolatom 104 121 3 0 0 0 - - -;
#X obj 393 186 Dec2Hex8;
#X symbolatom 124 121 3 0 0 0 - - -;
#X obj 420 206 Dec2Hex8;
#X symbolatom 144 121 3 0 0 0 - - -;
#X obj 447 226 Dec2Hex8;
#X symbolatom 164 121 3 0 0 0 - - -;
#X obj 366 93 unpack f f f f f f f f f f f f f f f f;
#X obj 448 166 Dec2Hex8;
#X symbolatom 184 121 3 0 0 0 - - -;
#X obj 475 186 Dec2Hex8;
#X symbolatom 204 121 3 0 0 0 - - -;
#X obj 502 206 Dec2Hex8;
#X symbolatom 224 121 3 0 0 0 - - -;
#X obj 529 226 Dec2Hex8;
#X symbolatom 244 121 3 0 0 0 - - -;
#X obj 530 166 Dec2Hex8;
#X symbolatom 264 121 3 0 0 0 - - -;
#X obj 557 186 Dec2Hex8;
#X symbolatom 284 121 3 0 0 0 - - -;
#X obj 584 206 Dec2Hex8;
#X symbolatom 304 121 3 0 0 0 - - -;
#X obj 611 226 Dec2Hex8;
#X symbolatom 324 121 3 0 0 0 - - -;
#X obj 612 166 Dec2Hex8;
#X symbolatom 344 121 3 0 0 0 - - -;
#X obj 639 186 Dec2Hex8;
#X symbolatom 364 121 3 0 0 0 - - -;
#X obj 666 206 Dec2Hex8;
#X symbolatom 384 121 3 0 0 0 - - -;
#X obj 693 226 Dec2Hex8;
#X symbolatom 404 121 3 0 0 0 - - -;
#X msg 110 58 0 15 14 13 12 11 10 9 8 7 6 5 4 3 2 1;
#X obj 110 262 prepend prepend;
#X obj 110 285 s list-\$0;
#X connect 0 0 34 0;
#X connect 1 0 2 0;
#X connect 3 0 4 0;
#X connect 5 0 6 0;
#X connect 7 0 8 0;
#X connect 9 0 1 0;
#X connect 9 1 3 0;
#X connect 9 2 5 0;
#X connect 9 3 7 0;
#X connect 9 4 10 0;
#X connect 9 5 12 0;
#X connect 9 6 14 0;
#X connect 9 7 16 0;
#X connect 9 8 18 0;
#X connect 9 9 20 0;
#X connect 9 10 22 0;
#X connect 9 11 24 0;
#X connect 9 12 26 0;
#X connect 9 13 28 0;
#X connect 9 14 30 0;
#X connect 9 15 32 0;
#X connect 10 0 11 0;
#X connect 12 0 13 0;
#X connect 14 0 15 0;
#X connect 16 0 17 0;
#X connect 18 0 19 0;
#X connect 20 0 21 0;
#X connect 22 0 23 0;
#X connect 24 0 25 0;
#X connect 26 0 27 0;
#X connect 28 0 29 0;
#X connect 30 0 31 0;
#X connect 32 0 33 0;
#X connect 34 0 9 0;
#X connect 34 0 35 0;
#X connect 35 0 36 0;
#X coords 0 -1 1 1 330 40 1 100 100;
#X restore 178 182 pd CID;
#X obj 81 31 inlet;
#X obj 421 460 r length-\$0;
#X obj 81 318 list store;
#X obj 120 80 bng 15 250 50 0 raz-\$0 empty raz-\$0 17 7 0 10 -228856
-1 -1;
#X obj 138 295 bng 15 250 50 0 empty raz-\$0 raz-\$0 17 7 0 10 -228856
-1 -1;
#X obj 421 302 r list-\$0;
#X obj 100 134 s list-\$0;
#X obj 81 166 t b b b;
#X obj 81 421 list length;
#X obj 81 449 s length-\$0;
#X obj 82 723 list store;
#X obj 139 698 bng 15 250 50 0 empty raz-\$0 raz-\$0 17 7 0 10 -228856
-1 -1;
#X obj 230 739 prepend set;
#X msg 230 762 0 16 0 0 65 83 67 45 69 49 46 49 55 0 0 0 114 110 0
0 0 8 0 15 14 13 12 11 10 9 8 7 6 5 4 3 2 1 114 88 0 0 0 2 83 116 117
65 82 84 45 115 65 67 78 0 0 0 0 0 0 0 0 0 0 0 0 0 0 0 0 0 0 0 0 0
0 0 0 0 0 0 0 0 0 0 0 0 0 0 0 0 0 0 0 0 0 0 0 0 0 0 0 0 0 0 0 0 100
0 0 19 0 0 8 114 11 2 161 0 0 0 1 2 1 0 255 0 0 0 0 0 0 0 0 0 0 0 0
0 0 0 0 0 0 0 0 0 0 0 0 0 0 0 0 0 0 0 0 0 0 0 0 0 0 0 0 0 0 0 0 0 0
0 0 0 0 0 0 0 0 0 0 0 0 0 0 0 0 0 0 0 0 0 0 0 0 0 0 0 0 0 0 0 0 0 0
0 0 0 0 0 0 0 0 0 0 0 0 0 0 0 0 0 0 0 0 0 0 0 0 0 0 0 0 0 0 0 0 0 0
0 0 0 0 0 0 0 0 0 0 0 0 0 0 0 0 0 0 0 0 0 0 0 0 0 0 0 0 0 0 0 0 0 0
0 0 0 0 0 0 0 0 0 0 0 0 0 0 0 0 0 0 0 0 0 0 0 0 0 0 0 0 0 0 0 0 0 0
0 0 0 0 0 0 0 0 0 0 0 0 0 0 0 0 0 0 0 0 0 0 0 0 0 0 0 0 0 0 0 0 0 0
0 0 0 0 0 0 0 0 0 0 0 0 0 0 0 0 0 0 0 0 0 0 0 0 0 0 0 0 0 0 0 0 0 0
0 0 0 0 0 0 0 0 0 0 0 0 0 0 0 0 0 0 0 0 0 0 0 0 0 0 0 0 0 0 0 0 0 0
0 0 0 0 0 0 0 0 0 0 0 0 0 0 0 0 0 0 0 0 0 0 0 0 0 0 0 0 0 0 0 0 0 0
0 0 0 0 0 0 0 0 0 0 0 0 0 0 0 0 0 0 0 0 0 0 0 0 0 0 0 0 0 0 0 0 0 0
0 0 0 0 0 0 0 0 0 0 0 0 0 0 0 0 0 0 0 0 0 0 0 0 0 0 0 0 0 0 0 0 0 0
0 0 0 0 0 0 0 0 0 0 0 0 0 0 0 0 0 0 0 0 0 0 0 0 0 0 0 0 0 0 0 0 0 0
0 0 0 0 0 0 0 0 0 0 0 0 0 0 0 0 0 0 0 0 0 0 0 0 0 0 0 0 0 0 0 0 0 0
0 0 0 0 0 0 0 0 0 0 0 0 0 0 0 0 0 0 0 0 0 0 0 0 0 0 0 0 0 0 0 0 0 0
0 0 0 0 0 0 0 0 0 0 0 0 0 0 0 0 0 0 0 0 0 0 0;
#X obj 108 371 prepend append;
#X obj 100 104 prepend prepend;
#X obj 81 341 t a a;
#X obj 421 707 r list2-\$0;
#X obj 421 540 r list1-\$0;
#X obj 108 396 s list2-\$0;
#X obj 81 262 s list-\$0;
#X obj 82 556 t b b b a;
#X obj 133 664 s list2-\$0;
#X msg 237 38 1 2;
#X obj 82 746 outlet;
#X obj 81 54 t a a b;
#X connect 6 0 31 0;
#X connect 7 0 3 0;
#X connect 8 0 22 0;
#X connect 10 0 8 1;
#X connect 11 0 8 0;
#X connect 13 0 26 0;
#X connect 13 1 4 0;
#X connect 13 2 5 0;
#X connect 14 0 15 0;
#X connect 16 0 30 0;
#X connect 16 0 18 0;
#X connect 17 0 16 1;
#X connect 18 0 19 0;
#X connect 20 0 25 0;
#X connect 21 0 12 0;
#X connect 22 0 14 0;
#X connect 22 1 20 0;
#X connect 23 0 16 0;
#X connect 24 0 27 0;
#X connect 27 0 16 0;
#X connect 27 1 1 0;
#X connect 27 2 2 0;
#X connect 27 3 28 0;
#X connect 29 0 31 0;
#X connect 31 0 13 0;
#X connect 31 1 21 0;
#X connect 31 2 9 0;
