#N canvas 845 305 978 442 10;
#X obj 203 253 tgl 15 0 empty \$0-sACN-Send sACN-Send 17 8 0 7 -1 -1
-1 1 1;
#X obj 470 43 bng 15 250 50 0 empty raz raz 17 7 0 10 -228856 -1 -1
;
#X obj 203 284 route 0 1;
#X msg 203 376 \; \$1-\$2 color \$3 \$3 22;
#X msg 203 325 13;
#X msg 233 325 16;
#X msg 322 207 disconnect;
#X obj 282 253 bng 15 50 10 0 empty empty Disconnect 18 7 0 7 -13330
-257985 -1;
#X obj 342 253 bng 15 50 10 0 empty empty Reconnect 18 7 0 7 -13330
-257985 -1;
#X msg 312 70 255 255 255 255;
#X obj 312 24 loadbang;
#X obj 312 47 del 2000;
#X obj 278 285 print backward;
#X obj 164 21 inlet;
#X obj 203 224 netsend -u -b;
#X msg 164 447 \; \$1-\$2 label \$3.\$4.\$5.\$6;
#X obj 126 127 list store;
#X obj 164 86 t a a a;
#X obj 164 53 route connect send;
#X obj 227 105 prepend send;
#X obj 214 21 inlet;
#X obj 203 354 prepend \$0 sACN-Send;
#X obj 164 425 prepend \$0 sACN-Send;
#X obj 470 64 prepend \$0 sACN-Send;
#X msg 203 153 disconnect \, connect \$1.\$2.\$3.\$4 5568;
#X msg 470 91 \; \$1-\$2 label \$2 \; \$1-\$2 color 22 22 22;
#X msg 263 323 stop;
#X obj 103 337 del 500;
#X connect 0 0 2 0;
#X connect 1 0 23 0;
#X connect 2 0 4 0;
#X connect 2 0 27 0;
#X connect 2 1 5 0;
#X connect 2 1 26 0;
#X connect 4 0 21 0;
#X connect 5 0 21 0;
#X connect 6 0 14 0;
#X connect 7 0 6 0;
#X connect 8 0 16 0;
#X connect 10 0 11 0;
#X connect 11 0 9 0;
#X connect 13 0 18 0;
#X connect 14 0 0 0;
#X connect 14 1 12 0;
#X connect 16 0 17 0;
#X connect 17 0 22 0;
#X connect 17 1 16 1;
#X connect 17 2 24 0;
#X connect 18 0 17 0;
#X connect 18 1 19 0;
#X connect 18 2 19 0;
#X connect 19 0 14 0;
#X connect 21 0 3 0;
#X connect 22 0 15 0;
#X connect 23 0 25 0;
#X connect 24 0 14 0;
#X connect 26 0 27 0;
#X connect 27 0 8 0;
#X coords 0 -1 1 1 200 20 2 200 250;
