#N canvas 917 521 861 394 10;
#X obj 89 234 sACN-send;
#X obj 86 56 sACN-Receiver;
#X msg 509 55 read /home/pi/StuART/convert/Hex2Dec_table;
#X obj 509 78 text define -k Hex2Dec_table;
#A set 0 0 48 0 0 0 0 \; 1 1 49 1 0 0 0 \; 2 2 50 0 1 0 0 \; 3 3 51 1 1 0 0 \; 4 4 52 0 0 1 0 \; 5 5 53 1 0 1 0 \; 6 6 54 0 1 1 0 \; 7 7 55 1 1 1 0 \; 8 8 56 0 0 0 1 \; 9 9 57 1 0 0 1 \; 10 A 65 0 1 0 1 \; 11 B 66 1 1 0 1 \; 12 C 67 0 0 1 1 \; 13 D 68 1 0 1 1 \; 14 E 69 0 1 1 1 \; 15 F 70 1 1 1 1 \;;
#X obj 509 99 text define -k VECTOR_ROOT;
#A set 4 VECTOR_ROOT_E131_DATA 0x00000004 DATA \; 8 VECTOR_ROOT_E131_EXTENDED 0x00000008 EXTENDED \;;
#X obj 509 119 text define -k VECTOR_E131_DATA;
#A set 2 VECTOR_E131_DATA_PACKET 0x00000002 DATA_PACKET \;;
#N canvas 8 121 1306 893 sACN_Universe_Discovery_Packet 0;
#X obj 101 101 cnv 15 198 58 empty empty sACN-Universe_Discovery_Packet 5 8 2 16 #e0e0e0 #404040 0;
#X obj 220 125 tgl 15 0 empty \$0-toogle-sACN-netreceive Port-5568 17 7 0 10 #14e814 #14e814 #000000 0 5568;
#N canvas 0 50 1492 807 packet_examples 0;
#X msg 45 157 0 16 0 0 65 83 67 45 69 49 46 49 55 0 0 0 114 110 0 0 0 4 250 131 101 249 192 226 67 141 181 230 173 88 154 52 173 2 114 88 0 0 0 2 68 76 105 103 104 116 0 0 0 0 0 0 0 0 0 0 0 0 0 0 0 0 0 0 0 0 0 0 0 0 0 0 0 0 0 0 0 0 0 0 0 0 0 0 0 0 0 0 0 0 0 0 0 0 0 0 0 0 0 0 0 0 0 0 100 0 0 6 0 0 1 114 11 2 161 0 0 0 1 2 1 0 0 0 0 0 0 0 0 0 0 0 0 0 0 0 0 0 0 0 0 0 0 0 0 0 0 0 0 0 0 0 0 0 0 0 0 0 0 0 0 0 0 0 0 0 0 0 0 0 0 0 0 0 0 0 0 0 0 0 0 0 0 0 0 0 0 0 0 0 0 0 0 0 0 0 0 0 0 0 0 0 0 0 0 0 0 0 0 0 0 0 0 0 0 0 0 0 0 0 0 0 0 0 0 0 0 0 0 0 0 0 0 0 0 0 0 0 0 0 0 0 0 0 0 0 0 0 0 0 0 0 0 0 0 0 0 0 0 0 0 0 0 0 0 0 0 0 0 0 0 0 0 0 0 0 0 0 0 0 0 0 0 0 0 0 0 0 0 0 0 0 0 0 0 0 0 0 0 0 0 0 0 0 0 0 0 0 0 0 0 0 0 0 0 0 0 0 0 0 0 0 0 0 0 0 0 0 0 0 0 0 0 0 0 0 0 0 0 0 0 0 0 0 0 0 0 0 0 0 0 0 0 0 0 0 0 0 0 0 0 0 0 0 0 0 0 0 0 0 0 0 0 0 0 0 0 0 0 0 0 0 0 0 0 0 0 0 0 0 0 0 0 0 0 0 0 0 0 0 0 0 0 0 0 0 0 0 0 0 0 0 0 0 0 0 0 0 0 0 0 0 0 0 0 0 0 0 0 0 0 0 0 0 0 0 0 0 0 0 0 0 0 0 0 0 0 0 0 0 0 0 0 0 0 0 0 0 0 0 0 0 0 0 0 0 0 0 0 0 0 0 0 0 0 0 0 0 0 0 0 0 0 0 0 0 0 0 0 0 0 0 0 0 0 0 0 0 0 0 0 0 0 0 0 0 0 0 0 0 0 0 0 0 0 0 0 0 0 0 0 0 0 0 0 0 0 0 0 0 0 0 0 0 0 0 0 0 0 0 0 0 0 0 0 0 0 0 0 0 0 0 0 0 0 0 0 0 0 0 0 0 0 0 0 0 0 0 0 0 0 0 0 0 0 0 0 0 0 0 0 0 0 0 0 0 0 0 0 0 0 0 0 0 0 0 0 0 0 0 0 0 0 0 0 0 0 0 0 0 0 0 0 0 0 0 0 0 0 0 0 0 0 0 0 0 0 0 0 0 0 0 0 0;
#X msg 437 157 0 16 0 0 65 83 67 45 69 49 46 49 55 0 0 0 114 110 0 0 0 4 250 131 101 249 192 226 67 141 181 230 173 88 154 52 173 2 114 88 0 0 0 2 68 76 105 103 104 116 0 0 0 0 0 0 0 0 0 0 0 0 0 0 0 0 0 0 0 0 0 0 0 0 0 0 0 0 0 0 0 0 0 0 0 0 0 0 0 0 0 0 0 0 0 0 0 0 0 0 0 0 0 0 0 0 0 0 100 0 0 45 0 0 10 114 11 2 161 0 0 0 1 2 1 0 0 0 0 0 0 0 0 0 0 0 0 0 0 0 0 0 0 0 0 0 0 0 0 0 0 0 0 0 0 0 0 0 0 0 0 0 0 0 0 0 0 0 0 0 0 0 0 0 0 0 0 0 0 0 0 0 0 0 0 0 0 0 0 0 0 0 0 0 0 0 0 0 0 0 0 0 0 0 0 0 0 0 0 0 0 0 0 0 0 0 0 0 0 0 0 0 0 0 0 0 0 0 0 0 0 0 0 0 0 0 0 0 0 0 0 0 0 0 0 0 0 0 0 0 0 0 0 0 0 0 0 0 0 0 0 0 0 0 0 0 0 0 0 0 0 0 0 0 0 0 0 0 0 0 0 0 0 0 0 0 0 0 0 0 0 0 0 0 0 0 0 0 0 0 0 0 0 0 0 0 0 0 0 0 0 0 0 0 0 0 0 0 0 0 0 0 0 0 0 0 0 0 0 0 0 0 0 0 0 0 0 0 0 0 0 0 0 0 0 0 0 0 0 0 0 0 0 0 0 0 0 0 0 0 0 0 0 0 0 0 0 0 0 0 0 0 0 0 0 0 0 0 0 0 0 0 0 0 0 0 0 0 0 0 0 0 0 0 0 0 0 0 0 0 0 0 0 0 0 0 0 0 0 0 0 0 0 0 0 0 0 0 0 0 0 0 0 0 0 0 0 0 0 0 0 0 0 0 0 0 0 0 0 0 0 0 0 0 0 0 0 0 0 0 0 0 0 0 0 0 0 0 0 0 0 0 0 0 0 0 0 0 0 0 0 0 0 0 0 0 0 0 0 0 0 0 0 0 0 0 0 0 0 0 0 0 0 0 0 0 0 0 0 0 0 0 0 0 0 0 0 0 0 0 0 0 0 0 0 0 0 0 0 0 0 0 0 0 0 0 0 0 0 0 0 0 0 0 0 0 0 0 0 0 0 0 0 0 0 0 0 0 0 0 0 0 0 0 0 0 0 0 0 0 0 0 0 0 0 0 0 0 0 0 0 0 0 0 0 0 0 0 0 0 0 0 0 0 0 0 0 0 0 0 0 0 0 0 0 0 0 0 0 0 0 0 0 0 0 0 0 0 0 0 0 0 0 0 0 0 0 0 0 0 0 0 0 0 0 0 0 0 0 0 0 0 0 0 0 0 0 0;
#X text 51 137 D::Light U2;
#X msg 826 155 0 16 0 0 65 83 67 45 69 49 46 49 55 0 0 0 114 110 0 0 0 4 219 103 13 57 95 69 72 142 162 129 113 84 52 226 252 187 114 88 0 0 0 2 68 76 105 103 104 116 0 0 0 0 0 0 0 0 0 0 0 0 0 0 0 0 0 0 0 0 0 0 0 0 0 0 0 0 0 0 0 0 0 0 0 0 0 0 0 0 0 0 0 0 0 0 0 0 0 0 0 0 0 0 0 0 0 0 100 0 0 142 0 0 1 114 11 2 161 0 0 0 1 2 1 0 0 110 110 110 110 110 110 110 110 110 110 110 110 110 110 110 110 110 110 110 110 110 110 110 110 110 110 110 110 110 110 110 110 110 110 110 110 110 110 110 110 110 110 110 110 110 110 110 110 110 110 110 110 110 110 110 110 110 110 110 110 110 110 110 110 110 110 110 110 110 110 110 110 110 110 110 110 110 110 110 110 110 110 110 110 110 110 110 110 110 110 110 110 110 110 110 110 110 110 110 110 110 110 110 110 110 110 110 110 110 110 110 110 110 110 110 110 110 110 110 110 110 110 110 110 110 110 110 110 110 110 110 110 110 110 110 110 110 110 110 110 110 110 110 110 110 110 110 110 110 110 110 110 110 110 110 110 110 110 110 110 110 110 110 110 110 110 110 110 110 110 110 110 110 110 110 110 110 110 110 110 110 110 110 110 110 110 110 216 215 110 110 110 110 110 110 110 110 110 110 110 110 110 110 110 110 110 110 110 110 215 110 0 0 0 110 110 110 110 110 110 110 110 110 110 110 110 110 110 110 110 110 110 110 110 11 110 110 110 110 110 110 110 110 110 110 110 110 110 110 110 110 110 110 110 110 110 110 110 110 110 110 110 110 110 110 110 110 110 110 110 110 110 110 110 110 110 110 110 110 110 110 110 110 110 110 110 110 110 110 110 110 110 110 110 110 110 110 110 110 110 110 110 110 110 110 110 110 110 110 110 110 110 110 110 110 110 110 110 110 110 110 110 110 110 110 110 110 110 110 110 110 110 110 110 110 110 110 110 110 110 110 110 110 110 110 110 110 110 110 110 110 110 110 110 110 110 110 110 110 110 110 110 110 110 110 110 110 110 110 110 110 110 110 110 110 110 110 110 110 110 110 110 110 110 110 110 110 110 110 110 110 110 110 110 110 110 110 110 110 110 110 110 110 110 110 110 110 110 110 110 110 110 110 110 110 110 110 110 110 110 110 110 110 110 110 110 110 110 110 110 110 110 110 110 110 110 110 110 110 110 110 110 110 110 110 110 110 110 110 110 110 110 110 110 110 110 110 110 110 110 110 110 110 110 110 110 110 110 110 110 110 110 110 110 110 110 110 110 110 110 110 110 110 110 110 110 110 110 110 110 110 110 110 110 110 110 110 110 110 0 0 0 0 0 0 0 0 0 0 0 0;
#X text 439 138 D::Light U10;
#X obj 45 665 outlet;
#X obj 45 13 inlet;
#X obj 45 56 cycle 3;
#X msg 45 36 1;
#X connect 0 0 5 0;
#X connect 1 0 5 0;
#X connect 3 0 5 0;
#X connect 6 0 8 0;
#X connect 7 0 0 0;
#X connect 7 1 1 0;
#X connect 7 2 3 0;
#X connect 8 0 7 0;
#X restore 55 49 pd packet_examples;
#X obj 37 342 cnv 15 300 300 empty empty Root_Layer 20 12 0 14 #e0e0e0 #0400fc 0;
#N canvas 695 417 450 300 RPL 0;
#X text 75 35 RPL preamble-postample 0x0010 0x0000;
#X obj 101 122 tgl 15 1 empty empty empty 17 7 0 10 #fcfcfc #000000 #000000 16 16;
#X obj 101 162 prepend 0;
#X obj 268 63 inlet;
#X obj 268 201 unpack f f f f;
#X obj 268 224 Dec2Hex8;
#X symbolatom 117 121 3 0 0 0 - - - 0;
#X obj 295 244 Dec2Hex8;
#X symbolatom 137 121 3 0 0 0 - - - 0;
#X obj 322 264 Dec2Hex8;
#X symbolatom 159 121 3 0 0 0 - - - 0;
#X obj 349 284 Dec2Hex8;
#X symbolatom 179 121 3 0 0 0 - - - 0;
#X text 75 35 RPL preamble-postample 0x0010 0x0000;
#X obj 101 185 list append 0 0;
#X obj 315 72 bng 15 250 50 0 empty empty empty 17 7 0 10 #fcfcfc #000000 #000000;
#X obj 268 86 + 16;
#X obj 101 208 prepend set;
#X obj 101 231 outlet;
#X connect 1 0 2 0;
#X connect 2 0 14 0;
#X connect 3 0 16 0;
#X connect 4 0 5 0;
#X connect 4 1 7 0;
#X connect 4 2 9 0;
#X connect 4 3 11 0;
#X connect 5 0 6 0;
#X connect 7 0 8 0;
#X connect 9 0 10 0;
#X connect 11 0 12 0;
#X connect 14 0 4 0;
#X connect 14 0 17 0;
#X connect 15 0 16 0;
#X connect 16 0 1 0;
#X connect 17 0 18 0;
#X coords 0 -1 1 1 100 40 1 100 100;
#X restore 158 379 pd RPL;
#N canvas 409 337 605 278 ACN_Packet_Identifier 0;
#X obj 238 23 inlet;
#X symbolatom 122 122 10 0 0 0 - - - 0;
#X text 140 52 0x41 0x53 0x43 0x2d 0x45 0x31 0x2e 0x31 0x37 0x00 0x00 0x00;
#X msg 263 83 ASC-E1.17;
#X obj 263 132 list fromsymbol;
#X obj 263 106 symbol;
#X obj 263 155 list append 0 0 0;
#X obj 263 178 prepend set;
#X obj 105 123 bng 15 250 50 1 empty empty empty 17 7 0 10 #fcfcfc #000000 #000000;
#X msg 263 201 65 83 67 45 69 49 46 49 55 0 0 0;
#X obj 263 224 prepend set;
#X obj 263 247 outlet;
#X connect 0 0 9 0;
#X connect 3 0 5 0;
#X connect 4 0 6 0;
#X connect 5 0 4 0;
#X connect 5 0 1 0;
#X connect 6 0 7 0;
#X connect 7 0 9 0;
#X connect 8 0 3 0;
#X connect 9 0 10 0;
#X connect 10 0 11 0;
#X coords 0 -1 1 1 85 40 1 100 100;
#X restore 158 419 pd ACN_Packet_Identifier;
#N canvas 27 225 450 442 Flags_and_Length 0;
#X obj 42 17 inlet;
#X obj 235 170 Dec2Bin8;
#X obj 298 150 Dec2Bin8;
#X obj 235 193 list append;
#X obj 235 216 list split 4;
#X symbolatom 103 124 3 0 0 1 0x7 - - 0;
#X obj 269 239 prepend 0 0 0 0;
#X obj 269 262 Bin2Dec16;
#X floatatom 103 141 5 0 0 1 _PDU_length_ - - 0;
#X obj 235 72 t f f;
#X obj 235 97 div 256;
#X obj 298 88 mod 256;
#X obj 198 9 bng 15 250 50 0 empty empty empty 17 7 0 10 #fcfcfc #000000 #000000;
#X obj 235 49 + 28672;
#X msg 33 209 112 154;
#X obj 63 156 pack;
#X obj 63 179 prepend set;
#X floatatom 224 7 5 0 4095 0 - - - 0;
#X obj 235 283 Bin2Dec4;
#X obj 235 356 Dec2Hex4;
#X obj 235 329 mod 8;
#X obj 265 6 inlet;
#X obj 25 19 bng 15 250 50 0 empty empty empty 17 7 0 10 #fcfcfc #000000 #000000;
#X obj 33 352 prepend set;
#X obj 33 375 outlet;
#X connect 0 0 14 0;
#X connect 1 0 3 0;
#X connect 2 0 3 1;
#X connect 3 0 4 0;
#X connect 4 0 18 0;
#X connect 4 1 6 0;
#X connect 6 0 7 0;
#X connect 7 0 8 0;
#X connect 9 0 10 0;
#X connect 9 1 11 0;
#X connect 10 0 1 0;
#X connect 10 0 15 0;
#X connect 11 0 2 0;
#X connect 11 0 15 1;
#X connect 12 0 13 0;
#X connect 13 0 9 0;
#X connect 14 0 23 0;
#X connect 15 0 16 0;
#X connect 16 0 14 0;
#X connect 17 0 13 0;
#X connect 18 0 20 0;
#X connect 19 0 5 0;
#X connect 20 0 19 0;
#X connect 21 0 13 0;
#X connect 22 0 14 0;
#X connect 23 0 24 0;
#X coords 0 -1 1 1 85 60 1 100 100;
#X restore 158 469 pd Flags_and_Length;
#N canvas 19 131 450 411 VECTOR_ROOT 0;
#X obj 81 21 inlet;
#X obj 238 54 list split 2;
#X obj 238 107 Hex2Dec16;
#X obj 272 87 Hex2Dec16;
#X obj 238 130 * 65535;
#X obj 238 153 +;
#X symbolatom 104 120 10 0 0 0 - - - 0;
#X obj 238 216 text get VECTOR_ROOT 3 1;
#X obj 238 186 text search VECTOR_ROOT;
#X msg 187 170 8;
#X obj 248 246 text get VECTOR_ROOT 0 1;
#X obj 248 269 prepend 0 0 0;
#X obj 248 292 prepend set;
#X msg 81 308 0 0 0 8;
#X obj 168 121 bng 15 250 50 1 empty empty empty 17 7 0 10 #fcfcfc #000000 #000000;
#X obj 81 331 prepend set;
#X obj 81 354 outlet;
#X connect 0 0 13 0;
#X connect 1 0 2 0;
#X connect 1 1 3 0;
#X connect 2 0 4 0;
#X connect 3 0 5 1;
#X connect 4 0 5 0;
#X connect 5 0 8 0;
#X connect 7 0 6 0;
#X connect 8 0 7 0;
#X connect 8 0 10 0;
#X connect 9 0 8 0;
#X connect 10 0 11 0;
#X connect 11 0 12 0;
#X connect 12 0 13 0;
#X connect 13 0 1 0;
#X connect 13 0 15 0;
#X connect 14 0 9 0;
#X connect 15 0 16 0;
#X coords 0 -1 1 1 85 40 1 100 100;
#X restore 158 529 pd VECTOR_ROOT;
#N canvas 978 264 762 380 CID 0;
#X obj 110 21 inlet;
#X obj 366 166 Dec2Hex8;
#X symbolatom 104 121 3 0 0 0 - - - 0;
#X obj 393 186 Dec2Hex8;
#X symbolatom 124 121 3 0 0 0 - - - 0;
#X obj 420 206 Dec2Hex8;
#X symbolatom 144 121 3 0 0 0 - - - 0;
#X obj 447 226 Dec2Hex8;
#X symbolatom 164 121 3 0 0 0 - - - 0;
#X obj 366 93 unpack f f f f f f f f f f f f f f f f;
#X obj 448 166 Dec2Hex8;
#X symbolatom 184 121 3 0 0 0 - - - 0;
#X obj 475 186 Dec2Hex8;
#X symbolatom 204 121 3 0 0 0 - - - 0;
#X obj 502 206 Dec2Hex8;
#X symbolatom 224 121 3 0 0 0 - - - 0;
#X obj 529 226 Dec2Hex8;
#X symbolatom 244 121 3 0 0 0 - - - 0;
#X obj 530 166 Dec2Hex8;
#X symbolatom 264 121 3 0 0 0 - - - 0;
#X obj 557 186 Dec2Hex8;
#X symbolatom 284 121 3 0 0 0 - - - 0;
#X obj 584 206 Dec2Hex8;
#X symbolatom 304 121 3 0 0 0 - - - 0;
#X obj 611 226 Dec2Hex8;
#X symbolatom 324 121 3 0 0 0 - - - 0;
#X obj 612 166 Dec2Hex8;
#X symbolatom 344 121 3 0 0 0 - - - 0;
#X obj 639 186 Dec2Hex8;
#X symbolatom 364 121 3 0 0 0 - - - 0;
#X obj 666 206 Dec2Hex8;
#X symbolatom 384 121 3 0 0 0 - - - 0;
#X obj 693 226 Dec2Hex8;
#X symbolatom 404 121 3 0 0 0 - - - 0;
#X obj 241 235 print CID;
#X msg 110 58 0 15 14 13 12 11 10 9 8 7 6 5 4 3 2 1;
#X obj 110 262 prepend set;
#X obj 110 285 outlet;
#X connect 0 0 35 0;
#X connect 1 0 2 0;
#X connect 3 0 4 0;
#X connect 5 0 6 0;
#X connect 7 0 8 0;
#X connect 9 0 1 0;
#X connect 9 1 3 0;
#X connect 9 2 5 0;
#X connect 9 3 7 0;
#X connect 9 4 10 0;
#X connect 9 5 12 0;
#X connect 9 6 14 0;
#X connect 9 7 16 0;
#X connect 9 8 18 0;
#X connect 9 9 20 0;
#X connect 9 10 22 0;
#X connect 9 11 24 0;
#X connect 9 12 26 0;
#X connect 9 13 28 0;
#X connect 9 14 30 0;
#X connect 9 15 32 0;
#X connect 10 0 11 0;
#X connect 12 0 13 0;
#X connect 14 0 15 0;
#X connect 16 0 17 0;
#X connect 18 0 19 0;
#X connect 20 0 21 0;
#X connect 22 0 23 0;
#X connect 24 0 25 0;
#X connect 26 0 27 0;
#X connect 28 0 29 0;
#X connect 30 0 31 0;
#X connect 32 0 33 0;
#X connect 35 0 9 0;
#X connect 35 0 36 0;
#X connect 36 0 37 0;
#X coords 0 -1 1 1 330 40 1 100 100;
#X restore 158 569 pd CID;
#X obj 37 653 cnv 15 300 200 empty empty Framing_Layer 20 12 0 14 #e0e0e0 #0400fc 0;
#N canvas 27 225 450 442 Flags_and_Length2 0;
#X obj 44 17 inlet;
#X obj 235 170 Dec2Bin8;
#X obj 298 150 Dec2Bin8;
#X obj 235 193 list append;
#X obj 235 216 list split 4;
#X symbolatom 103 124 3 0 0 1 0x7 - - 0;
#X obj 269 239 prepend 0 0 0 0;
#X obj 269 262 Bin2Dec16;
#X floatatom 103 141 5 0 0 1 _PDU_length_ - - 0;
#X obj 235 72 t f f;
#X obj 235 97 div 256;
#X obj 298 88 mod 256;
#X obj 198 9 bng 15 250 50 0 empty empty empty 17 7 0 10 #fcfcfc #000000 #000000;
#X obj 235 49 + 28672;
#X msg 33 209 112 132;
#X obj 63 156 pack;
#X obj 63 179 prepend set;
#X floatatom 224 7 5 0 4095 0 - - - 0;
#X obj 235 283 Bin2Dec4;
#X obj 235 356 Dec2Hex4;
#X obj 235 329 mod 8;
#X obj 265 6 inlet;
#X obj 165 123 bng 15 250 50 0 empty empty empty 17 7 0 10 #fcfcfc #000000 #000000;
#X obj 33 352 prepend set;
#X obj 33 375 outlet;
#X connect 0 0 14 0;
#X connect 1 0 3 0;
#X connect 2 0 3 1;
#X connect 3 0 4 0;
#X connect 4 0 18 0;
#X connect 4 1 6 0;
#X connect 6 0 7 0;
#X connect 7 0 8 0;
#X connect 9 0 10 0;
#X connect 9 1 11 0;
#X connect 10 0 1 0;
#X connect 10 0 15 0;
#X connect 11 0 2 0;
#X connect 11 0 15 1;
#X connect 12 0 13 0;
#X connect 13 0 9 0;
#X connect 14 0 23 0;
#X connect 15 0 16 0;
#X connect 16 0 14 0;
#X connect 17 0 13 0;
#X connect 18 0 20 0;
#X connect 19 0 5 0;
#X connect 20 0 19 0;
#X connect 21 0 13 0;
#X connect 22 0 14 0;
#X connect 23 0 24 0;
#X coords 0 -1 1 1 85 60 1 100 100;
#X restore 169 689 pd Flags_and_Length2;
#N canvas 215 335 660 361 VECTOR_E131 0;
#X obj 238 21 inlet;
#X obj 238 54 list split 2;
#X obj 238 107 Hex2Dec16;
#X obj 272 87 Hex2Dec16;
#X obj 238 130 * 65535;
#X obj 238 153 +;
#X symbolatom 123 120 12 0 0 0 - - - 0;
#X obj 238 186 text search VECTOR_E131_EXTENDED;
#X obj 238 216 text get VECTOR_E131_EXTENDED 3 1;
#X msg 356 115 2;
#X obj 356 238 prepend 0 0 0;
#X obj 356 261 prepend set;
#X obj 104 121 bng 15 250 50 0 empty empty empty 17 7 0 10 #fcfcfc #000000 #000000;
#X msg 356 284 0 0 0 2;
#X obj 356 307 prepend set;
#X obj 356 330 outlet;
#X msg 578 1100 0;
#X obj 436 330 outlet;
#X obj 436 307 prepend add2;
#X connect 0 0 13 0;
#X connect 1 0 2 0;
#X connect 1 1 3 0;
#X connect 2 0 4 0;
#X connect 3 0 5 1;
#X connect 4 0 5 0;
#X connect 5 0 7 0;
#X connect 7 0 8 0;
#X connect 8 0 6 0;
#X connect 9 0 7 0;
#X connect 9 0 10 0;
#X connect 10 0 11 0;
#X connect 11 0 13 0;
#X connect 12 0 9 0;
#X connect 13 0 14 0;
#X connect 13 0 18 0;
#X connect 14 0 15 0;
#X connect 18 0 17 0;
#X coords 0 -1 1 1 100 40 1 100 100;
#X restore 169 749 pd VECTOR_E131;
#N canvas 72 130 613 511 SourceName 0;
#X obj 113 61 inlet;
#X obj 102 98 list tosymbol;
#X symbolatom 102 121 20 0 0 0 - - - 0;
#X msg 290 101 StuART-sACN;
#X obj 286 157 list fromsymbol;
#X obj 286 416 prepend set;
#X obj 286 129 symbol;
#X obj 286 202 list length;
#X floatatom 286 226 5 0 0 0 - - - 0;
#X obj 286 272 abs;
#X floatatom 286 296 5 0 0 0 - - - 0;
#X obj 286 319 until;
#X obj 286 343 + 0;
#X obj 286 180 t a a;
#X obj 286 390 t a a;
#X obj 286 366 list prepend;
#X obj 286 74 loadbang;
#X obj 286 248 - 64;
#X obj 237 64 bng 15 250 50 0 empty empty empty 17 7 0 10 #fcfcfc #000000 #000000;
#X msg 95 189 83 116 117 65 82 84 45 115 65 67 78 0 0 0 0 0 0 0 0 0 0 0 0 0 0 0 0 0 0 0 0 0 0 0 0 0 0 0 0 0 0 0 0 0 0 0 0 0 0 0 0 0 0 0 0 0 0 0 0 0 0 0 0 0;
#X obj 95 238 prepend set;
#X obj 95 261 outlet;
#X obj 387 445 outlet;
#X obj 387 422 prepend add2;
#X connect 0 0 19 0;
#X connect 1 0 2 0;
#X connect 3 0 6 0;
#X connect 4 0 13 0;
#X connect 4 0 1 0;
#X connect 5 0 19 0;
#X connect 6 0 4 0;
#X connect 7 0 8 0;
#X connect 8 0 17 0;
#X connect 9 0 10 0;
#X connect 10 0 11 0;
#X connect 11 0 12 0;
#X connect 12 0 15 0;
#X connect 13 0 7 0;
#X connect 13 1 15 1;
#X connect 14 0 5 0;
#X connect 14 1 15 1;
#X connect 15 0 14 0;
#X connect 16 0 3 0;
#X connect 17 0 9 0;
#X connect 18 0 3 0;
#X connect 19 0 20 0;
#X connect 19 0 23 0;
#X connect 20 0 21 0;
#X connect 23 0 22 0;
#X coords 0 -1 1 1 130 40 1 100 100;
#X restore 169 789 pd SourceName;
#X obj 37 864 cnv 15 300 200 empty empty Universe_Discovery_Layer 20 12 0 14 #e0e0e0 #0400fc 0;
#N canvas 710 335 702 442 Flags_and_Length 0;
#X obj 42 17 inlet;
#X obj 235 170 Dec2Bin8;
#X obj 298 150 Dec2Bin8;
#X obj 235 193 list append;
#X obj 235 216 list split 4;
#X symbolatom 103 124 3 0 0 1 0x7 - - 0;
#X obj 269 239 prepend 0 0 0 0;
#X obj 269 262 Bin2Dec16;
#X floatatom 103 141 5 0 0 1 _PDU_length_ - - 0;
#X obj 235 72 t f f;
#X obj 235 97 div 256;
#X obj 298 88 mod 256;
#X obj 198 9 bng 15 250 50 0 empty empty empty 17 7 0 10 #fcfcfc #000000 #000000;
#X obj 235 49 + 28672;
#X msg 33 209 112 58;
#X obj 63 156 pack;
#X obj 63 179 prepend set;
#X floatatom 224 7 5 0 4095 0 - - - 0;
#X obj 235 283 Bin2Dec4;
#X obj 235 356 Dec2Hex4;
#X obj 235 329 mod 8;
#X obj 265 6 inlet;
#X obj 160 111 bng 15 250 50 0 empty empty empty 17 7 0 10 #fcfcfc #000000 #000000;
#X obj 33 352 prepend set;
#X obj 33 375 outlet;
#X connect 0 0 14 0;
#X connect 1 0 3 0;
#X connect 2 0 3 1;
#X connect 3 0 4 0;
#X connect 4 0 18 0;
#X connect 4 1 6 0;
#X connect 6 0 7 0;
#X connect 7 0 8 0;
#X connect 9 0 10 0;
#X connect 9 1 11 0;
#X connect 10 0 1 0;
#X connect 10 0 15 0;
#X connect 11 0 2 0;
#X connect 11 0 15 1;
#X connect 12 0 13 0;
#X connect 13 0 9 0;
#X connect 14 0 23 0;
#X connect 15 0 16 0;
#X connect 16 0 14 0;
#X connect 17 0 13 0;
#X connect 18 0 20 0;
#X connect 19 0 5 0;
#X connect 20 0 19 0;
#X connect 21 0 13 0;
#X connect 22 0 14 0;
#X connect 23 0 24 0;
#X coords 0 -1 1 1 85 60 1 100 100;
#X restore 151 922 pd Flags_and_Length;
#N canvas 0 50 450 300 Reserved 0;
#X obj 149 62 inlet;
#X msg 149 85 0 0 0 0;
#X obj 149 108 prepend set;
#X obj 149 131 outlet;
#X obj 262 168 outlet;
#X obj 262 145 prepend add2;
#X connect 0 0 1 0;
#X connect 1 0 2 0;
#X connect 1 0 5 0;
#X connect 2 0 3 0;
#X connect 5 0 4 0;
#X restore 169 829 pd Reserved;
#X text 1124 235 112-113 2 Flags and Length Protocol flags and length Low 12 bits = PDU length High 4 bits = 0x7 114-117 4 Vector Identifies Universe Discovery data as universe list VECTOR_UNIVERSE_DISCOVERY_UNIVERSE_LIST 118 1 Page Packet Number Identifier indicating which packet of N this is—page numbers start at 0 119 1 Last Final Page Page number of the final page to be transmitted.;
#N canvas 831 279 450 300 VECTOR_UNIVERSE_DISCOVERY_UNIVERSE_LIST 0;
#X obj 238 21 inlet;
#X symbolatom 102 121 4 0 0 1 0x00000001 - - 0;
#X obj 238 67 prepend set;
#X obj 238 113 outlet;
#X msg 238 44 0 0 0 1;
#X connect 0 0 4 0;
#X connect 2 0 3 0;
#X connect 4 0 2 0;
#X coords 0 -1 1 1 85 40 1 100 100;
#X restore 151 982 pd VECTOR_UNIVERSE_DISCOVERY_UNIVERSE_LIST;
#X floatatom 338 454 5 0 4095 0 - - - 0;
#X floatatom 338 674 5 0 4095 0 - - - 0;
#X floatatom 338 907 5 0 4095 0 - - - 0;
#X obj 72 363 t b b;
#X msg 568 417 0 16 0 0;
#X obj 72 294 bng 15 250 50 0 empty empty empty 17 7 0 10 #fcfcfc #000000 #000000;
#X msg 568 567 0 0 0 8;
#X msg 568 607 0 15 14 13 12 11 10 9 8 7 6 5 4 3 2 1;
#X msg 568 527 112 0;
#X msg 568 747 112 132;
#X msg 568 827 83 116 117 65 82 84 45 115 65 67 78 0 0 0 0 0 0 0 0 0 0 0 0 0 0 0 0 0 0 0 0 0 0 0 0 0 0 0 0 0 0 0 0 0 0 0 0 0 0 0 0 0 0 0 0 0 0 0 0 0 0 0 0 0;
#X msg 568 875 0 0 0 0;
#X msg 568 787 0 0 0 2;
#N canvas 831 279 450 300 Last 0;
#X obj 279 50 inlet;
#X msg 279 73 0;
#X obj 279 96 prepend set;
#X obj 279 119 outlet;
#X connect 0 0 1 0;
#X connect 1 0 2 0;
#X connect 2 0 3 0;
#X coords 0 -1 1 1 85 40 1 100 100;
#X restore 151 1062 pd Last;
#X msg 578 980 112 58;
#X msg 578 1020 0 0 0 1;
#X msg 578 1060 3;
#X msg 578 1100 0;
#N canvas 831 279 450 300 Packet_Number 0;
#X obj 279 20 inlet;
#X obj 279 96 prepend set;
#X obj 279 119 outlet;
#X obj 279 70 counter 0 255;
#X msg 279 43 inc;
#X connect 0 0 4 0;
#X connect 1 0 2 0;
#X connect 3 0 1 0;
#X connect 4 0 3 0;
#X coords 0 -1 1 1 85 40 1 100 100;
#X restore 151 1022 pd Packet_Number;
#X msg 577 1140 O 1 0 2 0 3 0 4 0 0 0 0 0 0 0 0 0 0 0 0 0 0 0 0 0 0 0 0 0 0 0 0 0 0 0 0 0 0 0 0 0 0 0 0 0 0 0 0 0 0 0 0;
#N canvas 615 297 450 496 List_of_Universes 0;
#X obj 230 219 text sequence List_of_Universe;
#X obj 230 265 list;
#X obj 107 303 list;
#X obj 107 326 list length;
#X obj 181 247 bng 15 250 50 0 empty empty empty 17 7 0 10 #fcfcfc #000000 #000000;
#X floatatom 107 349 5 0 0 0 - - - 0;
#X msg 161 162 line 0 \, bang;
#X obj 230 288 prepend set;
#X obj 230 311 outlet;
#X obj 189 34 inlet;
#X obj 230 242 list prepend;
#X obj 189 57 t b b b;
#X connect 0 0 10 0;
#X connect 1 0 2 1;
#X connect 1 0 7 0;
#X connect 1 0 10 1;
#X connect 2 0 3 0;
#X connect 3 0 5 0;
#X connect 4 0 2 0;
#X connect 6 0 0 0;
#X connect 7 0 8 0;
#X connect 9 0 11 0;
#X connect 10 0 1 0;
#X connect 11 0 6 0;
#X connect 11 1 10 1;
#X connect 11 2 1 1;
#X coords 0 -1 1 1 85 40 1 100 100;
#X restore 151 1102 pd List_of_Universes;
#X obj 577 1196 list prepend;
#X obj 577 1219 list;
#X obj 497 1183 bng 15 250 50 0 empty empty raz 17 7 0 10 #fcfcfc #000000 #000000;
#X obj 497 1212 bng 15 250 50 0 empty empty empty 17 7 0 10 #fcfcfc #000000 #000000;
#X obj 497 1258 list length;
#X floatatom 497 1281 5 0 0 0 - - - 0;
#X obj 497 1235 list;
#X obj 577 1251 prepend set;
#X obj 72 906 t b b b b;
#X obj 72 673 t b b b;
#X obj 72 453 t b b;
#X obj 48 892 bng 15 250 50 0 empty empty empty 17 7 0 10 #fcfcfc #000000 #000000;
#X obj 38 672 bng 15 250 50 0 empty empty empty 17 7 0 10 #fcfcfc #000000 #000000;
#X obj 38 452 bng 15 250 50 0 empty empty empty 17 7 0 10 #fcfcfc #000000 #000000;
#X obj 38 362 bng 15 250 50 0 empty empty empty 17 7 0 10 #fcfcfc #000000 #000000;
#X obj 1012 1360 outlet;
#X obj 464 891 bng 15 250 50 0 empty empty empty 17 7 0 10 #fcc4c4 #000000 #000000;
#X obj 488 905 t b b b b;
#X obj 840 916 list prepend;
#X obj 840 939 list;
#X obj 909 894 bng 15 250 50 0 empty empty raz 17 7 0 10 #fcfcfc #000000 #000000;
#X obj 1304 492 bng 15 250 50 0 empty empty empty 17 7 0 10 #fcfcfc #000000 #000000;
#X obj 1304 538 list length;
#X floatatom 1304 561 5 0 0 0 - - - 0;
#X obj 1304 515 list;
#X obj 840 971 prepend set;
#X obj 835 566 list prepend;
#X obj 835 589 list;
#X obj 904 544 bng 15 250 50 0 empty empty raz 17 7 0 10 #fcfcfc #000000 #000000;
#X obj 835 621 prepend set;
#X obj 490 630 bng 15 250 50 0 empty empty empty 17 7 0 10 #fcc4c4 #000000 #000000;
#X obj 514 644 t b b b;
#X obj 464 1021 bng 15 250 50 0 empty empty empty 17 7 0 10 #fcc4c4 #000000 #000000;
#X obj 489 1035 t b b b b b;
#X msg 925 644 0 0 0 8 0 15 14 13 12 11 10 9 8 7 6 5 4 3 2 1;
#X msg 930 987 0 0 0 2 83 116 117 65 82 84 45 115 65 67 78 0 0 0 0 0 0 0 0 0 0 0 0 0 0 0 0 0 0 0 0 0 0 0 0 0 0 0 0 0 0 0 0 0 0 0 0 0 0 0 0 0 0 0 0 0 0 0 0 0 0 0 0 0 0 0 0 0;
#X msg 937 1267 0 0 0 1 0 0 O 1 0 2 0 3 0 4 0 0 0 0 0 0 0 0 0 0 0 0 0 0 0 0 0 0 0 0 0 0 0 0 0 0 0 0 0 0 0 0 0 0 0 0 0 0 0 0 0 0 0 0;
#X obj 1289 1115 prepend set;
#X obj 586 933 bng 15 250 50 0 empty empty empty 17 7 0 10 #fcfcc4 #000000 #000000;
#X obj 586 953 t b b;
#X msg 1289 1136 112 58 0 0 0 1 0 0 O 1 0 2 0 3 0 4 0 0 0 0 0 0 0 0 0 0 0 0 0 0 0 0 0 0 0 0 0 0 0 0 0 0 0 0 0 0 0 0 0 0 0 0 0 0 0 0 0 0 0 0;
#X obj 1289 1090 list prepend;
#X obj 1375 959 prepend set;
#X msg 1375 980 0 0 0 2 83 116 117 65 82 84 45 115 65 67 78 0 0 0 0 0 0 0 0 0 0 0 0 0 0 0 0 0 0 0 0 0 0 0 0 0 0 0 0 0 0 0 0 0 0 0 0 0 0 0 0 0 0 0 0 0 0 0 0 0 0 0 0 0 0 0 0 0 112 58 0 0 0 1 0 0 O 1 0 2 0 3 0 4 0 0 0 0 0 0 0 0 0 0 0 0 0 0 0 0 0 0 0 0 0 0 0 0 0 0 0 0 0 0 0 0 0 0 0 0 0 0 0 0 0 0 0 0;
#X obj 1375 934 list prepend;
#X obj 1545 895 list length;
#X floatatom 1545 918 5 0 0 0 - - - 0;
#X obj 572 688 bng 15 250 50 0 empty empty empty 17 7 0 10 #fcfcc4 #000000 #000000;
#X obj 572 708 t b b;
#X obj 1455 765 prepend set;
#X obj 1455 740 list prepend;
#X msg 1455 788 112 132 0 0 0 2 83 116 117 65 82 84 45 115 65 67 78 0 0 0 0 0 0 0 0 0 0 0 0 0 0 0 0 0 0 0 0 0 0 0 0 0 0 0 0 0 0 0 0 0 0 0 0 0 0 0 0 0 0 0 0 0 0 0 0 0 0 0 0 0 0 0 0 0 112 58 0 0 0 1 0 0 O 1 0 2 0 3 0 4 0 0 0 0 0 0 0 0 0 0 0 0 0 0 0 0 0 0 0 0 0 0 0 0 0 0 0 0 0 0 0 0 0 0 0 0 0 0 0 0 0 0 0 0;
#X obj 1481 563 prepend set;
#X msg 1471 584 112 132 0 0 0 2 83 116 117 65 82 84 45 115 65 67 78 0 0 0 0 0 0 0 0 0 0 0 0 0 0 0 0 0 0 0 0 0 0 0 0 0 0 0 0 0 0 0 0 0 0 0 0 0 0 0 0 0 0 0 0 0 0 0 0 0 0 0 0 0 0 0 0 0 112 58 0 0 0 1 0 0 O 1 0 2 0 3 0 4 0 0 0 0 0 0 0 0 0 0 0 0 0 0 0 0 0 0 0 0 0 0 0 0 0 0 0 0 0 0 0 0 0 0 0 0 0 0 0 0 0 0 0 0 0 0 0 8 0 15 14 13 12 11 10 9 8 7 6 5 4 3 2 1;
#X obj 1471 538 list prepend;
#X obj 1391 561 list length;
#X obj 409 184 sACN_FramingLayer;
#X msg 568 457 9 9 9 9;
#X obj 409 161 sACN_UniverseDiscoveryLayer;
#X obj 409 109 bng 15 250 50 0 empty empty empty 17 7 0 10 #fcfcfc #000000 #000000;
#X obj 498 280 text define -k List_of_Universe 512;
#A set 0 1 \; 0 2 \; 0 3 \; 0 4 \;;
#X msg 715 86 0 16 0 0 65 83 67 45 69 49 46 49 55 0 0 0 112 110 0 0 0 8 0 15 14 13 12 11 10 9 8 7 6 5 4 3 2 1 112 88 0 0 0 2 83 116 117 65 82 84 45 115 65 67 78 0 0 0 0 0 0 0 0 0 0 0 0 0 0 0 0 0 0 0 0 0 0 0 0 0 0 0 0 0 0 0 0 0 0 0 0 0 0 0 0 0 0 0 0 0 0 0 0 0 0 0 0 0 0 0 0 0 112 14 0 0 0 1 2 1 0 1 0 2 0 3 0 4;
#X obj 409 229 prepend send;
#X obj 409 252 sACN-send;
#X msg 688 196 connect 192 168 1 36;
#X obj 409 206 sACN_RootLayer 8;
#X connect 4 0 22 0;
#X connect 6 0 26 0;
#X connect 7 0 24 0;
#X connect 8 0 25 0;
#X connect 10 0 27 0;
#X connect 11 0 30 0;
#X connect 12 0 28 0;
#X connect 14 0 32 0;
#X connect 15 0 29 0;
#X connect 17 0 33 0;
#X connect 18 0 6 1;
#X connect 19 0 10 1;
#X connect 20 0 14 1;
#X connect 21 0 5 0;
#X connect 21 1 4 0;
#X connect 24 0 65 0;
#X connect 25 0 65 0;
#X connect 27 0 89 1;
#X connect 28 0 57 0;
#X connect 29 0 57 0;
#X connect 30 0 57 0;
#X connect 31 0 35 0;
#X connect 32 0 80 1;
#X connect 33 0 39 0;
#X connect 34 0 39 0;
#X connect 35 0 39 0;
#X connect 36 0 34 0;
#X connect 37 0 39 0;
#X connect 38 0 37 0;
#X connect 39 0 40 0;
#X connect 40 0 39 1;
#X connect 40 0 45 1;
#X connect 40 0 43 0;
#X connect 40 0 46 0;
#X connect 41 0 39 1;
#X connect 42 0 45 0;
#X connect 43 0 44 0;
#X connect 44 0 20 0;
#X connect 45 0 43 0;
#X connect 45 0 46 0;
#X connect 46 0 75 0;
#X connect 47 0 38 0;
#X connect 47 1 31 0;
#X connect 47 2 36 0;
#X connect 47 3 17 0;
#X connect 48 0 15 0;
#X connect 48 1 12 0;
#X connect 48 2 11 0;
#X connect 49 0 8 0;
#X connect 49 1 7 0;
#X connect 50 0 47 0;
#X connect 51 0 48 0;
#X connect 52 0 49 0;
#X connect 53 0 21 0;
#X connect 55 0 56 0;
#X connect 56 0 29 0;
#X connect 56 1 28 0;
#X connect 56 2 30 0;
#X connect 56 3 59 0;
#X connect 57 0 58 0;
#X connect 58 0 57 1;
#X connect 58 0 64 0;
#X connect 58 0 83 1;
#X connect 59 0 57 1;
#X connect 60 0 63 0;
#X connect 61 0 62 0;
#X connect 63 0 61 0;
#X connect 64 0 74 0;
#X connect 65 0 66 0;
#X connect 66 0 65 1;
#X connect 66 0 68 0;
#X connect 67 0 65 1;
#X connect 68 0 73 0;
#X connect 69 0 70 0;
#X connect 70 0 25 0;
#X connect 70 1 24 0;
#X connect 70 2 67 0;
#X connect 71 0 72 0;
#X connect 72 0 37 0;
#X connect 72 1 35 0;
#X connect 72 2 34 0;
#X connect 72 3 33 0;
#X connect 72 4 41 0;
#X connect 73 0 93 0;
#X connect 75 0 80 0;
#X connect 76 0 79 0;
#X connect 77 0 78 0;
#X connect 78 0 75 0;
#X connect 78 1 32 0;
#X connect 80 0 76 0;
#X connect 80 0 83 0;
#X connect 81 0 82 0;
#X connect 82 0 89 0;
#X connect 83 0 81 0;
#X connect 83 0 84 0;
#X connect 84 0 85 0;
#X connect 85 0 19 0;
#X connect 86 0 87 0;
#X connect 87 0 82 0;
#X connect 87 1 27 0;
#X connect 88 0 90 0;
#X connect 89 0 88 0;
#X connect 89 0 93 1;
#X connect 91 0 92 0;
#X connect 93 0 91 0;
#X connect 93 0 94 0;
#X connect 94 0 18 0;
#X connect 95 0 104 0;
#X connect 96 0 95 0;
#X connect 97 0 95 0;
#X connect 98 0 97 0;
#X connect 101 0 100 0;
#X connect 101 0 102 0;
#X connect 103 0 102 0;
#X connect 104 0 101 0;
#X restore 87 133 pd sACN_Universe_Discovery_Packet;
#X obj 509 139 text define -k VECTOR_E131_EXTENDED;
#A set 1 VECTOR_E131_EXTENDED_SYNCHRONIZATION 0x00000001 DISCOVERY \; 2 VECTOR_E131_EXTENDED_DISCOVERY 0x00000002 EXTENDED \;;
#N canvas 360 118 1280 758 DMX_frame 0;
#X obj 159 92 bng 15 250 50 0 empty empty empty 17 7 0 10 #fcfcfc #000000 #000000;
#X obj 159 262 prepend send;
#X obj 159 285 sACN-send;
#X msg 438 179 connect 192 168 1 36;
#X obj 159 144 sACN_DMPLayer;
#X obj 782 340 prepend set;
#X msg 788 410 0 16 0 0 65 83 67 45 69 49 46 49 55 0 0 0 114 110 0 0 0 4 0 15 14 13 12 11 10 9 8 7 6 5 4 3 2 1 114 88 0 0 0 2 83 116 117 65 82 84 45 115 65 67 78 0 0 0 0 0 0 0 0 0 0 0 0 0 0 0 0 0 0 0 0 0 0 0 0 0 0 0 0 0 0 0 0 0 0 0 0 0 0 0 0 0 0 0 0 0 0 0 0 0 0 0 0 0 100 0 0 231 0 0 8 114 11 2 161 0 0 0 1 2 1 0 255 0 0 0 0 0 0 0 0 0 0 0 0 0 0 0 0 0 0 0 0 0 0 0 0 0 0 0 0 0 0 0 0 0 0 0 0 0 0 0 0 0 0 0 0 0 0 0 0 0 0 0 0 0 0 0 0 0 0 0 0 0 0 0 0 0 0 0 0 0 0 0 0 0 0 0 0 0 0 0 0 0 0 0 0 0 0 0 0 0 0 0 0 0 0 0 0 0 0 0 0 0 0 0 0 0 0 0 0 0 0 0 0 0 0 0 0 0 0 0 0 0 0 0 0 0 0 0 0 0 0 0 0 0 0 0 0 0 0 0 0 0 0 0 0 0 0 0 0 0 0 0 0 0 0 0 0 0 0 0 0 0 0 0 0 0 0 0 0 0 0 0 0 0 0 0 0 0 0 0 0 0 0 0 0 0 0 0 0 0 0 0 0 0 0 0 0 0 0 0 0 0 0 0 0 0 0 0 0 0 0 0 0 0 0 0 0 0 0 0 0 0 0 0 0 0 0 0 0 0 0 0 0 0 0 0 0 0 0 0 0 0 0 0 0 0 0 0 0 0 0 0 0 0 0 0 0 0 0 0 0 0 0 0 0 0 0 0 0 0 0 0 0 0 0 0 0 0 0 0 0 0 0 0 0 0 0 0 0 0 0 0 0 0 0 0 0 0 0 0 0 0 0 0 0 0 0 0 0 0 0 0 0 0 0 0 0 0 0 0 0 0 0 0 0 0 0 0 0 0 0 0 0 0 0 0 0 0 0 0 0 0 0 0 0 0 0 0 0 0 0 0 0 0 0 0 0 0 0 0 0 0 0 0 0 0 0 0 0 0 0 0 0 0 0 0 0 0 0 0 0 0 0 0 0 0 0 0 0 0 0 0 104 0 0 0 0 0 0 0 0 0 0 0 0 0 0 0 0 0 0 0 0 0 0 0 0 0 0 0 0 0 0 0 0 0 0 0 0 0 0 0 0 0 0 0 0 0 0 0 0 0 0 0 0 0 0 0 0 0 0 0 0 0 0 0 0 0 0 0 0 0 0 0 0 0 0 0 0 0 0 0 0 0 0 0 0 0 0 0 0 0 0 0 0 0 0 0 0 0 0 0 0 0 0 0 0 0 0 0 0 0 0 0 0 0 0 0 0 0 0 0;
#X obj 628 400 list length;
#X floatatom 628 423 5 0 0 0 - - - 0;
#X obj 608 290 list length;
#X floatatom 608 313 5 0 0 0 - - - 0;
#X obj 608 340 list length;
#X floatatom 608 363 5 0 0 0 - - - 0;
#X obj 520 424 -;
#X floatatom 520 447 5 0 0 0 - - - 0;
#X obj 460 434 -;
#X floatatom 460 457 5 0 0 0 - - - 0;
#X obj 159 167 sACN_DMPFramingLayer;
#X obj 589 238 list length;
#X floatatom 589 261 5 0 0 0 - - - 0;
#X msg 735 -86 0 255 0 0 0 0 0 0 0 0 0 0 0 0 0 0 0 0 0 0 0 0 0 0 0 0 0 0 0 0 0 0 0 0 0 0 0 0 0 0 0 0 0 0 0 0 0 0 0 0 0 0 0 0 0 0 0 0 0 0 0 0 0 0 0 0 0 0 0 0 0 0 0 0 0 0 0 0 0 0 0 0 0 0 0 0 0 0 0 0 0 0 0 0 0 0 0 0 0 0 0 0 0 0 0 0 0 0 0 0 0 0 0 0 0 0 0 0 0 0 0 0 0 0 0 0 0 0 0 0 0 0 0 0 0 0 0 0 0 0 0 0 0 0 0 0 0 0 0 0 0 0 0 0 0 0 0 0 0 0 0 0 0 0 0 0 0 0 0 0 0 0 0 0 0 0 0 0 0 0 0 0 0 0 0 0 0 0 0 0 0 0 0 0 0 0 0 0 0 0 0 0 0 0 0 0 0 0 0 0 0 0 0 0 0 0 0 0 0 0 0 0 0 0 0 0 0 0 0 0 0 0 0 0 0 0 0 0 0 0 0 0 0 0 0 0 0 0 0 0 0 0 0 0 0 0 0 0 0 0 0 0 0 0 0 0 0 0 0 0 0 0 0 0 0 0 0 0 0 0 0 0 0 0 0 0 0 0 0 0 0 0 0 0 0 0 0 0 0 0 0 0 0 0 0 0 0 0 0 0 0 0 0 0 0 0 0 0 0 0 0 0 0 0 0 0 0 0 0 0 0 0 0 0 0 0 0 0 0 0 0 0 0 0 0 0 0 0 0 0 0 0 0 0 0 0 0 0 0 0 0 0 0 0 0 0 0 0 0 0 0 0 0 0 0 0 0 0 0 0 0 0 0 0 0 0 0 0 0 0 0 0 0 0 0 0 0 0 0 0 0 0 0 0 0 0 0 0 0 0 0 0 0 0 0 0 0 0 0 0 0 0 0 0 0 0 0 0 0 0 0 0 0 0 0 0 0 0 0 0 0 0 0 0 0 0 0 0 0 0 0 0 0 0 0 0 0 0 0 0 0 0 0 0 0 0 0 0 0 0 0 0 0 0 0 0 0 0 0 0 0 0 0 0 0 0 0 0 0 0 0 0 0 0 0 0 0 0 0 0 0 0 0 0 0 0 0 0 0 0 0 0 0;
#X msg 1122 -249 0 0 110 110 110 110 110 110 110 110 110 110 110 110 110 110 110 110 110 110 110 110 110 110 110 110 110 110 110 110 110 110 110 110 110 110 110 110 110 110 110 110 110 110 110 110 110 110 110 110 110 110 110 110 110 110 110 110 110 110 110 110 110 110 110 110 110 110 110 110 110 110 110 110 110 110 110 110 110 110 110 110 110 110 110 110 110 110 110 110 110 110 110 110 110 110 110 110 110 110 110 110 110 110 110 110 110 110 110 110 110 110 110 110 110 110 110 110 110 110 110 110 110 110 110 110 110 110 110 110 110 110 110 110 110 110 110 110 110 110 110 110 110 110 110 110 110 110 110 110 110 110 110 110 110 110 110 110 110 110 110 110 110 110 110 110 110 110 110 110 110 110 110 110 110 110 110 110 110 110 110 110 110 110 110 110 110 110 110 216 215 110 110 110 110 110 110 110 110 110 110 110 110 110 110 110 110 110 110 110 110 215 110 0 0 0 110 110 110 110 110 110 110 110 110 110 110 110 110 110 110 110 110 110 110 110 11 110 110 110 110 110 110 110 110 110 110 110 110 110 110 110 110 110 110 110 110 110 110 110 110 110 110 110 110 110 110 110 110 110 110 110 110 110 110 110 110 110 110 110 110 110 110 110 110 110 110 110 110 110 110 110 110 110 110 110 110 110 110 110 110 110 110 110 110 110 110 110 110 110 110 110 110 110 110 110 110 110 110 110 110 110 110 110 110 110 110 110 110 110 110 110 110 110 110 110 110 110 110 110 110 110 110 110 110 110 110 110 110 110 110 110 110 110 110 110 110 110 110 110 110 110 110 110 110 110 110 110 110 110 110 110 110 110 110 110 110 110 110 110 110 110 110 110 110 110 110 110 110 110 110 110 110 110 110 110 110 110 110 110 110 110 110 110 110 110 110 110 110 110 110 110 110 110 110 110 110 110 110 110 110 110 110 110 110 110 110 110 110 110 110 110 110 110 110 110 110 110 110 110 110 110 110 110 110 110 110 110 110 110 110 110 110 110 110 110 110 110 110 110 110 110 110 110 110 110 110 110 110 110 110 110 110 110 110 110 110 110 110 110 110 110 110 110 110 110 110 110 110 110 110 110 110 110 110 110 110 110 110 110 110 0 0 0 0 0 0 0 0 0 0 0 0;
#X floatatom 352 615 20 0 0 0 - - - 0;
#X obj 268 430 bang, f 11;
#X obj 673 127 bng 15 250 50 0 empty empty empty 17 7 0 10 #fcfcfc #000000 #000000;
#X obj 683 186 list;
#X obj 683 209 t a b;
#X obj 465 542 del 1000;
#X obj 353 591 timer;
#X obj 426 557 bng 15 250 50 0 empty empty empty 17 7 0 10 #fcfcfc #000000 #000000;
#X msg 315 -126 0 255 0 0 0 0 0 0 0 0 0 0 0 0 0 0 0 0 0 0 0 0 0 0 0 0 0 0 0 0 0 0 0 0 0 0 0 0 0 0 0 0 0 0 0 0 0 0 0 0 0 0 0 0 0 0 0 0 0 0 0 0 0 0 0 0 0 0 0 0 0 0 0 0 0 0 0 0 0 0 0 0 0 0 0 0 0 0 0 0 0 0 0 0 0 0 0 0 0 0 0 0 0 0 0 0 0 0 0 0 0 0 0 0 0 0 0 0 0 0 0 0 0 0 0 0 0 0 0 0 0 0 0 0 0 0 0 0 0 0 0 0 0 0 0 0 0 0 0 0 0 0 0 0 0 0 0 0 0 0 0 0 0 0 0 0 0 0 0 0 0 0 0 0 0 0 0 0 0 0 0 0 0 0 0 0 0 0 0 0 0 0 0 0 0 0 0 0 0 0 0 0 0 0 0 0 0 0 0 0 0 0 0 0 0 0 0 0 0 0 0 0 0 0 0 0 0 0 0 0 0 0 0 0 0 0 0 0 0 0 0 0 0 0 0 0 0 0 0 0 0 0 0 0 0 0 0 0 0 0 0 0 0 0 0 0 0 0 0 0 0 0 0 0 0 0 0 0 0 0 0 0 0 0 0 0 0 0 0 0 0 0 0 0 0 0 0 0 0 0 0 0 0 0 0 0 0 0 0 0 0 0 0 0 0 0 0 0 0 0 0 0 0 0 0 0 0 0 0 0 0 0 0 0 0 0 0 0 0 0 0 0 0 0 0 0 0 0 0 0 0 0 0 0 0 0 0 0 0 0 0 0 0 0 0 0 0 0 0 0 0 0 0 0 0 0 0 0 0 0 0 0 0 0 0 0 0 0 0 0 0 0 0 \$1 0 0 0 0 0 0 0 0 0 0 0 0 0 0 0 0 0 0 0 0 0 0 0 0 0 0 0 0 0 0 0 0 0 0 0 0 0 0 0 0 0 0 0 0 0 0 0 0 0 0 0 0 0 0 0 0 0 0 0 0 0 0 0 0 0 0 0 0 0 0 0 0 0 0 0 0 0 0 0 0 0 0 0 0 0 0 0 0 0 0 0 0 0 0 0 0 0 0 0 0 0 0 0 0 0 0 0 0 0 0 0 0 0 0 0 0 0 0 0;
#X obj 211 -113 vsl 15 128 0 127 0 0 empty empty empty 0 -9 0 10 #fcfcfc #000000 #000000 0 1;
#X obj 205 602 nbx 5 14 -1e+37 1e+37 0 0 empty empty empty 0 -8 0 10 #fcfcfc #000000 #000000 0 256;
#X obj 159 189 sACN_RootLayer 4;
#X connect 0 0 4 0;
#X connect 1 0 2 0;
#X connect 3 0 2 0;
#X connect 4 0 9 0;
#X connect 4 0 17 0;
#X connect 5 0 6 0;
#X connect 7 0 8 0;
#X connect 8 0 13 0;
#X connect 9 0 10 0;
#X connect 10 0 15 1;
#X connect 11 0 12 0;
#X connect 12 0 13 1;
#X connect 12 0 15 0;
#X connect 13 0 14 0;
#X connect 15 0 16 0;
#X connect 17 0 11 0;
#X connect 17 0 33 0;
#X connect 18 0 19 0;
#X connect 20 0 25 1;
#X connect 21 0 18 0;
#X connect 21 0 25 1;
#X connect 23 0 28 1;
#X connect 24 0 25 1;
#X connect 25 0 26 0;
#X connect 26 0 4 0;
#X connect 26 1 28 0;
#X connect 27 0 28 1;
#X connect 28 0 22 0;
#X connect 28 0 32 0;
#X connect 29 0 28 1;
#X connect 30 0 25 0;
#X connect 31 0 30 0;
#X connect 33 0 5 0;
#X connect 33 0 7 0;
#X connect 33 0 23 0;
#X restore 524 225 pd DMX_frame;
#X obj 100 15 r sACN_DMX_Send_IP;
#X msg 310 225 \; sACN_DMX_Send_IP 127 0 0 1;
#X obj 652 257 sACN_DMX_Send 99 99;
#X obj 685 170 array define Universe-99;
#X connect 2 0 3 0;
