#N canvas 1043 221 768 780 10;
#X obj 101 101 cnv 5 198 38 empty \$0-cnv-Merge \$0-cnv-Merge 20 12
0 14 -99865 -260097 0;
#X msg 257 320 stop;
#X obj 104 390 counter 0 511;
#X obj 104 620 max;
#X obj 104 123 tgl 15 0 empty empty Output 18 8 0 10 -1 -260097 -260097
0 1;
#X msg 368 528 symbol Universe-\$1;
#X obj 257 604 f;
#X obj 104 567 f;
#X msg 378 565 symbol Universe-\$2;
#X obj 371 107 1;
#X obj 104 425 t f f f;
#X obj 255 470 t f f;
#X obj 255 447 1;
#X obj 104 178 t f b b b;
#X obj 252 374 0;
#X obj 409 330 bng 15 250 50 0 empty raz raz 17 7 0 10 -191407 -1 -1
;
#X obj 409 356 prepend \$0 \$1 \$2 \$2;
#X obj 409 262 prepend \$0 \$1 \$2 \$3;
#X obj 409 234 loadbang;
#X obj 398 156 prepend \$1 \$2 \$3;
#X obj 104 544 array get;
#X obj 104 655 array set;
#X obj 257 581 array get;
#X text 100 22 [Merge \$1 \$2 $M3];
#X obj 371 16 r Merge-\$3;
#X msg 409 291 \; \$1-cnv-Merge label Universe:\$2-\$3->-\$4;
#X msg 398 639 symbol Universe-\$3;
#X obj 398 179 list;
#X msg 409 379 \; \$1-cnv-Merge label #0-cnv-Merge;
#X obj 104 336 metro 0.04;
#X obj 371 84 del;
#X obj 371 38 t f b;
#X connect 1 0 29 0;
#X connect 2 0 10 0;
#X connect 3 0 21 0;
#X connect 4 0 13 0;
#X connect 5 0 20 2;
#X connect 6 0 3 1;
#X connect 7 0 3 0;
#X connect 8 0 22 2;
#X connect 9 0 4 0;
#X connect 10 0 20 0;
#X connect 10 1 22 0;
#X connect 10 2 21 1;
#X connect 11 0 20 1;
#X connect 11 1 22 1;
#X connect 12 0 11 0;
#X connect 13 0 29 0;
#X connect 13 1 12 0;
#X connect 13 2 14 0;
#X connect 13 3 1 0;
#X connect 14 0 2 3;
#X connect 15 0 16 0;
#X connect 16 0 28 0;
#X connect 17 0 25 0;
#X connect 18 0 17 0;
#X connect 19 0 27 0;
#X connect 20 0 7 0;
#X connect 22 0 6 0;
#X connect 24 0 31 0;
#X connect 26 0 21 2;
#X connect 27 0 5 0;
#X connect 27 0 26 0;
#X connect 27 0 8 0;
#X connect 29 0 2 0;
#X connect 30 0 9 0;
#X connect 31 0 30 0;
#X connect 31 1 19 0;
#X coords 0 -1 1 1 200 40 1 100 100;
