#N canvas 17 81 761 537 10;
#X obj 101 101 cnv 13 198 138 empty \$0-Scanner Scan_0:0:0 30 40 0
14 -162280 -4032 0;
#X obj 552 321 receive DMX-INPUT;
#X obj 552 346 route \$1;
#N canvas 296 295 797 458 (subpatch) 0;
#X array Universe-\$0 512 float 0;
#X coords 0 255 511 0 200 64 2 0 0;
#X restore 100 174 graph;
#X obj 552 405 array set Universe-\$0;
#X obj 503 78 bng 15 250 50 0 empty raz raz 17 7 0 10 -191407 -1 -1
;
#X obj 503 104 prepend \$0;
#X floatatom 335 34 5 0 127 0 NET #0-NET -;
#X floatatom 393 68 5 0 15 0 Universe #0-Universe -;
#X floatatom 367 51 5 0 15 0 SubNET #0-SubNET -;
#X floatatom 116 291 30 0 32767 0 Universe(0-32767) - -;
#X obj 116 326 t f f;
#X obj 116 349 div 256;
#X obj 143 373 mod 256;
#X obj 143 396 t f f;
#X obj 143 419 div 16;
#X obj 171 439 mod 16;
#X obj 171 462 s \$0-Universe;
#X obj 143 482 s \$0-SubNET;
#X obj 116 502 s \$0-NET;
#X obj 335 451 prepend \$0;
#X obj 335 241 * 256;
#X obj 417 261 * 16;
#X obj 417 291 +;
#X obj 335 307 +;
#X obj 335 330 t f f f f b;
#X obj 398 385 prepend \$0;
#X obj 20 73 text get Universes 0 1;
#X obj 252 9 r Universe_Counter;
#X obj 213 56 counter;
#X floatatom 213 79 5 0 0 0 - - -;
#X msg 127 35 inc;
#X msg 156 35 dec;
#X obj 252 32 - 1;
#X obj 105 103 tgl 15 0 empty empty Auto-Scan 20 8 0 10 -1 -4032 -4032
1 1;
#X obj 255 105 bng 18 250 50 0 empty empty + 5 10 0 15 -1 -1 -4032
;
#X obj 274 105 bng 18 250 50 0 empty empty _ 5 3 0 15 -1 -1 -4032;
#X obj 335 96 t f f;
#X obj 355 133 t b f f;
#X obj 393 160 t b b f f;
#X obj 530 220 pack f f f;
#X obj 530 243 prepend \$0;
#X msg 530 267 \; \$1-Scanner label Scan_\$2:\$3:\$4;
#X obj 185 35 metro 1000;
#X msg 398 406 \; Universe-\$1 const 0;
#X msg 503 127 \; \$1-cnv-universe label Select-Universe \; \$1-Scanner
label Scanner \; Universe-\$1 const 0;
#X floatatom 116 154 30 0 32767 0 - - -;
#X obj 101 153 cnv 15 198 20 empty \$0-cnv-universe Universe-0 30 8
0 16 -162280 -4032 0;
#X obj 105 120 tgl 15 0 View-display-dmx empty View-Outputs 17 7 0
10 -1 -4032 -4032 1 1;
#X msg 335 476 \; \$1-cnv-universe label Universe-\$2 \; Universe-\$1
const 0;
#X connect 1 0 2 0;
#X connect 2 0 4 0;
#X connect 5 0 6 0;
#X connect 6 0 45 0;
#X connect 7 0 37 0;
#X connect 8 0 39 0;
#X connect 9 0 38 0;
#X connect 10 0 11 0;
#X connect 11 0 12 0;
#X connect 11 1 13 0;
#X connect 12 0 19 0;
#X connect 13 0 14 0;
#X connect 14 0 15 0;
#X connect 14 1 16 0;
#X connect 15 0 18 0;
#X connect 16 0 17 0;
#X connect 20 0 49 0;
#X connect 21 0 24 0;
#X connect 22 0 23 0;
#X connect 23 0 24 1;
#X connect 24 0 25 0;
#X connect 25 0 20 0;
#X connect 25 1 2 1;
#X connect 25 4 26 0;
#X connect 26 0 44 0;
#X connect 27 0 10 0;
#X connect 28 0 33 0;
#X connect 29 0 30 0;
#X connect 29 0 27 0;
#X connect 31 0 29 0;
#X connect 32 0 29 0;
#X connect 33 0 29 4;
#X connect 34 0 43 0;
#X connect 35 0 31 0;
#X connect 36 0 32 0;
#X connect 37 0 21 0;
#X connect 37 1 40 0;
#X connect 38 0 21 0;
#X connect 38 1 22 0;
#X connect 38 2 40 1;
#X connect 39 0 21 0;
#X connect 39 1 22 0;
#X connect 39 2 23 1;
#X connect 39 3 40 2;
#X connect 40 0 41 0;
#X connect 41 0 42 0;
#X connect 43 0 29 0;
#X coords 0 -1 1 1 200 140 1 100 100;
