#N canvas 72 231 1436 849 10;
#X obj 101 101 cnv 15 198 78 empty empty OpDmx_encoder 4 8 0 10 -4032
-260097 0;
#X floatatom 1018 197 5 2 512 0 lenght_(2-512) - -;
#X obj 1018 221 t a a;
#X floatatom 1018 321 5 0 0 0 - - -;
#X obj 1018 296 div 256;
#X floatatom 1050 271 5 0 0 0 - - -;
#X obj 1050 246 mod 256;
#X obj 1018 345 pack;
#X msg 1018 424 append 0 160;
#X floatatom 218 108 5 0 127 1 Net - -;
#X floatatom 218 125 5 0 15 1 SubNet - -;
#X floatatom 218 142 5 0 15 1 Universe - -;
#X floatatom 848 327 5 0 0 1 Universe(0-255) - -;
#X floatatom 1133 124 5 0 32767 0 Universe(0-32767) - -;
#X obj 1133 146 t f f;
#X obj 1133 169 t f f;
#X obj 1133 192 div 256;
#X obj 1160 216 mod 256;
#X obj 1160 239 t f f;
#X obj 1160 262 div 16;
#X obj 1188 322 mod 16;
#X msg 1188 345 set \$1;
#X msg 1160 285 set \$1;
#X obj 870 249 t b f;
#X obj 848 271 * 16;
#X obj 848 294 +;
#X msg 848 424 append 1;
#X msg 748 424 append 17;
#X msg 748 351 set append \$1;
#X msg 848 347 set append \$1;
#X obj 1018 399 prepend set append;
#X msg 437 424 append 65 114 116 45 78 101 116 0 0 80 0 14 0 0;
#X obj 347 440 list store;
#X obj 366 238 t b b b b b;
#X obj 102 123 bng 15 250 50 0 empty empty Update_Header 17 7 0 10
-159808 -1 -1;
#X obj 374 500 prepend set;
#X obj 347 205 t b b b;
#X obj 378 307 bng 15 250 50 0 empty empty empty 17 7 0 10 -262144
-1 -1;
#X msg 1108 454 append 0;
#X obj 278 21 inlet;
#X obj 278 500 list prepend;
#X obj 347 463 t a a;
#X obj 129 11 loadbang;
#X msg 374 523 65 114 116 45 78 101 116 0 0 80 0 14 0 0 17 1 0 160
;
#X msg 483 504 set;
#X obj 100 160 Art-Net-Send;
#X obj 661 31 inlet;
#X text 703 30 |connect i i i i(;
#X obj 403 21 inlet;
#X obj 403 44 t b a;
#X text 402 1 |i i i( net sub U;
#X obj 278 249 t a a;
#X obj 991 52 list length;
#X obj 991 75 change;
#X obj 991 98 t b f;
#X msg 428 67 \$1 \$2 \$3;
#X obj 129 76 unpack f f f;
#X obj 129 53 \$1 \$2 \$3;
#X obj 450 18 r OpDmx_encoder_universe;
#X obj 661 80 r OpDmx_encoder_IP_cible;
#X obj 661 57 s OpDmx_encoder_IP_cible;
#X connect 1 0 2 0;
#X connect 2 0 4 0;
#X connect 2 1 6 0;
#X connect 3 0 7 0;
#X connect 4 0 3 0;
#X connect 5 0 7 1;
#X connect 6 0 5 0;
#X connect 7 0 30 0;
#X connect 8 0 32 0;
#X connect 9 0 28 0;
#X connect 10 0 24 0;
#X connect 11 0 23 0;
#X connect 12 0 29 0;
#X connect 13 0 14 0;
#X connect 14 0 15 0;
#X connect 15 0 16 0;
#X connect 15 1 17 0;
#X connect 16 0 9 0;
#X connect 17 0 18 0;
#X connect 17 0 12 0;
#X connect 18 0 19 0;
#X connect 18 1 20 0;
#X connect 19 0 22 0;
#X connect 20 0 21 0;
#X connect 21 0 11 0;
#X connect 22 0 10 0;
#X connect 23 0 24 0;
#X connect 23 1 25 1;
#X connect 24 0 25 0;
#X connect 25 0 12 0;
#X connect 26 0 32 0;
#X connect 27 0 32 0;
#X connect 28 0 26 0;
#X connect 29 0 27 0;
#X connect 30 0 8 0;
#X connect 31 0 32 0;
#X connect 32 0 41 0;
#X connect 33 0 38 0;
#X connect 33 1 8 0;
#X connect 33 2 26 0;
#X connect 33 3 27 0;
#X connect 33 4 31 0;
#X connect 34 0 36 0;
#X connect 35 0 43 0;
#X connect 36 0 32 0;
#X connect 36 1 33 0;
#X connect 36 2 32 1;
#X connect 37 0 32 0;
#X connect 39 0 51 0;
#X connect 40 0 45 0;
#X connect 41 0 40 1;
#X connect 41 1 35 0;
#X connect 42 0 57 0;
#X connect 44 0 43 0;
#X connect 46 0 60 0;
#X connect 48 0 49 0;
#X connect 49 0 34 0;
#X connect 49 1 55 0;
#X connect 51 0 40 0;
#X connect 51 1 52 0;
#X connect 52 0 53 0;
#X connect 53 0 54 0;
#X connect 54 0 34 0;
#X connect 54 1 1 0;
#X connect 55 0 56 0;
#X connect 56 0 9 0;
#X connect 56 1 10 0;
#X connect 56 2 11 0;
#X connect 57 0 56 0;
#X connect 58 0 49 0;
#X connect 59 0 45 0;
#X coords 0 -1 1 1 200 80 1 100 100;
