#N canvas 340 126 822 835 10;
#X obj 96 60 r OpDmx_IN;
#X obj 96 85 list split 4;
#X obj 197 197 list split 1;
#X obj 237 243 list split 2;
#N canvas 275 352 450 300 length 0;
#X obj 102 52 inlet;
#X obj 102 77 unpack;
#X obj 102 100 * 256;
#X obj 102 123 +;
#X obj 102 152 outlet;
#X connect 0 0 1 0;
#X connect 1 0 2 0;
#X connect 1 1 3 1;
#X connect 2 0 3 0;
#X connect 3 0 4 0;
#X coords 0 300 1 299 90 30 0;
#X restore 237 277 pd length;
#X floatatom 281 408 5 0 0 1 Net_0-127 - -;
#X obj 130 167 list split 1;
#X obj 401 601 cnv 15 198 58 empty empty empty 20 12 0 14 -162280 -66577
0;
#X obj 130 634 route -1;
#X msg 330 711 clear;
#X obj 130 659 counter;
#X obj 130 712 bang;
#X obj 402 604 bng 15 250 50 0 empty empty Open_Universes_List 17 7
0 10 -4034 -4032 -1;
#X msg 402 697 click;
#X floatatom 402 639 3 0 0 1 Universe_Counter - Universe_Counter;
#X obj 402 622 bng 15 250 50 0 empty empty Clear_Universes_List 17
7 0 10 -258113 -257985 -1;
#X obj 330 665 t b b;
#X obj 402 728 text define Universes;
#X obj 130 764 text set Universes;
#X obj 130 342 +;
#X obj 145 314 * 256;
#X floatatom 260 389 5 0 0 1 Universe(0-32768) - -;
#X floatatom 303 427 5 0 0 1 SubNET - -;
#X obj 147 277 div 16;
#X obj 130 125 list split 4;
#X obj 164 247 mod 16;
#X floatatom 325 446 5 0 0 1 Universe(0-15) - -;
#X floatatom 347 465 5 0 0 1 Universe(0-255) - -;
#X obj 130 197 t f f f f;
#X obj 197 222 t f f;
#X obj 130 684 t a a;
#X obj 130 738 list;
#X obj 130 523 pack f f f f f f;
#X obj 130 367 t f f;
#X obj 130 452 spigot;
#X obj 542 604 tgl 15 0 empty empty Listen 17 7 0 10 -257985 -260097
-1 1 1;
#X obj 442 408 send DMX-INPUT;
#X obj 442 428 receive DMX-INPUT;
#X obj 442 383 list append;
#X obj 130 609 text search Universes 0;
#X obj 130 553 t f a;
#X obj 250 798 print Universe;
#X obj 542 545 loadbang;
#X connect 0 0 1 0;
#X connect 1 1 24 0;
#X connect 2 0 29 0;
#X connect 2 1 3 0;
#X connect 3 0 4 0;
#X connect 4 0 32 5;
#X connect 5 0 32 1;
#X connect 6 0 28 0;
#X connect 6 1 2 0;
#X connect 8 0 10 0;
#X connect 8 1 18 1;
#X connect 9 0 17 0;
#X connect 10 0 14 0;
#X connect 10 0 30 0;
#X connect 11 0 31 0;
#X connect 12 0 13 0;
#X connect 13 0 17 0;
#X connect 15 0 16 0;
#X connect 16 0 9 0;
#X connect 16 1 10 3;
#X connect 19 0 33 0;
#X connect 20 0 19 1;
#X connect 21 0 32 0;
#X connect 22 0 32 2;
#X connect 23 0 32 2;
#X connect 24 0 6 0;
#X connect 24 1 38 1;
#X connect 25 0 32 3;
#X connect 26 0 32 3;
#X connect 27 0 32 4;
#X connect 28 0 19 0;
#X connect 28 1 23 0;
#X connect 28 2 25 0;
#X connect 28 3 32 4;
#X connect 29 0 20 0;
#X connect 29 1 32 1;
#X connect 30 0 11 0;
#X connect 30 1 18 1;
#X connect 31 0 18 0;
#X connect 31 0 41 0;
#X connect 32 0 40 0;
#X connect 33 0 34 0;
#X connect 33 1 38 0;
#X connect 34 0 32 0;
#X connect 35 0 34 1;
#X connect 38 0 36 0;
#X connect 39 0 8 0;
#X connect 40 0 39 0;
#X connect 40 1 31 1;
#X connect 42 0 35 0;
#X coords 0 -1 1 1 200 60 2 400 600;
