#N canvas 799 204 862 805 10;
#X obj 49 500 cnv 15 799 39 empty cnv-\$0 aplayer-1-==killall 5 8 1
12 -233017 -66577 0;
#X obj 760 27 cnv 15 100 60 empty empty empty 20 12 0 14 -233017 -66577
0;
#X obj 770 37 cnv 15 100 60 empty empty empty 20 12 0 14 -233017 -66577
0;
#X obj 780 47 cnv 15 100 60 empty empty empty 20 12 0 14 -233017 -66577
0;
#X obj 790 57 cnv 15 100 60 empty empty empty 20 12 0 14 -233017 -66577
0;
#X obj 210 218 openpanel;
#X obj 210 196 bng 15 250 50 0 empty open-\$0 open-\$0 17 7 0 10 -260097
-4034 -1;
#X obj 210 295 cyclone/prepend;
#X obj 210 241 t b a;
#X obj 210 264 symbol &;
#X obj 455 302 int;
#X msg 455 328 amixer -c 0 set PCM \$1% &;
#X msg 114 297 killall aplay;
#X obj 114 276 bng 15 250 50 0 empty Kill\$0 Kill\$0 17 7 0 10 -258113
-262144 -1;
#X obj 50 196 r APLAYER;
#X msg 299 430 amixer -c 0 set PCM 0% &;
#X msg 299 450 amixer -c 0 set PCM 80% &;
#X msg 299 470 amixer -c 0 set PCM 100% &;
#X msg 299 410 killall aplay;
#X msg 299 390 aplay /home/pi/Music/ONAVIO-LGQNPP/Aimer_les_monstres.wav
&;
#X msg 50 59 \; APLAYER aplay /home/pi/Music/ONAVIO-LGQNPP/Aimer_les_monstres.wav
& \;, f 83;
#X msg 50 91 \; APLAYER amixer -c 0 set PCM 0% & \; APLAYER amixer
-c 0 set PCM 80% & \; APLAYER amixer -c 0 set PCM 100% &;
#X msg 50 145 \; APLAYER killall aplay \;;
#X obj 50 484 t a a a;
#X obj 248 747 send to_cue;
#X obj 407 690 tgl 15 0 empty toggle_rec_aplay-\$0 toggle_rec_aplay-\$0
17 7 0 10 -257985 -260097 -1 0 1;
#X obj 374 716 spigot;
#X obj 248 717 cyclone/prepend;
#X obj 248 685 bng 15 250 50 0 empty Store_aplay-\$0 Store_aplay-\$0
17 7 0 10 -258113 -4034 -1;
#X obj 83 683 tgl 15 0 empty toggle_out_aplay-\$0 toggle_out_aplay-\$0
17 7 0 10 -260097 -262130 -1 0 1;
#X obj 50 710 spigot;
#X obj 441 521 tgl 15 0 toggle_rec_aplay-\$0 toggle_rec_aplay-\$1-
toggle_rec_aplay-\$1- 16 7 0 10 -257985 -260097 -1 0 1;
#X obj 573 521 bng 15 250 50 0 Store_aplay-\$0 Store_aplay Store_aplay
16 7 0 10 -258113 -4034 -1;
#X obj 310 521 tgl 15 0 toggle_out_aplay-\$0 toggle_out_aplay-\$1-
toggle_out_aplay-\$1- 16 7 0 10 -260097 -262130 -1 0 1;
#X obj 159 521 bng 15 250 50 0 open-\$0 empty open 17 7 0 10 -260097
-4034 -1;
#X obj 209 521 bng 15 250 50 0 Kill\$0 empty Kill 17 7 0 10 -258113
-262144 -1;
#X floatatom 455 277 5 0 100 1 dB-#0 dB-#0 -;
#X floatatom 262 521 5 0 100 1 dB - dB-#0;
#X obj 729 610 ggee/shell;
#X obj 649 562 spigot;
#X obj 762 505 tgl 15 0 empty PrintM PrintM 17 7 0 10 -191407 -1 -1
0 1;
#X obj 653 584 print PLAYER;
#X obj 762 521 tgl 15 1 empty OUT-PLAYER-\$1- OUT-PLAYER-\$1- 17 7
0 8 -258113 -4034 -1 1 1;
#X obj 729 563 spigot;
#X obj 577 620 symbol;
#X obj 319 570 cyclone/prepend \$1;
#X obj 319 591 cyclone/prepend \$0;
#X obj 50 744 s to_control_aplay;
#X obj 729 450 r aplay-\$1;
#X msg 319 622 \; cnv-\$1 label aplay-\$2-==\$3 \;;
#X obj 50 341 cyclone/prepend aplay-\$1;
#X obj 210 324 cyclone/prepend aplay-\$1 aplay;
#X obj 455 353 cyclone/prepend aplay-\$1;
#X connect 5 0 8 0;
#X connect 6 0 5 0;
#X connect 7 0 51 0;
#X connect 8 0 9 0;
#X connect 8 1 7 1;
#X connect 8 1 44 0;
#X connect 9 0 7 0;
#X connect 10 0 11 0;
#X connect 11 0 52 0;
#X connect 12 0 44 0;
#X connect 12 0 50 0;
#X connect 13 0 12 0;
#X connect 13 0 50 0;
#X connect 14 0 50 0;
#X connect 15 0 50 0;
#X connect 16 0 50 0;
#X connect 17 0 50 0;
#X connect 18 0 50 0;
#X connect 19 0 50 0;
#X connect 20 0 50 0;
#X connect 21 0 50 0;
#X connect 22 0 50 0;
#X connect 23 0 30 0;
#X connect 23 1 27 1;
#X connect 23 2 26 0;
#X connect 25 0 26 1;
#X connect 26 0 24 0;
#X connect 27 0 24 0;
#X connect 28 0 27 0;
#X connect 29 0 30 1;
#X connect 30 0 47 0;
#X connect 36 0 10 0;
#X connect 39 0 41 0;
#X connect 40 0 39 1;
#X connect 42 0 43 1;
#X connect 43 0 38 0;
#X connect 44 0 45 0;
#X connect 45 0 46 0;
#X connect 46 0 49 0;
#X connect 48 0 39 0;
#X connect 48 0 43 0;
#X connect 48 0 44 0;
#X connect 50 0 23 0;
#X connect 51 0 23 0;
#X connect 52 0 23 0;
#X coords 0 -1 1 1 800 40 1 50 500;
