#N canvas 255 152 942 805 10;
#X obj 50 500 cnv 15 799 39 empty cnv-\$0 aplay-\$1 5 8 1 14 -191407
-233017 0;
#X obj 760 27 cnv 15 100 60 empty empty empty 20 12 0 14 -233017 -66577
0;
#X obj 770 37 cnv 15 100 60 empty empty empty 20 12 0 14 -233017 -66577
0;
#X obj 780 47 cnv 15 100 60 empty empty empty 20 12 0 14 -233017 -66577
0;
#X obj 790 57 cnv 15 100 60 empty empty empty 20 12 0 14 -233017 -66577
0;
#X obj 272 215 openpanel;
#X obj 272 193 bng 15 250 50 0 empty open-\$0 open-\$0 17 7 0 10 -260097
-4034 -1;
#X obj 272 292 cyclone/prepend;
#X obj 272 238 t b a;
#X obj 272 261 symbol &;
#X obj 493 297 int;
#X msg 493 323 amixer -c 0 set PCM \$1% &;
#X msg 133 256 killall aplay;
#X obj 133 235 bng 15 250 50 0 empty Kill\$0 Kill\$0 17 7 0 10 -258113
-262144 -1;
#X obj 67 194 r APLAYER;
#X msg 459 174 amixer -c 0 set PCM 0% &;
#X msg 459 194 amixer -c 0 set PCM 80% &;
#X msg 459 214 amixer -c 0 set PCM 100% &;
#X msg 459 154 killall aplay;
#X msg 459 134 aplay /home/pi/Music/ONAVIO-LGQNPP/Aimer_les_monstres.wav
&;
#X msg 50 59 \; APLAYER aplay /home/pi/Music/ONAVIO-LGQNPP/Aimer_les_monstres.wav
& \;, f 83;
#X msg 50 91 \; APLAYER amixer -c 0 set PCM 0% & \; APLAYER amixer
-c 0 set PCM 80% & \; APLAYER amixer -c 0 set PCM 100% &;
#X msg 50 145 \; APLAYER killall aplay \;;
#X obj 50 484 t a a a;
#X obj 248 747 send to_cue;
#X obj 407 690 tgl 15 0 empty toggle_rec_aplay-\$0 toggle_rec_aplay-\$0
17 7 0 10 -257985 -260097 -1 0 1;
#X obj 374 716 spigot;
#X obj 248 717 cyclone/prepend;
#X obj 248 685 bng 15 250 50 0 empty Store_aplay-\$0 Store_aplay-\$0
17 7 0 10 -258113 -4034 -1;
#X obj 83 683 tgl 15 0 empty toggle_out_aplay-\$0 toggle_out_aplay-\$0
17 7 0 10 -260097 -262130 -1 0 1;
#X obj 50 710 spigot;
#X obj 441 521 tgl 15 0 toggle_rec_aplay-\$0 toggle_rec_aplay-\$1-
toggle_rec_aplay-\$1- 16 7 0 10 -257985 -260097 -1 0 1;
#X obj 573 521 bng 15 250 50 0 Store_aplay-\$0 Store_aplay Store_aplay
16 7 0 10 -258113 -4034 -1;
#X obj 310 521 tgl 15 0 toggle_out_aplay-\$0 toggle_out_aplay-\$1-
toggle_out_aplay-\$1- 16 7 0 10 -260097 -262130 -1 0 1;
#X obj 159 521 bng 15 250 50 0 open-\$0 empty open 17 7 0 10 -260097
-4034 -1;
#X obj 209 521 bng 15 250 50 0 Kill\$0 empty Kill 17 7 0 10 -258113
-262144 -1;
#X floatatom 493 272 5 0 100 1 dB-#0 dB-#0 -;
#X floatatom 262 521 5 0 100 1 dB - dB-#0;
#X obj 729 610 ggee/shell;
#X obj 649 562 spigot;
#X obj 762 505 tgl 15 0 empty PrintM PrintM 17 7 0 10 -191407 -1 -1
0 1;
#X obj 762 521 tgl 15 1 empty OUT-PLAYER-\$1- OUT-PLAYER-\$1- 17 7
0 8 -258113 -4034 -1 0 1;
#X obj 729 563 spigot;
#X obj 577 658 cyclone/prepend \$1;
#X obj 577 679 cyclone/prepend \$0;
#X obj 50 744 s to_control_aplay;
#X obj 729 350 r aplay-\$1;
#X obj 50 341 cyclone/prepend aplay-\$1;
#X obj 272 321 cyclone/prepend aplay-\$1 aplay;
#X obj 493 348 cyclone/prepend aplay-\$1;
#X obj 653 584 print aplay-\$1;
#X obj 262 429 * 100;
#X obj 262 471 int;
#X obj 262 450 / 127;
#X obj 159 388 r open_aplay_remote-\$1;
#X obj 262 408 r level_aplay-\$1;
#X obj 59 518 bng 15 250 50 0 empty empty empty 17 7 0 10 -262144 -1
-1;
#X obj 749 403 delay \$2;
#X obj 749 373 t b a;
#X obj 749 436 list;
#X obj 84 594 cyclone/prepend;
#X obj 577 620 list;
#X msg 577 710 \; cnv-\$1 label aplay-\$2-==\$4 \; cnv-\$1 color 18
0 40 \;;
#X obj 67 626 cyclone/prepend aplay-\$1;
#X obj 272 344 cyclone/prepend aplay;
#X obj 84 656 print WTF-aplay-\$1;
#X connect 5 0 8 0;
#X connect 6 0 5 0;
#X connect 7 0 48 0;
#X connect 8 0 9 0;
#X connect 8 1 7 1;
#X connect 8 1 61 0;
#X connect 9 0 7 0;
#X connect 10 0 11 0;
#X connect 11 0 49 0;
#X connect 12 0 47 0;
#X connect 12 0 61 0;
#X connect 13 0 12 0;
#X connect 14 0 47 0;
#X connect 15 0 47 0;
#X connect 16 0 47 0;
#X connect 17 0 47 0;
#X connect 18 0 47 0;
#X connect 19 0 47 0;
#X connect 20 0 47 0;
#X connect 21 0 47 0;
#X connect 22 0 47 0;
#X connect 23 0 30 0;
#X connect 23 1 27 1;
#X connect 23 2 26 0;
#X connect 25 0 26 1;
#X connect 26 0 24 0;
#X connect 27 0 24 0;
#X connect 28 0 27 0;
#X connect 29 0 30 1;
#X connect 30 0 45 0;
#X connect 36 0 10 0;
#X connect 39 0 50 0;
#X connect 40 0 39 1;
#X connect 41 0 42 1;
#X connect 42 0 38 0;
#X connect 43 0 44 0;
#X connect 44 0 62 0;
#X connect 46 0 39 0;
#X connect 46 0 42 0;
#X connect 46 0 60 1;
#X connect 46 0 61 0;
#X connect 46 0 65 0;
#X connect 47 0 23 0;
#X connect 48 0 23 0;
#X connect 48 0 64 0;
#X connect 49 0 23 0;
#X connect 51 0 53 0;
#X connect 52 0 37 0;
#X connect 53 0 52 0;
#X connect 54 0 34 0;
#X connect 55 0 51 0;
#X connect 56 0 60 0;
#X connect 57 0 59 0;
#X connect 58 0 57 0;
#X connect 58 1 59 1;
#X connect 59 0 42 0;
#X connect 60 0 63 0;
#X connect 61 0 43 0;
#X connect 63 0 30 0;
#X connect 63 0 65 0;
#X connect 64 0 60 1;
#X coords 0 -1 1 1 800 40 1 50 500;
