#N canvas 503 452 450 300 10;
#X obj 103 238 ggee/shell;
#X obj 69 166 spigot;
#X obj 102 139 tgl 15 0 empty PrintM PrintM 17 7 0 10 -191407 -1 -1
0 1;
#X obj 73 188 print PLAYER;
#X obj 85 30 r aplay-\$1;
#X obj 102 120 tgl 15 1 empty OUT-PLAYER-\$1- OUT-PLAYER-\$1- 17 7
0 8 -260097 -4034 -1 1 1;
#X obj 149 167 spigot;
#X connect 1 0 3 0;
#X connect 2 0 1 1;
#X connect 4 0 1 0;
#X connect 4 0 6 0;
#X connect 5 0 6 1;
#X connect 6 0 0 0;
#X coords 0 -1 1 1 85 60 1 100 100;
