#N canvas -21 157 976 615 10;
#X obj 100 100 cnv 15 199 60 empty empty gpio_\$2 20 6 1 10 -203904
-66577 0;
#X obj 245 139 bng 15 250 50 0 empty init_gpio_\$2 init 17 7 0 10 -204800
-1 -1;
#X msg 631 192 gpio mode \$1 out;
#X obj 631 171 \$1;
#X obj 631 243 ggee/shell;
#X obj 138 411 send to_cue;
#X obj 103 127 tgl 15 0 empty toggle_rec_gpio_\$2 toggle_rec 17 7 0
10 -257985 -260097 -1 1 1;
#X obj 228 374 spigot;
#X obj 125 374 cyclone/prepend;
#X obj 103 142 bng 15 250 50 0 empty Store_gpio_\$2 Store 17 7 0 10
-258113 -4034 -1;
#X obj 103 111 tgl 15 0 empty toggle_out_gpio_\$2 toggle_out 17 7 0
10 -260097 -262130 -1 1 1;
#X obj 28 373 spigot;
#X obj 30 411 s to_control_gpio;
#X obj 190 106 tgl 40 1 empty empty \$1 10 21 0 20 -1 -1 -258699 1
1;
#X obj 195 55 r i-\$0;
#X msg 500 198 gpio write \$1 \$2;
#X obj 500 167 prepend \$1;
#X obj 473 273 spigot;
#X obj 518 274 spigot;
#X obj 473 222 t f f f;
#X obj 473 294 bang;
#X obj 518 296 bang;
#X obj 518 318 \$0;
#X obj 473 317 \$0;
#X obj 515 249 == 0;
#X obj 551 249 == 1;
#X msg 518 339 \; i-\$1 color 22 22 13;
#X msg 473 372 \; i-\$1 color 12 13 16;
#X obj 473 81 t a a;
#X obj 473 249 t f f;
#X obj 155 227 t a a a a;
#X obj 355 483 ggee/shell;
#X obj 247 453 spigot;
#X obj 245 107 tgl 15 0 empty PrintM PrintM 17 7 1 10 -191407 -1 -1
0 1;
#X obj 245 123 tgl 15 1 empty OUT_gpio_\$2 OUT 17 7 1 8 -258113 -4034
-1 1 1;
#X obj 355 436 spigot;
#X obj 248 475 print gpio_\$2;
#X obj 155 205 cyclone/prepend gpio_\$2;
#X obj 473 60 r gpio_\$2;
#X msg 724 496 12V 1 1 1 1;
#X obj 724 517 list;
#X msg 724 541 \; toggle_rec_gpio_\$1 \$2 \; toggle_out_gpio_\$1 \$3
\; OUT_gpio_\$1 \$4 \; init_gpio_\$1 \$5 \;, f 35;
#X obj 287 51 r GPIO-\$2;
#X connect 1 0 3 0;
#X connect 2 0 4 0;
#X connect 3 0 2 0;
#X connect 6 0 7 1;
#X connect 7 0 5 0;
#X connect 8 0 5 0;
#X connect 9 0 8 0;
#X connect 10 0 11 1;
#X connect 11 0 12 0;
#X connect 13 0 37 0;
#X connect 14 0 13 0;
#X connect 15 0 35 0;
#X connect 15 0 32 0;
#X connect 16 0 15 0;
#X connect 17 0 20 0;
#X connect 18 0 21 0;
#X connect 19 0 29 0;
#X connect 19 1 24 0;
#X connect 19 2 25 0;
#X connect 20 0 23 0;
#X connect 21 0 22 0;
#X connect 22 0 26 0;
#X connect 23 0 27 0;
#X connect 24 0 17 1;
#X connect 25 0 18 1;
#X connect 28 0 19 0;
#X connect 28 1 16 0;
#X connect 29 0 17 0;
#X connect 29 1 18 0;
#X connect 30 0 11 0;
#X connect 30 1 8 1;
#X connect 30 2 7 0;
#X connect 32 0 36 0;
#X connect 33 0 32 1;
#X connect 34 0 35 1;
#X connect 35 0 31 0;
#X connect 37 0 30 0;
#X connect 38 0 28 0;
#X connect 39 0 40 0;
#X connect 40 0 41 0;
#X connect 42 0 13 0;
#X coords 0 -1 1 1 200 60 1 100 100;
