#N canvas 894 356 976 615 10;
#X obj 100 100 cnv 15 199 60 empty empty gpio_\$2 20 6 1 10 -260097
-66577 0;
#X obj 631 75 bng 15 250 50 0 empty init_gpio_\$0 init_gpio_\$0 17
7 0 10 -204800 -1 -1;
#X obj 631 201 \$1;
#X obj 631 243 ggee/shell;
#X obj 190 106 tgl 40 1 empty empty \$1 10 21 0 20 -1 -1 -258699 0
1;
#X obj 190 55 r i-\$0;
#X msg 500 138 gpio write \$1 \$2;
#X obj 500 117 prepend \$1;
#X obj 473 390 spigot;
#X obj 518 391 spigot;
#X obj 473 299 t f f f;
#X obj 473 411 bang;
#X obj 518 413 bang;
#X obj 518 435 \$0;
#X obj 473 434 \$0;
#X obj 506 326 == 0;
#X obj 551 326 == 1;
#X msg 518 456 \; i-\$1 color 22 22 13;
#X msg 473 489 \; i-\$1 color 12 13 16;
#X obj 473 81 t a a;
#X obj 473 356 t f f;
#X obj 355 483 ggee/shell;
#X obj 247 453 spigot;
#X obj 245 107 tgl 15 0 empty PrintM PrintM 17 7 1 10 -191407 -1 -1
0 1;
#X obj 245 123 tgl 15 1 empty OUT_gpio_\$2 OUT 17 7 1 8 -258113 -4034
-1 1 1;
#X obj 355 436 spigot;
#X obj 248 475 print gpio_\$2;
#X obj 473 60 r gpio_\$2;
#X msg 724 496 12V 1 1 1 1;
#X obj 724 517 list;
#X msg 724 541 \; toggle_rec_gpio_\$1 \$2 \; toggle_out_gpio_\$1 \$3
\; OUT_gpio_\$1 \$4 \; init_gpio_\$1 \$5 \;, f 35;
#X msg 631 222 gpio mode \$1 up;
#X obj 781 171 \$1;
#X msg 781 192 gpio read \$1;
#X obj 781 132 bng 15 250 50 0 empty empty empty 17 7 0 10 -262144
-1 -1;
#X floatatom 631 270 5 0 0 0 - - -;
#X obj 245 145 bng 15 250 50 0 init_gpio_\$0 init_gpio_\$2 init 17
7 0 10 -204800 -1 -1;
#X obj 781 149 metro \$3;
#X obj 631 95 t b b;
#X obj 658 116 delay 1000;
#X obj 631 312 select 1;
#X obj 631 292 change;
#X msg 631 358 \$1 1;
#X obj 631 335 symbol \$2;
#X obj 631 381 prepend /go-XBEE;
#X obj 631 418 s TO_CONTROL_Xbee;
#X connect 1 0 38 0;
#X connect 2 0 31 0;
#X connect 3 0 35 0;
#X connect 5 0 4 0;
#X connect 6 0 25 0;
#X connect 6 0 22 0;
#X connect 7 0 6 0;
#X connect 8 0 11 0;
#X connect 9 0 12 0;
#X connect 10 0 20 0;
#X connect 10 1 15 0;
#X connect 10 2 16 0;
#X connect 11 0 14 0;
#X connect 12 0 13 0;
#X connect 13 0 17 0;
#X connect 14 0 18 0;
#X connect 15 0 8 1;
#X connect 16 0 9 1;
#X connect 19 0 10 0;
#X connect 19 1 7 0;
#X connect 20 0 8 0;
#X connect 20 1 9 0;
#X connect 22 0 26 0;
#X connect 23 0 22 1;
#X connect 24 0 25 1;
#X connect 25 0 21 0;
#X connect 27 0 19 0;
#X connect 28 0 29 0;
#X connect 29 0 30 0;
#X connect 31 0 3 0;
#X connect 32 0 33 0;
#X connect 33 0 3 0;
#X connect 34 0 37 0;
#X connect 35 0 10 0;
#X connect 35 0 41 0;
#X connect 37 0 32 0;
#X connect 38 0 2 0;
#X connect 38 1 39 0;
#X connect 39 0 34 0;
#X connect 40 0 43 0;
#X connect 41 0 40 0;
#X connect 42 0 44 0;
#X connect 43 0 42 0;
#X connect 44 0 45 0;
#X coords 0 -1 1 1 200 60 1 100 100;
