#N canvas 1 85 1665 966 10;
#X obj 100 160 cnv 15 400 60 empty empty AUDIO 20 12 0 14 -262130 -4160
0;
#X obj 424 185 tgl 15 0 AUDIO-XBee_\$0 AUDIO-XBee AUDIO-XBee 17 7 0
10 -204786 -159808 -1 0 1;
#X obj 424 200 tgl 15 0 AUDIO-OSC_\$0 AUDIO-OSC AUDIO-OSC 17 7 0 10
-204786 -159808 -1 0 1;
#X obj 103 296 r from_player_Stereo;
#X obj 109 553 s to_player_Stereo;
#X obj 109 506 OSC/OSCreceiver 8889 temp_player_Stereo;
#X obj 814 544 s to_player_Stereo_remote;
#X obj 409 344 spigot;
#X obj 448 323 tgl 15 0 empty AUDIO-XBee_\$0 AUDIO-XBee_\$0 17 7 0
10 -204786 -159808 -1 0 1;
#X obj 103 344 spigot;
#X obj 142 323 tgl 15 0 empty AUDIO-OSC_\$0 AUDIO-OSC_\$0 17 7 0 10
-204786 -159808 -1 0 1;
#X obj 409 367 send XBEE-String_Input;
#X obj 609 344 spigot;
#X obj 648 323 tgl 15 0 empty AUDIO-Local_\$0 AUDIO-Local_\$0 17 7
0 10 -204786 -159808 -1 0 1;
#X obj 424 170 tgl 15 0 AUDIO-Local_\$0 AUDIO-Local AUDIO-Local 17
7 0 10 -204786 -159808 -1 0 1;
#X obj 1122 323 spigot;
#X obj 1161 302 tgl 15 0 empty AUDIO-XBee_\$0 AUDIO-XBee_\$0 17 7 0
10 -204786 -159808 -1 0 1;
#X obj 816 323 spigot;
#X obj 855 302 tgl 15 0 empty AUDIO-OSC_\$0 AUDIO-OSC_\$0 17 7 0 10
-204786 -159808 -1 0 1;
#X obj 1122 346 send XBEE-String_Input;
#X obj 1322 323 spigot;
#X obj 1361 302 tgl 15 0 empty AUDIO-Local_\$0 AUDIO-Local_\$0 17 7
0 10 -204786 -159808 -1 0 1;
#X obj 816 275 r from_player_Stereo_remote;
#X obj 816 424 OSC/OSCsender 127.0.0.1 8889 temp_player_Stereo_remote
;
#X obj 103 436 OSC/OSCsender 127.0.0.1 8888 temp_player_Stereo;
#X symbolatom 156 184 20 0 0 0 IP - -;
#X floatatom 156 200 5 0 0 0 port1 - -;
#X floatatom 261 200 5 0 0 0 port2 - -;
#X obj 814 497 OSC/OSCreceiver 8888 temp_player_Stereo_remote;
#X msg 156 119 symbol \$1;
#X msg 166 139 \$2;
#X msg 216 139 \$3;
#X msg 109 481 \$3;
#X msg 814 474 \$2;
#X msg 1191 398 connect \$1 \$3;
#X obj 647 49 r AUDIO_ip;
#X obj 647 69 list;
#X msg 647 14 \; AUDIO_ip 192.168.1.255 8888 8889;
#X msg 319 410 connect \$1 \$2;
#X connect 3 0 9 0;
#X connect 3 0 7 0;
#X connect 3 0 12 0;
#X connect 5 0 4 0;
#X connect 7 0 11 0;
#X connect 8 0 7 1;
#X connect 9 0 24 0;
#X connect 10 0 9 1;
#X connect 12 0 6 0;
#X connect 13 0 12 1;
#X connect 15 0 19 0;
#X connect 16 0 15 1;
#X connect 17 0 23 0;
#X connect 18 0 17 1;
#X connect 20 0 4 0;
#X connect 21 0 20 1;
#X connect 22 0 17 0;
#X connect 22 0 15 0;
#X connect 22 0 20 0;
#X connect 28 0 6 0;
#X connect 29 0 25 0;
#X connect 30 0 26 0;
#X connect 31 0 27 0;
#X connect 32 0 5 0;
#X connect 33 0 28 0;
#X connect 34 0 23 1;
#X connect 35 0 36 0;
#X connect 36 0 34 0;
#X connect 36 0 33 0;
#X connect 36 0 32 0;
#X connect 36 0 29 0;
#X connect 36 0 31 0;
#X connect 36 0 30 0;
#X connect 36 0 38 0;
#X connect 38 0 24 1;
#X coords 0 -1 1 1 401 60 1 100 160;
