#N canvas 170 120 1250 881 10;
#X obj 301 301 cnv 15 248 198 empty empty ESIMAYA44USB 5 10 2 20 -1
-204786 0;
#X obj 191 71 r out_master_level1;
#X obj 205 814 send to_control_audio;
#X obj 871 450 dac~ 1 2 3 4;
#X obj 981 354 *~;
#X obj 1041 354 *~;
#X obj 430 359 vsl 20 128 0 1 0 0 empty empty IN1 -2 -9 0 15 -260097
-257985 -257985 0 1;
#X obj 460 359 vsl 20 128 0 1 0 0 empty empty IN2 -2 -9 0 15 -260097
-257985 -257985 0 1;
#X obj 564 552 cyclone/prepend INPUT_LEVEL_2;
#X obj 544 532 cyclone/prepend INPUT_LEVEL_1;
#X obj 575 169 / 128;
#X obj 595 149 / 128;
#X obj 575 3 r in_master_level1;
#X obj 191 124 r out_master_level2;
#X obj 595 23 r in_master_level2;
#X obj 310 359 vsl 20 128 0 1 0 0 empty empty L1 2 -9 0 15 -159808
-4034 -4034 0 1;
#X obj 330 359 vsl 10 128 0 1 0 0 empty empty empty 16 9 0 10 -4034
-258113 -1 0 1;
#X obj 340 359 vsl 20 128 0 1 0 0 empty empty R1 2 -9 0 15 -159808
-4034 -4034 0 1;
#X obj 370 359 vsl 20 128 0 1 0 1 empty empty L2 2 -9 0 15 -159808
-4034 -4034 2900 1;
#X obj 390 359 vsl 10 128 0 1 0 0 empty empty empty 16 9 0 10 -4034
-258113 -1 0 1;
#X obj 400 359 vsl 20 128 0 1 0 0 empty empty R2 1 -9 0 15 -159808
-4034 -4034 0 1;
#X obj 205 731 cyclone/prepend MASTER_LEVEL_1_1;
#X obj 225 751 cyclone/prepend MASTER_LEVEL_1_2;
#X obj 235 771 cyclone/prepend MASTER_LEVEL_2_1;
#X obj 255 791 cyclone/prepend MASTER_LEVEL_2_2;
#X obj 320 18 r out_master_level_1_1;
#X obj 350 67 r out_master_level_1_2;
#X obj 320 40 / 128;
#X obj 350 88 / 128;
#X obj 380 140 / 128;
#X obj 410 188 / 128;
#X obj 380 118 r out_master_level_2_1;
#X obj 410 167 r out_master_level_2_2;
#X obj 414 640 cyclone/prepend MASTER_LEVEL_1;
#X obj 433 660 cyclone/prepend MASTER_LEVEL_2;
#X msg 1083 175 set \$1;
#X obj 1056 109 r MASTER_LEVEL_2_2;
#X obj 1056 132 t a a;
#X floatatom 1083 198 5 0 0 0 - - -;
#X msg 1023 155 set \$1;
#X obj 996 112 t a a;
#X floatatom 1023 178 5 0 0 0 - - -;
#X obj 996 89 r MASTER_LEVEL_2_1;
#X obj 770 354 *~;
#X obj 830 354 *~;
#X msg 872 175 set \$1;
#X obj 845 132 t a a;
#X floatatom 872 198 5 0 0 0 - - -;
#X msg 812 155 set \$1;
#X obj 785 112 t a a;
#X floatatom 812 178 5 0 0 0 - - -;
#X obj 845 109 r MASTER_LEVEL_1_2;
#X obj 785 89 r MASTER_LEVEL_1_1;
#X obj 872 12 r MASTER_LEVEL_1;
#X obj 983 12 r MASTER_LEVEL_2;
#X obj 889 577 cnv 15 400 200 empty empty INPUT 20 12 0 14 -260097
-257985 0;
#X obj 931 730 *~;
#X obj 974 708 *~;
#X floatatom 946 660 5 0 0 0 - - -;
#X floatatom 989 688 5 0 0 0 - - -;
#X obj 989 665 r INPUT_LEVEL_2;
#X obj 946 637 r INPUT_LEVEL_1;
#X obj 931 753 throw~ IN1;
#X obj 974 731 throw~ IN2;
#X obj 984 811 catch~ IN2;
#X obj 941 833 catch~ IN1;
#X msg 193 334 \; pd dsp \$1;
#X obj 311 320 tgl 15 0 empty main_DSP DSP 17 9 0 15 -258113 -4034
-4034 0 1;
#X obj 716 816 throw~ out_1_1;
#X obj 736 836 throw~ out_1_2;
#X obj 826 816 throw~ out_2_1;
#X obj 846 836 throw~ out_2_2;
#X obj 798 271 catch~ out_1_1;
#X obj 818 291 catch~ out_1_2;
#X obj 1047 254 catch~ out_2_1;
#X obj 1067 274 catch~ out_2_2;
#X obj 490 359 vsl 20 128 0 1 0 0 empty empty IN3 -2 -9 0 15 -260097
-257985 -257985 0 1;
#X obj 520 359 vsl 20 128 0 1 0 0 empty empty IN4 -2 -9 0 15 -260097
-257985 -257985 0 1;
#X obj 899 602 adc~ 1 2 3 4;
#X obj 1081 730 *~;
#X obj 1124 708 *~;
#X floatatom 1096 660 5 0 0 0 - - -;
#X floatatom 1139 688 5 0 0 0 - - -;
#X obj 1096 637 r INPUT_LEVEL_3;
#X obj 1139 665 r INPUT_LEVEL_4;
#X obj 1124 731 throw~ IN4;
#X obj 1081 753 throw~ IN3;
#X obj 1031 833 catch~ IN3;
#X obj 1074 811 catch~ IN4;
#X obj 564 582 cyclone/prepend INPUT_LEVEL_3;
#X obj 584 602 cyclone/prepend INPUT_LEVEL_4;
#X obj 625 209 / 128;
#X obj 645 189 / 128;
#X obj 625 43 r in_master_level3;
#X obj 645 63 r in_master_level4;
#X msg 804 686 set \$1;
#X msg 814 706 set \$1;
#X msg 824 726 set \$1;
#X msg 834 746 set \$1;
#X connect 1 0 27 0;
#X connect 1 0 28 0;
#X connect 4 0 3 2;
#X connect 5 0 3 3;
#X connect 6 0 9 0;
#X connect 7 0 8 0;
#X connect 8 0 2 0;
#X connect 9 0 2 0;
#X connect 10 0 6 0;
#X connect 11 0 7 0;
#X connect 12 0 10 0;
#X connect 13 0 29 0;
#X connect 13 0 30 0;
#X connect 14 0 11 0;
#X connect 15 0 21 0;
#X connect 16 0 15 0;
#X connect 16 0 17 0;
#X connect 16 0 33 0;
#X connect 17 0 22 0;
#X connect 18 0 23 0;
#X connect 19 0 18 0;
#X connect 19 0 20 0;
#X connect 19 0 34 0;
#X connect 20 0 24 0;
#X connect 21 0 2 0;
#X connect 22 0 2 0;
#X connect 23 0 2 0;
#X connect 24 0 2 0;
#X connect 25 0 27 0;
#X connect 26 0 28 0;
#X connect 27 0 15 0;
#X connect 28 0 17 0;
#X connect 29 0 18 0;
#X connect 30 0 20 0;
#X connect 31 0 29 0;
#X connect 32 0 30 0;
#X connect 33 0 2 0;
#X connect 34 0 2 0;
#X connect 35 0 20 0;
#X connect 35 0 38 0;
#X connect 36 0 37 0;
#X connect 37 0 5 1;
#X connect 37 1 35 0;
#X connect 39 0 41 0;
#X connect 39 0 18 0;
#X connect 40 0 4 1;
#X connect 40 1 39 0;
#X connect 42 0 40 0;
#X connect 43 0 3 0;
#X connect 44 0 3 1;
#X connect 45 0 47 0;
#X connect 45 0 17 0;
#X connect 46 0 44 1;
#X connect 46 1 45 0;
#X connect 48 0 50 0;
#X connect 48 0 15 0;
#X connect 49 0 43 1;
#X connect 49 1 48 0;
#X connect 51 0 46 0;
#X connect 52 0 49 0;
#X connect 53 0 46 0;
#X connect 53 0 49 0;
#X connect 54 0 37 0;
#X connect 54 0 40 0;
#X connect 56 0 62 0;
#X connect 57 0 63 0;
#X connect 58 0 56 1;
#X connect 58 0 95 0;
#X connect 59 0 57 1;
#X connect 59 0 96 0;
#X connect 60 0 59 0;
#X connect 61 0 58 0;
#X connect 67 0 66 0;
#X connect 72 0 43 0;
#X connect 73 0 44 0;
#X connect 74 0 4 0;
#X connect 75 0 5 0;
#X connect 76 0 89 0;
#X connect 77 0 90 0;
#X connect 78 0 56 0;
#X connect 78 1 57 0;
#X connect 78 2 79 0;
#X connect 78 3 80 0;
#X connect 79 0 86 0;
#X connect 80 0 85 0;
#X connect 81 0 79 1;
#X connect 81 0 97 0;
#X connect 82 0 80 1;
#X connect 82 0 98 0;
#X connect 83 0 81 0;
#X connect 84 0 82 0;
#X connect 89 0 2 0;
#X connect 90 0 2 0;
#X connect 91 0 76 0;
#X connect 92 0 77 0;
#X connect 93 0 91 0;
#X connect 94 0 92 0;
#X connect 95 0 6 0;
#X connect 96 0 7 0;
#X connect 97 0 76 0;
#X connect 98 0 77 0;
#X coords 0 -1 1 1 250 200 1 300 300;
