#N canvas 185 201 1144 803 10;
#X obj 301 301 cnv 15 198 198 empty empty ESIMAYA22USB 5 10 2 20 -1
-204786 0;
#X obj 191 71 r out_master_level1;
#X obj 205 764 send to_control_audio;
#X obj 440 359 vsl 20 128 0 1 0 0 empty empty IN1 -2 -9 0 15 -260097
-257985 -257985 5300 1;
#X obj 470 359 vsl 20 128 0 1 0 0 empty empty IN2 -2 -9 0 15 -260097
-257985 -257985 5600 1;
#X obj 564 552 cyclone/prepend INPUT_LEVEL_2;
#X obj 544 532 cyclone/prepend INPUT_LEVEL_1;
#X obj 575 169 / 128;
#X obj 595 149 / 128;
#X obj 575 3 r in_master_level1;
#X obj 595 23 r in_master_level2;
#X obj 310 359 vsl 20 128 0 1 0 0 empty empty L1 2 -9 0 15 -159808
-4034 -4034 7400 1;
#X obj 330 359 vsl 10 128 0 1 0 0 empty empty empty 16 9 0 10 -4034
-258113 -1 7400 1;
#X obj 340 359 vsl 20 128 0 1 0 0 empty empty R1 2 -9 0 15 -159808
-4034 -4034 7400 1;
#X obj 205 681 cyclone/prepend MASTER_LEVEL_1_1;
#X obj 225 701 cyclone/prepend MASTER_LEVEL_1_2;
#X obj 320 18 r out_master_level_1_1;
#X obj 350 67 r out_master_level_1_2;
#X obj 320 40 / 128;
#X obj 350 88 / 128;
#X obj 414 640 cyclone/prepend MASTER_LEVEL_1;
#X obj 770 354 *~;
#X obj 830 354 *~;
#X msg 872 175 set \$1;
#X obj 845 132 t a a;
#X floatatom 872 198 5 0 0 0 - - -;
#X msg 812 155 set \$1;
#X obj 785 112 t a a;
#X floatatom 812 178 5 0 0 0 - - -;
#X obj 845 109 r MASTER_LEVEL_1_2;
#X obj 785 89 r MASTER_LEVEL_1_1;
#X obj 872 12 r MASTER_LEVEL_1;
#X obj 889 577 cnv 15 200 200 empty empty INPUT 20 12 0 14 -260097
-257985 0;
#X obj 899 602 adc~ 1 2;
#X obj 931 730 *~;
#X obj 974 708 *~;
#X floatatom 946 660 5 0 0 0 - - -;
#X floatatom 989 688 5 0 0 0 - - -;
#X obj 989 665 r INPUT_LEVEL_2;
#X obj 946 637 r INPUT_LEVEL_1;
#X obj 931 753 throw~ IN1;
#X obj 974 731 throw~ IN2;
#X obj 984 811 catch~ IN2;
#X obj 941 833 catch~ IN1;
#X msg 193 334 \; pd dsp \$1;
#X obj 311 320 tgl 15 0 empty main_DSP DSP 17 9 0 15 -258113 -4034
-4034 0 1;
#X obj 716 816 throw~ out_1_1;
#X obj 736 836 throw~ out_1_2;
#X obj 798 271 catch~ out_1_1;
#X obj 818 291 catch~ out_1_2;
#X obj 871 450 dac~ 1 2;
#X connect 1 0 18 0;
#X connect 1 0 19 0;
#X connect 3 0 6 0;
#X connect 4 0 5 0;
#X connect 5 0 2 0;
#X connect 6 0 2 0;
#X connect 7 0 3 0;
#X connect 8 0 4 0;
#X connect 9 0 7 0;
#X connect 10 0 8 0;
#X connect 11 0 14 0;
#X connect 12 0 11 0;
#X connect 12 0 13 0;
#X connect 12 0 20 0;
#X connect 13 0 15 0;
#X connect 14 0 2 0;
#X connect 15 0 2 0;
#X connect 16 0 18 0;
#X connect 17 0 19 0;
#X connect 18 0 11 0;
#X connect 19 0 13 0;
#X connect 20 0 2 0;
#X connect 21 0 50 0;
#X connect 22 0 50 1;
#X connect 23 0 25 0;
#X connect 23 0 13 0;
#X connect 24 0 22 1;
#X connect 24 1 23 0;
#X connect 26 0 28 0;
#X connect 26 0 11 0;
#X connect 27 0 21 1;
#X connect 27 1 26 0;
#X connect 29 0 24 0;
#X connect 30 0 27 0;
#X connect 31 0 24 0;
#X connect 31 0 27 0;
#X connect 33 0 34 0;
#X connect 33 1 35 0;
#X connect 34 0 40 0;
#X connect 35 0 41 0;
#X connect 36 0 34 1;
#X connect 37 0 35 1;
#X connect 38 0 37 0;
#X connect 39 0 36 0;
#X connect 45 0 44 0;
#X connect 48 0 21 0;
#X connect 49 0 22 0;
#X coords 0 -1 1 1 200 200 1 300 300;
