#N canvas 102 132 1651 863 10;
#X obj 301 301 cnv 15 198 198 empty empty ESI_UDJ6 5 10 2 20 -1 -204786
0;
#X obj 191 71 r out_master_level1;
#X obj 205 851 send to_control_audio;
#X obj 191 124 r out_master_level2;
#X obj 310 359 vsl 20 128 0 1 0 0 empty empty L1 2 -9 0 15 -159808
-4034 -4034 0 1;
#X obj 330 359 vsl 10 128 0 1 0 0 empty empty empty 16 9 0 10 -4034
-258113 -1 0 1;
#X obj 340 359 vsl 20 128 0 1 0 0 empty empty R1 2 -9 0 15 -159808
-4034 -4034 0 1;
#X obj 370 359 vsl 20 128 0 1 0 0 empty empty L2 2 -9 0 15 -159808
-4034 -4034 0 1;
#X obj 390 359 vsl 10 128 0 1 0 0 empty empty empty 16 9 0 10 -4034
-258113 -1 0 1;
#X obj 400 359 vsl 20 128 0 1 0 0 empty empty R2 1 -9 0 15 -159808
-4034 -4034 0 1;
#X obj 205 731 cyclone/prepend MASTER_LEVEL_1_1;
#X obj 225 751 cyclone/prepend MASTER_LEVEL_1_2;
#X obj 235 771 cyclone/prepend MASTER_LEVEL_2_1;
#X obj 255 791 cyclone/prepend MASTER_LEVEL_2_2;
#X obj 320 18 r out_master_level_1_1;
#X obj 350 67 r out_master_level_1_2;
#X obj 320 40 / 128;
#X obj 350 88 / 128;
#X obj 380 140 / 128;
#X obj 410 188 / 128;
#X obj 380 118 r out_master_level_2_1;
#X obj 410 167 r out_master_level_2_2;
#X obj 414 640 cyclone/prepend MASTER_LEVEL_1;
#X obj 433 660 cyclone/prepend MASTER_LEVEL_2;
#X msg 1083 175 set \$1;
#X obj 1056 109 r MASTER_LEVEL_2_2;
#X obj 1056 132 t a a;
#X floatatom 1083 198 5 0 0 0 - - -;
#X msg 1023 155 set \$1;
#X obj 996 112 t a a;
#X floatatom 1023 178 5 0 0 0 - - -;
#X obj 996 89 r MASTER_LEVEL_2_1;
#X msg 872 175 set \$1;
#X obj 845 132 t a a;
#X floatatom 872 198 5 0 0 0 - - -;
#X msg 812 155 set \$1;
#X obj 785 112 t a a;
#X floatatom 812 178 5 0 0 0 - - -;
#X obj 845 109 r MASTER_LEVEL_1_2;
#X obj 785 89 r MASTER_LEVEL_1_1;
#X obj 872 12 r MASTER_LEVEL_1;
#X obj 983 12 r MASTER_LEVEL_2;
#X msg 193 334 \; pd dsp \$1;
#X obj 311 320 tgl 15 0 empty main_DSP DSP 17 9 0 15 -258113 -4034
-4034 0 1;
#X obj 855 546 dac~ 1 2 3 4 5 6;
#X obj 964 438 *~;
#X obj 1004 418 *~;
#X obj 884 438 *~;
#X obj 924 418 *~;
#X obj 794 438 *~;
#X obj 834 418 *~;
#X obj 430 359 vsl 20 128 0 1 0 0 empty empty L3 2 -9 0 15 -159808
-4034 -4034 0 1;
#X obj 450 359 vsl 10 128 0 1 0 0 empty empty empty 16 9 0 10 -4034
-258113 -1 0 1;
#X obj 460 359 vsl 20 128 0 1 0 0 empty empty R3 1 -9 0 15 -159808
-4034 -4034 0 1;
#X obj 440 230 / 128;
#X obj 470 278 / 128;
#X obj 443 680 cyclone/prepend MASTER_LEVEL_3;
#X obj 265 811 cyclone/prepend MASTER_LEVEL_3_1;
#X obj 285 831 cyclone/prepend MASTER_LEVEL_3_2;
#X msg 1283 175 set \$1;
#X obj 1256 132 t a a;
#X floatatom 1283 198 5 0 0 0 - - -;
#X msg 1223 155 set \$1;
#X obj 1196 112 t a a;
#X floatatom 1223 178 5 0 0 0 - - -;
#X obj 1183 12 r MASTER_LEVEL_3;
#X obj 1196 89 r MASTER_LEVEL_3_1;
#X obj 1256 109 r MASTER_LEVEL_3_2;
#X obj 201 214 r out_master_level3;
#X obj 783 315 catch~ out_1_1;
#X obj 803 335 catch~ out_1_2;
#X obj 893 315 catch~ out_2_1;
#X obj 913 335 catch~ out_2_2;
#X obj 993 315 catch~ out_3_1;
#X obj 1013 335 catch~ out_3_2;
#X obj 785 604 throw~ out_1_1;
#X obj 805 624 throw~ out_1_2;
#X obj 895 604 throw~ out_2_1;
#X obj 915 624 throw~ out_2_2;
#X obj 995 604 throw~ out_3_1;
#X obj 1015 624 throw~ out_3_2;
#X obj 114 438 cyclone/prepend main_DSP;
#X obj 440 208 r out_master_level_3_1;
#X obj 470 257 r out_master_level_3_2;
#X connect 1 0 16 0;
#X connect 1 0 17 0;
#X connect 3 0 18 0;
#X connect 3 0 19 0;
#X connect 4 0 10 0;
#X connect 5 0 4 0;
#X connect 5 0 6 0;
#X connect 5 0 22 0;
#X connect 6 0 11 0;
#X connect 7 0 12 0;
#X connect 8 0 7 0;
#X connect 8 0 9 0;
#X connect 8 0 23 0;
#X connect 9 0 13 0;
#X connect 10 0 2 0;
#X connect 11 0 2 0;
#X connect 12 0 2 0;
#X connect 13 0 2 0;
#X connect 14 0 16 0;
#X connect 15 0 17 0;
#X connect 16 0 4 0;
#X connect 17 0 6 0;
#X connect 18 0 7 0;
#X connect 19 0 9 0;
#X connect 20 0 18 0;
#X connect 21 0 19 0;
#X connect 22 0 2 0;
#X connect 23 0 2 0;
#X connect 24 0 9 0;
#X connect 24 0 27 0;
#X connect 25 0 26 0;
#X connect 26 0 48 1;
#X connect 26 1 24 0;
#X connect 28 0 30 0;
#X connect 28 0 7 0;
#X connect 29 0 47 1;
#X connect 29 1 28 0;
#X connect 31 0 29 0;
#X connect 32 0 34 0;
#X connect 32 0 6 0;
#X connect 33 0 50 1;
#X connect 33 1 32 0;
#X connect 35 0 37 0;
#X connect 35 0 4 0;
#X connect 36 0 49 1;
#X connect 36 1 35 0;
#X connect 38 0 33 0;
#X connect 39 0 36 0;
#X connect 40 0 33 0;
#X connect 40 0 36 0;
#X connect 41 0 26 0;
#X connect 41 0 29 0;
#X connect 43 0 42 0;
#X connect 47 0 44 4;
#X connect 48 0 44 5;
#X connect 49 0 44 2;
#X connect 50 0 44 3;
#X connect 51 0 57 0;
#X connect 52 0 51 0;
#X connect 52 0 53 0;
#X connect 52 0 56 0;
#X connect 53 0 58 0;
#X connect 54 0 51 0;
#X connect 55 0 53 0;
#X connect 56 0 2 0;
#X connect 57 0 2 0;
#X connect 58 0 2 0;
#X connect 59 0 61 0;
#X connect 59 0 53 0;
#X connect 60 0 46 1;
#X connect 60 1 59 0;
#X connect 62 0 64 0;
#X connect 62 0 51 0;
#X connect 63 0 45 1;
#X connect 63 1 62 0;
#X connect 65 0 60 0;
#X connect 65 0 63 0;
#X connect 66 0 63 0;
#X connect 67 0 60 0;
#X connect 68 0 54 0;
#X connect 68 0 55 0;
#X connect 69 0 49 0;
#X connect 70 0 50 0;
#X connect 71 0 47 0;
#X connect 72 0 48 0;
#X connect 73 0 45 0;
#X connect 74 0 46 0;
#X connect 82 0 54 0;
#X connect 83 0 55 0;
#X coords 0 -1 1 1 200 200 1 300 300;
