#N canvas 0 76 1920 1004 10;
#X obj 301 301 cnv 15 498 198 empty empty FIREFACE_UCX 5 10 2 20 -1
-204786 0;
#X obj 167 9 r out_master_level1;
#X obj 205 814 send to_control_audio;
#X obj 1921 382 *~;
#X obj 1981 382 *~;
#X obj 558 359 vsl 20 128 0 1 0 0 empty empty IN1 -2 -9 0 15 -260097
-257985 -257985 0 1;
#X obj 588 359 vsl 20 128 0 1 0 0 empty empty IN2 -2 -9 0 15 -260097
-257985 -257985 0 1;
#X obj 618 637 cyclone/prepend INPUT_LEVEL_2;
#X obj 598 617 cyclone/prepend INPUT_LEVEL_1;
#X obj 769 226 / 128;
#X obj 789 206 / 128;
#X obj 769 41 r in_master_level1;
#X obj 273 118 r out_master_level2;
#X obj 789 61 r in_master_level2;
#X obj 310 359 vsl 20 128 0 1 0 0 empty empty L1 2 -9 0 15 -159808
-4034 -4034 0 1;
#X obj 330 359 vsl 10 128 0 1 0 0 empty empty empty 16 9 0 10 -4034
-258113 -1 0 1;
#X obj 340 359 vsl 20 128 0 1 0 0 empty empty R1 2 -9 0 15 -159808
-4034 -4034 0 1;
#X obj 370 359 vsl 20 128 0 1 0 0 empty empty L2 2 -9 0 15 -159808
-4034 -4034 0 1;
#X obj 390 359 vsl 10 128 0 1 0 0 empty empty empty 16 9 0 10 -4034
-258113 -1 0 1;
#X obj 400 359 vsl 20 128 0 1 0 0 empty empty R2 1 -9 0 15 -159808
-4034 -4034 0 1;
#X obj 285 621 cyclone/prepend MASTER_LEVEL_1_1;
#X obj 305 641 cyclone/prepend MASTER_LEVEL_1_2;
#X obj 325 661 cyclone/prepend MASTER_LEVEL_2_1;
#X obj 345 681 cyclone/prepend MASTER_LEVEL_2_2;
#X obj 194 35 r out_master_level_1_1;
#X obj 224 84 r out_master_level_1_2;
#X obj 194 57 / 128;
#X obj 224 105 / 128;
#X obj 272 182 / 128;
#X obj 319 205 / 128;
#X obj 272 160 r out_master_level_2_1;
#X obj 319 184 r out_master_level_2_2;
#X obj 12 623 cyclone/prepend MASTER_LEVEL_1;
#X obj 25 646 cyclone/prepend MASTER_LEVEL_2;
#X msg 2023 203 set \$1;
#X obj 1996 137 r MASTER_LEVEL_2_2;
#X obj 1996 160 t a a;
#X floatatom 2023 226 5 0 0 0 - - -;
#X msg 1963 183 set \$1;
#X obj 1936 140 t a a;
#X floatatom 1963 206 5 0 0 0 - - -;
#X obj 1936 117 r MASTER_LEVEL_2_1;
#X obj 1710 382 *~;
#X obj 1770 382 *~;
#X msg 1812 203 set \$1;
#X obj 1785 160 t a a;
#X floatatom 1812 226 5 0 0 0 - - -;
#X msg 1752 183 set \$1;
#X obj 1725 140 t a a;
#X floatatom 1752 206 5 0 0 0 - - -;
#X obj 1785 137 r MASTER_LEVEL_1_2;
#X obj 1725 117 r MASTER_LEVEL_1_1;
#X obj 1812 40 r MASTER_LEVEL_1;
#X obj 1923 40 r MASTER_LEVEL_2;
#X obj 1632 602 cnv 15 800 200 empty empty INPUT 20 12 0 14 -260097
-257985 0;
#X obj 1674 755 *~;
#X obj 1717 733 *~;
#X floatatom 1689 685 5 0 0 0 - - -;
#X floatatom 1732 713 5 0 0 0 - - -;
#X obj 1732 690 r INPUT_LEVEL_2;
#X obj 1689 662 r INPUT_LEVEL_1;
#X obj 1674 778 throw~ IN1;
#X obj 1717 756 throw~ IN2;
#X msg 193 334 \; pd dsp \$1;
#X obj 547 314 tgl 15 0 empty main_DSP DSP 17 9 0 15 -258113 -4034
-4034 0 1;
#X obj 716 816 throw~ out_1_1;
#X obj 736 836 throw~ out_1_2;
#X obj 826 816 throw~ out_2_1;
#X obj 846 836 throw~ out_2_2;
#X obj 1738 299 catch~ out_1_1;
#X obj 1758 319 catch~ out_1_2;
#X obj 1951 312 catch~ out_2_1;
#X obj 1971 332 catch~ out_2_2;
#X msg 1636 703 set \$1;
#X msg 1646 723 set \$1;
#X obj 941 833 catch ~ IN1;
#X obj 984 811 catch ~ IN2;
#X obj 1728 453 env~;
#X obj 1728 476 - 100;
#X obj 1768 453 env~;
#X obj 1768 476 - 100;
#X obj 1928 453 env~;
#X obj 1928 476 - 100;
#X obj 1968 453 env~;
#X obj 1968 476 - 100;
#X obj 1728 499 s out_1-1;
#X obj 1928 499 s out_2-1;
#X obj 1768 519 s out_1-2;
#X obj 1968 519 s out_2-2;
#X obj 35 332 vu 15 120 out_1-1 empty -1 -8 0 10 -66577 -1 0 0;
#X obj 53 332 vu 15 120 out_1-2 empty -1 -8 0 10 -66577 -1 0 0;
#X obj 71 332 vu 15 120 out_2-1 empty -1 -8 0 10 -66577 -1 0 0;
#X obj 89 332 vu 15 120 out_2-2 empty -1 -8 0 10 -66577 -1 0 0;
#X obj 1580 248 hsl 128 15 0.8 1.4 0 0 empty empty gain_numerique -2
-8 0 10 -262144 -1 -1 0 1;
#X floatatom 1577 268 5 0 0 0 - - -;
#X obj 1577 290 t b f;
#X obj 1725 264 * 1.1;
#X obj 1785 264 * 1.1;
#X obj 1950 256 * 1.1;
#X obj 2010 256 * 1.1;
#X obj 1884 755 *~;
#X obj 1927 733 *~;
#X floatatom 1899 685 5 0 0 0 - - -;
#X floatatom 1942 713 5 0 0 0 - - -;
#X msg 1846 703 set \$1;
#X msg 1856 723 set \$1;
#X obj 1899 662 r INPUT_LEVEL_3;
#X obj 1942 690 r INPUT_LEVEL_4;
#X obj 1927 756 throw~ IN4;
#X obj 1884 778 throw~ IN3;
#X obj 2094 755 *~;
#X obj 2137 733 *~;
#X floatatom 2109 685 5 0 0 0 - - -;
#X floatatom 2152 713 5 0 0 0 - - -;
#X msg 2056 703 set \$1;
#X msg 2066 723 set \$1;
#X obj 2304 755 *~;
#X obj 2347 733 *~;
#X floatatom 2319 685 5 0 0 0 - - -;
#X floatatom 2362 713 5 0 0 0 - - -;
#X msg 2266 703 set \$1;
#X msg 2276 723 set \$1;
#X obj 2109 662 r INPUT_LEVEL_5;
#X obj 2152 690 r INPUT_LEVEL_6;
#X obj 2319 662 r INPUT_LEVEL_7;
#X obj 2362 690 r INPUT_LEVEL_8;
#X obj 2347 756 throw~ IN8;
#X obj 2304 778 throw~ IN7;
#X obj 2137 756 throw~ IN6;
#X obj 2094 778 throw~ IN5;
#X obj 1642 627 adc~ 1 2 3 4 5 6 7 8;
#X obj 1061 833 catch ~ IN3;
#X obj 1104 811 catch ~ IN4;
#X obj 1191 833 catch ~ IN5;
#X obj 1234 811 catch ~ IN6;
#X obj 1311 833 catch ~ IN7;
#X obj 1354 811 catch ~ IN8;
#X obj 2331 382 *~;
#X obj 2391 382 *~;
#X msg 2433 203 set \$1;
#X obj 2406 160 t a a;
#X floatatom 2433 226 5 0 0 0 - - -;
#X msg 2373 183 set \$1;
#X obj 2346 140 t a a;
#X floatatom 2373 206 5 0 0 0 - - -;
#X obj 2120 382 *~;
#X obj 2180 382 *~;
#X msg 2222 203 set \$1;
#X obj 2195 160 t a a;
#X floatatom 2222 226 5 0 0 0 - - -;
#X msg 2162 183 set \$1;
#X obj 2135 140 t a a;
#X floatatom 2162 206 5 0 0 0 - - -;
#X obj 2138 453 env~;
#X obj 2138 476 - 100;
#X obj 2178 453 env~;
#X obj 2178 476 - 100;
#X obj 2338 453 env~;
#X obj 2338 476 - 100;
#X obj 2378 453 env~;
#X obj 2378 476 - 100;
#X obj 2135 264 * 1.1;
#X obj 2195 264 * 1.1;
#X obj 2360 256 * 1.1;
#X obj 2420 256 * 1.1;
#X obj 2135 117 r MASTER_LEVEL_3_1;
#X obj 2195 137 r MASTER_LEVEL_3_2;
#X obj 2346 117 r MASTER_LEVEL_4_1;
#X obj 2406 137 r MASTER_LEVEL_4_2;
#X obj 2148 299 catch~ out_3_1;
#X obj 2168 319 catch~ out_3_2;
#X obj 2138 499 s out_3-1;
#X obj 2178 519 s out_3-2;
#X obj 2338 499 s out_4-1;
#X obj 2378 519 s out_4-2;
#X obj 2361 312 catch~ out_4_1;
#X obj 2381 332 catch~ out_4_2;
#X obj 2035 577 dac~ 1 2 3 4 5 6 7 8;
#X obj 618 359 vsl 20 128 0 1 0 0 empty empty IN3 -2 -9 0 15 -260097
-257985 -257985 0 1;
#X obj 648 359 vsl 20 128 0 1 0 0 empty empty IN4 -2 -9 0 15 -260097
-257985 -257985 0 1;
#X obj 839 226 / 128;
#X obj 859 206 / 128;
#X obj 678 359 vsl 20 128 0 1 0 0 empty empty IN5 -2 -9 0 15 -260097
-257985 -257985 0 1;
#X obj 708 359 vsl 20 128 0 1 0 0 empty empty IN6 -2 -9 0 15 -260097
-257985 -257985 0 1;
#X obj 899 226 / 128;
#X obj 919 206 / 128;
#X obj 738 359 vsl 20 128 0 1 0 0 empty empty IN7 -2 -9 0 15 -260097
-257985 -257985 0 1;
#X obj 768 359 vsl 20 128 0 1 0 0 empty empty IN8 -2 -9 0 15 -260097
-257985 -257985 0 1;
#X obj 959 226 / 128;
#X obj 979 206 / 128;
#X obj 839 81 r in_master_level3;
#X obj 859 101 r in_master_level4;
#X obj 899 121 r in_master_level5;
#X obj 919 141 r in_master_level6;
#X obj 959 161 r in_master_level7;
#X obj 979 181 r in_master_level8;
#X obj 632 661 cyclone/prepend INPUT_LEVEL_3;
#X obj 652 681 cyclone/prepend INPUT_LEVEL_4;
#X obj 692 701 cyclone/prepend INPUT_LEVEL_5;
#X obj 712 721 cyclone/prepend INPUT_LEVEL_6;
#X obj 752 741 cyclone/prepend INPUT_LEVEL_7;
#X obj 772 761 cyclone/prepend INPUT_LEVEL_8;
#X obj 2222 40 r MASTER_LEVEL_3;
#X obj 2333 40 r MASTER_LEVEL_4;
#X obj 716 866 throw~ out_3_1;
#X obj 736 886 throw~ out_3_2;
#X obj 826 866 throw~ out_4_1;
#X obj 846 886 throw~ out_4_2;
#X obj 430 359 vsl 20 128 0 1 0 0 empty empty L3 2 -9 0 15 -159808
-4034 -4034 0 1;
#X obj 450 359 vsl 10 128 0 1 0 0 empty empty empty 16 9 0 10 -4034
-258113 -1 0 1;
#X obj 460 359 vsl 20 128 0 1 0 0 empty empty R3 1 -9 0 15 -159808
-4034 -4034 0 1;
#X obj 474 74 / 128;
#X obj 521 97 / 128;
#X obj 490 359 vsl 20 128 0 1 0 0 empty empty L4 2 -9 0 15 -159808
-4034 -4034 0 1;
#X obj 510 359 vsl 10 128 0 1 0 0 empty empty empty 16 9 0 10 -4034
-258113 -1 0 1;
#X obj 520 359 vsl 20 128 0 1 0 0 empty empty R4 1 -9 0 15 -159808
-4034 -4034 0 1;
#X obj 562 164 / 128;
#X obj 609 187 / 128;
#X obj 475 10 r out_master_level3;
#X obj 563 100 r out_master_level4;
#X obj 562 142 r out_master_level_4_1;
#X obj 609 166 r out_master_level_4_2;
#X obj 474 52 r out_master_level_3_1;
#X obj 521 76 r out_master_level_3_2;
#X obj 45 667 cyclone/prepend MASTER_LEVEL_3;
#X obj 355 701 cyclone/prepend MASTER_LEVEL_3_1;
#X obj 375 721 cyclone/prepend MASTER_LEVEL_3_2;
#X obj 67 688 cyclone/prepend MASTER_LEVEL_4;
#X obj 395 741 cyclone/prepend MASTER_LEVEL_4_1;
#X obj 415 761 cyclone/prepend MASTER_LEVEL_4_2;
#X obj 106 332 vu 15 120 out_3-1 empty -1 -8 0 10 -66577 -1 0 0;
#X obj 124 332 vu 15 120 out_3-2 empty -1 -8 0 10 -66577 -1 0 0;
#X obj 142 332 vu 15 120 out_4-1 empty -1 -8 0 10 -66577 -1 0 0;
#X obj 160 332 vu 15 120 out_4-2 empty -1 -8 0 10 -66577 -1 0 0;
#X connect 1 0 26 0;
#X connect 1 0 27 0;
#X connect 3 0 81 0;
#X connect 3 0 177 2;
#X connect 4 0 83 0;
#X connect 4 0 177 3;
#X connect 5 0 8 0;
#X connect 6 0 7 0;
#X connect 7 0 2 0;
#X connect 8 0 2 0;
#X connect 9 0 5 0;
#X connect 10 0 6 0;
#X connect 11 0 9 0;
#X connect 12 0 28 0;
#X connect 12 0 29 0;
#X connect 13 0 10 0;
#X connect 14 0 20 0;
#X connect 15 0 14 0;
#X connect 15 0 16 0;
#X connect 15 0 32 0;
#X connect 16 0 21 0;
#X connect 17 0 22 0;
#X connect 18 0 17 0;
#X connect 18 0 19 0;
#X connect 18 0 33 0;
#X connect 19 0 23 0;
#X connect 20 0 2 0;
#X connect 21 0 2 0;
#X connect 22 0 2 0;
#X connect 23 0 2 0;
#X connect 24 0 26 0;
#X connect 25 0 27 0;
#X connect 26 0 14 0;
#X connect 27 0 16 0;
#X connect 28 0 17 0;
#X connect 29 0 19 0;
#X connect 30 0 28 0;
#X connect 31 0 29 0;
#X connect 32 0 2 0;
#X connect 33 0 2 0;
#X connect 34 0 19 0;
#X connect 34 0 37 0;
#X connect 35 0 36 0;
#X connect 36 0 99 0;
#X connect 36 1 34 0;
#X connect 38 0 40 0;
#X connect 38 0 17 0;
#X connect 39 0 98 0;
#X connect 39 1 38 0;
#X connect 41 0 39 0;
#X connect 42 0 77 0;
#X connect 42 0 177 0;
#X connect 43 0 79 0;
#X connect 43 0 177 1;
#X connect 44 0 46 0;
#X connect 44 0 16 0;
#X connect 45 0 97 0;
#X connect 45 1 44 0;
#X connect 47 0 49 0;
#X connect 47 0 14 0;
#X connect 48 0 96 0;
#X connect 48 1 47 0;
#X connect 50 0 45 0;
#X connect 51 0 48 0;
#X connect 52 0 45 0;
#X connect 52 0 48 0;
#X connect 53 0 36 0;
#X connect 53 0 39 0;
#X connect 55 0 61 0;
#X connect 56 0 62 0;
#X connect 57 0 55 1;
#X connect 57 0 73 0;
#X connect 58 0 56 1;
#X connect 58 0 74 0;
#X connect 59 0 58 0;
#X connect 60 0 57 0;
#X connect 64 0 63 0;
#X connect 69 0 42 0;
#X connect 70 0 43 0;
#X connect 71 0 3 0;
#X connect 72 0 4 0;
#X connect 73 0 5 0;
#X connect 74 0 6 0;
#X connect 77 0 78 0;
#X connect 78 0 85 0;
#X connect 79 0 80 0;
#X connect 80 0 87 0;
#X connect 81 0 82 0;
#X connect 82 0 86 0;
#X connect 83 0 84 0;
#X connect 84 0 88 0;
#X connect 93 0 94 0;
#X connect 94 0 95 0;
#X connect 95 0 14 0;
#X connect 95 0 16 0;
#X connect 95 0 17 0;
#X connect 95 0 19 0;
#X connect 95 1 96 1;
#X connect 95 1 97 1;
#X connect 95 1 98 1;
#X connect 95 1 99 1;
#X connect 95 1 161 1;
#X connect 95 1 162 1;
#X connect 95 1 164 1;
#X connect 95 1 163 1;
#X connect 96 0 42 1;
#X connect 97 0 43 1;
#X connect 98 0 3 1;
#X connect 99 0 4 1;
#X connect 100 0 109 0;
#X connect 101 0 108 0;
#X connect 102 0 100 1;
#X connect 102 0 104 0;
#X connect 103 0 101 1;
#X connect 103 0 105 0;
#X connect 104 0 178 0;
#X connect 105 0 179 0;
#X connect 106 0 102 0;
#X connect 107 0 103 0;
#X connect 110 0 129 0;
#X connect 111 0 128 0;
#X connect 112 0 110 1;
#X connect 112 0 114 0;
#X connect 113 0 111 1;
#X connect 113 0 115 0;
#X connect 114 0 182 0;
#X connect 115 0 183 0;
#X connect 116 0 127 0;
#X connect 117 0 126 0;
#X connect 118 0 116 1;
#X connect 118 0 120 0;
#X connect 119 0 117 1;
#X connect 119 0 121 0;
#X connect 120 0 186 0;
#X connect 121 0 187 0;
#X connect 122 0 112 0;
#X connect 123 0 113 0;
#X connect 124 0 118 0;
#X connect 125 0 119 0;
#X connect 130 0 55 0;
#X connect 130 1 56 0;
#X connect 130 2 100 0;
#X connect 130 3 101 0;
#X connect 130 4 110 0;
#X connect 130 5 111 0;
#X connect 130 6 116 0;
#X connect 130 7 117 0;
#X connect 137 0 157 0;
#X connect 137 0 177 6;
#X connect 138 0 159 0;
#X connect 138 0 177 7;
#X connect 139 0 141 0;
#X connect 140 0 164 0;
#X connect 140 1 139 0;
#X connect 142 0 144 0;
#X connect 143 0 163 0;
#X connect 143 1 142 0;
#X connect 145 0 153 0;
#X connect 145 0 177 4;
#X connect 146 0 155 0;
#X connect 146 0 177 5;
#X connect 147 0 149 0;
#X connect 148 0 162 0;
#X connect 148 1 147 0;
#X connect 150 0 152 0;
#X connect 151 0 161 0;
#X connect 151 1 150 0;
#X connect 153 0 154 0;
#X connect 154 0 171 0;
#X connect 155 0 156 0;
#X connect 156 0 172 0;
#X connect 157 0 158 0;
#X connect 158 0 173 0;
#X connect 159 0 160 0;
#X connect 160 0 174 0;
#X connect 161 0 145 1;
#X connect 162 0 146 1;
#X connect 163 0 137 1;
#X connect 164 0 138 1;
#X connect 165 0 151 0;
#X connect 166 0 148 0;
#X connect 167 0 143 0;
#X connect 168 0 140 0;
#X connect 169 0 145 0;
#X connect 170 0 146 0;
#X connect 175 0 137 0;
#X connect 176 0 138 0;
#X connect 178 0 196 0;
#X connect 179 0 197 0;
#X connect 180 0 178 0;
#X connect 181 0 179 0;
#X connect 182 0 198 0;
#X connect 183 0 199 0;
#X connect 184 0 182 0;
#X connect 185 0 183 0;
#X connect 186 0 200 0;
#X connect 187 0 201 0;
#X connect 188 0 186 0;
#X connect 189 0 187 0;
#X connect 190 0 180 0;
#X connect 191 0 181 0;
#X connect 192 0 184 0;
#X connect 193 0 185 0;
#X connect 194 0 188 0;
#X connect 195 0 189 0;
#X connect 196 0 2 0;
#X connect 197 0 2 0;
#X connect 198 0 2 0;
#X connect 199 0 2 0;
#X connect 200 0 2 0;
#X connect 201 0 2 0;
#X connect 202 0 148 0;
#X connect 202 0 151 0;
#X connect 203 0 140 0;
#X connect 203 0 143 0;
#X connect 208 0 225 0;
#X connect 209 0 208 0;
#X connect 209 0 210 0;
#X connect 209 0 224 0;
#X connect 210 0 226 0;
#X connect 211 0 208 0;
#X connect 212 0 210 0;
#X connect 213 0 228 0;
#X connect 214 0 213 0;
#X connect 214 0 215 0;
#X connect 214 0 227 0;
#X connect 215 0 229 0;
#X connect 216 0 213 0;
#X connect 217 0 215 0;
#X connect 218 0 211 0;
#X connect 218 0 212 0;
#X connect 219 0 216 0;
#X connect 219 0 217 0;
#X connect 220 0 216 0;
#X connect 221 0 217 0;
#X connect 222 0 211 0;
#X connect 223 0 212 0;
#X connect 224 0 2 0;
#X connect 225 0 2 0;
#X connect 226 0 2 0;
#X connect 227 0 2 0;
#X connect 228 0 2 0;
#X connect 229 0 2 0;
#X coords 0 -1 1 1 500 200 1 300 300;
