#N canvas 2537 100 1037 941 10;
#X obj 101 601 cnv 15 148 198 empty empty lowpass-editor 20 12 0 14
-191407 -4160 0;
#X obj 702 773 send;
#X obj 723 497 vradio 15 1 0 10 empty Player-\$0 Player-\$0 0 -8 0
10 -262144 -1 -1 0;
#X obj 723 662 + 1;
#X floatatom 674 65 5 0 30000 0 fade_time-#0 fade_time-#0 -;
#X msg 247 71 set;
#X msg 247 263;
#X obj 340 225 prepend add2;
#X obj 674 177 * 1000;
#X obj 12 24 bng 15 250 50 0 empty send-static-\$0 send-static-\$0
17 7 0 10 -262144 -1 -1;
#X obj 566 568 send \$0-output;
#X obj 566 596 receive \$0-output;
#X obj 566 806 send to_cue;
#X obj 106 648 vradio 15 1 1 10 Player-\$0 Player-\$0-lbl Player-1
19 10 0 10 -262144 -1 -1 0;
#X obj 151 748 bng 15 250 50 0 send-static-\$0 empty send-static 17
7 0 10 -262144 -1 -1;
#X floatatom 139 699 5 0 30000 1 fade_time(s) - fade_time-#0;
#X msg 751 704 \; Player-\$1-lbl label Player-\$2;
#X obj 751 678 prepend \$0;
#X obj 566 764 list prepend;
#X msg 723 748 symbol lowpass_\$1;
#X obj 108 55 t b b b;
#X obj 340 193 pack f f;
#X obj 779 386 print WTF_lowpass-editor;
#X obj 111 622 hsl 127 15 20 44100 1 0 empty empty empty -2 -8 0 10
-262144 -1 -1 12600 1;
#X obj 370 649 int;
#X floatatom 138 673 5 0 0 1 freq(Hz) - -;
#X obj 792 243 ftom;
#X obj 758 304 mtof;
#X floatatom 953 323 0 0 0 0 - - -;
#X floatatom 792 267 0 0 0 0 - - -;
#X floatatom 868 218 8 0 0 0 - - -;
#X msg 774 157 20 3000;
#X msg 774 177 22000 3000;
#X obj 758 214 unpack;
#X obj 758 236 ftom;
#X obj 758 259 pack;
#X obj 758 282 line;
#X connect 2 0 3 0;
#X connect 3 0 19 0;
#X connect 3 0 17 0;
#X connect 4 0 8 0;
#X connect 5 0 6 0;
#X connect 6 0 10 0;
#X connect 6 0 22 0;
#X connect 7 0 6 0;
#X connect 8 0 21 1;
#X connect 9 0 20 0;
#X connect 11 0 1 0;
#X connect 11 0 18 0;
#X connect 17 0 16 0;
#X connect 18 0 12 0;
#X connect 19 0 1 1;
#X connect 19 0 18 1;
#X connect 20 0 6 0;
#X connect 20 1 21 0;
#X connect 20 2 5 0;
#X connect 21 0 7 0;
#X connect 23 0 24 0;
#X connect 24 0 25 0;
#X connect 25 0 21 0;
#X connect 26 0 29 0;
#X connect 27 0 28 0;
#X connect 31 0 33 0;
#X connect 32 0 33 0;
#X connect 33 0 34 0;
#X connect 33 1 35 1;
#X connect 34 0 35 0;
#X connect 35 0 36 0;
#X connect 36 0 27 0;
#X coords 0 -1 1 1 150 200 2 100 600;
