#N canvas 0 76 1920 1004 10;
#X obj 301 301 cnv 15 748 48 empty canvas_player_stereo_\$1 INPUT_Mono-\$1-\$2-\$3
5 7 1 14 -204800 -4160 0;
#X obj 353 749 *~;
#X obj 506 666 line;
#X obj 506 634 pack;
#X msg 1082 588 \$1;
#X floatatom 883 318 4 0 0 0 START_LEVEL - start_level_#1;
#X floatatom 335 331 10 0 0 1 time-fade(ms) - audio_time_#1;
#X floatatom 883 303 4 0 1024 0 LEVEL - level_#1;
#X obj 545 512 spigot;
#X obj 506 732 / 1024;
#X obj 5 264 r audio_\$1;
#X text 419 513 FileName;
#X text 593 514 StartLevel;
#X obj 602 766 bang;
#X floatatom 903 688 5 0 0 1 start_level_#1 start_level_#1 -;
#X floatatom 740 688 10 0 0 1 audio_time_#1 audio_time_#1 -;
#X floatatom 640 688 5 0 0 1 level_#1 level_#1 -;
#X obj 667 734 t b a;
#X obj 740 734 t b a;
#X obj 903 734 t b a;
#X obj 97 333 t a a;
#X obj 137 326 t a a;
#X obj 201 375 t a a;
#X obj 297 924 s to_cue;
#X obj 640 838 cyclone/prepend player_\$1;
#X obj 8 194 r player_\$1;
#X obj 919 302 hsl 128 15 0 1024 0 0 empty empty level_\$1 4 8 1 12
-159808 -4034 -261682 0 1;
#X obj 919 318 hsl 128 15 0 1024 0 0 empty empty start_level_\$1 4
8 1 12 -159808 -4034 -261682 0 1;
#X obj 632 710 int;
#X obj 903 707 int;
#X obj 1082 554 spigot;
#X obj 1121 533 tgl 15 0 empty empty empty 17 7 0 10 -262144 -1 -1
1 1;
#X obj 1121 508 >= 0;
#X obj 916 335 bng 15 250 50 0 empty empty -1_kill_START_LEVEL 0 9
1 12 -159808 -4034 -258113;
#X obj 991 353 - 1;
#X obj 1082 483 t f f f;
#X obj 531 591 r audio_time_\$1;
#X obj 506 571 r level_\$1;
#X floatatom 877 332 5 0 0 0 IRL-LEVEL - -;
#X obj 539 861 bng 15 250 50 0 empty Store_pst Store_pst 17 7 0 10
-258113 -4034 -1;
#X obj 538 890 cyclone/prepend;
#X obj 353 802 send~ Left-\$1;
#X obj 407 781 send~ Right-\$1;
#X obj 1321 753 bng 15 250 50 0 empty SET_pst-\$1 SET_pst-\$1 17 7
0 10 -4160 -258113 -1;
#X obj 439 861 bng 15 250 50 0 empty Store_pst-\$0 Store_pst-\$0 17
7 0 10 -258113 -4034 -1;
#X obj 539 841 bng 15 250 50 0 Store_pst empty Store_pst 17 7 0 10
-258113 -4034 -1;
#X obj 673 332 bng 15 250 50 0 Store_pst-\$0 empty STORE 17 7 0 10
-258113 -4034 -1;
#X obj 1321 723 bng 15 250 50 0 SET_pst-\$1 empty SET_pst-\$1 17 7
0 10 -4160 -258113 -1;
#X obj 1401 753 bng 15 250 50 0 empty SET_pst SET_pst 17 7 0 10 -4160
-258113 -1;
#X obj 1401 723 bng 15 250 50 0 SET_pst empty SET_pst 17 7 0 10 -4160
-258113 -1;
#X obj 632 332 bng 15 250 50 0 SET_pst-\$1 empty SET 17 7 1 10 -4160
-258113 -1;
#X text 1062 335 level direct;
#X text 1056 316 level temporisé;
#X obj 1011 914 print WTF_player_Stereo-\$1;
#X obj 1321 813 t b b;
#X obj 578 479 tgl 15 0 empty empty empty 17 7 0 10 -261682 -1 -1 0
1;
#X obj 1338 882 list prepend;
#X obj 728 188 r globaltime;
#X obj 728 210 * 100;
#X obj 1338 918 s to_control_audio;
#X obj 624 264 r set_player-\$1;
#X text 882 152 LOOP-player_Stereo-#1 en commandeline;
#X obj 1341 169 r out-audiolevel-\$1;
#X obj 1344 399 s in-audiolevel-\$1;
#X obj 1341 192 * 1024;
#X obj 1341 215 / 128;
#X obj 1341 238 int;
#X obj 1344 329 * 128;
#X obj 1344 352 / 1024;
#X obj 1344 375 int;
#X obj 1343 308 r level_\$1;
#X obj 287 820 env~;
#X obj 287 843 - 100;
#X obj 259 797 vu 10 80 vu_\$1 empty -1 -8 0 10 -66577 -1 0 0;
#X obj 287 866 s vu_\$1;
#X obj 104 211 unpack f f f f;
#X obj 640 792 pack f f f;
#X text 108 128 Level_end Time Level_Start;
#X msg 159 185 0 2000 -1;
#X msg 103 158 1024 1200 1, f 67;
#X obj 741 265 r Store_pst-\$1;
#X obj 293 584 env~;
#X obj 293 607 - 100;
#X obj 293 630 s prevuL_\$1;
#X obj 404 633 s prevuR_\$1;
#X obj 332 712 lop~ 44000;
#X obj 32 666 r lowpass_\$1;
#X msg 131 613 44000 5000;
#X floatatom 81 625 5 0 0 0 - - -;
#X msg 84 524 80;
#X msg 131 633 100 20000;
#X floatatom 728 332 6 0 0 1 lowpass - -;
#X obj 32 642 r lowpass;
#X obj 99 819 mtof;
#X obj 99 729 unpack;
#X obj 99 751 ftom;
#X obj 99 774 pack;
#X obj 99 797 line;
#X obj 354 12 catch~ \$2;
#X obj 365 93 *~ 1;
#X obj 494 331 hsl 128 15 1 2 0 0 empty gain-numerique-\$1 gain-numerique
-2 -8 0 10 -262144 -1 -1 0 1;
#X obj 897 39 prepend \$1;
#X msg 895 62 \; gain-numerique-\$1 label gain-numerique-\$1=\$2;
#X obj 728 28 r globaltimeaudio;
#X connect 1 0 41 0;
#X connect 1 0 42 0;
#X connect 1 0 71 0;
#X connect 2 0 9 0;
#X connect 2 0 38 0;
#X connect 3 0 2 0;
#X connect 4 0 2 0;
#X connect 8 0 4 0;
#X connect 9 0 1 0;
#X connect 13 0 76 0;
#X connect 14 0 29 0;
#X connect 15 0 18 0;
#X connect 15 0 3 1;
#X connect 16 0 28 0;
#X connect 16 0 3 0;
#X connect 17 1 76 0;
#X connect 18 0 13 0;
#X connect 18 1 76 1;
#X connect 19 0 13 0;
#X connect 19 1 76 2;
#X connect 20 1 26 0;
#X connect 21 1 6 0;
#X connect 22 0 8 0;
#X connect 22 1 27 0;
#X connect 24 0 40 1;
#X connect 24 0 56 1;
#X connect 25 0 75 0;
#X connect 26 0 7 0;
#X connect 27 0 35 0;
#X connect 28 0 17 0;
#X connect 29 0 19 0;
#X connect 30 0 4 0;
#X connect 31 0 30 1;
#X connect 32 0 31 0;
#X connect 33 0 34 0;
#X connect 34 0 27 0;
#X connect 35 0 30 0;
#X connect 35 1 5 0;
#X connect 35 2 32 0;
#X connect 36 0 3 1;
#X connect 37 0 3 0;
#X connect 39 0 40 0;
#X connect 40 0 23 0;
#X connect 43 0 54 0;
#X connect 44 0 40 0;
#X connect 48 0 54 0;
#X connect 54 1 56 0;
#X connect 55 0 8 1;
#X connect 56 0 59 0;
#X connect 57 0 58 0;
#X connect 58 0 6 0;
#X connect 60 0 50 0;
#X connect 62 0 64 0;
#X connect 64 0 65 0;
#X connect 65 0 66 0;
#X connect 66 0 26 0;
#X connect 67 0 68 0;
#X connect 68 0 69 0;
#X connect 69 0 63 0;
#X connect 70 0 67 0;
#X connect 71 0 72 0;
#X connect 72 0 74 0;
#X connect 75 0 20 0;
#X connect 75 1 21 0;
#X connect 75 2 22 0;
#X connect 76 0 24 0;
#X connect 78 0 75 0;
#X connect 79 0 75 0;
#X connect 80 0 46 0;
#X connect 81 0 82 0;
#X connect 82 0 83 0;
#X connect 82 0 84 0;
#X connect 85 0 1 1;
#X connect 86 0 94 0;
#X connect 87 0 94 0;
#X connect 88 0 94 0;
#X connect 89 0 94 0;
#X connect 90 0 94 0;
#X connect 92 0 94 0;
#X connect 93 0 85 1;
#X connect 93 0 91 0;
#X connect 94 0 95 0;
#X connect 94 1 96 1;
#X connect 95 0 96 0;
#X connect 96 0 97 0;
#X connect 97 0 93 0;
#X connect 98 0 99 0;
#X connect 99 0 81 0;
#X connect 99 0 85 0;
#X connect 100 0 101 0;
#X connect 100 0 99 1;
#X connect 101 0 102 0;
#X connect 103 0 58 0;
#X coords 0 -1 1 1 750 50 1 300 300;
