#N canvas 404 246 942 808 10;
#X obj 105 641 send to_control_audio;
#X obj 105 121 vsl 20 128 0 1 0 0 empty empty L\$1 2 -9 0 15 -159808
-4034 -4034 6350 1;
#X obj 125 121 vsl 10 128 0 1 0 0 empty empty empty 16 9 0 10 -4034
-258113 -1 0 1;
#X obj 135 121 vsl 20 128 0 1 0 0 empty empty R\$1 2 -9 0 15 -159808
-4034 -4034 6350 1;
#X obj 105 18 / 128;
#X obj 135 74 / 128;
#X obj -44 2 r out_master_level\$1;
#X obj 105 -3 r out_master_level_\$1_1;
#X obj 135 53 r out_master_level_\$1_2;
#X obj 125 462 cyclone/prepend MASTER_LEVEL_\$1;
#X obj 105 503 cyclone/prepend MASTER_LEVEL_\$1_1;
#X obj 135 534 cyclone/prepend MASTER_LEVEL_\$1_2;
#X obj 613 326 *~;
#X obj 673 326 *~;
#X msg 715 147 set \$1;
#X obj 688 104 t a a;
#X floatatom 715 170 5 0 0 0 - - -;
#X msg 655 127 set \$1;
#X obj 628 84 t a a;
#X floatatom 655 150 5 0 0 0 - - -;
#X obj 612 447 env~;
#X obj 612 470 - 100;
#X obj 672 397 env~;
#X obj 672 420 - 100;
#X obj 483 192 hsl 128 15 0.8 1.4 0 0 empty empty gain_numerique -2
-8 0 10 -262144 -1 -1 0 1;
#X floatatom 480 212 5 0 0 0 - - -;
#X obj 480 234 t b f;
#X obj 715 -16 r MASTER_LEVEL_\$1;
#X obj 628 61 r MASTER_LEVEL_\$1_1;
#X obj 688 81 r MASTER_LEVEL_\$1_2;
#X obj 628 208 * 1;
#X obj 688 208 * 1;
#X obj 612 253 catch~ out_\$1_1;
#X obj 672 273 catch~ out_\$1_2;
#X obj 672 443 s out_\$1-2;
#X obj 612 493 s out_\$1-1;
#X obj 106 264 vu 15 80 out_\$1-1 empty -1 -8 0 10 -66577 -1 0 0;
#X obj 136 264 vu 15 80 out_\$1-2 empty -1 -8 0 10 -66577 -1 0 0;
#X obj 553 643 outlet~;
#X obj 653 643 outlet~;
#X connect 1 0 10 0;
#X connect 2 0 1 0;
#X connect 2 0 3 0;
#X connect 2 0 9 0;
#X connect 3 0 11 0;
#X connect 4 0 1 0;
#X connect 5 0 3 0;
#X connect 6 0 4 0;
#X connect 6 0 5 0;
#X connect 7 0 4 0;
#X connect 8 0 5 0;
#X connect 9 0 0 0;
#X connect 10 0 0 0;
#X connect 11 0 0 0;
#X connect 12 0 20 0;
#X connect 12 0 38 0;
#X connect 13 0 22 0;
#X connect 13 0 39 0;
#X connect 14 0 16 0;
#X connect 14 0 3 0;
#X connect 15 0 31 0;
#X connect 15 1 14 0;
#X connect 17 0 19 0;
#X connect 17 0 1 0;
#X connect 18 0 30 0;
#X connect 18 1 17 0;
#X connect 20 0 21 0;
#X connect 21 0 35 0;
#X connect 22 0 23 0;
#X connect 23 0 34 0;
#X connect 24 0 25 0;
#X connect 25 0 26 0;
#X connect 26 1 30 1;
#X connect 26 1 31 1;
#X connect 27 0 15 0;
#X connect 27 0 18 0;
#X connect 28 0 18 0;
#X connect 29 0 15 0;
#X connect 30 0 12 1;
#X connect 31 0 13 1;
#X connect 32 0 12 0;
#X connect 33 0 13 0;
#X coords 0 -1 1 1 60 250 1 100 100;
