#N canvas 0 76 1920 1004 10;
#X obj 301 301 cnv 15 498 598 empty empty Soundcraft_SI_IMPACT_1616
5 10 2 20 -1 -204786 0;
#X msg 193 334 \; pd dsp \$1;
#X obj 577 304 tgl 15 0 empty main_DSP DSP 17 9 0 15 -258113 -4034
-4034 1 1;
#X obj 730 99 catch ~ IN1;
#X obj 773 77 catch ~ IN2;
#X obj 893 77 catch ~ IN4;
#X obj 980 99 catch ~ IN5;
#X obj 1023 77 catch ~ IN6;
#X obj 1100 99 catch ~ IN7;
#X obj 1143 77 catch ~ IN8;
#X obj 309 332 OUTPUT 1;
#X obj 369 332 OUTPUT 2;
#X obj 429 332 OUTPUT 3;
#X obj 489 332 OUTPUT 4;
#X obj 549 332 OUTPUT 5;
#X obj 609 332 OUTPUT 6;
#X obj 669 332 OUTPUT 7;
#X obj 729 332 OUTPUT 8;
#X obj -41 687 dac~ 1 2 3 4 5 6 7 8 9 10 11 12 13 14 15 16;
#X obj 310 590 INPUT 1;
#X obj 370 590 INPUT 2;
#X obj 430 590 INPUT 3;
#X obj 490 590 INPUT 4;
#X obj 550 590 INPUT 5;
#X obj 610 590 INPUT 6;
#X obj 670 590 INPUT 7;
#X obj 730 590 INPUT 8;
#X obj 310 740 INPUT 9;
#X obj 370 740 INPUT 10;
#X obj 430 740 INPUT 11;
#X obj 490 740 INPUT 12;
#X obj 550 740 INPUT 13;
#X obj 610 740 INPUT 14;
#X obj 670 740 INPUT 15;
#X obj 730 740 INPUT 16;
#X obj 851 100 catch~ IN3;
#X obj 767 133 catch~ IN9;
#X obj 887 133 catch~ IN10;
#X obj 1017 133 catch~ IN11;
#X obj 1137 133 catch~ IN12;
#X obj 724 155 catch~ IN13;
#X obj 845 156 catch~ IN14;
#X obj 974 155 catch~ IN15;
#X obj 1094 155 catch~ IN16;
#X connect 2 0 1 0;
#X connect 10 0 18 0;
#X connect 10 1 18 1;
#X connect 11 0 18 2;
#X connect 11 1 18 3;
#X connect 12 0 18 4;
#X connect 12 1 18 5;
#X connect 13 0 18 6;
#X connect 13 1 18 7;
#X connect 14 0 18 8;
#X connect 14 1 18 9;
#X connect 15 0 18 10;
#X connect 15 1 18 11;
#X connect 16 0 18 12;
#X connect 16 1 18 13;
#X connect 17 0 18 14;
#X connect 17 1 18 15;
#X coords 0 -1 1 1 500 600 1 300 300;
