#N canvas 0 76 1920 1004 10;
#X obj 301 301 cnv 15 998 348 empty empty FIREFACE_UCX 5 10 2 20 -1
-204786 0;
#X msg 193 334 \; pd dsp \$1;
#X obj 547 314 tgl 15 0 empty main_DSP DSP 17 9 0 15 -258113 -4034
-4034 0 1;
#X obj 707 851 throw~ out_1_1;
#X obj 727 871 throw~ out_1_2;
#X obj 817 851 throw~ out_2_1;
#X obj 837 871 throw~ out_2_2;
#X obj 932 868 catch ~ IN1;
#X obj 975 846 catch ~ IN2;
#X obj 1052 868 catch ~ IN3;
#X obj 1095 846 catch ~ IN4;
#X obj 1182 868 catch ~ IN5;
#X obj 1225 846 catch ~ IN6;
#X obj 1302 868 catch ~ IN7;
#X obj 1345 846 catch ~ IN8;
#X obj 707 901 throw~ out_3_1;
#X obj 727 921 throw~ out_3_2;
#X obj 817 901 throw~ out_4_1;
#X obj 837 921 throw~ out_4_2;
#X obj 309 332 OUTPUT 1;
#X obj 369 332 OUTPUT 2;
#X obj 429 332 OUTPUT 3;
#X obj 489 332 OUTPUT 4;
#X obj 549 332 OUTPUT 5;
#X obj 609 332 OUTPUT 6;
#X obj 669 332 OUTPUT 7;
#X obj 729 332 OUTPUT 8;
#X obj 425 716 dac~ 1 2 3 4 5 6 7 8 9 10 11 12 13 14 15 16;
#X obj 810 325 INPUT 1;
#X obj 870 325 INPUT 2;
#X obj 930 325 INPUT 3;
#X obj 990 325 INPUT 4;
#X obj 1050 325 INPUT 5;
#X obj 1110 325 INPUT 6;
#X obj 1170 325 INPUT 7;
#X obj 1230 325 INPUT 8;
#X obj 810 475 INPUT 9;
#X obj 870 475 INPUT 10;
#X obj 930 475 INPUT 11;
#X obj 990 475 INPUT 12;
#X obj 1050 475 INPUT 13;
#X obj 1110 475 INPUT 14;
#X obj 1170 475 INPUT 15;
#X obj 1230 475 INPUT 16;
#X connect 2 0 1 0;
#X connect 19 0 27 0;
#X connect 19 1 27 1;
#X connect 20 0 27 2;
#X connect 20 1 27 3;
#X connect 21 0 27 4;
#X connect 21 1 27 5;
#X connect 22 0 27 6;
#X connect 22 1 27 7;
#X connect 23 0 27 8;
#X connect 23 1 27 9;
#X connect 24 0 27 10;
#X connect 24 1 27 11;
#X connect 25 0 27 12;
#X connect 25 1 27 13;
#X connect 26 0 27 14;
#X connect 26 1 27 14;
#X coords 0 -1 1 1 1000 350 1 300 300;
