#N canvas 248 237 596 476 10;
#X obj 225 159 ggee/streamout~;
#X obj 224 105 receive~ teststream;
#X obj 226 312 ggee/streamin~ 3000;
#X obj 226 376 dac~;
#X msg 341 56 connect 192.168.1.29 3000;
#X msg 351 86 disconnect;
#X obj 391 384 print~;
#X msg 369 152 format float;
#X msg 368 174 format 16bit;
#X msg 368 194 format 8bit;
#X connect 1 0 0 0;
#X connect 2 0 3 0;
#X connect 2 0 3 1;
#X connect 2 0 6 0;
#X connect 4 0 0 0;
#X connect 5 0 0 0;
#X connect 7 0 0 0;
#X connect 8 0 0 0;
#X connect 9 0 0 0;
