#N canvas 2 71 1920 1006 10;
#X obj 70 20 faderdmx 1 1fader D;
#X obj 130 20 faderdmx 2 2fader D;
#X obj 190 20 faderdmx 3 3fader D;
#X obj 250 20 faderdmx 4 4fader D;
#X obj 310 20 faderdmx 5 5fader D;
#X obj 370 20 faderdmx 6 6fader D;
#X obj 430 20 faderdmx 7 7fader D;
#X obj 490 20 faderdmx 8 8fader D;
#X obj 550 20 faderdmx 9 9fader D;
#X obj 610 20 faderdmx 10 10fader D;
#X obj 670 20 faderdmx 11 11fader D;
#X obj 730 20 faderdmx 12 12fader D;
#X obj 70 412 faderdmx 13 13fader D;
#X obj 130 412 faderdmx 14 14fader D;
#X obj 190 412 faderdmx 15 15fader D;
#X obj 250 412 faderdmx 16 16fader D;
#X obj 310 412 faderdmx 17 17fader D;
#X obj 370 412 faderdmx 18 18fader D;
#X obj 430 412 faderdmx 19 19fader D;
#X obj 490 412 faderdmx 20 20fader D;
#X obj 550 412 faderdmx 21 21fader D;
#X obj 610 412 faderdmx 22 22fader D;
#X obj 670 412 faderdmx 23 23fader D;
#X obj 730 412 faderdmx 24 24fader D;
#X obj 1035 165 HEADER_StuART;
#X obj 937 641 4x3ch;
#X text 838 70 mod 4x3ch pour universel;
#X obj 1651 665 DMX/master;
#X obj 930 878 OSC/OSC_to_OLA 7770 0 loc;
#X msg 834 198 \; repatch_1fader 1 \; repatch_2fader 2 \; repatch_3fader
3 \; repatch_4fader 4 \; repatch_5fader 5 \; repatch_6fader 6 \; repatch_7fader
7 \; repatch_8fader 8 \; repatch_9fader 9 \; repatch_10fader 10 \;
repatch_11fader 11 \; repatch_12fader 12 \; repatch_13fader 13 \; repatch_14fader
14 \; repatch_15fader 15 \; repatch_16fader 16 \; repatch_17fader 17
\; repatch_18fader 18 \; repatch_19fader 19 \; repatch_20fader 20 \;
repatch_21fader 21 \; repatch_22fader 22 \; repatch_23fader 23 \; repatch_24fader
24 \;;
#X obj 855 127 qlist;
#X obj 891 163 print done_qlist;
#X obj 847 97 bng 15 250 50 0 empty empty empty 17 7 0 10 -262144 -1
-1;
#X obj 1020 43 CONFIG/CONFIGURE-local;
#X connect 30 0 31 0;
#X connect 30 1 31 0;
#X connect 32 0 30 0;
