#N canvas 1067 366 480 531 10;
#X obj 99 47 inlet;
#X msg 260 136 set 0;
#X obj 266 399 f;
#X obj 159 287 * 8;
#X obj 174 267 * 4;
#X obj 189 247 * 2;
#X obj 251 229 * 1;
#X obj 99 70 t a b b;
#X obj 204 383 +;
#X obj 251 433 +;
#X obj 219 229 * 0;
#X obj 204 188 t f f;
#X obj 251 456 outlet;
#X obj 99 153 cycle 4, f 18;
#X connect 0 0 7 0;
#X connect 1 0 13 0;
#X connect 2 0 8 1;
#X connect 2 0 9 1;
#X connect 3 0 8 0;
#X connect 4 0 8 0;
#X connect 5 0 8 0;
#X connect 6 0 9 0;
#X connect 7 0 13 0;
#X connect 7 1 1 0;
#X connect 8 0 2 0;
#X connect 9 0 12 0;
#X connect 10 0 8 1;
#X connect 11 0 10 0;
#X connect 11 1 6 0;
#X connect 13 0 3 0;
#X connect 13 1 4 0;
#X connect 13 2 5 0;
#X connect 13 3 11 0;
