#N canvas 1067 366 480 531 10;
#X obj 99 47 inlet;
#X obj 99 153 cycle 8, f 18;
#X msg 260 136 set 0;
#X obj 266 399 f;
#X obj 99 367 * 128;
#X obj 114 347 * 64;
#X obj 129 327 * 32;
#X obj 144 307 * 16;
#X obj 159 287 * 8;
#X obj 174 267 * 4;
#X obj 189 247 * 2;
#X obj 251 229 * 1;
#X obj 99 70 t a b b;
#X obj 204 383 +;
#X obj 251 433 +;
#X obj 219 229 * 0;
#X obj 204 188 t f f;
#X obj 251 456 outlet;
#X connect 0 0 12 0;
#X connect 1 0 4 0;
#X connect 1 1 5 0;
#X connect 1 2 6 0;
#X connect 1 3 7 0;
#X connect 1 4 8 0;
#X connect 1 5 9 0;
#X connect 1 6 10 0;
#X connect 1 7 16 0;
#X connect 2 0 1 0;
#X connect 3 0 13 1;
#X connect 3 0 14 1;
#X connect 4 0 13 0;
#X connect 5 0 13 0;
#X connect 6 0 13 0;
#X connect 7 0 13 0;
#X connect 8 0 13 0;
#X connect 9 0 13 0;
#X connect 10 0 13 0;
#X connect 11 0 14 0;
#X connect 12 0 1 0;
#X connect 12 1 2 0;
#X connect 13 0 3 0;
#X connect 14 0 17 0;
#X connect 15 0 13 1;
#X connect 16 0 15 0;
#X connect 16 1 11 0;
