#N canvas 1026 336 450 300 10;
#X obj 100 35 inlet;
#X obj 100 58 t f f b;
#X obj 100 161 div 256;
#X obj 119 101 mod 256;
#X obj 100 184 Dec2Bin8;
#X obj 119 124 Dec2Bin8;
#X obj 100 217 list append;
#X obj 100 248 outlet;
#X connect 0 0 1 0;
#X connect 1 0 2 0;
#X connect 1 1 3 0;
#X connect 2 0 4 0;
#X connect 3 0 5 0;
#X connect 4 0 6 0;
#X connect 5 0 6 1;
#X connect 6 0 7 0;
