#N canvas 666 392 377 293 10;
#X obj 86 23 inlet;
#X obj 86 104 div 16;
#X obj 86 127 text get Hex2Dec_table 2;
#X obj 86 150 cycle 2;
#X obj 65 188 pack;
#X obj 65 211 list tosymbol;
#X obj 65 234 outlet;
#X obj 105 74 mod 16;
#X msg 271 134 set 0;
#X obj 86 46 t f f b;
#X connect 0 0 9 0;
#X connect 1 0 2 0;
#X connect 2 0 3 0;
#X connect 3 0 4 1;
#X connect 3 1 4 0;
#X connect 4 0 5 0;
#X connect 5 0 6 0;
#X connect 7 0 2 0;
#X connect 8 0 3 0;
#X connect 9 0 1 0;
#X connect 9 1 7 0;
#X connect 9 2 8 0;
