#N canvas 919 215 583 648 10;
#X obj 334 164 hradio 15 1 0 3 empty empty 0_H_B 5 7 0 12 -262144 -4034
-258113 1;
#X obj 334 6 inlet;
#X msg 283 575 set;
#X obj 283 532 bng 15 250 50 0 empty raz raz 17 7 0 10 -228856 -1 -1
;
#X floatatom 74 33 5 0 32768 0 - - -;
#X obj 114 55 t f f;
#X obj 114 6 inlet;
#X obj 191 119 mod 256;
#X obj 114 119 div 256;
#X obj 114 568 prepend set;
#X msg 114 591;
#X obj 114 547 spigot;
#X obj 159 534 tgl 15 0 empty empty view-output 17 7 0 10 -262144 -1
-1 0 1;
#X obj 301 164 tgl 15 1 empty \$0-toggle GB 17 7 0 10 -262144 -1 -1
1 1;
#X obj 114 488 list append;
#X obj 310 575 prepend \$0;
#X obj 303 184 route 0 1;
#X obj 328 317 prepend \$0;
#X obj 303 407 prepend \$0;
#X obj 114 310 spigot;
#X obj 114 250 t a a;
#X obj 141 280 spigot;
#X obj 191 310 spigot;
#X obj 191 250 t a a;
#X obj 218 280 spigot;
#X obj 281 297 tgl 15 1 empty \$0-PB \$0-PB 17 7 0 10 -262144 -1 -1
0 1;
#X obj 281 267 tgl 15 1 empty \$0-GB \$0-GB 17 7 0 10 -262144 -1 -1
1 1;
#X msg 310 598 \; \$1-toggle label #0-toggle;
#X obj 191 488 list prepend;
#X obj 481 504 outlet;
#X obj 283 552 t b b;
#X msg 303 427 \; \$1-toggle label PB \; \$1-PB 1 \; \$1-GB 0;
#X msg 328 337 \; \$1-toggle label GB \; \$1-PB 0 \; \$1-GB 1;
#X text 444 31 [loadbang];
#X text 444 46 |;
#X text 444 76 |;
#X text 444 61 [read Hex2Dec_table(;
#X text 444 90 [text define -k Hex2Dec_table];
#X text 224 53 PB PetitBoutiste GB GrosBoutiste;
#X obj 191 217 Dec2Hex8b;
#X obj 114 217 Dec2Hex8b;
#X obj 44 261 cycle 4;
#X obj 301 6 inlet;
#X connect 0 0 39 1;
#X connect 0 0 40 1;
#X connect 1 0 0 0;
#X connect 2 0 10 0;
#X connect 3 0 30 0;
#X connect 4 0 5 0;
#X connect 5 0 8 0;
#X connect 5 1 7 0;
#X connect 6 0 5 0;
#X connect 7 0 39 0;
#X connect 8 0 40 0;
#X connect 9 0 10 0;
#X connect 11 0 9 0;
#X connect 12 0 11 1;
#X connect 13 0 16 0;
#X connect 14 0 11 0;
#X connect 14 0 29 0;
#X connect 15 0 27 0;
#X connect 16 0 18 0;
#X connect 16 1 17 0;
#X connect 17 0 32 0;
#X connect 18 0 31 0;
#X connect 19 0 14 0;
#X connect 20 0 19 0;
#X connect 20 1 21 0;
#X connect 21 0 28 0;
#X connect 22 0 14 1;
#X connect 23 0 22 0;
#X connect 23 1 24 0;
#X connect 24 0 28 1;
#X connect 25 0 22 1;
#X connect 25 0 19 1;
#X connect 26 0 24 1;
#X connect 26 0 21 1;
#X connect 28 0 11 0;
#X connect 28 0 29 0;
#X connect 30 0 2 0;
#X connect 30 1 15 0;
#X connect 39 0 23 0;
#X connect 40 0 20 0;
#X connect 42 0 13 0;
#X coords 0 -1 1 1 80 30 1 300 150;
