#N canvas 666 422 377 293 10;
#X obj 86 23 inlet;
#X obj 86 104 div 16;
#X obj 86 238 outlet;
#X obj 105 74 mod 16;
#X msg 271 134 set 0;
#X obj 86 46 t f f b;
#X obj 86 150 cycle 8, f 20;
#X obj 86 212 pack f f f f f f f f;
#X obj 86 127 text get Hex2Dec_table 3 4;
#X connect 0 0 5 0;
#X connect 1 0 8 0;
#X connect 3 0 8 0;
#X connect 4 0 6 0;
#X connect 5 0 1 0;
#X connect 5 1 3 0;
#X connect 5 2 4 0;
#X connect 6 0 7 7;
#X connect 6 1 7 6;
#X connect 6 2 7 5;
#X connect 6 3 7 4;
#X connect 6 4 7 3;
#X connect 6 5 7 2;
#X connect 6 6 7 1;
#X connect 6 7 7 0;
#X connect 7 0 2 0;
#X connect 8 0 6 0;
