#N canvas 478 468 573 472 10;
#X floatatom 98 41 5 0 255 0 - - -;
#X obj 138 117 div 16;
#X obj 132 274 cycle 2;
#X obj 132 321 pack;
#X obj 132 350 list tosymbol;
#X obj 180 413 prepend set;
#X msg 180 436;
#X obj 165 96 mod 16;
#X obj 287 273 cycle 8, f 18;
#X obj 287 321 pack f f f f f f f f;
#X obj 132 201 gate 2;
#X obj 105 172 gate 2;
#X obj 241 114 hradio 15 1 0 3 empty empty 0_H_B 5 7 0 12 -262144 -4034
-258113 1;
#X msg 289 420 set;
#X obj 289 402 bng 15 250 50 0 empty raz raz 17 7 0 10 -228856 -1 -1
;
#X obj 138 14 inlet;
#X obj 241 14 inlet;
#X obj 132 412 outlet;
#X obj 180 392 spigot;
#X obj 225 379 tgl 15 0 empty empty view-output 17 7 0 10 -262144 -1
-1 0 1;
#X obj 132 250 text get Hex2Dec_table 2;
#X obj 287 250 text get Hex2Dec_table 3 4;
#X text 358 86 [loadbang];
#X text 358 101 |;
#X text 358 131 |;
#X text 358 116 [read Hex2Dec_table(;
#X text 358 145 [text define -k Hex2Dec_table];
#X obj 138 63 t f f b;
#X msg 39 248 set 0;
#X connect 0 0 27 0;
#X connect 1 0 11 1;
#X connect 2 0 3 1;
#X connect 2 1 3 0;
#X connect 3 0 4 0;
#X connect 4 0 17 0;
#X connect 4 0 18 0;
#X connect 5 0 6 0;
#X connect 7 0 10 1;
#X connect 8 0 9 7;
#X connect 8 1 9 6;
#X connect 8 2 9 5;
#X connect 8 3 9 4;
#X connect 8 4 9 3;
#X connect 8 5 9 2;
#X connect 8 6 9 1;
#X connect 8 7 9 0;
#X connect 9 0 17 0;
#X connect 9 0 18 0;
#X connect 10 0 20 0;
#X connect 10 1 21 0;
#X connect 11 0 20 0;
#X connect 11 1 21 0;
#X connect 12 0 11 0;
#X connect 12 0 10 0;
#X connect 13 0 6 0;
#X connect 14 0 13 0;
#X connect 15 0 27 0;
#X connect 16 0 12 0;
#X connect 18 0 5 0;
#X connect 19 0 18 1;
#X connect 20 0 2 0;
#X connect 21 0 8 0;
#X connect 27 0 1 0;
#X connect 27 1 7 0;
#X connect 27 2 28 0;
#X connect 28 0 2 0;
#X connect 28 0 8 0;
