#N canvas 1107 332 553 471 10;
#X obj 157 49 inlet;
#X obj 157 72 t f f b;
#X obj 157 181 div 256;
#X obj 157 204 Dec2Hex8;
#X obj 226 204 Dec2Hex8;
#X obj 226 181 mod 256;
#X obj 97 221 cycle 4;
#X obj 304 52 tgl 15 0 empty \$0-t \$0-t 17 7 0 10 -262144 -1 -1 2
2;
#X msg 304 72 set set \$1;
#X msg 304 205 set 2;
#X obj 28 314 list prepend;
#X obj 136 314 list append;
#X obj 398 60 tgl 15 0 empty \$0-toggle PB 17 7 0 10 -262144 -1 -1
0 1;
#X obj 398 80 route 0 1;
#X obj 423 123 prepend \$0;
#X obj 398 223 prepend \$0;
#X msg 423 153 \; \$1-toggle label GB \; \$1-t 0 \;;
#X msg 398 253 \; \$1-toggle label PB \; \$1-t 2;
#X obj 398 35 \$1;
#X obj 398 10 loadbang;
#X obj 28 367 outlet;
#X obj 88 367 outlet;
#X obj 138 367 outlet;
#X connect 0 0 1 0;
#X connect 1 0 2 0;
#X connect 1 1 5 0;
#X connect 1 2 9 0;
#X connect 2 0 3 0;
#X connect 3 0 6 0;
#X connect 4 0 6 0;
#X connect 5 0 4 0;
#X connect 6 0 10 1;
#X connect 6 0 21 0;
#X connect 6 1 10 0;
#X connect 6 1 22 0;
#X connect 6 2 11 1;
#X connect 6 2 22 0;
#X connect 6 3 11 0;
#X connect 6 3 21 0;
#X connect 7 0 8 0;
#X connect 8 0 9 0;
#X connect 9 0 6 0;
#X connect 10 0 20 0;
#X connect 11 0 20 0;
#X connect 12 0 13 0;
#X connect 13 0 15 0;
#X connect 13 1 14 0;
#X connect 14 0 16 0;
#X connect 15 0 17 0;
#X connect 18 0 12 0;
#X connect 19 0 18 0;
