#N canvas 953 301 511 356 10;
#X obj 110 18 inlet;
#X obj 110 41 t l b;
#X obj 110 71 list split 1;
#X obj 110 134 Hex2Dec8;
#X obj 144 104 Hex2Dec8;
#X obj 110 157 cycle 4;
#X obj 110 190 * 256;
#X obj 149 191 * 256;
#X obj 123 253 +;
#X obj 31 80 tgl 15 0 empty \$0-t \$0-t 17 7 0 10 -262144 -1 -1 0 2
;
#X msg 31 100 set set \$1;
#X msg 31 123 set 0;
#X obj 301 54 tgl 15 0 empty \$0-toggle GB 17 7 0 10 -262144 -1 -1
1 1;
#X obj 301 74 route 0 1;
#X obj 326 117 prepend \$0;
#X obj 301 217 prepend \$0;
#X msg 326 147 \; \$1-toggle label GB \; \$1-t 0 \;;
#X msg 301 247 \; \$1-toggle label PB \; \$1-t 2;
#X obj 301 29 \$1;
#X obj 301 4 loadbang;
#X obj 123 276 outlet;
#X connect 0 0 1 0;
#X connect 1 0 2 0;
#X connect 1 1 11 0;
#X connect 2 0 3 0;
#X connect 2 1 4 0;
#X connect 3 0 5 0;
#X connect 4 0 5 0;
#X connect 5 0 6 0;
#X connect 5 1 8 0;
#X connect 5 2 8 1;
#X connect 5 3 7 0;
#X connect 6 0 8 1;
#X connect 7 0 8 0;
#X connect 8 0 20 0;
#X connect 9 0 10 0;
#X connect 10 0 11 0;
#X connect 11 0 5 0;
#X connect 12 0 13 0;
#X connect 13 0 15 0;
#X connect 13 1 14 0;
#X connect 14 0 16 0;
#X connect 15 0 17 0;
#X connect 18 0 12 0;
#X connect 19 0 18 0;
