#N canvas 109 530 644 481 10;
#X obj 186 360 prepend set;
#X msg 186 383 255;
#X msg 295 367 set;
#X obj 295 349 bng 15 250 50 0 empty raz raz 17 7 0 10 -228856 -1 -1
;
#X obj 138 4 inlet;
#X obj 138 339 outlet;
#X obj 186 339 spigot;
#X obj 231 326 tgl 15 0 empty empty view-output 17 7 0 10 -262144 -1
-1 0 1;
#X text 334 40 [loadbang];
#X text 334 55 |;
#X text 334 135 |;
#X text 334 120 [read Hex2Dec_table(;
#X text 334 149 [text define -k Hex2Dec_table];
#X msg 46 170 set 0;
#X obj 138 117 list fromsymbol;
#X obj 138 140 unpack;
#X obj 138 180 text search Hex2Dec_table 2;
#X obj 138 203 text get Hex2Dec_table 0;
#X obj 138 226 cycle 2;
#X obj 138 37 t a b;
#X obj 138 279 +;
#X obj 177 252 * 16;
#X obj 138 60 symbol;
#X msg 85 21 FF;
#X msg 5 21 symbol 0x50;
#X obj 192 30 route float symbol;
#X obj 399 183 t f f;
#X obj 399 206 div 10;
#X obj 459 206 mod 10;
#X obj 399 229 * 16;
#X obj 399 252 +;
#X connect 0 0 1 0;
#X connect 2 0 1 0;
#X connect 3 0 2 0;
#X connect 4 0 25 0;
#X connect 6 0 0 0;
#X connect 7 0 6 1;
#X connect 13 0 18 0;
#X connect 14 0 15 0;
#X connect 15 0 16 0;
#X connect 15 1 16 0;
#X connect 16 0 17 0;
#X connect 17 0 18 0;
#X connect 18 0 20 1;
#X connect 18 1 21 0;
#X connect 19 0 22 0;
#X connect 19 1 13 0;
#X connect 20 0 5 0;
#X connect 20 0 6 0;
#X connect 21 0 20 0;
#X connect 22 0 14 0;
#X connect 23 0 19 0;
#X connect 24 0 19 0;
#X connect 25 0 26 0;
#X connect 25 1 19 0;
#X connect 26 0 27 0;
#X connect 26 1 28 0;
#X connect 27 0 29 0;
#X connect 28 0 30 1;
#X connect 29 0 30 0;
#X connect 30 0 5 0;
#X connect 30 0 6 0;
