#N canvas 909 259 644 481 10;
#X obj 186 310 prepend set;
#X msg 186 333;
#X msg 295 317 set;
#X obj 295 299 bng 15 250 50 0 empty raz raz 17 7 0 10 -228856 -1 -1
;
#X obj 138 14 inlet;
#X obj 138 289 outlet;
#X obj 186 289 spigot;
#X obj 231 276 tgl 15 0 empty empty view-output 17 7 0 10 -262144 -1
-1 0 1;
#X text 334 40 [loadbang];
#X text 334 55 |;
#X text 334 85 |;
#X text 334 70 [read Hex2Dec_table(;
#X text 334 99 [text define -k Hex2Dec_table];
#X msg 46 120 set 0;
#X obj 138 67 list fromsymbol;
#X obj 138 90 unpack;
#X obj 138 130 text search Hex2Dec_table 2;
#X obj 138 153 text get Hex2Dec_table 0;
#X obj 138 176 cycle 2;
#X obj 138 37 t a b;
#X obj 138 229 +;
#X obj 177 202 * 16;
#X msg 65 21 symbol FF;
#X msg 5 21 symbol F0;
#X connect 0 0 1 0;
#X connect 2 0 1 0;
#X connect 3 0 2 0;
#X connect 4 0 19 0;
#X connect 6 0 0 0;
#X connect 7 0 6 1;
#X connect 13 0 18 0;
#X connect 14 0 15 0;
#X connect 15 0 16 0;
#X connect 15 1 16 0;
#X connect 16 0 17 0;
#X connect 17 0 18 0;
#X connect 18 0 20 1;
#X connect 18 1 21 0;
#X connect 19 0 14 0;
#X connect 19 1 13 0;
#X connect 20 0 5 0;
#X connect 20 0 6 0;
#X connect 21 0 20 0;
#X connect 22 0 19 0;
#X connect 23 0 19 0;
