#N canvas 919 215 583 648 10;
#X obj 301 6 inlet;
#X msg 296 533 set;
#X obj 296 490 bng 15 250 50 0 empty raz raz 17 7 0 10 -228856 -1 -1
;
#X floatatom 74 33 5 0 32768 0 - - -;
#X obj 114 6 inlet;
#X obj 127 526 prepend set;
#X msg 127 549;
#X obj 127 505 spigot;
#X obj 172 492 tgl 15 0 empty empty view-output 17 7 0 10 -262144 -1
-1 0 1;
#X obj 301 164 tgl 15 1 empty \$0-toggle \$0-toggle 17 7 0 10 -262144
-1 -1 1 1;
#X obj 323 533 prepend \$0;
#X obj 301 184 route 0 1;
#X obj 326 227 prepend \$0;
#X obj 301 327 prepend \$0;
#X msg 323 556 \; \$1-toggle label #0-toggle;
#X obj 481 504 outlet;
#X obj 296 510 t b b;
#X text 444 31 [loadbang];
#X text 444 46 |;
#X text 444 76 |;
#X text 444 61 [read Hex2Dec_table(;
#X text 444 90 [text define -k Hex2Dec_table];
#X text 202 53 PB PetitBoutiste GB GrosBoutiste;
#X obj 114 185 cycle 4;
#X obj 114 148 Hex2Dec8b;
#X obj 148 118 Hex2Dec8b;
#X obj 31 80 tgl 15 0 empty \$0-t \$0-t 17 7 0 10 -262144 -1 -1 0 2
;
#X msg 31 100 set set \$1;
#X msg 31 123 set 0;
#X msg 326 257 \; \$1-toggle label GB \; \$1-t 0 \;;
#X msg 301 357 \; \$1-toggle label PB \; \$1-t 2;
#X obj 127 311 +;
#X obj 114 78 list split 1;
#X obj 114 55 t l b;
#X floatatom 188 141 5 0 0 0 - - -;
#X floatatom 174 171 5 0 0 0 - - -;
#X obj 114 258 * 256;
#X obj 153 258 * 256;
#X connect 0 0 9 0;
#X connect 1 0 6 0;
#X connect 2 0 16 0;
#X connect 3 0 33 0;
#X connect 4 0 33 0;
#X connect 5 0 6 0;
#X connect 7 0 5 0;
#X connect 8 0 7 1;
#X connect 9 0 11 0;
#X connect 10 0 14 0;
#X connect 11 0 13 0;
#X connect 11 1 12 0;
#X connect 12 0 29 0;
#X connect 13 0 30 0;
#X connect 16 0 1 0;
#X connect 16 1 10 0;
#X connect 23 0 36 0;
#X connect 23 1 31 0;
#X connect 23 2 31 1;
#X connect 23 3 37 0;
#X connect 24 0 23 0;
#X connect 24 0 35 0;
#X connect 25 0 23 0;
#X connect 25 0 34 0;
#X connect 26 0 27 0;
#X connect 27 0 28 0;
#X connect 28 0 23 0;
#X connect 31 0 7 0;
#X connect 31 0 15 0;
#X connect 32 0 24 0;
#X connect 32 1 25 0;
#X connect 33 0 32 0;
#X connect 33 1 28 0;
#X connect 36 0 31 1;
#X connect 37 0 31 0;
#X coords 0 -1 1 1 80 30 1 300 150;
