#N canvas 528 124 1039 412 10;
#X msg 415 24 read Hex2Dec_table;
#X obj 415 49 text define -k Hex2Dec_table;
#A set 0 0 48 0 0 0 0 \; 1 1 49 1 0 0 0 \; 2 2 50 0 1 0 0 \; 3 3 51
1 1 0 0 \; 4 4 52 0 0 1 0 \; 5 5 53 1 0 1 0 \; 6 6 54 0 1 1 0 \; 7
7 55 1 1 1 0 \; 8 8 56 0 0 0 1 \; 9 9 57 1 0 0 1 \; 10 A 65 0 1 0 1
\; 11 B 66 1 1 0 1 \; 12 C 67 0 0 1 1 \; 13 D 68 1 0 1 1 \; 14 E 69
0 1 1 1 \; 15 F 70 1 1 1 1 \;;
#X obj 855 180 prepend set;
#X msg 855 203 CD 0C;
#X floatatom 154 69 5 0 32768 0 - - -;
#X obj 930 68 hradio 15 1 1 3 empty empty 0_H_B 5 7 0 12 -262144 -4034
-258113 1;
#X obj 759 172 prepend set;
#X msg 759 195 B6;
#X floatatom 429 113 5 0 255 0 - - -;
#X obj 801 82 hradio 15 1 1 3 empty empty 0_H_B 5 7 0 12 -262144 -4034
-258113 1;
#X obj 759 106 Dec2Hex8b;
#X obj 845 96 Dec2Hex16b;
#X floatatom 429 312 5 0 0 0 - - -;
#X obj 845 254 Hex2Dec16b;
#X floatatom 845 289 5 0 0 0 - - -;
#X obj 893 5 tgl 15 0 empty empty empty 17 7 0 10 -262144 -1 -1 0 1
;
#X obj 429 153 Dec2Hex8;
#X obj 529 153 Dec2Bin8;
#X obj 449 219 prepend set;
#X msg 449 242 21;
#X obj 549 219 prepend set;
#X msg 549 242 0 0 1 0 0 0 0 1;
#X obj 429 289 Hex2Dec8;
#X obj 22 134 Dec2Hex16;
#X obj 102 134 Dec2Hex16 1;
#X obj 119 219 prepend set;
#X msg 119 242 21 00;
#X obj 29 219 prepend set;
#X msg 29 242 00 21;
#X obj 22 287 Hex2Dec16;
#X floatatom 22 310 5 0 0 0 - - -;
#X floatatom 102 310 5 0 0 0 - - -;
#X obj 102 287 Hex2Dec16 1;
#X floatatom 529 312 5 0 0 0 - - -;
#X obj 192 134 Dec2Bin16;
#X obj 212 219 prepend set;
#X msg 212 242 0 0 0 0 0 0 0 0 0 0 1 0 0 0 0 1;
#X floatatom 192 310 5 0 0 0 - - -;
#X obj 192 287 Bin2Dec16;
#X obj 529 289 Bin2Dec8;
#X obj 647 138 Ascii2Hex;
#X obj 647 178 Hex2Ascii;
#X connect 0 0 1 0;
#X connect 2 0 3 0;
#X connect 4 0 24 0;
#X connect 4 0 23 0;
#X connect 4 0 34 0;
#X connect 5 0 11 2;
#X connect 6 0 7 0;
#X connect 8 0 16 0;
#X connect 8 0 17 0;
#X connect 9 0 10 1;
#X connect 10 0 6 0;
#X connect 11 0 2 0;
#X connect 11 0 13 0;
#X connect 13 0 14 0;
#X connect 15 0 11 1;
#X connect 15 0 13 1;
#X connect 16 0 18 0;
#X connect 16 0 22 0;
#X connect 17 0 20 0;
#X connect 17 0 39 0;
#X connect 18 0 19 0;
#X connect 20 0 21 0;
#X connect 21 0 39 0;
#X connect 22 0 12 0;
#X connect 23 0 27 0;
#X connect 23 0 29 0;
#X connect 24 0 25 0;
#X connect 24 0 32 0;
#X connect 25 0 26 0;
#X connect 27 0 28 0;
#X connect 29 0 30 0;
#X connect 32 0 31 0;
#X connect 34 0 35 0;
#X connect 34 0 38 0;
#X connect 35 0 36 0;
#X connect 38 0 37 0;
#X connect 39 0 33 0;
