#N canvas 337 274 1206 658 10;
#X obj 246 584 qlist;
#X msg 367 536 bang;
#X msg 246 491 line 0 \, bang;
#X obj 246 536 prepend add;
#X msg 265 471 clear;
#X obj 246 273 bng 15 250 50 0 empty Upgrade-\$0 Upgrade-\$0 17 7 0
10 -4032 -1 -1;
#X obj 352 262 loadbang;
#X obj 352 285 del 1000;
#X obj 133 530 list trim;
#X obj 133 553 print INIT;
#X msg 429 490 click;
#X obj 429 470 bng 15 250 50 0 empty open-\$0 open-\$0 17 7 0 10 -4034
-1 -1;
#X obj 246 513 text sequence init-\$0;
#X msg 285 419 read \$1;
#X msg 573 430 write \$1;
#X obj 285 374 symbol \$1;
#X obj 285 355 bng 15 250 50 0 empty empty Read 17 7 0 10 -262144 -1
-1;
#X obj 573 385 symbol \$1;
#X obj 573 366 bng 15 250 50 0 empty Write-\$0 Write-\$0 17 7 0 10
-258113 -1 -1;
#X obj 246 301 t b b b;
#X obj 203 165 bng 15 250 50 0 Upgrade-\$0 empty Upgrade 17 7 0 10
-4032 -1 -1;
#X obj 203 149 bng 15 250 50 0 open-\$0 empty Open 17 7 0 10 -4034
-1 -1;
#X obj 103 164 bng 15 250 50 0 Write-\$0 empty Write 17 7 0 10 -258113
-1 -1;
#X obj 429 513 text define init-\$0;
#X obj 524 264 inlet;
#X symbolatom 167 235 60 0 0 0 - - -;
#X obj 315 160 bng 15 250 50 0 empty empty LOAD 17 7 0 10 -257985 -1
-1;
#X obj 167 211 openpanel;
#X msg 863 30 read /home/pi/StuART/convert/Hex2Dec_table;
#X obj 863 53 text define -k Hex2Dec_table;
#A set 0 0 48 0 0 0 0 \; 1 1 49 1 0 0 0 \; 2 2 50 0 1 0 0 \; 3 3 51
1 1 0 0 \; 4 4 52 0 0 1 0 \; 5 5 53 1 0 1 0 \; 6 6 54 0 1 1 0 \; 7
7 55 1 1 1 0 \; 8 8 56 0 0 0 1 \; 9 9 57 1 0 0 1 \; 10 A 65 0 1 0 1
\; 11 B 66 1 1 0 1 \; 12 C 67 0 0 1 1 \; 13 D 68 1 0 1 1 \; 14 E 69
0 1 1 1 \; 15 F 70 1 1 1 1 \;;
#X obj 863 74 text define -k VECTOR_ROOT;
#A set 4 VECTOR_ROOT_E131_DATA 0x00000004 DATA \; 8 VECTOR_ROOT_E131_EXTENDED
0x00000008 EXTENDED \;;
#X obj 863 94 text define -k VECTOR_E131_DATA;
#A set 2 VECTOR_E131_DATA_PACKET 0x00000002 DATA_PACKET \;;
#X obj 863 114 text define -k VECTOR_E131_EXTENDED;
#A set 1 VECTOR_E131_EXTENDED_SYNCHRONIZATION 0x00000001 DISCOVERY
\; 2 VECTOR_E131_EXTENDED_DISCOVERY 0x00000002 EXTENDED \;;
#X msg 862 142 symbol ~/StuART/CONFIG;
#X obj 599 288 savepanel;
#X obj 315 145 bng 15 250 50 0 empty empty Save_as 17 7 0 10 -257985
-1 -1;
#X msg 599 223 symbol ~/StuART/CONFIG;
#X symbolatom 599 312 60 0 0 0 - - -;
#X msg 167 187 symbol ~/Documents/;
#X obj 573 407 makefilename %s.StuART;
#X obj 285 396 makefilename %s.StuART;
#X connect 1 0 0 0;
#X connect 2 0 12 0;
#X connect 3 0 0 0;
#X connect 4 0 0 0;
#X connect 5 0 19 0;
#X connect 6 0 7 0;
#X connect 7 0 19 0;
#X connect 8 0 9 0;
#X connect 10 0 23 0;
#X connect 11 0 10 0;
#X connect 12 0 3 0;
#X connect 12 0 8 0;
#X connect 12 1 1 0;
#X connect 13 0 23 0;
#X connect 14 0 23 0;
#X connect 15 0 40 0;
#X connect 16 0 15 0;
#X connect 17 0 39 0;
#X connect 18 0 17 0;
#X connect 19 0 2 0;
#X connect 19 1 4 0;
#X connect 19 2 16 0;
#X connect 24 0 17 1;
#X connect 24 0 15 1;
#X connect 25 0 13 0;
#X connect 26 0 38 0;
#X connect 27 0 25 0;
#X connect 28 0 29 0;
#X connect 34 0 37 0;
#X connect 35 0 36 0;
#X connect 35 0 34 0;
#X connect 37 0 14 0;
#X connect 38 0 27 0;
#X connect 39 0 14 0;
#X connect 40 0 13 0;
#X coords 0 -1 1 1 400 80 1 100 100;
