#N canvas 666 216 843 412 12;
#X obj 101 101 tgl 20 0 empty empty \$2 5 11 0 12 #9c00ff #00ff04 #faff00 0 1;
#X text 104 18 ESP-8266-OSC-WS2812B-PIXLED-selecteur NumPixledSerie NumPixled, f 63;
#X obj 53 63 bng 20 250 50 0 empty ESP-8266-OSC-WS2812B-PIXLED-selecteur-Send-\$1 r_ESP-8266-OSC-WS2812B-PIXLED-selecteur-Send-\$1 0 -10 0 12 #00ff04 #000000 #000000;
#X obj 101 174 f \$2;
#X msg 101 201 set \$1;
#X obj 101 144 route 1;
#X obj 101 251 route 0;
#X obj 147 309 send ESP-8266-OSC-WS2812B-PIXLED-selecteur-\$1;
#X obj 147 278 - 1;
#X msg 101 226 1;
#X obj 243 99 r ESP-8266-OSC-WS2812B-PIXLED-selecteur-toggleall-\$1;
#X obj 243 79 r ESP-8266-OSC-WS2812B-PIXLED-selecteur-toggleall-\$1-\$2;
#X obj 243 119 r PIXLED-SERIE-MANAGER-selecteur-toggleall-\$1;
#X msg 264 181 0;
#X msg 298 181 1;
#X obj 246 209 i;
#X obj 246 148 r INVERT-\$1;
#X connect 0 0 5 0;
#X connect 2 0 9 0;
#X connect 3 0 4 0;
#X connect 4 0 9 0;
#X connect 5 0 3 0;
#X connect 5 0 13 0;
#X connect 5 1 4 0;
#X connect 5 1 14 0;
#X connect 6 1 8 0;
#X connect 8 0 7 0;
#X connect 9 0 6 0;
#X connect 10 0 0 0;
#X connect 11 0 0 0;
#X connect 12 0 0 0;
#X connect 13 0 15 1;
#X connect 14 0 15 1;
#X connect 15 0 0 0;
#X connect 16 0 15 0;
#X coords 0 -1 1 1 22 22 2 100 100;
