#N canvas 1031 346 668 300 12;
#X obj 357 109 r IP-StuART_GPIO/\$1;
#X obj 220 66 routeOSC /GPIO/\$1;
#X obj 220 24 inlet;
#X msg 264 206 /GPIO \$1;
#X obj 101 129 OSCsender 0 8888 GPIO/\$1_;
#X obj 357 86 outlet;
#X obj 220 104 hradio 20 1 0 4 empty empty empty 0 -10 0 12 #faff00 #000000 #000000 0;
#X obj 125 23 r GPIO/\$1;
#X connect 0 0 4 1;
#X connect 1 0 6 0;
#X connect 1 1 5 0;
#X connect 2 0 1 0;
#X connect 3 0 4 0;
#X connect 6 0 3 0;
#X connect 7 0 6 0;
#X coords 0 -1 1 1 202 60 1 100 100;
