#N canvas 0 36 1920 977 12;
#X obj 875 483 list length;
#X obj 875 508 list append;
#X obj 875 558 list append 0 0 0;
#X obj 875 533 list append 1000;
#X obj 875 583 prepend /FADE_SERIE;
#X msg 1055 438 0 1 2 3 4 5 6 7 8 9 10 11 12 13 14 15 16 17 18;
#X obj 1055 348 bng 20 250 50 0 empty empty empty 0 -10 0 12 #fcfcfc #000000 #000000;
#X obj 875 453 t l l;
#X msg 1055 528 1000;
#X obj 1055 468 r ESP-8266-OSC-WS2812B-PIXLED-SERIE-TIME-FADE-ALL;
#X obj 1045 488 r ESP-8266-OSC-WS2812B-PIXLED-SERIE-TIME-FADE-\$1;
#X obj 1055 508 r ESP-8266-OSC-WS2812B-PIXLED-SERIE-TIME-FADE-\$0;
#X obj 1055 558 r ESP-8266-OSC-WS2812B-PIXLED-SERIE-RGB-ALL;
#X obj 1045 578 r ESP-8266-OSC-WS2812B-PIXLED-SERIE-RGB-\$1;
#X obj 1055 598 r ESP-8266-OSC-WS2812B-PIXLED-SERIE-RGB-\$0;
#X obj 1055 378 r ESP-8266-OSC-WS2812B-PIXLED-SERIE-LIST-ALL;
#X obj 1045 398 r ESP-8266-OSC-WS2812B-PIXLED-SERIE-LIST-\$1;
#X obj 1055 418 r ESP-8266-OSC-WS2812B-PIXLED-SERIE-LIST-\$0;
#X obj 1055 288 r ESP-8266-OSC-WS2812B-PIXLED-SERIE-GO-ALL;
#X obj 1045 308 r ESP-8266-OSC-WS2812B-PIXLED-SERIE-GO-\$1;
#X obj 1055 328 r ESP-8266-OSC-WS2812B-PIXLED-SERIE-GO-\$0;
#X obj 907 634 prepend set;
#X obj 875 608 t a a;
#X msg 907 665 /FADE_SERIE 32 63 61 59 57 55 53 51 49 47 45 43 41 39 37 35 33 31 29 27 25 23 21 19 17 15 13 11 9 7 5 3 1 20 0 0 255;
#X obj 875 709 s ESP-8266-OSC-WS2812B-PIXLED-SERIE-\$0;
#X msg 1169 841 OSCsender 127.0.0.1 8888 ESP-8266-OSC-WS2812B-PIXLED-\$1;
#X obj 471 759 r ESP-8266-OSC-WS2812B-PIXLED-SERIE-\$0;
#X obj 930 746 r ESP-8266-OSC-WS2812B-PIXLED-DIMMER-ALL;
#X obj 930 766 r ESP-8266-OSC-WS2812B-PIXLED-DIMMER-\$1;
#X obj 930 786 r ESP-8266-OSC-WS2812B-PIXLED-DIMMER-\$0;
#X obj 810 825 prepend /DIMMER;
#X floatatom 930 806 5 0 255 0 - - - 0;
#X obj 810 930 s ESP-8266-OSC-WS2812B-PIXLED-SERIE-\$0;
#X obj 962 624 bng 10 250 50 0 empty raz-\$0 raz-\$0 10 4 0 12 #ff0400 #000000 #000000;
#X obj 842 872 prepend set;
#X msg 842 905 /DIMMER 249;
#X obj 897 862 bng 10 250 50 0 empty raz-\$0 raz-\$0 10 4 0 12 #ff0400 #000000 #000000;
#X obj 810 850 t a a;
#X obj 979 293 bng 10 250 50 0 raz-\$0 empty raz-\$0 10 4 0 12 #ff0400 #000000 #000000;
#X obj 1053 248 s ESP-8266-OSC-WS2812B-PIXLED-SERIE-GO-\$1;
#X obj 106 189 bng 20 250 50 0 empty empty SEND 25 10 0 12 #00ff04 #ff0400 #000000;
#X obj 1072 220 bng 20 250 50 0 SEND_ESP-8266-OSC-WS2812B-PIXLED-SERIE-LIST-\$1 empty SEND_ESP-8266-OSC-WS2812B-PIXLED-SERIE-LIST-\$1 0 -10 0 12 #faff00 #000000 #000000;
#X obj 1053 181 t b b b b;
#X msg 1054 618 0 255 255;
#X obj 1169 866 bng 20 250 50 0 empty empty empty 0 -10 0 12 #fcfcfc #000000 #000000;
#X msg 1169 921 \; ESP-8266-OSC-WS2812B-PIXLED-\$1 connect 255.255.255.255 8888;
#X obj 875 428 list prepend 1;
#X obj 715 892 outlet;
#X obj 1169 891 symbol \$1;
#X obj 481 739 r ESP-8266-OSC-WS2812B-PIXLED-SERIE-\$1;
#X obj 1053 138 bng 20 250 50 0 empty SEND-ESP-8266-OSC-WS2812B-PIXLED-SERIE-\$1 SEND-ESP-8266-OSC-WS2812B-PIXLED-SERIE-\$1 0 -10 0 12 #fcfcfc #000000 #000000;
#N canvas 0 32 1920 977 remote 0;
#X obj 1968 542 bng 20 250 50 0 empty empty SEND-ESP-8266-OSC-WS2812B-PIXLED-SERIE-\$1 0 -10 0 12 #fcfcfc #000000 #000000;
#X obj 1577 632 s ESP-8266-OSC-WS2812B-PIXLED-SERIE-GO-\$1;
#X obj 1577 722 s ESP-8266-OSC-WS2812B-PIXLED-SERIE-LIST-\$1;
#X obj 1577 752 s ESP-8266-OSC-WS2812B-PIXLED-SERIE-TIME-FADE-\$1;
#X obj 62 64 inlet;
#X obj 1061 160 list split 32;
#X obj 1061 211 list split 1;
#X obj 1061 289 moses 127;
#X obj 1004 247 t l b;
#X obj 1061 185 t l b;
#X msg 1233 205 set 0;
#X msg 1061 314 0;
#X msg 1121 314 1;
#X obj 962 246 list;
#X obj 1072 718 s ESP-8266-OSC-WS2812B-PIXLED-selecteur-toggleall-\$1-\$3 \$2;
#X obj 1060 879 s ESP-8266-OSC-WS2812B-PIXLED-selecteur-toggleall-\$1-\$3 \$2;
#X obj 1142 504 send;
#X obj 1061 394 int;
#X obj 1263 321 bng 20 250 50 0 empty empty empty 0 -10 0 12 #fcfcfc #000000 #000000;
#X obj 1286 320 loadbang;
#X obj 1286 344 symbol \$1;
#X obj 1118 797 prepend;
#X obj 1233 434 pack f s;
#X msg 1233 459 \$2-\$1;
#X msg 1286 368 set \, add2 symbol ESP-8266-OSC-WS2812B-PIXLED-selecteur-toggleall-\$1 \, 1;
#X obj 1233 484 symbol;
#X msg 1286 406 symbol ESP-8266-OSC-WS2812B-PIXLED-selecteur-toggleall-StuART_WS2812B/ambilight;
#X obj 1233 267 counter 0 1 32;
#X msg 1249 386 set;
#X obj 1061 484 t b l;
#X obj 1712 180 list split 2;
#X text 1163 159 SELECTION DES PIXELS;
#X text 1804 180 TIME;
#X text 2594 200 RGB;
#X obj 2502 200 list split 6;
#X obj 2502 255 list split 2;
#X obj 2502 280 unpack;
#X obj 2502 305 * 256;
#X obj 2502 330 +;
#X obj 2562 285 list split 2;
#X obj 2562 310 unpack;
#X obj 2562 335 * 256;
#X obj 2562 360 +;
#X obj 2622 315 list split 2;
#X obj 2622 340 unpack;
#X obj 2622 365 * 256;
#X obj 2622 390 +;
#X obj 2502 415 pack f f f;
#X obj 2744 275 bng 20 250 50 0 empty empty empty 0 -10 0 12 #fcfcfc #000000 #000000;
#X obj 2767 274 loadbang;
#X obj 2767 298 symbol \$1;
#X msg 2767 360 symbol ESP-8266-OSC-WS2812B-PIXLED-SERIE-RGB-StuART_WS2812B/ambilight;
#X msg 2730 340 set;
#X msg 2767 322 set \, add2 symbol ESP-8266-OSC-WS2812B-PIXLED-SERIE-RGB-\$1 \, 1;
#X obj 2767 415 symbol;
#X obj 2662 435 send;
#X obj 1712 425 unpack;
#X obj 1712 450 * 256;
#X obj 1712 475 +;
#X obj 1884 335 bng 20 250 50 0 empty empty empty 0 -10 0 12 #fcfcfc #000000 #000000;
#X obj 1907 334 loadbang;
#X obj 1907 358 symbol \$1;
#X msg 1907 420 symbol ESP-8266-OSC-WS2812B-PIXLED-SERIE-TIME-FADE-StuART_WS2812B/ambilight;
#X msg 1870 400 set;
#X obj 1907 475 symbol;
#X obj 1802 495 send;
#X msg 1907 382 set \, add2 symbol ESP-8266-OSC-WS2812B-PIXLED-SERIE-TIME-FADE-\$1 \, 1;
#X obj 455 215 bng 20 250 50 0 empty empty empty 0 -10 0 12 #fcfcfc #000000 #000000;
#X obj 478 214 loadbang;
#X obj 478 238 symbol \$1;
#X msg 478 300 symbol SEND-ESP-8266-OSC-WS2812B-PIXLED-SERIE-StuART_WS2812B/ambilight;
#X msg 441 280 set;
#X obj 478 355 symbol;
#X obj 423 375 send;
#X obj 62 120 list split 1;
#X obj 323 205 moses 127;
#X obj 383 355 bang;
#X obj 323 140 list split 1;
#X text 415 140 FIRE;
#X text 154 120 DIMMER;
#X obj 94 415 bng 20 250 50 0 empty empty empty 0 -10 0 12 #fcfcfc #000000 #000000;
#X obj 117 414 loadbang;
#X obj 117 438 symbol \$1;
#X msg 117 500 symbol ESP-8266-OSC-WS2812B-PIXLED-DIMMER-StuART_WS2812B/ambilight;
#X msg 80 480 set;
#X obj 117 555 symbol;
#X obj 62 575 send;
#X msg 117 462 set \, add2 symbol ESP-8266-OSC-WS2812B-PIXLED-DIMMER-\$1 \, 1;
#X text 78 26 [DIMMER[0-255] FIRE[0-126 \, 127-255] SELECT[32][0-255] TIME-16Bit RGB[3]16Bit(, f 108;
#X obj 62 145 change;
#X obj 329 261 bng 20 250 50 0 empty empty empty 0 -10 0 12 #fcfcfc #000000 #000000;
#X obj 1053 539 print wtf;
#X msg 478 262 set \, add2 symbol SEND-ESP-8266-OSC-WS2812B-PIXLED-SERIE-\$1 \, 1;
#X connect 4 0 74 0;
#X connect 5 0 9 0;
#X connect 5 1 30 0;
#X connect 6 0 7 0;
#X connect 6 1 8 0;
#X connect 7 0 11 0;
#X connect 7 1 12 0;
#X connect 8 0 13 1;
#X connect 8 1 27 0;
#X connect 9 0 6 0;
#X connect 9 1 10 0;
#X connect 10 0 27 0;
#X connect 11 0 17 0;
#X connect 12 0 17 0;
#X connect 13 0 6 0;
#X connect 17 0 29 0;
#X connect 18 0 20 0;
#X connect 19 0 20 0;
#X connect 20 0 24 0;
#X connect 22 0 23 0;
#X connect 23 0 25 0;
#X connect 24 0 26 0;
#X connect 25 0 16 1;
#X connect 25 0 91 0;
#X connect 26 0 22 1;
#X connect 27 0 17 1;
#X connect 27 0 22 0;
#X connect 28 0 26 0;
#X connect 29 0 13 0;
#X connect 29 1 16 0;
#X connect 29 1 91 0;
#X connect 30 0 56 0;
#X connect 30 1 34 0;
#X connect 34 0 35 0;
#X connect 35 0 36 0;
#X connect 35 1 39 0;
#X connect 36 0 37 0;
#X connect 36 1 38 1;
#X connect 37 0 38 0;
#X connect 38 0 47 0;
#X connect 39 0 40 0;
#X connect 39 1 43 0;
#X connect 40 0 41 0;
#X connect 40 1 42 1;
#X connect 41 0 42 0;
#X connect 42 0 47 1;
#X connect 43 0 44 0;
#X connect 44 0 45 0;
#X connect 44 1 46 1;
#X connect 45 0 46 0;
#X connect 46 0 47 2;
#X connect 47 0 55 0;
#X connect 48 0 50 0;
#X connect 49 0 50 0;
#X connect 50 0 53 0;
#X connect 51 0 54 0;
#X connect 52 0 51 0;
#X connect 53 0 51 0;
#X connect 54 0 55 1;
#X connect 56 0 57 0;
#X connect 56 1 58 1;
#X connect 57 0 58 0;
#X connect 58 0 65 0;
#X connect 59 0 61 0;
#X connect 60 0 61 0;
#X connect 61 0 66 0;
#X connect 62 0 64 0;
#X connect 63 0 62 0;
#X connect 64 0 65 1;
#X connect 66 0 62 0;
#X connect 67 0 69 0;
#X connect 68 0 69 0;
#X connect 69 0 92 0;
#X connect 70 0 72 0;
#X connect 71 0 70 0;
#X connect 72 0 73 1;
#X connect 74 0 89 0;
#X connect 74 1 77 0;
#X connect 75 1 76 0;
#X connect 76 0 73 0;
#X connect 77 0 75 0;
#X connect 77 1 5 0;
#X connect 80 0 82 0;
#X connect 81 0 82 0;
#X connect 82 0 87 0;
#X connect 83 0 85 0;
#X connect 84 0 83 0;
#X connect 85 0 86 1;
#X connect 87 0 83 0;
#X connect 89 0 86 0;
#X connect 90 0 76 0;
#X connect 92 0 70 0;
#X restore 920 75 pd remote;
#X obj 106 459 PIXLED-SERIE-fadetimer \$1;
#X obj 106 209 PIXLED-SERIE-selecteur-64 \$1;
#X obj 106 509 PIXLED-SERIE-RGB-colormanager \$1;
#X obj 1013 128 bng 20 250 50 0 empty SEND-PIXEL-SERIE-MANAGER-\$1 SEND-PIXEL-SERIE-MANAGER-\$1 0 -10 0 12 #00ff04 #000000 #000000;
#X obj 1425 288 r PIXLED-SERIE-MANAGER-GO-ALL;
#X obj 1415 308 r PIXLED-SERIE-MANAGER-GO-\$1;
#X obj 1425 378 r PIXLED-SERIE-MANAGER-LIST-ALL;
#X obj 1415 398 r PIXLED-SERIE-MANAGER-LIST-\$1;
#X obj 1425 468 r PIXLED-SERIE-MANAGER-TIME-FADE-ALL;
#X obj 1415 488 r PIXLED-SERIE-MANAGER-TIME-FADE-\$1;
#X obj 1425 558 r PIXLED-SERIE-MANAGER-RGB-ALL;
#X obj 1415 578 r PIXLED-SERIE-MANAGER-RGB-\$1;
#X obj 1420 746 r PIXLED-SERIE-MANAGER-DIMMER-ALL;
#X obj 1420 766 r PIXLED-SERIE-MANAGER-DIMMER-\$1;
#X obj 491 719 r PIXLED-SERIE-MANAGER-\$1;
#X obj 511 646 r IP-\$1;
#X obj 481 789 s PIXLED-SERIE-MANAGER-\$1;
#X obj 501 699 r DIRECT-PIXLED-SERIE-MANAGER-\$1;
#X obj 109 665 OSCsender 0 8888 \$1_;
#X connect 0 0 1 0;
#X connect 1 0 3 0;
#X connect 2 0 4 0;
#X connect 3 0 2 0;
#X connect 4 0 22 0;
#X connect 5 0 46 1;
#X connect 6 0 46 0;
#X connect 7 0 0 0;
#X connect 7 1 1 1;
#X connect 8 0 3 1;
#X connect 9 0 3 1;
#X connect 10 0 3 1;
#X connect 11 0 3 1;
#X connect 12 0 2 1;
#X connect 13 0 2 1;
#X connect 14 0 2 1;
#X connect 15 0 46 1;
#X connect 16 0 46 1;
#X connect 17 0 46 1;
#X connect 18 0 46 0;
#X connect 19 0 46 0;
#X connect 20 0 46 0;
#X connect 21 0 47 0;
#X connect 22 0 24 0;
#X connect 22 1 21 0;
#X connect 26 0 68 0;
#X connect 27 0 30 0;
#X connect 28 0 30 0;
#X connect 29 0 30 0;
#X connect 30 0 37 0;
#X connect 31 0 30 0;
#X connect 33 0 21 0;
#X connect 34 0 47 0;
#X connect 36 0 34 0;
#X connect 37 0 32 0;
#X connect 37 1 34 0;
#X connect 40 0 42 0;
#X connect 42 0 39 0;
#X connect 42 1 41 0;
#X connect 43 0 2 1;
#X connect 44 0 48 0;
#X connect 46 0 7 0;
#X connect 48 0 45 0;
#X connect 49 0 68 0;
#X connect 50 0 40 0;
#X connect 55 0 40 0;
#X connect 56 0 46 0;
#X connect 57 0 46 0;
#X connect 58 0 46 1;
#X connect 59 0 46 1;
#X connect 60 0 3 1;
#X connect 61 0 3 1;
#X connect 62 0 2 1;
#X connect 63 0 2 1;
#X connect 64 0 30 0;
#X connect 65 0 30 0;
#X connect 66 0 70 0;
#X connect 67 0 70 1;
#X connect 69 0 70 0;
#X coords 0 -1 1 1 330 600 1 100 100;
