#N canvas 0 32 1920 977 12;
#X obj 101 121 Qontrol \$1;
#X obj 101 17 inlet;
#X obj 625 102 PIXLED-SERIE-MANAGER StuART_WS2812B/\$1;
#X obj 313 226 outlet;
#N canvas 0 162 1920 977 local 0;
#X obj 97 32 inlet;
#X obj 876 431 prepend set;
#X msg 876 456 /FADE_SERIE 1000 180 90 30;
#X obj 821 145 list prepend;
#X obj 1290 125 r time-\$0;
#X obj 821 95 list prepend;
#X obj 1290 75 r color-\$0;
#X obj 1290 174 r listpixels-\$0;
#X obj 912 194 t l l;
#X obj 993 214 list length;
#X obj 912 239 list prepend;
#X obj 821 259 list prepend;
#X obj 821 48 bng 20 250 50 0 empty send-\$0 send-\$0 0 -10 0 12 #00ff04 #000000 #000000;
#X obj 821 284 prepend /FADE_SERIE;
#X obj 1290 210 r dimmer-\$0;
#X obj 1290 279 prepend /DIMMER;
#X obj 821 339 s to-device-\$0;
#X obj 1290 339 s to-device-\$0;
#X obj 830 372 r to-device-\$0;
#X obj 830 397 t a a a;
#X obj 830 489 s PIXLED-SERIE-MANAGER-StuART_WS2812B/\$1;
#X obj 1010 670 r PIXLED-SERIE-MANAGER-StuART_WS2812B/\$1;
#X obj 144 330 r CONTROL-ALL;
#X obj 97 733 s color-\$0;
#X obj 97 583 route /red /redgreen /green /greenblue /blue /bluered /cto /ctb /noir, f 72;
#X msg 536 608 0 0 0;
#X obj 199 733 s time-\$0;
#X msg 97 608 200 0 0;
#X msg 208 608 0 200 0;
#X msg 319 608 0 0 200;
#X msg 430 609 180 90 30;
#X msg 486 638 110 100 150;
#X msg 152 638 180 80 0;
#X msg 263 638 0 120 200;
#X msg 375 638 150 0 200;
#X obj 135 445 hradio 20 1 0 8 empty empty time 0 -10 0 12 #fcfcfc #000000 #000000 0;
#X obj 135 470 t b a;
#X obj 135 495 i 10;
#X obj 135 520 pow;
#X floatatom 199 540 7 0 0 0 - - - 0;
#X obj 97 367 routeOSC /color;
#X obj 332 465 hradio 20 1 0 6 empty empty dimmer 0 -10 0 12 #fcfcfc #000000 #000000 0;
#X obj 332 490 * 50;
#X obj 362 733 s dimmer-\$0;
#X floatatom 362 525 5 0 0 0 - - - 0;
#X obj 467 733 s listpixels-\$0;
#X obj 594 734 bng 20 250 50 0 send-\$0 empty send-\$0 0 -10 0 12 #00ff04 #000000 #000000;
#X obj 469 430 s lost-\$0;
#X obj 598 614 s lost-\$0;
#X obj 1581 734 r lost-\$0;
#X msg 481 691 5 6 9 8;
#X obj 199 398 routeOSC /time /dimmer /listpixel /send;
#X obj 1581 762 outlet;
#X obj 1010 792 s \$1-toqlist;
#X obj 1010 736 prepend \$1;
#X connect 0 0 40 0;
#X connect 1 0 2 0;
#X connect 3 0 11 0;
#X connect 4 0 3 1;
#X connect 5 0 3 0;
#X connect 6 0 5 1;
#X connect 7 0 8 0;
#X connect 8 0 10 0;
#X connect 8 1 9 0;
#X connect 9 0 10 1;
#X connect 10 0 11 1;
#X connect 11 0 13 0;
#X connect 12 0 5 0;
#X connect 13 0 16 0;
#X connect 14 0 15 0;
#X connect 15 0 17 0;
#X connect 18 0 19 0;
#X connect 19 0 20 0;
#X connect 19 2 1 0;
#X connect 21 0 54 0;
#X connect 22 0 40 0;
#X connect 24 0 27 0;
#X connect 24 1 32 0;
#X connect 24 2 28 0;
#X connect 24 3 33 0;
#X connect 24 4 29 0;
#X connect 24 5 34 0;
#X connect 24 6 30 0;
#X connect 24 7 31 0;
#X connect 24 8 25 0;
#X connect 24 9 48 0;
#X connect 25 0 23 0;
#X connect 27 0 23 0;
#X connect 28 0 23 0;
#X connect 29 0 23 0;
#X connect 30 0 23 0;
#X connect 31 0 23 0;
#X connect 32 0 23 0;
#X connect 33 0 23 0;
#X connect 34 0 23 0;
#X connect 35 0 36 0;
#X connect 36 0 37 0;
#X connect 36 1 38 1;
#X connect 37 0 38 0;
#X connect 38 0 39 0;
#X connect 39 0 26 0;
#X connect 40 0 24 0;
#X connect 40 1 51 0;
#X connect 41 0 42 0;
#X connect 42 0 44 0;
#X connect 44 0 43 0;
#X connect 49 0 52 0;
#X connect 50 0 45 0;
#X connect 51 0 39 0;
#X connect 51 1 44 0;
#X connect 51 2 45 0;
#X connect 51 3 46 0;
#X connect 51 4 47 0;
#X connect 54 0 53 0;
#X restore 101 253 pd local;
#X obj 193 233 r loopbackOSC-\$0;
#X obj 507 903 print lost_in_/\$1;
#N canvas 27 61 1254 943 PROGRAM 0;
#X obj 101 101 cnv 20 198 348 empty empty /PROGRAM\ /SETPROGRAM 20 12 0 12 #00faff #404040 0;
#X msg 386 713 /PROGRAM \$1;
#X msg 377 661 +;
#X msg 411 662 -;
#X obj 377 686 prepend /PROGRAM;
#X obj 379 104 route + -;
#X obj 379 28 inlet;
#X obj 826 145 outlet;
#X floatatom 189 206 5 -2 15 0 N°\ [-2:15] - - 0;
#X msg 447 647 -1;
#X msg 477 647 -2;
#X obj 104 424 bng 20 250 50 0 empty empty SendColor 22 10 0 12 #c6ffc7 #000000 #000000;
#X obj 636 721 prepend /SETPROGRAM/color;
#X msg 526 -20 /SETPROGRAM/speed 30 100 100 7;
#X obj 140 737 prepend /SETPROGRAM/speed;
#X obj 104 276 bng 20 250 50 0 empty empty SendSpeedMode 22 10 0 12 #c6ffc7 #000000 #000000;
#X floatatom 104 235 6 0 32767 1 UpTime - - 0;
#X floatatom 194 235 6 0 32767 1 DownTime - - 0;
#X floatatom 104 255 6 0 32767 1 LoopTime - - 0;
#X floatatom 215 255 3 0 63 1 DeltaPix - - 0;
#X obj 100 680 pack f f f f f;
#X obj 100 705 list split 1;
#X obj 379 79 routeOSC /PROGRAM /SETPROGRAM/speed /SETPROGRAM/color;
#X obj 501 157 unpack f f f f;
#X obj 501 182 t b f;
#X obj 624 122 list split 3;
#X obj 624 147 t b l;
#X obj 147 146 bng 20 250 50 0 empty empty + 4 10 0 20 #202020 #9f9f9f #9f9f9f;
#X obj 126 146 bng 20 250 50 0 empty empty - 4 10 0 20 #202020 #9f9f9f #9f9f9f;
#X obj 189 165 bng 20 250 50 0 empty empty P1-LINE 4 10 0 12 #202020 #9f9f9f #9f9f9f;
#X obj 189 186 bng 20 250 50 0 empty empty P2-RDM 4 10 0 12 #202020 #9f9f9f #9f9f9f;
#X msg 527 16 /SETPROGRAM/color 200 0 0 0 100 100;
#X msg 526 43 /SETPROGRAM/color 200 0 0 0 100 100;
#X obj 189 144 bng 20 250 50 0 empty empty P0-STOP 4 10 0 12 #202020 #9f9f9f #9f9f9f;
#X msg 509 647 0;
#X obj 404 835 gate 2;
#X obj 278 120 tgl 20 1 empty REC-Mode-\$1 REC-Mode -60 10 0 12 #ff0400 #0400ff #000000 0 1;
#X obj 393 793 + 1;
#X obj 404 891 s DIRECT-PIXLED-SERIE-MANAGER-StuART_WS2812B/\$1;
#X obj 443 864 s PIXLED-SERIE-MANAGER-StuART_WS2812B/\$1;
#X obj 636 656 list prepend 0 0 0;
#X obj 636 696 list prepend 0 0 0;
#X obj 139 303 RGB UpColor;
#X obj 139 364 RGB DownColor;
#X connect 1 0 35 1;
#X connect 2 0 4 0;
#X connect 3 0 4 0;
#X connect 4 0 35 1;
#X connect 5 0 27 0;
#X connect 5 1 28 0;
#X connect 5 2 8 0;
#X connect 6 0 22 0;
#X connect 8 0 1 0;
#X connect 9 0 8 0;
#X connect 10 0 8 0;
#X connect 11 0 40 0;
#X connect 12 0 35 1;
#X connect 13 0 22 0;
#X connect 14 0 35 1;
#X connect 15 0 20 0;
#X connect 16 0 20 1;
#X connect 17 0 20 2;
#X connect 18 0 20 3;
#X connect 19 0 20 4;
#X connect 20 0 21 0;
#X connect 21 1 14 0;
#X connect 22 0 5 0;
#X connect 22 1 23 0;
#X connect 22 2 25 0;
#X connect 22 3 7 0;
#X connect 23 0 24 0;
#X connect 23 1 17 0;
#X connect 23 2 18 0;
#X connect 23 3 19 0;
#X connect 24 0 15 0;
#X connect 24 1 16 0;
#X connect 25 0 26 0;
#X connect 25 1 43 0;
#X connect 26 0 11 0;
#X connect 26 1 42 0;
#X connect 27 0 2 0;
#X connect 28 0 3 0;
#X connect 29 0 9 0;
#X connect 30 0 10 0;
#X connect 31 0 22 0;
#X connect 32 0 22 0;
#X connect 33 0 34 0;
#X connect 34 0 8 0;
#X connect 35 0 38 0;
#X connect 35 1 39 0;
#X connect 36 0 37 0;
#X connect 37 0 35 0;
#X connect 40 0 41 0;
#X connect 41 0 12 0;
#X connect 42 0 41 1;
#X connect 43 0 40 1;
#X coords 0 -1 1 1 200 350 1 100 100;
#X restore 101 275 pd PROGRAM;
#N canvas 883 131 554 482 NUMPIXEL 0;
#X obj 101 101 cnv 20 198 58 empty empty /NUMPIXEL 20 12 0 12 #00faff #404040 0;
#X obj 133 15 inlet;
#X obj 133 40 routeOSC /NUMPIXEL;
#X floatatom 133 128 5 0 0 0 - - - 0;
#X obj 133 220 prepend /NUMPIXEL;
#X obj 133 331 gate 2;
#X obj 276 275 + 1;
#X obj 133 388 s DIRECT-PIXLED-SERIE-MANAGER-StuART_WS2812B/\$1;
#X obj 172 361 s PIXLED-SERIE-MANAGER-StuART_WS2812B/\$1;
#X obj 276 105 tgl 20 1 empty REC-Mode-\$1 REC-Mode -60 10 0 12 #ff0400 #0400ff #000000 0 1;
#X obj 329 60 outlet;
#X obj 133 152 t a a;
#X obj 165 190 s numpixel-\$0;
#X connect 1 0 2 0;
#X connect 2 0 3 0;
#X connect 2 1 10 0;
#X connect 3 0 11 0;
#X connect 4 0 5 1;
#X connect 5 0 7 0;
#X connect 5 1 8 0;
#X connect 6 0 5 0;
#X connect 9 0 6 0;
#X connect 11 0 4 0;
#X connect 11 1 12 0;
#X coords 0 -1 1 1 200 60 1 100 100;
#X restore 101 625 pd NUMPIXEL;
#X obj 101 206 routeOSC /\$1;
#X msg 395 116 /noir 500;
#X obj 332 102 bng 18 250 50 0 empty empty /noir -40 10 0 12 #ff0400 #000000 #000000;
#X obj 24 203 r \$1;
#X msg 625 707 /FADE_SERIE 8 7 6 5 4 3 2 1 0 1000 0 0 0;
#X msg 294 36 /FADE_SERIE 8 7 6 5 4 3 2 1 0 1000 0 0 0;
#X obj 533 135 tgl 20 1 REC-Mode-\$1 REC-Mode-M-\$1 REC-Mode-\$1 -60 10 0 12 #ff0400 #0400ff #000000 0 1;
#N canvas 230 110 554 627 noir 0;
#X obj 101 101 cnv 20 198 58 empty empty /noir 20 12 0 12 #00faff #404040 0;
#X obj 133 15 inlet;
#X floatatom 133 128 5 0 0 0 time - - 0;
#X obj 329 60 outlet;
#X obj 133 40 routeOSC /noir;
#X obj 373 279 s loopbackOSC-\$0;
#X msg 373 240 /Rdm/stop;
#X msg 443 240 /PROGRAM 0;
#X obj 201 133 bng 20 250 50 0 empty empty SendNoir 22 10 0 12 #c6ffc7 #000000 #000000;
#X obj 115 351 list append 0 0 0;
#X obj 115 306 int;
#X obj 350 153 t b b b;
#X obj 115 376 list prepend 63;
#X obj 265 331 r numpixel-\$0;
#X obj 265 356 - 1;
#X obj 115 401 list prepend /ALUM 0;
#X obj 133 65 t b a;
#X obj 115 426 s loopbackOSC-\$0;
#X connect 1 0 4 0;
#X connect 2 0 10 1;
#X connect 4 0 16 0;
#X connect 4 1 3 0;
#X connect 6 0 5 0;
#X connect 7 0 5 0;
#X connect 8 0 11 0;
#X connect 9 0 12 0;
#X connect 10 0 9 0;
#X connect 11 0 10 0;
#X connect 11 1 6 0;
#X connect 11 2 7 0;
#X connect 12 0 15 0;
#X connect 13 0 14 0;
#X connect 14 0 12 1;
#X connect 15 0 17 0;
#X connect 16 0 8 0;
#X connect 16 1 2 0;
#X coords 0 -1 1 1 200 60 1 100 100;
#X restore 101 686 pd noir;
#N canvas 182 126 554 482 DIMMER 0;
#X obj 101 101 cnv 20 198 58 empty empty /DIMMER 20 12 0 12 #00faff #404040 0;
#X obj 133 15 inlet;
#X obj 133 331 gate 2;
#X obj 276 275 + 1;
#X obj 133 388 s DIRECT-PIXLED-SERIE-MANAGER-StuART_WS2812B/\$1;
#X obj 172 361 s PIXLED-SERIE-MANAGER-StuART_WS2812B/\$1;
#X obj 276 105 tgl 20 1 empty REC-Mode-\$1 REC-Mode -60 10 0 12 #ff0400 #0400ff #000000 0 1;
#X obj 329 60 outlet;
#X obj 133 40 routeOSC /DIMMER;
#X obj 172 220 prepend /DIMMER;
#X obj 115 132 hsl 127 20 0 255 0 0 empty empty empty -2 -10 0 12 #bbbbbb #00ff04 #000000 0 0;
#X floatatom 251 133 5 0 255 0 - - - 0;
#X msg 251 167 set \$1;
#X obj 112 170 int;
#X obj 112 195 change;
#X connect 1 0 8 0;
#X connect 2 0 4 0;
#X connect 2 1 5 0;
#X connect 3 0 2 0;
#X connect 6 0 3 0;
#X connect 8 0 11 0;
#X connect 8 1 7 0;
#X connect 9 0 2 1;
#X connect 10 0 13 0;
#X connect 11 0 12 0;
#X connect 11 0 9 0;
#X connect 12 0 10 0;
#X connect 13 0 14 0;
#X connect 14 0 11 0;
#X coords 0 -1 1 1 200 60 1 100 100;
#X restore 101 747 pd DIMMER;
#N canvas 672 189 892 689 ALUM 0;
#X obj 101 101 cnv 20 198 198 empty empty /ALUM 20 12 0 12 #00faff #404040 0;
#X obj 360 3 inlet;
#X obj 507 395 gate 2;
#X obj 692 375 + 1;
#X obj 507 452 s DIRECT-PIXLED-SERIE-MANAGER-StuART_WS2812B/\$1;
#X obj 546 425 s PIXLED-SERIE-MANAGER-StuART_WS2812B/\$1;
#X obj 276 105 tgl 20 1 empty REC-Mode-\$1 REC-Mode -60 10 0 12 #ff0400 #0400ff #000000 0 1;
#X obj 556 75 outlet;
#X obj 360 26 routeOSC /ALUM;
#X obj 126 181 hsl 128 10 0.01 100 1 0 empty empty FADE_TIME_(ms) -2 -10 0 10 #ff8300 #00ff04 #000000 0 0;
#X floatatom 214 166 8 0 100000 0 - - - 8;
#X obj 365 178 * 1000;
#X obj 365 203 int;
#X msg 424 206 set \$1;
#X obj 424 179 / 1000;
#X obj 123 201 RGB ALUM;
#X listbox 217 136 6 0 63 0 PixMin/PixMax - - 0;
#X obj 360 90 list split 2;
#X obj 440 137 list split 1;
#X msg 561 31 /ALUM 0 63 524 0 255 0;
#X obj 546 357 prepend /ALUM;
#X obj 346 259 list prepend 0 0 0;
#X obj 346 289 list prepend 0;
#X obj 346 319 list prepend 0 63;
#X obj 106 269 bng 20 250 50 0 empty empty SendALUM 22 10 0 12 #c6ffc7 #000000 #000000;
#X obj 360 51 t b a;
#X connect 1 0 8 0;
#X connect 2 0 4 0;
#X connect 2 1 5 0;
#X connect 3 0 2 0;
#X connect 6 0 3 0;
#X connect 8 0 25 0;
#X connect 8 1 7 0;
#X connect 9 0 11 0;
#X connect 10 0 14 0;
#X connect 10 0 22 1;
#X connect 11 0 12 0;
#X connect 12 0 10 0;
#X connect 13 0 9 0;
#X connect 14 0 13 0;
#X connect 15 0 21 1;
#X connect 16 0 23 1;
#X connect 17 0 16 0;
#X connect 17 1 18 0;
#X connect 18 0 10 0;
#X connect 18 1 15 0;
#X connect 19 0 8 0;
#X connect 20 0 2 1;
#X connect 21 0 22 0;
#X connect 22 0 23 0;
#X connect 23 0 20 0;
#X connect 24 0 21 0;
#X connect 25 0 24 0;
#X connect 25 1 17 0;
#X coords 0 -1 1 1 200 200 1 100 100;
#X restore 101 808 pd ALUM;
#X obj 1005 426 prepend connect;
#X obj 1005 380 routeOSC /helloworld;
#X obj 1177 602 print lost_in_\$1;
#X obj 1005 42 routeOSC /StuART_WS2812B/\$1;
#X obj 1044 116 print ICI;
#X obj 1005 465 s IP-StuART_WS2812B/\$1;
#X connect 0 0 9 0;
#X connect 1 0 0 0;
#X connect 1 0 22 0;
#X connect 2 0 13 0;
#X connect 4 0 7 0;
#X connect 5 0 4 0;
#X connect 7 0 8 0;
#X connect 8 0 16 0;
#X connect 9 0 4 0;
#X connect 9 1 3 0;
#X connect 10 0 4 0;
#X connect 11 0 10 0;
#X connect 12 0 4 0;
#X connect 14 0 4 0;
#X connect 16 0 17 0;
#X connect 17 0 18 0;
#X connect 18 0 6 0;
#X connect 19 0 24 0;
#X connect 20 0 19 0;
#X connect 20 1 21 0;
#X connect 22 0 20 0;
#X connect 22 0 23 0;
#X coords 0 -1 1 1 252 102 1 100 100;
