#N canvas 50 153 572 496 12;
#X obj 108 130 hsl 256 20 0 255 0 0 empty empty RED -2 -10 0 12 #ff0400 #000000 #000000 0 1;
#X floatatom 294 109 10 0 0 0 - - - 0;
#X msg 211 106 set \$1;
#X obj 108 174 hsl 256 20 0 255 0 0 empty empty GREEN -2 -10 0 12 #00ff04 #000000 #000000 0 1;
#X floatatom 294 153 10 0 0 0 - - - 0;
#X msg 211 150 set \$1;
#X obj 108 219 hsl 256 20 0 255 0 0 empty empty BLUE -2 -10 0 12 #0400ff #000000 #000000 0 1;
#X floatatom 294 198 10 0 0 0 - - - 0;
#X msg 211 195 set \$1;
#X obj 227 268 t b a;
#X obj 277 268 t b a;
#X obj 162 344 pack f f f;
#X obj 162 418 s ESP-8266-OSC-WS2812B-PIXLED-SERIE-RGB-\$1;
#X connect 0 0 1 0;
#X connect 1 0 2 0;
#X connect 1 0 11 0;
#X connect 2 0 0 0;
#X connect 3 0 4 0;
#X connect 4 0 5 0;
#X connect 4 0 9 0;
#X connect 5 0 3 0;
#X connect 6 0 7 0;
#X connect 7 0 8 0;
#X connect 7 0 10 0;
#X connect 8 0 6 0;
#X connect 9 0 11 0;
#X connect 9 1 11 1;
#X connect 10 0 11 0;
#X connect 10 1 11 2;
#X connect 11 0 12 0;
#X coords 0 -1 1 1 280 150 2 100 100;
