#N canvas 0 32 1920 977 12;
#X obj 71 602 bng 20 250 50 0 ESP-8266-OSC-WS2812B-PIXLED-selecteur-Send-\$1 empty s_ESP-8266-OSC-WS2812B-PIXLED-selecteur-Send-\$1 0 -10 0 12 #00ff04 #000000 #000000;
#X obj 101 629 r ESP-8266-OSC-WS2812B-PIXLED-selecteur-\$1;
#X msg 51 809 0 0 0 0 0 0 0 0 55 54 53 52 51 50 49 48 47 46 45 44 43 42 41 40 39 38 37 36 35 34 33 32 0 0 0 0 0 0 0 0 0 0 0 0 0 0 0 0 0 0 0 0 0 0 0 0 0 0 0 0 0 0 0 0;
#X msg 91 699 set;
#X obj 101 654 prepend add2;
#X obj 51 766 s ESP-8266-OSC-WS2812B-PIXLED-SERIE-LIST-\$1;
#X obj 51 528 bng 20 250 50 0 empty SEND_ESP-8266-OSC-WS2812B-PIXLED-SERIE-LIST-\$1 SEND_ESP-8266-OSC-WS2812B-PIXLED-SERIE-LIST-\$1 0 -10 0 12 #faff00 #000000 #000000;
#X obj 51 553 t b b b b;
#X obj 135 130 tgl 20 1 empty empty ALL 25 12 1 12 #9c00ff #00ff04 #9c00ff 0 1;
#X obj 478 95 s ESP-8266-OSC-WS2812B-PIXLED-selecteur-toggleall-\$1;
#X obj 118 154 ESP-8266-OSC-WS2812B-PIXLED-selecteur \$1 1;
#X obj 141 154 ESP-8266-OSC-WS2812B-PIXLED-selecteur \$1 2;
#X obj 164 154 ESP-8266-OSC-WS2812B-PIXLED-selecteur \$1 3;
#X obj 187 154 ESP-8266-OSC-WS2812B-PIXLED-selecteur \$1 4;
#X obj 210 154 ESP-8266-OSC-WS2812B-PIXLED-selecteur \$1 5;
#X obj 233 154 ESP-8266-OSC-WS2812B-PIXLED-selecteur \$1 6;
#X obj 256 154 ESP-8266-OSC-WS2812B-PIXLED-selecteur \$1 7;
#X obj 279 154 ESP-8266-OSC-WS2812B-PIXLED-selecteur \$1 8;
#X obj 118 177 ESP-8266-OSC-WS2812B-PIXLED-selecteur \$1 9;
#X obj 141 177 ESP-8266-OSC-WS2812B-PIXLED-selecteur \$1 10;
#X obj 164 177 ESP-8266-OSC-WS2812B-PIXLED-selecteur \$1 11;
#X obj 187 177 ESP-8266-OSC-WS2812B-PIXLED-selecteur \$1 12;
#X obj 210 177 ESP-8266-OSC-WS2812B-PIXLED-selecteur \$1 13;
#X obj 233 177 ESP-8266-OSC-WS2812B-PIXLED-selecteur \$1 14;
#X obj 256 177 ESP-8266-OSC-WS2812B-PIXLED-selecteur \$1 15;
#X obj 279 177 ESP-8266-OSC-WS2812B-PIXLED-selecteur \$1 16;
#X obj 118 200 ESP-8266-OSC-WS2812B-PIXLED-selecteur \$1 17;
#X obj 141 200 ESP-8266-OSC-WS2812B-PIXLED-selecteur \$1 18;
#X obj 164 200 ESP-8266-OSC-WS2812B-PIXLED-selecteur \$1 19;
#X obj 187 200 ESP-8266-OSC-WS2812B-PIXLED-selecteur \$1 20;
#X obj 210 200 ESP-8266-OSC-WS2812B-PIXLED-selecteur \$1 21;
#X obj 233 200 ESP-8266-OSC-WS2812B-PIXLED-selecteur \$1 22;
#X obj 256 200 ESP-8266-OSC-WS2812B-PIXLED-selecteur \$1 23;
#X obj 279 200 ESP-8266-OSC-WS2812B-PIXLED-selecteur \$1 24;
#X obj 118 223 ESP-8266-OSC-WS2812B-PIXLED-selecteur \$1 25;
#X obj 141 223 ESP-8266-OSC-WS2812B-PIXLED-selecteur \$1 26;
#X obj 164 223 ESP-8266-OSC-WS2812B-PIXLED-selecteur \$1 27;
#X obj 187 223 ESP-8266-OSC-WS2812B-PIXLED-selecteur \$1 28;
#X obj 210 223 ESP-8266-OSC-WS2812B-PIXLED-selecteur \$1 29;
#X obj 233 223 ESP-8266-OSC-WS2812B-PIXLED-selecteur \$1 30;
#X obj 256 223 ESP-8266-OSC-WS2812B-PIXLED-selecteur \$1 31;
#X obj 279 223 ESP-8266-OSC-WS2812B-PIXLED-selecteur \$1 32;
#X obj 118 246 ESP-8266-OSC-WS2812B-PIXLED-selecteur \$1 33;
#X obj 141 246 ESP-8266-OSC-WS2812B-PIXLED-selecteur \$1 34;
#X obj 164 246 ESP-8266-OSC-WS2812B-PIXLED-selecteur \$1 35;
#X obj 187 246 ESP-8266-OSC-WS2812B-PIXLED-selecteur \$1 36;
#X obj 210 246 ESP-8266-OSC-WS2812B-PIXLED-selecteur \$1 37;
#X obj 233 246 ESP-8266-OSC-WS2812B-PIXLED-selecteur \$1 38;
#X obj 256 246 ESP-8266-OSC-WS2812B-PIXLED-selecteur \$1 39;
#X obj 279 246 ESP-8266-OSC-WS2812B-PIXLED-selecteur \$1 40;
#X obj 118 269 ESP-8266-OSC-WS2812B-PIXLED-selecteur \$1 41;
#X obj 141 269 ESP-8266-OSC-WS2812B-PIXLED-selecteur \$1 42;
#X obj 164 269 ESP-8266-OSC-WS2812B-PIXLED-selecteur \$1 43;
#X obj 187 269 ESP-8266-OSC-WS2812B-PIXLED-selecteur \$1 44;
#X obj 210 269 ESP-8266-OSC-WS2812B-PIXLED-selecteur \$1 45;
#X obj 233 269 ESP-8266-OSC-WS2812B-PIXLED-selecteur \$1 46;
#X obj 256 269 ESP-8266-OSC-WS2812B-PIXLED-selecteur \$1 47;
#X obj 279 269 ESP-8266-OSC-WS2812B-PIXLED-selecteur \$1 48;
#X obj 118 292 ESP-8266-OSC-WS2812B-PIXLED-selecteur \$1 49;
#X obj 141 292 ESP-8266-OSC-WS2812B-PIXLED-selecteur \$1 50;
#X obj 164 292 ESP-8266-OSC-WS2812B-PIXLED-selecteur \$1 51;
#X obj 187 292 ESP-8266-OSC-WS2812B-PIXLED-selecteur \$1 52;
#X obj 210 292 ESP-8266-OSC-WS2812B-PIXLED-selecteur \$1 53;
#X obj 233 292 ESP-8266-OSC-WS2812B-PIXLED-selecteur \$1 54;
#X obj 256 292 ESP-8266-OSC-WS2812B-PIXLED-selecteur \$1 55;
#X obj 279 292 ESP-8266-OSC-WS2812B-PIXLED-selecteur \$1 56;
#X obj 118 315 ESP-8266-OSC-WS2812B-PIXLED-selecteur \$1 57;
#X obj 141 315 ESP-8266-OSC-WS2812B-PIXLED-selecteur \$1 58;
#X obj 164 315 ESP-8266-OSC-WS2812B-PIXLED-selecteur \$1 59;
#X obj 187 315 ESP-8266-OSC-WS2812B-PIXLED-selecteur \$1 60;
#X obj 210 315 ESP-8266-OSC-WS2812B-PIXLED-selecteur \$1 61;
#X obj 233 315 ESP-8266-OSC-WS2812B-PIXLED-selecteur \$1 62;
#X obj 256 315 ESP-8266-OSC-WS2812B-PIXLED-selecteur \$1 63;
#X obj 279 315 ESP-8266-OSC-WS2812B-PIXLED-selecteur \$1 64;
#X obj 304 155 tgl 20 0 empty empty 1-8 25 12 1 12 #9c00ff #00ff04 #9c00ff 0 1;
#X msg 1310 729 symbol ESP-8266-OSC-WS2812B-PIXLED-selecteur-toggleall-\$1-\$2, f 70;
#X obj 1278 810 send;
#X obj 1278 780 list prepend;
#X obj 1591 199 counter 0 1 8;
#X msg 1591 147 8;
#X obj 1591 172 until;
#X obj 1278 703 t b a;
#X obj 1591 122 t b a;
#X obj 1623 147 s \$0-PIXLED-SERIE-select;
#X obj 1359 755 r \$0-PIXLED-SERIE-select;
#X obj 1591 249 s \$0-PIXLED-SERIE-list;
#X obj 1278 676 r \$0-PIXLED-SERIE-list;
#X obj 1591 224 list prepend \$1;
#X obj 304 178 tgl 20 0 empty empty 9-16 25 12 1 12 #9c00ff #00ff04 #9c00ff 0 1;
#X obj 1381 221 until;
#X obj 1381 171 t b a;
#X obj 1413 196 s \$0-PIXLED-SERIE-select;
#X obj 1381 298 s \$0-PIXLED-SERIE-list;
#X obj 1381 273 list prepend \$1;
#X obj 1381 248 counter 0 9 16;
#X obj 1161 272 until;
#X obj 1161 222 t b a;
#X obj 1193 247 s \$0-PIXLED-SERIE-select;
#X obj 1161 349 s \$0-PIXLED-SERIE-list;
#X obj 1161 324 list prepend \$1;
#X obj 951 321 until;
#X obj 951 271 t b a;
#X obj 983 296 s \$0-PIXLED-SERIE-select;
#X obj 951 398 s \$0-PIXLED-SERIE-list;
#X obj 951 373 list prepend \$1;
#X obj 304 201 tgl 20 0 empty empty 17-24 25 12 1 12 #9c00ff #00ff04 #9c00ff 0 1;
#X obj 304 224 tgl 20 0 empty empty 25-32 25 12 1 12 #9c00ff #00ff04 #9c00ff 0 1;
#X obj 951 348 counter 0 25 32;
#X obj 1161 299 counter 0 17 24;
#X obj 1601 452 until;
#X obj 1601 402 t b a;
#X obj 1633 427 s \$0-PIXLED-SERIE-select;
#X obj 1601 529 s \$0-PIXLED-SERIE-list;
#X obj 1601 504 list prepend \$1;
#X obj 1391 491 until;
#X obj 1391 441 t b a;
#X obj 1423 466 s \$0-PIXLED-SERIE-select;
#X obj 1391 568 s \$0-PIXLED-SERIE-list;
#X obj 1391 543 list prepend \$1;
#X obj 1171 532 until;
#X obj 1171 482 t b a;
#X obj 1203 507 s \$0-PIXLED-SERIE-select;
#X obj 1171 609 s \$0-PIXLED-SERIE-list;
#X obj 1171 584 list prepend \$1;
#X obj 961 571 until;
#X obj 961 521 t b a;
#X obj 993 546 s \$0-PIXLED-SERIE-select;
#X obj 961 648 s \$0-PIXLED-SERIE-list;
#X obj 961 623 list prepend \$1;
#X obj 304 247 tgl 20 0 empty empty 33-40 25 12 1 12 #9c00ff #00ff04 #9c00ff 0 1;
#X obj 304 270 tgl 20 0 empty empty 41-48 25 12 1 12 #9c00ff #00ff04 #9c00ff 0 1;
#X obj 304 293 tgl 20 0 empty empty 49-56 25 12 1 12 #9c00ff #00ff04 #9c00ff 0 1;
#X obj 304 316 tgl 20 0 empty empty 57-64 25 12 1 12 #9c00ff #00ff04 #9c00ff 0 1;
#X obj 961 598 counter 0 57 64;
#X obj 1171 559 counter 0 49 56;
#X obj 1391 518 counter 0 41 48;
#X obj 1601 479 counter 0 33 40;
#X obj 567 669 until;
#X obj 567 619 t b a;
#X obj 599 644 s \$0-PIXLED-SERIE-select;
#X obj 567 866 s \$0-PIXLED-SERIE-list;
#X obj 567 841 list prepend \$1;
#X obj 587 751 mod 2;
#X obj 567 721 t a a;
#X obj 567 806 spigot;
#X obj 587 776 tgl 20 0 empty empty empty 0 -10 0 12 #fcfcfc #000000 #000000 0 1;
#X obj 185 130 tgl 20 0 empty empty Odd 25 12 1 12 #9c00ff #00ff04 #9c00ff 0 1;
#X obj 567 696 counter 0 1 64;
#X msg 1381 196 8;
#X msg 1161 247 8;
#X msg 951 296 8;
#X msg 961 546 8;
#X msg 1171 507 8;
#X msg 1391 466 8;
#X msg 1601 427 8;
#X msg 567 644 64;
#X obj 800 708 until;
#X obj 800 658 t b a;
#X obj 832 683 s \$0-PIXLED-SERIE-select;
#X obj 800 935 s \$0-PIXLED-SERIE-list;
#X obj 800 910 list prepend \$1;
#X obj 820 790 mod 2;
#X obj 800 760 t a a;
#X obj 800 875 spigot;
#X obj 920 815 tgl 20 0 empty empty empty 0 -10 0 12 #fcfcfc #000000 #000000 0 1;
#X obj 237 130 tgl 20 0 empty empty Even 25 12 1 12 #9c00ff #00ff04 #9c00ff 0 1;
#X obj 800 735 counter 0 1 64;
#X msg 800 683 64;
#X obj 820 815 route 0 1;
#X msg 820 840 1;
#X msg 860 840 0;
#X obj 457 141 s INVERT-\$1;
#X obj 305 130 bng 20 250 50 0 empty empty INVERT 25 10 0 12 #9c00ff #faff00 #9c00ff;
#X connect 1 0 4 0;
#X connect 2 0 5 0;
#X connect 3 0 2 0;
#X connect 4 0 2 0;
#X connect 6 0 7 0;
#X connect 7 0 2 0;
#X connect 7 1 0 0;
#X connect 7 2 3 0;
#X connect 8 0 9 0;
#X connect 74 0 82 0;
#X connect 75 0 76 1;
#X connect 77 0 76 0;
#X connect 78 0 87 0;
#X connect 79 0 80 0;
#X connect 80 0 78 0;
#X connect 81 0 77 0;
#X connect 81 1 75 0;
#X connect 82 0 79 0;
#X connect 82 1 83 0;
#X connect 84 0 77 1;
#X connect 86 0 81 0;
#X connect 87 0 85 0;
#X connect 88 0 90 0;
#X connect 89 0 94 0;
#X connect 90 0 148 0;
#X connect 90 1 91 0;
#X connect 93 0 92 0;
#X connect 94 0 93 0;
#X connect 95 0 108 0;
#X connect 96 0 149 0;
#X connect 96 1 97 0;
#X connect 99 0 98 0;
#X connect 100 0 107 0;
#X connect 101 0 150 0;
#X connect 101 1 102 0;
#X connect 104 0 103 0;
#X connect 105 0 96 0;
#X connect 106 0 101 0;
#X connect 107 0 104 0;
#X connect 108 0 99 0;
#X connect 109 0 136 0;
#X connect 110 0 154 0;
#X connect 110 1 111 0;
#X connect 113 0 112 0;
#X connect 114 0 135 0;
#X connect 115 0 153 0;
#X connect 115 1 116 0;
#X connect 118 0 117 0;
#X connect 119 0 134 0;
#X connect 120 0 152 0;
#X connect 120 1 121 0;
#X connect 123 0 122 0;
#X connect 124 0 133 0;
#X connect 125 0 151 0;
#X connect 125 1 126 0;
#X connect 128 0 127 0;
#X connect 129 0 110 0;
#X connect 130 0 115 0;
#X connect 131 0 120 0;
#X connect 132 0 125 0;
#X connect 133 0 128 0;
#X connect 134 0 123 0;
#X connect 135 0 118 0;
#X connect 136 0 113 0;
#X connect 137 0 147 0;
#X connect 138 0 155 0;
#X connect 138 1 139 0;
#X connect 141 0 140 0;
#X connect 142 0 145 0;
#X connect 143 0 144 0;
#X connect 143 1 142 0;
#X connect 144 0 141 0;
#X connect 145 0 144 1;
#X connect 146 0 138 0;
#X connect 147 0 143 0;
#X connect 148 0 89 0;
#X connect 149 0 95 0;
#X connect 150 0 100 0;
#X connect 151 0 124 0;
#X connect 152 0 119 0;
#X connect 153 0 114 0;
#X connect 154 0 109 0;
#X connect 155 0 137 0;
#X connect 156 0 166 0;
#X connect 157 0 167 0;
#X connect 157 1 158 0;
#X connect 160 0 159 0;
#X connect 161 0 168 0;
#X connect 162 0 163 0;
#X connect 162 1 161 0;
#X connect 163 0 160 0;
#X connect 164 0 163 1;
#X connect 165 0 157 0;
#X connect 166 0 162 0;
#X connect 167 0 156 0;
#X connect 168 0 169 0;
#X connect 168 1 170 0;
#X connect 169 0 164 0;
#X connect 170 0 164 0;
#X connect 172 0 171 0;
#X coords 0 -1 1 1 280 250 2 100 100;
