#N canvas 895 42 879 485 12;
#X obj 62 24 inlet;
#X obj 2491 200 list split 32;
#X obj 2491 251 list split 1;
#X obj 2491 329 moses 127;
#X obj 2434 287 t l b;
#X obj 2491 225 t l b;
#X msg 2663 245 set 0;
#X msg 2491 354 0;
#X msg 2551 354 1;
#X obj 2392 286 list;
#X obj 2572 544 send;
#X obj 2491 434 int;
#X obj 2693 361 bng 20 250 50 0 empty empty empty 0 -10 0 12 #fcfcfc #000000 #000000;
#X obj 2716 360 loadbang;
#X obj 2716 384 symbol \$1;
#X obj 2663 474 pack f s;
#X msg 2663 499 \$2-\$1;
#X obj 2663 524 symbol;
#X msg 2716 446;
#X obj 2663 307 counter 0 1 32;
#X msg 2679 426 set;
#X obj 2491 524 t b l;
#X obj 972 160 list split 2;
#X text 2593 199 SELECTION DES PIXELS;
#X text 1064 160 TIME;
#X text 1714 180 RGB;
#X obj 1622 180 list split 6;
#X obj 1622 310 +;
#X obj 1682 340 +;
#X obj 1742 370 +;
#X obj 1622 395 pack f f f;
#X obj 1864 255 bng 20 250 50 0 empty empty empty 0 -10 0 12 #fcfcfc #000000 #000000;
#X obj 1887 254 loadbang;
#X obj 1887 278 symbol \$1;
#X msg 1887 340;
#X msg 1850 320 set;
#X obj 1887 395 symbol;
#X obj 1782 415 send;
#X obj 972 365 unpack;
#X obj 972 430 * 256;
#X obj 972 455 +;
#X obj 1144 315 bng 20 250 50 0 empty empty empty 0 -10 0 12 #fcfcfc #000000 #000000;
#X obj 1167 314 loadbang;
#X obj 1167 338 symbol \$1;
#X msg 1167 400;
#X msg 1130 380 set;
#X obj 1167 455 symbol;
#X obj 1062 475 send;
#X obj 455 215 bng 20 250 50 0 empty empty empty 0 -10 0 12 #fcfcfc #000000 #000000;
#X obj 478 214 loadbang;
#X obj 478 238 symbol \$1;
#X msg 478 300;
#X msg 441 280 set;
#X obj 478 355 symbol;
#X obj 423 375 send;
#X obj 62 120 list split 1;
#X obj 323 205 moses 127;
#X obj 383 355 bang;
#X obj 323 140 list split 1;
#X text 415 140 FIRE;
#X text 154 120 DIMMER;
#X obj 94 415 bng 20 250 50 0 empty empty empty 0 -10 0 12 #fcfcfc #000000 #000000;
#X obj 117 414 loadbang;
#X obj 117 438 symbol \$1;
#X msg 117 500;
#X msg 80 480 set;
#X obj 117 555 symbol;
#X obj 62 575 send;
#X text 73 96 [DIMMER[0-255] FIRE[0-126 \, 127-255] SELECT[32][0-255] TIME-16Bit RGB[3]16Bit(, f 108;
#X obj 62 145 change;
#X obj 329 261 bng 20 250 50 0 empty empty empty 0 -10 0 12 #fcfcfc #000000 #000000;
#X obj 62 49 list prepend 0;
#X obj 62 76 list split \$2;
#X obj 148 217 print WTF!!!;
#X obj 1622 205 list split 3;
#X obj 1622 230 unpack f f f;
#X obj 1722 230 unpack f f f;
#X obj 1622 275 * 256;
#X obj 1682 305 * 256;
#X obj 1742 335 * 256;
#X obj 383 246 change;
#X text 118 23 [PIXLED-SERIE-DMX $cible $DMXadress];
#X msg 117 462 set \, add2 symbol PIXLED-SERIE-MANAGER-DIMMER-\$1 \, 1;
#X msg 478 262 set \, add2 symbol PIXLED-SERIE-MANAGER-SERIE-\$1 \, 1;
#X msg 1167 362 set \, add2 symbol PIXLED-SERIE-MANAGER-TIME-FADE-\$1 \, 1;
#X msg 1887 302 set \, add2 symbol PIXLED-SERIE-MANAGER-RGB-\$1 \, 1;
#X msg 2716 408 set \, add2 symbol PIXLED-SERIE-MANAGER-selecteur-toggleall-\$1 \, 1;
#X connect 0 0 71 0;
#X connect 1 0 5 0;
#X connect 2 0 3 0;
#X connect 2 1 4 0;
#X connect 3 0 7 0;
#X connect 3 1 8 0;
#X connect 4 0 9 1;
#X connect 4 1 19 0;
#X connect 5 0 2 0;
#X connect 5 1 6 0;
#X connect 6 0 19 0;
#X connect 7 0 11 0;
#X connect 8 0 11 0;
#X connect 9 0 2 0;
#X connect 11 0 21 0;
#X connect 12 0 14 0;
#X connect 13 0 14 0;
#X connect 14 0 86 0;
#X connect 15 0 16 0;
#X connect 16 0 17 0;
#X connect 17 0 10 1;
#X connect 18 0 15 1;
#X connect 19 0 11 1;
#X connect 19 0 15 0;
#X connect 20 0 18 0;
#X connect 21 0 9 0;
#X connect 21 1 10 0;
#X connect 22 0 38 0;
#X connect 22 1 26 0;
#X connect 26 0 74 0;
#X connect 26 1 1 0;
#X connect 27 0 30 0;
#X connect 28 0 30 1;
#X connect 29 0 30 2;
#X connect 30 0 37 0;
#X connect 31 0 33 0;
#X connect 32 0 33 0;
#X connect 33 0 85 0;
#X connect 34 0 36 0;
#X connect 35 0 34 0;
#X connect 36 0 37 1;
#X connect 38 0 39 0;
#X connect 38 1 40 1;
#X connect 39 0 40 0;
#X connect 40 0 47 0;
#X connect 41 0 43 0;
#X connect 42 0 43 0;
#X connect 43 0 84 0;
#X connect 44 0 46 0;
#X connect 45 0 44 0;
#X connect 46 0 47 1;
#X connect 48 0 50 0;
#X connect 49 0 50 0;
#X connect 50 0 83 0;
#X connect 51 0 53 0;
#X connect 52 0 51 0;
#X connect 53 0 54 1;
#X connect 55 0 69 0;
#X connect 55 1 58 0;
#X connect 56 1 80 0;
#X connect 57 0 54 0;
#X connect 58 0 56 0;
#X connect 58 1 22 0;
#X connect 61 0 63 0;
#X connect 62 0 63 0;
#X connect 63 0 82 0;
#X connect 64 0 66 0;
#X connect 65 0 64 0;
#X connect 66 0 67 1;
#X connect 69 0 67 0;
#X connect 70 0 57 0;
#X connect 71 0 72 0;
#X connect 72 1 55 0;
#X connect 74 0 75 0;
#X connect 74 1 76 0;
#X connect 75 0 27 0;
#X connect 75 1 28 0;
#X connect 75 2 29 0;
#X connect 76 0 77 0;
#X connect 76 1 78 0;
#X connect 76 2 79 0;
#X connect 77 0 27 1;
#X connect 78 0 28 1;
#X connect 79 0 29 1;
#X connect 80 0 57 0;
#X connect 82 0 64 0;
#X connect 83 0 51 0;
#X connect 84 0 44 0;
#X connect 85 0 34 0;
#X connect 86 0 18 0;
