#N canvas 961 109 897 730 12;
#X obj 92 44 inlet;
#X msg 92 412, f 97;
#X obj 92 388 prepend add;
#X msg 514 392 set;
#X obj 514 367 r ClearPoolRequestL;
#X obj 502 123 outlet;
#X obj 92 128 t a a a;
#X obj 154 165 list split 1;
#X obj 194 195 list split 1;
#X obj 234 225 list split 2;
#X obj 209 321 list;
#X obj 209 346 list prepend connect;
#X msg 154 225 IP-\$1;
#X obj 154 250 t b a;
#X obj 240 386 send;
#X obj 265 270 symbol;
#X obj 131 310 tgl 20 0 empty empty empty 0 -10 0 12 #fcfcfc #000000 #000000 0 1;
#X obj 92 343 spigot;
#X obj 391 366 route list;
#X text 164 42 inlet OSC from ESP;
#X obj 92 103 routeOSC /Pool_REQUEST /Pool_REPLY;
#X obj 502 148 print PoolReply;
#X connect 0 0 20 0;
#X connect 2 0 1 0;
#X connect 3 0 1 0;
#X connect 4 0 3 0;
#X connect 6 0 17 0;
#X connect 6 1 7 0;
#X connect 6 2 21 0;
#X connect 7 0 12 0;
#X connect 7 1 8 0;
#X connect 8 1 9 0;
#X connect 9 0 10 1;
#X connect 10 0 11 0;
#X connect 11 0 18 0;
#X connect 12 0 13 0;
#X connect 13 0 10 0;
#X connect 13 1 15 0;
#X connect 15 0 14 1;
#X connect 16 0 17 1;
#X connect 17 0 2 0;
#X connect 18 0 14 0;
#X connect 20 0 6 0;
#X connect 20 1 6 0;
#X connect 20 2 5 0;
