#N canvas 246 152 605 555 12;
#X obj 101 101 cnv 20 134 58 empty empty empty 20 12 0 12 #bbbbbb #404040 0;
#X obj 105 102 hsl 127 10 0 255 0 0 empty empty empty -2 -10 0 12 #ff0400 #bbbbbb #000000 0 0;
#X obj 105 114 hsl 127 10 0 255 0 0 empty empty empty -2 -10 0 12 #00ff04 #606060 #000000 0 0;
#X obj 105 126 hsl 127 10 0 255 0 0 empty empty empty -2 -10 0 12 #0400ff #dfdfdf #000000 0 0;
#X obj 458 275 pack f f f;
#X listbox 105 140 12 0 255 1 \$1 - - 10;
#X obj 413 110 int;
#X obj 468 109 int;
#X obj 518 111 int;
#X msg 25 308 set \$1;
#X msg 35 328 set \$2;
#X msg 45 348 set \$3;
#X obj 32 24 inlet;
#X obj 159 367 outlet;
#X obj 518 161 t b a;
#X obj 468 161 t b a;
#X msg 127 40 0 0 0;
#X obj 32 49 unpack f f f;
#X msg 75 308 \$1;
#X msg 95 348 \$3;
#X msg 85 328 \$2;
#X obj 18 266 t a a a a a a a;
#X connect 1 0 6 0;
#X connect 2 0 7 0;
#X connect 3 0 8 0;
#X connect 4 0 5 0;
#X connect 5 0 21 0;
#X connect 6 0 4 0;
#X connect 7 0 15 0;
#X connect 8 0 14 0;
#X connect 9 0 1 0;
#X connect 10 0 2 0;
#X connect 11 0 3 0;
#X connect 12 0 17 0;
#X connect 14 0 4 0;
#X connect 14 1 4 2;
#X connect 15 0 4 0;
#X connect 15 1 4 1;
#X connect 16 0 17 0;
#X connect 17 0 1 0;
#X connect 17 1 2 0;
#X connect 17 2 3 0;
#X connect 18 0 6 1;
#X connect 19 0 8 1;
#X connect 20 0 7 1;
#X connect 21 0 9 0;
#X connect 21 1 10 0;
#X connect 21 2 11 0;
#X connect 21 3 18 0;
#X connect 21 4 20 0;
#X connect 21 5 19 0;
#X connect 21 6 13 0;
#X coords 0 -1 1 1 136 60 2 100 100;
