#N canvas 114 315 1048 609 10;
#X text 577 534 /home/pi/Documents/SCRIPT/OSC_to_OLA "port" "universe-name"
, f 66;
#X msg 810 202 cat /etc/ola/ola-osc.conf;
#X obj 810 224 ggee/shell;
#X obj 810 246 print OLA;
#X obj 401 101 cnv 15 398 58 empty empty OSC_to_OLA_\$1_\$2 20 12 1
14 -203904 -262130 0;
#X obj 442 133 bng 15 250 50 0 restart_ola\$0 restart_ola restart_ola
17 7 0 10 -45076 -262144 -1;
#X obj 463 120 tgl 15 0 TOGGLE_DMX_\$0 TOGGLE_DMX TOGGLE_DMX 17 7 0
10 -258113 -4034 -1 1 1;
#X obj 69 176 unpack;
#X msg 153 277 const 0;
#X obj 71 262 loadbang;
#X msg 557 45 sudo service olad restart;
#X obj 557 68 ggee/shell;
#X obj 301 390 bng 15 250 50 0 empty TRIG_DMX TRIG_DMX 17 7 0 10 -4160
-1 -1;
#X obj 301 372 bng 15 250 50 0 TRIG_DMX empty TRIG_DMX 17 7 0 10 -4160
-1 -1;
#X obj 212 513 tgl 15 0 empty TOGGLE_DMX_\$0 TOGGLE_DMX_\$0 17 7 0
10 -258113 -4034 -1 1 1;
#X obj 507 30 bng 15 250 50 0 empty restart_ola\$0 restart_ola\$0 17
7 0 10 -45076 -262144 -1;
#X msg 692 373 16 0;
#X msg 692 353 16 255;
#X msg 154 299 resize 513;
#X obj 69 202 array set DMX512-\$2;
#X obj 154 321 array define DMX512-\$2;
#X obj 71 405 array get DMX512-\$2;
#X obj 184 139 inlet;
#X obj 71 306 metro 40;
#X msg 671 435 \; array1 0;
#X obj 849 113 inlet;
#X obj 530 132 bng 15 250 50 0 OPEN_universe\$0 OPEN_universe OPEN_0
17 7 0 10 -4034 -1 -1;
#X obj 69 129 r SET_DMX;
#X obj 670 477 print WTF_OSC_to_OLA;
#X obj 674 108 bng 12 250 50 0 empty print-OSC_config print-OSC_config
14 4 0 10 -191407 -1 -1;
#X msg 491 251 \; TOGGLE_DMX 0 \; restart_ola \; print-OSC_config 1
\; dmx_universe-0 connect 127.0.0.1 7770;
#X msg 408 71 \; OPEN_universe 1;
#X obj 94 446 text set universe-\$0;
#X obj 598 127 OSCsender 127.0.0.1 \$1 dmx_universe-\$2;
#X obj 71 486 cyclone/prepend sendtyped /dmx/universe/\$2 b;
#X obj 673 404 cyclone/prepend sendtyped /dmx/universe/\$2 ii;
#X msg 192 166 25 10;
#X obj 979 111 inlet;
#X msg 150 58 click;
#X obj 150 37 bng 15 250 50 0 empty OPEN_universe\$0 OPEN_universe\$0
17 7 0 10 -4034 -1 -1;
#X obj 89 72 text define universe-\$0;
#X connect 1 0 2 0;
#X connect 2 0 3 0;
#X connect 7 0 19 0;
#X connect 7 1 19 1;
#X connect 8 0 20 0;
#X connect 9 0 18 0;
#X connect 10 0 11 0;
#X connect 12 0 21 0;
#X connect 14 0 23 0;
#X connect 15 0 10 0;
#X connect 16 0 35 0;
#X connect 17 0 35 0;
#X connect 18 0 20 0;
#X connect 21 0 32 0;
#X connect 21 0 34 0;
#X connect 22 0 7 0;
#X connect 23 0 21 0;
#X connect 25 0 33 1;
#X connect 27 0 7 0;
#X connect 29 0 1 0;
#X connect 34 0 33 0;
#X connect 35 0 33 0;
#X connect 36 0 7 0;
#X connect 37 0 21 2;
#X connect 38 0 40 0;
#X connect 39 0 38 0;
#X coords 0 -1 1 1 400 60 1 400 100;
