#N canvas 0 84 1680 966 10;
#X obj 176 964 bng 15 250 50 0 empty empty empty 17 7 0 10 -262144
-1 -1;
#X obj 176 986 + 13;
#X obj 217 964 bng 15 250 50 0 empty empty empty 17 7 0 10 -262144
-1 -1;
#X obj 217 986 + 16;
#X obj 176 1027 prepend \$0;
#X msg 176 1053 \; cnv_\$1 color \$2 0 18;
#X obj 822 85 cnv 15 300 400 empty empty empty 20 12 0 14 -233017 -66577
0;
#X obj 1371 242 cnv 15 100 60 empty empty empty 20 12 0 14 -233017
-66577 0;
#X obj 1381 252 cnv 15 100 60 empty empty empty 20 12 0 14 -233017
-66577 0;
#X obj 1391 262 cnv 15 100 60 empty empty empty 20 12 0 14 -233017
-66577 0;
#X obj 1401 272 cnv 15 100 60 empty empty empty 20 12 0 14 -233017
-66577 0;
#X obj 1411 282 cnv 15 100 60 empty empty empty 20 12 0 14 -233017
-66577 0;
#X obj 1421 292 cnv 15 100 60 empty empty empty 20 12 0 14 -233017
-66577 0;
#X obj 823 140 inlet;
#X obj 186 74 inlet;
#X obj 11 323 print OSCsender \$3;
#X msg 208 615 /test 1;
#X obj 11 110 spigot;
#X obj 18 286 spigot;
#X text 385 6 [OSCsender "IP" "Port" "Name"];
#X obj 176 272 osc/packOSC;
#X obj 176 341 cyclone/prepend send;
#X obj 270 647 ggee/shell;
#X msg 270 624 hostname -I;
#X obj 372 759 ggee/shell;
#X msg 372 738 hostname;
#X obj 270 821 cyclone/prepend;
#X obj 270 846 cyclone/prepend /SOURCE;
#X obj 176 412 netsend -u -b;
#X obj 436 48 print WTF;
#X obj 176 445 tgl 15 0 empty empty empty 17 7 0 10 -262144 -1 -1 1
1;
#X obj 208 509 route 1;
#X obj 176 939 route 0 1;
#X obj 823 156 r \$3;
#X obj 264 450 print backward;
#X obj 270 669 symbol;
#X symbolatom 280 686 20 0 0 0 - - -;
#X obj 372 786 symbol;
#X symbolatom 382 803 20 0 0 0 - - -;
#X text 285 575 prepare le message source/test;
#X symbolatom 994 294 20 0 0 0 - - -;
#X floatatom 1029 250 5 0 0 0 - - -;
#X obj 270 868 s inlet1_\$0;
#X obj 176 57 r inlet1_\$0;
#X obj 823 124 r inlet2_\$0;
#X obj 960 218 unpack s s f;
#X obj 199 372 r netsend-\$0;
#X obj 917 395 s netsend-\$0;
#X msg 934 338 disconnect;
#X obj 270 601 t b b;
#X obj 270 580 bng 15 250 50 0 empty empty empty 17 7 0 10 -262144
-1 -1;
#X obj 176 96 prepend;
#X obj 270 708 cyclone/prepend \$3;
#X obj 208 487 == 1;
#X obj 994 313 s ip-\$0;
#X obj 1029 269 s port-\$0;
#X obj 707 48 r ip-\$0;
#X obj 741 91 r port-\$0;
#X floatatom 741 113 5 0 0 0 - - -;
#X symbolatom 707 70 15 0 0 0 - - -;
#X obj 0 0 cnv 15 199 29 empty cnv_\$0 TO_EXEC_192.168.1.255:9997 2
8 1 10 -24198 -62784 0;
#X obj 900 421 prepend \$0 \$3;
#X obj 208 550 t b b;
#X msg 823 108 connect 127.0.0.1 8888;
#X obj 51 269 tgl 10 0 empty OSC_ascii_printer_\$0 OSC_ascii_printer_\$0
12 5 0 8 -13381 -4032 -4160 0 1;
#X obj 44 93 tgl 10 0 empty OSC_hex_printer_\$0 OSC_hex_printer_\$0
12 6 0 8 -13381 -4032 -1 0 1;
#X obj 674 138 pack s s f;
#X msg 674 27 connect;
#X obj 674 201 s inlet2_\$0;
#X obj 674 160 route list;
#X obj 188 19 bng 10 250 50 0 empty empty reconnect -55 5 0 10 -262144
-1 -262144;
#X msg 900 443 \; cnv_\$1 label \$2_\$4:\$5;
#X obj 900 193 t a a b a;
#X obj 176 465 t a a;
#X text 824 87 RENAME CNV LABEL;
#X obj 536 379 cnv 15 200 200 empty empty empty 20 12 0 14 -233017
-66577 0;
#X obj 549 402 loadbang;
#X obj 651 411 bng 15 250 50 0 empty empty empty 17 7 0 10 -262144
-1 -1;
#X obj 600 454 prepend connect \$1 \$2;
#X obj 600 476 s inlet2_\$0;
#X obj 566 528 float \$2;
#X obj 583 509 symbol \$3;
#X obj 549 548 symbol \$1;
#X obj 549 424 t b b b b;
#X text 535 380 INIT;
#X obj 45 16 tgl 10 0 OSC_hex_printer_\$0 OSC_hex_printer HEX 12 6
0 8 -13381 -4032 -1 0 1;
#X obj 5 16 tgl 10 0 OSC_ascii_printer_\$0 OSC_ascii_printer Ascii
12 5 0 8 -13381 -4032 -4160 0 1;
#X obj 308 504 route 1;
#X obj 308 483 == 0;
#X obj 308 525 delay 10000;
#X msg 270 501 stop;
#X obj 208 528 delay 1000;
#X connect 0 0 1 0;
#X connect 1 0 4 0;
#X connect 2 0 3 0;
#X connect 3 0 4 0;
#X connect 4 0 5 0;
#X connect 13 0 72 0;
#X connect 14 0 51 0;
#X connect 16 0 42 0;
#X connect 17 0 15 0;
#X connect 18 0 15 0;
#X connect 20 0 18 0;
#X connect 20 0 21 0;
#X connect 21 0 28 0;
#X connect 22 0 35 0;
#X connect 23 0 22 0;
#X connect 24 0 37 0;
#X connect 25 0 24 0;
#X connect 26 0 27 0;
#X connect 27 0 42 0;
#X connect 28 0 30 0;
#X connect 28 1 34 0;
#X connect 30 0 73 0;
#X connect 31 0 91 0;
#X connect 32 0 0 0;
#X connect 32 1 2 0;
#X connect 33 0 72 0;
#X connect 35 0 36 0;
#X connect 35 0 52 0;
#X connect 37 0 38 0;
#X connect 37 0 26 1;
#X connect 40 0 54 0;
#X connect 41 0 55 0;
#X connect 43 0 51 0;
#X connect 44 0 72 0;
#X connect 45 1 40 0;
#X connect 45 2 41 0;
#X connect 46 0 28 0;
#X connect 48 0 47 0;
#X connect 49 0 23 0;
#X connect 49 1 25 0;
#X connect 50 0 49 0;
#X connect 51 0 17 0;
#X connect 51 0 20 0;
#X connect 52 0 26 0;
#X connect 53 0 31 0;
#X connect 53 0 90 0;
#X connect 56 0 59 0;
#X connect 57 0 58 0;
#X connect 58 0 66 2;
#X connect 59 0 66 1;
#X connect 61 0 71 0;
#X connect 62 0 16 0;
#X connect 62 1 50 0;
#X connect 63 0 72 0;
#X connect 64 0 18 1;
#X connect 65 0 17 1;
#X connect 66 0 69 0;
#X connect 67 0 66 0;
#X connect 69 0 68 0;
#X connect 70 0 67 0;
#X connect 72 0 61 0;
#X connect 72 1 47 0;
#X connect 72 2 48 0;
#X connect 72 3 45 0;
#X connect 73 0 32 0;
#X connect 73 1 53 0;
#X connect 73 1 88 0;
#X connect 76 0 83 0;
#X connect 77 0 83 0;
#X connect 78 0 79 0;
#X connect 83 0 82 0;
#X connect 83 1 80 0;
#X connect 83 2 81 0;
#X connect 83 3 78 0;
#X connect 87 0 89 0;
#X connect 88 0 87 0;
#X connect 89 0 70 0;
#X connect 90 0 89 0;
#X connect 91 0 62 0;
#X coords 0 -1 1 1 200 30 2 0 0;
