#N canvas 269 87 961 971 12;
#X obj 9 960 OpPollReply_decoder 0;
#X obj 210 960 OpPollReply_decoder 1;
#X obj 411 960 OpPollReply_decoder 2;
#X obj 612 960 OpPollReply_decoder 3;
#X obj 9 -165 OpPollReply_sender;
#X obj 9 1361 OpPollReply_decoder 4;
#X obj 210 1361 OpPollReply_decoder 5;
#X obj 9 -225 Art-Net-Receiver;
#X obj 223 -185 text define -k Hex2Dec_table;
#A set 0 0 48 0 0 0 0 \; 1 1 49 1 0 0 0 \; 2 2 50 0 1 0 0 \; 3 3 51
1 1 0 0 \; 4 4 52 0 0 1 0 \; 5 5 53 1 0 1 0 \; 6 6 54 0 1 1 0 \; 7
7 55 1 1 1 0 \; 8 8 56 0 0 0 1 \; 9 9 57 1 0 0 1 \; 10 A 65 0 1 0 1
\; 11 B 66 1 1 0 1 \; 12 C 67 0 0 1 1 \; 13 D 68 1 0 1 1 \; 14 E 69
0 1 1 1 \; 15 F 70 1 1 1 1 \;;
#X msg 223 -210 read /home/pi/StuART/convert/Hex2Dec_table;
#X obj 411 1361 OpPollReply_decoder 6;
#X obj 612 1361 OpPollReply_decoder 7;
#X obj 9 1762 OpPollReply_decoder 8;
#X obj 210 1762 OpPollReply_decoder 9;
#X obj 411 1762 OpPollReply_decoder 10;
#X obj 612 1762 OpPollReply_decoder 11;
#X obj 9 2163 OpPollReply_decoder 12;
#X obj 210 2163 OpPollReply_decoder 13;
#X obj 411 2163 OpPollReply_decoder 14;
#X obj 612 2163 OpPollReply_decoder 15;
#X obj 210 -65 OpDmx_Universe-scanner;
#X obj 210 -126 OpDmx_decoder;
#X obj 9 417 OpDmx_Universe 0;
#X obj 210 417 OpDmx_Universe 1;
#X obj 9 176 OpDmx_Universe 32;
#X obj 9 76 OpDmx_Universe 16;
#X obj 210 176 OpDmx_Universe 33;
#X obj 411 417 OpDmx_Universe 3;
#X obj 612 417 OpDmx_Universe 4;
#X obj 411 176 OpDmx_Universe 34;
#X obj 612 176 OpDmx_Universe 35;
#X obj 210 76 OpDmx_Universe 17;
#X obj 411 76 OpDmx_Universe 18;
#X obj 612 76 OpDmx_Universe 19;
#X obj 9 316 Merged_Universe 1;
#X obj 9 276 Merge 16 32 M1;
#X obj 210 276 Merge 17 33 M2;
#X obj 210 316 Merged_Universe 2;
#X obj 411 316 Merged_Universe 3;
#X obj 411 276 Merge 18 34 M3;
#X obj 612 276 Merge 19 35 M4;
#X obj 612 316 Merged_Universe 4;
#X text 819 108 Salle_1_SubNET-1 Universe 0-3;
#X text 819 208 Salle_2_SubNET-2 Universe 0-3;
#X text 839 449 Aux1_SubNET-0 Universe 0-3;
#X obj 9 517 OpDmx_Universe 48;
#X obj 210 517 OpDmx_Universe 49;
#X obj 411 517 OpDmx_Universe 50;
#X obj 612 517 OpDmx_Universe 51;
#X obj 9 617 Merge 0 48 M11;
#X obj 210 617 Merge 1 49 M12;
#X obj 411 617 Merge 3 50 M13;
#X obj 612 617 Merge 4 51 M14;
#X obj 9 657 Merged_Universe 11;
#X obj 210 657 Merged_Universe 12;
#X obj 411 657 Merged_Universe 13;
#X obj 612 657 Merged_Universe 14;
#X text 839 549 Aux2_SubNET-3 Universe 0-3;
#X obj 9 758 Merge M1 M11 M111;
#X obj 210 758 Merge M2 M12 M112;
#X obj 411 758 Merge M3 M13 M113;
#X obj 612 758 Merge M4 M14 M114;
#X obj 9 798 Merged_Universe 111;
#X obj 210 798 Merged_Universe 112;
#X obj 411 798 Merged_Universe 113;
#X obj 612 798 Merged_Universe 114;
#X obj 9 899 sACN_DMX_Send 1 M111;
#X obj 223 -160 text define -k VECTOR_ROOT;
#A set 4 VECTOR_ROOT_E131_DATA 0x00000004 DATA \; 8 VECTOR_ROOT_E131_EXTENDED
0x00000008 EXTENDED \;;
#X obj 209 899 sACN_DMX_Send 2 M112;
#X obj 409 899 sACN_DMX_Send 3 M113;
#X obj 609 899 sACN_DMX_Send 4 M114;
#X obj 529 -210 loadbang;
#X msg 529 -185 sudo service olad restart;
#X obj 529 -160 ggee/shell;
#X obj 425 -101 tgl 15 0 empty empty empty 17 7 0 10 -262144 -1 -1
0 1;
#X msg 425 -54 cat /sys/class/thermal/thermal_zone0/temp;
#X obj 425 -32 ggee/shell;
#X obj 425 -7 / 1000;
#X obj 425 18 int;
#X obj 425 41 print CPU-Temp/°C;
#X obj 636 -161 route 0;
#X obj 636 -80 ggee/shell;
#X obj 425 -78 metro 20000;
#X obj 591 -205 bng 15 250 50 0 empty empty empty 17 7 0 10 -262144
-1 -1;
#X msg 636 -105 lxterminal -e ola_dmxmonitor -u 1;
#X connect 9 0 8 0;
#X connect 71 0 72 0;
#X connect 72 0 73 0;
#X connect 73 1 80 0;
#X connect 74 0 82 0;
#X connect 75 0 76 0;
#X connect 76 0 77 0;
#X connect 77 0 78 0;
#X connect 78 0 79 0;
#X connect 80 0 84 0;
#X connect 82 0 75 0;
#X connect 83 0 72 0;
#X connect 84 0 81 0;
