#N canvas 621 246 1027 650 10;
#X obj 101 101 cnv 15 198 208 empty cnv_FX-RAMP-editor 44fader 2 10
0 12 -203904 -66577 0;
#X obj 103 416 tgl 15 0 FX-ramp-toogle empty FX-ramp-toogle 17 7 0
10 -262144 -1 -1 0 1;
#X obj 428 31 r SELECT;
#X text 283 -68 FX-RAMP_$channel \, max_val min_val up_time down_tine
Dlay loop \;;
#X msg 428 124 FX-RAMP_\$1;
#X obj 389 190 prepend;
#X obj 428 332 s to_control_f-dmx;
#X msg 137 -69 255 55 500 1500 1100 0;
#X obj 159 289 tgl 15 0 empty empty loop -26 7 0 10 -262144 -1 -1 0
1;
#X obj 350 331 send to_cue;
#X obj 159 121 vsl 15 128 0 255 0 0 empty empty empty 0 -9 0 10 -4160
-4032 -1 0 1;
#X obj 766 171 * 1000;
#X obj 199 121 vsl 15 128 0.001 60 1 0 empty empty empty 0 -9 0 10
-260097 -262144 -1 0 1;
#X floatatom 199 254 5 0.001 3600 1 up_time/s - -;
#X msg 766 143 set \$1;
#X obj 856 171 * 1000;
#X obj 215 121 vsl 15 128 0.001 60 1 0 empty empty empty 0 -9 0 10
-260097 -262144 -1 0 1;
#X floatatom 199 271 5 0.001 3600 1 down_time/s - -;
#X msg 856 143 set \$1;
#X obj 956 171 * 1000;
#X obj 231 121 vsl 15 128 0.001 60 1 0 empty empty empty 0 -9 0 10
-260097 -4034 -1 0 1;
#X floatatom 199 288 5 0.001 3600 1 delay/s - -;
#X msg 956 143 set \$1;
#X floatatom 159 254 5 0 255 0 min_value - -;
#X msg 616 143 set \$1;
#X obj 175 121 vsl 15 128 0 255 0 0 empty empty empty 0 -9 0 10 -4160
-4032 -1 0 1;
#X floatatom 159 271 5 0 255 0 max_value - -;
#X msg 706 143 set \$1;
#X obj 956 224 t b f;
#X obj 856 224 t b f;
#X obj 766 224 t b f;
#X obj 706 193 t b f;
#X obj 684 504 t b f;
#X obj 684 270 pack f f f f f f;
#X obj 626 121 int;
#X obj 716 121 int;
#X obj 956 194 int;
#X obj 856 194 int;
#X obj 766 194 int;
#X obj 664 303 print FX-RAMP;
#X obj 103 119 bng 15 250 50 0 empty KillAll-FX KillFX 17 7 0 10 -258113
-1 -1;
#X obj 103 390 int 0;
#X obj 490 -13 bng 15 250 50 0 empty empty RAZ 17 7 0 10 -191407 -1
-1;
#X obj 490 7 symbol SELECTED;
#X msg 490 47 \; cnv_FX-RAMP-editor label \$1;
#X connect 2 0 4 0;
#X connect 2 0 44 0;
#X connect 4 0 5 1;
#X connect 5 0 6 0;
#X connect 5 0 9 0;
#X connect 7 0 5 0;
#X connect 8 0 32 0;
#X connect 10 0 34 0;
#X connect 11 0 38 0;
#X connect 12 0 13 0;
#X connect 13 0 14 0;
#X connect 13 0 11 0;
#X connect 14 0 12 0;
#X connect 15 0 37 0;
#X connect 16 0 17 0;
#X connect 17 0 18 0;
#X connect 17 0 15 0;
#X connect 18 0 16 0;
#X connect 19 0 36 0;
#X connect 20 0 21 0;
#X connect 21 0 22 0;
#X connect 21 0 19 0;
#X connect 22 0 20 0;
#X connect 23 0 24 0;
#X connect 23 0 33 0;
#X connect 24 0 10 0;
#X connect 25 0 35 0;
#X connect 26 0 27 0;
#X connect 26 0 31 0;
#X connect 27 0 25 0;
#X connect 28 0 33 0;
#X connect 28 1 33 4;
#X connect 29 0 33 0;
#X connect 29 1 33 3;
#X connect 30 0 33 0;
#X connect 30 1 33 2;
#X connect 31 0 33 0;
#X connect 31 1 33 1;
#X connect 32 0 33 0;
#X connect 32 1 33 5;
#X connect 33 0 5 0;
#X connect 34 0 23 0;
#X connect 35 0 26 0;
#X connect 36 0 28 0;
#X connect 37 0 29 0;
#X connect 38 0 30 0;
#X connect 40 0 41 0;
#X connect 41 0 1 0;
#X connect 42 0 43 0;
#X connect 43 0 44 0;
#X coords 0 -1 1 1 200 210 2 100 100;
