#N canvas 0 68 1920 977 12;
#X obj 101 101 cnv 20 698 168 empty empty BOITACLIK-controler 140 10 0 12 #faff00 #0400ff 0;
#X msg 377 311 /autostart 1, f 32;
#X floatatom 111 145 5 0 255 0 - - - 0;
#X floatatom 148 145 5 0 255 0 - - - 0;
#X floatatom 185 145 5 0 255 0 - - - 0;
#X floatatom 222 145 5 0 255 1 IP - - 0;
#X symbolatom 38 476 10 0 0 0 - - - 0;
#X msg 38 452 symbol /;
#X msg 38 432 symbol /isole/;
#X msg 38 412 symbol /control/;
#X obj 110 500 t b a;
#X obj 150 500 t b a;
#X obj 190 500 t b a;
#X obj 230 500 t b a;
#X msg 38 545 /network\$1ip \$2.\$3.\$4.\$5;
#X floatatom 294 145 10 0 50000 1 Port - - 0;
#X symbolatom 386 483 10 0 0 0 - - - 0;
#X msg 386 459 symbol /;
#X msg 386 439 symbol /isole/;
#X msg 386 419 symbol /control/;
#X obj 458 507 t b a;
#X msg 386 552 /network\$1port \$2;
#X obj 576 556 routeOSC;
#X symbolatom 384 209 15 0 0 1 Record - - 0;
#X msg 553 397 /memory/record \$1;
#X symbolatom 384 229 15 0 0 1 Recall - - 0;
#X msg 553 417 /memory/recall \$1;
#X obj 384 188 bng 20 250 50 0 empty Memory/printState PrintState 22 11 0 12 #fcfcfc #000000 #000000;
#X obj 259 572 routeOSC;
#X symbolatom 181 209 15 0 0 1 Record - - 0;
#X symbolatom 181 229 15 0 0 1 Recall - - 0;
#X obj 181 188 bng 20 250 50 0 empty Network/printState PrintState 22 11 0 12 #fcfcfc #000000 #000000;
#X msg 194 395 /network/record \$1;
#X msg 194 415 /network/recall \$1;
#X msg 550 357 /memory/list 1, f 32;
#X obj 384 168 bng 20 250 50 0 empty Memory/List MemoryList 22 11 0 12 #fcfcfc #000000 #000000;
#X msg 550 377 /memory/printState 1, f 32;
#X obj 181 168 bng 20 250 50 0 empty Network/List NetworkList 22 11 0 12 #fcfcfc #000000 #000000;
#X msg 191 355 /network/list 1, f 32;
#X msg 191 375 /network/printState 1, f 32;
#X symbolatom 384 249 15 0 0 1 Delete - - 0;
#X msg 553 437 /memory/delete \$1;
#X msg 194 435 /network/delete \$1;
#X symbolatom 181 249 15 0 0 1 Delete - - 0;
#X obj 551 146 bng 20 250 50 0 empty empty Autostart 22 11 0 12 #fcfcfc #000000 #000000;
#X obj 171 122 bng 20 250 50 0 empty empty Control 22 11 0 12 #fcfcfc #000000 #000000;
#X obj 111 122 bng 20 250 50 0 empty empty Isole 22 11 0 12 #fcfcfc #000000 #000000;
#X obj 241 122 bng 20 250 50 0 empty empty All 22 11 0 12 #fcfcfc #000000 #000000;
#X obj 354 122 bng 20 250 50 0 empty empty Control 22 11 0 12 #fcfcfc #000000 #000000;
#X obj 294 122 bng 20 250 50 0 empty empty Isole 22 11 0 12 #fcfcfc #000000 #000000;
#X obj 424 122 bng 20 250 50 0 empty empty All 22 11 0 12 #fcfcfc #000000 #000000;
#X obj 849 354 hradio 20 1 0 8 empty empty Assign 0 -10 0 12 #fcfcfc #000000 #000000 0;
#X obj 866 383 + 1;
#X msg 866 408 /assign/\$1;
#X symbolatom 925 335 15 0 0 0 Char - - 0;
#X obj 904 617 routeOSC;
#X msg 866 458 \$1 \$2;
#X obj 866 433 pack s s;
#X obj 477 607 r to BOITACLIK-controler;
#X obj 113 707 s;
#X symbolatom 487 101 30 0 0 0 Selected - - 0;
#X obj 477 632 t a a;
#X msg 312 667 symbol OSC_to_StuART_\$1;
#X msg 711 713 symbol OSC_to_StuART_BOITACLIK_ALL;
#X msg 682 688 symbol BOITACLIK_ALL;
#X obj 497 121 bng 20 250 50 0 empty empty SelectALL 22 11 0 12 #fcfcfc #000000 #000000;
#X obj 682 657 t b b;
#X obj 1135 573 hradio 20 1 0 20 empty numero-qlist-\$0 numero-qlist-\$0 0 -10 0 12 #ffe3c6 #000000 #000000 0;
#X obj 1135 693 s \$0-name;
#X obj 1680 426 qlist;
#X obj 1136 465 t b a;
#X obj 1168 504 s numero-qlist-\$0;
#X obj 1135 504 bng 20 250 50 0 read-\$0 empty read-\$0 0 -10 0 12 #c6ffc7 #000000 #000000;
#X obj 1219 439 t b a;
#X obj 1251 478 s numero-qlist-\$0;
#X obj 1218 477 bng 20 250 50 0 write-\$0 empty write-\$0 0 -10 0 12 #ffc7c6 #000000 #000000;
#X obj 1349 444 s numero-qlist-\$0;
#X obj 1326 444 bng 20 250 50 0 read-\$0 empty read-\$0 0 -10 0 12 #c6ffc7 #000000 #000000;
#X obj 1302 395 t b b a;
#X obj 1302 434 bng 20 250 50 0 sequence-\$0 empty sequence-\$0 0 -10 0 12 #e3c6ff #000000 #000000;
#X obj 1424 390 outlet;
#X msg 1234 673 \; \$1_canvas label \$2;
#X obj 1234 648 prepend \$0;
#X obj 1135 628 t a a;
#N canvas 0 71 960 977 manual-control 0;
#X msg 179 687 //read \$1;
#X obj 100 118 hradio 20 1 0 20 empty empty read 0 -10 0 12 #c6ffc7 #000000 #000000 0;
#X obj 100 158 hradio 20 1 0 20 empty empty write 0 -10 0 12 #ffc7c6 #000000 #000000 0;
#X msg 202 598 //write \$1;
#X obj 100 198 hradio 20 1 0 20 empty empty send 0 -10 0 12 #e3c6ff #000000 #000000 0;
#X msg 225 512 //send \$1;
#X obj 179 373 makefilename /%s;
#X obj 179 398 t a a a;
#X msg 179 658 set \, add2 \$1 \, adddollar 1;
#X obj 179 343 symbol \$1;
#X obj 179 315 bng 20 250 50 1 empty empty INIT 0 -10 0 12 #000000 #ffffff #000000;
#X obj 202 543 makefilename %s/write;
#X msg 202 568 set \, add2 \$1 \, adddollar 1;
#X obj 179 633 makefilename %s/read;
#X msg 225 478 set \, add2 \$1 \, adddollar 1;
#X obj 225 453 makefilename %s/send;
#X obj 639 766 outlet;
#X connect 0 0 16 0;
#X connect 1 0 0 0;
#X connect 2 0 3 0;
#X connect 3 0 16 0;
#X connect 4 0 5 0;
#X connect 5 0 16 0;
#X connect 6 0 7 0;
#X connect 7 0 13 0;
#X connect 7 1 11 0;
#X connect 7 2 15 0;
#X connect 8 0 0 0;
#X connect 9 0 6 0;
#X connect 10 0 9 0;
#X connect 11 0 12 0;
#X connect 12 0 3 0;
#X connect 13 0 8 0;
#X connect 14 0 5 0;
#X connect 15 0 14 0;
#X coords 0 -1 1 1 400 120 2 100 100;
#X restore 1150 236 pd manual-control;
#X msg 1457 800 1 \, 2 \, 3 \, 4 \, 5 \, 6 \, 7;
#X obj 1457 770 bng 20 250 50 0 empty empty INIT-TELECOMMANDE 0 -10 0 12 #bbbbbb #000000 #000000;
#X obj 1679 296 prepend add;
#X obj 1644 691 r \$0-print;
#X obj 1679 321 s \$0-toqlist;
#X obj 1680 392 r \$0-toqlist;
#X obj 1457 882 s \$0-toqlist;
#N canvas 0 71 1920 977 command 0;
#X msg 526 495 read \$1;
#X obj 526 471 symbol;
#X obj 526 447 bng 20 250 50 0 empty read-\$0 read-\$0 0 -10 0 12 #c6ffc7 #000000 #000000;
#X obj 565 447 r \$0-name;
#X obj 664 474 symbol;
#X obj 664 450 bng 20 250 50 0 empty write-\$0 write-\$0 0 -10 0 12 #ffc7c6 #000000 #000000;
#X obj 703 450 r \$0-name;
#X msg 664 497 write \$1;
#X obj 315 442 bng 20 250 50 0 empty sequence-\$0 sequence-\$0 0 -10 0 12 #e3c6ff #000000 #000000;
#X msg 159 561 click;
#X obj 159 432 bng 20 250 50 0 empty open-\$0 open-\$0 0 -10 0 12 #feffc6 #000000 #000000;
#X obj 664 522 t a a;
#X obj 696 549 s \$0-print;
#X obj 526 521 t a a;
#X obj 558 548 s \$0-print;
#X obj 347 501 symbol;
#X obj 386 477 r \$0-name;
#X obj 347 558 s \$0-print;
#X msg 347 525 send \$1;
#X obj 315 477 t a a;
#X obj 191 481 symbol;
#X obj 230 457 r \$0-name;
#X obj 191 538 s \$0-print;
#X obj 159 457 t a a;
#X msg 191 505 open \$1;
#X obj 159 586 s \$0-toqlist;
#X obj 315 582 s \$0-toqlist;
#X obj 526 576 s \$0-toqlist;
#X obj 664 577 s \$0-toqlist;
#X obj 809 432 bng 20 250 50 0 empty print-\$0 print-\$0 0 -10 0 12 #bbbbbb #000000 #000000;
#X obj 841 481 symbol;
#X obj 880 457 r \$0-name;
#X obj 841 538 s \$0-print;
#X obj 809 457 t a a;
#X obj 809 586 s \$0-toqlist;
#X msg 841 505 print \$1;
#X msg 809 561 print;
#X obj 989 432 bng 20 250 50 0 empty clear-\$0 clear-\$0 0 -10 0 12 #ff0400 #000000 #000000;
#X obj 1021 481 symbol;
#X obj 1060 457 r \$0-name;
#X obj 1021 538 s \$0-print;
#X obj 989 457 t a a;
#X obj 989 586 s \$0-toqlist;
#X msg 1021 505 clear \$1;
#X msg 989 561 clear;
#X obj 590 360 bng 20 250 50 0 read-\$0 empty read 25 10 0 12 #c6ffc7 #000000 #000000;
#X obj 190 150 bng 20 250 50 0 sequence-\$0 empty sequence 25 10 0 12 #e3c6ff #000000 #000000;
#X obj 110 127 bng 20 250 50 0 open-\$0 empty open 25 10 0 12 #feffc6 #000000 #000000;
#X obj 281 127 bng 20 250 50 0 write-\$0 empty write 25 10 0 12 #ffc7c6 #000000 #000000;
#X obj 110 150 bng 20 250 50 0 print-\$0 empty print 25 10 0 12 #bbbbbb #000000 #000000;
#X obj 281 150 bng 20 250 50 0 clear-\$0 empty clear 25 10 0 12 #ff0400 #000000 #000000;
#X floatatom 160 101 20 0 0 0 - - - 0;
#X obj 306 44 s numero-qlist-\$0;
#X obj 101 101 cnv 20 246 20 empty \$0_canvas M-BOITACLIK/Memory-3.txt 20 12 0 12 #e8e828 #202020 0;
#X obj 160 44 r numero-qlist-\$0;
#X msg 160 69 set \$1;
#X obj 326 102 bng 18 250 50 0 empty empty empty 0 -10 0 10 #000000 #ffffff #000000;
#X obj 788 217 r numero-qlist-\$0;
#X obj 788 242 t a a;
#X obj 736 277 i;
#X obj 736 302 + 1;
#X obj 776 277 i;
#X obj 756 345 s numero-qlist-\$0;
#X obj 722 245 bng 20 250 50 0 empty empty + 4 10 0 20 #fcfcfc #000000 #000000;
#X obj 754 245 bng 20 250 50 0 empty empty - 4 10 0 20 #fcfcfc #000000 #000000;
#X obj 776 302 - 1;
#X obj 659 5 r commande-lacon;
#X obj 659 145 spigot;
#X obj 698 35 tgl 20 0 empty empty empty 0 -10 0 12 #fcfcfc #000000 #000000 0 1;
#X obj 775 5 r commande-lacon-spigot;
#X obj 362 121 symbol \$2;
#X obj 508 318 t b b;
#X obj 558 318 t b b;
#X obj 362 205 s \$0-print;
#X obj 608 318 t b b;
#X obj 190 127 bng 20 250 50 0 read-\$0 empty read 25 10 0 12 #c6ffc7 #000000 #000000;
#X obj 698 120 t a a;
#X obj 806 140 route 0 1;
#X obj 1022 160 bng 20 250 50 0 empty empty empty 0 -10 0 12 #fcfcfc #000000 #000000;
#X msg 1200 205 \; \$1_canvas color 12 0 10;
#X obj 1200 160 bng 20 250 50 0 empty empty empty 0 -10 0 12 #fcfcfc #000000 #000000;
#X obj 1022 183 i \$0;
#X obj 1200 182 i \$0;
#X obj 698 60 change;
#X msg 1022 206 \; \$1_canvas color 15 0 12;
#X obj 960 5 r commande-lacon-spigot-M-BOITACLIK;
#X msg 362 148 selected \; commande-lacon-spigot 0 \; commande-lacon-spigot-M-BOITACLIK 1;
#X obj 326 68 r SELECT-M-BOITACLIK;
#X obj 659 172 route Q+ Q- send print open;
#X obj 659 90 route M-Q+ M-Q- M-send M-print M-open;
#X obj 156 208 openpanel;
#X obj 188 273 prepend read;
#X obj 156 175 bng 20 250 50 0 empty empty LoadFile 22 10 0 12 #00faff #000000 #000000;
#X obj 188 304 s \$0-toqlist;
#X obj 156 258 prepend \$0;
#X obj 156 233 t a a;
#X obj 316 208 openpanel;
#X obj 256 175 bng 20 250 50 0 empty empty SaveFile 22 10 0 12 #00faff #000000 #000000;
#X obj 348 304 s \$0-toqlist;
#X obj 316 258 prepend \$0;
#X obj 316 233 t a a;
#X obj 348 273 prepend write;
#X msg 308 327 \; \$1_canvas label save-\$2;
#X msg 148 327 \; \$1_canvas label read-\$2;
#X connect 0 0 13 0;
#X connect 1 0 0 0;
#X connect 2 0 1 0;
#X connect 3 0 1 1;
#X connect 4 0 7 0;
#X connect 5 0 4 0;
#X connect 6 0 4 1;
#X connect 7 0 11 0;
#X connect 8 0 19 0;
#X connect 9 0 25 0;
#X connect 10 0 23 0;
#X connect 11 0 28 0;
#X connect 11 1 12 0;
#X connect 13 0 27 0;
#X connect 13 1 14 0;
#X connect 15 0 18 0;
#X connect 16 0 15 1;
#X connect 18 0 17 0;
#X connect 19 0 26 0;
#X connect 19 1 15 0;
#X connect 20 0 24 0;
#X connect 21 0 20 1;
#X connect 23 0 9 0;
#X connect 23 1 20 0;
#X connect 24 0 22 0;
#X connect 29 0 33 0;
#X connect 30 0 35 0;
#X connect 31 0 30 1;
#X connect 33 0 36 0;
#X connect 33 1 30 0;
#X connect 35 0 32 0;
#X connect 36 0 34 0;
#X connect 37 0 41 0;
#X connect 38 0 43 0;
#X connect 39 0 38 1;
#X connect 41 0 44 0;
#X connect 41 1 38 0;
#X connect 43 0 40 0;
#X connect 44 0 42 0;
#X connect 51 0 52 0;
#X connect 54 0 55 0;
#X connect 55 0 51 0;
#X connect 56 0 70 0;
#X connect 57 0 58 0;
#X connect 58 0 59 1;
#X connect 58 1 61 1;
#X connect 59 0 60 0;
#X connect 60 0 62 0;
#X connect 61 0 65 0;
#X connect 63 0 59 0;
#X connect 64 0 61 0;
#X connect 65 0 62 0;
#X connect 66 0 89 0;
#X connect 67 0 88 0;
#X connect 68 0 83 0;
#X connect 69 0 68 0;
#X connect 70 0 86 0;
#X connect 71 0 46 0;
#X connect 71 1 45 0;
#X connect 72 0 49 0;
#X connect 72 1 45 0;
#X connect 74 0 47 0;
#X connect 74 1 45 0;
#X connect 76 0 67 1;
#X connect 76 1 77 0;
#X connect 77 0 78 0;
#X connect 77 1 80 0;
#X connect 78 0 81 0;
#X connect 80 0 82 0;
#X connect 81 0 84 0;
#X connect 82 0 79 0;
#X connect 83 0 76 0;
#X connect 85 0 68 0;
#X connect 86 0 73 0;
#X connect 87 0 56 0;
#X connect 88 0 63 0;
#X connect 88 1 64 0;
#X connect 88 2 71 0;
#X connect 88 3 72 0;
#X connect 88 4 74 0;
#X connect 89 0 63 0;
#X connect 89 1 64 0;
#X connect 89 2 71 0;
#X connect 89 3 72 0;
#X connect 89 4 74 0;
#X connect 89 5 67 0;
#X connect 90 0 95 0;
#X connect 91 0 93 0;
#X connect 92 0 90 0;
#X connect 94 0 103 0;
#X connect 95 0 94 0;
#X connect 95 1 91 0;
#X connect 96 0 100 0;
#X connect 97 0 96 0;
#X connect 99 0 102 0;
#X connect 100 0 99 0;
#X connect 100 1 101 0;
#X connect 101 0 98 0;
#X coords 0 -1 1 1 248 98 1 100 100;
#X restore 550 170 pd command;
#X obj 1712 456 s \$0-done;
#X obj 1585 65 bng 20 250 50 0 empty empty RAZ 0 -10 0 12 #bbbbbb #000000 #000000;
#X obj 1585 90 \$0;
#X obj 1984 865 s OSC_to_StuART_\$2;
#X obj 1679 271 r \$2-toqlist;
#X obj 1136 370 routeOSC /\$2/Qread /\$2/Qwrite /\$2/Qsend;
#X obj 1492 507 routeOSC /Qread /Qwrite /Qsend;
#X obj 1699 535 print lost-in-KONTROL-ALL;
#X obj 1135 603 makefilename M-BOITACLIK/Memory-%d.txt;
#X obj 1457 829 prepend 100;
#X obj 1644 716 print CTRL-M-BOITACLIK;
#X obj 506 38 r M-BOITACLIK;
#X msg 1457 857 add \$1 M-BOITACLIK /assign/\$2 mon/message\$2 1, f 54;
#X msg 1585 141 \; \$1_canvas label /chemin/M-memory;
#X obj 38 520 pack s f f f f;
#X obj 386 527 pack s f;
#X connect 1 0 59 0;
#X connect 2 0 10 0;
#X connect 3 0 11 0;
#X connect 4 0 12 0;
#X connect 5 0 13 0;
#X connect 6 0 107 0;
#X connect 7 0 6 0;
#X connect 8 0 6 0;
#X connect 9 0 6 0;
#X connect 10 0 107 0;
#X connect 10 1 107 1;
#X connect 11 0 107 0;
#X connect 11 1 107 2;
#X connect 12 0 107 0;
#X connect 12 1 107 3;
#X connect 13 0 107 0;
#X connect 13 1 107 4;
#X connect 14 0 59 0;
#X connect 15 0 20 0;
#X connect 16 0 108 0;
#X connect 17 0 16 0;
#X connect 18 0 16 0;
#X connect 19 0 16 0;
#X connect 20 0 108 0;
#X connect 20 1 108 1;
#X connect 21 0 59 0;
#X connect 22 0 59 0;
#X connect 23 0 24 0;
#X connect 24 0 22 0;
#X connect 25 0 26 0;
#X connect 26 0 22 0;
#X connect 27 0 36 0;
#X connect 28 0 59 0;
#X connect 29 0 32 0;
#X connect 30 0 33 0;
#X connect 31 0 39 0;
#X connect 32 0 28 0;
#X connect 33 0 28 0;
#X connect 34 0 22 0;
#X connect 35 0 34 0;
#X connect 36 0 22 0;
#X connect 37 0 38 0;
#X connect 38 0 28 0;
#X connect 39 0 28 0;
#X connect 40 0 41 0;
#X connect 41 0 22 0;
#X connect 42 0 28 0;
#X connect 43 0 42 0;
#X connect 44 0 1 0;
#X connect 45 0 9 0;
#X connect 46 0 8 0;
#X connect 47 0 7 0;
#X connect 48 0 19 0;
#X connect 49 0 18 0;
#X connect 50 0 17 0;
#X connect 51 0 52 0;
#X connect 52 0 53 0;
#X connect 53 0 57 0;
#X connect 54 0 57 1;
#X connect 55 0 59 0;
#X connect 56 0 55 0;
#X connect 57 0 56 0;
#X connect 58 0 61 0;
#X connect 61 0 62 0;
#X connect 61 1 60 0;
#X connect 62 0 59 1;
#X connect 63 0 59 1;
#X connect 64 0 60 0;
#X connect 65 0 66 0;
#X connect 66 0 64 0;
#X connect 66 1 63 0;
#X connect 67 0 101 0;
#X connect 69 1 93 0;
#X connect 70 0 72 0;
#X connect 70 1 71 0;
#X connect 73 0 75 0;
#X connect 73 1 74 0;
#X connect 78 0 79 0;
#X connect 78 1 77 0;
#X connect 78 2 76 0;
#X connect 82 0 81 0;
#X connect 83 0 68 0;
#X connect 83 1 82 0;
#X connect 84 0 98 0;
#X connect 85 0 102 0;
#X connect 86 0 85 0;
#X connect 87 0 89 0;
#X connect 88 0 103 0;
#X connect 90 0 69 0;
#X connect 94 0 95 0;
#X connect 95 0 106 0;
#X connect 97 0 87 0;
#X connect 98 0 70 0;
#X connect 98 1 73 0;
#X connect 98 2 78 0;
#X connect 98 3 80 0;
#X connect 99 0 70 0;
#X connect 99 1 73 0;
#X connect 99 2 78 0;
#X connect 99 3 100 0;
#X connect 101 0 83 0;
#X connect 102 0 105 0;
#X connect 104 0 59 0;
#X connect 105 0 91 0;
#X connect 107 0 14 0;
#X connect 108 0 21 0;
#X coords 0 -1 1 1 700 170 1 100 100;
