#N canvas 629 389 1216 739 12;
#X obj 98 8 inlet;
#X obj 103 240 outlet;
#X obj 163 215 change;
#X obj 163 240 outlet;
#X obj 294 240 outlet;
#X obj 351 215 change;
#X obj 351 240 outlet;
#X obj 231 215 change;
#X obj 231 240 outlet;
#X obj 6 703 outlet;
#X obj 112 386 list split 3;
#X obj 112 411 list split 2;
#X obj 112 537 match 0 1 0 0 1 0;
#X obj 254 537 match 1 0 0 0 0 1;
#X obj 112 436 t a a;
#X msg 618 191 /time_loop 0;
#X obj 627 90 t b a;
#X obj 627 115 del 2000;
#X obj 613 544 match 0 1 0 0 1 0;
#X obj 755 544 match 1 0 0 0 0 1;
#X obj 613 452 t a a;
#X obj 201 181 tgl 18 1 empty empty empty 0 -10 0 12 #404040 #ffffff #000000 1 1;
#X obj 322 181 tgl 18 1 empty empty empty 0 -10 0 12 #404040 #ffffff #000000 1 1;
#X obj 245 181 tgl 18 1 empty empty empty 0 -10 0 12 #404040 #ffffff #000000 1 1;
#X obj 443 165 bng 10 250 50 0 empty empty t0 13 5 0 12 #ff8300 #000000 #000000;
#X obj 254 588 symbol +;
#X obj 144 588 symbol -;
#X symbolatom 182 180 2 0 0 0 - - - 0;
#X obj 164 181 bng 18 250 50 0 empty empty empty 0 -10 0 12 #404040 #9f9f9f #000000;
#X obj 755 595 symbol +;
#X obj 645 595 symbol -;
#X symbolatom 303 180 2 0 0 0 - - - 0;
#X obj 285 181 bng 18 250 50 0 empty empty empty 0 -10 0 12 #404040 #9f9f9f #000000;
#X obj 144 614 t b a a;
#X obj 645 620 t b a a;
#X msg 576 513 set 0 1 0 0 1 0;
#X msg 91 506 set 0 1 0 0 1 0;
#X text 235 495 reinitialise match pour eviter la répétition de motif;
#X obj 392 416 list split 2;
#X obj 392 441 unpack;
#X obj 853 28 routeOSC /StuART_BOITACLIK\$1;
#X obj 627 65 r IP-/CTRL/StuART_BOITACLIK\$1;
#X obj 302 167 bng 10 250 50 0 empty PoolRequest-\$0 PoolR 13 5 0 12 #00ff04 #000000 #000000;
#X msg 618 220 /POOL_REQUEST 1;
#X text 66 703 recopie de sortie;
#X obj 254 557 t b;
#X obj 755 564 t b;
#X obj 613 564 t b b;
#X obj 112 557 t b b;
#X obj 606 266 s OSC_to_StuART_BOITACLIK\$1;
#X obj 102 59 r OSC_to_StuART_BOITACLIK\$1;
#X obj 453 40 inlet;
#X obj 102 148 OSCsender 0 8888 StuART_BOITACLIK\$1;
#X obj 92 34 r OSC_to_StuART_BOITACLIK_ALL;
#X symbolatom 162 116 25 0 0 0 Recall - - 0;
#X msg 441 132 /memory/recall \$1;
#X obj 903 411 prepend set;
#X obj 355 83 r OSC_to_StuART_BOITACLIK\$1/recall;
#X obj 1072 311 symbol;
#X obj 853 366 routeOSC /BUTTON /read/memory /helloworld;
#X obj 1025 588 print lost_in_BOITACLIK\$1;
#X obj 958 308 prepend connect;
#X msg 469 302 connect 192.168.43.61 8888;
#X connect 0 0 40 0;
#X connect 2 0 3 0;
#X connect 5 0 6 0;
#X connect 7 0 8 0;
#X connect 10 0 11 0;
#X connect 10 1 38 0;
#X connect 11 0 14 0;
#X connect 11 1 21 0;
#X connect 12 0 48 0;
#X connect 13 0 45 0;
#X connect 14 0 12 0;
#X connect 14 1 13 0;
#X connect 15 0 49 0;
#X connect 16 0 17 0;
#X connect 16 1 52 1;
#X connect 18 0 47 0;
#X connect 19 0 46 0;
#X connect 20 0 18 0;
#X connect 20 1 19 0;
#X connect 21 0 2 0;
#X connect 22 0 5 0;
#X connect 23 0 7 0;
#X connect 24 0 15 0;
#X connect 25 0 33 0;
#X connect 26 0 33 0;
#X connect 29 0 34 0;
#X connect 30 0 34 0;
#X connect 33 0 28 0;
#X connect 33 1 27 0;
#X connect 33 2 1 0;
#X connect 34 0 32 0;
#X connect 34 1 31 0;
#X connect 34 2 4 0;
#X connect 35 0 18 0;
#X connect 36 0 12 0;
#X connect 38 0 39 0;
#X connect 38 1 20 0;
#X connect 39 0 23 0;
#X connect 39 1 22 0;
#X connect 40 0 59 0;
#X connect 40 1 9 0;
#X connect 41 0 16 0;
#X connect 42 0 43 0;
#X connect 43 0 49 0;
#X connect 45 0 25 0;
#X connect 46 0 29 0;
#X connect 47 0 35 0;
#X connect 47 1 30 0;
#X connect 48 0 36 0;
#X connect 48 1 26 0;
#X connect 50 0 52 0;
#X connect 51 0 52 0;
#X connect 53 0 52 0;
#X connect 54 0 55 0;
#X connect 55 0 52 0;
#X connect 56 0 54 0;
#X connect 57 0 54 0;
#X connect 59 0 10 0;
#X connect 59 1 56 0;
#X connect 59 2 61 0;
#X connect 59 3 60 0;
#X connect 61 0 52 1;
#X connect 62 0 52 1;
#X coords 0 -1 1 1 250 80 1 100 100;
