#N canvas 95 198 871 396 12;
#X obj 116 116 tgl 20 1 empty empty empty 0 -10 0 12 #fcfcfc #000000 #000000 1 1;
#X obj 143 116 tgl 20 1 empty empty empty 0 -10 0 12 #fcfcfc #000000 #000000 1 1;
#X obj 170 116 tgl 20 1 empty empty empty 0 -10 0 12 #fcfcfc #000000 #000000 1 1;
#X obj 197 116 tgl 20 1 empty empty empty 0 -10 0 12 #fcfcfc #000000 #000000 1 1;
#X obj 225 116 tgl 20 1 empty empty empty 0 -10 0 12 #fcfcfc #000000 #000000 1 1;
#X obj 253 116 tgl 20 1 empty empty empty 0 -10 0 12 #fcfcfc #000000 #000000 1 1;
#X obj 281 116 tgl 20 1 empty empty empty 0 -10 0 12 #fcfcfc #000000 #000000 1 1;
#X obj 108 76 unpack f f f f f f f;
#X obj 98 16 inlet;
#X obj 66 193 change;
#X obj 66 218 outlet;
#X obj 125 193 change;
#X obj 125 218 outlet;
#X obj 177 193 change;
#X obj 177 218 outlet;
#X obj 237 193 change;
#X obj 237 218 outlet;
#X obj 308 193 change;
#X obj 308 218 outlet;
#X obj 365 193 change;
#X obj 365 218 outlet;
#X obj 425 193 change;
#X obj 425 218 outlet;
#X obj 11 218 outlet;
#X obj 485 193 change;
#X obj 485 218 outlet;
#X floatatom 310 117 5 0 0 0 - - - 0;
#X obj 363 18 routeOSC /StuART_\$1;
#X obj 632 276 del 2000;
#X obj 568 183 bng 20 250 50 0 empty empty t50 25 15 0 12 #ff8300 #000000 #000000;
#X obj 632 128 t b a;
#X obj 632 103 r IP-/CTRL/StuART_\$1;
#X msg 632 305 /time_loop 50;
#X obj 63 43 r OSC_to_StuART_\$1;
#X obj 551 34 inlet;
#X obj 103 147 OSCsender 0 8888 StuART_\$1;
#X obj 463 118 print StuART_\$1;
#X obj 363 73 routeOSC /BUTTON /KNOB /helloworld;
#X obj 633 53 prepend connect;
#X connect 0 0 9 0;
#X connect 1 0 11 0;
#X connect 2 0 13 0;
#X connect 3 0 15 0;
#X connect 4 0 17 0;
#X connect 5 0 19 0;
#X connect 6 0 21 0;
#X connect 7 0 0 0;
#X connect 7 1 1 0;
#X connect 7 2 2 0;
#X connect 7 3 3 0;
#X connect 7 4 4 0;
#X connect 7 5 5 0;
#X connect 7 6 6 0;
#X connect 8 0 27 0;
#X connect 9 0 10 0;
#X connect 11 0 12 0;
#X connect 13 0 14 0;
#X connect 15 0 16 0;
#X connect 17 0 18 0;
#X connect 19 0 20 0;
#X connect 21 0 22 0;
#X connect 24 0 25 0;
#X connect 26 0 24 0;
#X connect 27 0 37 0;
#X connect 27 1 23 0;
#X connect 28 0 32 0;
#X connect 30 0 28 0;
#X connect 30 1 35 1;
#X connect 31 0 30 0;
#X connect 32 0 35 0;
#X connect 33 0 35 0;
#X connect 34 0 35 0;
#X connect 37 0 7 0;
#X connect 37 1 26 0;
#X connect 37 2 38 0;
#X connect 37 3 36 0;
#X connect 38 0 35 1;
#X coords 0 -1 1 1 250 80 1 100 100;
