#N canvas 106 117 862 739 12;
#X obj 98 16 inlet;
#X obj 103 240 outlet;
#X obj 163 215 change;
#X obj 163 240 outlet;
#X obj 234 240 outlet;
#X obj 291 215 change;
#X obj 291 240 outlet;
#X obj 351 215 change;
#X obj 351 240 outlet;
#X obj 11 218 outlet;
#X obj 112 386 list split 3;
#X obj 112 411 list split 2;
#X obj 112 528 match 0 1 0 0 1 0;
#X obj 254 528 match 1 0 0 0 0 1;
#X obj 112 625 counter;
#X floatatom 112 650 5 0 0 0 - - - 0;
#X obj 277 579 i 0;
#X obj 135 579 i 1;
#X obj 112 436 t a a;
#X obj 363 18 routeOSC /StuART_\$1;
#X msg 632 182 /time_loop 0;
#X obj 632 128 t b a;
#X obj 632 153 del 2000;
#X obj 632 103 r IP-/CTRL/StuART_\$1;
#X obj 491 406 list split 3;
#X obj 491 431 list split 2;
#X obj 491 548 match 0 1 0 0 1 0;
#X obj 633 548 match 1 0 0 0 0 1;
#X obj 491 645 counter;
#X floatatom 491 673 5 0 0 0 - - - 0;
#X obj 656 599 i 0;
#X obj 514 599 i 1;
#X obj 491 456 t a a;
#X obj 208 121 tgl 18 1 empty empty empty 0 -10 0 12 #404040 #ffffff #000000 1 1;
#X obj 289 121 tgl 18 1 empty empty empty 0 -10 0 12 #404040 #ffffff #000000 1 1;
#X obj 325 121 tgl 18 1 empty empty empty 0 -10 0 12 #404040 #ffffff #000000 1 1;
#X obj 426 204 bng 20 250 50 0 empty empty t0 25 15 0 12 #ff8300 #000000 #000000;
#X obj 112 548 t b b b;
#X obj 254 548 t b b b;
#X obj 491 568 t b b b;
#X obj 633 568 t b b b;
#X obj 317 579 symbol +;
#X obj 175 579 symbol -;
#X symbolatom 182 120 2 0 0 0 - - - 0;
#X obj 164 121 bng 18 250 50 0 empty empty empty 0 -10 0 12 #404040 #9f9f9f #000000;
#X obj 692 599 symbol +;
#X obj 550 599 symbol -;
#X symbolatom 263 120 2 0 0 0 - - - 0;
#X obj 245 121 bng 18 250 50 0 empty empty empty 0 -10 0 12 #404040 #9f9f9f #000000;
#X obj 225 625 t b a a;
#X obj 600 645 t b a a;
#X obj 694 478 print 1;
#X msg 454 517 set 0 1 0 0 1 0;
#X msg 91 506 set 0 1 0 0 1 0;
#X text 215 506 reinitialise match pour eviter la répétition de motif;
#X obj 83 63 r OSC_to_StuART_\$1;
#X obj 560 42 inlet;
#X obj 103 148 OSCsender 0 8888 StuART_\$1;
#X obj 88 32 r OSC_to_StuART_BOITACLIK_ALL;
#X obj 448 158 print StuART_\$1;
#X obj 41 104 spigot;
#X obj 103 118 tgl 20 0 empty empty T-SelAll 22 10 0 8 #fcfcfc #000000 #000000 0 1;
#X obj 363 73 routeOSC /BUTTON /helloworld;
#X obj 633 53 prepend connect;
#X connect 0 0 19 0;
#X connect 2 0 3 0;
#X connect 5 0 6 0;
#X connect 7 0 8 0;
#X connect 10 0 11 0;
#X connect 10 1 24 0;
#X connect 11 0 18 0;
#X connect 11 1 33 0;
#X connect 12 0 37 0;
#X connect 13 0 38 0;
#X connect 14 0 15 0;
#X connect 16 0 14 1;
#X connect 17 0 14 1;
#X connect 18 0 12 0;
#X connect 18 1 13 0;
#X connect 19 0 62 0;
#X connect 19 1 9 0;
#X connect 20 0 57 0;
#X connect 21 0 22 0;
#X connect 21 1 57 1;
#X connect 23 0 21 0;
#X connect 24 0 25 0;
#X connect 24 1 35 0;
#X connect 25 0 32 0;
#X connect 25 1 34 0;
#X connect 26 0 39 0;
#X connect 27 0 40 0;
#X connect 28 0 29 0;
#X connect 30 0 28 1;
#X connect 31 0 28 1;
#X connect 32 0 26 0;
#X connect 32 1 27 0;
#X connect 33 0 2 0;
#X connect 34 0 5 0;
#X connect 35 0 7 0;
#X connect 36 0 20 0;
#X connect 37 0 53 0;
#X connect 37 1 17 0;
#X connect 37 2 42 0;
#X connect 38 1 16 0;
#X connect 38 2 41 0;
#X connect 39 0 52 0;
#X connect 39 1 31 0;
#X connect 39 2 46 0;
#X connect 40 1 30 0;
#X connect 40 2 45 0;
#X connect 41 0 49 0;
#X connect 42 0 49 0;
#X connect 45 0 50 0;
#X connect 46 0 50 0;
#X connect 49 0 44 0;
#X connect 49 1 43 0;
#X connect 49 2 1 0;
#X connect 50 0 48 0;
#X connect 50 1 47 0;
#X connect 50 2 4 0;
#X connect 52 0 26 0;
#X connect 53 0 12 0;
#X connect 55 0 57 0;
#X connect 56 0 57 0;
#X connect 58 0 60 0;
#X connect 60 0 57 0;
#X connect 61 0 60 1;
#X connect 62 0 10 0;
#X connect 62 1 63 0;
#X connect 62 2 59 0;
#X connect 63 0 57 1;
#X coords 0 -1 1 1 250 80 1 100 100;
